G04 Layer: TopSolderMaskLayer*
G04 EasyEDA v6.4.4, 2020-08-18T00:36:11--7:00*
G04 995102e80ca04af79c8c3c359321127d,ec5ec94f42e349aabe65ed7a530a4b72,10*
G04 Gerber Generator version 0.2*
G04 Scale: 100 percent, Rotated: No, Reflected: No *
G04 Dimensions in millimeters *
G04 leading zeros omitted , absolute positions ,3 integer and 3 decimal *
%FSLAX33Y33*%
%MOMM*%
G90*
G71D02*

%ADD72R,0.877976X0.577977*%
%ADD75R,1.289558X0.641858*%

%LPD*%
G36*
G01X33210Y13312D02*
G01X33210Y14889D01*
G01X34787Y14889D01*
G01X34787Y13312D01*
G01X33210Y13312D01*
G37*
G36*
G01X11760Y12710D02*
G01X11760Y13388D01*
G01X12438Y13388D01*
G01X12438Y12710D01*
G01X11760Y12710D01*
G37*
G36*
G01X10160Y12710D02*
G01X10160Y13388D01*
G01X10838Y13388D01*
G01X10838Y12710D01*
G01X10160Y12710D01*
G37*
G36*
G01X14310Y14711D02*
G01X14310Y15288D01*
G01X14988Y15288D01*
G01X14988Y14711D01*
G01X14310Y14711D01*
G37*
G36*
G01X15410Y14711D02*
G01X15410Y15288D01*
G01X16088Y15288D01*
G01X16088Y14711D01*
G01X15410Y14711D01*
G37*
G36*
G01X13086Y16060D02*
G01X13086Y16537D01*
G01X13464Y16537D01*
G01X13464Y16060D01*
G01X13086Y16060D01*
G37*
G36*
G01X12537Y16060D02*
G01X12537Y16537D01*
G01X12915Y16537D01*
G01X12915Y16060D01*
G01X12537Y16060D01*
G37*
G36*
G01X18686Y15260D02*
G01X18686Y15737D01*
G01X19065Y15737D01*
G01X19065Y15260D01*
G01X18686Y15260D01*
G37*
G36*
G01X18138Y15260D02*
G01X18138Y15737D01*
G01X18514Y15737D01*
G01X18514Y15260D01*
G01X18138Y15260D01*
G37*
G36*
G01X29959Y14086D02*
G01X29959Y14465D01*
G01X30436Y14465D01*
G01X30436Y14086D01*
G01X29959Y14086D01*
G37*
G36*
G01X29959Y13535D02*
G01X29959Y13914D01*
G01X30436Y13914D01*
G01X30436Y13535D01*
G01X29959Y13535D01*
G37*
G36*
G01X20886Y510D02*
G01X20886Y988D01*
G01X21264Y988D01*
G01X21264Y510D01*
G01X20886Y510D01*
G37*
G36*
G01X20337Y510D02*
G01X20337Y988D01*
G01X20713Y988D01*
G01X20713Y510D01*
G01X20337Y510D01*
G37*
G36*
G01X2410Y3860D02*
G01X2410Y4739D01*
G01X2987Y4739D01*
G01X2987Y3860D01*
G01X2410Y3860D01*
G37*
G36*
G01X1409Y3860D02*
G01X1409Y4739D01*
G01X1988Y4739D01*
G01X1988Y3860D01*
G01X1409Y3860D01*
G37*
G36*
G01X1811Y13462D02*
G01X1811Y14338D01*
G01X2390Y14338D01*
G01X2390Y13462D01*
G01X1811Y13462D01*
G37*
G36*
G01X810Y13462D02*
G01X810Y14338D01*
G01X1389Y14338D01*
G01X1389Y13462D01*
G01X810Y13462D01*
G37*
G36*
G01X15311Y15862D02*
G01X15311Y16738D01*
G01X15887Y16738D01*
G01X15887Y15862D01*
G01X15311Y15862D01*
G37*
G36*
G01X14310Y15862D02*
G01X14310Y16738D01*
G01X14889Y16738D01*
G01X14889Y15862D01*
G01X14310Y15862D01*
G37*
G54D72*
G01X898Y7600D03*
G36*
G01X459Y8310D02*
G01X459Y8890D01*
G01X1338Y8890D01*
G01X1338Y8310D01*
G01X459Y8310D01*
G37*
G36*
G01X459Y10411D02*
G01X459Y10990D01*
G01X1338Y10990D01*
G01X1338Y10411D01*
G01X459Y10411D01*
G37*
G36*
G01X459Y9410D02*
G01X459Y9989D01*
G01X1338Y9989D01*
G01X1338Y9410D01*
G01X459Y9410D01*
G37*
G36*
G01X8186Y16012D02*
G01X8186Y16489D01*
G01X8564Y16489D01*
G01X8564Y16012D01*
G01X8186Y16012D01*
G37*
G36*
G01X8735Y16012D02*
G01X8735Y16489D01*
G01X9113Y16489D01*
G01X9113Y16012D01*
G01X8735Y16012D01*
G37*
G36*
G01X23860Y11610D02*
G01X23860Y12189D01*
G01X24739Y12189D01*
G01X24739Y11610D01*
G01X23860Y11610D01*
G37*
G36*
G01X23860Y12611D02*
G01X23860Y13190D01*
G01X24739Y13190D01*
G01X24739Y12611D01*
G01X23860Y12611D01*
G37*
G36*
G01X32410Y462D02*
G01X32410Y1038D01*
G01X33289Y1038D01*
G01X33289Y462D01*
G01X32410Y462D01*
G37*
G36*
G01X32410Y1460D02*
G01X32410Y2039D01*
G01X33289Y2039D01*
G01X33289Y1460D01*
G01X32410Y1460D01*
G37*
G36*
G01X25958Y4160D02*
G01X25958Y6738D01*
G01X26537Y6738D01*
G01X26537Y4160D01*
G01X25958Y4160D01*
G37*
G36*
G01X24759Y4610D02*
G01X24759Y6289D01*
G01X25339Y6289D01*
G01X25339Y4610D01*
G01X24759Y4610D01*
G37*
G36*
G01X23561Y4160D02*
G01X23561Y6738D01*
G01X24140Y6738D01*
G01X24140Y4160D01*
G01X23561Y4160D01*
G37*
G36*
G01X21658Y2519D02*
G01X21658Y3159D01*
G01X22948Y3159D01*
G01X22948Y2519D01*
G01X21658Y2519D01*
G37*
G36*
G01X21658Y1579D02*
G01X21658Y2219D01*
G01X22948Y2219D01*
G01X22948Y1579D01*
G01X21658Y1579D01*
G37*
G36*
G01X21658Y640D02*
G01X21658Y1280D01*
G01X22948Y1280D01*
G01X22948Y640D01*
G01X21658Y640D01*
G37*
G36*
G01X24249Y640D02*
G01X24249Y1280D01*
G01X25539Y1280D01*
G01X25539Y640D01*
G01X24249Y640D01*
G37*
G36*
G01X24249Y2519D02*
G01X24249Y3159D01*
G01X25539Y3159D01*
G01X25539Y2519D01*
G01X24249Y2519D01*
G37*
G36*
G01X24249Y1579D02*
G01X24249Y2219D01*
G01X25539Y2219D01*
G01X25539Y1579D01*
G01X24249Y1579D01*
G37*
G36*
G01X19359Y16019D02*
G01X19359Y16659D01*
G01X20650Y16659D01*
G01X20650Y16019D01*
G01X19359Y16019D01*
G37*
G36*
G01X19359Y15079D02*
G01X19359Y15720D01*
G01X20650Y15720D01*
G01X20650Y15079D01*
G01X19359Y15079D01*
G37*
G36*
G01X19359Y14140D02*
G01X19359Y14780D01*
G01X20650Y14780D01*
G01X20650Y14140D01*
G01X19359Y14140D01*
G37*
G36*
G01X21950Y14140D02*
G01X21950Y14780D01*
G01X23241Y14780D01*
G01X23241Y14140D01*
G01X21950Y14140D01*
G37*
G36*
G01X21950Y16019D02*
G01X21950Y16659D01*
G01X23241Y16659D01*
G01X23241Y16019D01*
G01X21950Y16019D01*
G37*
G36*
G01X21950Y15079D02*
G01X21950Y15720D01*
G01X23241Y15720D01*
G01X23241Y15079D01*
G01X21950Y15079D01*
G37*
G36*
G01X32037Y4485D02*
G01X32037Y5565D01*
G01X34813Y5565D01*
G01X34813Y4485D01*
G01X32037Y4485D01*
G37*
G36*
G01X29337Y7785D02*
G01X29337Y8463D01*
G01X31115Y8463D01*
G01X31115Y7785D01*
G01X29337Y7785D01*
G37*
G36*
G01X29337Y6535D02*
G01X29337Y7213D01*
G01X31115Y7213D01*
G01X31115Y6535D01*
G01X29337Y6535D01*
G37*
G36*
G01X29337Y9037D02*
G01X29337Y9712D01*
G01X31115Y9712D01*
G01X31115Y9037D01*
G01X29337Y9037D01*
G37*
G36*
G01X29337Y10287D02*
G01X29337Y10965D01*
G01X31115Y10965D01*
G01X31115Y10287D01*
G01X29337Y10287D01*
G37*
G36*
G01X32037Y11935D02*
G01X32037Y13014D01*
G01X34813Y13014D01*
G01X34813Y11935D01*
G01X32037Y11935D01*
G37*
G36*
G01X18686Y16261D02*
G01X18686Y16738D01*
G01X19062Y16738D01*
G01X19062Y16261D01*
G01X18686Y16261D01*
G37*
G36*
G01X18135Y16261D02*
G01X18135Y16738D01*
G01X18514Y16738D01*
G01X18514Y16261D01*
G01X18135Y16261D01*
G37*
G36*
G01X5859Y3335D02*
G01X5859Y3713D01*
G01X6339Y3713D01*
G01X6339Y3335D01*
G01X5859Y3335D01*
G37*
G36*
G01X5859Y3886D02*
G01X5859Y4264D01*
G01X6339Y4264D01*
G01X6339Y3886D01*
G01X5859Y3886D01*
G37*
G36*
G01X4861Y1635D02*
G01X4861Y2014D01*
G01X5339Y2014D01*
G01X5339Y1635D01*
G01X4861Y1635D01*
G37*
G36*
G01X4861Y2186D02*
G01X4861Y2562D01*
G01X5339Y2562D01*
G01X5339Y2186D01*
G01X4861Y2186D01*
G37*
G36*
G01X1836Y5961D02*
G01X1836Y6438D01*
G01X2214Y6438D01*
G01X2214Y5961D01*
G01X1836Y5961D01*
G37*
G36*
G01X2385Y5961D02*
G01X2385Y6438D01*
G01X2763Y6438D01*
G01X2763Y5961D01*
G01X2385Y5961D01*
G37*
G36*
G01X28460Y8237D02*
G01X28460Y8613D01*
G01X28938Y8613D01*
G01X28938Y8237D01*
G01X28460Y8237D01*
G37*
G36*
G01X28460Y8785D02*
G01X28460Y9164D01*
G01X28938Y9164D01*
G01X28938Y8785D01*
G01X28460Y8785D01*
G37*
G36*
G01X26111Y2037D02*
G01X26111Y2413D01*
G01X26588Y2413D01*
G01X26588Y2037D01*
G01X26111Y2037D01*
G37*
G36*
G01X26111Y2585D02*
G01X26111Y2964D01*
G01X26588Y2964D01*
G01X26588Y2585D01*
G01X26111Y2585D01*
G37*
G36*
G01X20886Y2410D02*
G01X20886Y2887D01*
G01X21264Y2887D01*
G01X21264Y2410D01*
G01X20886Y2410D01*
G37*
G36*
G01X20335Y2410D02*
G01X20335Y2887D01*
G01X20713Y2887D01*
G01X20713Y2410D01*
G01X20335Y2410D01*
G37*
G36*
G01X26936Y411D02*
G01X26936Y889D01*
G01X27315Y889D01*
G01X27315Y411D01*
G01X26936Y411D01*
G37*
G36*
G01X27485Y411D02*
G01X27485Y889D01*
G01X27863Y889D01*
G01X27863Y411D01*
G01X27485Y411D01*
G37*
G36*
G01X26012Y635D02*
G01X26012Y1013D01*
G01X26489Y1013D01*
G01X26489Y635D01*
G01X26012Y635D01*
G37*
G36*
G01X26012Y1186D02*
G01X26012Y1564D01*
G01X26489Y1564D01*
G01X26489Y1186D01*
G01X26012Y1186D01*
G37*
G36*
G01X18836Y510D02*
G01X18836Y988D01*
G01X19215Y988D01*
G01X19215Y510D01*
G01X18836Y510D01*
G37*
G36*
G01X19385Y510D02*
G01X19385Y988D01*
G01X19763Y988D01*
G01X19763Y510D01*
G01X19385Y510D01*
G37*
G36*
G01X2037Y11760D02*
G01X2037Y12237D01*
G01X2413Y12237D01*
G01X2413Y11760D01*
G01X2037Y11760D01*
G37*
G36*
G01X2585Y11760D02*
G01X2585Y12237D01*
G01X2964Y12237D01*
G01X2964Y11760D01*
G01X2585Y11760D01*
G37*
G36*
G01X28435Y16360D02*
G01X28435Y16840D01*
G01X28813Y16840D01*
G01X28813Y16360D01*
G01X28435Y16360D01*
G37*
G36*
G01X28986Y16360D02*
G01X28986Y16840D01*
G01X29364Y16840D01*
G01X29364Y16360D01*
G01X28986Y16360D01*
G37*
G36*
G01X27586Y12011D02*
G01X27586Y12489D01*
G01X27962Y12489D01*
G01X27962Y12011D01*
G01X27586Y12011D01*
G37*
G36*
G01X27035Y12011D02*
G01X27035Y12489D01*
G01X27414Y12489D01*
G01X27414Y12011D01*
G01X27035Y12011D01*
G37*
G36*
G01X27586Y16360D02*
G01X27586Y16840D01*
G01X27962Y16840D01*
G01X27962Y16360D01*
G01X27586Y16360D01*
G37*
G36*
G01X27035Y16360D02*
G01X27035Y16840D01*
G01X27414Y16840D01*
G01X27414Y16360D01*
G01X27035Y16360D01*
G37*
G36*
G01X25387Y15961D02*
G01X25387Y16438D01*
G01X25763Y16438D01*
G01X25763Y15961D01*
G01X25387Y15961D01*
G37*
G36*
G01X25935Y15961D02*
G01X25935Y16438D01*
G01X26314Y16438D01*
G01X26314Y15961D01*
G01X25935Y15961D01*
G37*
G36*
G01X30535Y14960D02*
G01X30535Y15438D01*
G01X30914Y15438D01*
G01X30914Y14960D01*
G01X30535Y14960D01*
G37*
G36*
G01X29987Y14960D02*
G01X29987Y15438D01*
G01X30363Y15438D01*
G01X30363Y14960D01*
G01X29987Y14960D01*
G37*
G36*
G01X11635Y11562D02*
G01X11635Y12039D01*
G01X12014Y12039D01*
G01X12014Y11562D01*
G01X11635Y11562D01*
G37*
G36*
G01X12186Y11562D02*
G01X12186Y12039D01*
G01X12562Y12039D01*
G01X12562Y11562D01*
G01X12186Y11562D01*
G37*
G36*
G01X12186Y10660D02*
G01X12186Y11137D01*
G01X12562Y11137D01*
G01X12562Y10660D01*
G01X12186Y10660D01*
G37*
G36*
G01X11635Y10660D02*
G01X11635Y11137D01*
G01X12014Y11137D01*
G01X12014Y10660D01*
G01X11635Y10660D01*
G37*
G36*
G01X25935Y12410D02*
G01X25935Y12887D01*
G01X26314Y12887D01*
G01X26314Y12410D01*
G01X25935Y12410D01*
G37*
G36*
G01X25384Y12410D02*
G01X25384Y12887D01*
G01X25763Y12887D01*
G01X25763Y12410D01*
G01X25384Y12410D01*
G37*
G36*
G01X4861Y3335D02*
G01X4861Y3713D01*
G01X5339Y3713D01*
G01X5339Y3335D01*
G01X4861Y3335D01*
G37*
G36*
G01X4861Y3886D02*
G01X4861Y4264D01*
G01X5339Y4264D01*
G01X5339Y3886D01*
G01X4861Y3886D01*
G37*
G36*
G01X31386Y411D02*
G01X31386Y889D01*
G01X31762Y889D01*
G01X31762Y411D01*
G01X31386Y411D01*
G37*
G36*
G01X30835Y411D02*
G01X30835Y889D01*
G01X31214Y889D01*
G01X31214Y411D01*
G01X30835Y411D01*
G37*
G36*
G01X16637Y16261D02*
G01X16637Y16738D01*
G01X17012Y16738D01*
G01X17012Y16261D01*
G01X16637Y16261D01*
G37*
G36*
G01X17185Y16261D02*
G01X17185Y16738D01*
G01X17564Y16738D01*
G01X17564Y16261D01*
G01X17185Y16261D01*
G37*
G36*
G01X1836Y7061D02*
G01X1836Y7538D01*
G01X2214Y7538D01*
G01X2214Y7061D01*
G01X1836Y7061D01*
G37*
G36*
G01X2385Y7061D02*
G01X2385Y7538D01*
G01X2763Y7538D01*
G01X2763Y7061D01*
G01X2385Y7061D01*
G37*
G36*
G01X23637Y15260D02*
G01X23637Y15737D01*
G01X24013Y15737D01*
G01X24013Y15260D01*
G01X23637Y15260D01*
G37*
G36*
G01X24185Y15260D02*
G01X24185Y15737D01*
G01X24564Y15737D01*
G01X24564Y15260D01*
G01X24185Y15260D01*
G37*
G36*
G01X18686Y14262D02*
G01X18686Y14739D01*
G01X19062Y14739D01*
G01X19062Y14262D01*
G01X18686Y14262D01*
G37*
G36*
G01X18135Y14262D02*
G01X18135Y14739D01*
G01X18514Y14739D01*
G01X18514Y14262D01*
G01X18135Y14262D01*
G37*
G36*
G01X23660Y13787D02*
G01X23660Y14163D01*
G01X24140Y14163D01*
G01X24140Y13787D01*
G01X23660Y13787D01*
G37*
G36*
G01X23660Y14335D02*
G01X23660Y14714D01*
G01X24140Y14714D01*
G01X24140Y14335D01*
G01X23660Y14335D01*
G37*
G36*
G01X17185Y15260D02*
G01X17185Y15737D01*
G01X17564Y15737D01*
G01X17564Y15260D01*
G01X17185Y15260D01*
G37*
G36*
G01X16637Y15260D02*
G01X16637Y15737D01*
G01X17012Y15737D01*
G01X17012Y15260D01*
G01X16637Y15260D01*
G37*
G36*
G01X18856Y2258D02*
G01X18856Y2842D01*
G01X19443Y2842D01*
G01X19443Y2258D01*
G01X18856Y2258D01*
G37*
G36*
G01X14907Y2905D02*
G01X14907Y3492D01*
G01X15494Y3492D01*
G01X15494Y2905D01*
G01X14907Y2905D01*
G37*
G36*
G01X11856Y6906D02*
G01X11856Y7493D01*
G01X12443Y7493D01*
G01X12443Y6906D01*
G01X11856Y6906D01*
G37*
G36*
G01X12207Y5605D02*
G01X12207Y6192D01*
G01X12793Y6192D01*
G01X12793Y5605D01*
G01X12207Y5605D01*
G37*
G36*
G01X17508Y1856D02*
G01X17508Y2443D01*
G01X18092Y2443D01*
G01X18092Y1856D01*
G01X17508Y1856D01*
G37*
G36*
G01X17508Y2707D02*
G01X17508Y3291D01*
G01X18092Y3291D01*
G01X18092Y2707D01*
G01X17508Y2707D01*
G37*
G36*
G01X27437Y6659D02*
G01X27437Y7139D01*
G01X27813Y7139D01*
G01X27813Y6659D01*
G01X27437Y6659D01*
G37*
G36*
G01X27985Y6659D02*
G01X27985Y7139D01*
G01X28364Y7139D01*
G01X28364Y6659D01*
G01X27985Y6659D01*
G37*
G36*
G01X13360Y12987D02*
G01X13360Y13362D01*
G01X13837Y13362D01*
G01X13837Y12987D01*
G01X13360Y12987D01*
G37*
G36*
G01X13360Y12435D02*
G01X13360Y12814D01*
G01X13837Y12814D01*
G01X13837Y12435D01*
G01X13360Y12435D01*
G37*
G36*
G01X14262Y12987D02*
G01X14262Y13362D01*
G01X14739Y13362D01*
G01X14739Y12987D01*
G01X14262Y12987D01*
G37*
G36*
G01X14262Y12435D02*
G01X14262Y12814D01*
G01X14739Y12814D01*
G01X14739Y12435D01*
G01X14262Y12435D01*
G37*
G36*
G01X21536Y4061D02*
G01X21536Y4538D01*
G01X21915Y4538D01*
G01X21915Y4061D01*
G01X21536Y4061D01*
G37*
G36*
G01X22085Y4061D02*
G01X22085Y4538D01*
G01X22463Y4538D01*
G01X22463Y4061D01*
G01X22085Y4061D01*
G37*
G36*
G01X22085Y4960D02*
G01X22085Y5438D01*
G01X22463Y5438D01*
G01X22463Y4960D01*
G01X22085Y4960D01*
G37*
G36*
G01X21536Y4960D02*
G01X21536Y5438D01*
G01X21915Y5438D01*
G01X21915Y4960D01*
G01X21536Y4960D01*
G37*
G36*
G01X13736Y4061D02*
G01X13736Y4538D01*
G01X14114Y4538D01*
G01X14114Y4061D01*
G01X13736Y4061D01*
G37*
G36*
G01X14284Y4061D02*
G01X14284Y4538D01*
G01X14663Y4538D01*
G01X14663Y4061D01*
G01X14284Y4061D01*
G37*
G36*
G01X6261Y13510D02*
G01X6261Y14488D01*
G01X7139Y14488D01*
G01X7139Y13510D01*
G01X6261Y13510D01*
G37*
G36*
G01X4861Y13510D02*
G01X4861Y14488D01*
G01X5737Y14488D01*
G01X5737Y13510D01*
G01X4861Y13510D01*
G37*
G36*
G01X3261Y12811D02*
G01X3261Y13388D01*
G01X4140Y13388D01*
G01X4140Y12811D01*
G01X3261Y12811D01*
G37*
G36*
G01X3261Y13809D02*
G01X3261Y14389D01*
G01X4140Y14389D01*
G01X4140Y13809D01*
G01X3261Y13809D01*
G37*
G36*
G01X4310Y15161D02*
G01X4310Y16040D01*
G01X4889Y16040D01*
G01X4889Y15161D01*
G01X4310Y15161D01*
G37*
G36*
G01X3312Y15161D02*
G01X3312Y16040D01*
G01X3888Y16040D01*
G01X3888Y15161D01*
G01X3312Y15161D01*
G37*
G36*
G01X13736Y4960D02*
G01X13736Y5438D01*
G01X14114Y5438D01*
G01X14114Y4960D01*
G01X13736Y4960D01*
G37*
G36*
G01X14284Y4960D02*
G01X14284Y5438D01*
G01X14663Y5438D01*
G01X14663Y4960D01*
G01X14284Y4960D01*
G37*
G36*
G01X26659Y8409D02*
G01X26659Y9588D01*
G01X27739Y9588D01*
G01X27739Y8409D01*
G01X26659Y8409D01*
G37*
G36*
G01X24861Y8409D02*
G01X24861Y9588D01*
G01X25938Y9588D01*
G01X25938Y8409D01*
G01X24861Y8409D01*
G37*
G36*
G01X27360Y10236D02*
G01X27360Y10614D01*
G01X27838Y10614D01*
G01X27838Y10236D01*
G01X27360Y10236D01*
G37*
G36*
G01X27360Y10784D02*
G01X27360Y11163D01*
G01X27838Y11163D01*
G01X27838Y10784D01*
G01X27360Y10784D01*
G37*
G36*
G01X26311Y10261D02*
G01X26311Y11137D01*
G01X26888Y11137D01*
G01X26888Y10261D01*
G01X26311Y10261D01*
G37*
G36*
G01X25311Y10261D02*
G01X25311Y11137D01*
G01X25887Y11137D01*
G01X25887Y10261D01*
G01X25311Y10261D01*
G37*
G36*
G01X25585Y7261D02*
G01X25585Y7739D01*
G01X25963Y7739D01*
G01X25963Y7261D01*
G01X25585Y7261D01*
G37*
G36*
G01X25036Y7261D02*
G01X25036Y7739D01*
G01X25415Y7739D01*
G01X25415Y7261D01*
G01X25036Y7261D01*
G37*
G36*
G01X30761Y3235D02*
G01X30761Y3614D01*
G01X31239Y3614D01*
G01X31239Y3235D01*
G01X30761Y3235D01*
G37*
G36*
G01X30761Y3787D02*
G01X30761Y4163D01*
G01X31239Y4163D01*
G01X31239Y3787D01*
G01X30761Y3787D01*
G37*
G36*
G01X10111Y1412D02*
G01X10111Y2288D01*
G01X10688Y2288D01*
G01X10688Y1412D01*
G01X10111Y1412D01*
G37*
G36*
G01X9110Y1412D02*
G01X9110Y2288D01*
G01X9690Y2288D01*
G01X9690Y1412D01*
G01X9110Y1412D01*
G37*
G36*
G01X7310Y2011D02*
G01X7310Y2887D01*
G01X8288Y2887D01*
G01X8288Y2011D01*
G01X7310Y2011D01*
G37*
G36*
G01X7310Y3411D02*
G01X7310Y4290D01*
G01X8288Y4290D01*
G01X8288Y3411D01*
G01X7310Y3411D01*
G37*
G36*
G01X810Y15161D02*
G01X810Y16040D01*
G01X1389Y16040D01*
G01X1389Y15161D01*
G01X810Y15161D01*
G37*
G36*
G01X1811Y15161D02*
G01X1811Y16040D01*
G01X2390Y16040D01*
G01X2390Y15161D01*
G01X1811Y15161D01*
G37*
G36*
G01X4333Y4902D02*
G01X4333Y5742D01*
G01X4665Y5742D01*
G01X4665Y4902D01*
G01X4333Y4902D01*
G37*
G36*
G01X5334Y4902D02*
G01X5334Y5742D01*
G01X5666Y5742D01*
G01X5666Y4902D01*
G01X5334Y4902D01*
G37*
G36*
G01X5834Y4902D02*
G01X5834Y5742D01*
G01X6167Y5742D01*
G01X6167Y4902D01*
G01X5834Y4902D01*
G37*
G36*
G01X6334Y4902D02*
G01X6334Y5742D01*
G01X6664Y5742D01*
G01X6664Y4902D01*
G01X6334Y4902D01*
G37*
G36*
G01X6835Y4902D02*
G01X6835Y5742D01*
G01X7165Y5742D01*
G01X7165Y4902D01*
G01X6835Y4902D01*
G37*
G36*
G01X7332Y4902D02*
G01X7332Y5742D01*
G01X7665Y5742D01*
G01X7665Y4902D01*
G01X7332Y4902D01*
G37*
G36*
G01X7833Y4902D02*
G01X7833Y5742D01*
G01X8166Y5742D01*
G01X8166Y4902D01*
G01X7833Y4902D01*
G37*
G36*
G01X8333Y4902D02*
G01X8333Y5742D01*
G01X8666Y5742D01*
G01X8666Y4902D01*
G01X8333Y4902D01*
G37*
G36*
G01X8834Y4902D02*
G01X8834Y5742D01*
G01X9166Y5742D01*
G01X9166Y4902D01*
G01X8834Y4902D01*
G37*
G36*
G01X9334Y4902D02*
G01X9334Y5742D01*
G01X9664Y5742D01*
G01X9664Y4902D01*
G01X9334Y4902D01*
G37*
G36*
G01X10007Y6083D02*
G01X10007Y6416D01*
G01X10845Y6416D01*
G01X10845Y6083D01*
G01X10007Y6083D01*
G37*
G36*
G01X10007Y6583D02*
G01X10007Y6916D01*
G01X10845Y6916D01*
G01X10845Y6583D01*
G01X10007Y6583D01*
G37*
G36*
G01X10007Y7084D02*
G01X10007Y7416D01*
G01X10845Y7416D01*
G01X10845Y7084D01*
G01X10007Y7084D01*
G37*
G36*
G01X10007Y7584D02*
G01X10007Y7917D01*
G01X10845Y7917D01*
G01X10845Y7584D01*
G01X10007Y7584D01*
G37*
G36*
G01X10007Y8084D02*
G01X10007Y8415D01*
G01X10845Y8415D01*
G01X10845Y8084D01*
G01X10007Y8084D01*
G37*
G36*
G01X10007Y8585D02*
G01X10007Y8915D01*
G01X10845Y8915D01*
G01X10845Y8585D01*
G01X10007Y8585D01*
G37*
G36*
G01X10007Y9083D02*
G01X10007Y9415D01*
G01X10845Y9415D01*
G01X10845Y9083D01*
G01X10007Y9083D01*
G37*
G36*
G01X10007Y9583D02*
G01X10007Y9916D01*
G01X10845Y9916D01*
G01X10845Y9583D01*
G01X10007Y9583D01*
G37*
G36*
G01X10007Y10083D02*
G01X10007Y10416D01*
G01X10845Y10416D01*
G01X10845Y10083D01*
G01X10007Y10083D01*
G37*
G36*
G01X10007Y10584D02*
G01X10007Y10916D01*
G01X10845Y10916D01*
G01X10845Y10584D01*
G01X10007Y10584D01*
G37*
G36*
G01X10007Y11084D02*
G01X10007Y11414D01*
G01X10845Y11414D01*
G01X10845Y11084D01*
G01X10007Y11084D01*
G37*
G36*
G01X9334Y11757D02*
G01X9334Y12595D01*
G01X9664Y12595D01*
G01X9664Y11757D01*
G01X9334Y11757D01*
G37*
G36*
G01X8834Y11757D02*
G01X8834Y12595D01*
G01X9166Y12595D01*
G01X9166Y11757D01*
G01X8834Y11757D01*
G37*
G36*
G01X8333Y11757D02*
G01X8333Y12595D01*
G01X8666Y12595D01*
G01X8666Y11757D01*
G01X8333Y11757D01*
G37*
G36*
G01X7332Y11757D02*
G01X7332Y12595D01*
G01X7665Y12595D01*
G01X7665Y11757D01*
G01X7332Y11757D01*
G37*
G36*
G01X6334Y11757D02*
G01X6334Y12595D01*
G01X6664Y12595D01*
G01X6664Y11757D01*
G01X6334Y11757D01*
G37*
G36*
G01X5334Y11757D02*
G01X5334Y12595D01*
G01X5666Y12595D01*
G01X5666Y11757D01*
G01X5334Y11757D01*
G37*
G36*
G01X4833Y11757D02*
G01X4833Y12595D01*
G01X5166Y12595D01*
G01X5166Y11757D01*
G01X4833Y11757D01*
G37*
G36*
G01X4333Y11757D02*
G01X4333Y12595D01*
G01X4665Y12595D01*
G01X4665Y11757D01*
G01X4333Y11757D01*
G37*
G36*
G01X3152Y10584D02*
G01X3152Y10916D01*
G01X3992Y10916D01*
G01X3992Y10584D01*
G01X3152Y10584D01*
G37*
G36*
G01X3152Y10083D02*
G01X3152Y10416D01*
G01X3992Y10416D01*
G01X3992Y10083D01*
G01X3152Y10083D01*
G37*
G36*
G01X3152Y9583D02*
G01X3152Y9916D01*
G01X3992Y9916D01*
G01X3992Y9583D01*
G01X3152Y9583D01*
G37*
G36*
G01X3152Y8585D02*
G01X3152Y8915D01*
G01X3992Y8915D01*
G01X3992Y8585D01*
G01X3152Y8585D01*
G37*
G36*
G01X3152Y8084D02*
G01X3152Y8415D01*
G01X3992Y8415D01*
G01X3992Y8084D01*
G01X3152Y8084D01*
G37*
G36*
G01X3152Y7584D02*
G01X3152Y7917D01*
G01X3992Y7917D01*
G01X3992Y7584D01*
G01X3152Y7584D01*
G37*
G36*
G01X3152Y6583D02*
G01X3152Y6916D01*
G01X3992Y6916D01*
G01X3992Y6583D01*
G01X3152Y6583D01*
G37*
G36*
G01X3152Y6083D02*
G01X3152Y6416D01*
G01X3992Y6416D01*
G01X3992Y6083D01*
G01X3152Y6083D01*
G37*
G36*
G01X4917Y6667D02*
G01X4917Y10833D01*
G01X9083Y10833D01*
G01X9083Y6667D01*
G01X4917Y6667D01*
G37*
G36*
G01X27592Y1871D02*
G01X27592Y2661D01*
G01X28026Y2661D01*
G01X28026Y1871D01*
G01X27592Y1871D01*
G37*
G36*
G01X28252Y1871D02*
G01X28252Y2661D01*
G01X28686Y2661D01*
G01X28686Y1871D01*
G01X28252Y1871D01*
G37*
G36*
G01X28912Y1871D02*
G01X28912Y2661D01*
G01X29347Y2661D01*
G01X29347Y1871D01*
G01X28912Y1871D01*
G37*
G36*
G01X29573Y1871D02*
G01X29573Y2661D01*
G01X30007Y2661D01*
G01X30007Y1871D01*
G01X29573Y1871D01*
G37*
G36*
G01X29573Y4737D02*
G01X29573Y5527D01*
G01X30007Y5527D01*
G01X30007Y4737D01*
G01X29573Y4737D01*
G37*
G36*
G01X28912Y4737D02*
G01X28912Y5527D01*
G01X29347Y5527D01*
G01X29347Y4737D01*
G01X28912Y4737D01*
G37*
G36*
G01X28252Y4737D02*
G01X28252Y5527D01*
G01X28686Y5527D01*
G01X28686Y4737D01*
G01X28252Y4737D01*
G37*
G36*
G01X27592Y4737D02*
G01X27592Y5527D01*
G01X28026Y5527D01*
G01X28026Y4737D01*
G01X27592Y4737D01*
G37*
G36*
G01X27561Y2860D02*
G01X27561Y4538D01*
G01X30038Y4538D01*
G01X30038Y2860D01*
G01X27561Y2860D01*
G37*
G36*
G01X20546Y3764D02*
G01X20546Y5659D01*
G01X20939Y5659D01*
G01X20939Y3764D01*
G01X20546Y3764D01*
G37*
G36*
G01X20063Y3764D02*
G01X20063Y5659D01*
G01X20457Y5659D01*
G01X20457Y3764D01*
G01X20063Y3764D01*
G37*
G36*
G01X19555Y3764D02*
G01X19555Y5659D01*
G01X19949Y5659D01*
G01X19949Y3764D01*
G01X19555Y3764D01*
G37*
G36*
G01X19047Y3764D02*
G01X19047Y5659D01*
G01X19441Y5659D01*
G01X19441Y3764D01*
G01X19047Y3764D01*
G37*
G36*
G01X18539Y3764D02*
G01X18539Y5659D01*
G01X18933Y5659D01*
G01X18933Y3764D01*
G01X18539Y3764D01*
G37*
G36*
G01X18056Y3764D02*
G01X18056Y5659D01*
G01X18450Y5659D01*
G01X18450Y3764D01*
G01X18056Y3764D01*
G37*
G36*
G01X17548Y3764D02*
G01X17548Y5659D01*
G01X17942Y5659D01*
G01X17942Y3764D01*
G01X17548Y3764D01*
G37*
G36*
G01X17040Y3764D02*
G01X17040Y5659D01*
G01X17434Y5659D01*
G01X17434Y3764D01*
G01X17040Y3764D01*
G37*
G36*
G01X16558Y3764D02*
G01X16558Y5659D01*
G01X16951Y5659D01*
G01X16951Y3764D01*
G01X16558Y3764D01*
G37*
G36*
G01X16050Y3764D02*
G01X16050Y5659D01*
G01X16443Y5659D01*
G01X16443Y3764D01*
G01X16050Y3764D01*
G37*
G36*
G01X15542Y3764D02*
G01X15542Y5659D01*
G01X15935Y5659D01*
G01X15935Y3764D01*
G01X15542Y3764D01*
G37*
G36*
G01X15059Y3764D02*
G01X15059Y5659D01*
G01X15453Y5659D01*
G01X15453Y3764D01*
G01X15059Y3764D01*
G37*
G36*
G01X13014Y5808D02*
G01X13014Y6205D01*
G01X14907Y6205D01*
G01X14907Y5808D01*
G01X13014Y5808D01*
G37*
G36*
G01X13014Y6291D02*
G01X13014Y6687D01*
G01X14907Y6687D01*
G01X14907Y6291D01*
G01X13014Y6291D01*
G37*
G36*
G01X13014Y6799D02*
G01X13014Y7195D01*
G01X14907Y7195D01*
G01X14907Y6799D01*
G01X13014Y6799D01*
G37*
G36*
G01X13014Y7307D02*
G01X13014Y7703D01*
G01X14907Y7703D01*
G01X14907Y7307D01*
G01X13014Y7307D01*
G37*
G36*
G01X13014Y7815D02*
G01X13014Y8211D01*
G01X14907Y8211D01*
G01X14907Y7815D01*
G01X13014Y7815D01*
G37*
G36*
G01X13014Y8298D02*
G01X13014Y8694D01*
G01X14907Y8694D01*
G01X14907Y8298D01*
G01X13014Y8298D01*
G37*
G36*
G01X13014Y8806D02*
G01X13014Y9202D01*
G01X14907Y9202D01*
G01X14907Y8806D01*
G01X13014Y8806D01*
G37*
G36*
G01X13014Y9314D02*
G01X13014Y9710D01*
G01X14907Y9710D01*
G01X14907Y9314D01*
G01X13014Y9314D01*
G37*
G36*
G01X13014Y9796D02*
G01X13014Y10193D01*
G01X14907Y10193D01*
G01X14907Y9796D01*
G01X13014Y9796D01*
G37*
G36*
G01X13014Y10304D02*
G01X13014Y10701D01*
G01X14907Y10701D01*
G01X14907Y10304D01*
G01X13014Y10304D01*
G37*
G36*
G01X13014Y10812D02*
G01X13014Y11209D01*
G01X14907Y11209D01*
G01X14907Y10812D01*
G01X13014Y10812D01*
G37*
G36*
G01X13014Y11295D02*
G01X13014Y11691D01*
G01X14907Y11691D01*
G01X14907Y11295D01*
G01X13014Y11295D01*
G37*
G36*
G01X15059Y11841D02*
G01X15059Y13736D01*
G01X15453Y13736D01*
G01X15453Y11841D01*
G01X15059Y11841D01*
G37*
G36*
G01X15542Y11841D02*
G01X15542Y13736D01*
G01X15935Y13736D01*
G01X15935Y11841D01*
G01X15542Y11841D01*
G37*
G36*
G01X16050Y11841D02*
G01X16050Y13736D01*
G01X16443Y13736D01*
G01X16443Y11841D01*
G01X16050Y11841D01*
G37*
G36*
G01X16558Y11841D02*
G01X16558Y13736D01*
G01X16951Y13736D01*
G01X16951Y11841D01*
G01X16558Y11841D01*
G37*
G36*
G01X17040Y11841D02*
G01X17040Y13736D01*
G01X17434Y13736D01*
G01X17434Y11841D01*
G01X17040Y11841D01*
G37*
G36*
G01X17548Y11841D02*
G01X17548Y13736D01*
G01X17942Y13736D01*
G01X17942Y11841D01*
G01X17548Y11841D01*
G37*
G36*
G01X18056Y11841D02*
G01X18056Y13736D01*
G01X18450Y13736D01*
G01X18450Y11841D01*
G01X18056Y11841D01*
G37*
G36*
G01X18539Y11841D02*
G01X18539Y13736D01*
G01X18933Y13736D01*
G01X18933Y11841D01*
G01X18539Y11841D01*
G37*
G36*
G01X19047Y11841D02*
G01X19047Y13736D01*
G01X19441Y13736D01*
G01X19441Y11841D01*
G01X19047Y11841D01*
G37*
G36*
G01X19555Y11841D02*
G01X19555Y13736D01*
G01X19949Y13736D01*
G01X19949Y11841D01*
G01X19555Y11841D01*
G37*
G36*
G01X20063Y11841D02*
G01X20063Y13736D01*
G01X20457Y13736D01*
G01X20457Y11841D01*
G01X20063Y11841D01*
G37*
G36*
G01X20546Y11841D02*
G01X20546Y13736D01*
G01X20939Y13736D01*
G01X20939Y11841D01*
G01X20546Y11841D01*
G37*
G36*
G01X21092Y11295D02*
G01X21092Y11691D01*
G01X22984Y11691D01*
G01X22984Y11295D01*
G01X21092Y11295D01*
G37*
G36*
G01X21092Y10812D02*
G01X21092Y11209D01*
G01X22984Y11209D01*
G01X22984Y10812D01*
G01X21092Y10812D01*
G37*
G36*
G01X21092Y10304D02*
G01X21092Y10701D01*
G01X22984Y10701D01*
G01X22984Y10304D01*
G01X21092Y10304D01*
G37*
G36*
G01X21092Y9796D02*
G01X21092Y10193D01*
G01X22984Y10193D01*
G01X22984Y9796D01*
G01X21092Y9796D01*
G37*
G36*
G01X21092Y9314D02*
G01X21092Y9710D01*
G01X22984Y9710D01*
G01X22984Y9314D01*
G01X21092Y9314D01*
G37*
G36*
G01X21092Y8806D02*
G01X21092Y9202D01*
G01X22984Y9202D01*
G01X22984Y8806D01*
G01X21092Y8806D01*
G37*
G36*
G01X21092Y8298D02*
G01X21092Y8694D01*
G01X22984Y8694D01*
G01X22984Y8298D01*
G01X21092Y8298D01*
G37*
G36*
G01X21092Y7815D02*
G01X21092Y8211D01*
G01X22984Y8211D01*
G01X22984Y7815D01*
G01X21092Y7815D01*
G37*
G36*
G01X21092Y7307D02*
G01X21092Y7703D01*
G01X22984Y7703D01*
G01X22984Y7307D01*
G01X21092Y7307D01*
G37*
G36*
G01X21092Y6799D02*
G01X21092Y7195D01*
G01X22984Y7195D01*
G01X22984Y6799D01*
G01X21092Y6799D01*
G37*
G36*
G01X21092Y6291D02*
G01X21092Y6687D01*
G01X22984Y6687D01*
G01X22984Y6291D01*
G01X21092Y6291D01*
G37*
G36*
G01X21092Y5808D02*
G01X21092Y6205D01*
G01X22984Y6205D01*
G01X22984Y5808D01*
G01X21092Y5808D01*
G37*
G54D75*
G01X28795Y13560D03*
G01X28795Y14500D03*
G01X28795Y15439D03*
G01X26204Y15439D03*
G01X26204Y13560D03*
G36*
G01X25560Y14178D02*
G01X25560Y14820D01*
G01X26850Y14820D01*
G01X26850Y14178D01*
G01X25560Y14178D01*
G37*
M00*
M02*
