G04 Layer: TopSilkLayer*
G04 EasyEDA v6.4.4, 2020-08-18T00:36:11--7:00*
G04 995102e80ca04af79c8c3c359321127d,ec5ec94f42e349aabe65ed7a530a4b72,10*
G04 Gerber Generator version 0.2*
G04 Scale: 100 percent, Rotated: No, Reflected: No *
G04 Dimensions in millimeters *
G04 leading zeros omitted , absolute positions ,3 integer and 3 decimal *
%FSLAX33Y33*%
%MOMM*%
G90*
G71D02*

%ADD10C,0.254000*%
%ADD11C,0.150012*%
%ADD13C,0.100000*%
%ADD53C,0.130000*%
%ADD54C,0.127000*%
%ADD55C,0.152400*%
%ADD56C,0.129032*%
%ADD57C,0.200660*%
%ADD58C,0.199898*%
%ADD59C,0.599440*%
%ADD60C,0.248920*%
%ADD62C,0.124993*%
%ADD63C,0.150114*%

%LPD*%
G54D53*
G01X10649Y13499D02*
G01X11949Y13499D01*
G01X11020Y13470D02*
G01X11020Y12619D01*
G01X10649Y12599D02*
G01X11949Y12599D01*
G54D13*
G01X14149Y14799D02*
G01X14149Y15199D01*
G01X15399Y15449D02*
G01X14999Y15449D01*
G01X15399Y14549D02*
G01X14999Y14549D01*
G01X16349Y14851D02*
G01X16349Y15147D01*
G01X16499Y14999D02*
G01X16204Y14999D01*
G01X14999Y14549D02*
G01X14149Y14549D01*
G01X14999Y15449D02*
G01X14149Y15449D01*
G01X15399Y14549D02*
G01X16149Y14549D01*
G01X15399Y15449D02*
G01X16149Y15449D01*
G01X12400Y16679D02*
G01X12900Y16679D01*
G01X12400Y16679D02*
G01X12400Y15919D01*
G01X12400Y15919D02*
G01X12900Y15919D01*
G01X13100Y15919D02*
G01X13600Y15919D01*
G01X13600Y16679D02*
G01X13600Y15919D01*
G01X13100Y16679D02*
G01X13600Y16679D01*
G01X18501Y15119D02*
G01X18101Y15119D01*
G01X18001Y15199D02*
G01X18001Y15799D01*
G01X18501Y15879D02*
G01X18101Y15879D01*
G01X19101Y15879D02*
G01X18701Y15879D01*
G01X19101Y15119D02*
G01X18701Y15119D01*
G01X19201Y15199D02*
G01X19201Y15799D01*
G01X18081Y15119D02*
G01X18101Y15119D01*
G01X18081Y15879D02*
G01X18101Y15879D01*
G01X19121Y15119D02*
G01X19101Y15119D01*
G01X19121Y15879D02*
G01X19101Y15879D01*
G01X30578Y13900D02*
G01X30578Y13500D01*
G01X30498Y13400D02*
G01X29898Y13400D01*
G01X29818Y13900D02*
G01X29818Y13500D01*
G01X29818Y14500D02*
G01X29818Y14100D01*
G01X30578Y14500D02*
G01X30578Y14100D01*
G01X30498Y14600D02*
G01X29898Y14600D01*
G01X30578Y13480D02*
G01X30578Y13500D01*
G01X29818Y13480D02*
G01X29818Y13500D01*
G01X30578Y14520D02*
G01X30578Y14500D01*
G01X29818Y14520D02*
G01X29818Y14500D01*
G01X20700Y369D02*
G01X20300Y369D01*
G01X20200Y449D02*
G01X20200Y1049D01*
G01X20700Y1129D02*
G01X20300Y1129D01*
G01X21300Y1129D02*
G01X20900Y1129D01*
G01X21300Y369D02*
G01X20900Y369D01*
G01X21400Y449D02*
G01X21400Y1049D01*
G01X20280Y369D02*
G01X20300Y369D01*
G01X20280Y1129D02*
G01X20300Y1129D01*
G01X21320Y369D02*
G01X21300Y369D01*
G01X21320Y1129D02*
G01X21300Y1129D01*
G54D11*
G01X2019Y4900D02*
G01X1399Y4900D01*
G01X2379Y4900D02*
G01X2999Y4900D01*
G01X2379Y3700D02*
G01X2999Y3700D01*
G01X3149Y3900D02*
G01X3149Y4700D01*
G01X2019Y3700D02*
G01X1399Y3700D01*
G01X1249Y3900D02*
G01X1249Y4700D01*
G01X3149Y3850D02*
G01X3149Y3900D01*
G01X3149Y4750D02*
G01X3149Y4700D01*
G01X1249Y3850D02*
G01X1249Y3900D01*
G01X1249Y4750D02*
G01X1249Y4700D01*
G01X1420Y14500D02*
G01X799Y14500D01*
G01X1780Y14500D02*
G01X2399Y14500D01*
G01X1780Y13300D02*
G01X2399Y13300D01*
G01X2550Y13500D02*
G01X2550Y14299D01*
G01X1420Y13300D02*
G01X799Y13300D01*
G01X650Y13500D02*
G01X650Y14299D01*
G01X2550Y13450D02*
G01X2550Y13500D01*
G01X2550Y14349D02*
G01X2550Y14299D01*
G01X650Y13449D02*
G01X650Y13500D01*
G01X650Y14350D02*
G01X650Y14299D01*
G01X14920Y16900D02*
G01X14300Y16900D01*
G01X15280Y16900D02*
G01X15900Y16900D01*
G01X15280Y15700D02*
G01X15900Y15700D01*
G01X16050Y15900D02*
G01X16050Y16700D01*
G01X14920Y15700D02*
G01X14300Y15700D01*
G01X14150Y15900D02*
G01X14150Y16700D01*
G01X16050Y15850D02*
G01X16050Y15900D01*
G01X16050Y16750D02*
G01X16050Y16700D01*
G01X14150Y15850D02*
G01X14150Y15900D01*
G01X14150Y16750D02*
G01X14150Y16700D01*
G01X1498Y8280D02*
G01X1498Y8900D01*
G01X1498Y7919D02*
G01X1498Y7300D01*
G01X298Y7919D02*
G01X298Y7300D01*
G01X498Y7149D02*
G01X1298Y7149D01*
G01X298Y8280D02*
G01X298Y8900D01*
G01X498Y9050D02*
G01X1298Y9050D01*
G01X448Y7149D02*
G01X498Y7149D01*
G01X1348Y7149D02*
G01X1298Y7149D01*
G01X448Y9050D02*
G01X498Y9050D01*
G01X1348Y9050D02*
G01X1298Y9050D01*
G01X298Y10020D02*
G01X298Y9400D01*
G01X298Y10380D02*
G01X298Y11000D01*
G01X1498Y10380D02*
G01X1498Y11000D01*
G01X1298Y11150D02*
G01X498Y11150D01*
G01X1498Y10020D02*
G01X1498Y9400D01*
G01X1298Y9250D02*
G01X498Y9250D01*
G01X1348Y11150D02*
G01X1298Y11150D01*
G01X448Y11150D02*
G01X498Y11150D01*
G01X1348Y9250D02*
G01X1298Y9250D01*
G01X448Y9250D02*
G01X498Y9250D01*
G54D13*
G01X8750Y16629D02*
G01X9149Y16629D01*
G01X9250Y16549D02*
G01X9250Y15949D01*
G01X8750Y15869D02*
G01X9149Y15869D01*
G01X8149Y15869D02*
G01X8550Y15869D01*
G01X8149Y16629D02*
G01X8550Y16629D01*
G01X8049Y16549D02*
G01X8049Y15949D01*
G01X9170Y16629D02*
G01X9149Y16629D01*
G01X9170Y15869D02*
G01X9149Y15869D01*
G01X8129Y16629D02*
G01X8149Y16629D01*
G01X8129Y15869D02*
G01X8149Y15869D01*
G54D11*
G01X24900Y12579D02*
G01X24900Y13199D01*
G01X24900Y12219D02*
G01X24900Y11599D01*
G01X23699Y12219D02*
G01X23699Y11599D01*
G01X23899Y11449D02*
G01X24699Y11449D01*
G01X23699Y12579D02*
G01X23699Y13199D01*
G01X23899Y13349D02*
G01X24699Y13349D01*
G01X23850Y11449D02*
G01X23899Y11449D01*
G01X24749Y11449D02*
G01X24699Y11449D01*
G01X23849Y13349D02*
G01X23899Y13349D01*
G01X24750Y13349D02*
G01X24699Y13349D01*
G01X33450Y1429D02*
G01X33450Y2049D01*
G01X33450Y1069D02*
G01X33450Y449D01*
G01X32249Y1069D02*
G01X32249Y449D01*
G01X32449Y299D02*
G01X33249Y299D01*
G01X32249Y1429D02*
G01X32249Y2049D01*
G01X32449Y2199D02*
G01X33249Y2199D01*
G01X32400Y299D02*
G01X32449Y299D01*
G01X33299Y299D02*
G01X33249Y299D01*
G01X32399Y2199D02*
G01X32449Y2199D01*
G01X33300Y2199D02*
G01X33249Y2199D01*
G54D10*
G01X23449Y6099D02*
G01X23449Y4799D01*
G01X26649Y4799D02*
G01X26649Y6099D01*
G01X25767Y4799D02*
G01X25531Y4799D01*
G01X24568Y4799D02*
G01X24332Y4799D01*
G01X25767Y6099D02*
G01X25531Y6099D01*
G01X24568Y6099D02*
G01X24332Y6099D01*
G01X24412Y579D02*
G01X24412Y477D01*
G01X22787Y477D01*
G01X22787Y579D01*
G01X22787Y3220D02*
G01X22787Y3322D01*
G01X24412Y3322D01*
G01X24412Y3220D01*
G01X22112Y14079D02*
G01X22112Y13977D01*
G01X20487Y13977D01*
G01X20487Y14079D01*
G01X20487Y16720D02*
G01X20487Y16822D01*
G01X22112Y16822D01*
G01X22112Y16720D01*
G54D54*
G01X31894Y4625D02*
G01X30475Y4625D01*
G01X30475Y6390D01*
G01X31904Y12874D02*
G01X30475Y12874D01*
G01X30475Y11109D01*
G01X34524Y5710D02*
G01X34524Y11800D01*
G54D13*
G01X18000Y16880D02*
G01X18500Y16880D01*
G01X18000Y16880D02*
G01X18000Y16120D01*
G01X18000Y16120D02*
G01X18500Y16120D01*
G01X18700Y16120D02*
G01X19200Y16120D01*
G01X19200Y16880D02*
G01X19200Y16120D01*
G01X18700Y16880D02*
G01X19200Y16880D01*
G01X6480Y4399D02*
G01X6480Y3899D01*
G01X6480Y4399D02*
G01X5720Y4399D01*
G01X5720Y4399D02*
G01X5720Y3899D01*
G01X5720Y3699D02*
G01X5720Y3199D01*
G01X6480Y3199D02*
G01X5720Y3199D01*
G01X6480Y3699D02*
G01X6480Y3199D01*
G01X5480Y2699D02*
G01X5480Y2199D01*
G01X5480Y2699D02*
G01X4720Y2699D01*
G01X4720Y2699D02*
G01X4720Y2199D01*
G01X4720Y1999D02*
G01X4720Y1499D01*
G01X5480Y1499D02*
G01X4720Y1499D01*
G01X5480Y1999D02*
G01X5480Y1499D01*
G01X2899Y5820D02*
G01X2399Y5820D01*
G01X2899Y5820D02*
G01X2899Y6580D01*
G01X2899Y6580D02*
G01X2399Y6580D01*
G01X2199Y6580D02*
G01X1699Y6580D01*
G01X1699Y5820D02*
G01X1699Y6580D01*
G01X2199Y5820D02*
G01X1699Y5820D01*
G01X29080Y9300D02*
G01X29080Y8800D01*
G01X29080Y9300D02*
G01X28320Y9300D01*
G01X28320Y9300D02*
G01X28320Y8800D01*
G01X28320Y8600D02*
G01X28320Y8100D01*
G01X29080Y8100D02*
G01X28320Y8100D01*
G01X29080Y8600D02*
G01X29080Y8100D01*
G01X26729Y3099D02*
G01X26729Y2599D01*
G01X26729Y3099D02*
G01X25969Y3099D01*
G01X25969Y3099D02*
G01X25969Y2599D01*
G01X25969Y2399D02*
G01X25969Y1899D01*
G01X26729Y1899D02*
G01X25969Y1899D01*
G01X26729Y2399D02*
G01X26729Y1899D01*
G01X20199Y3029D02*
G01X20699Y3029D01*
G01X20199Y3029D02*
G01X20199Y2269D01*
G01X20199Y2269D02*
G01X20699Y2269D01*
G01X20899Y2269D02*
G01X21399Y2269D01*
G01X21399Y3029D02*
G01X21399Y2269D01*
G01X20899Y3029D02*
G01X21399Y3029D01*
G01X27999Y269D02*
G01X27499Y269D01*
G01X27999Y269D02*
G01X27999Y1029D01*
G01X27999Y1029D02*
G01X27499Y1029D01*
G01X27299Y1029D02*
G01X26799Y1029D01*
G01X26799Y269D02*
G01X26799Y1029D01*
G01X27299Y269D02*
G01X26799Y269D01*
G01X26629Y1699D02*
G01X26629Y1199D01*
G01X26629Y1699D02*
G01X25869Y1699D01*
G01X25869Y1699D02*
G01X25869Y1199D01*
G01X25869Y999D02*
G01X25869Y499D01*
G01X26629Y499D02*
G01X25869Y499D01*
G01X26629Y999D02*
G01X26629Y499D01*
G01X19899Y369D02*
G01X19399Y369D01*
G01X19899Y369D02*
G01X19899Y1129D01*
G01X19899Y1129D02*
G01X19399Y1129D01*
G01X19199Y1129D02*
G01X18699Y1129D01*
G01X18699Y369D02*
G01X18699Y1129D01*
G01X19199Y369D02*
G01X18699Y369D01*
G01X3099Y11619D02*
G01X2599Y11619D01*
G01X3099Y11619D02*
G01X3099Y12380D01*
G01X3099Y12380D02*
G01X2599Y12380D01*
G01X2399Y12380D02*
G01X1899Y12380D01*
G01X1899Y11619D02*
G01X1899Y12380D01*
G01X2399Y11619D02*
G01X1899Y11619D01*
G01X29499Y16219D02*
G01X28999Y16219D01*
G01X29499Y16219D02*
G01X29499Y16979D01*
G01X29499Y16979D02*
G01X28999Y16979D01*
G01X28799Y16979D02*
G01X28299Y16979D01*
G01X28299Y16219D02*
G01X28299Y16979D01*
G01X28799Y16219D02*
G01X28299Y16219D01*
G01X26899Y12629D02*
G01X27399Y12629D01*
G01X26899Y12629D02*
G01X26899Y11869D01*
G01X26899Y11869D02*
G01X27399Y11869D01*
G01X27599Y11869D02*
G01X28099Y11869D01*
G01X28099Y12629D02*
G01X28099Y11869D01*
G01X27599Y12629D02*
G01X28099Y12629D01*
G01X26899Y16979D02*
G01X27399Y16979D01*
G01X26899Y16979D02*
G01X26899Y16219D01*
G01X26899Y16219D02*
G01X27399Y16219D01*
G01X27599Y16219D02*
G01X28099Y16219D01*
G01X28099Y16979D02*
G01X28099Y16219D01*
G01X27599Y16979D02*
G01X28099Y16979D01*
G01X26449Y15819D02*
G01X25949Y15819D01*
G01X26449Y15819D02*
G01X26449Y16579D01*
G01X26449Y16579D02*
G01X25949Y16579D01*
G01X25749Y16579D02*
G01X25249Y16579D01*
G01X25249Y15819D02*
G01X25249Y16579D01*
G01X25749Y15819D02*
G01X25249Y15819D01*
G01X29849Y15579D02*
G01X30349Y15579D01*
G01X29849Y15579D02*
G01X29849Y14819D01*
G01X29849Y14819D02*
G01X30349Y14819D01*
G01X30549Y14819D02*
G01X31049Y14819D01*
G01X31049Y15579D02*
G01X31049Y14819D01*
G01X30549Y15579D02*
G01X31049Y15579D01*
G01X12699Y11419D02*
G01X12199Y11419D01*
G01X12699Y11419D02*
G01X12699Y12179D01*
G01X12699Y12179D02*
G01X12199Y12179D01*
G01X11999Y12179D02*
G01X11499Y12179D01*
G01X11499Y11419D02*
G01X11499Y12179D01*
G01X11999Y11419D02*
G01X11499Y11419D01*
G01X11499Y11279D02*
G01X11999Y11279D01*
G01X11499Y11279D02*
G01X11499Y10519D01*
G01X11499Y10519D02*
G01X11999Y10519D01*
G01X12199Y10519D02*
G01X12699Y10519D01*
G01X12699Y11279D02*
G01X12699Y10519D01*
G01X12199Y11279D02*
G01X12699Y11279D01*
G01X25249Y13029D02*
G01X25749Y13029D01*
G01X25249Y13029D02*
G01X25249Y12269D01*
G01X25249Y12269D02*
G01X25749Y12269D01*
G01X25949Y12269D02*
G01X26449Y12269D01*
G01X26449Y13029D02*
G01X26449Y12269D01*
G01X25949Y13029D02*
G01X26449Y13029D01*
G01X5480Y4399D02*
G01X5480Y3899D01*
G01X5480Y4399D02*
G01X4720Y4399D01*
G01X4720Y4399D02*
G01X4720Y3899D01*
G01X4720Y3699D02*
G01X4720Y3199D01*
G01X5480Y3199D02*
G01X4720Y3199D01*
G01X5480Y3699D02*
G01X5480Y3199D01*
G01X30699Y1029D02*
G01X31199Y1029D01*
G01X30699Y1029D02*
G01X30699Y269D01*
G01X30699Y269D02*
G01X31199Y269D01*
G01X31399Y269D02*
G01X31899Y269D01*
G01X31899Y1029D02*
G01X31899Y269D01*
G01X31399Y1029D02*
G01X31899Y1029D01*
G01X17700Y16120D02*
G01X17200Y16120D01*
G01X17700Y16120D02*
G01X17700Y16880D01*
G01X17700Y16880D02*
G01X17200Y16880D01*
G01X17000Y16880D02*
G01X16500Y16880D01*
G01X16500Y16120D02*
G01X16500Y16880D01*
G01X17000Y16120D02*
G01X16500Y16120D01*
G01X2899Y6920D02*
G01X2399Y6920D01*
G01X2899Y6920D02*
G01X2899Y7680D01*
G01X2899Y7680D02*
G01X2399Y7680D01*
G01X2199Y7680D02*
G01X1699Y7680D01*
G01X1699Y6920D02*
G01X1699Y7680D01*
G01X2199Y6920D02*
G01X1699Y6920D01*
G01X24700Y15119D02*
G01X24200Y15119D01*
G01X24700Y15119D02*
G01X24700Y15880D01*
G01X24700Y15880D02*
G01X24200Y15880D01*
G01X24000Y15880D02*
G01X23500Y15880D01*
G01X23500Y15119D02*
G01X23500Y15880D01*
G01X24000Y15119D02*
G01X23500Y15119D01*
G01X18000Y14880D02*
G01X18500Y14880D01*
G01X18000Y14880D02*
G01X18000Y14119D01*
G01X18000Y14119D02*
G01X18500Y14119D01*
G01X18700Y14119D02*
G01X19200Y14119D01*
G01X19200Y14880D02*
G01X19200Y14119D01*
G01X18700Y14880D02*
G01X19200Y14880D01*
G01X24279Y14849D02*
G01X24279Y14349D01*
G01X24279Y14849D02*
G01X23519Y14849D01*
G01X23519Y14849D02*
G01X23519Y14349D01*
G01X23519Y14149D02*
G01X23519Y13649D01*
G01X24279Y13649D02*
G01X23519Y13649D01*
G01X24279Y14149D02*
G01X24279Y13649D01*
G01X16500Y15880D02*
G01X17000Y15880D01*
G01X16500Y15880D02*
G01X16500Y15120D01*
G01X16500Y15120D02*
G01X17000Y15120D01*
G01X17200Y15120D02*
G01X17700Y15120D01*
G01X17700Y15880D02*
G01X17700Y15120D01*
G01X17200Y15880D02*
G01X17700Y15880D01*
G01X28000Y7280D02*
G01X28400Y7280D01*
G01X28500Y7200D02*
G01X28500Y6600D01*
G01X28000Y6520D02*
G01X28400Y6520D01*
G01X27400Y6520D02*
G01X27800Y6520D01*
G01X27400Y7280D02*
G01X27800Y7280D01*
G01X27299Y7200D02*
G01X27299Y6600D01*
G01X28420Y7280D02*
G01X28400Y7280D01*
G01X28420Y6520D02*
G01X28400Y6520D01*
G01X27379Y7280D02*
G01X27400Y7280D01*
G01X27380Y6520D02*
G01X27400Y6520D01*
G01X13980Y12799D02*
G01X13980Y12400D01*
G01X13900Y12299D02*
G01X13299Y12299D01*
G01X13219Y12799D02*
G01X13219Y12400D01*
G01X13219Y13399D02*
G01X13219Y12999D01*
G01X13980Y13399D02*
G01X13980Y12999D01*
G01X13900Y13500D02*
G01X13299Y13500D01*
G01X13980Y12379D02*
G01X13980Y12400D01*
G01X13219Y12379D02*
G01X13219Y12400D01*
G01X13980Y13420D02*
G01X13980Y13399D01*
G01X13219Y13420D02*
G01X13219Y13399D01*
G01X14880Y12799D02*
G01X14880Y12400D01*
G01X14800Y12299D02*
G01X14199Y12299D01*
G01X14119Y12799D02*
G01X14119Y12400D01*
G01X14119Y13399D02*
G01X14119Y12999D01*
G01X14880Y13399D02*
G01X14880Y12999D01*
G01X14800Y13500D02*
G01X14199Y13500D01*
G01X14880Y12379D02*
G01X14880Y12400D01*
G01X14119Y12379D02*
G01X14119Y12400D01*
G01X14880Y13420D02*
G01X14880Y13399D01*
G01X14119Y13420D02*
G01X14119Y13399D01*
G01X22100Y4680D02*
G01X22500Y4680D01*
G01X22600Y4600D02*
G01X22600Y3999D01*
G01X22100Y3919D02*
G01X22500Y3919D01*
G01X21500Y3919D02*
G01X21900Y3919D01*
G01X21500Y4680D02*
G01X21900Y4680D01*
G01X21399Y4600D02*
G01X21399Y3999D01*
G01X22520Y4680D02*
G01X22500Y4680D01*
G01X22520Y3919D02*
G01X22500Y3919D01*
G01X21479Y4680D02*
G01X21500Y4680D01*
G01X21479Y3919D02*
G01X21500Y3919D01*
G01X21899Y4820D02*
G01X21500Y4820D01*
G01X21399Y4899D02*
G01X21399Y5500D01*
G01X21899Y5580D02*
G01X21500Y5580D01*
G01X22500Y5580D02*
G01X22099Y5580D01*
G01X22500Y4820D02*
G01X22099Y4820D01*
G01X22600Y4899D02*
G01X22600Y5500D01*
G01X21479Y4820D02*
G01X21500Y4820D01*
G01X21479Y5580D02*
G01X21500Y5580D01*
G01X22520Y4820D02*
G01X22500Y4820D01*
G01X22520Y5580D02*
G01X22500Y5580D01*
G01X14300Y4680D02*
G01X14699Y4680D01*
G01X14800Y4600D02*
G01X14800Y3999D01*
G01X14300Y3919D02*
G01X14699Y3919D01*
G01X13699Y3919D02*
G01X14100Y3919D01*
G01X13699Y4680D02*
G01X14100Y4680D01*
G01X13599Y4600D02*
G01X13599Y3999D01*
G01X14720Y4680D02*
G01X14699Y4680D01*
G01X14720Y3919D02*
G01X14699Y3919D01*
G01X13679Y4680D02*
G01X13699Y4680D01*
G01X13679Y3919D02*
G01X13699Y3919D01*
G54D10*
G01X6288Y14697D02*
G01X7088Y14697D01*
G01X7398Y13588D02*
G01X7398Y14388D01*
G01X6288Y13278D02*
G01X7088Y13278D01*
G01X5712Y14703D02*
G01X4912Y14703D01*
G01X5712Y13284D02*
G01X4912Y13284D01*
G01X4603Y13594D02*
G01X4603Y14394D01*
G54D11*
G01X4300Y13779D02*
G01X4300Y14399D01*
G01X4300Y13419D02*
G01X4300Y12799D01*
G01X3100Y13419D02*
G01X3100Y12799D01*
G01X3300Y12649D02*
G01X4099Y12649D01*
G01X3100Y13779D02*
G01X3100Y14399D01*
G01X3300Y14549D02*
G01X4099Y14549D01*
G01X3250Y12649D02*
G01X3300Y12649D01*
G01X4149Y12649D02*
G01X4099Y12649D01*
G01X3249Y14549D02*
G01X3300Y14549D01*
G01X4150Y14549D02*
G01X4099Y14549D01*
G01X3920Y16200D02*
G01X3299Y16200D01*
G01X4280Y16200D02*
G01X4899Y16200D01*
G01X4280Y15000D02*
G01X4899Y15000D01*
G01X5050Y15200D02*
G01X5050Y16000D01*
G01X3920Y15000D02*
G01X3299Y15000D01*
G01X3150Y15200D02*
G01X3150Y16000D01*
G01X5050Y15150D02*
G01X5050Y15200D01*
G01X5050Y16050D02*
G01X5050Y16000D01*
G01X3150Y15150D02*
G01X3150Y15200D01*
G01X3150Y16050D02*
G01X3150Y16000D01*
G54D13*
G01X14300Y5580D02*
G01X14699Y5580D01*
G01X14800Y5500D02*
G01X14800Y4900D01*
G01X14300Y4820D02*
G01X14699Y4820D01*
G01X13699Y4820D02*
G01X14100Y4820D01*
G01X13699Y5580D02*
G01X14100Y5580D01*
G01X13599Y5500D02*
G01X13599Y4900D01*
G01X14720Y5580D02*
G01X14699Y5580D01*
G01X14720Y4820D02*
G01X14699Y4820D01*
G01X13679Y5580D02*
G01X13699Y5580D01*
G01X13679Y4820D02*
G01X13699Y4820D01*
G54D10*
G01X24649Y8399D02*
G01X24649Y9599D01*
G01X26699Y8199D02*
G01X27699Y8199D01*
G01X26699Y9800D02*
G01X27699Y9800D01*
G01X25899Y8199D02*
G01X24899Y8199D01*
G01X25899Y9800D02*
G01X24899Y9800D01*
G01X27949Y8399D02*
G01X27949Y9599D01*
G01X27749Y8199D02*
G01X27699Y8199D01*
G01X27749Y9800D02*
G01X27699Y9800D01*
G01X24849Y8199D02*
G01X24899Y8199D01*
G01X24849Y9800D02*
G01X24899Y9800D01*
G54D13*
G01X27220Y10800D02*
G01X27220Y11200D01*
G01X27299Y11300D02*
G01X27900Y11300D01*
G01X27980Y10800D02*
G01X27980Y11200D01*
G01X27980Y10200D02*
G01X27980Y10600D01*
G01X27220Y10200D02*
G01X27220Y10600D01*
G01X27299Y10099D02*
G01X27900Y10099D01*
G01X27220Y11220D02*
G01X27220Y11200D01*
G01X27980Y11220D02*
G01X27980Y11200D01*
G01X27220Y10179D02*
G01X27220Y10200D01*
G01X27980Y10179D02*
G01X27980Y10200D01*
G54D11*
G01X25920Y11300D02*
G01X25300Y11300D01*
G01X26280Y11300D02*
G01X26900Y11300D01*
G01X26280Y10100D02*
G01X26900Y10100D01*
G01X27050Y10300D02*
G01X27050Y11100D01*
G01X25920Y10100D02*
G01X25300Y10100D01*
G01X25150Y10300D02*
G01X25150Y11100D01*
G01X27050Y10250D02*
G01X27050Y10300D01*
G01X27050Y11149D02*
G01X27050Y11100D01*
G01X25150Y10249D02*
G01X25150Y10300D01*
G01X25150Y11150D02*
G01X25150Y11100D01*
G54D13*
G01X25399Y7120D02*
G01X25000Y7120D01*
G01X24899Y7199D02*
G01X24899Y7800D01*
G01X25399Y7880D02*
G01X25000Y7880D01*
G01X25999Y7880D02*
G01X25599Y7880D01*
G01X25999Y7120D02*
G01X25599Y7120D01*
G01X26100Y7199D02*
G01X26100Y7800D01*
G01X24979Y7120D02*
G01X25000Y7120D01*
G01X24979Y7880D02*
G01X25000Y7880D01*
G01X26020Y7120D02*
G01X25999Y7120D01*
G01X26020Y7880D02*
G01X25999Y7880D01*
G01X30620Y3800D02*
G01X30620Y4199D01*
G01X30699Y4300D02*
G01X31300Y4300D01*
G01X31380Y3800D02*
G01X31380Y4199D01*
G01X31380Y3199D02*
G01X31380Y3600D01*
G01X30620Y3199D02*
G01X30620Y3600D01*
G01X30699Y3099D02*
G01X31300Y3099D01*
G01X30620Y4220D02*
G01X30620Y4199D01*
G01X31380Y4220D02*
G01X31380Y4199D01*
G01X30620Y3179D02*
G01X30620Y3199D01*
G01X31380Y3179D02*
G01X31380Y3199D01*
G54D11*
G01X9720Y2450D02*
G01X9099Y2450D01*
G01X10080Y2450D02*
G01X10699Y2450D01*
G01X10080Y1250D02*
G01X10699Y1250D01*
G01X10850Y1450D02*
G01X10850Y2249D01*
G01X9720Y1250D02*
G01X9099Y1250D01*
G01X8950Y1450D02*
G01X8950Y2249D01*
G01X10850Y1400D02*
G01X10850Y1450D01*
G01X10850Y2299D02*
G01X10850Y2249D01*
G01X8950Y1399D02*
G01X8950Y1450D01*
G01X8950Y2300D02*
G01X8950Y2249D01*
G54D10*
G01X8497Y2861D02*
G01X8497Y2061D01*
G01X7388Y1751D02*
G01X8188Y1751D01*
G01X7078Y2861D02*
G01X7078Y2061D01*
G01X8503Y3437D02*
G01X8503Y4237D01*
G01X7084Y3437D02*
G01X7084Y4237D01*
G01X7393Y4546D02*
G01X8194Y4546D01*
G54D11*
G01X1779Y14999D02*
G01X2399Y14999D01*
G01X1419Y14999D02*
G01X799Y14999D01*
G01X1419Y16199D02*
G01X799Y16199D01*
G01X649Y15999D02*
G01X649Y15200D01*
G01X1779Y16199D02*
G01X2399Y16199D01*
G01X2549Y15999D02*
G01X2549Y15200D01*
G01X649Y16049D02*
G01X649Y15999D01*
G01X649Y15150D02*
G01X649Y15200D01*
G01X2549Y16050D02*
G01X2549Y15999D01*
G01X2549Y15149D02*
G01X2549Y15200D01*
G54D55*
G01X9959Y5117D02*
G01X10632Y5117D01*
G01X10632Y5790D01*
G01X10632Y11709D02*
G01X10632Y12382D01*
G01X9959Y12382D01*
G01X4040Y12382D02*
G01X3367Y12382D01*
G01X3367Y11209D01*
G01X3367Y5790D02*
G01X3367Y5117D01*
G01X4040Y5117D01*
G01X8809Y4436D02*
G01X9190Y4436D01*
G01X9190Y4690D01*
G01X8809Y4690D01*
G01X8809Y4436D01*
G01X11059Y10059D02*
G01X11313Y10059D01*
G01X11313Y10440D01*
G01X11059Y10440D01*
G01X11059Y10059D01*
G01X5809Y13063D02*
G01X6190Y13063D01*
G01X6190Y12809D01*
G01X5809Y12809D01*
G01X5809Y13063D01*
G01X2940Y8059D02*
G01X2686Y8059D01*
G01X2686Y8440D01*
G01X2940Y8440D01*
G01X2940Y8059D01*
G54D56*
G01X27300Y2199D02*
G01X27300Y5199D01*
G01X30300Y5199D02*
G01X30300Y2199D01*
G54D57*
G01X15249Y5999D02*
G01X15249Y11500D01*
G01X20750Y11500D01*
G01X20750Y5999D01*
G01X20750Y5999D02*
G01X15249Y5999D01*
G54D10*
G01X26687Y15820D02*
G01X26687Y15922D01*
G01X28312Y15922D01*
G01X28312Y15820D01*
G01X28312Y13179D02*
G01X28312Y13077D01*
G01X26687Y13077D01*
G01X26687Y13179D01*

%LPD*%
G36*
G01X31392Y16800D02*
G01X31364Y16805D01*
G01X31335Y16800D01*
G01X31312Y16786D01*
G01X31298Y16764D01*
G01X31293Y16736D01*
G01X31298Y16706D01*
G01X31312Y16682D01*
G01X31335Y16667D01*
G01X31364Y16662D01*
G01X31392Y16667D01*
G01X31415Y16682D01*
G01X31430Y16706D01*
G01X31435Y16736D01*
G01X31430Y16764D01*
G01X31415Y16786D01*
G01X31392Y16800D01*
G37*

%LPD*%
G36*
G01X32962Y16759D02*
G01X32431Y16759D01*
G01X32431Y15829D01*
G01X32974Y15829D01*
G01X32974Y15918D01*
G01X32537Y15918D01*
G01X32537Y16276D01*
G01X32893Y16276D01*
G01X32893Y16365D01*
G01X32537Y16365D01*
G01X32537Y16670D01*
G01X32962Y16670D01*
G01X32962Y16759D01*
G37*

%LPD*%
G36*
G01X32033Y16529D02*
G01X31984Y16533D01*
G01X31916Y16524D01*
G01X31857Y16498D01*
G01X31802Y16460D01*
G01X31750Y16413D01*
G01X31747Y16413D01*
G01X31737Y16515D01*
G01X31653Y16515D01*
G01X31653Y15829D01*
G01X31758Y15829D01*
G01X31758Y16330D01*
G01X31808Y16378D01*
G01X31854Y16413D01*
G01X31901Y16434D01*
G01X31951Y16441D01*
G01X32013Y16430D01*
G01X32056Y16396D01*
G01X32080Y16337D01*
G01X32088Y16251D01*
G01X32088Y15829D01*
G01X32192Y15829D01*
G01X32192Y16266D01*
G01X32189Y16328D01*
G01X32180Y16382D01*
G01X32164Y16428D01*
G01X32141Y16465D01*
G01X32112Y16495D01*
G01X32076Y16516D01*
G01X32033Y16529D01*
G37*

%LPD*%
G36*
G01X31415Y16515D02*
G01X31313Y16515D01*
G01X31313Y15829D01*
G01X31415Y15829D01*
G01X31415Y16515D01*
G37*

%LPD*%
G36*
G01X34358Y16765D02*
G01X34277Y16774D01*
G01X34220Y16771D01*
G01X34166Y16759D01*
G01X34115Y16742D01*
G01X34068Y16717D01*
G01X34025Y16685D01*
G01X33987Y16647D01*
G01X33953Y16602D01*
G01X33924Y16552D01*
G01X33902Y16496D01*
G01X33885Y16434D01*
G01X33874Y16367D01*
G01X33871Y16294D01*
G01X33874Y16221D01*
G01X33885Y16153D01*
G01X33901Y16091D01*
G01X33924Y16035D01*
G01X33952Y15984D01*
G01X33985Y15940D01*
G01X34023Y15901D01*
G01X34065Y15869D01*
G01X34111Y15845D01*
G01X34161Y15826D01*
G01X34214Y15816D01*
G01X34270Y15812D01*
G01X34356Y15821D01*
G01X34430Y15847D01*
G01X34495Y15889D01*
G01X34552Y15946D01*
G01X34496Y16012D01*
G01X34448Y15967D01*
G01X34396Y15933D01*
G01X34338Y15913D01*
G01X34275Y15905D01*
G01X34210Y15913D01*
G01X34151Y15933D01*
G01X34101Y15966D01*
G01X34058Y16011D01*
G01X34023Y16067D01*
G01X33998Y16134D01*
G01X33983Y16211D01*
G01X33978Y16297D01*
G01X33983Y16382D01*
G01X33999Y16458D01*
G01X34025Y16524D01*
G01X34060Y16580D01*
G01X34104Y16624D01*
G01X34154Y16656D01*
G01X34213Y16676D01*
G01X34277Y16683D01*
G01X34337Y16677D01*
G01X34389Y16658D01*
G01X34434Y16630D01*
G01X34473Y16594D01*
G01X34531Y16662D01*
G01X34486Y16705D01*
G01X34427Y16741D01*
G01X34358Y16765D01*
G37*

%LPD*%
G36*
G01X33517Y16766D02*
G01X33437Y16774D01*
G01X33377Y16770D01*
G01X33322Y16756D01*
G01X33274Y16735D01*
G01X33231Y16706D01*
G01X33197Y16671D01*
G01X33171Y16630D01*
G01X33155Y16584D01*
G01X33150Y16533D01*
G01X33167Y16444D01*
G01X33212Y16379D01*
G01X33272Y16331D01*
G01X33338Y16297D01*
G01X33472Y16238D01*
G01X33536Y16208D01*
G01X33586Y16174D01*
G01X33620Y16129D01*
G01X33632Y16066D01*
G01X33618Y16000D01*
G01X33578Y15950D01*
G01X33514Y15917D01*
G01X33429Y15905D01*
G01X33356Y15914D01*
G01X33287Y15937D01*
G01X33223Y15974D01*
G01X33167Y16022D01*
G01X33104Y15951D01*
G01X33170Y15893D01*
G01X33246Y15849D01*
G01X33332Y15821D01*
G01X33426Y15812D01*
G01X33495Y15817D01*
G01X33557Y15832D01*
G01X33610Y15856D01*
G01X33655Y15888D01*
G01X33691Y15927D01*
G01X33717Y15972D01*
G01X33733Y16020D01*
G01X33739Y16073D01*
G01X33724Y16165D01*
G01X33682Y16233D01*
G01X33621Y16284D01*
G01X33546Y16322D01*
G01X33411Y16378D01*
G01X33357Y16403D01*
G01X33307Y16436D01*
G01X33270Y16480D01*
G01X33256Y16540D01*
G01X33269Y16599D01*
G01X33307Y16644D01*
G01X33363Y16673D01*
G01X33437Y16683D01*
G01X33500Y16677D01*
G01X33556Y16658D01*
G01X33607Y16630D01*
G01X33652Y16594D01*
G01X33706Y16662D01*
G01X33653Y16708D01*
G01X33589Y16743D01*
G01X33517Y16766D01*
G37*

%LPD*%
G36*
G01X30913Y16766D02*
G01X30833Y16774D01*
G01X30774Y16770D01*
G01X30719Y16756D01*
G01X30670Y16735D01*
G01X30628Y16706D01*
G01X30593Y16671D01*
G01X30568Y16630D01*
G01X30552Y16584D01*
G01X30546Y16533D01*
G01X30563Y16444D01*
G01X30608Y16379D01*
G01X30668Y16331D01*
G01X30734Y16297D01*
G01X30869Y16238D01*
G01X30932Y16208D01*
G01X30983Y16174D01*
G01X31016Y16129D01*
G01X31029Y16066D01*
G01X31015Y16000D01*
G01X30975Y15950D01*
G01X30911Y15917D01*
G01X30825Y15905D01*
G01X30753Y15914D01*
G01X30683Y15937D01*
G01X30620Y15974D01*
G01X30564Y16022D01*
G01X30500Y15951D01*
G01X30566Y15893D01*
G01X30643Y15849D01*
G01X30728Y15821D01*
G01X30823Y15812D01*
G01X30892Y15817D01*
G01X30953Y15832D01*
G01X31007Y15856D01*
G01X31052Y15888D01*
G01X31088Y15927D01*
G01X31114Y15972D01*
G01X31130Y16020D01*
G01X31135Y16073D01*
G01X31120Y16165D01*
G01X31079Y16233D01*
G01X31017Y16284D01*
G01X30942Y16322D01*
G01X30808Y16378D01*
G01X30754Y16403D01*
G01X30704Y16436D01*
G01X30667Y16480D01*
G01X30653Y16540D01*
G01X30666Y16599D01*
G01X30703Y16644D01*
G01X30760Y16673D01*
G01X30833Y16683D01*
G01X30896Y16677D01*
G01X30952Y16658D01*
G01X31003Y16630D01*
G01X31049Y16594D01*
G01X31102Y16662D01*
G01X31049Y16708D01*
G01X30986Y16743D01*
G01X30913Y16766D01*
G37*

%LPD*%
G54D13*
G01X350Y3255D02*
G01X464Y2778D01*
G01X576Y3255D02*
G01X464Y2778D01*
G01X576Y3255D02*
G01X690Y2778D01*
G01X805Y3255D02*
G01X690Y2778D01*
G01X954Y3255D02*
G01X977Y3232D01*
G01X1000Y3255D01*
G01X977Y3278D01*
G01X954Y3255D01*
G01X977Y3095D02*
G01X977Y2778D01*
G01X1150Y3095D02*
G01X1150Y2778D01*
G01X1150Y3004D02*
G01X1219Y3072D01*
G01X1264Y3095D01*
G01X1330Y3095D01*
G01X1376Y3072D01*
G01X1399Y3004D01*
G01X1399Y2778D01*
G01X1823Y3095D02*
G01X1823Y2732D01*
G01X1800Y2663D01*
G01X1777Y2640D01*
G01X1732Y2618D01*
G01X1663Y2618D01*
G01X1617Y2640D01*
G01X1823Y3027D02*
G01X1777Y3072D01*
G01X1732Y3095D01*
G01X1663Y3095D01*
G01X1617Y3072D01*
G01X1572Y3027D01*
G01X1549Y2958D01*
G01X1549Y2912D01*
G01X1572Y2846D01*
G01X1617Y2800D01*
G01X1663Y2778D01*
G01X1732Y2778D01*
G01X1777Y2800D01*
G01X1823Y2846D01*
G01X2323Y3255D02*
G01X2323Y2778D01*
G01X2323Y3255D02*
G01X2618Y3255D01*
G01X2323Y3027D02*
G01X2504Y3027D01*
G01X2323Y2778D02*
G01X2618Y2778D01*
G01X3040Y3255D02*
G01X3040Y2778D01*
G01X3040Y3027D02*
G01X2994Y3072D01*
G01X2948Y3095D01*
G01X2882Y3095D01*
G01X2837Y3072D01*
G01X2791Y3027D01*
G01X2768Y2958D01*
G01X2768Y2912D01*
G01X2791Y2846D01*
G01X2837Y2800D01*
G01X2882Y2778D01*
G01X2948Y2778D01*
G01X2994Y2800D01*
G01X3040Y2846D01*
G01X3190Y3255D02*
G01X3212Y3232D01*
G01X3235Y3255D01*
G01X3212Y3278D01*
G01X3190Y3255D01*
G01X3212Y3095D02*
G01X3212Y2778D01*
G01X3454Y3255D02*
G01X3454Y2866D01*
G01X3477Y2800D01*
G01X3522Y2778D01*
G01X3568Y2778D01*
G01X3385Y3095D02*
G01X3545Y3095D01*
G01X3718Y3255D02*
G01X3741Y3232D01*
G01X3764Y3255D01*
G01X3741Y3278D01*
G01X3718Y3255D01*
G01X3741Y3095D02*
G01X3741Y2778D01*
G01X4028Y3095D02*
G01X3982Y3072D01*
G01X3936Y3027D01*
G01X3914Y2958D01*
G01X3914Y2912D01*
G01X3936Y2846D01*
G01X3982Y2800D01*
G01X4028Y2778D01*
G01X4094Y2778D01*
G01X4140Y2800D01*
G01X4185Y2846D01*
G01X4208Y2912D01*
G01X4208Y2958D01*
G01X4185Y3027D01*
G01X4140Y3072D01*
G01X4094Y3095D01*
G01X4028Y3095D01*
G01X4358Y3095D02*
G01X4358Y2778D01*
G01X4358Y3004D02*
G01X4427Y3072D01*
G01X4472Y3095D01*
G01X4541Y3095D01*
G01X4587Y3072D01*
G01X4609Y3004D01*
G01X4609Y2778D01*
G54D62*
G01X32193Y13249D02*
G01X32813Y13249D01*
G01X32193Y13249D02*
G01X32193Y13516D01*
G01X32224Y13605D01*
G01X32251Y13633D01*
G01X32312Y13663D01*
G01X32401Y13663D01*
G01X32460Y13633D01*
G01X32490Y13605D01*
G01X32518Y13516D01*
G01X32518Y13249D01*
G01X32193Y13859D02*
G01X32813Y14006D01*
G01X32193Y14154D02*
G01X32813Y14006D01*
G01X32193Y14154D02*
G01X32813Y14301D01*
G01X32193Y14448D02*
G01X32813Y14301D01*
G01X32193Y14644D02*
G01X32813Y14644D01*
G01X32193Y14644D02*
G01X32813Y14880D01*
G01X32193Y15116D02*
G01X32813Y14880D01*
G01X32193Y15116D02*
G01X32813Y15116D01*
G54D13*
G01X349Y1944D02*
G01X486Y1627D01*
G01X623Y1944D02*
G01X486Y1627D01*
G01X773Y2013D02*
G01X819Y2036D01*
G01X887Y2104D01*
G01X887Y1627D01*
G01X1060Y1741D02*
G01X1037Y1718D01*
G01X1060Y1695D01*
G01X1080Y1718D01*
G01X1060Y1741D01*
G01X1367Y2104D02*
G01X1299Y2081D01*
G01X1253Y2013D01*
G01X1233Y1899D01*
G01X1233Y1833D01*
G01X1253Y1718D01*
G01X1299Y1650D01*
G01X1367Y1627D01*
G01X1413Y1627D01*
G01X1481Y1650D01*
G01X1527Y1718D01*
G01X1550Y1833D01*
G01X1550Y1899D01*
G01X1527Y2013D01*
G01X1481Y2081D01*
G01X1413Y2104D01*
G01X1367Y2104D01*
G01X2050Y2104D02*
G01X2050Y1627D01*
G01X2050Y2104D02*
G01X2254Y2104D01*
G01X2322Y2081D01*
G01X2345Y2059D01*
G01X2368Y2013D01*
G01X2368Y1967D01*
G01X2345Y1921D01*
G01X2322Y1899D01*
G01X2254Y1876D01*
G01X2050Y1876D01*
G01X2208Y1876D02*
G01X2368Y1627D01*
G01X2518Y1810D02*
G01X2790Y1810D01*
G01X2790Y1853D01*
G01X2767Y1899D01*
G01X2744Y1921D01*
G01X2701Y1944D01*
G01X2632Y1944D01*
G01X2586Y1921D01*
G01X2541Y1876D01*
G01X2518Y1810D01*
G01X2518Y1764D01*
G01X2541Y1695D01*
G01X2586Y1650D01*
G01X2632Y1627D01*
G01X2701Y1627D01*
G01X2744Y1650D01*
G01X2790Y1695D01*
G01X2939Y1944D02*
G01X3077Y1627D01*
G01X3214Y1944D02*
G01X3077Y1627D01*
G01X3386Y1741D02*
G01X3364Y1718D01*
G01X3386Y1695D01*
G01X3409Y1718D01*
G01X3386Y1741D01*
G01X3910Y2104D02*
G01X3910Y1627D01*
G01X3910Y2104D02*
G01X4113Y2104D01*
G01X4181Y2081D01*
G01X4204Y2059D01*
G01X4227Y2013D01*
G01X4227Y1967D01*
G01X4204Y1921D01*
G01X4181Y1899D01*
G01X4113Y1876D01*
G01X3910Y1876D02*
G01X4113Y1876D01*
G01X4181Y1853D01*
G01X4204Y1833D01*
G01X4227Y1787D01*
G01X4227Y1718D01*
G01X4204Y1673D01*
G01X4181Y1650D01*
G01X4113Y1627D01*
G01X3910Y1627D01*
G01X350Y1003D02*
G01X350Y528D01*
G01X350Y1003D02*
G01X507Y1003D01*
G01X576Y982D01*
G01X622Y937D01*
G01X645Y891D01*
G01X667Y822D01*
G01X667Y708D01*
G01X645Y640D01*
G01X622Y594D01*
G01X576Y551D01*
G01X507Y528D01*
G01X350Y528D01*
G01X817Y708D02*
G01X1092Y708D01*
G01X1092Y754D01*
G01X1069Y800D01*
G01X1046Y822D01*
G01X1000Y845D01*
G01X932Y845D01*
G01X886Y822D01*
G01X840Y777D01*
G01X817Y708D01*
G01X817Y662D01*
G01X840Y594D01*
G01X886Y551D01*
G01X932Y528D01*
G01X1000Y528D01*
G01X1046Y551D01*
G01X1092Y594D01*
G01X1490Y777D02*
G01X1467Y822D01*
G01X1399Y845D01*
G01X1330Y845D01*
G01X1264Y822D01*
G01X1241Y777D01*
G01X1264Y731D01*
G01X1307Y708D01*
G01X1422Y685D01*
G01X1467Y662D01*
G01X1490Y617D01*
G01X1490Y594D01*
G01X1467Y551D01*
G01X1399Y528D01*
G01X1330Y528D01*
G01X1264Y551D01*
G01X1241Y594D01*
G01X1640Y1003D02*
G01X1663Y982D01*
G01X1686Y1003D01*
G01X1663Y1026D01*
G01X1640Y1003D01*
G01X1663Y845D02*
G01X1663Y528D01*
G01X2108Y845D02*
G01X2108Y482D01*
G01X2085Y414D01*
G01X2064Y391D01*
G01X2019Y368D01*
G01X1950Y368D01*
G01X1904Y391D01*
G01X2108Y777D02*
G01X2064Y822D01*
G01X2019Y845D01*
G01X1950Y845D01*
G01X1904Y822D01*
G01X1859Y777D01*
G01X1836Y708D01*
G01X1836Y662D01*
G01X1859Y594D01*
G01X1904Y551D01*
G01X1950Y528D01*
G01X2019Y528D01*
G01X2064Y551D01*
G01X2108Y594D01*
G01X2257Y845D02*
G01X2257Y528D01*
G01X2257Y754D02*
G01X2326Y822D01*
G01X2372Y845D01*
G01X2440Y845D01*
G01X2486Y822D01*
G01X2509Y754D01*
G01X2509Y528D01*
G01X2659Y708D02*
G01X2931Y708D01*
G01X2931Y754D01*
G01X2908Y800D01*
G01X2885Y822D01*
G01X2842Y845D01*
G01X2773Y845D01*
G01X2727Y822D01*
G01X2682Y777D01*
G01X2659Y708D01*
G01X2659Y662D01*
G01X2682Y594D01*
G01X2727Y551D01*
G01X2773Y528D01*
G01X2842Y528D01*
G01X2885Y551D01*
G01X2931Y594D01*
G01X3355Y1003D02*
G01X3355Y528D01*
G01X3355Y777D02*
G01X3309Y822D01*
G01X3263Y845D01*
G01X3195Y845D01*
G01X3149Y822D01*
G01X3103Y777D01*
G01X3080Y708D01*
G01X3080Y662D01*
G01X3103Y594D01*
G01X3149Y551D01*
G01X3195Y528D01*
G01X3263Y528D01*
G01X3309Y551D01*
G01X3355Y594D01*
G01X3855Y1003D02*
G01X3878Y982D01*
G01X3898Y1003D01*
G01X3878Y1026D01*
G01X3855Y1003D01*
G01X3878Y845D02*
G01X3878Y528D01*
G01X4051Y845D02*
G01X4051Y528D01*
G01X4051Y754D02*
G01X4117Y822D01*
G01X4162Y845D01*
G01X4231Y845D01*
G01X4277Y822D01*
G01X4300Y754D01*
G01X4300Y528D01*
G01X4800Y1003D02*
G01X4800Y662D01*
G01X4823Y594D01*
G01X4869Y551D01*
G01X4937Y528D01*
G01X4980Y528D01*
G01X5049Y551D01*
G01X5095Y594D01*
G01X5117Y662D01*
G01X5117Y1003D01*
G01X5585Y937D02*
G01X5542Y982D01*
G01X5473Y1003D01*
G01X5382Y1003D01*
G01X5313Y982D01*
G01X5267Y937D01*
G01X5267Y891D01*
G01X5290Y845D01*
G01X5313Y822D01*
G01X5359Y800D01*
G01X5496Y754D01*
G01X5542Y731D01*
G01X5562Y708D01*
G01X5585Y662D01*
G01X5585Y594D01*
G01X5542Y551D01*
G01X5473Y528D01*
G01X5382Y528D01*
G01X5313Y551D01*
G01X5267Y594D01*
G01X5918Y1003D02*
G01X5735Y528D01*
G01X5918Y1003D02*
G01X6100Y528D01*
G01X5803Y685D02*
G01X6032Y685D01*
G01X6598Y1003D02*
G01X6598Y528D01*
G01X6598Y777D02*
G01X6644Y822D01*
G01X6690Y845D01*
G01X6758Y845D01*
G01X6804Y822D01*
G01X6850Y777D01*
G01X6873Y708D01*
G01X6873Y662D01*
G01X6850Y594D01*
G01X6804Y551D01*
G01X6758Y528D01*
G01X6690Y528D01*
G01X6644Y551D01*
G01X6598Y594D01*
G01X7045Y845D02*
G01X7182Y528D01*
G01X7317Y845D02*
G01X7182Y528D01*
G01X7137Y436D01*
G01X7091Y391D01*
G01X7045Y368D01*
G01X7022Y368D01*
G01X8135Y937D02*
G01X8089Y982D01*
G01X8023Y1003D01*
G01X7932Y1003D01*
G01X7863Y982D01*
G01X7817Y937D01*
G01X7817Y891D01*
G01X7840Y845D01*
G01X7863Y822D01*
G01X7909Y800D01*
G01X8046Y754D01*
G01X8089Y731D01*
G01X8112Y708D01*
G01X8135Y662D01*
G01X8135Y594D01*
G01X8089Y551D01*
G01X8023Y528D01*
G01X7932Y528D01*
G01X7863Y551D01*
G01X7817Y594D01*
G01X8468Y1003D02*
G01X8285Y528D01*
G01X8468Y1003D02*
G01X8651Y528D01*
G01X8353Y685D02*
G01X8582Y685D01*
G01X8800Y1003D02*
G01X8800Y528D01*
G01X8800Y1003D02*
G01X9004Y1003D01*
G01X9072Y982D01*
G01X9095Y960D01*
G01X9118Y914D01*
G01X9118Y868D01*
G01X9095Y822D01*
G01X9072Y800D01*
G01X9004Y777D01*
G01X8800Y777D01*
G01X8958Y777D02*
G01X9118Y528D01*
G01X9268Y368D02*
G01X9677Y368D01*
G01X9827Y845D02*
G01X9827Y528D01*
G01X9827Y754D02*
G01X9895Y822D01*
G01X9941Y845D01*
G01X10010Y845D01*
G01X10055Y822D01*
G01X10076Y754D01*
G01X10076Y528D01*
G01X10076Y754D02*
G01X10144Y822D01*
G01X10190Y845D01*
G01X10258Y845D01*
G01X10304Y822D01*
G01X10327Y754D01*
G01X10327Y528D01*
G01X10749Y845D02*
G01X10749Y528D01*
G01X10749Y777D02*
G01X10703Y822D01*
G01X10660Y845D01*
G01X10591Y845D01*
G01X10545Y822D01*
G01X10500Y777D01*
G01X10477Y708D01*
G01X10477Y662D01*
G01X10500Y594D01*
G01X10545Y551D01*
G01X10591Y528D01*
G01X10660Y528D01*
G01X10703Y551D01*
G01X10749Y594D01*
G01X10899Y845D02*
G01X10899Y528D01*
G01X10899Y754D02*
G01X10967Y822D01*
G01X11013Y845D01*
G01X11081Y845D01*
G01X11127Y822D01*
G01X11150Y754D01*
G01X11150Y528D01*
G01X11572Y845D02*
G01X11572Y482D01*
G01X11549Y414D01*
G01X11526Y391D01*
G01X11480Y368D01*
G01X11414Y368D01*
G01X11368Y391D01*
G01X11572Y777D02*
G01X11526Y822D01*
G01X11480Y845D01*
G01X11414Y845D01*
G01X11368Y822D01*
G01X11323Y777D01*
G01X11300Y708D01*
G01X11300Y662D01*
G01X11323Y594D01*
G01X11368Y551D01*
G01X11414Y528D01*
G01X11480Y528D01*
G01X11526Y551D01*
G01X11572Y594D01*
G01X11836Y845D02*
G01X11790Y822D01*
G01X11744Y777D01*
G01X11721Y708D01*
G01X11721Y662D01*
G01X11744Y594D01*
G01X11790Y551D01*
G01X11836Y528D01*
G01X11904Y528D01*
G01X11950Y551D01*
G01X11996Y594D01*
G01X12019Y662D01*
G01X12019Y708D01*
G01X11996Y777D01*
G01X11950Y822D01*
G01X11904Y845D01*
G01X11836Y845D01*
G01X11650Y8155D02*
G01X11650Y7677D01*
G01X11650Y8155D02*
G01X11810Y8155D01*
G01X11876Y8132D01*
G01X11921Y8086D01*
G01X11944Y8041D01*
G01X11967Y7972D01*
G01X11967Y7858D01*
G01X11944Y7792D01*
G01X11921Y7746D01*
G01X11876Y7700D01*
G01X11810Y7677D01*
G01X11650Y7677D01*
G01X12117Y8155D02*
G01X12117Y7677D01*
G01X12404Y8155D02*
G01X12358Y8132D01*
G01X12313Y8086D01*
G01X12290Y8041D01*
G01X12267Y7972D01*
G01X12267Y7858D01*
G01X12290Y7792D01*
G01X12313Y7746D01*
G01X12358Y7700D01*
G01X12404Y7677D01*
G01X12496Y7677D01*
G01X12541Y7700D01*
G01X12587Y7746D01*
G01X12610Y7792D01*
G01X12630Y7858D01*
G01X12630Y7972D01*
G01X12610Y8041D01*
G01X12587Y8086D01*
G01X12541Y8132D01*
G01X12496Y8155D01*
G01X12404Y8155D01*
G01X12189Y5290D02*
G01X12167Y5336D01*
G01X12123Y5382D01*
G01X12078Y5404D01*
G01X11986Y5404D01*
G01X11941Y5382D01*
G01X11895Y5336D01*
G01X11872Y5290D01*
G01X11849Y5222D01*
G01X11849Y5110D01*
G01X11872Y5041D01*
G01X11895Y4996D01*
G01X11941Y4950D01*
G01X11986Y4927D01*
G01X12078Y4927D01*
G01X12123Y4950D01*
G01X12167Y4996D01*
G01X12189Y5041D01*
G01X12189Y5110D01*
G01X12078Y5110D02*
G01X12189Y5110D01*
G01X12339Y5404D02*
G01X12339Y4927D01*
G01X12339Y5404D02*
G01X12659Y4927D01*
G01X12659Y5404D02*
G01X12659Y4927D01*
G01X12809Y5404D02*
G01X12809Y4927D01*
G01X12809Y5404D02*
G01X12967Y5404D01*
G01X13035Y5382D01*
G01X13081Y5336D01*
G01X13104Y5290D01*
G01X13127Y5222D01*
G01X13127Y5110D01*
G01X13104Y5041D01*
G01X13081Y4996D01*
G01X13035Y4950D01*
G01X12967Y4927D01*
G01X12809Y4927D01*
G01X14890Y2640D02*
G01X14867Y2685D01*
G01X14822Y2731D01*
G01X14776Y2754D01*
G01X14685Y2754D01*
G01X14641Y2731D01*
G01X14596Y2685D01*
G01X14573Y2640D01*
G01X14550Y2571D01*
G01X14550Y2459D01*
G01X14573Y2391D01*
G01X14596Y2345D01*
G01X14641Y2299D01*
G01X14685Y2277D01*
G01X14776Y2277D01*
G01X14822Y2299D01*
G01X14867Y2345D01*
G01X14890Y2391D01*
G01X15040Y2754D02*
G01X15040Y2277D01*
G01X15040Y2277D02*
G01X15312Y2277D01*
G01X15464Y2754D02*
G01X15464Y2277D01*
G01X15782Y2754D02*
G01X15464Y2437D01*
G01X15576Y2548D02*
G01X15782Y2277D01*
G01X16758Y3255D02*
G01X16758Y2777D01*
G01X16598Y3255D02*
G01X16918Y3255D01*
G01X17068Y3255D02*
G01X17386Y2777D01*
G01X17386Y3255D02*
G01X17068Y2777D01*
G01X17450Y1704D02*
G01X17450Y1226D01*
G01X17450Y1704D02*
G01X17653Y1704D01*
G01X17722Y1681D01*
G01X17745Y1658D01*
G01X17768Y1612D01*
G01X17768Y1567D01*
G01X17745Y1523D01*
G01X17722Y1501D01*
G01X17653Y1478D01*
G01X17450Y1478D01*
G01X17608Y1478D02*
G01X17768Y1226D01*
G01X17917Y1704D02*
G01X18235Y1226D01*
G01X18235Y1704D02*
G01X17917Y1226D01*
G01X18841Y3341D02*
G01X18818Y3387D01*
G01X18773Y3430D01*
G01X18727Y3453D01*
G01X18635Y3453D01*
G01X18590Y3430D01*
G01X18544Y3387D01*
G01X18521Y3341D01*
G01X18498Y3273D01*
G01X18498Y3158D01*
G01X18521Y3090D01*
G01X18544Y3044D01*
G01X18590Y2998D01*
G01X18635Y2976D01*
G01X18727Y2976D01*
G01X18773Y2998D01*
G01X18818Y3044D01*
G01X18841Y3090D01*
G01X18841Y3158D01*
G01X18727Y3158D02*
G01X18841Y3158D01*
G01X18991Y3453D02*
G01X18991Y2976D01*
G01X18991Y3453D02*
G01X19309Y2976D01*
G01X19309Y3453D02*
G01X19309Y2976D01*
G01X19458Y3453D02*
G01X19458Y2976D01*
G01X19458Y3453D02*
G01X19618Y3453D01*
G01X19687Y3430D01*
G01X19730Y3387D01*
G01X19753Y3341D01*
G01X19776Y3273D01*
G01X19776Y3158D01*
G01X19753Y3090D01*
G01X19730Y3044D01*
G01X19687Y2998D01*
G01X19618Y2976D01*
G01X19458Y2976D01*
G54D63*
G01X3512Y4137D02*
G01X4058Y4137D01*
G01X3649Y3908D02*
G01X3921Y4363D01*
G01X3649Y4363D02*
G01X3921Y3908D01*
G01X3512Y4137D02*
G01X4058Y4137D01*
G01X3649Y3908D02*
G01X3921Y4363D01*
G01X3649Y4363D02*
G01X3921Y3908D01*
G54D13*
G75*
G01X18001Y15199D02*
G03X18081Y15119I80J0D01*
G01*
G75*
G01X18001Y15799D02*
G02X18081Y15879I80J0D01*
G01*
G75*
G01X19201Y15199D02*
G02X19121Y15119I-80J0D01*
G01*
G75*
G01X19201Y15799D02*
G03X19121Y15879I-80J0D01*
G01*
G75*
G01X30499Y13400D02*
G03X30579Y13480I0J80D01*
G01*
G75*
G01X29899Y13400D02*
G02X29819Y13480I0J80D01*
G01*
G75*
G01X30499Y14601D02*
G02X30579Y14521I0J-80D01*
G01*
G75*
G01X29899Y14601D02*
G03X29819Y14520I0J-81D01*
G01*
G75*
G01X20201Y449D02*
G03X20281Y369I80J0D01*
G01*
G75*
G01X20201Y1049D02*
G02X20281Y1129I80J0D01*
G01*
G75*
G01X21401Y449D02*
G02X21321Y369I-80J0D01*
G01*
G75*
G01X21401Y1049D02*
G03X21321Y1129I-80J0D01*
G01*
G54D11*
G75*
G01X2999Y3700D02*
G03X3149Y3850I0J150D01*
G01*
G75*
G01X2999Y4900D02*
G02X3149Y4750I0J-150D01*
G01*
G75*
G01X1399Y3700D02*
G02X1249Y3850I0J150D01*
G01*
G75*
G01X1399Y4900D02*
G03X1249Y4750I0J-150D01*
G01*
G75*
G01X2400Y13300D02*
G03X2550Y13450I0J150D01*
G01*
G75*
G01X2400Y14500D02*
G02X2550Y14350I0J-150D01*
G01*
G75*
G01X800Y13300D02*
G02X650Y13450I0J150D01*
G01*
G75*
G01X800Y14500D02*
G03X650Y14350I0J-150D01*
G01*
G75*
G01X15900Y15700D02*
G03X16050Y15850I0J150D01*
G01*
G75*
G01X15900Y16900D02*
G02X16050Y16750I0J-150D01*
G01*
G75*
G01X14300Y15700D02*
G02X14150Y15850I0J150D01*
G01*
G75*
G01X14300Y16900D02*
G03X14150Y16750I0J-150D01*
G01*
G75*
G01X299Y7300D02*
G03X449Y7150I150J0D01*
G01*
G75*
G01X1499Y7300D02*
G02X1349Y7150I-150J0D01*
G01*
G75*
G01X299Y8900D02*
G02X449Y9050I150J0D01*
G01*
G75*
G01X1499Y8900D02*
G03X1349Y9050I-150J0D01*
G01*
G75*
G01X1499Y11001D02*
G03X1349Y11151I-150J0D01*
G01*
G75*
G01X299Y11001D02*
G02X449Y11151I150J0D01*
G01*
G75*
G01X1499Y9401D02*
G02X1349Y9251I-150J0D01*
G01*
G75*
G01X299Y9401D02*
G03X449Y9251I150J0D01*
G01*
G54D13*
G75*
G01X9250Y16550D02*
G03X9170Y16630I-80J0D01*
G01*
G75*
G01X9250Y15950D02*
G02X9170Y15870I-80J0D01*
G01*
G75*
G01X8050Y16550D02*
G02X8130Y16630I80J0D01*
G01*
G75*
G01X8050Y15950D02*
G03X8130Y15870I80J0D01*
G01*
G54D11*
G75*
G01X23700Y11600D02*
G03X23850Y11450I150J0D01*
G01*
G75*
G01X24900Y11600D02*
G02X24750Y11450I-150J0D01*
G01*
G75*
G01X23700Y13200D02*
G02X23850Y13350I150J0D01*
G01*
G75*
G01X24900Y13200D02*
G03X24750Y13350I-150J0D01*
G01*
G75*
G01X32250Y450D02*
G03X32400Y300I150J0D01*
G01*
G75*
G01X33450Y450D02*
G02X33300Y300I-150J0D01*
G01*
G75*
G01X32250Y2050D02*
G02X32400Y2200I150J0D01*
G01*
G75*
G01X33450Y2050D02*
G03X33300Y2200I-150J0D01*
G01*
G54D58*
G75*
G01X28825Y7050D02*
G03X28829Y7050I2J-100D01*
G01*
G54D13*
G75*
G01X28500Y7200D02*
G03X28420Y7280I-80J0D01*
G01*
G75*
G01X28500Y6600D02*
G02X28420Y6520I-80J0D01*
G01*
G75*
G01X27300Y7200D02*
G02X27380Y7280I80J0D01*
G01*
G75*
G01X27300Y6600D02*
G03X27380Y6520I80J0D01*
G01*
G75*
G01X13900Y12300D02*
G03X13980Y12380I0J80D01*
G01*
G75*
G01X13300Y12300D02*
G02X13220Y12380I0J80D01*
G01*
G75*
G01X13900Y13500D02*
G02X13980Y13420I0J-80D01*
G01*
G75*
G01X13300Y13500D02*
G03X13220Y13420I0J-80D01*
G01*
G75*
G01X14800Y12300D02*
G03X14880Y12380I0J80D01*
G01*
G75*
G01X14200Y12300D02*
G02X14120Y12380I0J80D01*
G01*
G75*
G01X14800Y13500D02*
G02X14880Y13420I0J-80D01*
G01*
G75*
G01X14200Y13500D02*
G03X14120Y13420I0J-80D01*
G01*
G75*
G01X22600Y4600D02*
G03X22520Y4680I-80J0D01*
G01*
G75*
G01X22600Y4000D02*
G02X22520Y3920I-80J0D01*
G01*
G75*
G01X21400Y4600D02*
G02X21480Y4680I80J0D01*
G01*
G75*
G01X21400Y4000D02*
G03X21480Y3920I80J0D01*
G01*
G75*
G01X21400Y4900D02*
G03X21480Y4820I80J0D01*
G01*
G75*
G01X21400Y5500D02*
G02X21480Y5580I80J0D01*
G01*
G75*
G01X22600Y4900D02*
G02X22520Y4820I-80J0D01*
G01*
G75*
G01X22600Y5500D02*
G03X22520Y5580I-80J0D01*
G01*
G75*
G01X14800Y4600D02*
G03X14720Y4680I-80J0D01*
G01*
G75*
G01X14800Y4000D02*
G02X14720Y3920I-80J0D01*
G01*
G75*
G01X13600Y4600D02*
G02X13680Y4680I80J0D01*
G01*
G75*
G01X13600Y4000D02*
G03X13680Y3920I80J0D01*
G01*
G54D10*
G75*
G01X7399Y13588D02*
G02X7089Y13278I-310J0D01*
G01*
G75*
G01X7089Y14698D02*
G02X7399Y14388I0J-310D01*
G01*
G75*
G01X4913Y13284D02*
G02X4603Y13594I0J310D01*
G01*
G75*
G01X4603Y14394D02*
G02X4913Y14704I310J0D01*
G01*
G54D11*
G75*
G01X3100Y12800D02*
G03X3250Y12650I150J0D01*
G01*
G75*
G01X4300Y12800D02*
G02X4150Y12650I-150J0D01*
G01*
G75*
G01X3100Y14400D02*
G02X3250Y14550I150J0D01*
G01*
G75*
G01X4300Y14400D02*
G03X4150Y14550I-150J0D01*
G01*
G75*
G01X4900Y15000D02*
G03X5050Y15150I0J150D01*
G01*
G75*
G01X4900Y16200D02*
G02X5050Y16050I0J-150D01*
G01*
G75*
G01X3300Y15000D02*
G02X3150Y15150I0J150D01*
G01*
G75*
G01X3300Y16200D02*
G03X3150Y16050I0J-150D01*
G01*
G54D13*
G75*
G01X14800Y5500D02*
G03X14720Y5580I-80J0D01*
G01*
G75*
G01X14800Y4900D02*
G02X14720Y4820I-80J0D01*
G01*
G75*
G01X13600Y5500D02*
G02X13680Y5580I80J0D01*
G01*
G75*
G01X13600Y4900D02*
G03X13680Y4820I80J0D01*
G01*
G54D10*
G75*
G01X27950Y8400D02*
G02X27750Y8200I-200J0D01*
G01*
G75*
G01X27950Y9600D02*
G03X27750Y9800I-200J0D01*
G01*
G75*
G01X24650Y8400D02*
G03X24850Y8200I200J0D01*
G01*
G75*
G01X24650Y9600D02*
G02X24850Y9800I200J0D01*
G01*
G54D13*
G75*
G01X27300Y11300D02*
G03X27220Y11220I0J-80D01*
G01*
G75*
G01X27900Y11300D02*
G02X27980Y11220I0J-80D01*
G01*
G75*
G01X27300Y10100D02*
G02X27220Y10180I0J80D01*
G01*
G75*
G01X27900Y10100D02*
G03X27980Y10180I0J80D01*
G01*
G54D11*
G75*
G01X26900Y10100D02*
G03X27050Y10250I0J150D01*
G01*
G75*
G01X26900Y11300D02*
G02X27050Y11150I0J-150D01*
G01*
G75*
G01X25300Y10100D02*
G02X25150Y10250I0J150D01*
G01*
G75*
G01X25300Y11300D02*
G03X25150Y11150I0J-150D01*
G01*
G54D13*
G75*
G01X24900Y7200D02*
G03X24980Y7120I80J0D01*
G01*
G75*
G01X24900Y7800D02*
G02X24980Y7880I80J0D01*
G01*
G75*
G01X26100Y7200D02*
G02X26020Y7120I-80J0D01*
G01*
G75*
G01X26100Y7800D02*
G03X26020Y7880I-80J0D01*
G01*
G75*
G01X30700Y4300D02*
G03X30620Y4220I0J-80D01*
G01*
G75*
G01X31300Y4300D02*
G02X31380Y4220I0J-80D01*
G01*
G75*
G01X30700Y3100D02*
G02X30620Y3180I0J80D01*
G01*
G75*
G01X31300Y3100D02*
G03X31380Y3180I0J80D01*
G01*
G54D11*
G75*
G01X10700Y1250D02*
G03X10850Y1400I0J150D01*
G01*
G75*
G01X10700Y2450D02*
G02X10850Y2300I0J-150D01*
G01*
G75*
G01X9100Y1250D02*
G02X8950Y1400I0J150D01*
G01*
G75*
G01X9100Y2450D02*
G03X8950Y2300I0J-150D01*
G01*
G54D10*
G75*
G01X7388Y1751D02*
G02X7078Y2061I0J310D01*
G01*
G75*
G01X8498Y2061D02*
G02X8188Y1751I-310J0D01*
G01*
G75*
G01X7084Y4237D02*
G02X7394Y4547I310J0D01*
G01*
G75*
G01X8194Y4547D02*
G02X8504Y4237I0J-310D01*
G01*
G54D11*
G75*
G01X800Y16200D02*
G03X650Y16050I0J-150D01*
G01*
G75*
G01X800Y15000D02*
G02X650Y15150I0J150D01*
G01*
G75*
G01X2400Y16200D02*
G02X2550Y16050I0J-150D01*
G01*
G75*
G01X2400Y15000D02*
G03X2550Y15150I0J150D01*
G01*
G54D59*
G75*
G01X19450Y7000D02*
G03X19450Y7005I300J2D01*
G01*
G54D60*
G75*
G01X21924Y5301D02*
G03X21924Y5303I125J1D01*
G01*
G54D11*
G75*
G01X32294Y16747D02*
G03X30400Y16300I-872J-542D01*
G01*
G75*
G01X32772Y15729D02*
G03X34700Y16100I885J593D01*
G01*
G54D10*
G75*
G01X22406Y3500D02*
G03X22406Y3500I-102J0D01*
G01*
G75*
G01X20106Y17000D02*
G03X20106Y17000I-102J0D01*
G01*
G54D56*
G75*
G01X27505Y1541D02*
G03X27505Y1541I-102J0D01*
G01*
G54D10*
G75*
G01X28897Y12900D02*
G03X28897Y12900I-102J0D01*
G01*
M00*
M02*
