G04 Layer: Inner2*
G04 EasyEDA v6.4.4, 2020-08-18T00:36:11--7:00*
G04 995102e80ca04af79c8c3c359321127d,ec5ec94f42e349aabe65ed7a530a4b72,10*
G04 Gerber Generator version 0.2*
G04 Scale: 100 percent, Rotated: No, Reflected: No *
G04 Dimensions in millimeters *
G04 leading zeros omitted , absolute positions ,3 integer and 3 decimal *
%FSLAX33Y33*%
%MOMM*%
G90*
G71D02*

%ADD11C,0.150012*%
%ADD12C,0.299999*%
%ADD14C,0.449986*%
%ADD15C,0.450037*%

%LPD*%
G36*
G01X2740Y17243D02*
G01X358Y17243D01*
G01X343Y17242D01*
G01X329Y17239D01*
G01X315Y17234D01*
G01X303Y17227D01*
G01X291Y17218D01*
G01X281Y17208D01*
G01X272Y17196D01*
G01X265Y17184D01*
G01X260Y17170D01*
G01X257Y17156D01*
G01X256Y17141D01*
G01X256Y358D01*
G01X257Y343D01*
G01X260Y329D01*
G01X265Y315D01*
G01X272Y303D01*
G01X281Y291D01*
G01X291Y281D01*
G01X303Y272D01*
G01X315Y265D01*
G01X329Y260D01*
G01X343Y257D01*
G01X358Y256D01*
G01X28583Y256D01*
G01X28598Y257D01*
G01X28612Y260D01*
G01X28626Y265D01*
G01X28638Y272D01*
G01X28650Y281D01*
G01X28660Y291D01*
G01X28669Y303D01*
G01X28676Y315D01*
G01X28681Y329D01*
G01X28684Y343D01*
G01X28685Y358D01*
G01X28684Y375D01*
G01X28679Y393D01*
G01X28671Y409D01*
G01X28658Y434D01*
G01X28646Y460D01*
G01X28637Y487D01*
G01X28630Y515D01*
G01X28624Y543D01*
G01X28621Y571D01*
G01X28620Y599D01*
G01X28621Y628D01*
G01X28624Y656D01*
G01X28629Y684D01*
G01X28637Y711D01*
G01X28646Y738D01*
G01X28657Y764D01*
G01X28671Y789D01*
G01X28686Y813D01*
G01X28703Y836D01*
G01X28721Y858D01*
G01X28741Y878D01*
G01X28763Y896D01*
G01X28786Y913D01*
G01X28810Y928D01*
G01X28835Y941D01*
G01X28861Y953D01*
G01X28888Y962D01*
G01X28915Y969D01*
G01X28943Y975D01*
G01X28971Y978D01*
G01X28999Y979D01*
G01X29028Y978D01*
G01X29056Y975D01*
G01X29084Y969D01*
G01X29111Y962D01*
G01X29138Y953D01*
G01X29164Y941D01*
G01X29189Y928D01*
G01X29213Y913D01*
G01X29236Y896D01*
G01X29258Y878D01*
G01X29278Y858D01*
G01X29296Y836D01*
G01X29313Y813D01*
G01X29328Y789D01*
G01X29341Y764D01*
G01X29353Y738D01*
G01X29362Y711D01*
G01X29369Y684D01*
G01X29375Y656D01*
G01X29378Y628D01*
G01X29379Y599D01*
G01X29378Y571D01*
G01X29375Y543D01*
G01X29369Y515D01*
G01X29362Y487D01*
G01X29352Y460D01*
G01X29341Y434D01*
G01X29328Y409D01*
G01X29320Y393D01*
G01X29315Y375D01*
G01X29314Y358D01*
G01X29315Y343D01*
G01X29318Y329D01*
G01X29323Y315D01*
G01X29330Y303D01*
G01X29339Y291D01*
G01X29349Y281D01*
G01X29360Y272D01*
G01X29373Y265D01*
G01X29387Y260D01*
G01X29401Y257D01*
G01X29415Y256D01*
G01X34641Y256D01*
G01X34656Y257D01*
G01X34670Y260D01*
G01X34684Y265D01*
G01X34696Y272D01*
G01X34708Y281D01*
G01X34718Y291D01*
G01X34727Y303D01*
G01X34734Y315D01*
G01X34739Y329D01*
G01X34742Y343D01*
G01X34743Y358D01*
G01X34743Y17141D01*
G01X34742Y17156D01*
G01X34739Y17170D01*
G01X34734Y17184D01*
G01X34727Y17196D01*
G01X34718Y17208D01*
G01X34708Y17218D01*
G01X34696Y17227D01*
G01X34684Y17234D01*
G01X34670Y17239D01*
G01X34656Y17242D01*
G01X34641Y17243D01*
G01X3659Y17243D01*
G01X3645Y17242D01*
G01X3631Y17239D01*
G01X3617Y17234D01*
G01X3604Y17227D01*
G01X3593Y17218D01*
G01X3582Y17208D01*
G01X3574Y17196D01*
G01X3567Y17184D01*
G01X3562Y17170D01*
G01X3559Y17156D01*
G01X3558Y17141D01*
G01X3559Y17126D01*
G01X3562Y17111D01*
G01X3569Y17084D01*
G01X3575Y17056D01*
G01X3578Y17028D01*
G01X3579Y16999D01*
G01X3578Y16971D01*
G01X3575Y16943D01*
G01X3569Y16915D01*
G01X3562Y16888D01*
G01X3553Y16861D01*
G01X3541Y16835D01*
G01X3528Y16810D01*
G01X3513Y16786D01*
G01X3496Y16763D01*
G01X3478Y16741D01*
G01X3458Y16721D01*
G01X3436Y16703D01*
G01X3413Y16686D01*
G01X3389Y16671D01*
G01X3364Y16658D01*
G01X3338Y16646D01*
G01X3311Y16637D01*
G01X3284Y16629D01*
G01X3256Y16624D01*
G01X3228Y16621D01*
G01X3199Y16620D01*
G01X3171Y16621D01*
G01X3143Y16624D01*
G01X3115Y16629D01*
G01X3088Y16637D01*
G01X3061Y16646D01*
G01X3035Y16658D01*
G01X3010Y16671D01*
G01X2986Y16686D01*
G01X2963Y16703D01*
G01X2941Y16721D01*
G01X2921Y16741D01*
G01X2903Y16763D01*
G01X2886Y16786D01*
G01X2871Y16810D01*
G01X2857Y16835D01*
G01X2846Y16861D01*
G01X2837Y16888D01*
G01X2829Y16915D01*
G01X2824Y16943D01*
G01X2821Y16971D01*
G01X2820Y16999D01*
G01X2821Y17028D01*
G01X2824Y17056D01*
G01X2829Y17084D01*
G01X2837Y17111D01*
G01X2840Y17126D01*
G01X2841Y17141D01*
G01X2840Y17156D01*
G01X2837Y17170D01*
G01X2832Y17184D01*
G01X2825Y17196D01*
G01X2816Y17208D01*
G01X2806Y17218D01*
G01X2795Y17227D01*
G01X2782Y17234D01*
G01X2768Y17239D01*
G01X2754Y17242D01*
G01X2740Y17243D01*
G37*

%LPC*%
G36*
G01X21928Y13578D02*
G01X21900Y13579D01*
G01X21871Y13578D01*
G01X21843Y13575D01*
G01X21815Y13569D01*
G01X21788Y13562D01*
G01X21761Y13553D01*
G01X21735Y13541D01*
G01X21710Y13528D01*
G01X21686Y13513D01*
G01X21663Y13496D01*
G01X21641Y13478D01*
G01X21621Y13458D01*
G01X21603Y13436D01*
G01X21586Y13413D01*
G01X21571Y13389D01*
G01X21558Y13364D01*
G01X21546Y13338D01*
G01X21537Y13311D01*
G01X21530Y13284D01*
G01X21524Y13256D01*
G01X21521Y13228D01*
G01X21520Y13199D01*
G01X21521Y13171D01*
G01X21524Y13144D01*
G01X21529Y13116D01*
G01X21536Y13089D01*
G01X21546Y13063D01*
G01X21557Y13037D01*
G01X21570Y13012D01*
G01X21584Y12988D01*
G01X21601Y12966D01*
G01X21619Y12944D01*
G01X21638Y12924D01*
G01X21649Y12912D01*
G01X21658Y12898D01*
G01X21665Y12883D01*
G01X21669Y12867D01*
G01X21670Y12851D01*
G01X21670Y11336D01*
G01X21669Y11320D01*
G01X21665Y11304D01*
G01X21659Y11289D01*
G01X21650Y11276D01*
G01X21640Y11264D01*
G01X18417Y8041D01*
G01X18405Y8031D01*
G01X18392Y8022D01*
G01X18377Y8016D01*
G01X18362Y8013D01*
G01X18346Y8011D01*
G01X18328Y8013D01*
G01X18310Y8018D01*
G01X18292Y8027D01*
G01X18280Y8035D01*
G01X18269Y8045D01*
G01X18259Y8057D01*
G01X18252Y8070D01*
G01X18246Y8084D01*
G01X18243Y8099D01*
G01X18242Y8114D01*
G01X18244Y8134D01*
G01X18250Y8153D01*
G01X18260Y8181D01*
G01X18269Y8210D01*
G01X18274Y8240D01*
G01X18278Y8269D01*
G01X18279Y8299D01*
G01X18278Y8327D01*
G01X18275Y8355D01*
G01X18270Y8382D01*
G01X18263Y8409D01*
G01X18254Y8435D01*
G01X18243Y8461D01*
G01X18230Y8486D01*
G01X18216Y8509D01*
G01X18200Y8532D01*
G01X18182Y8553D01*
G01X18163Y8573D01*
G01X18142Y8592D01*
G01X18120Y8609D01*
G01X18096Y8624D01*
G01X18072Y8637D01*
G01X18047Y8649D01*
G01X18021Y8659D01*
G01X17994Y8667D01*
G01X17980Y8672D01*
G01X17967Y8678D01*
G01X17955Y8687D01*
G01X17944Y8697D01*
G01X17935Y8709D01*
G01X17928Y8722D01*
G01X17922Y8736D01*
G01X17919Y8751D01*
G01X17918Y8765D01*
G01X17920Y8782D01*
G01X17924Y8799D01*
G01X17931Y8815D01*
G01X17945Y8844D01*
G01X17957Y8873D01*
G01X17967Y8904D01*
G01X17974Y8935D01*
G01X17978Y8967D01*
G01X17979Y8999D01*
G01X17978Y9028D01*
G01X17975Y9056D01*
G01X17969Y9084D01*
G01X17962Y9111D01*
G01X17953Y9138D01*
G01X17941Y9164D01*
G01X17928Y9189D01*
G01X17913Y9213D01*
G01X17896Y9236D01*
G01X17878Y9258D01*
G01X17858Y9278D01*
G01X17836Y9296D01*
G01X17813Y9313D01*
G01X17789Y9328D01*
G01X17764Y9341D01*
G01X17738Y9353D01*
G01X17711Y9362D01*
G01X17684Y9370D01*
G01X17656Y9375D01*
G01X17628Y9378D01*
G01X17599Y9379D01*
G01X17571Y9378D01*
G01X17543Y9375D01*
G01X17516Y9370D01*
G01X17489Y9362D01*
G01X17462Y9353D01*
G01X17436Y9342D01*
G01X17411Y9329D01*
G01X17387Y9314D01*
G01X17365Y9298D01*
G01X17343Y9280D01*
G01X17323Y9260D01*
G01X17311Y9249D01*
G01X17297Y9240D01*
G01X17282Y9233D01*
G01X17266Y9229D01*
G01X17249Y9228D01*
G01X17233Y9229D01*
G01X17217Y9233D01*
G01X17202Y9240D01*
G01X17188Y9249D01*
G01X17175Y9260D01*
G01X17155Y9280D01*
G01X17134Y9298D01*
G01X17111Y9314D01*
G01X17087Y9329D01*
G01X17063Y9342D01*
G01X17037Y9353D01*
G01X17010Y9362D01*
G01X16983Y9370D01*
G01X16955Y9375D01*
G01X16927Y9378D01*
G01X16899Y9379D01*
G01X16871Y9378D01*
G01X16843Y9375D01*
G01X16815Y9370D01*
G01X16788Y9362D01*
G01X16761Y9353D01*
G01X16735Y9341D01*
G01X16710Y9328D01*
G01X16686Y9313D01*
G01X16663Y9296D01*
G01X16641Y9278D01*
G01X16621Y9258D01*
G01X16603Y9236D01*
G01X16586Y9213D01*
G01X16571Y9189D01*
G01X16557Y9164D01*
G01X16546Y9138D01*
G01X16537Y9111D01*
G01X16529Y9084D01*
G01X16524Y9056D01*
G01X16521Y9028D01*
G01X16520Y8999D01*
G01X16521Y8965D01*
G01X16526Y8932D01*
G01X16533Y8899D01*
G01X16544Y8866D01*
G01X16549Y8849D01*
G01X16550Y8831D01*
G01X16549Y8816D01*
G01X16546Y8802D01*
G01X16541Y8788D01*
G01X16534Y8776D01*
G01X16526Y8764D01*
G01X16515Y8754D01*
G01X16504Y8745D01*
G01X16491Y8738D01*
G01X16477Y8733D01*
G01X16463Y8730D01*
G01X16449Y8729D01*
G01X16099Y8729D01*
G01X16076Y8728D01*
G01X16053Y8724D01*
G01X16031Y8719D01*
G01X16009Y8711D01*
G01X15990Y8705D01*
G01X15969Y8702D01*
G01X15954Y8704D01*
G01X15939Y8707D01*
G01X15925Y8713D01*
G01X15912Y8720D01*
G01X15900Y8730D01*
G01X15890Y8741D01*
G01X15881Y8754D01*
G01X15874Y8767D01*
G01X15870Y8782D01*
G01X15863Y8810D01*
G01X15854Y8836D01*
G01X15842Y8863D01*
G01X15829Y8888D01*
G01X15814Y8912D01*
G01X15797Y8935D01*
G01X15779Y8957D01*
G01X15759Y8977D01*
G01X15737Y8996D01*
G01X15714Y9013D01*
G01X15690Y9028D01*
G01X15665Y9041D01*
G01X15639Y9053D01*
G01X15612Y9062D01*
G01X15584Y9069D01*
G01X15556Y9075D01*
G01X15528Y9078D01*
G01X15500Y9079D01*
G01X15469Y9078D01*
G01X15439Y9074D01*
G01X15408Y9068D01*
G01X15379Y9059D01*
G01X15350Y9048D01*
G01X15323Y9035D01*
G01X15296Y9020D01*
G01X15283Y9013D01*
G01X15270Y9008D01*
G01X15256Y9005D01*
G01X15242Y9004D01*
G01X12636Y9004D01*
G01X12621Y9005D01*
G01X12607Y9008D01*
G01X12594Y9013D01*
G01X12581Y9020D01*
G01X12569Y9029D01*
G01X12559Y9039D01*
G01X12550Y9051D01*
G01X12543Y9063D01*
G01X12538Y9077D01*
G01X12535Y9091D01*
G01X12534Y9106D01*
G01X12536Y9122D01*
G01X12539Y9137D01*
G01X12546Y9152D01*
G01X12554Y9166D01*
G01X12565Y9178D01*
G01X12586Y9200D01*
G01X12605Y9224D01*
G01X12622Y9249D01*
G01X12636Y9275D01*
G01X12649Y9302D01*
G01X12660Y9331D01*
G01X12668Y9360D01*
G01X12674Y9389D01*
G01X12678Y9419D01*
G01X12679Y9450D01*
G01X12678Y9470D01*
G01X12678Y9475D01*
G01X12680Y9491D01*
G01X12683Y9506D01*
G01X12689Y9521D01*
G01X12697Y9534D01*
G01X12708Y9546D01*
G01X12720Y9557D01*
G01X12733Y9565D01*
G01X12748Y9571D01*
G01X12763Y9575D01*
G01X12790Y9581D01*
G01X12817Y9589D01*
G01X12844Y9598D01*
G01X12869Y9610D01*
G01X12894Y9623D01*
G01X12940Y9655D01*
G01X12961Y9674D01*
G01X12980Y9694D01*
G01X12998Y9715D01*
G01X13015Y9738D01*
G01X13029Y9762D01*
G01X13042Y9787D01*
G01X13053Y9812D01*
G01X13063Y9839D01*
G01X13070Y9866D01*
G01X13075Y9894D01*
G01X13078Y9921D01*
G01X13079Y9949D01*
G01X13078Y9978D01*
G01X13075Y10006D01*
G01X13070Y10034D01*
G01X13062Y10061D01*
G01X13053Y10088D01*
G01X13041Y10114D01*
G01X13028Y10139D01*
G01X13013Y10163D01*
G01X12996Y10186D01*
G01X12978Y10208D01*
G01X12958Y10228D01*
G01X12936Y10246D01*
G01X12913Y10263D01*
G01X12889Y10278D01*
G01X12864Y10291D01*
G01X12838Y10303D01*
G01X12811Y10312D01*
G01X12784Y10319D01*
G01X12756Y10325D01*
G01X12728Y10328D01*
G01X12700Y10329D01*
G01X12671Y10328D01*
G01X12643Y10325D01*
G01X12615Y10319D01*
G01X12588Y10312D01*
G01X12561Y10303D01*
G01X12535Y10291D01*
G01X12510Y10278D01*
G01X12486Y10263D01*
G01X12463Y10246D01*
G01X12441Y10228D01*
G01X12421Y10208D01*
G01X12403Y10186D01*
G01X12386Y10163D01*
G01X12371Y10139D01*
G01X12358Y10114D01*
G01X12346Y10088D01*
G01X12337Y10061D01*
G01X12329Y10034D01*
G01X12324Y10006D01*
G01X12321Y9978D01*
G01X12320Y9949D01*
G01X12321Y9929D01*
G01X12321Y9924D01*
G01X12319Y9908D01*
G01X12316Y9893D01*
G01X12310Y9878D01*
G01X12302Y9865D01*
G01X12291Y9853D01*
G01X12279Y9842D01*
G01X12266Y9834D01*
G01X12251Y9828D01*
G01X12236Y9824D01*
G01X12209Y9818D01*
G01X12182Y9810D01*
G01X12155Y9801D01*
G01X12130Y9789D01*
G01X12105Y9776D01*
G01X12059Y9744D01*
G01X12038Y9725D01*
G01X12019Y9705D01*
G01X12001Y9684D01*
G01X11984Y9661D01*
G01X11970Y9637D01*
G01X11957Y9612D01*
G01X11946Y9587D01*
G01X11936Y9560D01*
G01X11929Y9533D01*
G01X11924Y9505D01*
G01X11921Y9478D01*
G01X11920Y9450D01*
G01X11921Y9419D01*
G01X11925Y9389D01*
G01X11931Y9360D01*
G01X11939Y9331D01*
G01X11950Y9302D01*
G01X11962Y9275D01*
G01X11977Y9249D01*
G01X11994Y9224D01*
G01X12013Y9200D01*
G01X12034Y9178D01*
G01X12045Y9166D01*
G01X12053Y9152D01*
G01X12059Y9137D01*
G01X12063Y9122D01*
G01X12065Y9106D01*
G01X12064Y9091D01*
G01X12060Y9077D01*
G01X12055Y9063D01*
G01X12048Y9051D01*
G01X12040Y9039D01*
G01X12030Y9029D01*
G01X12018Y9020D01*
G01X12005Y9013D01*
G01X11992Y9008D01*
G01X11977Y9005D01*
G01X11963Y9004D01*
G01X10009Y9004D01*
G01X9994Y9005D01*
G01X9980Y9008D01*
G01X9966Y9013D01*
G01X9954Y9020D01*
G01X9942Y9029D01*
G01X9932Y9039D01*
G01X9923Y9051D01*
G01X9916Y9063D01*
G01X9911Y9077D01*
G01X9908Y9091D01*
G01X9907Y9106D01*
G01X9908Y9121D01*
G01X9912Y9136D01*
G01X9919Y9164D01*
G01X9925Y9192D01*
G01X9928Y9221D01*
G01X9929Y9249D01*
G01X9928Y9279D01*
G01X9924Y9307D01*
G01X9919Y9336D01*
G01X9911Y9364D01*
G01X9901Y9392D01*
G01X9889Y9418D01*
G01X9875Y9444D01*
G01X9860Y9468D01*
G01X9842Y9491D01*
G01X9822Y9513D01*
G01X9801Y9533D01*
G01X9779Y9552D01*
G01X9755Y9568D01*
G01X9730Y9583D01*
G01X9704Y9596D01*
G01X9677Y9607D01*
G01X9649Y9616D01*
G01X9621Y9622D01*
G01X9609Y9625D01*
G01X9596Y9626D01*
G01X9549Y9629D01*
G01X9521Y9628D01*
G01X9493Y9625D01*
G01X9465Y9619D01*
G01X9438Y9612D01*
G01X9411Y9603D01*
G01X9385Y9591D01*
G01X9360Y9578D01*
G01X9336Y9563D01*
G01X9313Y9546D01*
G01X9291Y9528D01*
G01X9271Y9508D01*
G01X9253Y9486D01*
G01X9236Y9463D01*
G01X9221Y9439D01*
G01X9207Y9414D01*
G01X9196Y9388D01*
G01X9187Y9361D01*
G01X9179Y9334D01*
G01X9174Y9306D01*
G01X9171Y9278D01*
G01X9170Y9249D01*
G01X9171Y9221D01*
G01X9174Y9192D01*
G01X9180Y9164D01*
G01X9187Y9136D01*
G01X9191Y9121D01*
G01X9192Y9106D01*
G01X9191Y9091D01*
G01X9188Y9077D01*
G01X9183Y9063D01*
G01X9176Y9051D01*
G01X9167Y9039D01*
G01X9157Y9029D01*
G01X9145Y9020D01*
G01X9132Y9013D01*
G01X9119Y9008D01*
G01X9105Y9005D01*
G01X9090Y9004D01*
G01X3700Y9004D01*
G01X3673Y9003D01*
G01X3647Y8999D01*
G01X3621Y8994D01*
G01X3595Y8986D01*
G01X3571Y8976D01*
G01X3547Y8963D01*
G01X3525Y8949D01*
G01X3504Y8933D01*
G01X3484Y8915D01*
G01X967Y6397D01*
G01X956Y6388D01*
G01X944Y6380D01*
G01X931Y6374D01*
G01X917Y6370D01*
G01X889Y6363D01*
G01X862Y6353D01*
G01X836Y6342D01*
G01X811Y6329D01*
G01X787Y6314D01*
G01X764Y6297D01*
G01X742Y6278D01*
G01X722Y6258D01*
G01X703Y6237D01*
G01X686Y6214D01*
G01X671Y6190D01*
G01X658Y6165D01*
G01X646Y6139D01*
G01X637Y6112D01*
G01X630Y6084D01*
G01X624Y6056D01*
G01X621Y6028D01*
G01X620Y5999D01*
G01X621Y5971D01*
G01X624Y5943D01*
G01X629Y5915D01*
G01X637Y5888D01*
G01X646Y5861D01*
G01X658Y5835D01*
G01X671Y5810D01*
G01X686Y5786D01*
G01X703Y5763D01*
G01X721Y5741D01*
G01X741Y5721D01*
G01X763Y5703D01*
G01X786Y5686D01*
G01X810Y5671D01*
G01X835Y5658D01*
G01X861Y5646D01*
G01X888Y5637D01*
G01X915Y5629D01*
G01X943Y5624D01*
G01X971Y5621D01*
G01X999Y5620D01*
G01X1028Y5621D01*
G01X1056Y5624D01*
G01X1084Y5630D01*
G01X1112Y5637D01*
G01X1139Y5646D01*
G01X1165Y5658D01*
G01X1190Y5671D01*
G01X1214Y5686D01*
G01X1237Y5703D01*
G01X1258Y5722D01*
G01X1278Y5742D01*
G01X1297Y5764D01*
G01X1314Y5787D01*
G01X1329Y5811D01*
G01X1342Y5836D01*
G01X1353Y5862D01*
G01X1363Y5889D01*
G01X1370Y5917D01*
G01X1374Y5931D01*
G01X1380Y5944D01*
G01X1388Y5956D01*
G01X1397Y5967D01*
G01X3796Y8365D01*
G01X3808Y8376D01*
G01X3822Y8384D01*
G01X3836Y8390D01*
G01X3852Y8394D01*
G01X3868Y8395D01*
G01X15242Y8395D01*
G01X15256Y8394D01*
G01X15270Y8391D01*
G01X15283Y8386D01*
G01X15296Y8379D01*
G01X15328Y8361D01*
G01X15361Y8346D01*
G01X15396Y8334D01*
G01X15410Y8329D01*
G01X15422Y8323D01*
G01X15434Y8314D01*
G01X15445Y8304D01*
G01X15453Y8292D01*
G01X15460Y8279D01*
G01X15465Y8266D01*
G01X15469Y8251D01*
G01X15470Y8237D01*
G01X15468Y8221D01*
G01X15465Y8205D01*
G01X15459Y8191D01*
G01X15450Y8177D01*
G01X15440Y8165D01*
G01X13337Y6062D01*
G01X13322Y6046D01*
G01X13309Y6027D01*
G01X13297Y6008D01*
G01X13288Y5988D01*
G01X13280Y5967D01*
G01X13274Y5945D01*
G01X13271Y5922D01*
G01X13270Y5900D01*
G01X13270Y2049D01*
G01X13269Y2032D01*
G01X13265Y2016D01*
G01X13258Y2001D01*
G01X13249Y1987D01*
G01X13238Y1975D01*
G01X13219Y1955D01*
G01X13201Y1933D01*
G01X13184Y1911D01*
G01X13170Y1887D01*
G01X13157Y1862D01*
G01X13146Y1836D01*
G01X13136Y1810D01*
G01X13129Y1783D01*
G01X13124Y1755D01*
G01X13121Y1728D01*
G01X13120Y1700D01*
G01X13121Y1671D01*
G01X13124Y1643D01*
G01X13130Y1615D01*
G01X13137Y1587D01*
G01X13147Y1560D01*
G01X13158Y1534D01*
G01X13171Y1509D01*
G01X13187Y1485D01*
G01X13204Y1462D01*
G01X13222Y1440D01*
G01X13242Y1420D01*
G01X13264Y1402D01*
G01X13287Y1385D01*
G01X13311Y1370D01*
G01X13337Y1357D01*
G01X13363Y1345D01*
G01X13390Y1336D01*
G01X13417Y1329D01*
G01X13432Y1325D01*
G01X13446Y1318D01*
G01X13458Y1309D01*
G01X13470Y1299D01*
G01X13479Y1287D01*
G01X13487Y1274D01*
G01X13492Y1260D01*
G01X13496Y1245D01*
G01X13497Y1230D01*
G01X13496Y1215D01*
G01X13493Y1201D01*
G01X13488Y1188D01*
G01X13481Y1175D01*
G01X13472Y1163D01*
G01X13462Y1153D01*
G01X13450Y1144D01*
G01X13438Y1137D01*
G01X13424Y1132D01*
G01X13410Y1129D01*
G01X13395Y1128D01*
G01X13236Y1128D01*
G01X13220Y1129D01*
G01X13204Y1133D01*
G01X13190Y1139D01*
G01X13176Y1148D01*
G01X13164Y1158D01*
G01X12708Y1615D01*
G01X12698Y1627D01*
G01X12690Y1641D01*
G01X12684Y1655D01*
G01X12680Y1671D01*
G01X12679Y1686D01*
G01X12679Y1700D01*
G01X12678Y1728D01*
G01X12675Y1756D01*
G01X12669Y1784D01*
G01X12662Y1811D01*
G01X12653Y1838D01*
G01X12641Y1864D01*
G01X12628Y1889D01*
G01X12613Y1913D01*
G01X12596Y1936D01*
G01X12578Y1958D01*
G01X12558Y1978D01*
G01X12536Y1996D01*
G01X12513Y2013D01*
G01X12489Y2028D01*
G01X12464Y2041D01*
G01X12438Y2053D01*
G01X12411Y2062D01*
G01X12384Y2070D01*
G01X12356Y2075D01*
G01X12328Y2078D01*
G01X12299Y2079D01*
G01X12271Y2078D01*
G01X12243Y2075D01*
G01X12215Y2070D01*
G01X12188Y2062D01*
G01X12161Y2053D01*
G01X12135Y2041D01*
G01X12110Y2028D01*
G01X12086Y2013D01*
G01X12063Y1996D01*
G01X12041Y1978D01*
G01X12021Y1958D01*
G01X12003Y1936D01*
G01X11986Y1913D01*
G01X11971Y1889D01*
G01X11958Y1864D01*
G01X11946Y1838D01*
G01X11937Y1811D01*
G01X11929Y1784D01*
G01X11924Y1756D01*
G01X11921Y1728D01*
G01X11920Y1700D01*
G01X11921Y1671D01*
G01X11924Y1643D01*
G01X11929Y1615D01*
G01X11937Y1588D01*
G01X11946Y1561D01*
G01X11958Y1535D01*
G01X11971Y1510D01*
G01X11986Y1486D01*
G01X12003Y1463D01*
G01X12021Y1441D01*
G01X12041Y1421D01*
G01X12063Y1403D01*
G01X12086Y1386D01*
G01X12110Y1371D01*
G01X12135Y1358D01*
G01X12161Y1346D01*
G01X12188Y1337D01*
G01X12215Y1330D01*
G01X12243Y1324D01*
G01X12271Y1321D01*
G01X12299Y1320D01*
G01X12312Y1320D01*
G01X12328Y1319D01*
G01X12343Y1315D01*
G01X12358Y1309D01*
G01X12372Y1301D01*
G01X12384Y1290D01*
G01X12936Y737D01*
G01X12952Y721D01*
G01X12971Y708D01*
G01X12990Y696D01*
G01X13010Y687D01*
G01X13032Y679D01*
G01X13053Y674D01*
G01X13076Y670D01*
G01X13098Y669D01*
G01X16200Y669D01*
G01X16222Y670D01*
G01X16244Y674D01*
G01X16266Y679D01*
G01X16287Y687D01*
G01X16308Y696D01*
G01X16327Y708D01*
G01X16345Y721D01*
G01X16362Y736D01*
G01X17162Y1536D01*
G01X17177Y1553D01*
G01X17191Y1571D01*
G01X17202Y1591D01*
G01X17212Y1611D01*
G01X17219Y1632D01*
G01X17225Y1654D01*
G01X17228Y1676D01*
G01X17229Y1699D01*
G01X17229Y7300D01*
G01X17230Y7314D01*
G01X17233Y7328D01*
G01X17238Y7342D01*
G01X17245Y7355D01*
G01X17254Y7366D01*
G01X17264Y7377D01*
G01X17276Y7385D01*
G01X17289Y7392D01*
G01X17302Y7397D01*
G01X17316Y7400D01*
G01X17331Y7401D01*
G01X17347Y7400D01*
G01X17362Y7396D01*
G01X17377Y7390D01*
G01X17391Y7382D01*
G01X17403Y7372D01*
G01X19936Y4838D01*
G01X19953Y4823D01*
G01X19971Y4810D01*
G01X19990Y4798D01*
G01X20010Y4789D01*
G01X20032Y4781D01*
G01X20054Y4776D01*
G01X20076Y4772D01*
G01X20098Y4771D01*
G01X28163Y4771D01*
G01X28179Y4770D01*
G01X28194Y4766D01*
G01X28209Y4760D01*
G01X28223Y4752D01*
G01X28235Y4741D01*
G01X31390Y1586D01*
G01X31401Y1574D01*
G01X31409Y1560D01*
G01X31415Y1545D01*
G01X31419Y1530D01*
G01X31420Y1514D01*
G01X31420Y1499D01*
G01X31421Y1471D01*
G01X31424Y1443D01*
G01X31430Y1415D01*
G01X31437Y1387D01*
G01X31446Y1361D01*
G01X31458Y1335D01*
G01X31471Y1310D01*
G01X31486Y1286D01*
G01X31503Y1263D01*
G01X31521Y1241D01*
G01X31541Y1221D01*
G01X31563Y1203D01*
G01X31586Y1186D01*
G01X31610Y1171D01*
G01X31635Y1157D01*
G01X31661Y1146D01*
G01X31688Y1137D01*
G01X31715Y1129D01*
G01X31743Y1124D01*
G01X31771Y1121D01*
G01X31800Y1120D01*
G01X31828Y1121D01*
G01X31856Y1124D01*
G01X31884Y1129D01*
G01X31911Y1137D01*
G01X31938Y1146D01*
G01X31964Y1157D01*
G01X31989Y1171D01*
G01X32013Y1186D01*
G01X32036Y1203D01*
G01X32058Y1221D01*
G01X32078Y1241D01*
G01X32096Y1263D01*
G01X32113Y1286D01*
G01X32128Y1310D01*
G01X32141Y1335D01*
G01X32153Y1361D01*
G01X32162Y1387D01*
G01X32170Y1415D01*
G01X32175Y1443D01*
G01X32178Y1471D01*
G01X32179Y1499D01*
G01X32178Y1528D01*
G01X32175Y1556D01*
G01X32170Y1584D01*
G01X32162Y1611D01*
G01X32153Y1638D01*
G01X32141Y1664D01*
G01X32128Y1689D01*
G01X32113Y1713D01*
G01X32096Y1736D01*
G01X32078Y1758D01*
G01X32058Y1778D01*
G01X32036Y1796D01*
G01X32013Y1813D01*
G01X31989Y1828D01*
G01X31964Y1841D01*
G01X31938Y1853D01*
G01X31911Y1862D01*
G01X31884Y1869D01*
G01X31856Y1875D01*
G01X31828Y1878D01*
G01X31800Y1879D01*
G01X31789Y1879D01*
G01X31773Y1880D01*
G01X31757Y1884D01*
G01X31743Y1890D01*
G01X31729Y1898D01*
G01X31717Y1909D01*
G01X28462Y5163D01*
G01X28446Y5178D01*
G01X28428Y5192D01*
G01X28408Y5203D01*
G01X28388Y5213D01*
G01X28367Y5220D01*
G01X28345Y5226D01*
G01X28323Y5229D01*
G01X28300Y5230D01*
G01X20235Y5230D01*
G01X20220Y5232D01*
G01X20204Y5235D01*
G01X20189Y5241D01*
G01X20176Y5250D01*
G01X20164Y5260D01*
G01X18232Y7192D01*
G01X18221Y7204D01*
G01X18213Y7218D01*
G01X18207Y7232D01*
G01X18203Y7248D01*
G01X18202Y7264D01*
G01X18203Y7278D01*
G01X18206Y7292D01*
G01X18211Y7306D01*
G01X18218Y7318D01*
G01X18226Y7330D01*
G01X18236Y7340D01*
G01X18248Y7349D01*
G01X18260Y7356D01*
G01X18286Y7369D01*
G01X18311Y7385D01*
G01X18335Y7402D01*
G01X18357Y7421D01*
G01X18378Y7442D01*
G01X18390Y7453D01*
G01X18405Y7462D01*
G01X18420Y7469D01*
G01X18436Y7473D01*
G01X18458Y7477D01*
G01X18479Y7484D01*
G01X18499Y7492D01*
G01X18518Y7502D01*
G01X18536Y7514D01*
G01X18553Y7528D01*
G01X18565Y7537D01*
G01X18578Y7544D01*
G01X18592Y7550D01*
G01X18606Y7553D01*
G01X18621Y7554D01*
G01X18635Y7553D01*
G01X18650Y7550D01*
G01X18663Y7545D01*
G01X18676Y7538D01*
G01X18687Y7529D01*
G01X18698Y7519D01*
G01X18706Y7507D01*
G01X18713Y7495D01*
G01X18718Y7481D01*
G01X18721Y7467D01*
G01X18722Y7452D01*
G01X18722Y7441D01*
G01X18720Y7401D01*
G01X18721Y7373D01*
G01X18724Y7344D01*
G01X18729Y7317D01*
G01X18737Y7289D01*
G01X18746Y7262D01*
G01X18757Y7236D01*
G01X18771Y7211D01*
G01X18786Y7187D01*
G01X18803Y7164D01*
G01X18821Y7143D01*
G01X18841Y7123D01*
G01X18863Y7104D01*
G01X18885Y7087D01*
G01X18910Y7072D01*
G01X18935Y7059D01*
G01X18961Y7048D01*
G01X18987Y7038D01*
G01X19015Y7031D01*
G01X19043Y7026D01*
G01X19071Y7023D01*
G01X19099Y7022D01*
G01X19127Y7023D01*
G01X19155Y7026D01*
G01X19183Y7031D01*
G01X19210Y7038D01*
G01X19237Y7047D01*
G01X19263Y7058D01*
G01X19287Y7071D01*
G01X19311Y7086D01*
G01X19334Y7103D01*
G01X19367Y7130D01*
G01X19380Y7138D01*
G01X19394Y7143D01*
G01X19409Y7147D01*
G01X19424Y7148D01*
G01X19439Y7147D01*
G01X19454Y7143D01*
G01X19468Y7138D01*
G01X19481Y7130D01*
G01X19493Y7121D01*
G01X19514Y7103D01*
G01X19537Y7086D01*
G01X19561Y7071D01*
G01X19586Y7058D01*
G01X19612Y7047D01*
G01X19638Y7038D01*
G01X19665Y7031D01*
G01X19693Y7025D01*
G01X19721Y7022D01*
G01X19749Y7021D01*
G01X19777Y7022D01*
G01X19805Y7025D01*
G01X19833Y7031D01*
G01X19860Y7038D01*
G01X19887Y7047D01*
G01X19912Y7058D01*
G01X19937Y7071D01*
G01X19961Y7086D01*
G01X19984Y7102D01*
G01X20005Y7121D01*
G01X20017Y7130D01*
G01X20030Y7137D01*
G01X20044Y7143D01*
G01X20059Y7146D01*
G01X20074Y7147D01*
G01X20089Y7146D01*
G01X20103Y7143D01*
G01X20118Y7137D01*
G01X20131Y7130D01*
G01X20143Y7120D01*
G01X20164Y7102D01*
G01X20187Y7085D01*
G01X20211Y7070D01*
G01X20236Y7057D01*
G01X20262Y7046D01*
G01X20288Y7037D01*
G01X20316Y7029D01*
G01X20343Y7024D01*
G01X20371Y7021D01*
G01X20400Y7020D01*
G01X20428Y7021D01*
G01X20456Y7024D01*
G01X20484Y7030D01*
G01X20511Y7037D01*
G01X20538Y7046D01*
G01X20564Y7058D01*
G01X20589Y7071D01*
G01X20613Y7086D01*
G01X20636Y7103D01*
G01X20658Y7121D01*
G01X20678Y7141D01*
G01X20696Y7163D01*
G01X20713Y7186D01*
G01X20728Y7210D01*
G01X20741Y7235D01*
G01X20753Y7261D01*
G01X20762Y7288D01*
G01X20770Y7315D01*
G01X20775Y7343D01*
G01X20778Y7371D01*
G01X20779Y7400D01*
G01X20778Y7428D01*
G01X20775Y7456D01*
G01X20770Y7484D01*
G01X20762Y7511D01*
G01X20753Y7538D01*
G01X20741Y7564D01*
G01X20728Y7589D01*
G01X20713Y7613D01*
G01X20696Y7636D01*
G01X20678Y7658D01*
G01X20658Y7678D01*
G01X20636Y7696D01*
G01X20613Y7713D01*
G01X20589Y7728D01*
G01X20564Y7741D01*
G01X20538Y7753D01*
G01X20511Y7762D01*
G01X20484Y7770D01*
G01X20456Y7775D01*
G01X20428Y7778D01*
G01X20400Y7779D01*
G01X20371Y7778D01*
G01X20344Y7775D01*
G01X20316Y7770D01*
G01X20289Y7763D01*
G01X20262Y7753D01*
G01X20236Y7742D01*
G01X20212Y7729D01*
G01X20188Y7714D01*
G01X20165Y7698D01*
G01X20144Y7680D01*
G01X20132Y7671D01*
G01X20119Y7663D01*
G01X20105Y7658D01*
G01X20090Y7654D01*
G01X20075Y7653D01*
G01X20060Y7654D01*
G01X20045Y7658D01*
G01X20031Y7663D01*
G01X20018Y7671D01*
G01X20006Y7680D01*
G01X19985Y7698D01*
G01X19962Y7715D01*
G01X19938Y7730D01*
G01X19913Y7743D01*
G01X19887Y7754D01*
G01X19861Y7764D01*
G01X19833Y7771D01*
G01X19806Y7776D01*
G01X19777Y7779D01*
G01X19749Y7780D01*
G01X19721Y7779D01*
G01X19693Y7776D01*
G01X19666Y7771D01*
G01X19638Y7764D01*
G01X19612Y7755D01*
G01X19586Y7743D01*
G01X19561Y7730D01*
G01X19537Y7716D01*
G01X19514Y7699D01*
G01X19493Y7681D01*
G01X19481Y7671D01*
G01X19468Y7664D01*
G01X19454Y7659D01*
G01X19439Y7655D01*
G01X19424Y7654D01*
G01X19409Y7655D01*
G01X19395Y7659D01*
G01X19381Y7664D01*
G01X19368Y7672D01*
G01X19356Y7681D01*
G01X19334Y7699D01*
G01X19312Y7716D01*
G01X19288Y7731D01*
G01X19263Y7744D01*
G01X19237Y7755D01*
G01X19210Y7764D01*
G01X19183Y7771D01*
G01X19155Y7776D01*
G01X19127Y7780D01*
G01X19099Y7781D01*
G01X19060Y7779D01*
G01X19049Y7778D01*
G01X19034Y7779D01*
G01X19020Y7782D01*
G01X19007Y7787D01*
G01X18994Y7794D01*
G01X18982Y7803D01*
G01X18972Y7813D01*
G01X18963Y7825D01*
G01X18956Y7837D01*
G01X18951Y7851D01*
G01X18948Y7865D01*
G01X18947Y7880D01*
G01X18949Y7895D01*
G01X18952Y7911D01*
G01X18958Y7926D01*
G01X18967Y7939D01*
G01X18977Y7951D01*
G01X22062Y11036D01*
G01X22077Y11053D01*
G01X22090Y11071D01*
G01X22102Y11090D01*
G01X22111Y11111D01*
G01X22119Y11132D01*
G01X22125Y11154D01*
G01X22128Y11176D01*
G01X22129Y11198D01*
G01X22129Y12850D01*
G01X22130Y12867D01*
G01X22134Y12883D01*
G01X22141Y12898D01*
G01X22150Y12912D01*
G01X22161Y12924D01*
G01X22180Y12944D01*
G01X22198Y12965D01*
G01X22215Y12988D01*
G01X22230Y13012D01*
G01X22243Y13037D01*
G01X22254Y13062D01*
G01X22263Y13089D01*
G01X22270Y13116D01*
G01X22275Y13144D01*
G01X22278Y13171D01*
G01X22279Y13199D01*
G01X22278Y13228D01*
G01X22275Y13256D01*
G01X22270Y13284D01*
G01X22262Y13311D01*
G01X22253Y13338D01*
G01X22242Y13364D01*
G01X22228Y13389D01*
G01X22213Y13413D01*
G01X22196Y13436D01*
G01X22178Y13458D01*
G01X22158Y13478D01*
G01X22136Y13496D01*
G01X22113Y13513D01*
G01X22089Y13528D01*
G01X22064Y13541D01*
G01X22038Y13553D01*
G01X22011Y13562D01*
G01X21984Y13569D01*
G01X21956Y13575D01*
G01X21928Y13578D01*
G37*
G36*
G01X15499Y16499D02*
G01X5499Y16499D01*
G01X5499Y13999D01*
G01X15499Y13999D01*
G01X15499Y16499D01*
G37*
G36*
G01X5828Y2078D02*
G01X5800Y2079D01*
G01X5771Y2078D01*
G01X5743Y2075D01*
G01X5715Y2070D01*
G01X5688Y2062D01*
G01X5661Y2053D01*
G01X5635Y2041D01*
G01X5610Y2028D01*
G01X5586Y2013D01*
G01X5563Y1996D01*
G01X5541Y1978D01*
G01X5521Y1958D01*
G01X5503Y1936D01*
G01X5486Y1913D01*
G01X5471Y1889D01*
G01X5458Y1864D01*
G01X5446Y1838D01*
G01X5437Y1811D01*
G01X5430Y1784D01*
G01X5424Y1756D01*
G01X5421Y1728D01*
G01X5420Y1700D01*
G01X5421Y1671D01*
G01X5424Y1643D01*
G01X5430Y1615D01*
G01X5437Y1588D01*
G01X5446Y1561D01*
G01X5458Y1535D01*
G01X5471Y1510D01*
G01X5486Y1486D01*
G01X5503Y1463D01*
G01X5521Y1441D01*
G01X5541Y1421D01*
G01X5563Y1403D01*
G01X5586Y1386D01*
G01X5610Y1371D01*
G01X5635Y1358D01*
G01X5661Y1346D01*
G01X5688Y1337D01*
G01X5715Y1330D01*
G01X5743Y1324D01*
G01X5771Y1321D01*
G01X5800Y1320D01*
G01X5828Y1321D01*
G01X5856Y1324D01*
G01X5883Y1329D01*
G01X5910Y1337D01*
G01X5937Y1346D01*
G01X5963Y1357D01*
G01X5988Y1370D01*
G01X6012Y1385D01*
G01X6034Y1401D01*
G01X6056Y1419D01*
G01X6076Y1439D01*
G01X6088Y1450D01*
G01X6102Y1459D01*
G01X6117Y1466D01*
G01X6133Y1470D01*
G01X6150Y1471D01*
G01X6166Y1470D01*
G01X6182Y1466D01*
G01X6197Y1459D01*
G01X6211Y1450D01*
G01X6224Y1439D01*
G01X6244Y1419D01*
G01X6265Y1401D01*
G01X6288Y1385D01*
G01X6312Y1370D01*
G01X6336Y1357D01*
G01X6362Y1346D01*
G01X6389Y1337D01*
G01X6416Y1329D01*
G01X6444Y1324D01*
G01X6472Y1321D01*
G01X6500Y1320D01*
G01X6528Y1321D01*
G01X6556Y1324D01*
G01X6584Y1330D01*
G01X6611Y1337D01*
G01X6638Y1346D01*
G01X6664Y1358D01*
G01X6689Y1371D01*
G01X6713Y1386D01*
G01X6736Y1403D01*
G01X6758Y1421D01*
G01X6778Y1441D01*
G01X6796Y1463D01*
G01X6813Y1486D01*
G01X6828Y1510D01*
G01X6842Y1535D01*
G01X6853Y1561D01*
G01X6862Y1588D01*
G01X6870Y1615D01*
G01X6875Y1643D01*
G01X6878Y1671D01*
G01X6879Y1700D01*
G01X6878Y1728D01*
G01X6875Y1756D01*
G01X6870Y1784D01*
G01X6862Y1811D01*
G01X6853Y1838D01*
G01X6842Y1864D01*
G01X6828Y1889D01*
G01X6813Y1913D01*
G01X6796Y1936D01*
G01X6778Y1958D01*
G01X6758Y1978D01*
G01X6736Y1996D01*
G01X6713Y2013D01*
G01X6689Y2028D01*
G01X6664Y2041D01*
G01X6638Y2053D01*
G01X6611Y2062D01*
G01X6584Y2070D01*
G01X6556Y2075D01*
G01X6528Y2078D01*
G01X6500Y2079D01*
G01X6472Y2078D01*
G01X6444Y2075D01*
G01X6416Y2070D01*
G01X6389Y2063D01*
G01X6362Y2053D01*
G01X6336Y2042D01*
G01X6312Y2029D01*
G01X6288Y2014D01*
G01X6265Y1998D01*
G01X6244Y1980D01*
G01X6224Y1960D01*
G01X6211Y1949D01*
G01X6197Y1940D01*
G01X6182Y1933D01*
G01X6166Y1929D01*
G01X6150Y1928D01*
G01X6133Y1929D01*
G01X6117Y1933D01*
G01X6102Y1940D01*
G01X6088Y1949D01*
G01X6076Y1960D01*
G01X6056Y1980D01*
G01X6034Y1998D01*
G01X6012Y2014D01*
G01X5988Y2029D01*
G01X5963Y2042D01*
G01X5937Y2053D01*
G01X5910Y2063D01*
G01X5883Y2070D01*
G01X5856Y2075D01*
G01X5828Y2078D01*
G37*
G36*
G01X10628Y6178D02*
G01X10599Y6179D01*
G01X10571Y6178D01*
G01X10543Y6175D01*
G01X10515Y6170D01*
G01X10488Y6162D01*
G01X10461Y6153D01*
G01X10435Y6142D01*
G01X10410Y6128D01*
G01X10386Y6113D01*
G01X10363Y6096D01*
G01X10341Y6078D01*
G01X10321Y6058D01*
G01X10303Y6036D01*
G01X10286Y6013D01*
G01X10271Y5989D01*
G01X10257Y5964D01*
G01X10246Y5938D01*
G01X10237Y5911D01*
G01X10229Y5884D01*
G01X10224Y5856D01*
G01X10221Y5828D01*
G01X10220Y5800D01*
G01X10221Y5771D01*
G01X10224Y5744D01*
G01X10229Y5716D01*
G01X10236Y5689D01*
G01X10246Y5662D01*
G01X10257Y5636D01*
G01X10270Y5612D01*
G01X10285Y5588D01*
G01X10301Y5565D01*
G01X10319Y5544D01*
G01X10339Y5523D01*
G01X10350Y5511D01*
G01X10359Y5497D01*
G01X10366Y5482D01*
G01X10370Y5466D01*
G01X10371Y5450D01*
G01X10370Y5433D01*
G01X10366Y5417D01*
G01X10359Y5402D01*
G01X10350Y5388D01*
G01X10339Y5376D01*
G01X10319Y5356D01*
G01X10301Y5334D01*
G01X10285Y5312D01*
G01X10270Y5288D01*
G01X10257Y5263D01*
G01X10246Y5237D01*
G01X10236Y5210D01*
G01X10229Y5183D01*
G01X10224Y5156D01*
G01X10221Y5128D01*
G01X10220Y5100D01*
G01X10221Y5071D01*
G01X10224Y5043D01*
G01X10229Y5015D01*
G01X10237Y4988D01*
G01X10246Y4961D01*
G01X10257Y4935D01*
G01X10271Y4910D01*
G01X10286Y4886D01*
G01X10303Y4863D01*
G01X10321Y4841D01*
G01X10341Y4821D01*
G01X10363Y4803D01*
G01X10386Y4786D01*
G01X10410Y4771D01*
G01X10435Y4758D01*
G01X10461Y4746D01*
G01X10488Y4737D01*
G01X10515Y4730D01*
G01X10543Y4724D01*
G01X10571Y4721D01*
G01X10599Y4720D01*
G01X10628Y4721D01*
G01X10656Y4724D01*
G01X10684Y4730D01*
G01X10711Y4737D01*
G01X10738Y4746D01*
G01X10764Y4758D01*
G01X10789Y4771D01*
G01X10813Y4786D01*
G01X10836Y4803D01*
G01X10858Y4821D01*
G01X10878Y4841D01*
G01X10896Y4863D01*
G01X10913Y4886D01*
G01X10928Y4910D01*
G01X10941Y4935D01*
G01X10953Y4961D01*
G01X10962Y4988D01*
G01X10969Y5015D01*
G01X10975Y5043D01*
G01X10978Y5071D01*
G01X10979Y5100D01*
G01X10978Y5128D01*
G01X10975Y5156D01*
G01X10970Y5183D01*
G01X10962Y5210D01*
G01X10953Y5237D01*
G01X10942Y5263D01*
G01X10929Y5288D01*
G01X10914Y5312D01*
G01X10898Y5334D01*
G01X10880Y5356D01*
G01X10860Y5376D01*
G01X10849Y5388D01*
G01X10840Y5402D01*
G01X10833Y5417D01*
G01X10829Y5433D01*
G01X10828Y5450D01*
G01X10829Y5466D01*
G01X10833Y5482D01*
G01X10840Y5497D01*
G01X10849Y5511D01*
G01X10860Y5523D01*
G01X10880Y5544D01*
G01X10898Y5565D01*
G01X10914Y5588D01*
G01X10929Y5612D01*
G01X10942Y5636D01*
G01X10953Y5662D01*
G01X10962Y5689D01*
G01X10970Y5716D01*
G01X10975Y5744D01*
G01X10978Y5771D01*
G01X10979Y5800D01*
G01X10978Y5828D01*
G01X10975Y5856D01*
G01X10969Y5884D01*
G01X10962Y5911D01*
G01X10953Y5938D01*
G01X10941Y5964D01*
G01X10928Y5989D01*
G01X10913Y6013D01*
G01X10896Y6036D01*
G01X10878Y6058D01*
G01X10858Y6078D01*
G01X10836Y6096D01*
G01X10813Y6113D01*
G01X10789Y6128D01*
G01X10764Y6142D01*
G01X10738Y6153D01*
G01X10711Y6162D01*
G01X10684Y6170D01*
G01X10656Y6175D01*
G01X10628Y6178D01*
G37*
G36*
G01X28678Y1878D02*
G01X28649Y1879D01*
G01X28621Y1878D01*
G01X28593Y1875D01*
G01X28565Y1869D01*
G01X28538Y1862D01*
G01X28511Y1853D01*
G01X28485Y1841D01*
G01X28460Y1828D01*
G01X28436Y1813D01*
G01X28413Y1796D01*
G01X28391Y1778D01*
G01X28371Y1758D01*
G01X28353Y1736D01*
G01X28336Y1713D01*
G01X28321Y1689D01*
G01X28307Y1664D01*
G01X28296Y1638D01*
G01X28287Y1611D01*
G01X28279Y1584D01*
G01X28274Y1556D01*
G01X28271Y1528D01*
G01X28270Y1499D01*
G01X28271Y1471D01*
G01X28274Y1443D01*
G01X28279Y1415D01*
G01X28287Y1387D01*
G01X28296Y1361D01*
G01X28307Y1335D01*
G01X28321Y1310D01*
G01X28336Y1286D01*
G01X28353Y1263D01*
G01X28371Y1241D01*
G01X28391Y1221D01*
G01X28413Y1203D01*
G01X28436Y1186D01*
G01X28460Y1171D01*
G01X28485Y1157D01*
G01X28511Y1146D01*
G01X28538Y1137D01*
G01X28565Y1129D01*
G01X28593Y1124D01*
G01X28621Y1121D01*
G01X28649Y1120D01*
G01X28678Y1121D01*
G01X28706Y1124D01*
G01X28734Y1129D01*
G01X28761Y1137D01*
G01X28788Y1146D01*
G01X28814Y1157D01*
G01X28839Y1171D01*
G01X28863Y1186D01*
G01X28886Y1203D01*
G01X28908Y1221D01*
G01X28928Y1241D01*
G01X28946Y1263D01*
G01X28963Y1286D01*
G01X28978Y1310D01*
G01X28991Y1335D01*
G01X29003Y1361D01*
G01X29012Y1387D01*
G01X29019Y1415D01*
G01X29025Y1443D01*
G01X29028Y1471D01*
G01X29029Y1499D01*
G01X29028Y1528D01*
G01X29025Y1556D01*
G01X29019Y1584D01*
G01X29012Y1611D01*
G01X29003Y1638D01*
G01X28991Y1664D01*
G01X28978Y1689D01*
G01X28963Y1713D01*
G01X28946Y1736D01*
G01X28928Y1758D01*
G01X28908Y1778D01*
G01X28886Y1796D01*
G01X28863Y1813D01*
G01X28839Y1828D01*
G01X28814Y1841D01*
G01X28788Y1853D01*
G01X28761Y1862D01*
G01X28734Y1869D01*
G01X28706Y1875D01*
G01X28678Y1878D01*
G37*
G36*
G01X25028Y15278D02*
G01X24999Y15279D01*
G01X24971Y15278D01*
G01X24943Y15275D01*
G01X24915Y15269D01*
G01X24888Y15262D01*
G01X24861Y15253D01*
G01X24835Y15241D01*
G01X24810Y15228D01*
G01X24786Y15213D01*
G01X24763Y15196D01*
G01X24741Y15178D01*
G01X24721Y15158D01*
G01X24703Y15136D01*
G01X24686Y15113D01*
G01X24671Y15089D01*
G01X24657Y15064D01*
G01X24646Y15038D01*
G01X24637Y15011D01*
G01X24629Y14984D01*
G01X24624Y14956D01*
G01X24621Y14928D01*
G01X24620Y14899D01*
G01X24621Y14871D01*
G01X24624Y14843D01*
G01X24629Y14815D01*
G01X24637Y14788D01*
G01X24646Y14761D01*
G01X24657Y14735D01*
G01X24671Y14710D01*
G01X24686Y14686D01*
G01X24703Y14663D01*
G01X24721Y14641D01*
G01X24741Y14621D01*
G01X24763Y14603D01*
G01X24786Y14586D01*
G01X24810Y14571D01*
G01X24835Y14557D01*
G01X24861Y14546D01*
G01X24888Y14537D01*
G01X24915Y14529D01*
G01X24943Y14524D01*
G01X24971Y14521D01*
G01X24999Y14520D01*
G01X25028Y14521D01*
G01X25056Y14524D01*
G01X25084Y14529D01*
G01X25111Y14537D01*
G01X25138Y14546D01*
G01X25164Y14557D01*
G01X25189Y14571D01*
G01X25213Y14586D01*
G01X25236Y14603D01*
G01X25258Y14621D01*
G01X25278Y14641D01*
G01X25296Y14663D01*
G01X25313Y14686D01*
G01X25328Y14710D01*
G01X25341Y14735D01*
G01X25353Y14761D01*
G01X25362Y14788D01*
G01X25369Y14815D01*
G01X25375Y14843D01*
G01X25378Y14871D01*
G01X25379Y14899D01*
G01X25378Y14928D01*
G01X25375Y14956D01*
G01X25369Y14984D01*
G01X25362Y15011D01*
G01X25353Y15038D01*
G01X25341Y15064D01*
G01X25328Y15089D01*
G01X25313Y15113D01*
G01X25296Y15136D01*
G01X25278Y15158D01*
G01X25258Y15178D01*
G01X25236Y15196D01*
G01X25213Y15213D01*
G01X25189Y15228D01*
G01X25164Y15241D01*
G01X25138Y15253D01*
G01X25111Y15262D01*
G01X25084Y15269D01*
G01X25056Y15275D01*
G01X25028Y15278D01*
G37*
G36*
G01X29628Y12678D02*
G01X29600Y12679D01*
G01X29571Y12678D01*
G01X29543Y12675D01*
G01X29515Y12669D01*
G01X29488Y12662D01*
G01X29461Y12653D01*
G01X29435Y12641D01*
G01X29410Y12628D01*
G01X29386Y12613D01*
G01X29363Y12596D01*
G01X29341Y12578D01*
G01X29321Y12558D01*
G01X29303Y12536D01*
G01X29286Y12513D01*
G01X29271Y12489D01*
G01X29258Y12464D01*
G01X29246Y12438D01*
G01X29237Y12411D01*
G01X29230Y12384D01*
G01X29224Y12356D01*
G01X29221Y12328D01*
G01X29220Y12299D01*
G01X29221Y12271D01*
G01X29224Y12243D01*
G01X29230Y12215D01*
G01X29237Y12188D01*
G01X29246Y12161D01*
G01X29258Y12135D01*
G01X29271Y12110D01*
G01X29286Y12086D01*
G01X29303Y12063D01*
G01X29321Y12041D01*
G01X29341Y12021D01*
G01X29363Y12003D01*
G01X29386Y11986D01*
G01X29410Y11971D01*
G01X29435Y11957D01*
G01X29461Y11946D01*
G01X29488Y11937D01*
G01X29515Y11929D01*
G01X29543Y11924D01*
G01X29571Y11921D01*
G01X29600Y11920D01*
G01X29628Y11921D01*
G01X29656Y11924D01*
G01X29684Y11929D01*
G01X29712Y11937D01*
G01X29738Y11946D01*
G01X29764Y11957D01*
G01X29789Y11971D01*
G01X29813Y11986D01*
G01X29836Y12003D01*
G01X29858Y12021D01*
G01X29878Y12041D01*
G01X29896Y12063D01*
G01X29913Y12086D01*
G01X29928Y12110D01*
G01X29942Y12135D01*
G01X29953Y12161D01*
G01X29962Y12188D01*
G01X29970Y12215D01*
G01X29975Y12243D01*
G01X29978Y12271D01*
G01X29979Y12299D01*
G01X29978Y12328D01*
G01X29975Y12356D01*
G01X29970Y12384D01*
G01X29962Y12411D01*
G01X29953Y12438D01*
G01X29942Y12464D01*
G01X29928Y12489D01*
G01X29913Y12513D01*
G01X29896Y12536D01*
G01X29878Y12558D01*
G01X29858Y12578D01*
G01X29836Y12596D01*
G01X29813Y12613D01*
G01X29789Y12628D01*
G01X29764Y12641D01*
G01X29738Y12653D01*
G01X29712Y12662D01*
G01X29684Y12669D01*
G01X29656Y12675D01*
G01X29628Y12678D01*
G37*
G36*
G01X10328Y12678D02*
G01X10299Y12679D01*
G01X10271Y12678D01*
G01X10243Y12675D01*
G01X10215Y12669D01*
G01X10188Y12662D01*
G01X10161Y12653D01*
G01X10135Y12641D01*
G01X10110Y12628D01*
G01X10086Y12613D01*
G01X10063Y12596D01*
G01X10041Y12578D01*
G01X10021Y12558D01*
G01X10003Y12536D01*
G01X9986Y12513D01*
G01X9971Y12489D01*
G01X9957Y12464D01*
G01X9946Y12438D01*
G01X9937Y12411D01*
G01X9929Y12384D01*
G01X9924Y12356D01*
G01X9921Y12328D01*
G01X9920Y12299D01*
G01X9921Y12271D01*
G01X9924Y12243D01*
G01X9929Y12215D01*
G01X9937Y12188D01*
G01X9946Y12161D01*
G01X9957Y12135D01*
G01X9971Y12110D01*
G01X9986Y12086D01*
G01X10003Y12063D01*
G01X10021Y12041D01*
G01X10041Y12021D01*
G01X10063Y12003D01*
G01X10086Y11986D01*
G01X10110Y11971D01*
G01X10135Y11957D01*
G01X10161Y11946D01*
G01X10188Y11937D01*
G01X10215Y11929D01*
G01X10243Y11924D01*
G01X10271Y11921D01*
G01X10299Y11920D01*
G01X10328Y11921D01*
G01X10356Y11924D01*
G01X10384Y11929D01*
G01X10411Y11937D01*
G01X10438Y11946D01*
G01X10464Y11957D01*
G01X10489Y11971D01*
G01X10513Y11986D01*
G01X10536Y12003D01*
G01X10558Y12021D01*
G01X10578Y12041D01*
G01X10596Y12063D01*
G01X10613Y12086D01*
G01X10628Y12110D01*
G01X10641Y12135D01*
G01X10653Y12161D01*
G01X10662Y12188D01*
G01X10669Y12215D01*
G01X10675Y12243D01*
G01X10678Y12271D01*
G01X10679Y12299D01*
G01X10678Y12328D01*
G01X10675Y12356D01*
G01X10669Y12384D01*
G01X10662Y12411D01*
G01X10653Y12438D01*
G01X10641Y12464D01*
G01X10628Y12489D01*
G01X10613Y12513D01*
G01X10596Y12536D01*
G01X10578Y12558D01*
G01X10558Y12578D01*
G01X10536Y12596D01*
G01X10513Y12613D01*
G01X10489Y12628D01*
G01X10464Y12641D01*
G01X10438Y12653D01*
G01X10411Y12662D01*
G01X10384Y12669D01*
G01X10356Y12675D01*
G01X10328Y12678D01*
G37*
G36*
G01X7728Y13378D02*
G01X7700Y13379D01*
G01X7671Y13378D01*
G01X7643Y13375D01*
G01X7615Y13370D01*
G01X7588Y13362D01*
G01X7561Y13353D01*
G01X7535Y13341D01*
G01X7510Y13328D01*
G01X7486Y13313D01*
G01X7463Y13296D01*
G01X7441Y13278D01*
G01X7421Y13258D01*
G01X7403Y13236D01*
G01X7386Y13213D01*
G01X7371Y13189D01*
G01X7358Y13164D01*
G01X7346Y13138D01*
G01X7337Y13111D01*
G01X7329Y13084D01*
G01X7324Y13056D01*
G01X7321Y13028D01*
G01X7320Y12999D01*
G01X7321Y12971D01*
G01X7324Y12943D01*
G01X7329Y12915D01*
G01X7337Y12888D01*
G01X7346Y12861D01*
G01X7358Y12835D01*
G01X7371Y12810D01*
G01X7386Y12786D01*
G01X7403Y12763D01*
G01X7421Y12741D01*
G01X7441Y12721D01*
G01X7463Y12703D01*
G01X7486Y12686D01*
G01X7510Y12671D01*
G01X7535Y12658D01*
G01X7561Y12646D01*
G01X7588Y12637D01*
G01X7615Y12629D01*
G01X7643Y12624D01*
G01X7671Y12621D01*
G01X7700Y12620D01*
G01X7728Y12621D01*
G01X7756Y12624D01*
G01X7784Y12629D01*
G01X7811Y12637D01*
G01X7838Y12646D01*
G01X7864Y12658D01*
G01X7889Y12671D01*
G01X7913Y12686D01*
G01X7936Y12703D01*
G01X7958Y12721D01*
G01X7978Y12741D01*
G01X7996Y12763D01*
G01X8013Y12786D01*
G01X8028Y12810D01*
G01X8041Y12835D01*
G01X8053Y12861D01*
G01X8062Y12888D01*
G01X8070Y12915D01*
G01X8075Y12943D01*
G01X8078Y12971D01*
G01X8079Y12999D01*
G01X8078Y13028D01*
G01X8075Y13056D01*
G01X8070Y13084D01*
G01X8062Y13111D01*
G01X8053Y13138D01*
G01X8041Y13164D01*
G01X8028Y13189D01*
G01X8013Y13213D01*
G01X7996Y13236D01*
G01X7978Y13258D01*
G01X7958Y13278D01*
G01X7936Y13296D01*
G01X7913Y13313D01*
G01X7889Y13328D01*
G01X7864Y13341D01*
G01X7838Y13353D01*
G01X7811Y13362D01*
G01X7784Y13370D01*
G01X7756Y13375D01*
G01X7728Y13378D01*
G37*
G36*
G01X21428Y16178D02*
G01X21400Y16179D01*
G01X21371Y16178D01*
G01X21343Y16175D01*
G01X21315Y16170D01*
G01X21288Y16162D01*
G01X21261Y16153D01*
G01X21235Y16142D01*
G01X21210Y16128D01*
G01X21186Y16113D01*
G01X21163Y16096D01*
G01X21141Y16078D01*
G01X21121Y16058D01*
G01X21103Y16036D01*
G01X21086Y16013D01*
G01X21071Y15989D01*
G01X21058Y15964D01*
G01X21046Y15938D01*
G01X21037Y15911D01*
G01X21029Y15884D01*
G01X21024Y15856D01*
G01X21021Y15828D01*
G01X21020Y15800D01*
G01X21021Y15771D01*
G01X21024Y15743D01*
G01X21029Y15715D01*
G01X21037Y15688D01*
G01X21046Y15661D01*
G01X21058Y15635D01*
G01X21071Y15610D01*
G01X21086Y15586D01*
G01X21103Y15563D01*
G01X21121Y15541D01*
G01X21141Y15521D01*
G01X21163Y15503D01*
G01X21186Y15486D01*
G01X21210Y15471D01*
G01X21235Y15458D01*
G01X21261Y15446D01*
G01X21288Y15437D01*
G01X21315Y15430D01*
G01X21343Y15424D01*
G01X21371Y15421D01*
G01X21400Y15420D01*
G01X21428Y15421D01*
G01X21456Y15424D01*
G01X21484Y15430D01*
G01X21511Y15437D01*
G01X21538Y15446D01*
G01X21564Y15458D01*
G01X21589Y15471D01*
G01X21613Y15486D01*
G01X21636Y15503D01*
G01X21658Y15521D01*
G01X21678Y15541D01*
G01X21696Y15563D01*
G01X21713Y15586D01*
G01X21728Y15610D01*
G01X21741Y15635D01*
G01X21753Y15661D01*
G01X21762Y15688D01*
G01X21770Y15715D01*
G01X21775Y15743D01*
G01X21778Y15771D01*
G01X21779Y15800D01*
G01X21778Y15828D01*
G01X21775Y15856D01*
G01X21770Y15884D01*
G01X21762Y15911D01*
G01X21753Y15938D01*
G01X21741Y15964D01*
G01X21728Y15989D01*
G01X21713Y16013D01*
G01X21696Y16036D01*
G01X21678Y16058D01*
G01X21658Y16078D01*
G01X21636Y16096D01*
G01X21613Y16113D01*
G01X21589Y16128D01*
G01X21564Y16142D01*
G01X21538Y16153D01*
G01X21511Y16162D01*
G01X21484Y16170D01*
G01X21456Y16175D01*
G01X21428Y16178D01*
G37*
G36*
G01X17528Y15278D02*
G01X17500Y15279D01*
G01X17471Y15278D01*
G01X17443Y15275D01*
G01X17415Y15269D01*
G01X17388Y15262D01*
G01X17361Y15253D01*
G01X17335Y15241D01*
G01X17310Y15228D01*
G01X17286Y15213D01*
G01X17263Y15196D01*
G01X17241Y15178D01*
G01X17221Y15158D01*
G01X17203Y15136D01*
G01X17186Y15113D01*
G01X17171Y15089D01*
G01X17158Y15064D01*
G01X17146Y15038D01*
G01X17137Y15011D01*
G01X17130Y14984D01*
G01X17124Y14956D01*
G01X17121Y14928D01*
G01X17120Y14899D01*
G01X17121Y14871D01*
G01X17124Y14843D01*
G01X17130Y14815D01*
G01X17137Y14788D01*
G01X17146Y14761D01*
G01X17158Y14735D01*
G01X17171Y14710D01*
G01X17186Y14686D01*
G01X17203Y14663D01*
G01X17221Y14641D01*
G01X17241Y14621D01*
G01X17263Y14603D01*
G01X17286Y14586D01*
G01X17310Y14571D01*
G01X17335Y14557D01*
G01X17361Y14546D01*
G01X17388Y14537D01*
G01X17415Y14529D01*
G01X17443Y14524D01*
G01X17471Y14521D01*
G01X17500Y14520D01*
G01X17528Y14521D01*
G01X17556Y14524D01*
G01X17584Y14529D01*
G01X17611Y14537D01*
G01X17638Y14546D01*
G01X17664Y14557D01*
G01X17689Y14571D01*
G01X17713Y14586D01*
G01X17736Y14603D01*
G01X17758Y14621D01*
G01X17778Y14641D01*
G01X17796Y14663D01*
G01X17813Y14686D01*
G01X17828Y14710D01*
G01X17842Y14735D01*
G01X17853Y14761D01*
G01X17862Y14788D01*
G01X17870Y14815D01*
G01X17875Y14843D01*
G01X17878Y14871D01*
G01X17879Y14899D01*
G01X17878Y14928D01*
G01X17875Y14956D01*
G01X17870Y14984D01*
G01X17862Y15011D01*
G01X17853Y15038D01*
G01X17842Y15064D01*
G01X17828Y15089D01*
G01X17813Y15113D01*
G01X17796Y15136D01*
G01X17778Y15158D01*
G01X17758Y15178D01*
G01X17736Y15196D01*
G01X17713Y15213D01*
G01X17689Y15228D01*
G01X17664Y15241D01*
G01X17638Y15253D01*
G01X17611Y15262D01*
G01X17584Y15269D01*
G01X17556Y15275D01*
G01X17528Y15278D01*
G37*
G36*
G01X31628Y13878D02*
G01X31599Y13879D01*
G01X31571Y13878D01*
G01X31543Y13875D01*
G01X31515Y13870D01*
G01X31487Y13862D01*
G01X31461Y13853D01*
G01X31435Y13842D01*
G01X31410Y13828D01*
G01X31386Y13813D01*
G01X31363Y13796D01*
G01X31341Y13778D01*
G01X31321Y13758D01*
G01X31303Y13736D01*
G01X31286Y13713D01*
G01X31271Y13689D01*
G01X31257Y13664D01*
G01X31246Y13638D01*
G01X31237Y13611D01*
G01X31229Y13584D01*
G01X31224Y13556D01*
G01X31221Y13528D01*
G01X31220Y13500D01*
G01X31221Y13471D01*
G01X31224Y13443D01*
G01X31229Y13415D01*
G01X31237Y13388D01*
G01X31246Y13361D01*
G01X31257Y13335D01*
G01X31271Y13310D01*
G01X31286Y13286D01*
G01X31303Y13263D01*
G01X31321Y13241D01*
G01X31341Y13221D01*
G01X31363Y13203D01*
G01X31386Y13186D01*
G01X31410Y13171D01*
G01X31435Y13158D01*
G01X31461Y13146D01*
G01X31487Y13137D01*
G01X31515Y13130D01*
G01X31543Y13124D01*
G01X31571Y13121D01*
G01X31599Y13120D01*
G01X31628Y13121D01*
G01X31656Y13124D01*
G01X31684Y13130D01*
G01X31711Y13137D01*
G01X31738Y13146D01*
G01X31764Y13158D01*
G01X31789Y13171D01*
G01X31813Y13186D01*
G01X31836Y13203D01*
G01X31858Y13221D01*
G01X31878Y13241D01*
G01X31896Y13263D01*
G01X31913Y13286D01*
G01X31928Y13310D01*
G01X31941Y13335D01*
G01X31953Y13361D01*
G01X31962Y13388D01*
G01X31969Y13415D01*
G01X31975Y13443D01*
G01X31978Y13471D01*
G01X31979Y13500D01*
G01X31978Y13528D01*
G01X31975Y13556D01*
G01X31969Y13584D01*
G01X31962Y13611D01*
G01X31953Y13638D01*
G01X31941Y13664D01*
G01X31928Y13689D01*
G01X31913Y13713D01*
G01X31896Y13736D01*
G01X31878Y13758D01*
G01X31858Y13778D01*
G01X31836Y13796D01*
G01X31813Y13813D01*
G01X31789Y13828D01*
G01X31764Y13842D01*
G01X31738Y13853D01*
G01X31711Y13862D01*
G01X31684Y13870D01*
G01X31656Y13875D01*
G01X31628Y13878D01*
G37*
G36*
G01X27428Y13878D02*
G01X27399Y13879D01*
G01X27371Y13878D01*
G01X27343Y13875D01*
G01X27315Y13870D01*
G01X27288Y13862D01*
G01X27261Y13853D01*
G01X27235Y13842D01*
G01X27210Y13828D01*
G01X27186Y13813D01*
G01X27163Y13796D01*
G01X27141Y13778D01*
G01X27121Y13758D01*
G01X27103Y13736D01*
G01X27086Y13713D01*
G01X27071Y13689D01*
G01X27058Y13664D01*
G01X27046Y13638D01*
G01X27037Y13611D01*
G01X27029Y13584D01*
G01X27024Y13556D01*
G01X27021Y13528D01*
G01X27020Y13500D01*
G01X27021Y13471D01*
G01X27024Y13443D01*
G01X27029Y13415D01*
G01X27037Y13388D01*
G01X27046Y13361D01*
G01X27058Y13335D01*
G01X27071Y13310D01*
G01X27086Y13286D01*
G01X27103Y13263D01*
G01X27121Y13241D01*
G01X27141Y13221D01*
G01X27163Y13203D01*
G01X27186Y13186D01*
G01X27210Y13171D01*
G01X27235Y13158D01*
G01X27261Y13146D01*
G01X27288Y13137D01*
G01X27315Y13130D01*
G01X27343Y13124D01*
G01X27371Y13121D01*
G01X27399Y13120D01*
G01X27428Y13121D01*
G01X27456Y13124D01*
G01X27484Y13130D01*
G01X27511Y13137D01*
G01X27538Y13146D01*
G01X27564Y13158D01*
G01X27589Y13171D01*
G01X27613Y13186D01*
G01X27636Y13203D01*
G01X27658Y13221D01*
G01X27678Y13241D01*
G01X27696Y13263D01*
G01X27713Y13286D01*
G01X27728Y13310D01*
G01X27741Y13335D01*
G01X27753Y13361D01*
G01X27762Y13388D01*
G01X27770Y13415D01*
G01X27775Y13443D01*
G01X27778Y13471D01*
G01X27779Y13500D01*
G01X27778Y13528D01*
G01X27775Y13556D01*
G01X27770Y13584D01*
G01X27762Y13611D01*
G01X27753Y13638D01*
G01X27741Y13664D01*
G01X27728Y13689D01*
G01X27713Y13713D01*
G01X27696Y13736D01*
G01X27678Y13758D01*
G01X27658Y13778D01*
G01X27636Y13796D01*
G01X27613Y13813D01*
G01X27589Y13828D01*
G01X27564Y13842D01*
G01X27538Y13853D01*
G01X27511Y13862D01*
G01X27484Y13870D01*
G01X27456Y13875D01*
G01X27428Y13878D01*
G37*
G36*
G01X23128Y13578D02*
G01X23100Y13579D01*
G01X23071Y13578D01*
G01X23043Y13575D01*
G01X23015Y13569D01*
G01X22988Y13562D01*
G01X22961Y13553D01*
G01X22935Y13541D01*
G01X22910Y13528D01*
G01X22886Y13513D01*
G01X22863Y13496D01*
G01X22841Y13478D01*
G01X22821Y13458D01*
G01X22803Y13436D01*
G01X22786Y13413D01*
G01X22771Y13389D01*
G01X22758Y13364D01*
G01X22746Y13338D01*
G01X22737Y13311D01*
G01X22730Y13284D01*
G01X22724Y13256D01*
G01X22721Y13228D01*
G01X22720Y13199D01*
G01X22721Y13171D01*
G01X22724Y13143D01*
G01X22730Y13115D01*
G01X22737Y13087D01*
G01X22746Y13061D01*
G01X22758Y13035D01*
G01X22771Y13010D01*
G01X22786Y12986D01*
G01X22803Y12963D01*
G01X22821Y12941D01*
G01X22841Y12921D01*
G01X22863Y12903D01*
G01X22886Y12886D01*
G01X22910Y12871D01*
G01X22935Y12857D01*
G01X22961Y12846D01*
G01X22988Y12837D01*
G01X23015Y12829D01*
G01X23043Y12824D01*
G01X23071Y12821D01*
G01X23100Y12820D01*
G01X23128Y12821D01*
G01X23156Y12824D01*
G01X23184Y12829D01*
G01X23211Y12837D01*
G01X23238Y12846D01*
G01X23264Y12857D01*
G01X23289Y12871D01*
G01X23313Y12886D01*
G01X23336Y12903D01*
G01X23358Y12921D01*
G01X23378Y12941D01*
G01X23396Y12963D01*
G01X23413Y12986D01*
G01X23428Y13010D01*
G01X23441Y13035D01*
G01X23453Y13061D01*
G01X23462Y13087D01*
G01X23470Y13115D01*
G01X23475Y13143D01*
G01X23478Y13171D01*
G01X23479Y13199D01*
G01X23478Y13228D01*
G01X23475Y13256D01*
G01X23470Y13284D01*
G01X23462Y13311D01*
G01X23453Y13338D01*
G01X23441Y13364D01*
G01X23428Y13389D01*
G01X23413Y13413D01*
G01X23396Y13436D01*
G01X23378Y13458D01*
G01X23358Y13478D01*
G01X23336Y13496D01*
G01X23313Y13513D01*
G01X23289Y13528D01*
G01X23264Y13541D01*
G01X23238Y13553D01*
G01X23211Y13562D01*
G01X23184Y13569D01*
G01X23156Y13575D01*
G01X23128Y13578D01*
G37*
G36*
G01X2028Y5878D02*
G01X1999Y5879D01*
G01X1971Y5878D01*
G01X1943Y5875D01*
G01X1915Y5869D01*
G01X1888Y5862D01*
G01X1861Y5853D01*
G01X1835Y5841D01*
G01X1810Y5828D01*
G01X1786Y5813D01*
G01X1763Y5796D01*
G01X1741Y5778D01*
G01X1721Y5758D01*
G01X1703Y5736D01*
G01X1686Y5713D01*
G01X1671Y5689D01*
G01X1658Y5664D01*
G01X1646Y5638D01*
G01X1637Y5611D01*
G01X1629Y5584D01*
G01X1624Y5556D01*
G01X1621Y5528D01*
G01X1620Y5499D01*
G01X1621Y5471D01*
G01X1624Y5443D01*
G01X1629Y5415D01*
G01X1637Y5388D01*
G01X1646Y5361D01*
G01X1658Y5335D01*
G01X1671Y5310D01*
G01X1686Y5286D01*
G01X1703Y5263D01*
G01X1721Y5241D01*
G01X1741Y5221D01*
G01X1763Y5203D01*
G01X1786Y5186D01*
G01X1810Y5171D01*
G01X1835Y5157D01*
G01X1861Y5146D01*
G01X1888Y5137D01*
G01X1915Y5129D01*
G01X1943Y5124D01*
G01X1971Y5121D01*
G01X1999Y5120D01*
G01X2028Y5121D01*
G01X2056Y5124D01*
G01X2084Y5129D01*
G01X2111Y5137D01*
G01X2138Y5146D01*
G01X2164Y5157D01*
G01X2189Y5171D01*
G01X2213Y5186D01*
G01X2236Y5203D01*
G01X2258Y5221D01*
G01X2278Y5241D01*
G01X2296Y5263D01*
G01X2313Y5286D01*
G01X2328Y5310D01*
G01X2341Y5335D01*
G01X2353Y5361D01*
G01X2362Y5388D01*
G01X2369Y5415D01*
G01X2375Y5443D01*
G01X2378Y5471D01*
G01X2379Y5499D01*
G01X2378Y5528D01*
G01X2375Y5556D01*
G01X2369Y5584D01*
G01X2362Y5611D01*
G01X2353Y5638D01*
G01X2341Y5664D01*
G01X2328Y5689D01*
G01X2313Y5713D01*
G01X2296Y5736D01*
G01X2278Y5758D01*
G01X2258Y5778D01*
G01X2236Y5796D01*
G01X2213Y5813D01*
G01X2189Y5828D01*
G01X2164Y5841D01*
G01X2138Y5853D01*
G01X2111Y5862D01*
G01X2084Y5869D01*
G01X2056Y5875D01*
G01X2028Y5878D01*
G37*
G36*
G01X9728Y10578D02*
G01X9700Y10579D01*
G01X9671Y10578D01*
G01X9643Y10575D01*
G01X9615Y10569D01*
G01X9588Y10562D01*
G01X9561Y10553D01*
G01X9535Y10541D01*
G01X9510Y10528D01*
G01X9486Y10513D01*
G01X9463Y10496D01*
G01X9441Y10478D01*
G01X9421Y10458D01*
G01X9403Y10436D01*
G01X9386Y10413D01*
G01X9371Y10389D01*
G01X9358Y10364D01*
G01X9346Y10338D01*
G01X9337Y10311D01*
G01X9330Y10284D01*
G01X9324Y10256D01*
G01X9321Y10228D01*
G01X9320Y10199D01*
G01X9321Y10170D01*
G01X9324Y10141D01*
G01X9330Y10113D01*
G01X9338Y10085D01*
G01X9348Y10057D01*
G01X9360Y10031D01*
G01X9373Y10005D01*
G01X9389Y9981D01*
G01X9407Y9958D01*
G01X9426Y9936D01*
G01X9447Y9916D01*
G01X9470Y9897D01*
G01X9494Y9880D01*
G01X9519Y9866D01*
G01X9545Y9853D01*
G01X9572Y9842D01*
G01X9600Y9833D01*
G01X9628Y9827D01*
G01X9640Y9824D01*
G01X9652Y9823D01*
G01X9700Y9820D01*
G01X9728Y9821D01*
G01X9756Y9824D01*
G01X9784Y9829D01*
G01X9811Y9837D01*
G01X9838Y9846D01*
G01X9864Y9857D01*
G01X9889Y9871D01*
G01X9913Y9886D01*
G01X9936Y9903D01*
G01X9958Y9921D01*
G01X9978Y9941D01*
G01X9996Y9963D01*
G01X10013Y9986D01*
G01X10028Y10010D01*
G01X10041Y10035D01*
G01X10053Y10061D01*
G01X10062Y10088D01*
G01X10070Y10115D01*
G01X10075Y10143D01*
G01X10078Y10171D01*
G01X10079Y10199D01*
G01X10078Y10228D01*
G01X10075Y10256D01*
G01X10070Y10284D01*
G01X10062Y10311D01*
G01X10053Y10338D01*
G01X10041Y10364D01*
G01X10028Y10389D01*
G01X10013Y10413D01*
G01X9996Y10436D01*
G01X9978Y10458D01*
G01X9958Y10478D01*
G01X9936Y10496D01*
G01X9913Y10513D01*
G01X9889Y10528D01*
G01X9864Y10541D01*
G01X9838Y10553D01*
G01X9811Y10562D01*
G01X9784Y10569D01*
G01X9756Y10575D01*
G01X9728Y10578D01*
G37*
G36*
G01X11528Y10678D02*
G01X11500Y10679D01*
G01X11471Y10678D01*
G01X11443Y10675D01*
G01X11415Y10669D01*
G01X11388Y10662D01*
G01X11361Y10653D01*
G01X11335Y10641D01*
G01X11310Y10628D01*
G01X11286Y10613D01*
G01X11263Y10596D01*
G01X11241Y10578D01*
G01X11221Y10558D01*
G01X11203Y10536D01*
G01X11186Y10513D01*
G01X11171Y10489D01*
G01X11158Y10464D01*
G01X11146Y10438D01*
G01X11137Y10411D01*
G01X11130Y10384D01*
G01X11124Y10356D01*
G01X11121Y10328D01*
G01X11120Y10299D01*
G01X11121Y10271D01*
G01X11124Y10243D01*
G01X11130Y10215D01*
G01X11137Y10188D01*
G01X11146Y10161D01*
G01X11158Y10135D01*
G01X11171Y10110D01*
G01X11186Y10086D01*
G01X11203Y10063D01*
G01X11221Y10041D01*
G01X11241Y10021D01*
G01X11263Y10003D01*
G01X11286Y9986D01*
G01X11310Y9971D01*
G01X11335Y9958D01*
G01X11361Y9946D01*
G01X11388Y9937D01*
G01X11415Y9929D01*
G01X11443Y9924D01*
G01X11471Y9921D01*
G01X11500Y9920D01*
G01X11528Y9921D01*
G01X11556Y9924D01*
G01X11584Y9929D01*
G01X11611Y9937D01*
G01X11638Y9946D01*
G01X11664Y9958D01*
G01X11689Y9971D01*
G01X11713Y9986D01*
G01X11736Y10003D01*
G01X11758Y10021D01*
G01X11778Y10041D01*
G01X11796Y10063D01*
G01X11813Y10086D01*
G01X11828Y10110D01*
G01X11842Y10135D01*
G01X11853Y10161D01*
G01X11862Y10188D01*
G01X11870Y10215D01*
G01X11875Y10243D01*
G01X11878Y10271D01*
G01X11879Y10299D01*
G01X11878Y10328D01*
G01X11875Y10356D01*
G01X11870Y10384D01*
G01X11862Y10411D01*
G01X11853Y10438D01*
G01X11842Y10464D01*
G01X11828Y10489D01*
G01X11813Y10513D01*
G01X11796Y10536D01*
G01X11778Y10558D01*
G01X11758Y10578D01*
G01X11736Y10596D01*
G01X11713Y10613D01*
G01X11689Y10628D01*
G01X11664Y10641D01*
G01X11638Y10653D01*
G01X11611Y10662D01*
G01X11584Y10669D01*
G01X11556Y10675D01*
G01X11528Y10678D01*
G37*
G36*
G01X31028Y5478D02*
G01X30999Y5479D01*
G01X30971Y5478D01*
G01X30943Y5475D01*
G01X30915Y5470D01*
G01X30888Y5462D01*
G01X30861Y5453D01*
G01X30835Y5442D01*
G01X30810Y5428D01*
G01X30786Y5413D01*
G01X30763Y5396D01*
G01X30741Y5378D01*
G01X30721Y5358D01*
G01X30703Y5336D01*
G01X30686Y5313D01*
G01X30671Y5289D01*
G01X30658Y5264D01*
G01X30646Y5238D01*
G01X30637Y5211D01*
G01X30629Y5184D01*
G01X30624Y5156D01*
G01X30621Y5128D01*
G01X30620Y5100D01*
G01X30621Y5071D01*
G01X30624Y5043D01*
G01X30629Y5015D01*
G01X30637Y4988D01*
G01X30646Y4961D01*
G01X30658Y4935D01*
G01X30671Y4910D01*
G01X30686Y4886D01*
G01X30703Y4863D01*
G01X30721Y4841D01*
G01X30741Y4821D01*
G01X30763Y4803D01*
G01X30786Y4786D01*
G01X30810Y4771D01*
G01X30835Y4758D01*
G01X30861Y4746D01*
G01X30888Y4737D01*
G01X30915Y4730D01*
G01X30943Y4724D01*
G01X30971Y4721D01*
G01X30999Y4720D01*
G01X31028Y4721D01*
G01X31056Y4724D01*
G01X31084Y4730D01*
G01X31111Y4737D01*
G01X31138Y4746D01*
G01X31164Y4758D01*
G01X31189Y4771D01*
G01X31213Y4786D01*
G01X31236Y4803D01*
G01X31258Y4821D01*
G01X31278Y4841D01*
G01X31296Y4863D01*
G01X31313Y4886D01*
G01X31328Y4910D01*
G01X31341Y4935D01*
G01X31353Y4961D01*
G01X31362Y4988D01*
G01X31369Y5015D01*
G01X31375Y5043D01*
G01X31378Y5071D01*
G01X31379Y5100D01*
G01X31378Y5128D01*
G01X31375Y5156D01*
G01X31369Y5184D01*
G01X31362Y5211D01*
G01X31353Y5238D01*
G01X31341Y5264D01*
G01X31328Y5289D01*
G01X31313Y5313D01*
G01X31296Y5336D01*
G01X31278Y5358D01*
G01X31258Y5378D01*
G01X31236Y5396D01*
G01X31213Y5413D01*
G01X31189Y5428D01*
G01X31164Y5442D01*
G01X31138Y5453D01*
G01X31111Y5462D01*
G01X31084Y5470D01*
G01X31056Y5475D01*
G01X31028Y5478D01*
G37*
G36*
G01X23478Y1378D02*
G01X23450Y1379D01*
G01X23421Y1378D01*
G01X23393Y1375D01*
G01X23365Y1369D01*
G01X23338Y1362D01*
G01X23311Y1353D01*
G01X23285Y1341D01*
G01X23260Y1328D01*
G01X23236Y1313D01*
G01X23213Y1296D01*
G01X23191Y1278D01*
G01X23171Y1258D01*
G01X23153Y1236D01*
G01X23136Y1213D01*
G01X23121Y1189D01*
G01X23108Y1164D01*
G01X23096Y1138D01*
G01X23087Y1111D01*
G01X23080Y1084D01*
G01X23074Y1056D01*
G01X23071Y1028D01*
G01X23070Y999D01*
G01X23071Y971D01*
G01X23074Y943D01*
G01X23080Y915D01*
G01X23087Y888D01*
G01X23096Y861D01*
G01X23108Y835D01*
G01X23121Y810D01*
G01X23136Y786D01*
G01X23153Y763D01*
G01X23171Y741D01*
G01X23191Y721D01*
G01X23213Y703D01*
G01X23236Y686D01*
G01X23260Y671D01*
G01X23285Y658D01*
G01X23311Y646D01*
G01X23338Y637D01*
G01X23365Y629D01*
G01X23393Y624D01*
G01X23421Y621D01*
G01X23450Y620D01*
G01X23478Y621D01*
G01X23506Y624D01*
G01X23534Y629D01*
G01X23561Y637D01*
G01X23588Y646D01*
G01X23614Y658D01*
G01X23639Y671D01*
G01X23663Y686D01*
G01X23686Y703D01*
G01X23708Y721D01*
G01X23728Y741D01*
G01X23746Y763D01*
G01X23763Y786D01*
G01X23778Y810D01*
G01X23791Y835D01*
G01X23803Y861D01*
G01X23812Y888D01*
G01X23820Y915D01*
G01X23825Y943D01*
G01X23828Y971D01*
G01X23829Y999D01*
G01X23828Y1028D01*
G01X23825Y1056D01*
G01X23820Y1084D01*
G01X23812Y1111D01*
G01X23803Y1138D01*
G01X23791Y1164D01*
G01X23778Y1189D01*
G01X23763Y1213D01*
G01X23746Y1236D01*
G01X23728Y1258D01*
G01X23708Y1278D01*
G01X23686Y1296D01*
G01X23663Y1313D01*
G01X23639Y1328D01*
G01X23614Y1341D01*
G01X23588Y1353D01*
G01X23561Y1362D01*
G01X23534Y1369D01*
G01X23506Y1375D01*
G01X23478Y1378D01*
G37*
G36*
G01X29728Y1878D02*
G01X29699Y1879D01*
G01X29671Y1878D01*
G01X29643Y1875D01*
G01X29615Y1869D01*
G01X29588Y1862D01*
G01X29561Y1853D01*
G01X29535Y1841D01*
G01X29510Y1828D01*
G01X29486Y1813D01*
G01X29463Y1796D01*
G01X29441Y1778D01*
G01X29421Y1758D01*
G01X29403Y1736D01*
G01X29386Y1713D01*
G01X29371Y1689D01*
G01X29358Y1664D01*
G01X29346Y1638D01*
G01X29337Y1611D01*
G01X29329Y1584D01*
G01X29324Y1556D01*
G01X29321Y1528D01*
G01X29320Y1499D01*
G01X29321Y1471D01*
G01X29324Y1443D01*
G01X29329Y1415D01*
G01X29337Y1388D01*
G01X29346Y1361D01*
G01X29358Y1335D01*
G01X29371Y1310D01*
G01X29386Y1286D01*
G01X29403Y1263D01*
G01X29421Y1241D01*
G01X29441Y1221D01*
G01X29463Y1203D01*
G01X29486Y1186D01*
G01X29510Y1171D01*
G01X29535Y1157D01*
G01X29561Y1146D01*
G01X29588Y1137D01*
G01X29615Y1129D01*
G01X29643Y1124D01*
G01X29671Y1121D01*
G01X29699Y1120D01*
G01X29728Y1121D01*
G01X29756Y1124D01*
G01X29784Y1129D01*
G01X29811Y1137D01*
G01X29838Y1146D01*
G01X29864Y1157D01*
G01X29889Y1171D01*
G01X29913Y1186D01*
G01X29936Y1203D01*
G01X29958Y1221D01*
G01X29978Y1241D01*
G01X29996Y1263D01*
G01X30013Y1286D01*
G01X30028Y1310D01*
G01X30041Y1335D01*
G01X30053Y1361D01*
G01X30062Y1388D01*
G01X30069Y1415D01*
G01X30075Y1443D01*
G01X30078Y1471D01*
G01X30079Y1499D01*
G01X30078Y1528D01*
G01X30075Y1556D01*
G01X30069Y1584D01*
G01X30062Y1611D01*
G01X30053Y1638D01*
G01X30041Y1664D01*
G01X30028Y1689D01*
G01X30013Y1713D01*
G01X29996Y1736D01*
G01X29978Y1758D01*
G01X29958Y1778D01*
G01X29936Y1796D01*
G01X29913Y1813D01*
G01X29889Y1828D01*
G01X29864Y1841D01*
G01X29838Y1853D01*
G01X29811Y1862D01*
G01X29784Y1869D01*
G01X29756Y1875D01*
G01X29728Y1878D01*
G37*
G36*
G01X4628Y16878D02*
G01X4599Y16879D01*
G01X4571Y16878D01*
G01X4543Y16875D01*
G01X4515Y16869D01*
G01X4488Y16862D01*
G01X4461Y16853D01*
G01X4435Y16841D01*
G01X4410Y16828D01*
G01X4386Y16813D01*
G01X4363Y16796D01*
G01X4341Y16778D01*
G01X4321Y16757D01*
G01X4303Y16736D01*
G01X4286Y16713D01*
G01X4271Y16689D01*
G01X4258Y16664D01*
G01X4246Y16638D01*
G01X4237Y16611D01*
G01X4229Y16584D01*
G01X4224Y16556D01*
G01X4221Y16528D01*
G01X4220Y16499D01*
G01X4221Y16471D01*
G01X4224Y16443D01*
G01X4229Y16415D01*
G01X4237Y16387D01*
G01X4246Y16361D01*
G01X4258Y16335D01*
G01X4271Y16310D01*
G01X4286Y16286D01*
G01X4303Y16263D01*
G01X4321Y16241D01*
G01X4341Y16221D01*
G01X4363Y16203D01*
G01X4386Y16186D01*
G01X4410Y16171D01*
G01X4435Y16157D01*
G01X4461Y16146D01*
G01X4488Y16137D01*
G01X4515Y16129D01*
G01X4543Y16124D01*
G01X4571Y16121D01*
G01X4599Y16120D01*
G01X4628Y16121D01*
G01X4656Y16124D01*
G01X4684Y16129D01*
G01X4711Y16137D01*
G01X4738Y16146D01*
G01X4764Y16157D01*
G01X4789Y16171D01*
G01X4813Y16186D01*
G01X4836Y16203D01*
G01X4858Y16221D01*
G01X4878Y16241D01*
G01X4896Y16263D01*
G01X4913Y16286D01*
G01X4928Y16310D01*
G01X4941Y16335D01*
G01X4953Y16361D01*
G01X4962Y16387D01*
G01X4969Y16415D01*
G01X4975Y16443D01*
G01X4978Y16471D01*
G01X4979Y16499D01*
G01X4978Y16528D01*
G01X4975Y16556D01*
G01X4969Y16584D01*
G01X4962Y16611D01*
G01X4953Y16638D01*
G01X4941Y16664D01*
G01X4928Y16689D01*
G01X4913Y16713D01*
G01X4896Y16736D01*
G01X4878Y16757D01*
G01X4858Y16778D01*
G01X4836Y16796D01*
G01X4813Y16813D01*
G01X4789Y16828D01*
G01X4764Y16841D01*
G01X4738Y16853D01*
G01X4711Y16862D01*
G01X4684Y16869D01*
G01X4656Y16875D01*
G01X4628Y16878D01*
G37*
G36*
G01X17147Y11573D02*
G01X17119Y11574D01*
G01X17090Y11573D01*
G01X17062Y11570D01*
G01X17034Y11565D01*
G01X17007Y11557D01*
G01X16980Y11548D01*
G01X16954Y11536D01*
G01X16929Y11523D01*
G01X16905Y11508D01*
G01X16882Y11491D01*
G01X16861Y11473D01*
G01X16841Y11453D01*
G01X16822Y11431D01*
G01X16805Y11408D01*
G01X16790Y11384D01*
G01X16777Y11359D01*
G01X16766Y11333D01*
G01X16756Y11306D01*
G01X16749Y11279D01*
G01X16744Y11251D01*
G01X16740Y11223D01*
G01X16739Y11195D01*
G01X16740Y11166D01*
G01X16744Y11138D01*
G01X16749Y11110D01*
G01X16756Y11083D01*
G01X16766Y11056D01*
G01X16777Y11030D01*
G01X16790Y11005D01*
G01X16805Y10981D01*
G01X16822Y10958D01*
G01X16841Y10936D01*
G01X16861Y10916D01*
G01X16882Y10898D01*
G01X16905Y10881D01*
G01X16929Y10866D01*
G01X16954Y10853D01*
G01X16980Y10841D01*
G01X17007Y10832D01*
G01X17034Y10825D01*
G01X17062Y10819D01*
G01X17090Y10816D01*
G01X17119Y10815D01*
G01X17147Y10816D01*
G01X17175Y10819D01*
G01X17203Y10825D01*
G01X17231Y10832D01*
G01X17258Y10841D01*
G01X17284Y10853D01*
G01X17309Y10866D01*
G01X17333Y10881D01*
G01X17355Y10898D01*
G01X17377Y10916D01*
G01X17397Y10936D01*
G01X17416Y10958D01*
G01X17432Y10981D01*
G01X17448Y11005D01*
G01X17461Y11030D01*
G01X17472Y11056D01*
G01X17482Y11083D01*
G01X17489Y11110D01*
G01X17494Y11138D01*
G01X17497Y11166D01*
G01X17498Y11195D01*
G01X17497Y11223D01*
G01X17494Y11251D01*
G01X17489Y11279D01*
G01X17482Y11306D01*
G01X17472Y11333D01*
G01X17461Y11359D01*
G01X17448Y11384D01*
G01X17432Y11408D01*
G01X17416Y11431D01*
G01X17397Y11453D01*
G01X17377Y11473D01*
G01X17355Y11491D01*
G01X17333Y11508D01*
G01X17309Y11523D01*
G01X17284Y11536D01*
G01X17258Y11548D01*
G01X17231Y11557D01*
G01X17203Y11565D01*
G01X17175Y11570D01*
G01X17147Y11573D01*
G37*
G36*
G01X2028Y11578D02*
G01X1999Y11579D01*
G01X1971Y11578D01*
G01X1943Y11575D01*
G01X1915Y11569D01*
G01X1888Y11562D01*
G01X1861Y11553D01*
G01X1835Y11541D01*
G01X1810Y11528D01*
G01X1786Y11513D01*
G01X1763Y11496D01*
G01X1741Y11478D01*
G01X1721Y11458D01*
G01X1703Y11436D01*
G01X1686Y11413D01*
G01X1671Y11389D01*
G01X1658Y11364D01*
G01X1646Y11338D01*
G01X1637Y11311D01*
G01X1629Y11284D01*
G01X1624Y11256D01*
G01X1621Y11228D01*
G01X1620Y11199D01*
G01X1621Y11171D01*
G01X1624Y11143D01*
G01X1629Y11115D01*
G01X1637Y11088D01*
G01X1646Y11061D01*
G01X1658Y11035D01*
G01X1671Y11010D01*
G01X1686Y10986D01*
G01X1703Y10963D01*
G01X1721Y10941D01*
G01X1741Y10921D01*
G01X1763Y10903D01*
G01X1786Y10886D01*
G01X1810Y10871D01*
G01X1835Y10857D01*
G01X1861Y10846D01*
G01X1888Y10837D01*
G01X1915Y10829D01*
G01X1943Y10824D01*
G01X1971Y10821D01*
G01X1999Y10820D01*
G01X2028Y10821D01*
G01X2056Y10824D01*
G01X2084Y10829D01*
G01X2111Y10837D01*
G01X2138Y10846D01*
G01X2164Y10857D01*
G01X2189Y10871D01*
G01X2213Y10886D01*
G01X2236Y10903D01*
G01X2258Y10921D01*
G01X2278Y10941D01*
G01X2296Y10963D01*
G01X2313Y10986D01*
G01X2328Y11010D01*
G01X2341Y11035D01*
G01X2353Y11061D01*
G01X2362Y11088D01*
G01X2369Y11115D01*
G01X2375Y11143D01*
G01X2378Y11171D01*
G01X2379Y11199D01*
G01X2378Y11228D01*
G01X2375Y11256D01*
G01X2369Y11284D01*
G01X2362Y11311D01*
G01X2353Y11338D01*
G01X2341Y11364D01*
G01X2328Y11389D01*
G01X2313Y11413D01*
G01X2296Y11436D01*
G01X2278Y11458D01*
G01X2258Y11478D01*
G01X2236Y11496D01*
G01X2213Y11513D01*
G01X2189Y11528D01*
G01X2164Y11541D01*
G01X2138Y11553D01*
G01X2111Y11562D01*
G01X2084Y11569D01*
G01X2056Y11575D01*
G01X2028Y11578D01*
G37*
G36*
G01X4428Y6778D02*
G01X4400Y6779D01*
G01X4371Y6778D01*
G01X4343Y6775D01*
G01X4315Y6770D01*
G01X4288Y6762D01*
G01X4261Y6753D01*
G01X4235Y6741D01*
G01X4210Y6728D01*
G01X4186Y6713D01*
G01X4163Y6696D01*
G01X4141Y6678D01*
G01X4121Y6658D01*
G01X4103Y6636D01*
G01X4086Y6613D01*
G01X4071Y6589D01*
G01X4058Y6564D01*
G01X4046Y6538D01*
G01X4037Y6511D01*
G01X4030Y6484D01*
G01X4024Y6456D01*
G01X4021Y6428D01*
G01X4020Y6400D01*
G01X4021Y6371D01*
G01X4024Y6343D01*
G01X4030Y6315D01*
G01X4037Y6288D01*
G01X4046Y6261D01*
G01X4058Y6235D01*
G01X4071Y6210D01*
G01X4086Y6186D01*
G01X4103Y6163D01*
G01X4121Y6141D01*
G01X4141Y6121D01*
G01X4163Y6103D01*
G01X4186Y6086D01*
G01X4210Y6071D01*
G01X4235Y6058D01*
G01X4261Y6046D01*
G01X4288Y6037D01*
G01X4315Y6030D01*
G01X4343Y6024D01*
G01X4371Y6021D01*
G01X4400Y6020D01*
G01X4428Y6021D01*
G01X4456Y6024D01*
G01X4484Y6030D01*
G01X4511Y6037D01*
G01X4538Y6046D01*
G01X4564Y6058D01*
G01X4589Y6071D01*
G01X4613Y6086D01*
G01X4636Y6103D01*
G01X4658Y6121D01*
G01X4678Y6141D01*
G01X4696Y6163D01*
G01X4713Y6186D01*
G01X4728Y6210D01*
G01X4741Y6235D01*
G01X4753Y6261D01*
G01X4762Y6288D01*
G01X4770Y6315D01*
G01X4775Y6343D01*
G01X4778Y6371D01*
G01X4779Y6400D01*
G01X4778Y6428D01*
G01X4775Y6456D01*
G01X4770Y6484D01*
G01X4762Y6511D01*
G01X4753Y6538D01*
G01X4741Y6564D01*
G01X4728Y6589D01*
G01X4713Y6613D01*
G01X4696Y6636D01*
G01X4678Y6658D01*
G01X4658Y6678D01*
G01X4636Y6696D01*
G01X4613Y6713D01*
G01X4589Y6728D01*
G01X4564Y6741D01*
G01X4538Y6753D01*
G01X4511Y6762D01*
G01X4484Y6770D01*
G01X4456Y6775D01*
G01X4428Y6778D01*
G37*
G36*
G01X7578Y2028D02*
G01X7549Y2029D01*
G01X7521Y2028D01*
G01X7493Y2025D01*
G01X7465Y2019D01*
G01X7438Y2012D01*
G01X7411Y2003D01*
G01X7385Y1991D01*
G01X7360Y1978D01*
G01X7336Y1963D01*
G01X7313Y1946D01*
G01X7291Y1928D01*
G01X7271Y1908D01*
G01X7253Y1886D01*
G01X7236Y1863D01*
G01X7221Y1839D01*
G01X7207Y1814D01*
G01X7196Y1788D01*
G01X7187Y1761D01*
G01X7179Y1734D01*
G01X7174Y1706D01*
G01X7171Y1678D01*
G01X7170Y1649D01*
G01X7171Y1621D01*
G01X7174Y1593D01*
G01X7179Y1565D01*
G01X7187Y1538D01*
G01X7196Y1511D01*
G01X7207Y1485D01*
G01X7221Y1460D01*
G01X7236Y1436D01*
G01X7253Y1413D01*
G01X7271Y1391D01*
G01X7291Y1371D01*
G01X7313Y1353D01*
G01X7336Y1336D01*
G01X7360Y1321D01*
G01X7385Y1308D01*
G01X7411Y1296D01*
G01X7438Y1287D01*
G01X7465Y1279D01*
G01X7493Y1274D01*
G01X7521Y1271D01*
G01X7549Y1270D01*
G01X7578Y1271D01*
G01X7606Y1274D01*
G01X7634Y1279D01*
G01X7661Y1287D01*
G01X7688Y1296D01*
G01X7714Y1308D01*
G01X7739Y1321D01*
G01X7763Y1336D01*
G01X7786Y1353D01*
G01X7808Y1371D01*
G01X7828Y1391D01*
G01X7846Y1413D01*
G01X7863Y1436D01*
G01X7878Y1460D01*
G01X7891Y1485D01*
G01X7903Y1511D01*
G01X7912Y1538D01*
G01X7919Y1565D01*
G01X7925Y1593D01*
G01X7928Y1621D01*
G01X7929Y1649D01*
G01X7928Y1678D01*
G01X7925Y1706D01*
G01X7919Y1734D01*
G01X7912Y1761D01*
G01X7903Y1788D01*
G01X7891Y1814D01*
G01X7878Y1839D01*
G01X7863Y1863D01*
G01X7846Y1886D01*
G01X7828Y1908D01*
G01X7808Y1928D01*
G01X7786Y1946D01*
G01X7763Y1963D01*
G01X7739Y1978D01*
G01X7714Y1991D01*
G01X7688Y2003D01*
G01X7661Y2012D01*
G01X7634Y2019D01*
G01X7606Y2025D01*
G01X7578Y2028D01*
G37*
G36*
G01X9528Y7778D02*
G01X9500Y7779D01*
G01X9471Y7778D01*
G01X9443Y7775D01*
G01X9415Y7770D01*
G01X9388Y7762D01*
G01X9361Y7753D01*
G01X9335Y7741D01*
G01X9310Y7728D01*
G01X9286Y7713D01*
G01X9263Y7696D01*
G01X9241Y7678D01*
G01X9221Y7658D01*
G01X9203Y7636D01*
G01X9186Y7613D01*
G01X9171Y7589D01*
G01X9158Y7564D01*
G01X9146Y7538D01*
G01X9137Y7511D01*
G01X9130Y7484D01*
G01X9124Y7456D01*
G01X9121Y7428D01*
G01X9120Y7400D01*
G01X9121Y7371D01*
G01X9124Y7343D01*
G01X9130Y7315D01*
G01X9137Y7288D01*
G01X9146Y7261D01*
G01X9158Y7235D01*
G01X9171Y7210D01*
G01X9186Y7186D01*
G01X9203Y7163D01*
G01X9221Y7141D01*
G01X9241Y7121D01*
G01X9263Y7103D01*
G01X9286Y7086D01*
G01X9310Y7071D01*
G01X9335Y7058D01*
G01X9361Y7046D01*
G01X9388Y7037D01*
G01X9415Y7030D01*
G01X9443Y7024D01*
G01X9471Y7021D01*
G01X9500Y7020D01*
G01X9528Y7021D01*
G01X9556Y7024D01*
G01X9584Y7030D01*
G01X9611Y7037D01*
G01X9638Y7046D01*
G01X9664Y7058D01*
G01X9689Y7071D01*
G01X9713Y7086D01*
G01X9736Y7103D01*
G01X9758Y7121D01*
G01X9778Y7141D01*
G01X9796Y7163D01*
G01X9813Y7186D01*
G01X9828Y7210D01*
G01X9842Y7235D01*
G01X9853Y7261D01*
G01X9862Y7288D01*
G01X9870Y7315D01*
G01X9875Y7343D01*
G01X9878Y7371D01*
G01X9879Y7400D01*
G01X9878Y7428D01*
G01X9875Y7456D01*
G01X9870Y7484D01*
G01X9862Y7511D01*
G01X9853Y7538D01*
G01X9842Y7564D01*
G01X9828Y7589D01*
G01X9813Y7613D01*
G01X9796Y7636D01*
G01X9778Y7658D01*
G01X9758Y7678D01*
G01X9736Y7696D01*
G01X9713Y7713D01*
G01X9689Y7728D01*
G01X9664Y7741D01*
G01X9638Y7753D01*
G01X9611Y7762D01*
G01X9584Y7770D01*
G01X9556Y7775D01*
G01X9528Y7778D01*
G37*

%LPD*%
G54D11*
G01X21899Y13200D02*
G01X21899Y11198D01*
G01X18401Y7700D01*
G01X18100Y7700D01*
G54D12*
G01X15500Y8700D02*
G01X3700Y8700D01*
G01X999Y5999D01*
G54D11*
G01X17299Y7800D02*
G01X20098Y5001D01*
G01X28300Y5001D01*
G01X31800Y1501D01*
G01X10800Y15800D02*
G01X11199Y16199D01*
G01X17700Y16199D01*
G01X18100Y15800D01*
G01X16299Y8001D02*
G01X17000Y7299D01*
G01X17000Y1699D01*
G01X16200Y899D01*
G01X13098Y899D01*
G01X12301Y1699D01*
G01X13500Y1699D02*
G01X13500Y5900D01*
G01X16099Y8500D01*
G01X17700Y8500D01*
G01X17900Y8299D01*
G54D14*
G01X18100Y7700D03*
G01X17900Y8299D03*
G01X17119Y11195D03*
G01X20400Y7400D03*
G01X23450Y999D03*
G01X6500Y1700D03*
G01X5800Y1700D03*
G01X7549Y1649D03*
G01X1999Y5499D03*
G01X4599Y16499D03*
G01X15500Y8700D03*
G01X999Y5999D03*
G01X4400Y6400D03*
G01X1999Y11199D03*
G01X30999Y5100D03*
G01X12700Y9949D03*
G01X12299Y9450D03*
G01X16200Y7400D03*
G01X11500Y10299D03*
G01X9500Y7400D03*
G01X9700Y10199D03*
G01X9549Y9249D03*
G01X16299Y3499D03*
G01X16299Y2800D03*
G01X10599Y5800D03*
G01X10599Y5100D03*
G01X29699Y1499D03*
G54D15*
G01X28649Y1499D03*
G01X19749Y7401D03*
G01X19099Y7401D03*
G01X13500Y1700D03*
G01X24999Y14899D03*
G01X28999Y599D03*
G01X7700Y12999D03*
G01X17500Y14899D03*
G01X17599Y8999D03*
G01X23100Y13199D03*
G01X16899Y8999D03*
G01X31599Y13500D03*
G54D14*
G01X21900Y13199D03*
G54D15*
G01X17299Y7800D03*
G01X31800Y1499D03*
G01X16299Y7999D03*
G54D14*
G01X12299Y1700D03*
G54D15*
G01X29600Y12299D03*
G01X21400Y15800D03*
G01X27399Y13500D03*
G01X3199Y16999D03*
G01X10299Y12299D03*
G01X31049Y3100D03*
G01X30199Y13724D03*
G01X27649Y5499D03*
G01X20349Y15400D03*
G01X18100Y15800D03*
G01X6949Y9949D03*
G01X649Y12499D03*
G54D14*
G01X10800Y15800D03*
G01X15850Y10299D03*
G54D15*
G01X10649Y3750D03*
M00*
M02*
