%TF.GenerationSoftware,KiCad,Pcbnew,(5.1.6)-1*%
%TF.CreationDate,2020-10-08T19:10:47-07:00*%
%TF.ProjectId,SinESC-Multi-2.3B,53696e45-5343-42d4-9d75-6c74692d322e,2.3B*%
%TF.SameCoordinates,Original*%
%TF.FileFunction,Paste,Bot*%
%TF.FilePolarity,Positive*%
%FSLAX46Y46*%
G04 Gerber Fmt 4.6, Leading zero omitted, Abs format (unit mm)*
G04 Created by KiCad (PCBNEW (5.1.6)-1) date 2020-10-08 19:10:47*
%MOMM*%
%LPD*%
G01*
G04 APERTURE LIST*
%ADD10R,0.750000X0.500000*%
%ADD11R,1.500000X1.500000*%
%ADD12R,0.750000X0.400000*%
G04 APERTURE END LIST*
%TO.C,R12*%
G36*
G01*
X39555600Y-26876000D02*
X40744400Y-26876000D01*
G75*
G02*
X40974000Y-27105600I0J-229600D01*
G01*
X40974000Y-27794400D01*
G75*
G02*
X40744400Y-28024000I-229600J0D01*
G01*
X39555600Y-28024000D01*
G75*
G02*
X39326000Y-27794400I0J229600D01*
G01*
X39326000Y-27105600D01*
G75*
G02*
X39555600Y-26876000I229600J0D01*
G01*
G37*
G36*
G01*
X39555600Y-24076000D02*
X40744400Y-24076000D01*
G75*
G02*
X40974000Y-24305600I0J-229600D01*
G01*
X40974000Y-24994400D01*
G75*
G02*
X40744400Y-25224000I-229600J0D01*
G01*
X39555600Y-25224000D01*
G75*
G02*
X39326000Y-24994400I0J229600D01*
G01*
X39326000Y-24305600D01*
G75*
G02*
X39555600Y-24076000I229600J0D01*
G01*
G37*
%TD*%
%TO.C,C33*%
G36*
G01*
X42153000Y-20491000D02*
X42447000Y-20491000D01*
G75*
G02*
X42569000Y-20613000I0J-122000D01*
G01*
X42569000Y-20857000D01*
G75*
G02*
X42447000Y-20979000I-122000J0D01*
G01*
X42153000Y-20979000D01*
G75*
G02*
X42031000Y-20857000I0J122000D01*
G01*
X42031000Y-20613000D01*
G75*
G02*
X42153000Y-20491000I122000J0D01*
G01*
G37*
G36*
G01*
X42153000Y-19521000D02*
X42447000Y-19521000D01*
G75*
G02*
X42569000Y-19643000I0J-122000D01*
G01*
X42569000Y-19887000D01*
G75*
G02*
X42447000Y-20009000I-122000J0D01*
G01*
X42153000Y-20009000D01*
G75*
G02*
X42031000Y-19887000I0J122000D01*
G01*
X42031000Y-19643000D01*
G75*
G02*
X42153000Y-19521000I122000J0D01*
G01*
G37*
%TD*%
%TO.C,C31*%
G36*
G01*
X43203000Y-20491000D02*
X43497000Y-20491000D01*
G75*
G02*
X43619000Y-20613000I0J-122000D01*
G01*
X43619000Y-20857000D01*
G75*
G02*
X43497000Y-20979000I-122000J0D01*
G01*
X43203000Y-20979000D01*
G75*
G02*
X43081000Y-20857000I0J122000D01*
G01*
X43081000Y-20613000D01*
G75*
G02*
X43203000Y-20491000I122000J0D01*
G01*
G37*
G36*
G01*
X43203000Y-19521000D02*
X43497000Y-19521000D01*
G75*
G02*
X43619000Y-19643000I0J-122000D01*
G01*
X43619000Y-19887000D01*
G75*
G02*
X43497000Y-20009000I-122000J0D01*
G01*
X43203000Y-20009000D01*
G75*
G02*
X43081000Y-19887000I0J122000D01*
G01*
X43081000Y-19643000D01*
G75*
G02*
X43203000Y-19521000I122000J0D01*
G01*
G37*
%TD*%
%TO.C,C32*%
G36*
G01*
X44253000Y-20491000D02*
X44547000Y-20491000D01*
G75*
G02*
X44669000Y-20613000I0J-122000D01*
G01*
X44669000Y-20857000D01*
G75*
G02*
X44547000Y-20979000I-122000J0D01*
G01*
X44253000Y-20979000D01*
G75*
G02*
X44131000Y-20857000I0J122000D01*
G01*
X44131000Y-20613000D01*
G75*
G02*
X44253000Y-20491000I122000J0D01*
G01*
G37*
G36*
G01*
X44253000Y-19521000D02*
X44547000Y-19521000D01*
G75*
G02*
X44669000Y-19643000I0J-122000D01*
G01*
X44669000Y-19887000D01*
G75*
G02*
X44547000Y-20009000I-122000J0D01*
G01*
X44253000Y-20009000D01*
G75*
G02*
X44131000Y-19887000I0J122000D01*
G01*
X44131000Y-19643000D01*
G75*
G02*
X44253000Y-19521000I122000J0D01*
G01*
G37*
%TD*%
D10*
%TO.C,Q3*%
X38255000Y-17695000D03*
X38255000Y-18965000D03*
X38255000Y-20235000D03*
X38255000Y-21505000D03*
D11*
X35150000Y-18750000D03*
X35150000Y-20450000D03*
X36850000Y-18750000D03*
X36850000Y-20450000D03*
D12*
X32450000Y-17695000D03*
X32450000Y-18965000D03*
X32450000Y-20235000D03*
X32450000Y-21505000D03*
%TD*%
D10*
%TO.C,Q1*%
X31005000Y-16595000D03*
X31005000Y-17865000D03*
X31005000Y-19135000D03*
X31005000Y-20405000D03*
D11*
X27900000Y-17650000D03*
X27900000Y-19350000D03*
X29600000Y-17650000D03*
X29600000Y-19350000D03*
D12*
X25200000Y-16595000D03*
X25200000Y-17865000D03*
X25200000Y-19135000D03*
X25200000Y-20405000D03*
%TD*%
D10*
%TO.C,Q2*%
X17945000Y-19805000D03*
X17945000Y-18535000D03*
X17945000Y-17265000D03*
X17945000Y-15995000D03*
D11*
X21050000Y-18750000D03*
X21050000Y-17050000D03*
X19350000Y-18750000D03*
X19350000Y-17050000D03*
D12*
X23750000Y-19805000D03*
X23750000Y-18535000D03*
X23750000Y-17265000D03*
X23750000Y-15995000D03*
%TD*%
D10*
%TO.C,Q4*%
X32445000Y-27305000D03*
X32445000Y-26035000D03*
X32445000Y-24765000D03*
X32445000Y-23495000D03*
D11*
X35550000Y-26250000D03*
X35550000Y-24550000D03*
X33850000Y-26250000D03*
X33850000Y-24550000D03*
D12*
X38250000Y-27305000D03*
X38250000Y-26035000D03*
X38250000Y-24765000D03*
X38250000Y-23495000D03*
%TD*%
D10*
%TO.C,Q5*%
X31005000Y-24595000D03*
X31005000Y-25865000D03*
X31005000Y-27135000D03*
X31005000Y-28405000D03*
D11*
X27900000Y-25650000D03*
X27900000Y-27350000D03*
X29600000Y-25650000D03*
X29600000Y-27350000D03*
D12*
X25200000Y-24595000D03*
X25200000Y-25865000D03*
X25200000Y-27135000D03*
X25200000Y-28405000D03*
%TD*%
D10*
%TO.C,Q6*%
X17945000Y-28405000D03*
X17945000Y-27135000D03*
X17945000Y-25865000D03*
X17945000Y-24595000D03*
D11*
X21050000Y-27350000D03*
X21050000Y-25650000D03*
X19350000Y-27350000D03*
X19350000Y-25650000D03*
D12*
X23750000Y-28405000D03*
X23750000Y-27135000D03*
X23750000Y-25865000D03*
X23750000Y-24595000D03*
%TD*%
%TO.C,R3*%
G36*
G01*
X40744400Y-18224000D02*
X39555600Y-18224000D01*
G75*
G02*
X39326000Y-17994400I0J229600D01*
G01*
X39326000Y-17305600D01*
G75*
G02*
X39555600Y-17076000I229600J0D01*
G01*
X40744400Y-17076000D01*
G75*
G02*
X40974000Y-17305600I0J-229600D01*
G01*
X40974000Y-17994400D01*
G75*
G02*
X40744400Y-18224000I-229600J0D01*
G01*
G37*
G36*
G01*
X40744400Y-21024000D02*
X39555600Y-21024000D01*
G75*
G02*
X39326000Y-20794400I0J229600D01*
G01*
X39326000Y-20105600D01*
G75*
G02*
X39555600Y-19876000I229600J0D01*
G01*
X40744400Y-19876000D01*
G75*
G02*
X40974000Y-20105600I0J-229600D01*
G01*
X40974000Y-20794400D01*
G75*
G02*
X40744400Y-21024000I-229600J0D01*
G01*
G37*
%TD*%
%TO.C,R7*%
G36*
G01*
X40474000Y-21955600D02*
X40474000Y-23144400D01*
G75*
G02*
X40244400Y-23374000I-229600J0D01*
G01*
X39555600Y-23374000D01*
G75*
G02*
X39326000Y-23144400I0J229600D01*
G01*
X39326000Y-21955600D01*
G75*
G02*
X39555600Y-21726000I229600J0D01*
G01*
X40244400Y-21726000D01*
G75*
G02*
X40474000Y-21955600I0J-229600D01*
G01*
G37*
G36*
G01*
X43274000Y-21955600D02*
X43274000Y-23144400D01*
G75*
G02*
X43044400Y-23374000I-229600J0D01*
G01*
X42355600Y-23374000D01*
G75*
G02*
X42126000Y-23144400I0J229600D01*
G01*
X42126000Y-21955600D01*
G75*
G02*
X42355600Y-21726000I229600J0D01*
G01*
X43044400Y-21726000D01*
G75*
G02*
X43274000Y-21955600I0J-229600D01*
G01*
G37*
%TD*%
M02*
