%TF.GenerationSoftware,KiCad,Pcbnew,(5.1.6)-1*%
%TF.CreationDate,2020-09-03T16:30:16-07:00*%
%TF.ProjectId,SinESC-Multi-2.3B,53696e45-5343-42d4-9d75-6c74692d322e,1.0A*%
%TF.SameCoordinates,Original*%
%TF.FileFunction,Paste,Top*%
%TF.FilePolarity,Positive*%
%FSLAX46Y46*%
G04 Gerber Fmt 4.6, Leading zero omitted, Abs format (unit mm)*
G04 Created by KiCad (PCBNEW (5.1.6)-1) date 2020-09-03 16:30:16*
%MOMM*%
%LPD*%
G01*
G04 APERTURE LIST*
%ADD10C,0.152400*%
%ADD11R,0.480000X0.480000*%
%ADD12R,0.900000X0.900000*%
%ADD13R,0.360000X0.420000*%
%ADD14R,0.390000X0.636000*%
%ADD15R,2.453640X2.453640*%
%ADD16R,0.457200X0.152400*%
%ADD17R,0.152400X0.457200*%
%ADD18R,1.140000X0.240000*%
G04 APERTURE END LIST*
D10*
%TO.C,U4*%
X19555300Y-23944700D02*
X20718434Y-23944700D01*
X20718434Y-23944700D02*
X20718434Y-22781566D01*
X20718434Y-22781566D02*
X19555300Y-22781566D01*
X19555300Y-22781566D02*
X19555300Y-23944700D01*
X20918433Y-23944700D02*
X22081567Y-23944700D01*
X22081567Y-23944700D02*
X22081567Y-22781566D01*
X22081567Y-22781566D02*
X20918433Y-22781566D01*
X20918433Y-22781566D02*
X20918433Y-23944700D01*
X22281566Y-23944700D02*
X23444700Y-23944700D01*
X23444700Y-23944700D02*
X23444700Y-22781566D01*
X23444700Y-22781566D02*
X22281566Y-22781566D01*
X22281566Y-22781566D02*
X22281566Y-23944700D01*
X19555300Y-22581567D02*
X20718434Y-22581567D01*
X20718434Y-22581567D02*
X20718434Y-21418433D01*
X20718434Y-21418433D02*
X19555300Y-21418433D01*
X19555300Y-21418433D02*
X19555300Y-22581567D01*
X20918433Y-22581567D02*
X22081567Y-22581567D01*
X22081567Y-22581567D02*
X22081567Y-21418433D01*
X22081567Y-21418433D02*
X20918433Y-21418433D01*
X20918433Y-21418433D02*
X20918433Y-22581567D01*
X22281566Y-22581567D02*
X23444700Y-22581567D01*
X23444700Y-22581567D02*
X23444700Y-21418433D01*
X23444700Y-21418433D02*
X22281566Y-21418433D01*
X22281566Y-21418433D02*
X22281566Y-22581567D01*
X19555300Y-21218434D02*
X20718434Y-21218434D01*
X20718434Y-21218434D02*
X20718434Y-20055300D01*
X20718434Y-20055300D02*
X19555300Y-20055300D01*
X19555300Y-20055300D02*
X19555300Y-21218434D01*
X20918433Y-21218434D02*
X22081567Y-21218434D01*
X22081567Y-21218434D02*
X22081567Y-20055300D01*
X22081567Y-20055300D02*
X20918433Y-20055300D01*
X20918433Y-20055300D02*
X20918433Y-21218434D01*
X22281566Y-21218434D02*
X23444700Y-21218434D01*
X23444700Y-21218434D02*
X23444700Y-20055300D01*
X23444700Y-20055300D02*
X22281566Y-20055300D01*
X22281566Y-20055300D02*
X22281566Y-21218434D01*
%TD*%
%TO.C,L1*%
G36*
G01*
X30825000Y-27355000D02*
X30825000Y-28645000D01*
G75*
G02*
X30675000Y-28795000I-150000J0D01*
G01*
X30225000Y-28795000D01*
G75*
G02*
X30075000Y-28645000I0J150000D01*
G01*
X30075000Y-27355000D01*
G75*
G02*
X30225000Y-27205000I150000J0D01*
G01*
X30675000Y-27205000D01*
G75*
G02*
X30825000Y-27355000I0J-150000D01*
G01*
G37*
G36*
G01*
X33625000Y-27355000D02*
X33625000Y-28645000D01*
G75*
G02*
X33475000Y-28795000I-150000J0D01*
G01*
X33025000Y-28795000D01*
G75*
G02*
X32875000Y-28645000I0J150000D01*
G01*
X32875000Y-27355000D01*
G75*
G02*
X33025000Y-27205000I150000J0D01*
G01*
X33475000Y-27205000D01*
G75*
G02*
X33625000Y-27355000I0J-150000D01*
G01*
G37*
%TD*%
%TO.C,U1*%
G36*
G01*
X34040000Y-24952500D02*
X34040000Y-25747500D01*
G75*
G02*
X33995000Y-25792500I-45000J0D01*
G01*
X33905000Y-25792500D01*
G75*
G02*
X33860000Y-25747500I0J45000D01*
G01*
X33860000Y-24952500D01*
G75*
G02*
X33905000Y-24907500I45000J0D01*
G01*
X33995000Y-24907500D01*
G75*
G02*
X34040000Y-24952500I0J-45000D01*
G01*
G37*
G36*
G01*
X33540000Y-24952500D02*
X33540000Y-25747500D01*
G75*
G02*
X33495000Y-25792500I-45000J0D01*
G01*
X33405000Y-25792500D01*
G75*
G02*
X33360000Y-25747500I0J45000D01*
G01*
X33360000Y-24952500D01*
G75*
G02*
X33405000Y-24907500I45000J0D01*
G01*
X33495000Y-24907500D01*
G75*
G02*
X33540000Y-24952500I0J-45000D01*
G01*
G37*
G36*
G01*
X33040000Y-24952500D02*
X33040000Y-25747500D01*
G75*
G02*
X32995000Y-25792500I-45000J0D01*
G01*
X32905000Y-25792500D01*
G75*
G02*
X32860000Y-25747500I0J45000D01*
G01*
X32860000Y-24952500D01*
G75*
G02*
X32905000Y-24907500I45000J0D01*
G01*
X32995000Y-24907500D01*
G75*
G02*
X33040000Y-24952500I0J-45000D01*
G01*
G37*
G36*
G01*
X32540000Y-24952500D02*
X32540000Y-25747500D01*
G75*
G02*
X32495000Y-25792500I-45000J0D01*
G01*
X32405000Y-25792500D01*
G75*
G02*
X32360000Y-25747500I0J45000D01*
G01*
X32360000Y-24952500D01*
G75*
G02*
X32405000Y-24907500I45000J0D01*
G01*
X32495000Y-24907500D01*
G75*
G02*
X32540000Y-24952500I0J-45000D01*
G01*
G37*
G36*
G01*
X32040000Y-24952500D02*
X32040000Y-25747500D01*
G75*
G02*
X31995000Y-25792500I-45000J0D01*
G01*
X31905000Y-25792500D01*
G75*
G02*
X31860000Y-25747500I0J45000D01*
G01*
X31860000Y-24952500D01*
G75*
G02*
X31905000Y-24907500I45000J0D01*
G01*
X31995000Y-24907500D01*
G75*
G02*
X32040000Y-24952500I0J-45000D01*
G01*
G37*
G36*
G01*
X31540000Y-24952500D02*
X31540000Y-25747500D01*
G75*
G02*
X31495000Y-25792500I-45000J0D01*
G01*
X31405000Y-25792500D01*
G75*
G02*
X31360000Y-25747500I0J45000D01*
G01*
X31360000Y-24952500D01*
G75*
G02*
X31405000Y-24907500I45000J0D01*
G01*
X31495000Y-24907500D01*
G75*
G02*
X31540000Y-24952500I0J-45000D01*
G01*
G37*
G36*
G01*
X31040000Y-24952500D02*
X31040000Y-25747500D01*
G75*
G02*
X30995000Y-25792500I-45000J0D01*
G01*
X30905000Y-25792500D01*
G75*
G02*
X30860000Y-25747500I0J45000D01*
G01*
X30860000Y-24952500D01*
G75*
G02*
X30905000Y-24907500I45000J0D01*
G01*
X30995000Y-24907500D01*
G75*
G02*
X31040000Y-24952500I0J-45000D01*
G01*
G37*
G36*
G01*
X30540000Y-24952500D02*
X30540000Y-25747500D01*
G75*
G02*
X30495000Y-25792500I-45000J0D01*
G01*
X30405000Y-25792500D01*
G75*
G02*
X30360000Y-25747500I0J45000D01*
G01*
X30360000Y-24952500D01*
G75*
G02*
X30405000Y-24907500I45000J0D01*
G01*
X30495000Y-24907500D01*
G75*
G02*
X30540000Y-24952500I0J-45000D01*
G01*
G37*
G36*
G01*
X30040000Y-24952500D02*
X30040000Y-25747500D01*
G75*
G02*
X29995000Y-25792500I-45000J0D01*
G01*
X29905000Y-25792500D01*
G75*
G02*
X29860000Y-25747500I0J45000D01*
G01*
X29860000Y-24952500D01*
G75*
G02*
X29905000Y-24907500I45000J0D01*
G01*
X29995000Y-24907500D01*
G75*
G02*
X30040000Y-24952500I0J-45000D01*
G01*
G37*
G36*
G01*
X29540000Y-24952500D02*
X29540000Y-25747500D01*
G75*
G02*
X29495000Y-25792500I-45000J0D01*
G01*
X29405000Y-25792500D01*
G75*
G02*
X29360000Y-25747500I0J45000D01*
G01*
X29360000Y-24952500D01*
G75*
G02*
X29405000Y-24907500I45000J0D01*
G01*
X29495000Y-24907500D01*
G75*
G02*
X29540000Y-24952500I0J-45000D01*
G01*
G37*
G36*
G01*
X29040000Y-24952500D02*
X29040000Y-25747500D01*
G75*
G02*
X28995000Y-25792500I-45000J0D01*
G01*
X28905000Y-25792500D01*
G75*
G02*
X28860000Y-25747500I0J45000D01*
G01*
X28860000Y-24952500D01*
G75*
G02*
X28905000Y-24907500I45000J0D01*
G01*
X28995000Y-24907500D01*
G75*
G02*
X29040000Y-24952500I0J-45000D01*
G01*
G37*
G36*
G01*
X28540000Y-24952500D02*
X28540000Y-25747500D01*
G75*
G02*
X28495000Y-25792500I-45000J0D01*
G01*
X28405000Y-25792500D01*
G75*
G02*
X28360000Y-25747500I0J45000D01*
G01*
X28360000Y-24952500D01*
G75*
G02*
X28405000Y-24907500I45000J0D01*
G01*
X28495000Y-24907500D01*
G75*
G02*
X28540000Y-24952500I0J-45000D01*
G01*
G37*
G36*
G01*
X27480000Y-23892500D02*
X27480000Y-23982500D01*
G75*
G02*
X27435000Y-24027500I-45000J0D01*
G01*
X26640000Y-24027500D01*
G75*
G02*
X26595000Y-23982500I0J45000D01*
G01*
X26595000Y-23892500D01*
G75*
G02*
X26640000Y-23847500I45000J0D01*
G01*
X27435000Y-23847500D01*
G75*
G02*
X27480000Y-23892500I0J-45000D01*
G01*
G37*
G36*
G01*
X27480000Y-23392500D02*
X27480000Y-23482500D01*
G75*
G02*
X27435000Y-23527500I-45000J0D01*
G01*
X26640000Y-23527500D01*
G75*
G02*
X26595000Y-23482500I0J45000D01*
G01*
X26595000Y-23392500D01*
G75*
G02*
X26640000Y-23347500I45000J0D01*
G01*
X27435000Y-23347500D01*
G75*
G02*
X27480000Y-23392500I0J-45000D01*
G01*
G37*
G36*
G01*
X27480000Y-22892500D02*
X27480000Y-22982500D01*
G75*
G02*
X27435000Y-23027500I-45000J0D01*
G01*
X26640000Y-23027500D01*
G75*
G02*
X26595000Y-22982500I0J45000D01*
G01*
X26595000Y-22892500D01*
G75*
G02*
X26640000Y-22847500I45000J0D01*
G01*
X27435000Y-22847500D01*
G75*
G02*
X27480000Y-22892500I0J-45000D01*
G01*
G37*
G36*
G01*
X27480000Y-22392500D02*
X27480000Y-22482500D01*
G75*
G02*
X27435000Y-22527500I-45000J0D01*
G01*
X26640000Y-22527500D01*
G75*
G02*
X26595000Y-22482500I0J45000D01*
G01*
X26595000Y-22392500D01*
G75*
G02*
X26640000Y-22347500I45000J0D01*
G01*
X27435000Y-22347500D01*
G75*
G02*
X27480000Y-22392500I0J-45000D01*
G01*
G37*
G36*
G01*
X27480000Y-21892500D02*
X27480000Y-21982500D01*
G75*
G02*
X27435000Y-22027500I-45000J0D01*
G01*
X26640000Y-22027500D01*
G75*
G02*
X26595000Y-21982500I0J45000D01*
G01*
X26595000Y-21892500D01*
G75*
G02*
X26640000Y-21847500I45000J0D01*
G01*
X27435000Y-21847500D01*
G75*
G02*
X27480000Y-21892500I0J-45000D01*
G01*
G37*
G36*
G01*
X27480000Y-21392500D02*
X27480000Y-21482500D01*
G75*
G02*
X27435000Y-21527500I-45000J0D01*
G01*
X26640000Y-21527500D01*
G75*
G02*
X26595000Y-21482500I0J45000D01*
G01*
X26595000Y-21392500D01*
G75*
G02*
X26640000Y-21347500I45000J0D01*
G01*
X27435000Y-21347500D01*
G75*
G02*
X27480000Y-21392500I0J-45000D01*
G01*
G37*
G36*
G01*
X27480000Y-20892500D02*
X27480000Y-20982500D01*
G75*
G02*
X27435000Y-21027500I-45000J0D01*
G01*
X26640000Y-21027500D01*
G75*
G02*
X26595000Y-20982500I0J45000D01*
G01*
X26595000Y-20892500D01*
G75*
G02*
X26640000Y-20847500I45000J0D01*
G01*
X27435000Y-20847500D01*
G75*
G02*
X27480000Y-20892500I0J-45000D01*
G01*
G37*
G36*
G01*
X27480000Y-20392500D02*
X27480000Y-20482500D01*
G75*
G02*
X27435000Y-20527500I-45000J0D01*
G01*
X26640000Y-20527500D01*
G75*
G02*
X26595000Y-20482500I0J45000D01*
G01*
X26595000Y-20392500D01*
G75*
G02*
X26640000Y-20347500I45000J0D01*
G01*
X27435000Y-20347500D01*
G75*
G02*
X27480000Y-20392500I0J-45000D01*
G01*
G37*
G36*
G01*
X27480000Y-19892500D02*
X27480000Y-19982500D01*
G75*
G02*
X27435000Y-20027500I-45000J0D01*
G01*
X26640000Y-20027500D01*
G75*
G02*
X26595000Y-19982500I0J45000D01*
G01*
X26595000Y-19892500D01*
G75*
G02*
X26640000Y-19847500I45000J0D01*
G01*
X27435000Y-19847500D01*
G75*
G02*
X27480000Y-19892500I0J-45000D01*
G01*
G37*
G36*
G01*
X27480000Y-19392500D02*
X27480000Y-19482500D01*
G75*
G02*
X27435000Y-19527500I-45000J0D01*
G01*
X26640000Y-19527500D01*
G75*
G02*
X26595000Y-19482500I0J45000D01*
G01*
X26595000Y-19392500D01*
G75*
G02*
X26640000Y-19347500I45000J0D01*
G01*
X27435000Y-19347500D01*
G75*
G02*
X27480000Y-19392500I0J-45000D01*
G01*
G37*
G36*
G01*
X27480000Y-18892500D02*
X27480000Y-18982500D01*
G75*
G02*
X27435000Y-19027500I-45000J0D01*
G01*
X26640000Y-19027500D01*
G75*
G02*
X26595000Y-18982500I0J45000D01*
G01*
X26595000Y-18892500D01*
G75*
G02*
X26640000Y-18847500I45000J0D01*
G01*
X27435000Y-18847500D01*
G75*
G02*
X27480000Y-18892500I0J-45000D01*
G01*
G37*
G36*
G01*
X27480000Y-18392500D02*
X27480000Y-18482500D01*
G75*
G02*
X27435000Y-18527500I-45000J0D01*
G01*
X26640000Y-18527500D01*
G75*
G02*
X26595000Y-18482500I0J45000D01*
G01*
X26595000Y-18392500D01*
G75*
G02*
X26640000Y-18347500I45000J0D01*
G01*
X27435000Y-18347500D01*
G75*
G02*
X27480000Y-18392500I0J-45000D01*
G01*
G37*
G36*
G01*
X28540000Y-16627500D02*
X28540000Y-17422500D01*
G75*
G02*
X28495000Y-17467500I-45000J0D01*
G01*
X28405000Y-17467500D01*
G75*
G02*
X28360000Y-17422500I0J45000D01*
G01*
X28360000Y-16627500D01*
G75*
G02*
X28405000Y-16582500I45000J0D01*
G01*
X28495000Y-16582500D01*
G75*
G02*
X28540000Y-16627500I0J-45000D01*
G01*
G37*
G36*
G01*
X29040000Y-16627500D02*
X29040000Y-17422500D01*
G75*
G02*
X28995000Y-17467500I-45000J0D01*
G01*
X28905000Y-17467500D01*
G75*
G02*
X28860000Y-17422500I0J45000D01*
G01*
X28860000Y-16627500D01*
G75*
G02*
X28905000Y-16582500I45000J0D01*
G01*
X28995000Y-16582500D01*
G75*
G02*
X29040000Y-16627500I0J-45000D01*
G01*
G37*
G36*
G01*
X29540000Y-16627500D02*
X29540000Y-17422500D01*
G75*
G02*
X29495000Y-17467500I-45000J0D01*
G01*
X29405000Y-17467500D01*
G75*
G02*
X29360000Y-17422500I0J45000D01*
G01*
X29360000Y-16627500D01*
G75*
G02*
X29405000Y-16582500I45000J0D01*
G01*
X29495000Y-16582500D01*
G75*
G02*
X29540000Y-16627500I0J-45000D01*
G01*
G37*
G36*
G01*
X30040000Y-16627500D02*
X30040000Y-17422500D01*
G75*
G02*
X29995000Y-17467500I-45000J0D01*
G01*
X29905000Y-17467500D01*
G75*
G02*
X29860000Y-17422500I0J45000D01*
G01*
X29860000Y-16627500D01*
G75*
G02*
X29905000Y-16582500I45000J0D01*
G01*
X29995000Y-16582500D01*
G75*
G02*
X30040000Y-16627500I0J-45000D01*
G01*
G37*
G36*
G01*
X30540000Y-16627500D02*
X30540000Y-17422500D01*
G75*
G02*
X30495000Y-17467500I-45000J0D01*
G01*
X30405000Y-17467500D01*
G75*
G02*
X30360000Y-17422500I0J45000D01*
G01*
X30360000Y-16627500D01*
G75*
G02*
X30405000Y-16582500I45000J0D01*
G01*
X30495000Y-16582500D01*
G75*
G02*
X30540000Y-16627500I0J-45000D01*
G01*
G37*
G36*
G01*
X31040000Y-16627500D02*
X31040000Y-17422500D01*
G75*
G02*
X30995000Y-17467500I-45000J0D01*
G01*
X30905000Y-17467500D01*
G75*
G02*
X30860000Y-17422500I0J45000D01*
G01*
X30860000Y-16627500D01*
G75*
G02*
X30905000Y-16582500I45000J0D01*
G01*
X30995000Y-16582500D01*
G75*
G02*
X31040000Y-16627500I0J-45000D01*
G01*
G37*
G36*
G01*
X31540000Y-16627500D02*
X31540000Y-17422500D01*
G75*
G02*
X31495000Y-17467500I-45000J0D01*
G01*
X31405000Y-17467500D01*
G75*
G02*
X31360000Y-17422500I0J45000D01*
G01*
X31360000Y-16627500D01*
G75*
G02*
X31405000Y-16582500I45000J0D01*
G01*
X31495000Y-16582500D01*
G75*
G02*
X31540000Y-16627500I0J-45000D01*
G01*
G37*
G36*
G01*
X32040000Y-16627500D02*
X32040000Y-17422500D01*
G75*
G02*
X31995000Y-17467500I-45000J0D01*
G01*
X31905000Y-17467500D01*
G75*
G02*
X31860000Y-17422500I0J45000D01*
G01*
X31860000Y-16627500D01*
G75*
G02*
X31905000Y-16582500I45000J0D01*
G01*
X31995000Y-16582500D01*
G75*
G02*
X32040000Y-16627500I0J-45000D01*
G01*
G37*
G36*
G01*
X32540000Y-16627500D02*
X32540000Y-17422500D01*
G75*
G02*
X32495000Y-17467500I-45000J0D01*
G01*
X32405000Y-17467500D01*
G75*
G02*
X32360000Y-17422500I0J45000D01*
G01*
X32360000Y-16627500D01*
G75*
G02*
X32405000Y-16582500I45000J0D01*
G01*
X32495000Y-16582500D01*
G75*
G02*
X32540000Y-16627500I0J-45000D01*
G01*
G37*
G36*
G01*
X33040000Y-16627500D02*
X33040000Y-17422500D01*
G75*
G02*
X32995000Y-17467500I-45000J0D01*
G01*
X32905000Y-17467500D01*
G75*
G02*
X32860000Y-17422500I0J45000D01*
G01*
X32860000Y-16627500D01*
G75*
G02*
X32905000Y-16582500I45000J0D01*
G01*
X32995000Y-16582500D01*
G75*
G02*
X33040000Y-16627500I0J-45000D01*
G01*
G37*
G36*
G01*
X33540000Y-16627500D02*
X33540000Y-17422500D01*
G75*
G02*
X33495000Y-17467500I-45000J0D01*
G01*
X33405000Y-17467500D01*
G75*
G02*
X33360000Y-17422500I0J45000D01*
G01*
X33360000Y-16627500D01*
G75*
G02*
X33405000Y-16582500I45000J0D01*
G01*
X33495000Y-16582500D01*
G75*
G02*
X33540000Y-16627500I0J-45000D01*
G01*
G37*
G36*
G01*
X34040000Y-16627500D02*
X34040000Y-17422500D01*
G75*
G02*
X33995000Y-17467500I-45000J0D01*
G01*
X33905000Y-17467500D01*
G75*
G02*
X33860000Y-17422500I0J45000D01*
G01*
X33860000Y-16627500D01*
G75*
G02*
X33905000Y-16582500I45000J0D01*
G01*
X33995000Y-16582500D01*
G75*
G02*
X34040000Y-16627500I0J-45000D01*
G01*
G37*
G36*
G01*
X35805000Y-18392500D02*
X35805000Y-18482500D01*
G75*
G02*
X35760000Y-18527500I-45000J0D01*
G01*
X34965000Y-18527500D01*
G75*
G02*
X34920000Y-18482500I0J45000D01*
G01*
X34920000Y-18392500D01*
G75*
G02*
X34965000Y-18347500I45000J0D01*
G01*
X35760000Y-18347500D01*
G75*
G02*
X35805000Y-18392500I0J-45000D01*
G01*
G37*
G36*
G01*
X35805000Y-18892500D02*
X35805000Y-18982500D01*
G75*
G02*
X35760000Y-19027500I-45000J0D01*
G01*
X34965000Y-19027500D01*
G75*
G02*
X34920000Y-18982500I0J45000D01*
G01*
X34920000Y-18892500D01*
G75*
G02*
X34965000Y-18847500I45000J0D01*
G01*
X35760000Y-18847500D01*
G75*
G02*
X35805000Y-18892500I0J-45000D01*
G01*
G37*
G36*
G01*
X35805000Y-19392500D02*
X35805000Y-19482500D01*
G75*
G02*
X35760000Y-19527500I-45000J0D01*
G01*
X34965000Y-19527500D01*
G75*
G02*
X34920000Y-19482500I0J45000D01*
G01*
X34920000Y-19392500D01*
G75*
G02*
X34965000Y-19347500I45000J0D01*
G01*
X35760000Y-19347500D01*
G75*
G02*
X35805000Y-19392500I0J-45000D01*
G01*
G37*
G36*
G01*
X35805000Y-19892500D02*
X35805000Y-19982500D01*
G75*
G02*
X35760000Y-20027500I-45000J0D01*
G01*
X34965000Y-20027500D01*
G75*
G02*
X34920000Y-19982500I0J45000D01*
G01*
X34920000Y-19892500D01*
G75*
G02*
X34965000Y-19847500I45000J0D01*
G01*
X35760000Y-19847500D01*
G75*
G02*
X35805000Y-19892500I0J-45000D01*
G01*
G37*
G36*
G01*
X35805000Y-20392500D02*
X35805000Y-20482500D01*
G75*
G02*
X35760000Y-20527500I-45000J0D01*
G01*
X34965000Y-20527500D01*
G75*
G02*
X34920000Y-20482500I0J45000D01*
G01*
X34920000Y-20392500D01*
G75*
G02*
X34965000Y-20347500I45000J0D01*
G01*
X35760000Y-20347500D01*
G75*
G02*
X35805000Y-20392500I0J-45000D01*
G01*
G37*
G36*
G01*
X35805000Y-20892500D02*
X35805000Y-20982500D01*
G75*
G02*
X35760000Y-21027500I-45000J0D01*
G01*
X34965000Y-21027500D01*
G75*
G02*
X34920000Y-20982500I0J45000D01*
G01*
X34920000Y-20892500D01*
G75*
G02*
X34965000Y-20847500I45000J0D01*
G01*
X35760000Y-20847500D01*
G75*
G02*
X35805000Y-20892500I0J-45000D01*
G01*
G37*
G36*
G01*
X35805000Y-21392500D02*
X35805000Y-21482500D01*
G75*
G02*
X35760000Y-21527500I-45000J0D01*
G01*
X34965000Y-21527500D01*
G75*
G02*
X34920000Y-21482500I0J45000D01*
G01*
X34920000Y-21392500D01*
G75*
G02*
X34965000Y-21347500I45000J0D01*
G01*
X35760000Y-21347500D01*
G75*
G02*
X35805000Y-21392500I0J-45000D01*
G01*
G37*
G36*
G01*
X35805000Y-21892500D02*
X35805000Y-21982500D01*
G75*
G02*
X35760000Y-22027500I-45000J0D01*
G01*
X34965000Y-22027500D01*
G75*
G02*
X34920000Y-21982500I0J45000D01*
G01*
X34920000Y-21892500D01*
G75*
G02*
X34965000Y-21847500I45000J0D01*
G01*
X35760000Y-21847500D01*
G75*
G02*
X35805000Y-21892500I0J-45000D01*
G01*
G37*
G36*
G01*
X35805000Y-22392500D02*
X35805000Y-22482500D01*
G75*
G02*
X35760000Y-22527500I-45000J0D01*
G01*
X34965000Y-22527500D01*
G75*
G02*
X34920000Y-22482500I0J45000D01*
G01*
X34920000Y-22392500D01*
G75*
G02*
X34965000Y-22347500I45000J0D01*
G01*
X35760000Y-22347500D01*
G75*
G02*
X35805000Y-22392500I0J-45000D01*
G01*
G37*
G36*
G01*
X35805000Y-22892500D02*
X35805000Y-22982500D01*
G75*
G02*
X35760000Y-23027500I-45000J0D01*
G01*
X34965000Y-23027500D01*
G75*
G02*
X34920000Y-22982500I0J45000D01*
G01*
X34920000Y-22892500D01*
G75*
G02*
X34965000Y-22847500I45000J0D01*
G01*
X35760000Y-22847500D01*
G75*
G02*
X35805000Y-22892500I0J-45000D01*
G01*
G37*
G36*
G01*
X35805000Y-23392500D02*
X35805000Y-23482500D01*
G75*
G02*
X35760000Y-23527500I-45000J0D01*
G01*
X34965000Y-23527500D01*
G75*
G02*
X34920000Y-23482500I0J45000D01*
G01*
X34920000Y-23392500D01*
G75*
G02*
X34965000Y-23347500I45000J0D01*
G01*
X35760000Y-23347500D01*
G75*
G02*
X35805000Y-23392500I0J-45000D01*
G01*
G37*
G36*
G01*
X35805000Y-23892500D02*
X35805000Y-23982500D01*
G75*
G02*
X35760000Y-24027500I-45000J0D01*
G01*
X34965000Y-24027500D01*
G75*
G02*
X34920000Y-23982500I0J45000D01*
G01*
X34920000Y-23892500D01*
G75*
G02*
X34965000Y-23847500I45000J0D01*
G01*
X35760000Y-23847500D01*
G75*
G02*
X35805000Y-23892500I0J-45000D01*
G01*
G37*
%TD*%
%TO.C,R10*%
G36*
G01*
X41744000Y-24724500D02*
X41744000Y-24925500D01*
G75*
G02*
X41664500Y-25005000I-79500J0D01*
G01*
X41505500Y-25005000D01*
G75*
G02*
X41426000Y-24925500I0J79500D01*
G01*
X41426000Y-24724500D01*
G75*
G02*
X41505500Y-24645000I79500J0D01*
G01*
X41664500Y-24645000D01*
G75*
G02*
X41744000Y-24724500I0J-79500D01*
G01*
G37*
G36*
G01*
X42434000Y-24724500D02*
X42434000Y-24925500D01*
G75*
G02*
X42354500Y-25005000I-79500J0D01*
G01*
X42195500Y-25005000D01*
G75*
G02*
X42116000Y-24925500I0J79500D01*
G01*
X42116000Y-24724500D01*
G75*
G02*
X42195500Y-24645000I79500J0D01*
G01*
X42354500Y-24645000D01*
G75*
G02*
X42434000Y-24724500I0J-79500D01*
G01*
G37*
%TD*%
%TO.C,C6*%
G36*
G01*
X35564000Y-17499500D02*
X35564000Y-17700500D01*
G75*
G02*
X35484500Y-17780000I-79500J0D01*
G01*
X35325500Y-17780000D01*
G75*
G02*
X35246000Y-17700500I0J79500D01*
G01*
X35246000Y-17499500D01*
G75*
G02*
X35325500Y-17420000I79500J0D01*
G01*
X35484500Y-17420000D01*
G75*
G02*
X35564000Y-17499500I0J-79500D01*
G01*
G37*
G36*
G01*
X36254000Y-17499500D02*
X36254000Y-17700500D01*
G75*
G02*
X36174500Y-17780000I-79500J0D01*
G01*
X36015500Y-17780000D01*
G75*
G02*
X35936000Y-17700500I0J79500D01*
G01*
X35936000Y-17499500D01*
G75*
G02*
X36015500Y-17420000I79500J0D01*
G01*
X36174500Y-17420000D01*
G75*
G02*
X36254000Y-17499500I0J-79500D01*
G01*
G37*
%TD*%
%TO.C,C21*%
G36*
G01*
X20375000Y-16896250D02*
X20375000Y-17203750D01*
G75*
G02*
X20243750Y-17335000I-131250J0D01*
G01*
X19981250Y-17335000D01*
G75*
G02*
X19850000Y-17203750I0J131250D01*
G01*
X19850000Y-16896250D01*
G75*
G02*
X19981250Y-16765000I131250J0D01*
G01*
X20243750Y-16765000D01*
G75*
G02*
X20375000Y-16896250I0J-131250D01*
G01*
G37*
G36*
G01*
X21950000Y-16896250D02*
X21950000Y-17203750D01*
G75*
G02*
X21818750Y-17335000I-131250J0D01*
G01*
X21556250Y-17335000D01*
G75*
G02*
X21425000Y-17203750I0J131250D01*
G01*
X21425000Y-16896250D01*
G75*
G02*
X21556250Y-16765000I131250J0D01*
G01*
X21818750Y-16765000D01*
G75*
G02*
X21950000Y-16896250I0J-131250D01*
G01*
G37*
%TD*%
%TO.C,C20*%
G36*
G01*
X18464000Y-17349500D02*
X18464000Y-17550500D01*
G75*
G02*
X18384500Y-17630000I-79500J0D01*
G01*
X18225500Y-17630000D01*
G75*
G02*
X18146000Y-17550500I0J79500D01*
G01*
X18146000Y-17349500D01*
G75*
G02*
X18225500Y-17270000I79500J0D01*
G01*
X18384500Y-17270000D01*
G75*
G02*
X18464000Y-17349500I0J-79500D01*
G01*
G37*
G36*
G01*
X19154000Y-17349500D02*
X19154000Y-17550500D01*
G75*
G02*
X19074500Y-17630000I-79500J0D01*
G01*
X18915500Y-17630000D01*
G75*
G02*
X18836000Y-17550500I0J79500D01*
G01*
X18836000Y-17349500D01*
G75*
G02*
X18915500Y-17270000I79500J0D01*
G01*
X19074500Y-17270000D01*
G75*
G02*
X19154000Y-17349500I0J-79500D01*
G01*
G37*
%TD*%
%TO.C,C22*%
G36*
G01*
X23025000Y-27353750D02*
X23025000Y-27046250D01*
G75*
G02*
X23156250Y-26915000I131250J0D01*
G01*
X23418750Y-26915000D01*
G75*
G02*
X23550000Y-27046250I0J-131250D01*
G01*
X23550000Y-27353750D01*
G75*
G02*
X23418750Y-27485000I-131250J0D01*
G01*
X23156250Y-27485000D01*
G75*
G02*
X23025000Y-27353750I0J131250D01*
G01*
G37*
G36*
G01*
X21450000Y-27353750D02*
X21450000Y-27046250D01*
G75*
G02*
X21581250Y-26915000I131250J0D01*
G01*
X21843750Y-26915000D01*
G75*
G02*
X21975000Y-27046250I0J-131250D01*
G01*
X21975000Y-27353750D01*
G75*
G02*
X21843750Y-27485000I-131250J0D01*
G01*
X21581250Y-27485000D01*
G75*
G02*
X21450000Y-27353750I0J131250D01*
G01*
G37*
%TD*%
%TO.C,C19*%
G36*
G01*
X20742000Y-28396500D02*
X20742000Y-28603500D01*
G75*
G02*
X20653500Y-28692000I-88500J0D01*
G01*
X20476500Y-28692000D01*
G75*
G02*
X20388000Y-28603500I0J88500D01*
G01*
X20388000Y-28396500D01*
G75*
G02*
X20476500Y-28308000I88500J0D01*
G01*
X20653500Y-28308000D01*
G75*
G02*
X20742000Y-28396500I0J-88500D01*
G01*
G37*
G36*
G01*
X21712000Y-28396500D02*
X21712000Y-28603500D01*
G75*
G02*
X21623500Y-28692000I-88500J0D01*
G01*
X21446500Y-28692000D01*
G75*
G02*
X21358000Y-28603500I0J88500D01*
G01*
X21358000Y-28396500D01*
G75*
G02*
X21446500Y-28308000I88500J0D01*
G01*
X21623500Y-28308000D01*
G75*
G02*
X21712000Y-28396500I0J-88500D01*
G01*
G37*
%TD*%
%TO.C,C17*%
G36*
G01*
X23214000Y-17349500D02*
X23214000Y-17550500D01*
G75*
G02*
X23134500Y-17630000I-79500J0D01*
G01*
X22975500Y-17630000D01*
G75*
G02*
X22896000Y-17550500I0J79500D01*
G01*
X22896000Y-17349500D01*
G75*
G02*
X22975500Y-17270000I79500J0D01*
G01*
X23134500Y-17270000D01*
G75*
G02*
X23214000Y-17349500I0J-79500D01*
G01*
G37*
G36*
G01*
X23904000Y-17349500D02*
X23904000Y-17550500D01*
G75*
G02*
X23824500Y-17630000I-79500J0D01*
G01*
X23665500Y-17630000D01*
G75*
G02*
X23586000Y-17550500I0J79500D01*
G01*
X23586000Y-17349500D01*
G75*
G02*
X23665500Y-17270000I79500J0D01*
G01*
X23824500Y-17270000D01*
G75*
G02*
X23904000Y-17349500I0J-79500D01*
G01*
G37*
%TD*%
D11*
%TO.C,TP3*%
X25900000Y-27900000D03*
%TD*%
%TO.C,TP2*%
X25900000Y-26800000D03*
%TD*%
%TO.C,TP1*%
X25900000Y-25700000D03*
%TD*%
D12*
%TO.C,J6*%
X44150000Y-22500000D03*
%TD*%
%TO.C,C1*%
G36*
G01*
X35916000Y-24900500D02*
X35916000Y-24699500D01*
G75*
G02*
X35995500Y-24620000I79500J0D01*
G01*
X36154500Y-24620000D01*
G75*
G02*
X36234000Y-24699500I0J-79500D01*
G01*
X36234000Y-24900500D01*
G75*
G02*
X36154500Y-24980000I-79500J0D01*
G01*
X35995500Y-24980000D01*
G75*
G02*
X35916000Y-24900500I0J79500D01*
G01*
G37*
G36*
G01*
X35226000Y-24900500D02*
X35226000Y-24699500D01*
G75*
G02*
X35305500Y-24620000I79500J0D01*
G01*
X35464500Y-24620000D01*
G75*
G02*
X35544000Y-24699500I0J-79500D01*
G01*
X35544000Y-24900500D01*
G75*
G02*
X35464500Y-24980000I-79500J0D01*
G01*
X35305500Y-24980000D01*
G75*
G02*
X35226000Y-24900500I0J79500D01*
G01*
G37*
%TD*%
%TO.C,C2*%
G36*
G01*
X37346000Y-20100500D02*
X37346000Y-19899500D01*
G75*
G02*
X37425500Y-19820000I79500J0D01*
G01*
X37584500Y-19820000D01*
G75*
G02*
X37664000Y-19899500I0J-79500D01*
G01*
X37664000Y-20100500D01*
G75*
G02*
X37584500Y-20180000I-79500J0D01*
G01*
X37425500Y-20180000D01*
G75*
G02*
X37346000Y-20100500I0J79500D01*
G01*
G37*
G36*
G01*
X38036000Y-20100500D02*
X38036000Y-19899500D01*
G75*
G02*
X38115500Y-19820000I79500J0D01*
G01*
X38274500Y-19820000D01*
G75*
G02*
X38354000Y-19899500I0J-79500D01*
G01*
X38354000Y-20100500D01*
G75*
G02*
X38274500Y-20180000I-79500J0D01*
G01*
X38115500Y-20180000D01*
G75*
G02*
X38036000Y-20100500I0J79500D01*
G01*
G37*
%TD*%
%TO.C,C3*%
G36*
G01*
X35306000Y-25675500D02*
X35306000Y-25474500D01*
G75*
G02*
X35385500Y-25395000I79500J0D01*
G01*
X35544500Y-25395000D01*
G75*
G02*
X35624000Y-25474500I0J-79500D01*
G01*
X35624000Y-25675500D01*
G75*
G02*
X35544500Y-25755000I-79500J0D01*
G01*
X35385500Y-25755000D01*
G75*
G02*
X35306000Y-25675500I0J79500D01*
G01*
G37*
G36*
G01*
X34616000Y-25675500D02*
X34616000Y-25474500D01*
G75*
G02*
X34695500Y-25395000I79500J0D01*
G01*
X34854500Y-25395000D01*
G75*
G02*
X34934000Y-25474500I0J-79500D01*
G01*
X34934000Y-25675500D01*
G75*
G02*
X34854500Y-25755000I-79500J0D01*
G01*
X34695500Y-25755000D01*
G75*
G02*
X34616000Y-25675500I0J79500D01*
G01*
G37*
%TD*%
%TO.C,C4*%
G36*
G01*
X27064000Y-16699500D02*
X27064000Y-16900500D01*
G75*
G02*
X26984500Y-16980000I-79500J0D01*
G01*
X26825500Y-16980000D01*
G75*
G02*
X26746000Y-16900500I0J79500D01*
G01*
X26746000Y-16699500D01*
G75*
G02*
X26825500Y-16620000I79500J0D01*
G01*
X26984500Y-16620000D01*
G75*
G02*
X27064000Y-16699500I0J-79500D01*
G01*
G37*
G36*
G01*
X27754000Y-16699500D02*
X27754000Y-16900500D01*
G75*
G02*
X27674500Y-16980000I-79500J0D01*
G01*
X27515500Y-16980000D01*
G75*
G02*
X27436000Y-16900500I0J79500D01*
G01*
X27436000Y-16699500D01*
G75*
G02*
X27515500Y-16620000I79500J0D01*
G01*
X27674500Y-16620000D01*
G75*
G02*
X27754000Y-16699500I0J-79500D01*
G01*
G37*
%TD*%
%TO.C,C5*%
G36*
G01*
X26494000Y-17499500D02*
X26494000Y-17700500D01*
G75*
G02*
X26414500Y-17780000I-79500J0D01*
G01*
X26255500Y-17780000D01*
G75*
G02*
X26176000Y-17700500I0J79500D01*
G01*
X26176000Y-17499500D01*
G75*
G02*
X26255500Y-17420000I79500J0D01*
G01*
X26414500Y-17420000D01*
G75*
G02*
X26494000Y-17499500I0J-79500D01*
G01*
G37*
G36*
G01*
X27184000Y-17499500D02*
X27184000Y-17700500D01*
G75*
G02*
X27104500Y-17780000I-79500J0D01*
G01*
X26945500Y-17780000D01*
G75*
G02*
X26866000Y-17700500I0J79500D01*
G01*
X26866000Y-17499500D01*
G75*
G02*
X26945500Y-17420000I79500J0D01*
G01*
X27104500Y-17420000D01*
G75*
G02*
X27184000Y-17499500I0J-79500D01*
G01*
G37*
%TD*%
%TO.C,C7*%
G36*
G01*
X39974500Y-17636000D02*
X40175500Y-17636000D01*
G75*
G02*
X40255000Y-17715500I0J-79500D01*
G01*
X40255000Y-17874500D01*
G75*
G02*
X40175500Y-17954000I-79500J0D01*
G01*
X39974500Y-17954000D01*
G75*
G02*
X39895000Y-17874500I0J79500D01*
G01*
X39895000Y-17715500D01*
G75*
G02*
X39974500Y-17636000I79500J0D01*
G01*
G37*
G36*
G01*
X39974500Y-16946000D02*
X40175500Y-16946000D01*
G75*
G02*
X40255000Y-17025500I0J-79500D01*
G01*
X40255000Y-17184500D01*
G75*
G02*
X40175500Y-17264000I-79500J0D01*
G01*
X39974500Y-17264000D01*
G75*
G02*
X39895000Y-17184500I0J79500D01*
G01*
X39895000Y-17025500D01*
G75*
G02*
X39974500Y-16946000I79500J0D01*
G01*
G37*
%TD*%
%TO.C,C8*%
G36*
G01*
X26494000Y-24649500D02*
X26494000Y-24850500D01*
G75*
G02*
X26414500Y-24930000I-79500J0D01*
G01*
X26255500Y-24930000D01*
G75*
G02*
X26176000Y-24850500I0J79500D01*
G01*
X26176000Y-24649500D01*
G75*
G02*
X26255500Y-24570000I79500J0D01*
G01*
X26414500Y-24570000D01*
G75*
G02*
X26494000Y-24649500I0J-79500D01*
G01*
G37*
G36*
G01*
X27184000Y-24649500D02*
X27184000Y-24850500D01*
G75*
G02*
X27104500Y-24930000I-79500J0D01*
G01*
X26945500Y-24930000D01*
G75*
G02*
X26866000Y-24850500I0J79500D01*
G01*
X26866000Y-24649500D01*
G75*
G02*
X26945500Y-24570000I79500J0D01*
G01*
X27104500Y-24570000D01*
G75*
G02*
X27184000Y-24649500I0J-79500D01*
G01*
G37*
%TD*%
%TO.C,C9*%
G36*
G01*
X27064000Y-25449500D02*
X27064000Y-25650500D01*
G75*
G02*
X26984500Y-25730000I-79500J0D01*
G01*
X26825500Y-25730000D01*
G75*
G02*
X26746000Y-25650500I0J79500D01*
G01*
X26746000Y-25449500D01*
G75*
G02*
X26825500Y-25370000I79500J0D01*
G01*
X26984500Y-25370000D01*
G75*
G02*
X27064000Y-25449500I0J-79500D01*
G01*
G37*
G36*
G01*
X27754000Y-25449500D02*
X27754000Y-25650500D01*
G75*
G02*
X27674500Y-25730000I-79500J0D01*
G01*
X27515500Y-25730000D01*
G75*
G02*
X27436000Y-25650500I0J79500D01*
G01*
X27436000Y-25449500D01*
G75*
G02*
X27515500Y-25370000I79500J0D01*
G01*
X27674500Y-25370000D01*
G75*
G02*
X27754000Y-25449500I0J-79500D01*
G01*
G37*
%TD*%
%TO.C,C10*%
G36*
G01*
X38036000Y-19300500D02*
X38036000Y-19099500D01*
G75*
G02*
X38115500Y-19020000I79500J0D01*
G01*
X38274500Y-19020000D01*
G75*
G02*
X38354000Y-19099500I0J-79500D01*
G01*
X38354000Y-19300500D01*
G75*
G02*
X38274500Y-19380000I-79500J0D01*
G01*
X38115500Y-19380000D01*
G75*
G02*
X38036000Y-19300500I0J79500D01*
G01*
G37*
G36*
G01*
X37346000Y-19300500D02*
X37346000Y-19099500D01*
G75*
G02*
X37425500Y-19020000I79500J0D01*
G01*
X37584500Y-19020000D01*
G75*
G02*
X37664000Y-19099500I0J-79500D01*
G01*
X37664000Y-19300500D01*
G75*
G02*
X37584500Y-19380000I-79500J0D01*
G01*
X37425500Y-19380000D01*
G75*
G02*
X37346000Y-19300500I0J79500D01*
G01*
G37*
%TD*%
%TO.C,C11*%
G36*
G01*
X39046500Y-19723000D02*
X39253500Y-19723000D01*
G75*
G02*
X39342000Y-19811500I0J-88500D01*
G01*
X39342000Y-19988500D01*
G75*
G02*
X39253500Y-20077000I-88500J0D01*
G01*
X39046500Y-20077000D01*
G75*
G02*
X38958000Y-19988500I0J88500D01*
G01*
X38958000Y-19811500D01*
G75*
G02*
X39046500Y-19723000I88500J0D01*
G01*
G37*
G36*
G01*
X39046500Y-18753000D02*
X39253500Y-18753000D01*
G75*
G02*
X39342000Y-18841500I0J-88500D01*
G01*
X39342000Y-19018500D01*
G75*
G02*
X39253500Y-19107000I-88500J0D01*
G01*
X39046500Y-19107000D01*
G75*
G02*
X38958000Y-19018500I0J88500D01*
G01*
X38958000Y-18841500D01*
G75*
G02*
X39046500Y-18753000I88500J0D01*
G01*
G37*
%TD*%
%TO.C,C12*%
G36*
G01*
X34964000Y-15899500D02*
X34964000Y-16100500D01*
G75*
G02*
X34884500Y-16180000I-79500J0D01*
G01*
X34725500Y-16180000D01*
G75*
G02*
X34646000Y-16100500I0J79500D01*
G01*
X34646000Y-15899500D01*
G75*
G02*
X34725500Y-15820000I79500J0D01*
G01*
X34884500Y-15820000D01*
G75*
G02*
X34964000Y-15899500I0J-79500D01*
G01*
G37*
G36*
G01*
X35654000Y-15899500D02*
X35654000Y-16100500D01*
G75*
G02*
X35574500Y-16180000I-79500J0D01*
G01*
X35415500Y-16180000D01*
G75*
G02*
X35336000Y-16100500I0J79500D01*
G01*
X35336000Y-15899500D01*
G75*
G02*
X35415500Y-15820000I79500J0D01*
G01*
X35574500Y-15820000D01*
G75*
G02*
X35654000Y-15899500I0J-79500D01*
G01*
G37*
%TD*%
%TO.C,C13*%
G36*
G01*
X38675000Y-17803750D02*
X38675000Y-17496250D01*
G75*
G02*
X38806250Y-17365000I131250J0D01*
G01*
X39068750Y-17365000D01*
G75*
G02*
X39200000Y-17496250I0J-131250D01*
G01*
X39200000Y-17803750D01*
G75*
G02*
X39068750Y-17935000I-131250J0D01*
G01*
X38806250Y-17935000D01*
G75*
G02*
X38675000Y-17803750I0J131250D01*
G01*
G37*
G36*
G01*
X37100000Y-17803750D02*
X37100000Y-17496250D01*
G75*
G02*
X37231250Y-17365000I131250J0D01*
G01*
X37493750Y-17365000D01*
G75*
G02*
X37625000Y-17496250I0J-131250D01*
G01*
X37625000Y-17803750D01*
G75*
G02*
X37493750Y-17935000I-131250J0D01*
G01*
X37231250Y-17935000D01*
G75*
G02*
X37100000Y-17803750I0J131250D01*
G01*
G37*
%TD*%
%TO.C,C14*%
G36*
G01*
X44061000Y-24150500D02*
X44061000Y-23949500D01*
G75*
G02*
X44140500Y-23870000I79500J0D01*
G01*
X44299500Y-23870000D01*
G75*
G02*
X44379000Y-23949500I0J-79500D01*
G01*
X44379000Y-24150500D01*
G75*
G02*
X44299500Y-24230000I-79500J0D01*
G01*
X44140500Y-24230000D01*
G75*
G02*
X44061000Y-24150500I0J79500D01*
G01*
G37*
G36*
G01*
X43371000Y-24150500D02*
X43371000Y-23949500D01*
G75*
G02*
X43450500Y-23870000I79500J0D01*
G01*
X43609500Y-23870000D01*
G75*
G02*
X43689000Y-23949500I0J-79500D01*
G01*
X43689000Y-24150500D01*
G75*
G02*
X43609500Y-24230000I-79500J0D01*
G01*
X43450500Y-24230000D01*
G75*
G02*
X43371000Y-24150500I0J79500D01*
G01*
G37*
%TD*%
%TO.C,C15*%
G36*
G01*
X36464000Y-15499500D02*
X36464000Y-15700500D01*
G75*
G02*
X36384500Y-15780000I-79500J0D01*
G01*
X36225500Y-15780000D01*
G75*
G02*
X36146000Y-15700500I0J79500D01*
G01*
X36146000Y-15499500D01*
G75*
G02*
X36225500Y-15420000I79500J0D01*
G01*
X36384500Y-15420000D01*
G75*
G02*
X36464000Y-15499500I0J-79500D01*
G01*
G37*
G36*
G01*
X37154000Y-15499500D02*
X37154000Y-15700500D01*
G75*
G02*
X37074500Y-15780000I-79500J0D01*
G01*
X36915500Y-15780000D01*
G75*
G02*
X36836000Y-15700500I0J79500D01*
G01*
X36836000Y-15499500D01*
G75*
G02*
X36915500Y-15420000I79500J0D01*
G01*
X37074500Y-15420000D01*
G75*
G02*
X37154000Y-15499500I0J-79500D01*
G01*
G37*
%TD*%
%TO.C,C16*%
G36*
G01*
X40950500Y-27364000D02*
X40749500Y-27364000D01*
G75*
G02*
X40670000Y-27284500I0J79500D01*
G01*
X40670000Y-27125500D01*
G75*
G02*
X40749500Y-27046000I79500J0D01*
G01*
X40950500Y-27046000D01*
G75*
G02*
X41030000Y-27125500I0J-79500D01*
G01*
X41030000Y-27284500D01*
G75*
G02*
X40950500Y-27364000I-79500J0D01*
G01*
G37*
G36*
G01*
X40950500Y-28054000D02*
X40749500Y-28054000D01*
G75*
G02*
X40670000Y-27974500I0J79500D01*
G01*
X40670000Y-27815500D01*
G75*
G02*
X40749500Y-27736000I79500J0D01*
G01*
X40950500Y-27736000D01*
G75*
G02*
X41030000Y-27815500I0J-79500D01*
G01*
X41030000Y-27974500D01*
G75*
G02*
X40950500Y-28054000I-79500J0D01*
G01*
G37*
%TD*%
%TO.C,C18*%
G36*
G01*
X23308000Y-28603500D02*
X23308000Y-28396500D01*
G75*
G02*
X23396500Y-28308000I88500J0D01*
G01*
X23573500Y-28308000D01*
G75*
G02*
X23662000Y-28396500I0J-88500D01*
G01*
X23662000Y-28603500D01*
G75*
G02*
X23573500Y-28692000I-88500J0D01*
G01*
X23396500Y-28692000D01*
G75*
G02*
X23308000Y-28603500I0J88500D01*
G01*
G37*
G36*
G01*
X22338000Y-28603500D02*
X22338000Y-28396500D01*
G75*
G02*
X22426500Y-28308000I88500J0D01*
G01*
X22603500Y-28308000D01*
G75*
G02*
X22692000Y-28396500I0J-88500D01*
G01*
X22692000Y-28603500D01*
G75*
G02*
X22603500Y-28692000I-88500J0D01*
G01*
X22426500Y-28692000D01*
G75*
G02*
X22338000Y-28603500I0J88500D01*
G01*
G37*
%TD*%
%TO.C,C23*%
G36*
G01*
X16696500Y-24808000D02*
X16903500Y-24808000D01*
G75*
G02*
X16992000Y-24896500I0J-88500D01*
G01*
X16992000Y-25073500D01*
G75*
G02*
X16903500Y-25162000I-88500J0D01*
G01*
X16696500Y-25162000D01*
G75*
G02*
X16608000Y-25073500I0J88500D01*
G01*
X16608000Y-24896500D01*
G75*
G02*
X16696500Y-24808000I88500J0D01*
G01*
G37*
G36*
G01*
X16696500Y-23838000D02*
X16903500Y-23838000D01*
G75*
G02*
X16992000Y-23926500I0J-88500D01*
G01*
X16992000Y-24103500D01*
G75*
G02*
X16903500Y-24192000I-88500J0D01*
G01*
X16696500Y-24192000D01*
G75*
G02*
X16608000Y-24103500I0J88500D01*
G01*
X16608000Y-23926500D01*
G75*
G02*
X16696500Y-23838000I88500J0D01*
G01*
G37*
%TD*%
%TO.C,C24*%
G36*
G01*
X16696500Y-22808000D02*
X16903500Y-22808000D01*
G75*
G02*
X16992000Y-22896500I0J-88500D01*
G01*
X16992000Y-23073500D01*
G75*
G02*
X16903500Y-23162000I-88500J0D01*
G01*
X16696500Y-23162000D01*
G75*
G02*
X16608000Y-23073500I0J88500D01*
G01*
X16608000Y-22896500D01*
G75*
G02*
X16696500Y-22808000I88500J0D01*
G01*
G37*
G36*
G01*
X16696500Y-21838000D02*
X16903500Y-21838000D01*
G75*
G02*
X16992000Y-21926500I0J-88500D01*
G01*
X16992000Y-22103500D01*
G75*
G02*
X16903500Y-22192000I-88500J0D01*
G01*
X16696500Y-22192000D01*
G75*
G02*
X16608000Y-22103500I0J88500D01*
G01*
X16608000Y-21926500D01*
G75*
G02*
X16696500Y-21838000I88500J0D01*
G01*
G37*
%TD*%
%TO.C,C25*%
G36*
G01*
X16903500Y-20177000D02*
X16696500Y-20177000D01*
G75*
G02*
X16608000Y-20088500I0J88500D01*
G01*
X16608000Y-19911500D01*
G75*
G02*
X16696500Y-19823000I88500J0D01*
G01*
X16903500Y-19823000D01*
G75*
G02*
X16992000Y-19911500I0J-88500D01*
G01*
X16992000Y-20088500D01*
G75*
G02*
X16903500Y-20177000I-88500J0D01*
G01*
G37*
G36*
G01*
X16903500Y-21147000D02*
X16696500Y-21147000D01*
G75*
G02*
X16608000Y-21058500I0J88500D01*
G01*
X16608000Y-20881500D01*
G75*
G02*
X16696500Y-20793000I88500J0D01*
G01*
X16903500Y-20793000D01*
G75*
G02*
X16992000Y-20881500I0J-88500D01*
G01*
X16992000Y-21058500D01*
G75*
G02*
X16903500Y-21147000I-88500J0D01*
G01*
G37*
%TD*%
%TO.C,C26*%
G36*
G01*
X19142000Y-15646500D02*
X19142000Y-15853500D01*
G75*
G02*
X19053500Y-15942000I-88500J0D01*
G01*
X18876500Y-15942000D01*
G75*
G02*
X18788000Y-15853500I0J88500D01*
G01*
X18788000Y-15646500D01*
G75*
G02*
X18876500Y-15558000I88500J0D01*
G01*
X19053500Y-15558000D01*
G75*
G02*
X19142000Y-15646500I0J-88500D01*
G01*
G37*
G36*
G01*
X20112000Y-15646500D02*
X20112000Y-15853500D01*
G75*
G02*
X20023500Y-15942000I-88500J0D01*
G01*
X19846500Y-15942000D01*
G75*
G02*
X19758000Y-15853500I0J88500D01*
G01*
X19758000Y-15646500D01*
G75*
G02*
X19846500Y-15558000I88500J0D01*
G01*
X20023500Y-15558000D01*
G75*
G02*
X20112000Y-15646500I0J-88500D01*
G01*
G37*
%TD*%
%TO.C,C27*%
G36*
G01*
X21092000Y-15646500D02*
X21092000Y-15853500D01*
G75*
G02*
X21003500Y-15942000I-88500J0D01*
G01*
X20826500Y-15942000D01*
G75*
G02*
X20738000Y-15853500I0J88500D01*
G01*
X20738000Y-15646500D01*
G75*
G02*
X20826500Y-15558000I88500J0D01*
G01*
X21003500Y-15558000D01*
G75*
G02*
X21092000Y-15646500I0J-88500D01*
G01*
G37*
G36*
G01*
X22062000Y-15646500D02*
X22062000Y-15853500D01*
G75*
G02*
X21973500Y-15942000I-88500J0D01*
G01*
X21796500Y-15942000D01*
G75*
G02*
X21708000Y-15853500I0J88500D01*
G01*
X21708000Y-15646500D01*
G75*
G02*
X21796500Y-15558000I88500J0D01*
G01*
X21973500Y-15558000D01*
G75*
G02*
X22062000Y-15646500I0J-88500D01*
G01*
G37*
%TD*%
D13*
%TO.C,D1*%
X23000000Y-16050000D03*
X24400000Y-16050000D03*
%TD*%
%TO.C,R1*%
G36*
G01*
X41004000Y-16149500D02*
X41004000Y-16350500D01*
G75*
G02*
X40924500Y-16430000I-79500J0D01*
G01*
X40765500Y-16430000D01*
G75*
G02*
X40686000Y-16350500I0J79500D01*
G01*
X40686000Y-16149500D01*
G75*
G02*
X40765500Y-16070000I79500J0D01*
G01*
X40924500Y-16070000D01*
G75*
G02*
X41004000Y-16149500I0J-79500D01*
G01*
G37*
G36*
G01*
X40314000Y-16149500D02*
X40314000Y-16350500D01*
G75*
G02*
X40234500Y-16430000I-79500J0D01*
G01*
X40075500Y-16430000D01*
G75*
G02*
X39996000Y-16350500I0J79500D01*
G01*
X39996000Y-16149500D01*
G75*
G02*
X40075500Y-16070000I79500J0D01*
G01*
X40234500Y-16070000D01*
G75*
G02*
X40314000Y-16149500I0J-79500D01*
G01*
G37*
%TD*%
%TO.C,R2*%
G36*
G01*
X35336000Y-16900500D02*
X35336000Y-16699500D01*
G75*
G02*
X35415500Y-16620000I79500J0D01*
G01*
X35574500Y-16620000D01*
G75*
G02*
X35654000Y-16699500I0J-79500D01*
G01*
X35654000Y-16900500D01*
G75*
G02*
X35574500Y-16980000I-79500J0D01*
G01*
X35415500Y-16980000D01*
G75*
G02*
X35336000Y-16900500I0J79500D01*
G01*
G37*
G36*
G01*
X34646000Y-16900500D02*
X34646000Y-16699500D01*
G75*
G02*
X34725500Y-16620000I79500J0D01*
G01*
X34884500Y-16620000D01*
G75*
G02*
X34964000Y-16699500I0J-79500D01*
G01*
X34964000Y-16900500D01*
G75*
G02*
X34884500Y-16980000I-79500J0D01*
G01*
X34725500Y-16980000D01*
G75*
G02*
X34646000Y-16900500I0J79500D01*
G01*
G37*
%TD*%
%TO.C,R4*%
G36*
G01*
X40314000Y-15374500D02*
X40314000Y-15575500D01*
G75*
G02*
X40234500Y-15655000I-79500J0D01*
G01*
X40075500Y-15655000D01*
G75*
G02*
X39996000Y-15575500I0J79500D01*
G01*
X39996000Y-15374500D01*
G75*
G02*
X40075500Y-15295000I79500J0D01*
G01*
X40234500Y-15295000D01*
G75*
G02*
X40314000Y-15374500I0J-79500D01*
G01*
G37*
G36*
G01*
X41004000Y-15374500D02*
X41004000Y-15575500D01*
G75*
G02*
X40924500Y-15655000I-79500J0D01*
G01*
X40765500Y-15655000D01*
G75*
G02*
X40686000Y-15575500I0J79500D01*
G01*
X40686000Y-15374500D01*
G75*
G02*
X40765500Y-15295000I79500J0D01*
G01*
X40924500Y-15295000D01*
G75*
G02*
X41004000Y-15374500I0J-79500D01*
G01*
G37*
%TD*%
%TO.C,R5*%
G36*
G01*
X40749500Y-17636000D02*
X40950500Y-17636000D01*
G75*
G02*
X41030000Y-17715500I0J-79500D01*
G01*
X41030000Y-17874500D01*
G75*
G02*
X40950500Y-17954000I-79500J0D01*
G01*
X40749500Y-17954000D01*
G75*
G02*
X40670000Y-17874500I0J79500D01*
G01*
X40670000Y-17715500D01*
G75*
G02*
X40749500Y-17636000I79500J0D01*
G01*
G37*
G36*
G01*
X40749500Y-16946000D02*
X40950500Y-16946000D01*
G75*
G02*
X41030000Y-17025500I0J-79500D01*
G01*
X41030000Y-17184500D01*
G75*
G02*
X40950500Y-17264000I-79500J0D01*
G01*
X40749500Y-17264000D01*
G75*
G02*
X40670000Y-17184500I0J79500D01*
G01*
X40670000Y-17025500D01*
G75*
G02*
X40749500Y-16946000I79500J0D01*
G01*
G37*
%TD*%
%TO.C,R6*%
G36*
G01*
X36836000Y-16500500D02*
X36836000Y-16299500D01*
G75*
G02*
X36915500Y-16220000I79500J0D01*
G01*
X37074500Y-16220000D01*
G75*
G02*
X37154000Y-16299500I0J-79500D01*
G01*
X37154000Y-16500500D01*
G75*
G02*
X37074500Y-16580000I-79500J0D01*
G01*
X36915500Y-16580000D01*
G75*
G02*
X36836000Y-16500500I0J79500D01*
G01*
G37*
G36*
G01*
X36146000Y-16500500D02*
X36146000Y-16299500D01*
G75*
G02*
X36225500Y-16220000I79500J0D01*
G01*
X36384500Y-16220000D01*
G75*
G02*
X36464000Y-16299500I0J-79500D01*
G01*
X36464000Y-16500500D01*
G75*
G02*
X36384500Y-16580000I-79500J0D01*
G01*
X36225500Y-16580000D01*
G75*
G02*
X36146000Y-16500500I0J79500D01*
G01*
G37*
%TD*%
%TO.C,R8*%
G36*
G01*
X40686000Y-18750500D02*
X40686000Y-18549500D01*
G75*
G02*
X40765500Y-18470000I79500J0D01*
G01*
X40924500Y-18470000D01*
G75*
G02*
X41004000Y-18549500I0J-79500D01*
G01*
X41004000Y-18750500D01*
G75*
G02*
X40924500Y-18830000I-79500J0D01*
G01*
X40765500Y-18830000D01*
G75*
G02*
X40686000Y-18750500I0J79500D01*
G01*
G37*
G36*
G01*
X39996000Y-18750500D02*
X39996000Y-18549500D01*
G75*
G02*
X40075500Y-18470000I79500J0D01*
G01*
X40234500Y-18470000D01*
G75*
G02*
X40314000Y-18549500I0J-79500D01*
G01*
X40314000Y-18750500D01*
G75*
G02*
X40234500Y-18830000I-79500J0D01*
G01*
X40075500Y-18830000D01*
G75*
G02*
X39996000Y-18750500I0J79500D01*
G01*
G37*
%TD*%
%TO.C,R9*%
G36*
G01*
X40314000Y-19324500D02*
X40314000Y-19525500D01*
G75*
G02*
X40234500Y-19605000I-79500J0D01*
G01*
X40075500Y-19605000D01*
G75*
G02*
X39996000Y-19525500I0J79500D01*
G01*
X39996000Y-19324500D01*
G75*
G02*
X40075500Y-19245000I79500J0D01*
G01*
X40234500Y-19245000D01*
G75*
G02*
X40314000Y-19324500I0J-79500D01*
G01*
G37*
G36*
G01*
X41004000Y-19324500D02*
X41004000Y-19525500D01*
G75*
G02*
X40924500Y-19605000I-79500J0D01*
G01*
X40765500Y-19605000D01*
G75*
G02*
X40686000Y-19525500I0J79500D01*
G01*
X40686000Y-19324500D01*
G75*
G02*
X40765500Y-19245000I79500J0D01*
G01*
X40924500Y-19245000D01*
G75*
G02*
X41004000Y-19324500I0J-79500D01*
G01*
G37*
%TD*%
%TO.C,R11*%
G36*
G01*
X28964000Y-15499500D02*
X28964000Y-15700500D01*
G75*
G02*
X28884500Y-15780000I-79500J0D01*
G01*
X28725500Y-15780000D01*
G75*
G02*
X28646000Y-15700500I0J79500D01*
G01*
X28646000Y-15499500D01*
G75*
G02*
X28725500Y-15420000I79500J0D01*
G01*
X28884500Y-15420000D01*
G75*
G02*
X28964000Y-15499500I0J-79500D01*
G01*
G37*
G36*
G01*
X29654000Y-15499500D02*
X29654000Y-15700500D01*
G75*
G02*
X29574500Y-15780000I-79500J0D01*
G01*
X29415500Y-15780000D01*
G75*
G02*
X29336000Y-15700500I0J79500D01*
G01*
X29336000Y-15499500D01*
G75*
G02*
X29415500Y-15420000I79500J0D01*
G01*
X29574500Y-15420000D01*
G75*
G02*
X29654000Y-15499500I0J-79500D01*
G01*
G37*
%TD*%
%TO.C,R13*%
G36*
G01*
X43214000Y-24724500D02*
X43214000Y-24925500D01*
G75*
G02*
X43134500Y-25005000I-79500J0D01*
G01*
X42975500Y-25005000D01*
G75*
G02*
X42896000Y-24925500I0J79500D01*
G01*
X42896000Y-24724500D01*
G75*
G02*
X42975500Y-24645000I79500J0D01*
G01*
X43134500Y-24645000D01*
G75*
G02*
X43214000Y-24724500I0J-79500D01*
G01*
G37*
G36*
G01*
X43904000Y-24724500D02*
X43904000Y-24925500D01*
G75*
G02*
X43824500Y-25005000I-79500J0D01*
G01*
X43665500Y-25005000D01*
G75*
G02*
X43586000Y-24925500I0J79500D01*
G01*
X43586000Y-24724500D01*
G75*
G02*
X43665500Y-24645000I79500J0D01*
G01*
X43824500Y-24645000D01*
G75*
G02*
X43904000Y-24724500I0J-79500D01*
G01*
G37*
%TD*%
%TO.C,R14*%
G36*
G01*
X44061000Y-21050500D02*
X44061000Y-20849500D01*
G75*
G02*
X44140500Y-20770000I79500J0D01*
G01*
X44299500Y-20770000D01*
G75*
G02*
X44379000Y-20849500I0J-79500D01*
G01*
X44379000Y-21050500D01*
G75*
G02*
X44299500Y-21130000I-79500J0D01*
G01*
X44140500Y-21130000D01*
G75*
G02*
X44061000Y-21050500I0J79500D01*
G01*
G37*
G36*
G01*
X43371000Y-21050500D02*
X43371000Y-20849500D01*
G75*
G02*
X43450500Y-20770000I79500J0D01*
G01*
X43609500Y-20770000D01*
G75*
G02*
X43689000Y-20849500I0J-79500D01*
G01*
X43689000Y-21050500D01*
G75*
G02*
X43609500Y-21130000I-79500J0D01*
G01*
X43450500Y-21130000D01*
G75*
G02*
X43371000Y-21050500I0J79500D01*
G01*
G37*
%TD*%
%TO.C,R17*%
G36*
G01*
X42111000Y-20275500D02*
X42111000Y-20074500D01*
G75*
G02*
X42190500Y-19995000I79500J0D01*
G01*
X42349500Y-19995000D01*
G75*
G02*
X42429000Y-20074500I0J-79500D01*
G01*
X42429000Y-20275500D01*
G75*
G02*
X42349500Y-20355000I-79500J0D01*
G01*
X42190500Y-20355000D01*
G75*
G02*
X42111000Y-20275500I0J79500D01*
G01*
G37*
G36*
G01*
X41421000Y-20275500D02*
X41421000Y-20074500D01*
G75*
G02*
X41500500Y-19995000I79500J0D01*
G01*
X41659500Y-19995000D01*
G75*
G02*
X41739000Y-20074500I0J-79500D01*
G01*
X41739000Y-20275500D01*
G75*
G02*
X41659500Y-20355000I-79500J0D01*
G01*
X41500500Y-20355000D01*
G75*
G02*
X41421000Y-20275500I0J79500D01*
G01*
G37*
%TD*%
%TO.C,R18*%
G36*
G01*
X43586000Y-20275500D02*
X43586000Y-20074500D01*
G75*
G02*
X43665500Y-19995000I79500J0D01*
G01*
X43824500Y-19995000D01*
G75*
G02*
X43904000Y-20074500I0J-79500D01*
G01*
X43904000Y-20275500D01*
G75*
G02*
X43824500Y-20355000I-79500J0D01*
G01*
X43665500Y-20355000D01*
G75*
G02*
X43586000Y-20275500I0J79500D01*
G01*
G37*
G36*
G01*
X42896000Y-20275500D02*
X42896000Y-20074500D01*
G75*
G02*
X42975500Y-19995000I79500J0D01*
G01*
X43134500Y-19995000D01*
G75*
G02*
X43214000Y-20074500I0J-79500D01*
G01*
X43214000Y-20275500D01*
G75*
G02*
X43134500Y-20355000I-79500J0D01*
G01*
X42975500Y-20355000D01*
G75*
G02*
X42896000Y-20275500I0J79500D01*
G01*
G37*
%TD*%
%TO.C,R15*%
G36*
G01*
X25564000Y-16699500D02*
X25564000Y-16900500D01*
G75*
G02*
X25484500Y-16980000I-79500J0D01*
G01*
X25325500Y-16980000D01*
G75*
G02*
X25246000Y-16900500I0J79500D01*
G01*
X25246000Y-16699500D01*
G75*
G02*
X25325500Y-16620000I79500J0D01*
G01*
X25484500Y-16620000D01*
G75*
G02*
X25564000Y-16699500I0J-79500D01*
G01*
G37*
G36*
G01*
X26254000Y-16699500D02*
X26254000Y-16900500D01*
G75*
G02*
X26174500Y-16980000I-79500J0D01*
G01*
X26015500Y-16980000D01*
G75*
G02*
X25936000Y-16900500I0J79500D01*
G01*
X25936000Y-16699500D01*
G75*
G02*
X26015500Y-16620000I79500J0D01*
G01*
X26174500Y-16620000D01*
G75*
G02*
X26254000Y-16699500I0J-79500D01*
G01*
G37*
%TD*%
%TO.C,R16*%
G36*
G01*
X25386000Y-17700500D02*
X25386000Y-17499500D01*
G75*
G02*
X25465500Y-17420000I79500J0D01*
G01*
X25624500Y-17420000D01*
G75*
G02*
X25704000Y-17499500I0J-79500D01*
G01*
X25704000Y-17700500D01*
G75*
G02*
X25624500Y-17780000I-79500J0D01*
G01*
X25465500Y-17780000D01*
G75*
G02*
X25386000Y-17700500I0J79500D01*
G01*
G37*
G36*
G01*
X24696000Y-17700500D02*
X24696000Y-17499500D01*
G75*
G02*
X24775500Y-17420000I79500J0D01*
G01*
X24934500Y-17420000D01*
G75*
G02*
X25014000Y-17499500I0J-79500D01*
G01*
X25014000Y-17700500D01*
G75*
G02*
X24934500Y-17780000I-79500J0D01*
G01*
X24775500Y-17780000D01*
G75*
G02*
X24696000Y-17700500I0J79500D01*
G01*
G37*
%TD*%
%TO.C,R19*%
G36*
G01*
X40239000Y-28649500D02*
X40239000Y-28850500D01*
G75*
G02*
X40159500Y-28930000I-79500J0D01*
G01*
X40000500Y-28930000D01*
G75*
G02*
X39921000Y-28850500I0J79500D01*
G01*
X39921000Y-28649500D01*
G75*
G02*
X40000500Y-28570000I79500J0D01*
G01*
X40159500Y-28570000D01*
G75*
G02*
X40239000Y-28649500I0J-79500D01*
G01*
G37*
G36*
G01*
X40929000Y-28649500D02*
X40929000Y-28850500D01*
G75*
G02*
X40849500Y-28930000I-79500J0D01*
G01*
X40690500Y-28930000D01*
G75*
G02*
X40611000Y-28850500I0J79500D01*
G01*
X40611000Y-28649500D01*
G75*
G02*
X40690500Y-28570000I79500J0D01*
G01*
X40849500Y-28570000D01*
G75*
G02*
X40929000Y-28649500I0J-79500D01*
G01*
G37*
%TD*%
%TO.C,R20*%
G36*
G01*
X40611000Y-29625500D02*
X40611000Y-29424500D01*
G75*
G02*
X40690500Y-29345000I79500J0D01*
G01*
X40849500Y-29345000D01*
G75*
G02*
X40929000Y-29424500I0J-79500D01*
G01*
X40929000Y-29625500D01*
G75*
G02*
X40849500Y-29705000I-79500J0D01*
G01*
X40690500Y-29705000D01*
G75*
G02*
X40611000Y-29625500I0J79500D01*
G01*
G37*
G36*
G01*
X39921000Y-29625500D02*
X39921000Y-29424500D01*
G75*
G02*
X40000500Y-29345000I79500J0D01*
G01*
X40159500Y-29345000D01*
G75*
G02*
X40239000Y-29424500I0J-79500D01*
G01*
X40239000Y-29625500D01*
G75*
G02*
X40159500Y-29705000I-79500J0D01*
G01*
X40000500Y-29705000D01*
G75*
G02*
X39921000Y-29625500I0J79500D01*
G01*
G37*
%TD*%
%TO.C,R21*%
G36*
G01*
X40175500Y-27364000D02*
X39974500Y-27364000D01*
G75*
G02*
X39895000Y-27284500I0J79500D01*
G01*
X39895000Y-27125500D01*
G75*
G02*
X39974500Y-27046000I79500J0D01*
G01*
X40175500Y-27046000D01*
G75*
G02*
X40255000Y-27125500I0J-79500D01*
G01*
X40255000Y-27284500D01*
G75*
G02*
X40175500Y-27364000I-79500J0D01*
G01*
G37*
G36*
G01*
X40175500Y-28054000D02*
X39974500Y-28054000D01*
G75*
G02*
X39895000Y-27974500I0J79500D01*
G01*
X39895000Y-27815500D01*
G75*
G02*
X39974500Y-27736000I79500J0D01*
G01*
X40175500Y-27736000D01*
G75*
G02*
X40255000Y-27815500I0J-79500D01*
G01*
X40255000Y-27974500D01*
G75*
G02*
X40175500Y-28054000I-79500J0D01*
G01*
G37*
%TD*%
%TO.C,R22*%
G36*
G01*
X40611000Y-26450500D02*
X40611000Y-26249500D01*
G75*
G02*
X40690500Y-26170000I79500J0D01*
G01*
X40849500Y-26170000D01*
G75*
G02*
X40929000Y-26249500I0J-79500D01*
G01*
X40929000Y-26450500D01*
G75*
G02*
X40849500Y-26530000I-79500J0D01*
G01*
X40690500Y-26530000D01*
G75*
G02*
X40611000Y-26450500I0J79500D01*
G01*
G37*
G36*
G01*
X39921000Y-26450500D02*
X39921000Y-26249500D01*
G75*
G02*
X40000500Y-26170000I79500J0D01*
G01*
X40159500Y-26170000D01*
G75*
G02*
X40239000Y-26249500I0J-79500D01*
G01*
X40239000Y-26450500D01*
G75*
G02*
X40159500Y-26530000I-79500J0D01*
G01*
X40000500Y-26530000D01*
G75*
G02*
X39921000Y-26450500I0J79500D01*
G01*
G37*
%TD*%
%TO.C,R23*%
G36*
G01*
X40611000Y-25675500D02*
X40611000Y-25474500D01*
G75*
G02*
X40690500Y-25395000I79500J0D01*
G01*
X40849500Y-25395000D01*
G75*
G02*
X40929000Y-25474500I0J-79500D01*
G01*
X40929000Y-25675500D01*
G75*
G02*
X40849500Y-25755000I-79500J0D01*
G01*
X40690500Y-25755000D01*
G75*
G02*
X40611000Y-25675500I0J79500D01*
G01*
G37*
G36*
G01*
X39921000Y-25675500D02*
X39921000Y-25474500D01*
G75*
G02*
X40000500Y-25395000I79500J0D01*
G01*
X40159500Y-25395000D01*
G75*
G02*
X40239000Y-25474500I0J-79500D01*
G01*
X40239000Y-25675500D01*
G75*
G02*
X40159500Y-25755000I-79500J0D01*
G01*
X40000500Y-25755000D01*
G75*
G02*
X39921000Y-25675500I0J79500D01*
G01*
G37*
%TD*%
D14*
%TO.C,U2*%
X43075000Y-18550000D03*
X44025000Y-18550000D03*
X42125000Y-18550000D03*
X42125000Y-16350000D03*
X43075000Y-16350000D03*
X44025000Y-16350000D03*
%TD*%
%TO.C,U3*%
X40350000Y-23600000D03*
X41300000Y-23600000D03*
X42250000Y-23600000D03*
X42250000Y-21400000D03*
X40350000Y-21400000D03*
X41300000Y-21400000D03*
%TD*%
D15*
%TO.C,U4*%
X21500000Y-22000000D03*
D16*
X18073400Y-24500000D03*
X18073400Y-24000001D03*
X18073400Y-23000001D03*
X18073400Y-22499999D03*
X18073400Y-22000000D03*
X18073400Y-20999999D03*
X18073400Y-20500000D03*
X18073400Y-19999999D03*
D17*
X19000000Y-18573400D03*
X19499999Y-18573400D03*
X20000000Y-18573400D03*
X21000001Y-18573400D03*
X21999999Y-18573400D03*
X23000000Y-18573400D03*
X23500001Y-18573400D03*
X24000000Y-18573400D03*
D16*
X24926600Y-19500000D03*
X24926600Y-19999999D03*
X24926600Y-20500000D03*
X24926600Y-20999999D03*
X24926600Y-21500001D03*
X24926600Y-22000000D03*
X24926600Y-22499999D03*
X24926600Y-23000001D03*
X24926600Y-23500000D03*
X24926600Y-24000001D03*
X24926600Y-24500000D03*
D17*
X24000000Y-25426600D03*
X23500001Y-25426600D03*
X23000000Y-25426600D03*
X22500001Y-25426600D03*
X21999999Y-25426600D03*
X21500000Y-25426600D03*
X21000001Y-25426600D03*
X20499999Y-25426600D03*
X20000000Y-25426600D03*
X19000000Y-25426600D03*
%TD*%
D14*
%TO.C,U5*%
X43075000Y-26450000D03*
X42125000Y-26450000D03*
X44025000Y-26450000D03*
X44025000Y-28650000D03*
X43075000Y-28650000D03*
X42125000Y-28650000D03*
%TD*%
D18*
%TO.C,Y1*%
X37850000Y-21050000D03*
X37850000Y-22250000D03*
X37850000Y-23450000D03*
%TD*%
%TO.C,C28*%
G36*
G01*
X39046500Y-25708000D02*
X39253500Y-25708000D01*
G75*
G02*
X39342000Y-25796500I0J-88500D01*
G01*
X39342000Y-25973500D01*
G75*
G02*
X39253500Y-26062000I-88500J0D01*
G01*
X39046500Y-26062000D01*
G75*
G02*
X38958000Y-25973500I0J88500D01*
G01*
X38958000Y-25796500D01*
G75*
G02*
X39046500Y-25708000I88500J0D01*
G01*
G37*
G36*
G01*
X39046500Y-24738000D02*
X39253500Y-24738000D01*
G75*
G02*
X39342000Y-24826500I0J-88500D01*
G01*
X39342000Y-25003500D01*
G75*
G02*
X39253500Y-25092000I-88500J0D01*
G01*
X39046500Y-25092000D01*
G75*
G02*
X38958000Y-25003500I0J88500D01*
G01*
X38958000Y-24826500D01*
G75*
G02*
X39046500Y-24738000I88500J0D01*
G01*
G37*
%TD*%
%TO.C,C29*%
G36*
G01*
X36988000Y-25253500D02*
X36988000Y-25046500D01*
G75*
G02*
X37076500Y-24958000I88500J0D01*
G01*
X37253500Y-24958000D01*
G75*
G02*
X37342000Y-25046500I0J-88500D01*
G01*
X37342000Y-25253500D01*
G75*
G02*
X37253500Y-25342000I-88500J0D01*
G01*
X37076500Y-25342000D01*
G75*
G02*
X36988000Y-25253500I0J88500D01*
G01*
G37*
G36*
G01*
X37958000Y-25253500D02*
X37958000Y-25046500D01*
G75*
G02*
X38046500Y-24958000I88500J0D01*
G01*
X38223500Y-24958000D01*
G75*
G02*
X38312000Y-25046500I0J-88500D01*
G01*
X38312000Y-25253500D01*
G75*
G02*
X38223500Y-25342000I-88500J0D01*
G01*
X38046500Y-25342000D01*
G75*
G02*
X37958000Y-25253500I0J88500D01*
G01*
G37*
%TD*%
%TO.C,C30*%
G36*
G01*
X34449500Y-27336000D02*
X34650500Y-27336000D01*
G75*
G02*
X34730000Y-27415500I0J-79500D01*
G01*
X34730000Y-27574500D01*
G75*
G02*
X34650500Y-27654000I-79500J0D01*
G01*
X34449500Y-27654000D01*
G75*
G02*
X34370000Y-27574500I0J79500D01*
G01*
X34370000Y-27415500D01*
G75*
G02*
X34449500Y-27336000I79500J0D01*
G01*
G37*
G36*
G01*
X34449500Y-26646000D02*
X34650500Y-26646000D01*
G75*
G02*
X34730000Y-26725500I0J-79500D01*
G01*
X34730000Y-26884500D01*
G75*
G02*
X34650500Y-26964000I-79500J0D01*
G01*
X34449500Y-26964000D01*
G75*
G02*
X34370000Y-26884500I0J79500D01*
G01*
X34370000Y-26725500D01*
G75*
G02*
X34449500Y-26646000I79500J0D01*
G01*
G37*
%TD*%
%TO.C,C34*%
G36*
G01*
X28525000Y-29353750D02*
X28525000Y-29046250D01*
G75*
G02*
X28656250Y-28915000I131250J0D01*
G01*
X28918750Y-28915000D01*
G75*
G02*
X29050000Y-29046250I0J-131250D01*
G01*
X29050000Y-29353750D01*
G75*
G02*
X28918750Y-29485000I-131250J0D01*
G01*
X28656250Y-29485000D01*
G75*
G02*
X28525000Y-29353750I0J131250D01*
G01*
G37*
G36*
G01*
X26950000Y-29353750D02*
X26950000Y-29046250D01*
G75*
G02*
X27081250Y-28915000I131250J0D01*
G01*
X27343750Y-28915000D01*
G75*
G02*
X27475000Y-29046250I0J-131250D01*
G01*
X27475000Y-29353750D01*
G75*
G02*
X27343750Y-29485000I-131250J0D01*
G01*
X27081250Y-29485000D01*
G75*
G02*
X26950000Y-29353750I0J131250D01*
G01*
G37*
%TD*%
%TO.C,C35*%
G36*
G01*
X26950000Y-27803750D02*
X26950000Y-27496250D01*
G75*
G02*
X27081250Y-27365000I131250J0D01*
G01*
X27343750Y-27365000D01*
G75*
G02*
X27475000Y-27496250I0J-131250D01*
G01*
X27475000Y-27803750D01*
G75*
G02*
X27343750Y-27935000I-131250J0D01*
G01*
X27081250Y-27935000D01*
G75*
G02*
X26950000Y-27803750I0J131250D01*
G01*
G37*
G36*
G01*
X28525000Y-27803750D02*
X28525000Y-27496250D01*
G75*
G02*
X28656250Y-27365000I131250J0D01*
G01*
X28918750Y-27365000D01*
G75*
G02*
X29050000Y-27496250I0J-131250D01*
G01*
X29050000Y-27803750D01*
G75*
G02*
X28918750Y-27935000I-131250J0D01*
G01*
X28656250Y-27935000D01*
G75*
G02*
X28525000Y-27803750I0J131250D01*
G01*
G37*
%TD*%
%TO.C,R24*%
G36*
G01*
X39150500Y-29704000D02*
X38949500Y-29704000D01*
G75*
G02*
X38870000Y-29624500I0J79500D01*
G01*
X38870000Y-29465500D01*
G75*
G02*
X38949500Y-29386000I79500J0D01*
G01*
X39150500Y-29386000D01*
G75*
G02*
X39230000Y-29465500I0J-79500D01*
G01*
X39230000Y-29624500D01*
G75*
G02*
X39150500Y-29704000I-79500J0D01*
G01*
G37*
G36*
G01*
X39150500Y-29014000D02*
X38949500Y-29014000D01*
G75*
G02*
X38870000Y-28934500I0J79500D01*
G01*
X38870000Y-28775500D01*
G75*
G02*
X38949500Y-28696000I79500J0D01*
G01*
X39150500Y-28696000D01*
G75*
G02*
X39230000Y-28775500I0J-79500D01*
G01*
X39230000Y-28934500D01*
G75*
G02*
X39150500Y-29014000I-79500J0D01*
G01*
G37*
%TD*%
%TO.C,R25*%
G36*
G01*
X34449500Y-28146000D02*
X34650500Y-28146000D01*
G75*
G02*
X34730000Y-28225500I0J-79500D01*
G01*
X34730000Y-28384500D01*
G75*
G02*
X34650500Y-28464000I-79500J0D01*
G01*
X34449500Y-28464000D01*
G75*
G02*
X34370000Y-28384500I0J79500D01*
G01*
X34370000Y-28225500D01*
G75*
G02*
X34449500Y-28146000I79500J0D01*
G01*
G37*
G36*
G01*
X34449500Y-28836000D02*
X34650500Y-28836000D01*
G75*
G02*
X34730000Y-28915500I0J-79500D01*
G01*
X34730000Y-29074500D01*
G75*
G02*
X34650500Y-29154000I-79500J0D01*
G01*
X34449500Y-29154000D01*
G75*
G02*
X34370000Y-29074500I0J79500D01*
G01*
X34370000Y-28915500D01*
G75*
G02*
X34449500Y-28836000I79500J0D01*
G01*
G37*
%TD*%
D14*
%TO.C,U6*%
X35850000Y-29000000D03*
X36800000Y-29000000D03*
X37750000Y-29000000D03*
X37750000Y-26800000D03*
X35850000Y-26800000D03*
X36800000Y-26800000D03*
%TD*%
M02*
