%TF.GenerationSoftware,KiCad,Pcbnew,(5.1.6)-1*%
%TF.CreationDate,2020-10-08T19:10:47-07:00*%
%TF.ProjectId,SinESC-Multi-2.3B,53696e45-5343-42d4-9d75-6c74692d322e,2.3B*%
%TF.SameCoordinates,Original*%
%TF.FileFunction,Copper,L4,Bot*%
%TF.FilePolarity,Positive*%
%FSLAX46Y46*%
G04 Gerber Fmt 4.6, Leading zero omitted, Abs format (unit mm)*
G04 Created by KiCad (PCBNEW (5.1.6)-1) date 2020-10-08 19:10:47*
%MOMM*%
%LPD*%
G01*
G04 APERTURE LIST*
%TA.AperFunction,Conductor*%
%ADD10R,4.550000X4.410000*%
%TD*%
%TA.AperFunction,SMDPad,CuDef*%
%ADD11R,0.850000X0.500000*%
%TD*%
%TA.AperFunction,SMDPad,CuDef*%
%ADD12R,2.000000X3.000000*%
%TD*%
%TA.AperFunction,ViaPad*%
%ADD13C,0.400000*%
%TD*%
%TA.AperFunction,Conductor*%
%ADD14C,0.750000*%
%TD*%
%TA.AperFunction,Conductor*%
%ADD15C,0.350000*%
%TD*%
%TA.AperFunction,Conductor*%
%ADD16C,0.130000*%
%TD*%
%TA.AperFunction,Conductor*%
%ADD17C,1.000000*%
%TD*%
%TA.AperFunction,Conductor*%
%ADD18C,0.300000*%
%TD*%
G04 APERTURE END LIST*
%TO.P,R12,2*%
%TO.N,SHUNT_W*%
%TA.AperFunction,SMDPad,CuDef*%
G36*
G01*
X39525000Y-26825000D02*
X40775000Y-26825000D01*
G75*
G02*
X41025000Y-27075000I0J-250000D01*
G01*
X41025000Y-27825000D01*
G75*
G02*
X40775000Y-28075000I-250000J0D01*
G01*
X39525000Y-28075000D01*
G75*
G02*
X39275000Y-27825000I0J250000D01*
G01*
X39275000Y-27075000D01*
G75*
G02*
X39525000Y-26825000I250000J0D01*
G01*
G37*
%TD.AperFunction*%
%TO.P,R12,1*%
%TO.N,Earth*%
%TA.AperFunction,SMDPad,CuDef*%
G36*
G01*
X39525000Y-24025000D02*
X40775000Y-24025000D01*
G75*
G02*
X41025000Y-24275000I0J-250000D01*
G01*
X41025000Y-25025000D01*
G75*
G02*
X40775000Y-25275000I-250000J0D01*
G01*
X39525000Y-25275000D01*
G75*
G02*
X39275000Y-25025000I0J250000D01*
G01*
X39275000Y-24275000D01*
G75*
G02*
X39525000Y-24025000I250000J0D01*
G01*
G37*
%TD.AperFunction*%
%TD*%
%TO.P,C33,2*%
%TO.N,Earth*%
%TA.AperFunction,SMDPad,CuDef*%
G36*
G01*
X42127500Y-20440000D02*
X42472500Y-20440000D01*
G75*
G02*
X42620000Y-20587500I0J-147500D01*
G01*
X42620000Y-20882500D01*
G75*
G02*
X42472500Y-21030000I-147500J0D01*
G01*
X42127500Y-21030000D01*
G75*
G02*
X41980000Y-20882500I0J147500D01*
G01*
X41980000Y-20587500D01*
G75*
G02*
X42127500Y-20440000I147500J0D01*
G01*
G37*
%TD.AperFunction*%
%TO.P,C33,1*%
%TO.N,VBUS*%
%TA.AperFunction,SMDPad,CuDef*%
G36*
G01*
X42127500Y-19470000D02*
X42472500Y-19470000D01*
G75*
G02*
X42620000Y-19617500I0J-147500D01*
G01*
X42620000Y-19912500D01*
G75*
G02*
X42472500Y-20060000I-147500J0D01*
G01*
X42127500Y-20060000D01*
G75*
G02*
X41980000Y-19912500I0J147500D01*
G01*
X41980000Y-19617500D01*
G75*
G02*
X42127500Y-19470000I147500J0D01*
G01*
G37*
%TD.AperFunction*%
%TD*%
%TO.P,C31,2*%
%TO.N,Earth*%
%TA.AperFunction,SMDPad,CuDef*%
G36*
G01*
X43177500Y-20440000D02*
X43522500Y-20440000D01*
G75*
G02*
X43670000Y-20587500I0J-147500D01*
G01*
X43670000Y-20882500D01*
G75*
G02*
X43522500Y-21030000I-147500J0D01*
G01*
X43177500Y-21030000D01*
G75*
G02*
X43030000Y-20882500I0J147500D01*
G01*
X43030000Y-20587500D01*
G75*
G02*
X43177500Y-20440000I147500J0D01*
G01*
G37*
%TD.AperFunction*%
%TO.P,C31,1*%
%TO.N,VBUS*%
%TA.AperFunction,SMDPad,CuDef*%
G36*
G01*
X43177500Y-19470000D02*
X43522500Y-19470000D01*
G75*
G02*
X43670000Y-19617500I0J-147500D01*
G01*
X43670000Y-19912500D01*
G75*
G02*
X43522500Y-20060000I-147500J0D01*
G01*
X43177500Y-20060000D01*
G75*
G02*
X43030000Y-19912500I0J147500D01*
G01*
X43030000Y-19617500D01*
G75*
G02*
X43177500Y-19470000I147500J0D01*
G01*
G37*
%TD.AperFunction*%
%TD*%
%TO.P,C32,2*%
%TO.N,Earth*%
%TA.AperFunction,SMDPad,CuDef*%
G36*
G01*
X44227500Y-20440000D02*
X44572500Y-20440000D01*
G75*
G02*
X44720000Y-20587500I0J-147500D01*
G01*
X44720000Y-20882500D01*
G75*
G02*
X44572500Y-21030000I-147500J0D01*
G01*
X44227500Y-21030000D01*
G75*
G02*
X44080000Y-20882500I0J147500D01*
G01*
X44080000Y-20587500D01*
G75*
G02*
X44227500Y-20440000I147500J0D01*
G01*
G37*
%TD.AperFunction*%
%TO.P,C32,1*%
%TO.N,VBUS*%
%TA.AperFunction,SMDPad,CuDef*%
G36*
G01*
X44227500Y-19470000D02*
X44572500Y-19470000D01*
G75*
G02*
X44720000Y-19617500I0J-147500D01*
G01*
X44720000Y-19912500D01*
G75*
G02*
X44572500Y-20060000I-147500J0D01*
G01*
X44227500Y-20060000D01*
G75*
G02*
X44080000Y-19912500I0J147500D01*
G01*
X44080000Y-19617500D01*
G75*
G02*
X44227500Y-19470000I147500J0D01*
G01*
G37*
%TD.AperFunction*%
%TD*%
D10*
%TO.N,VBUS*%
%TO.C,Q3*%
X36400000Y-19600000D03*
D11*
%TD*%
%TO.P,Q3,4*%
%TO.N,HSV*%
X32450000Y-17695000D03*
%TO.P,Q3,3*%
%TO.N,V*%
X32450000Y-18965000D03*
%TO.P,Q3,2*%
X32450000Y-20235000D03*
%TO.P,Q3,1*%
X32450000Y-21505000D03*
%TD*%
D12*
%TO.P,J5,1*%
%TO.N,Earth*%
X43900000Y-28400000D03*
%TD*%
%TO.P,J4,1*%
%TO.N,VBUS*%
X43900000Y-16600000D03*
%TD*%
%TO.P,J3,1*%
%TO.N,W*%
X16100000Y-28400000D03*
%TD*%
%TO.P,J2,1*%
%TO.N,V*%
X16100000Y-22500000D03*
%TD*%
%TO.P,J1,1*%
%TO.N,U*%
X16100000Y-16600000D03*
%TD*%
D10*
%TO.N,VBUS*%
%TO.C,Q1*%
X29150000Y-18500000D03*
D11*
%TD*%
%TO.P,Q1,4*%
%TO.N,HSU*%
X25200000Y-16595000D03*
%TO.P,Q1,3*%
%TO.N,U*%
X25200000Y-17865000D03*
%TO.P,Q1,2*%
X25200000Y-19135000D03*
%TO.P,Q1,1*%
X25200000Y-20405000D03*
%TD*%
D10*
%TO.N,U*%
%TO.C,Q2*%
X19800000Y-17900000D03*
D11*
%TD*%
%TO.P,Q2,4*%
%TO.N,LSU*%
X23750000Y-19805000D03*
%TO.P,Q2,3*%
%TO.N,SHUNT_U*%
X23750000Y-18535000D03*
%TO.P,Q2,2*%
X23750000Y-17265000D03*
%TO.P,Q2,1*%
X23750000Y-15995000D03*
%TD*%
D10*
%TO.N,V*%
%TO.C,Q4*%
X34300000Y-25400000D03*
D11*
%TD*%
%TO.P,Q4,4*%
%TO.N,LSV*%
X38250000Y-27305000D03*
%TO.P,Q4,3*%
%TO.N,SHUNT_V*%
X38250000Y-26035000D03*
%TO.P,Q4,2*%
X38250000Y-24765000D03*
%TO.P,Q4,1*%
X38250000Y-23495000D03*
%TD*%
D10*
%TO.N,VBUS*%
%TO.C,Q5*%
X29150000Y-26500000D03*
D11*
%TD*%
%TO.P,Q5,4*%
%TO.N,HSW*%
X25200000Y-24595000D03*
%TO.P,Q5,3*%
%TO.N,W*%
X25200000Y-25865000D03*
%TO.P,Q5,2*%
X25200000Y-27135000D03*
%TO.P,Q5,1*%
X25200000Y-28405000D03*
%TD*%
D10*
%TO.N,W*%
%TO.C,Q6*%
X19800000Y-26500000D03*
D11*
%TD*%
%TO.P,Q6,4*%
%TO.N,LSW*%
X23750000Y-28405000D03*
%TO.P,Q6,3*%
%TO.N,SHUNT_W*%
X23750000Y-27135000D03*
%TO.P,Q6,2*%
X23750000Y-25865000D03*
%TO.P,Q6,1*%
X23750000Y-24595000D03*
%TD*%
%TO.P,R3,2*%
%TO.N,SHUNT_U*%
%TA.AperFunction,SMDPad,CuDef*%
G36*
G01*
X40775000Y-18275000D02*
X39525000Y-18275000D01*
G75*
G02*
X39275000Y-18025000I0J250000D01*
G01*
X39275000Y-17275000D01*
G75*
G02*
X39525000Y-17025000I250000J0D01*
G01*
X40775000Y-17025000D01*
G75*
G02*
X41025000Y-17275000I0J-250000D01*
G01*
X41025000Y-18025000D01*
G75*
G02*
X40775000Y-18275000I-250000J0D01*
G01*
G37*
%TD.AperFunction*%
%TO.P,R3,1*%
%TO.N,Earth*%
%TA.AperFunction,SMDPad,CuDef*%
G36*
G01*
X40775000Y-21075000D02*
X39525000Y-21075000D01*
G75*
G02*
X39275000Y-20825000I0J250000D01*
G01*
X39275000Y-20075000D01*
G75*
G02*
X39525000Y-19825000I250000J0D01*
G01*
X40775000Y-19825000D01*
G75*
G02*
X41025000Y-20075000I0J-250000D01*
G01*
X41025000Y-20825000D01*
G75*
G02*
X40775000Y-21075000I-250000J0D01*
G01*
G37*
%TD.AperFunction*%
%TD*%
%TO.P,R7,2*%
%TO.N,SHUNT_V*%
%TA.AperFunction,SMDPad,CuDef*%
G36*
G01*
X40525000Y-21925000D02*
X40525000Y-23175000D01*
G75*
G02*
X40275000Y-23425000I-250000J0D01*
G01*
X39525000Y-23425000D01*
G75*
G02*
X39275000Y-23175000I0J250000D01*
G01*
X39275000Y-21925000D01*
G75*
G02*
X39525000Y-21675000I250000J0D01*
G01*
X40275000Y-21675000D01*
G75*
G02*
X40525000Y-21925000I0J-250000D01*
G01*
G37*
%TD.AperFunction*%
%TO.P,R7,1*%
%TO.N,Earth*%
%TA.AperFunction,SMDPad,CuDef*%
G36*
G01*
X43325000Y-21925000D02*
X43325000Y-23175000D01*
G75*
G02*
X43075000Y-23425000I-250000J0D01*
G01*
X42325000Y-23425000D01*
G75*
G02*
X42075000Y-23175000I0J250000D01*
G01*
X42075000Y-21925000D01*
G75*
G02*
X42325000Y-21675000I250000J0D01*
G01*
X43075000Y-21675000D01*
G75*
G02*
X43325000Y-21925000I0J-250000D01*
G01*
G37*
%TD.AperFunction*%
%TD*%
D13*
%TO.N,Earth*%
X26500000Y-28600000D03*
X44000000Y-23625000D03*
X41325000Y-22850000D03*
X41475000Y-17050000D03*
X42592500Y-27507500D03*
X17100000Y-18500000D03*
X33800000Y-22600000D03*
X22500000Y-18240055D03*
X44600000Y-21250000D03*
%TO.N,+3V3*%
X31100000Y-23900000D03*
X38100000Y-16950000D03*
X39600000Y-29300000D03*
X43050000Y-25650000D03*
X41325000Y-22150000D03*
X41250000Y-15750000D03*
X25800000Y-21850000D03*
X24000000Y-19200000D03*
X29100000Y-21450000D03*
%TO.N,VBUS*%
X16450000Y-18700000D03*
X25950000Y-16250000D03*
X37250000Y-24100000D03*
%TO.N,SHUNT_U*%
X35900000Y-17000000D03*
X39025000Y-16525000D03*
%TO.N,SHUNT_V*%
X38250000Y-24100000D03*
X37450000Y-16350000D03*
%TO.N,SHUNT_W*%
X26500000Y-16250000D03*
X39200000Y-28200000D03*
%TO.N,CUR_U*%
X41350000Y-18150000D03*
X33750000Y-19400000D03*
%TO.N,CUR_V*%
X33750000Y-18850000D03*
X40900000Y-22500000D03*
%TO.N,CUR_W*%
X33750000Y-18300000D03*
X41825000Y-27725000D03*
%TO.N,HSU*%
X24600000Y-17050000D03*
X19000000Y-23900000D03*
%TO.N,LSU*%
X16348094Y-26551102D03*
X23152673Y-19352673D03*
%TO.N,HSV*%
X33200000Y-18300000D03*
X19000000Y-21800000D03*
%TO.N,LSV*%
X38850000Y-26850000D03*
X16700000Y-26100008D03*
%TO.N,HSW*%
X18800000Y-20500000D03*
X24600000Y-25050000D03*
%TO.N,LSW*%
X24350000Y-28000000D03*
X17055217Y-25644815D03*
%TO.N,DRV_EN*%
X30200000Y-21450000D03*
X22601986Y-18760162D03*
%TO.N,DRV_FAULT*%
X26050000Y-18450000D03*
X22600000Y-19550000D03*
%TO.N,PWM_V_L*%
X25650000Y-21000000D03*
X26050000Y-19450000D03*
%TO.N,PWM_U_H*%
X24150000Y-21850000D03*
X28550000Y-21450000D03*
%TO.N,PWM_W_H*%
X23900000Y-21350000D03*
X27995685Y-21445685D03*
%TO.N,SPI_CSN*%
X18250000Y-29100000D03*
X28737667Y-23937667D03*
%TO.N,SPI_SCK*%
X18250000Y-29644988D03*
X29300000Y-23900000D03*
%TO.N,SPI_SDO*%
X29900000Y-23900000D03*
X22450000Y-24500000D03*
%TO.N,SPI_SDI*%
X30500000Y-23900000D03*
X22950000Y-24700000D03*
%TO.N,SINWIRE*%
X44600000Y-24525000D03*
X31694970Y-23900000D03*
%TD*%
D14*
%TO.N,VBUS*%
X36889002Y-28200000D02*
X37250000Y-27839002D01*
X37250000Y-20450000D02*
X36400000Y-19600000D01*
X37250000Y-27839002D02*
X37250000Y-20450000D01*
X36400000Y-19600000D02*
X37000000Y-19000000D01*
X41500000Y-19000000D02*
X43900000Y-16600000D01*
X37000000Y-19000000D02*
X41500000Y-19000000D01*
X29150000Y-18500000D02*
X31000000Y-16650000D01*
X33450000Y-16650000D02*
X36400000Y-19600000D01*
X31000000Y-16650000D02*
X33450000Y-16650000D01*
D15*
X25950000Y-16250000D02*
X25950000Y-16532842D01*
X27450000Y-16800000D02*
X29150000Y-18500000D01*
X26217158Y-16800000D02*
X27450000Y-16800000D01*
D14*
X30850000Y-28200000D02*
X29150000Y-26500000D01*
X36889002Y-28200000D02*
X30850000Y-28200000D01*
D15*
X25950000Y-16532842D02*
X26217158Y-16800000D01*
D14*
%TO.N,U*%
X18500000Y-16600000D02*
X19800000Y-17900000D01*
X16100000Y-16600000D02*
X18500000Y-16600000D01*
X25200000Y-17865000D02*
X25200000Y-19135000D01*
X25200000Y-19135000D02*
X25200000Y-20405000D01*
X22500000Y-20600000D02*
X19800000Y-17900000D01*
X25200000Y-20405000D02*
X25005000Y-20600000D01*
X25005000Y-20600000D02*
X22500000Y-20600000D01*
%TO.N,SHUNT_U*%
X23750000Y-15995000D02*
X23750000Y-17265000D01*
X23750000Y-17265000D02*
X23750000Y-18535000D01*
X38030010Y-15530010D02*
X39025000Y-16525000D01*
X23750000Y-15995000D02*
X24214990Y-15530010D01*
X24214990Y-15530010D02*
X35919990Y-15530010D01*
X39025000Y-16525000D02*
X40150000Y-17650000D01*
D16*
X35900000Y-15550000D02*
X35919990Y-15530010D01*
X35900000Y-17000000D02*
X35900000Y-15550000D01*
D14*
X35919990Y-15530010D02*
X38030010Y-15530010D01*
D17*
%TO.N,V*%
X32450000Y-18965000D02*
X32450000Y-20235000D01*
X32450000Y-20235000D02*
X32450000Y-21505000D01*
X32450000Y-23550000D02*
X34300000Y-25400000D01*
X32450000Y-21505000D02*
X32450000Y-22750000D01*
X32450000Y-22750000D02*
X32450000Y-23550000D01*
X16100000Y-22500000D02*
X16300000Y-22700000D01*
X16300000Y-22700000D02*
X32000000Y-22700000D01*
D14*
X32200000Y-22500000D02*
X32450000Y-22750000D01*
D17*
X32000000Y-22700000D02*
X32200000Y-22500000D01*
D14*
%TO.N,SHUNT_V*%
X38250000Y-23495000D02*
X38250000Y-24765000D01*
X38250000Y-24765000D02*
X38250000Y-26035000D01*
X39195000Y-22550000D02*
X38250000Y-23495000D01*
X39900000Y-22550000D02*
X39195000Y-22550000D01*
%TO.N,W*%
X16100000Y-28400000D02*
X16725000Y-27775000D01*
X18525000Y-27775000D02*
X19800000Y-26500000D01*
X16725000Y-27775000D02*
X18525000Y-27775000D01*
X25200000Y-28405000D02*
X25200000Y-27135000D01*
X25200000Y-27135000D02*
X25200000Y-25865000D01*
X19800000Y-24100000D02*
X19800000Y-26500000D01*
X20185010Y-23714990D02*
X19800000Y-24100000D01*
X25910000Y-25865000D02*
X26369999Y-25405001D01*
X26369999Y-24180997D02*
X25903992Y-23714990D01*
X25200000Y-25865000D02*
X25910000Y-25865000D01*
X26369999Y-25405001D02*
X26369999Y-24180997D01*
X25903992Y-23714990D02*
X20185010Y-23714990D01*
%TO.N,SHUNT_W*%
X23750000Y-24595000D02*
X23750000Y-25865000D01*
X23750000Y-25865000D02*
X23750000Y-27135000D01*
X23090000Y-27135000D02*
X22650000Y-27575000D01*
X39900000Y-27450000D02*
X40150000Y-27450000D01*
X23750000Y-27135000D02*
X23090000Y-27135000D01*
X22650000Y-27575000D02*
X22650000Y-28889002D01*
X22650000Y-28889002D02*
X23085998Y-29325000D01*
X23085998Y-29325000D02*
X38025000Y-29325000D01*
X38762500Y-28587500D02*
X39900000Y-27450000D01*
X38025000Y-29325000D02*
X38762500Y-28587500D01*
X38600000Y-28750000D02*
X38762500Y-28587500D01*
D18*
%TO.N,HSU*%
X25200000Y-16595000D02*
X25055000Y-16595000D01*
X25055000Y-16595000D02*
X24600000Y-17050000D01*
%TO.N,LSU*%
X23605000Y-19805000D02*
X23152673Y-19352673D01*
X23750000Y-19805000D02*
X23605000Y-19805000D01*
%TO.N,HSV*%
X32450000Y-17695000D02*
X32595000Y-17695000D01*
X32595000Y-17695000D02*
X33200000Y-18300000D01*
%TO.N,LSV*%
X38250000Y-27305000D02*
X38395000Y-27305000D01*
X38395000Y-27305000D02*
X38850000Y-26850000D01*
%TO.N,HSW*%
X25200000Y-24595000D02*
X25055000Y-24595000D01*
X25055000Y-24595000D02*
X24600000Y-25050000D01*
%TO.N,LSW*%
X23945000Y-28405000D02*
X24350000Y-28000000D01*
X23750000Y-28405000D02*
X23945000Y-28405000D01*
%TD*%
D16*
%TO.N,Earth*%
G36*
X41936693Y-20198062D02*
G01*
X41996070Y-20229800D01*
X42060498Y-20249344D01*
X42127500Y-20255943D01*
X42472500Y-20255943D01*
X42539502Y-20249344D01*
X42603930Y-20229800D01*
X42663307Y-20198062D01*
X42667038Y-20195000D01*
X42982962Y-20195000D01*
X42986693Y-20198062D01*
X43046070Y-20229800D01*
X43110498Y-20249344D01*
X43177500Y-20255943D01*
X43522500Y-20255943D01*
X43589502Y-20249344D01*
X43653930Y-20229800D01*
X43713307Y-20198062D01*
X43717038Y-20195000D01*
X44032962Y-20195000D01*
X44036693Y-20198062D01*
X44096070Y-20229800D01*
X44160498Y-20249344D01*
X44227500Y-20255943D01*
X44572500Y-20255943D01*
X44639502Y-20249344D01*
X44703930Y-20229800D01*
X44735000Y-20213193D01*
X44735000Y-24153374D01*
X44715217Y-24145180D01*
X44638904Y-24130000D01*
X44561096Y-24130000D01*
X44484783Y-24145180D01*
X44412897Y-24174956D01*
X44348202Y-24218184D01*
X44293184Y-24273202D01*
X44249956Y-24337897D01*
X44220180Y-24409783D01*
X44205000Y-24486096D01*
X44205000Y-24563904D01*
X44220180Y-24640217D01*
X44249956Y-24712103D01*
X44293184Y-24776798D01*
X44348202Y-24831816D01*
X44412897Y-24875044D01*
X44484783Y-24904820D01*
X44561096Y-24920000D01*
X44638904Y-24920000D01*
X44715217Y-24904820D01*
X44735000Y-24896626D01*
X44735000Y-29435000D01*
X39971626Y-29435000D01*
X39979820Y-29415217D01*
X39995000Y-29338904D01*
X39995000Y-29261096D01*
X39979820Y-29184783D01*
X39950044Y-29112897D01*
X39906816Y-29048202D01*
X39851798Y-28993184D01*
X39787103Y-28949956D01*
X39715217Y-28920180D01*
X39638904Y-28905000D01*
X39561096Y-28905000D01*
X39484783Y-28920180D01*
X39412897Y-28949956D01*
X39348202Y-28993184D01*
X39293184Y-29048202D01*
X39249956Y-29112897D01*
X39220180Y-29184783D01*
X39205000Y-29261096D01*
X39205000Y-29338904D01*
X39220180Y-29415217D01*
X39228374Y-29435000D01*
X38721101Y-29435000D01*
X39185345Y-28970757D01*
X39185354Y-28970746D01*
X39885158Y-28270943D01*
X40775000Y-28270943D01*
X40861999Y-28262374D01*
X40945655Y-28236998D01*
X41022753Y-28195788D01*
X41090329Y-28140329D01*
X41145788Y-28072753D01*
X41186998Y-27995655D01*
X41212374Y-27911999D01*
X41220943Y-27825000D01*
X41220943Y-27686096D01*
X41430000Y-27686096D01*
X41430000Y-27763904D01*
X41445180Y-27840217D01*
X41474956Y-27912103D01*
X41518184Y-27976798D01*
X41573202Y-28031816D01*
X41637897Y-28075044D01*
X41709783Y-28104820D01*
X41786096Y-28120000D01*
X41863904Y-28120000D01*
X41940217Y-28104820D01*
X42012103Y-28075044D01*
X42076798Y-28031816D01*
X42131816Y-27976798D01*
X42175044Y-27912103D01*
X42204820Y-27840217D01*
X42220000Y-27763904D01*
X42220000Y-27686096D01*
X42204820Y-27609783D01*
X42175044Y-27537897D01*
X42131816Y-27473202D01*
X42076798Y-27418184D01*
X42012103Y-27374956D01*
X41940217Y-27345180D01*
X41863904Y-27330000D01*
X41786096Y-27330000D01*
X41709783Y-27345180D01*
X41637897Y-27374956D01*
X41573202Y-27418184D01*
X41518184Y-27473202D01*
X41474956Y-27537897D01*
X41445180Y-27609783D01*
X41430000Y-27686096D01*
X41220943Y-27686096D01*
X41220943Y-27075000D01*
X41212374Y-26988001D01*
X41186998Y-26904345D01*
X41145788Y-26827247D01*
X41090329Y-26759671D01*
X41022753Y-26704212D01*
X40945655Y-26663002D01*
X40861999Y-26637626D01*
X40775000Y-26629057D01*
X39525000Y-26629057D01*
X39438001Y-26637626D01*
X39354345Y-26663002D01*
X39277247Y-26704212D01*
X39231248Y-26741963D01*
X39229820Y-26734783D01*
X39200044Y-26662897D01*
X39156816Y-26598202D01*
X39101798Y-26543184D01*
X39037103Y-26499956D01*
X38965217Y-26470180D01*
X38888904Y-26455000D01*
X38811096Y-26455000D01*
X38739180Y-26469305D01*
X38749984Y-26466028D01*
X38783860Y-26447921D01*
X38813553Y-26423553D01*
X38837921Y-26393860D01*
X38856028Y-26359984D01*
X38867178Y-26323227D01*
X38870943Y-26285000D01*
X38870943Y-25785000D01*
X38867178Y-25746773D01*
X38856028Y-25710016D01*
X38837921Y-25676140D01*
X38820000Y-25654303D01*
X38820000Y-25611096D01*
X42655000Y-25611096D01*
X42655000Y-25688904D01*
X42670180Y-25765217D01*
X42699956Y-25837103D01*
X42743184Y-25901798D01*
X42798202Y-25956816D01*
X42862897Y-26000044D01*
X42934783Y-26029820D01*
X43011096Y-26045000D01*
X43088904Y-26045000D01*
X43165217Y-26029820D01*
X43237103Y-26000044D01*
X43301798Y-25956816D01*
X43356816Y-25901798D01*
X43400044Y-25837103D01*
X43429820Y-25765217D01*
X43445000Y-25688904D01*
X43445000Y-25611096D01*
X43429820Y-25534783D01*
X43400044Y-25462897D01*
X43356816Y-25398202D01*
X43301798Y-25343184D01*
X43237103Y-25299956D01*
X43165217Y-25270180D01*
X43088904Y-25255000D01*
X43011096Y-25255000D01*
X42934783Y-25270180D01*
X42862897Y-25299956D01*
X42798202Y-25343184D01*
X42743184Y-25398202D01*
X42699956Y-25462897D01*
X42670180Y-25534783D01*
X42655000Y-25611096D01*
X38820000Y-25611096D01*
X38820000Y-25145697D01*
X38837921Y-25123860D01*
X38856028Y-25089984D01*
X38867178Y-25053227D01*
X38870943Y-25015000D01*
X38870943Y-24515000D01*
X38867178Y-24476773D01*
X38856028Y-24440016D01*
X38837921Y-24406140D01*
X38820000Y-24384303D01*
X38820000Y-23875697D01*
X38837921Y-23853860D01*
X38856028Y-23819984D01*
X38867178Y-23783227D01*
X38870943Y-23745000D01*
X38870943Y-23680157D01*
X39145203Y-23405898D01*
X39154212Y-23422753D01*
X39209671Y-23490329D01*
X39277247Y-23545788D01*
X39354345Y-23586998D01*
X39438001Y-23612374D01*
X39525000Y-23620943D01*
X40275000Y-23620943D01*
X40361999Y-23612374D01*
X40445655Y-23586998D01*
X40522753Y-23545788D01*
X40590329Y-23490329D01*
X40645788Y-23422753D01*
X40686998Y-23345655D01*
X40712374Y-23261999D01*
X40720943Y-23175000D01*
X40720943Y-22853377D01*
X40784783Y-22879820D01*
X40861096Y-22895000D01*
X40938904Y-22895000D01*
X41015217Y-22879820D01*
X41087103Y-22850044D01*
X41151798Y-22806816D01*
X41206816Y-22751798D01*
X41250044Y-22687103D01*
X41279820Y-22615217D01*
X41293787Y-22545000D01*
X41363904Y-22545000D01*
X41440217Y-22529820D01*
X41512103Y-22500044D01*
X41576798Y-22456816D01*
X41631816Y-22401798D01*
X41675044Y-22337103D01*
X41704820Y-22265217D01*
X41720000Y-22188904D01*
X41720000Y-22111096D01*
X41704820Y-22034783D01*
X41675044Y-21962897D01*
X41631816Y-21898202D01*
X41576798Y-21843184D01*
X41512103Y-21799956D01*
X41440217Y-21770180D01*
X41363904Y-21755000D01*
X41286096Y-21755000D01*
X41209783Y-21770180D01*
X41137897Y-21799956D01*
X41073202Y-21843184D01*
X41018184Y-21898202D01*
X40974956Y-21962897D01*
X40945180Y-22034783D01*
X40931213Y-22105000D01*
X40861096Y-22105000D01*
X40784783Y-22120180D01*
X40720943Y-22146623D01*
X40720943Y-21925000D01*
X40712374Y-21838001D01*
X40686998Y-21754345D01*
X40645788Y-21677247D01*
X40590329Y-21609671D01*
X40522753Y-21554212D01*
X40445655Y-21513002D01*
X40361999Y-21487626D01*
X40275000Y-21479057D01*
X39695000Y-21479057D01*
X39695000Y-20195000D01*
X41932962Y-20195000D01*
X41936693Y-20198062D01*
G37*
X41936693Y-20198062D02*
X41996070Y-20229800D01*
X42060498Y-20249344D01*
X42127500Y-20255943D01*
X42472500Y-20255943D01*
X42539502Y-20249344D01*
X42603930Y-20229800D01*
X42663307Y-20198062D01*
X42667038Y-20195000D01*
X42982962Y-20195000D01*
X42986693Y-20198062D01*
X43046070Y-20229800D01*
X43110498Y-20249344D01*
X43177500Y-20255943D01*
X43522500Y-20255943D01*
X43589502Y-20249344D01*
X43653930Y-20229800D01*
X43713307Y-20198062D01*
X43717038Y-20195000D01*
X44032962Y-20195000D01*
X44036693Y-20198062D01*
X44096070Y-20229800D01*
X44160498Y-20249344D01*
X44227500Y-20255943D01*
X44572500Y-20255943D01*
X44639502Y-20249344D01*
X44703930Y-20229800D01*
X44735000Y-20213193D01*
X44735000Y-24153374D01*
X44715217Y-24145180D01*
X44638904Y-24130000D01*
X44561096Y-24130000D01*
X44484783Y-24145180D01*
X44412897Y-24174956D01*
X44348202Y-24218184D01*
X44293184Y-24273202D01*
X44249956Y-24337897D01*
X44220180Y-24409783D01*
X44205000Y-24486096D01*
X44205000Y-24563904D01*
X44220180Y-24640217D01*
X44249956Y-24712103D01*
X44293184Y-24776798D01*
X44348202Y-24831816D01*
X44412897Y-24875044D01*
X44484783Y-24904820D01*
X44561096Y-24920000D01*
X44638904Y-24920000D01*
X44715217Y-24904820D01*
X44735000Y-24896626D01*
X44735000Y-29435000D01*
X39971626Y-29435000D01*
X39979820Y-29415217D01*
X39995000Y-29338904D01*
X39995000Y-29261096D01*
X39979820Y-29184783D01*
X39950044Y-29112897D01*
X39906816Y-29048202D01*
X39851798Y-28993184D01*
X39787103Y-28949956D01*
X39715217Y-28920180D01*
X39638904Y-28905000D01*
X39561096Y-28905000D01*
X39484783Y-28920180D01*
X39412897Y-28949956D01*
X39348202Y-28993184D01*
X39293184Y-29048202D01*
X39249956Y-29112897D01*
X39220180Y-29184783D01*
X39205000Y-29261096D01*
X39205000Y-29338904D01*
X39220180Y-29415217D01*
X39228374Y-29435000D01*
X38721101Y-29435000D01*
X39185345Y-28970757D01*
X39185354Y-28970746D01*
X39885158Y-28270943D01*
X40775000Y-28270943D01*
X40861999Y-28262374D01*
X40945655Y-28236998D01*
X41022753Y-28195788D01*
X41090329Y-28140329D01*
X41145788Y-28072753D01*
X41186998Y-27995655D01*
X41212374Y-27911999D01*
X41220943Y-27825000D01*
X41220943Y-27686096D01*
X41430000Y-27686096D01*
X41430000Y-27763904D01*
X41445180Y-27840217D01*
X41474956Y-27912103D01*
X41518184Y-27976798D01*
X41573202Y-28031816D01*
X41637897Y-28075044D01*
X41709783Y-28104820D01*
X41786096Y-28120000D01*
X41863904Y-28120000D01*
X41940217Y-28104820D01*
X42012103Y-28075044D01*
X42076798Y-28031816D01*
X42131816Y-27976798D01*
X42175044Y-27912103D01*
X42204820Y-27840217D01*
X42220000Y-27763904D01*
X42220000Y-27686096D01*
X42204820Y-27609783D01*
X42175044Y-27537897D01*
X42131816Y-27473202D01*
X42076798Y-27418184D01*
X42012103Y-27374956D01*
X41940217Y-27345180D01*
X41863904Y-27330000D01*
X41786096Y-27330000D01*
X41709783Y-27345180D01*
X41637897Y-27374956D01*
X41573202Y-27418184D01*
X41518184Y-27473202D01*
X41474956Y-27537897D01*
X41445180Y-27609783D01*
X41430000Y-27686096D01*
X41220943Y-27686096D01*
X41220943Y-27075000D01*
X41212374Y-26988001D01*
X41186998Y-26904345D01*
X41145788Y-26827247D01*
X41090329Y-26759671D01*
X41022753Y-26704212D01*
X40945655Y-26663002D01*
X40861999Y-26637626D01*
X40775000Y-26629057D01*
X39525000Y-26629057D01*
X39438001Y-26637626D01*
X39354345Y-26663002D01*
X39277247Y-26704212D01*
X39231248Y-26741963D01*
X39229820Y-26734783D01*
X39200044Y-26662897D01*
X39156816Y-26598202D01*
X39101798Y-26543184D01*
X39037103Y-26499956D01*
X38965217Y-26470180D01*
X38888904Y-26455000D01*
X38811096Y-26455000D01*
X38739180Y-26469305D01*
X38749984Y-26466028D01*
X38783860Y-26447921D01*
X38813553Y-26423553D01*
X38837921Y-26393860D01*
X38856028Y-26359984D01*
X38867178Y-26323227D01*
X38870943Y-26285000D01*
X38870943Y-25785000D01*
X38867178Y-25746773D01*
X38856028Y-25710016D01*
X38837921Y-25676140D01*
X38820000Y-25654303D01*
X38820000Y-25611096D01*
X42655000Y-25611096D01*
X42655000Y-25688904D01*
X42670180Y-25765217D01*
X42699956Y-25837103D01*
X42743184Y-25901798D01*
X42798202Y-25956816D01*
X42862897Y-26000044D01*
X42934783Y-26029820D01*
X43011096Y-26045000D01*
X43088904Y-26045000D01*
X43165217Y-26029820D01*
X43237103Y-26000044D01*
X43301798Y-25956816D01*
X43356816Y-25901798D01*
X43400044Y-25837103D01*
X43429820Y-25765217D01*
X43445000Y-25688904D01*
X43445000Y-25611096D01*
X43429820Y-25534783D01*
X43400044Y-25462897D01*
X43356816Y-25398202D01*
X43301798Y-25343184D01*
X43237103Y-25299956D01*
X43165217Y-25270180D01*
X43088904Y-25255000D01*
X43011096Y-25255000D01*
X42934783Y-25270180D01*
X42862897Y-25299956D01*
X42798202Y-25343184D01*
X42743184Y-25398202D01*
X42699956Y-25462897D01*
X42670180Y-25534783D01*
X42655000Y-25611096D01*
X38820000Y-25611096D01*
X38820000Y-25145697D01*
X38837921Y-25123860D01*
X38856028Y-25089984D01*
X38867178Y-25053227D01*
X38870943Y-25015000D01*
X38870943Y-24515000D01*
X38867178Y-24476773D01*
X38856028Y-24440016D01*
X38837921Y-24406140D01*
X38820000Y-24384303D01*
X38820000Y-23875697D01*
X38837921Y-23853860D01*
X38856028Y-23819984D01*
X38867178Y-23783227D01*
X38870943Y-23745000D01*
X38870943Y-23680157D01*
X39145203Y-23405898D01*
X39154212Y-23422753D01*
X39209671Y-23490329D01*
X39277247Y-23545788D01*
X39354345Y-23586998D01*
X39438001Y-23612374D01*
X39525000Y-23620943D01*
X40275000Y-23620943D01*
X40361999Y-23612374D01*
X40445655Y-23586998D01*
X40522753Y-23545788D01*
X40590329Y-23490329D01*
X40645788Y-23422753D01*
X40686998Y-23345655D01*
X40712374Y-23261999D01*
X40720943Y-23175000D01*
X40720943Y-22853377D01*
X40784783Y-22879820D01*
X40861096Y-22895000D01*
X40938904Y-22895000D01*
X41015217Y-22879820D01*
X41087103Y-22850044D01*
X41151798Y-22806816D01*
X41206816Y-22751798D01*
X41250044Y-22687103D01*
X41279820Y-22615217D01*
X41293787Y-22545000D01*
X41363904Y-22545000D01*
X41440217Y-22529820D01*
X41512103Y-22500044D01*
X41576798Y-22456816D01*
X41631816Y-22401798D01*
X41675044Y-22337103D01*
X41704820Y-22265217D01*
X41720000Y-22188904D01*
X41720000Y-22111096D01*
X41704820Y-22034783D01*
X41675044Y-21962897D01*
X41631816Y-21898202D01*
X41576798Y-21843184D01*
X41512103Y-21799956D01*
X41440217Y-21770180D01*
X41363904Y-21755000D01*
X41286096Y-21755000D01*
X41209783Y-21770180D01*
X41137897Y-21799956D01*
X41073202Y-21843184D01*
X41018184Y-21898202D01*
X40974956Y-21962897D01*
X40945180Y-22034783D01*
X40931213Y-22105000D01*
X40861096Y-22105000D01*
X40784783Y-22120180D01*
X40720943Y-22146623D01*
X40720943Y-21925000D01*
X40712374Y-21838001D01*
X40686998Y-21754345D01*
X40645788Y-21677247D01*
X40590329Y-21609671D01*
X40522753Y-21554212D01*
X40445655Y-21513002D01*
X40361999Y-21487626D01*
X40275000Y-21479057D01*
X39695000Y-21479057D01*
X39695000Y-20195000D01*
X41932962Y-20195000D01*
X41936693Y-20198062D01*
G36*
X36680001Y-23030016D02*
G01*
X36649984Y-23013972D01*
X36613227Y-23002822D01*
X36575000Y-22999057D01*
X33695000Y-22999057D01*
X33695000Y-22195000D01*
X36680001Y-22195000D01*
X36680001Y-23030016D01*
G37*
X36680001Y-23030016D02*
X36649984Y-23013972D01*
X36613227Y-23002822D01*
X36575000Y-22999057D01*
X33695000Y-22999057D01*
X33695000Y-22195000D01*
X36680001Y-22195000D01*
X36680001Y-23030016D01*
%TO.N,W*%
G36*
X18649956Y-24087103D02*
G01*
X18693184Y-24151798D01*
X18748202Y-24206816D01*
X18812897Y-24250044D01*
X18884783Y-24279820D01*
X18961096Y-24295000D01*
X19038904Y-24295000D01*
X19115217Y-24279820D01*
X19187103Y-24250044D01*
X19251798Y-24206816D01*
X19306816Y-24151798D01*
X19350044Y-24087103D01*
X19359199Y-24065000D01*
X23533591Y-24065000D01*
X23530815Y-24065842D01*
X23431793Y-24118770D01*
X23394889Y-24149057D01*
X23325000Y-24149057D01*
X23286773Y-24152822D01*
X23250016Y-24163972D01*
X23216140Y-24182079D01*
X23186447Y-24206447D01*
X23162079Y-24236140D01*
X23143972Y-24270016D01*
X23132822Y-24306773D01*
X23129057Y-24345000D01*
X23129057Y-24346623D01*
X23065217Y-24320180D01*
X22988904Y-24305000D01*
X22911096Y-24305000D01*
X22834783Y-24320180D01*
X22807706Y-24331395D01*
X22800044Y-24312897D01*
X22756816Y-24248202D01*
X22701798Y-24193184D01*
X22637103Y-24149956D01*
X22565217Y-24120180D01*
X22488904Y-24105000D01*
X22411096Y-24105000D01*
X22334783Y-24120180D01*
X22262897Y-24149956D01*
X22198202Y-24193184D01*
X22143184Y-24248202D01*
X22099956Y-24312897D01*
X22070180Y-24384783D01*
X22055000Y-24461096D01*
X22055000Y-24538904D01*
X22070180Y-24615217D01*
X22099956Y-24687103D01*
X22143184Y-24751798D01*
X22198202Y-24806816D01*
X22262897Y-24850044D01*
X22334783Y-24879820D01*
X22411096Y-24895000D01*
X22488904Y-24895000D01*
X22565217Y-24879820D01*
X22592294Y-24868605D01*
X22599956Y-24887103D01*
X22643184Y-24951798D01*
X22698202Y-25006816D01*
X22762897Y-25050044D01*
X22834783Y-25079820D01*
X22911096Y-25095000D01*
X22988904Y-25095000D01*
X23065217Y-25079820D01*
X23137103Y-25050044D01*
X23180000Y-25021381D01*
X23180001Y-25484302D01*
X23162079Y-25506140D01*
X23143972Y-25540016D01*
X23132822Y-25576773D01*
X23129057Y-25615000D01*
X23129057Y-26115000D01*
X23132822Y-26153227D01*
X23143972Y-26189984D01*
X23162079Y-26223860D01*
X23180000Y-26245698D01*
X23180001Y-26565000D01*
X23117983Y-26565000D01*
X23090000Y-26562244D01*
X23062017Y-26565000D01*
X23062007Y-26565000D01*
X22978261Y-26573248D01*
X22870815Y-26605842D01*
X22821304Y-26632306D01*
X22771792Y-26658770D01*
X22730301Y-26692822D01*
X22685000Y-26730000D01*
X22667154Y-26751745D01*
X22266749Y-27152151D01*
X22245000Y-27170000D01*
X22200138Y-27224664D01*
X22173770Y-27256793D01*
X22121714Y-27354184D01*
X22120842Y-27355816D01*
X22088248Y-27463262D01*
X22080000Y-27547008D01*
X22080000Y-27547017D01*
X22077244Y-27575000D01*
X22080000Y-27602983D01*
X22080001Y-28861009D01*
X22077244Y-28889002D01*
X22081774Y-28935000D01*
X18609199Y-28935000D01*
X18600044Y-28912897D01*
X18556816Y-28848202D01*
X18501798Y-28793184D01*
X18437103Y-28749956D01*
X18365217Y-28720180D01*
X18288904Y-28705000D01*
X18211096Y-28705000D01*
X18134783Y-28720180D01*
X18062897Y-28749956D01*
X17998202Y-28793184D01*
X17943184Y-28848202D01*
X17899956Y-28912897D01*
X17890801Y-28935000D01*
X16065000Y-28935000D01*
X16065000Y-26826622D01*
X16096296Y-26857918D01*
X16160991Y-26901146D01*
X16232877Y-26930922D01*
X16309190Y-26946102D01*
X16386998Y-26946102D01*
X16463311Y-26930922D01*
X16535197Y-26901146D01*
X16599892Y-26857918D01*
X16654910Y-26802900D01*
X16698138Y-26738205D01*
X16727914Y-26666319D01*
X16743094Y-26590006D01*
X16743094Y-26512198D01*
X16739645Y-26494861D01*
X16815217Y-26479828D01*
X16887103Y-26450052D01*
X16951798Y-26406824D01*
X17006816Y-26351806D01*
X17050044Y-26287111D01*
X17079820Y-26215225D01*
X17095000Y-26138912D01*
X17095000Y-26061104D01*
X17090765Y-26039815D01*
X17094121Y-26039815D01*
X17170434Y-26024635D01*
X17242320Y-25994859D01*
X17307015Y-25951631D01*
X17362033Y-25896613D01*
X17405261Y-25831918D01*
X17435037Y-25760032D01*
X17450217Y-25683719D01*
X17450217Y-25605911D01*
X17435037Y-25529598D01*
X17405261Y-25457712D01*
X17362033Y-25393017D01*
X17307015Y-25337999D01*
X17242320Y-25294771D01*
X17170434Y-25264995D01*
X17094121Y-25249815D01*
X17016313Y-25249815D01*
X16940000Y-25264995D01*
X16868114Y-25294771D01*
X16803419Y-25337999D01*
X16748401Y-25393017D01*
X16705173Y-25457712D01*
X16675397Y-25529598D01*
X16660217Y-25605911D01*
X16660217Y-25683719D01*
X16664452Y-25705008D01*
X16661096Y-25705008D01*
X16584783Y-25720188D01*
X16512897Y-25749964D01*
X16448202Y-25793192D01*
X16393184Y-25848210D01*
X16349956Y-25912905D01*
X16320180Y-25984791D01*
X16305000Y-26061104D01*
X16305000Y-26138912D01*
X16308449Y-26156249D01*
X16232877Y-26171282D01*
X16160991Y-26201058D01*
X16096296Y-26244286D01*
X16065000Y-26275582D01*
X16065000Y-24195943D01*
X17100000Y-24195943D01*
X17138227Y-24192178D01*
X17174984Y-24181028D01*
X17208860Y-24162921D01*
X17238553Y-24138553D01*
X17262921Y-24108860D01*
X17281028Y-24074984D01*
X17284057Y-24065000D01*
X18640801Y-24065000D01*
X18649956Y-24087103D01*
G37*
X18649956Y-24087103D02*
X18693184Y-24151798D01*
X18748202Y-24206816D01*
X18812897Y-24250044D01*
X18884783Y-24279820D01*
X18961096Y-24295000D01*
X19038904Y-24295000D01*
X19115217Y-24279820D01*
X19187103Y-24250044D01*
X19251798Y-24206816D01*
X19306816Y-24151798D01*
X19350044Y-24087103D01*
X19359199Y-24065000D01*
X23533591Y-24065000D01*
X23530815Y-24065842D01*
X23431793Y-24118770D01*
X23394889Y-24149057D01*
X23325000Y-24149057D01*
X23286773Y-24152822D01*
X23250016Y-24163972D01*
X23216140Y-24182079D01*
X23186447Y-24206447D01*
X23162079Y-24236140D01*
X23143972Y-24270016D01*
X23132822Y-24306773D01*
X23129057Y-24345000D01*
X23129057Y-24346623D01*
X23065217Y-24320180D01*
X22988904Y-24305000D01*
X22911096Y-24305000D01*
X22834783Y-24320180D01*
X22807706Y-24331395D01*
X22800044Y-24312897D01*
X22756816Y-24248202D01*
X22701798Y-24193184D01*
X22637103Y-24149956D01*
X22565217Y-24120180D01*
X22488904Y-24105000D01*
X22411096Y-24105000D01*
X22334783Y-24120180D01*
X22262897Y-24149956D01*
X22198202Y-24193184D01*
X22143184Y-24248202D01*
X22099956Y-24312897D01*
X22070180Y-24384783D01*
X22055000Y-24461096D01*
X22055000Y-24538904D01*
X22070180Y-24615217D01*
X22099956Y-24687103D01*
X22143184Y-24751798D01*
X22198202Y-24806816D01*
X22262897Y-24850044D01*
X22334783Y-24879820D01*
X22411096Y-24895000D01*
X22488904Y-24895000D01*
X22565217Y-24879820D01*
X22592294Y-24868605D01*
X22599956Y-24887103D01*
X22643184Y-24951798D01*
X22698202Y-25006816D01*
X22762897Y-25050044D01*
X22834783Y-25079820D01*
X22911096Y-25095000D01*
X22988904Y-25095000D01*
X23065217Y-25079820D01*
X23137103Y-25050044D01*
X23180000Y-25021381D01*
X23180001Y-25484302D01*
X23162079Y-25506140D01*
X23143972Y-25540016D01*
X23132822Y-25576773D01*
X23129057Y-25615000D01*
X23129057Y-26115000D01*
X23132822Y-26153227D01*
X23143972Y-26189984D01*
X23162079Y-26223860D01*
X23180000Y-26245698D01*
X23180001Y-26565000D01*
X23117983Y-26565000D01*
X23090000Y-26562244D01*
X23062017Y-26565000D01*
X23062007Y-26565000D01*
X22978261Y-26573248D01*
X22870815Y-26605842D01*
X22821304Y-26632306D01*
X22771792Y-26658770D01*
X22730301Y-26692822D01*
X22685000Y-26730000D01*
X22667154Y-26751745D01*
X22266749Y-27152151D01*
X22245000Y-27170000D01*
X22200138Y-27224664D01*
X22173770Y-27256793D01*
X22121714Y-27354184D01*
X22120842Y-27355816D01*
X22088248Y-27463262D01*
X22080000Y-27547008D01*
X22080000Y-27547017D01*
X22077244Y-27575000D01*
X22080000Y-27602983D01*
X22080001Y-28861009D01*
X22077244Y-28889002D01*
X22081774Y-28935000D01*
X18609199Y-28935000D01*
X18600044Y-28912897D01*
X18556816Y-28848202D01*
X18501798Y-28793184D01*
X18437103Y-28749956D01*
X18365217Y-28720180D01*
X18288904Y-28705000D01*
X18211096Y-28705000D01*
X18134783Y-28720180D01*
X18062897Y-28749956D01*
X17998202Y-28793184D01*
X17943184Y-28848202D01*
X17899956Y-28912897D01*
X17890801Y-28935000D01*
X16065000Y-28935000D01*
X16065000Y-26826622D01*
X16096296Y-26857918D01*
X16160991Y-26901146D01*
X16232877Y-26930922D01*
X16309190Y-26946102D01*
X16386998Y-26946102D01*
X16463311Y-26930922D01*
X16535197Y-26901146D01*
X16599892Y-26857918D01*
X16654910Y-26802900D01*
X16698138Y-26738205D01*
X16727914Y-26666319D01*
X16743094Y-26590006D01*
X16743094Y-26512198D01*
X16739645Y-26494861D01*
X16815217Y-26479828D01*
X16887103Y-26450052D01*
X16951798Y-26406824D01*
X17006816Y-26351806D01*
X17050044Y-26287111D01*
X17079820Y-26215225D01*
X17095000Y-26138912D01*
X17095000Y-26061104D01*
X17090765Y-26039815D01*
X17094121Y-26039815D01*
X17170434Y-26024635D01*
X17242320Y-25994859D01*
X17307015Y-25951631D01*
X17362033Y-25896613D01*
X17405261Y-25831918D01*
X17435037Y-25760032D01*
X17450217Y-25683719D01*
X17450217Y-25605911D01*
X17435037Y-25529598D01*
X17405261Y-25457712D01*
X17362033Y-25393017D01*
X17307015Y-25337999D01*
X17242320Y-25294771D01*
X17170434Y-25264995D01*
X17094121Y-25249815D01*
X17016313Y-25249815D01*
X16940000Y-25264995D01*
X16868114Y-25294771D01*
X16803419Y-25337999D01*
X16748401Y-25393017D01*
X16705173Y-25457712D01*
X16675397Y-25529598D01*
X16660217Y-25605911D01*
X16660217Y-25683719D01*
X16664452Y-25705008D01*
X16661096Y-25705008D01*
X16584783Y-25720188D01*
X16512897Y-25749964D01*
X16448202Y-25793192D01*
X16393184Y-25848210D01*
X16349956Y-25912905D01*
X16320180Y-25984791D01*
X16305000Y-26061104D01*
X16305000Y-26138912D01*
X16308449Y-26156249D01*
X16232877Y-26171282D01*
X16160991Y-26201058D01*
X16096296Y-26244286D01*
X16065000Y-26275582D01*
X16065000Y-24195943D01*
X17100000Y-24195943D01*
X17138227Y-24192178D01*
X17174984Y-24181028D01*
X17208860Y-24162921D01*
X17238553Y-24138553D01*
X17262921Y-24108860D01*
X17281028Y-24074984D01*
X17284057Y-24065000D01*
X18640801Y-24065000D01*
X18649956Y-24087103D01*
G36*
X26435000Y-28210191D02*
G01*
X26384783Y-28220180D01*
X26312897Y-28249956D01*
X26248202Y-28293184D01*
X26193184Y-28348202D01*
X26149956Y-28412897D01*
X26120180Y-28484783D01*
X26105000Y-28561096D01*
X26105000Y-28638904D01*
X26120180Y-28715217D01*
X26136659Y-28755000D01*
X24342657Y-28755000D01*
X24356028Y-28729984D01*
X24367178Y-28693227D01*
X24370943Y-28655000D01*
X24370943Y-28466960D01*
X24456312Y-28381591D01*
X24465217Y-28379820D01*
X24537103Y-28350044D01*
X24601798Y-28306816D01*
X24656816Y-28251798D01*
X24700044Y-28187103D01*
X24729820Y-28115217D01*
X24745000Y-28038904D01*
X24745000Y-27961096D01*
X24729820Y-27884783D01*
X24700044Y-27812897D01*
X24656816Y-27748202D01*
X24601798Y-27693184D01*
X24537103Y-27649956D01*
X24465217Y-27620180D01*
X24388904Y-27605000D01*
X24311096Y-27605000D01*
X24234783Y-27620180D01*
X24162897Y-27649956D01*
X24098202Y-27693184D01*
X24043184Y-27748202D01*
X23999956Y-27812897D01*
X23970180Y-27884783D01*
X23968409Y-27893688D01*
X23903040Y-27959057D01*
X23325000Y-27959057D01*
X23286773Y-27962822D01*
X23250016Y-27973972D01*
X23220000Y-27990016D01*
X23220000Y-27811100D01*
X23326101Y-27705000D01*
X23722007Y-27705000D01*
X23750000Y-27707757D01*
X23777993Y-27705000D01*
X23861739Y-27696752D01*
X23969185Y-27664158D01*
X24068207Y-27611230D01*
X24105111Y-27580943D01*
X24175000Y-27580943D01*
X24213227Y-27577178D01*
X24249984Y-27566028D01*
X24283860Y-27547921D01*
X24313553Y-27523553D01*
X24337921Y-27493860D01*
X24356028Y-27459984D01*
X24367178Y-27423227D01*
X24370943Y-27385000D01*
X24370943Y-26885000D01*
X24367178Y-26846773D01*
X24356028Y-26810016D01*
X24337921Y-26776140D01*
X24320000Y-26754303D01*
X24320000Y-26245697D01*
X24337921Y-26223860D01*
X24356028Y-26189984D01*
X24367178Y-26153227D01*
X24370943Y-26115000D01*
X24370943Y-25615000D01*
X24367178Y-25576773D01*
X24356028Y-25540016D01*
X24337921Y-25506140D01*
X24320000Y-25484303D01*
X24320000Y-25328614D01*
X24348202Y-25356816D01*
X24412897Y-25400044D01*
X24484783Y-25429820D01*
X24561096Y-25445000D01*
X24638904Y-25445000D01*
X24715217Y-25429820D01*
X24787103Y-25400044D01*
X24851798Y-25356816D01*
X24906816Y-25301798D01*
X24950044Y-25237103D01*
X24979820Y-25165217D01*
X24981591Y-25156312D01*
X25096961Y-25040943D01*
X25625000Y-25040943D01*
X25663227Y-25037178D01*
X25699984Y-25026028D01*
X25733860Y-25007921D01*
X25763553Y-24983553D01*
X25787921Y-24953860D01*
X25806028Y-24919984D01*
X25817178Y-24883227D01*
X25820943Y-24845000D01*
X25820943Y-24345000D01*
X25817178Y-24306773D01*
X25806028Y-24270016D01*
X25787921Y-24236140D01*
X25763553Y-24206447D01*
X25733860Y-24182079D01*
X25699984Y-24163972D01*
X25663227Y-24152822D01*
X25625000Y-24149057D01*
X24775000Y-24149057D01*
X24736773Y-24152822D01*
X24700016Y-24163972D01*
X24666140Y-24182079D01*
X24636447Y-24206447D01*
X24612079Y-24236140D01*
X24593972Y-24270016D01*
X24582822Y-24306773D01*
X24579057Y-24345000D01*
X24579057Y-24583040D01*
X24493688Y-24668409D01*
X24484783Y-24670180D01*
X24412897Y-24699956D01*
X24370943Y-24727989D01*
X24370943Y-24345000D01*
X24367178Y-24306773D01*
X24356028Y-24270016D01*
X24337921Y-24236140D01*
X24313553Y-24206447D01*
X24283860Y-24182079D01*
X24249984Y-24163972D01*
X24213227Y-24152822D01*
X24175000Y-24149057D01*
X24105111Y-24149057D01*
X24068206Y-24118770D01*
X23969184Y-24065842D01*
X23966408Y-24065000D01*
X26435000Y-24065000D01*
X26435000Y-28210191D01*
G37*
X26435000Y-28210191D02*
X26384783Y-28220180D01*
X26312897Y-28249956D01*
X26248202Y-28293184D01*
X26193184Y-28348202D01*
X26149956Y-28412897D01*
X26120180Y-28484783D01*
X26105000Y-28561096D01*
X26105000Y-28638904D01*
X26120180Y-28715217D01*
X26136659Y-28755000D01*
X24342657Y-28755000D01*
X24356028Y-28729984D01*
X24367178Y-28693227D01*
X24370943Y-28655000D01*
X24370943Y-28466960D01*
X24456312Y-28381591D01*
X24465217Y-28379820D01*
X24537103Y-28350044D01*
X24601798Y-28306816D01*
X24656816Y-28251798D01*
X24700044Y-28187103D01*
X24729820Y-28115217D01*
X24745000Y-28038904D01*
X24745000Y-27961096D01*
X24729820Y-27884783D01*
X24700044Y-27812897D01*
X24656816Y-27748202D01*
X24601798Y-27693184D01*
X24537103Y-27649956D01*
X24465217Y-27620180D01*
X24388904Y-27605000D01*
X24311096Y-27605000D01*
X24234783Y-27620180D01*
X24162897Y-27649956D01*
X24098202Y-27693184D01*
X24043184Y-27748202D01*
X23999956Y-27812897D01*
X23970180Y-27884783D01*
X23968409Y-27893688D01*
X23903040Y-27959057D01*
X23325000Y-27959057D01*
X23286773Y-27962822D01*
X23250016Y-27973972D01*
X23220000Y-27990016D01*
X23220000Y-27811100D01*
X23326101Y-27705000D01*
X23722007Y-27705000D01*
X23750000Y-27707757D01*
X23777993Y-27705000D01*
X23861739Y-27696752D01*
X23969185Y-27664158D01*
X24068207Y-27611230D01*
X24105111Y-27580943D01*
X24175000Y-27580943D01*
X24213227Y-27577178D01*
X24249984Y-27566028D01*
X24283860Y-27547921D01*
X24313553Y-27523553D01*
X24337921Y-27493860D01*
X24356028Y-27459984D01*
X24367178Y-27423227D01*
X24370943Y-27385000D01*
X24370943Y-26885000D01*
X24367178Y-26846773D01*
X24356028Y-26810016D01*
X24337921Y-26776140D01*
X24320000Y-26754303D01*
X24320000Y-26245697D01*
X24337921Y-26223860D01*
X24356028Y-26189984D01*
X24367178Y-26153227D01*
X24370943Y-26115000D01*
X24370943Y-25615000D01*
X24367178Y-25576773D01*
X24356028Y-25540016D01*
X24337921Y-25506140D01*
X24320000Y-25484303D01*
X24320000Y-25328614D01*
X24348202Y-25356816D01*
X24412897Y-25400044D01*
X24484783Y-25429820D01*
X24561096Y-25445000D01*
X24638904Y-25445000D01*
X24715217Y-25429820D01*
X24787103Y-25400044D01*
X24851798Y-25356816D01*
X24906816Y-25301798D01*
X24950044Y-25237103D01*
X24979820Y-25165217D01*
X24981591Y-25156312D01*
X25096961Y-25040943D01*
X25625000Y-25040943D01*
X25663227Y-25037178D01*
X25699984Y-25026028D01*
X25733860Y-25007921D01*
X25763553Y-24983553D01*
X25787921Y-24953860D01*
X25806028Y-24919984D01*
X25817178Y-24883227D01*
X25820943Y-24845000D01*
X25820943Y-24345000D01*
X25817178Y-24306773D01*
X25806028Y-24270016D01*
X25787921Y-24236140D01*
X25763553Y-24206447D01*
X25733860Y-24182079D01*
X25699984Y-24163972D01*
X25663227Y-24152822D01*
X25625000Y-24149057D01*
X24775000Y-24149057D01*
X24736773Y-24152822D01*
X24700016Y-24163972D01*
X24666140Y-24182079D01*
X24636447Y-24206447D01*
X24612079Y-24236140D01*
X24593972Y-24270016D01*
X24582822Y-24306773D01*
X24579057Y-24345000D01*
X24579057Y-24583040D01*
X24493688Y-24668409D01*
X24484783Y-24670180D01*
X24412897Y-24699956D01*
X24370943Y-24727989D01*
X24370943Y-24345000D01*
X24367178Y-24306773D01*
X24356028Y-24270016D01*
X24337921Y-24236140D01*
X24313553Y-24206447D01*
X24283860Y-24182079D01*
X24249984Y-24163972D01*
X24213227Y-24152822D01*
X24175000Y-24149057D01*
X24105111Y-24149057D01*
X24068206Y-24118770D01*
X23969184Y-24065842D01*
X23966408Y-24065000D01*
X26435000Y-24065000D01*
X26435000Y-28210191D01*
%TO.N,VBUS*%
G36*
X41062897Y-16100044D02*
G01*
X41134783Y-16129820D01*
X41211096Y-16145000D01*
X41288904Y-16145000D01*
X41365217Y-16129820D01*
X41437103Y-16100044D01*
X41489550Y-16065000D01*
X44780000Y-16065000D01*
X44780000Y-19935000D01*
X41196297Y-19935000D01*
X41186998Y-19904345D01*
X41145788Y-19827247D01*
X41090329Y-19759671D01*
X41022753Y-19704212D01*
X40945655Y-19663002D01*
X40861999Y-19637626D01*
X40775000Y-19629057D01*
X39525000Y-19629057D01*
X39438001Y-19637626D01*
X39354345Y-19663002D01*
X39277247Y-19704212D01*
X39209671Y-19759671D01*
X39154212Y-19827247D01*
X39113002Y-19904345D01*
X39087626Y-19988001D01*
X39079057Y-20075000D01*
X39079057Y-20825000D01*
X39087626Y-20911999D01*
X39113002Y-20995655D01*
X39154212Y-21072753D01*
X39209671Y-21140329D01*
X39277247Y-21195788D01*
X39354345Y-21236998D01*
X39435000Y-21261464D01*
X39435000Y-21488536D01*
X39354345Y-21513002D01*
X39277247Y-21554212D01*
X39209671Y-21609671D01*
X39154212Y-21677247D01*
X39113002Y-21754345D01*
X39087626Y-21838001D01*
X39079057Y-21925000D01*
X39079057Y-21935000D01*
X33695000Y-21935000D01*
X33695000Y-21500000D01*
X33691253Y-21461957D01*
X33680157Y-21425377D01*
X33662137Y-21391664D01*
X33637886Y-21362114D01*
X33608336Y-21337863D01*
X33574623Y-21319843D01*
X33538043Y-21308747D01*
X33500000Y-21305000D01*
X33145000Y-21305000D01*
X33145000Y-18930865D01*
X33134943Y-18828756D01*
X33095202Y-18697748D01*
X33085719Y-18680006D01*
X33161096Y-18695000D01*
X33238904Y-18695000D01*
X33315217Y-18679820D01*
X33387103Y-18650044D01*
X33425838Y-18624162D01*
X33399956Y-18662897D01*
X33370180Y-18734783D01*
X33355000Y-18811096D01*
X33355000Y-18888904D01*
X33370180Y-18965217D01*
X33399956Y-19037103D01*
X33443184Y-19101798D01*
X33466386Y-19125000D01*
X33443184Y-19148202D01*
X33399956Y-19212897D01*
X33370180Y-19284783D01*
X33355000Y-19361096D01*
X33355000Y-19438904D01*
X33370180Y-19515217D01*
X33399956Y-19587103D01*
X33443184Y-19651798D01*
X33498202Y-19706816D01*
X33562897Y-19750044D01*
X33634783Y-19779820D01*
X33711096Y-19795000D01*
X33788904Y-19795000D01*
X33865217Y-19779820D01*
X33937103Y-19750044D01*
X34001798Y-19706816D01*
X34056816Y-19651798D01*
X34100044Y-19587103D01*
X34129820Y-19515217D01*
X34145000Y-19438904D01*
X34145000Y-19361096D01*
X34129820Y-19284783D01*
X34100044Y-19212897D01*
X34056816Y-19148202D01*
X34033614Y-19125000D01*
X34056816Y-19101798D01*
X34100044Y-19037103D01*
X34129820Y-18965217D01*
X34145000Y-18888904D01*
X34145000Y-18811096D01*
X34129820Y-18734783D01*
X34100044Y-18662897D01*
X34056816Y-18598202D01*
X34033614Y-18575000D01*
X34056816Y-18551798D01*
X34100044Y-18487103D01*
X34129820Y-18415217D01*
X34145000Y-18338904D01*
X34145000Y-18261096D01*
X34129820Y-18184783D01*
X34100044Y-18112897D01*
X34056816Y-18048202D01*
X34001798Y-17993184D01*
X33937103Y-17949956D01*
X33865217Y-17920180D01*
X33788904Y-17905000D01*
X33711096Y-17905000D01*
X33634783Y-17920180D01*
X33562897Y-17949956D01*
X33498202Y-17993184D01*
X33475000Y-18016386D01*
X33451798Y-17993184D01*
X33387103Y-17949956D01*
X33315217Y-17920180D01*
X33306313Y-17918409D01*
X33070943Y-17683040D01*
X33070943Y-17445000D01*
X33067178Y-17406773D01*
X33056028Y-17370016D01*
X33037921Y-17336140D01*
X33013553Y-17306447D01*
X32983860Y-17282079D01*
X32949984Y-17263972D01*
X32913227Y-17252822D01*
X32875000Y-17249057D01*
X32025000Y-17249057D01*
X31986773Y-17252822D01*
X31950016Y-17263972D01*
X31916140Y-17282079D01*
X31886447Y-17306447D01*
X31862079Y-17336140D01*
X31843972Y-17370016D01*
X31832822Y-17406773D01*
X31829057Y-17445000D01*
X31829057Y-17945000D01*
X31832822Y-17983227D01*
X31843972Y-18019984D01*
X31862079Y-18053860D01*
X31886447Y-18083553D01*
X31916140Y-18107921D01*
X31950016Y-18126028D01*
X31986773Y-18137178D01*
X32025000Y-18140943D01*
X32553040Y-18140943D01*
X32748709Y-18336612D01*
X32717251Y-18319798D01*
X32586243Y-18280057D01*
X32450000Y-18266638D01*
X32313756Y-18280057D01*
X32182748Y-18319798D01*
X32062011Y-18384333D01*
X31956183Y-18471184D01*
X31869333Y-18577012D01*
X31804798Y-18697749D01*
X31765057Y-18828757D01*
X31755000Y-18930866D01*
X31755001Y-20200856D01*
X31755000Y-20200866D01*
X31755001Y-21305000D01*
X30567484Y-21305000D01*
X30550044Y-21262897D01*
X30506816Y-21198202D01*
X30451798Y-21143184D01*
X30387103Y-21099956D01*
X30315217Y-21070180D01*
X30238904Y-21055000D01*
X30161096Y-21055000D01*
X30084783Y-21070180D01*
X30012897Y-21099956D01*
X29948202Y-21143184D01*
X29893184Y-21198202D01*
X29849956Y-21262897D01*
X29832516Y-21305000D01*
X29467484Y-21305000D01*
X29450044Y-21262897D01*
X29406816Y-21198202D01*
X29351798Y-21143184D01*
X29287103Y-21099956D01*
X29215217Y-21070180D01*
X29138904Y-21055000D01*
X29061096Y-21055000D01*
X28984783Y-21070180D01*
X28912897Y-21099956D01*
X28848202Y-21143184D01*
X28825000Y-21166386D01*
X28801798Y-21143184D01*
X28737103Y-21099956D01*
X28665217Y-21070180D01*
X28588904Y-21055000D01*
X28511096Y-21055000D01*
X28434783Y-21070180D01*
X28362897Y-21099956D01*
X28298202Y-21143184D01*
X28275000Y-21166386D01*
X28247483Y-21138869D01*
X28182788Y-21095641D01*
X28110902Y-21065865D01*
X28034589Y-21050685D01*
X27956781Y-21050685D01*
X27880468Y-21065865D01*
X27808582Y-21095641D01*
X27743887Y-21138869D01*
X27688869Y-21193887D01*
X27645641Y-21258582D01*
X27626414Y-21305000D01*
X27065000Y-21305000D01*
X27065000Y-16100010D01*
X35640001Y-16100010D01*
X35640000Y-16701386D01*
X35593184Y-16748202D01*
X35549956Y-16812897D01*
X35520180Y-16884783D01*
X35505000Y-16961096D01*
X35505000Y-17038904D01*
X35520180Y-17115217D01*
X35549956Y-17187103D01*
X35593184Y-17251798D01*
X35648202Y-17306816D01*
X35712897Y-17350044D01*
X35784783Y-17379820D01*
X35861096Y-17395000D01*
X35938904Y-17395000D01*
X36015217Y-17379820D01*
X36087103Y-17350044D01*
X36151798Y-17306816D01*
X36206816Y-17251798D01*
X36250044Y-17187103D01*
X36279820Y-17115217D01*
X36295000Y-17038904D01*
X36295000Y-16961096D01*
X36279820Y-16884783D01*
X36250044Y-16812897D01*
X36206816Y-16748202D01*
X36160000Y-16701386D01*
X36160000Y-16100010D01*
X37141976Y-16100010D01*
X37099956Y-16162897D01*
X37070180Y-16234783D01*
X37055000Y-16311096D01*
X37055000Y-16388904D01*
X37070180Y-16465217D01*
X37099956Y-16537103D01*
X37143184Y-16601798D01*
X37198202Y-16656816D01*
X37262897Y-16700044D01*
X37334783Y-16729820D01*
X37411096Y-16745000D01*
X37488904Y-16745000D01*
X37565217Y-16729820D01*
X37637103Y-16700044D01*
X37701798Y-16656816D01*
X37756816Y-16601798D01*
X37800044Y-16537103D01*
X37829820Y-16465217D01*
X37845000Y-16388904D01*
X37845000Y-16311096D01*
X37829820Y-16234783D01*
X37800044Y-16162897D01*
X37758024Y-16100010D01*
X37793910Y-16100010D01*
X38307450Y-16613552D01*
X38287103Y-16599956D01*
X38215217Y-16570180D01*
X38138904Y-16555000D01*
X38061096Y-16555000D01*
X37984783Y-16570180D01*
X37912897Y-16599956D01*
X37848202Y-16643184D01*
X37793184Y-16698202D01*
X37749956Y-16762897D01*
X37720180Y-16834783D01*
X37705000Y-16911096D01*
X37705000Y-16988904D01*
X37720180Y-17065217D01*
X37749956Y-17137103D01*
X37793184Y-17201798D01*
X37848202Y-17256816D01*
X37912897Y-17300044D01*
X37984783Y-17329820D01*
X38061096Y-17345000D01*
X38138904Y-17345000D01*
X38215217Y-17329820D01*
X38287103Y-17300044D01*
X38351798Y-17256816D01*
X38406816Y-17201798D01*
X38450044Y-17137103D01*
X38479820Y-17065217D01*
X38495000Y-16988904D01*
X38495000Y-16911096D01*
X38479820Y-16834783D01*
X38450044Y-16762897D01*
X38436449Y-16742550D01*
X38641742Y-16947844D01*
X38641753Y-16947853D01*
X39079057Y-17385158D01*
X39079057Y-18025000D01*
X39087626Y-18111999D01*
X39113002Y-18195655D01*
X39154212Y-18272753D01*
X39209671Y-18340329D01*
X39277247Y-18395788D01*
X39354345Y-18436998D01*
X39438001Y-18462374D01*
X39525000Y-18470943D01*
X40775000Y-18470943D01*
X40861999Y-18462374D01*
X40945655Y-18436998D01*
X41022753Y-18395788D01*
X41033355Y-18387087D01*
X41043184Y-18401798D01*
X41098202Y-18456816D01*
X41162897Y-18500044D01*
X41234783Y-18529820D01*
X41311096Y-18545000D01*
X41388904Y-18545000D01*
X41465217Y-18529820D01*
X41537103Y-18500044D01*
X41601798Y-18456816D01*
X41656816Y-18401798D01*
X41700044Y-18337103D01*
X41729820Y-18265217D01*
X41745000Y-18188904D01*
X41745000Y-18111096D01*
X41729820Y-18034783D01*
X41700044Y-17962897D01*
X41656816Y-17898202D01*
X41601798Y-17843184D01*
X41537103Y-17799956D01*
X41465217Y-17770180D01*
X41388904Y-17755000D01*
X41311096Y-17755000D01*
X41234783Y-17770180D01*
X41220943Y-17775913D01*
X41220943Y-17354557D01*
X41223202Y-17356816D01*
X41287897Y-17400044D01*
X41359783Y-17429820D01*
X41436096Y-17445000D01*
X41513904Y-17445000D01*
X41590217Y-17429820D01*
X41662103Y-17400044D01*
X41726798Y-17356816D01*
X41781816Y-17301798D01*
X41825044Y-17237103D01*
X41854820Y-17165217D01*
X41870000Y-17088904D01*
X41870000Y-17011096D01*
X41854820Y-16934783D01*
X41825044Y-16862897D01*
X41781816Y-16798202D01*
X41726798Y-16743184D01*
X41662103Y-16699956D01*
X41590217Y-16670180D01*
X41513904Y-16655000D01*
X41436096Y-16655000D01*
X41359783Y-16670180D01*
X41287897Y-16699956D01*
X41223202Y-16743184D01*
X41168184Y-16798202D01*
X41124956Y-16862897D01*
X41095180Y-16934783D01*
X41090243Y-16959601D01*
X41022753Y-16904212D01*
X40945655Y-16863002D01*
X40861999Y-16837626D01*
X40775000Y-16829057D01*
X40135158Y-16829057D01*
X39447853Y-16141753D01*
X39447844Y-16141742D01*
X39371102Y-16065000D01*
X41010450Y-16065000D01*
X41062897Y-16100044D01*
G37*
X41062897Y-16100044D02*
X41134783Y-16129820D01*
X41211096Y-16145000D01*
X41288904Y-16145000D01*
X41365217Y-16129820D01*
X41437103Y-16100044D01*
X41489550Y-16065000D01*
X44780000Y-16065000D01*
X44780000Y-19935000D01*
X41196297Y-19935000D01*
X41186998Y-19904345D01*
X41145788Y-19827247D01*
X41090329Y-19759671D01*
X41022753Y-19704212D01*
X40945655Y-19663002D01*
X40861999Y-19637626D01*
X40775000Y-19629057D01*
X39525000Y-19629057D01*
X39438001Y-19637626D01*
X39354345Y-19663002D01*
X39277247Y-19704212D01*
X39209671Y-19759671D01*
X39154212Y-19827247D01*
X39113002Y-19904345D01*
X39087626Y-19988001D01*
X39079057Y-20075000D01*
X39079057Y-20825000D01*
X39087626Y-20911999D01*
X39113002Y-20995655D01*
X39154212Y-21072753D01*
X39209671Y-21140329D01*
X39277247Y-21195788D01*
X39354345Y-21236998D01*
X39435000Y-21261464D01*
X39435000Y-21488536D01*
X39354345Y-21513002D01*
X39277247Y-21554212D01*
X39209671Y-21609671D01*
X39154212Y-21677247D01*
X39113002Y-21754345D01*
X39087626Y-21838001D01*
X39079057Y-21925000D01*
X39079057Y-21935000D01*
X33695000Y-21935000D01*
X33695000Y-21500000D01*
X33691253Y-21461957D01*
X33680157Y-21425377D01*
X33662137Y-21391664D01*
X33637886Y-21362114D01*
X33608336Y-21337863D01*
X33574623Y-21319843D01*
X33538043Y-21308747D01*
X33500000Y-21305000D01*
X33145000Y-21305000D01*
X33145000Y-18930865D01*
X33134943Y-18828756D01*
X33095202Y-18697748D01*
X33085719Y-18680006D01*
X33161096Y-18695000D01*
X33238904Y-18695000D01*
X33315217Y-18679820D01*
X33387103Y-18650044D01*
X33425838Y-18624162D01*
X33399956Y-18662897D01*
X33370180Y-18734783D01*
X33355000Y-18811096D01*
X33355000Y-18888904D01*
X33370180Y-18965217D01*
X33399956Y-19037103D01*
X33443184Y-19101798D01*
X33466386Y-19125000D01*
X33443184Y-19148202D01*
X33399956Y-19212897D01*
X33370180Y-19284783D01*
X33355000Y-19361096D01*
X33355000Y-19438904D01*
X33370180Y-19515217D01*
X33399956Y-19587103D01*
X33443184Y-19651798D01*
X33498202Y-19706816D01*
X33562897Y-19750044D01*
X33634783Y-19779820D01*
X33711096Y-19795000D01*
X33788904Y-19795000D01*
X33865217Y-19779820D01*
X33937103Y-19750044D01*
X34001798Y-19706816D01*
X34056816Y-19651798D01*
X34100044Y-19587103D01*
X34129820Y-19515217D01*
X34145000Y-19438904D01*
X34145000Y-19361096D01*
X34129820Y-19284783D01*
X34100044Y-19212897D01*
X34056816Y-19148202D01*
X34033614Y-19125000D01*
X34056816Y-19101798D01*
X34100044Y-19037103D01*
X34129820Y-18965217D01*
X34145000Y-18888904D01*
X34145000Y-18811096D01*
X34129820Y-18734783D01*
X34100044Y-18662897D01*
X34056816Y-18598202D01*
X34033614Y-18575000D01*
X34056816Y-18551798D01*
X34100044Y-18487103D01*
X34129820Y-18415217D01*
X34145000Y-18338904D01*
X34145000Y-18261096D01*
X34129820Y-18184783D01*
X34100044Y-18112897D01*
X34056816Y-18048202D01*
X34001798Y-17993184D01*
X33937103Y-17949956D01*
X33865217Y-17920180D01*
X33788904Y-17905000D01*
X33711096Y-17905000D01*
X33634783Y-17920180D01*
X33562897Y-17949956D01*
X33498202Y-17993184D01*
X33475000Y-18016386D01*
X33451798Y-17993184D01*
X33387103Y-17949956D01*
X33315217Y-17920180D01*
X33306313Y-17918409D01*
X33070943Y-17683040D01*
X33070943Y-17445000D01*
X33067178Y-17406773D01*
X33056028Y-17370016D01*
X33037921Y-17336140D01*
X33013553Y-17306447D01*
X32983860Y-17282079D01*
X32949984Y-17263972D01*
X32913227Y-17252822D01*
X32875000Y-17249057D01*
X32025000Y-17249057D01*
X31986773Y-17252822D01*
X31950016Y-17263972D01*
X31916140Y-17282079D01*
X31886447Y-17306447D01*
X31862079Y-17336140D01*
X31843972Y-17370016D01*
X31832822Y-17406773D01*
X31829057Y-17445000D01*
X31829057Y-17945000D01*
X31832822Y-17983227D01*
X31843972Y-18019984D01*
X31862079Y-18053860D01*
X31886447Y-18083553D01*
X31916140Y-18107921D01*
X31950016Y-18126028D01*
X31986773Y-18137178D01*
X32025000Y-18140943D01*
X32553040Y-18140943D01*
X32748709Y-18336612D01*
X32717251Y-18319798D01*
X32586243Y-18280057D01*
X32450000Y-18266638D01*
X32313756Y-18280057D01*
X32182748Y-18319798D01*
X32062011Y-18384333D01*
X31956183Y-18471184D01*
X31869333Y-18577012D01*
X31804798Y-18697749D01*
X31765057Y-18828757D01*
X31755000Y-18930866D01*
X31755001Y-20200856D01*
X31755000Y-20200866D01*
X31755001Y-21305000D01*
X30567484Y-21305000D01*
X30550044Y-21262897D01*
X30506816Y-21198202D01*
X30451798Y-21143184D01*
X30387103Y-21099956D01*
X30315217Y-21070180D01*
X30238904Y-21055000D01*
X30161096Y-21055000D01*
X30084783Y-21070180D01*
X30012897Y-21099956D01*
X29948202Y-21143184D01*
X29893184Y-21198202D01*
X29849956Y-21262897D01*
X29832516Y-21305000D01*
X29467484Y-21305000D01*
X29450044Y-21262897D01*
X29406816Y-21198202D01*
X29351798Y-21143184D01*
X29287103Y-21099956D01*
X29215217Y-21070180D01*
X29138904Y-21055000D01*
X29061096Y-21055000D01*
X28984783Y-21070180D01*
X28912897Y-21099956D01*
X28848202Y-21143184D01*
X28825000Y-21166386D01*
X28801798Y-21143184D01*
X28737103Y-21099956D01*
X28665217Y-21070180D01*
X28588904Y-21055000D01*
X28511096Y-21055000D01*
X28434783Y-21070180D01*
X28362897Y-21099956D01*
X28298202Y-21143184D01*
X28275000Y-21166386D01*
X28247483Y-21138869D01*
X28182788Y-21095641D01*
X28110902Y-21065865D01*
X28034589Y-21050685D01*
X27956781Y-21050685D01*
X27880468Y-21065865D01*
X27808582Y-21095641D01*
X27743887Y-21138869D01*
X27688869Y-21193887D01*
X27645641Y-21258582D01*
X27626414Y-21305000D01*
X27065000Y-21305000D01*
X27065000Y-16100010D01*
X35640001Y-16100010D01*
X35640000Y-16701386D01*
X35593184Y-16748202D01*
X35549956Y-16812897D01*
X35520180Y-16884783D01*
X35505000Y-16961096D01*
X35505000Y-17038904D01*
X35520180Y-17115217D01*
X35549956Y-17187103D01*
X35593184Y-17251798D01*
X35648202Y-17306816D01*
X35712897Y-17350044D01*
X35784783Y-17379820D01*
X35861096Y-17395000D01*
X35938904Y-17395000D01*
X36015217Y-17379820D01*
X36087103Y-17350044D01*
X36151798Y-17306816D01*
X36206816Y-17251798D01*
X36250044Y-17187103D01*
X36279820Y-17115217D01*
X36295000Y-17038904D01*
X36295000Y-16961096D01*
X36279820Y-16884783D01*
X36250044Y-16812897D01*
X36206816Y-16748202D01*
X36160000Y-16701386D01*
X36160000Y-16100010D01*
X37141976Y-16100010D01*
X37099956Y-16162897D01*
X37070180Y-16234783D01*
X37055000Y-16311096D01*
X37055000Y-16388904D01*
X37070180Y-16465217D01*
X37099956Y-16537103D01*
X37143184Y-16601798D01*
X37198202Y-16656816D01*
X37262897Y-16700044D01*
X37334783Y-16729820D01*
X37411096Y-16745000D01*
X37488904Y-16745000D01*
X37565217Y-16729820D01*
X37637103Y-16700044D01*
X37701798Y-16656816D01*
X37756816Y-16601798D01*
X37800044Y-16537103D01*
X37829820Y-16465217D01*
X37845000Y-16388904D01*
X37845000Y-16311096D01*
X37829820Y-16234783D01*
X37800044Y-16162897D01*
X37758024Y-16100010D01*
X37793910Y-16100010D01*
X38307450Y-16613552D01*
X38287103Y-16599956D01*
X38215217Y-16570180D01*
X38138904Y-16555000D01*
X38061096Y-16555000D01*
X37984783Y-16570180D01*
X37912897Y-16599956D01*
X37848202Y-16643184D01*
X37793184Y-16698202D01*
X37749956Y-16762897D01*
X37720180Y-16834783D01*
X37705000Y-16911096D01*
X37705000Y-16988904D01*
X37720180Y-17065217D01*
X37749956Y-17137103D01*
X37793184Y-17201798D01*
X37848202Y-17256816D01*
X37912897Y-17300044D01*
X37984783Y-17329820D01*
X38061096Y-17345000D01*
X38138904Y-17345000D01*
X38215217Y-17329820D01*
X38287103Y-17300044D01*
X38351798Y-17256816D01*
X38406816Y-17201798D01*
X38450044Y-17137103D01*
X38479820Y-17065217D01*
X38495000Y-16988904D01*
X38495000Y-16911096D01*
X38479820Y-16834783D01*
X38450044Y-16762897D01*
X38436449Y-16742550D01*
X38641742Y-16947844D01*
X38641753Y-16947853D01*
X39079057Y-17385158D01*
X39079057Y-18025000D01*
X39087626Y-18111999D01*
X39113002Y-18195655D01*
X39154212Y-18272753D01*
X39209671Y-18340329D01*
X39277247Y-18395788D01*
X39354345Y-18436998D01*
X39438001Y-18462374D01*
X39525000Y-18470943D01*
X40775000Y-18470943D01*
X40861999Y-18462374D01*
X40945655Y-18436998D01*
X41022753Y-18395788D01*
X41033355Y-18387087D01*
X41043184Y-18401798D01*
X41098202Y-18456816D01*
X41162897Y-18500044D01*
X41234783Y-18529820D01*
X41311096Y-18545000D01*
X41388904Y-18545000D01*
X41465217Y-18529820D01*
X41537103Y-18500044D01*
X41601798Y-18456816D01*
X41656816Y-18401798D01*
X41700044Y-18337103D01*
X41729820Y-18265217D01*
X41745000Y-18188904D01*
X41745000Y-18111096D01*
X41729820Y-18034783D01*
X41700044Y-17962897D01*
X41656816Y-17898202D01*
X41601798Y-17843184D01*
X41537103Y-17799956D01*
X41465217Y-17770180D01*
X41388904Y-17755000D01*
X41311096Y-17755000D01*
X41234783Y-17770180D01*
X41220943Y-17775913D01*
X41220943Y-17354557D01*
X41223202Y-17356816D01*
X41287897Y-17400044D01*
X41359783Y-17429820D01*
X41436096Y-17445000D01*
X41513904Y-17445000D01*
X41590217Y-17429820D01*
X41662103Y-17400044D01*
X41726798Y-17356816D01*
X41781816Y-17301798D01*
X41825044Y-17237103D01*
X41854820Y-17165217D01*
X41870000Y-17088904D01*
X41870000Y-17011096D01*
X41854820Y-16934783D01*
X41825044Y-16862897D01*
X41781816Y-16798202D01*
X41726798Y-16743184D01*
X41662103Y-16699956D01*
X41590217Y-16670180D01*
X41513904Y-16655000D01*
X41436096Y-16655000D01*
X41359783Y-16670180D01*
X41287897Y-16699956D01*
X41223202Y-16743184D01*
X41168184Y-16798202D01*
X41124956Y-16862897D01*
X41095180Y-16934783D01*
X41090243Y-16959601D01*
X41022753Y-16904212D01*
X40945655Y-16863002D01*
X40861999Y-16837626D01*
X40775000Y-16829057D01*
X40135158Y-16829057D01*
X39447853Y-16141753D01*
X39447844Y-16141742D01*
X39371102Y-16065000D01*
X41010450Y-16065000D01*
X41062897Y-16100044D01*
%TO.N,U*%
G36*
X23129057Y-16245000D02*
G01*
X23132822Y-16283227D01*
X23143972Y-16319984D01*
X23162079Y-16353860D01*
X23180000Y-16375698D01*
X23180001Y-16884302D01*
X23162079Y-16906140D01*
X23143972Y-16940016D01*
X23132822Y-16976773D01*
X23129057Y-17015000D01*
X23129057Y-17515000D01*
X23132822Y-17553227D01*
X23143972Y-17589984D01*
X23162079Y-17623860D01*
X23180000Y-17645698D01*
X23180001Y-18154302D01*
X23162079Y-18176140D01*
X23143972Y-18210016D01*
X23132822Y-18246773D01*
X23129057Y-18285000D01*
X23129057Y-18785000D01*
X23132822Y-18823227D01*
X23143972Y-18859984D01*
X23162079Y-18893860D01*
X23186447Y-18923553D01*
X23216140Y-18947921D01*
X23250016Y-18966028D01*
X23286773Y-18977178D01*
X23325000Y-18980943D01*
X23394890Y-18980943D01*
X23431794Y-19011230D01*
X23530816Y-19064158D01*
X23618964Y-19090898D01*
X23605000Y-19161096D01*
X23605000Y-19238904D01*
X23620180Y-19315217D01*
X23632243Y-19344339D01*
X23534264Y-19246361D01*
X23532493Y-19237456D01*
X23502717Y-19165570D01*
X23459489Y-19100875D01*
X23404471Y-19045857D01*
X23339776Y-19002629D01*
X23267890Y-18972853D01*
X23191577Y-18957673D01*
X23113769Y-18957673D01*
X23037456Y-18972853D01*
X22965570Y-19002629D01*
X22900875Y-19045857D01*
X22845857Y-19100875D01*
X22802629Y-19165570D01*
X22788108Y-19200627D01*
X22787103Y-19199956D01*
X22715217Y-19170180D01*
X22639718Y-19155162D01*
X22640890Y-19155162D01*
X22717203Y-19139982D01*
X22789089Y-19110206D01*
X22853784Y-19066978D01*
X22908802Y-19011960D01*
X22952030Y-18947265D01*
X22981806Y-18875379D01*
X22996986Y-18799066D01*
X22996986Y-18721258D01*
X22981806Y-18644945D01*
X22952030Y-18573059D01*
X22908802Y-18508364D01*
X22853784Y-18453346D01*
X22839101Y-18443535D01*
X22850044Y-18427158D01*
X22879820Y-18355272D01*
X22895000Y-18278959D01*
X22895000Y-18201151D01*
X22879820Y-18124838D01*
X22850044Y-18052952D01*
X22806816Y-17988257D01*
X22751798Y-17933239D01*
X22687103Y-17890011D01*
X22615217Y-17860235D01*
X22538904Y-17845055D01*
X22461096Y-17845055D01*
X22384783Y-17860235D01*
X22312897Y-17890011D01*
X22248202Y-17933239D01*
X22193184Y-17988257D01*
X22149956Y-18052952D01*
X22120180Y-18124838D01*
X22105000Y-18201151D01*
X22105000Y-18278959D01*
X22120180Y-18355272D01*
X22149956Y-18427158D01*
X22193184Y-18491853D01*
X22248202Y-18546871D01*
X22262885Y-18556682D01*
X22251942Y-18573059D01*
X22222166Y-18644945D01*
X22206986Y-18721258D01*
X22206986Y-18799066D01*
X22222166Y-18875379D01*
X22251942Y-18947265D01*
X22295170Y-19011960D01*
X22350188Y-19066978D01*
X22414883Y-19110206D01*
X22486769Y-19139982D01*
X22562268Y-19155000D01*
X22561096Y-19155000D01*
X22484783Y-19170180D01*
X22412897Y-19199956D01*
X22348202Y-19243184D01*
X22293184Y-19298202D01*
X22249956Y-19362897D01*
X22220180Y-19434783D01*
X22205000Y-19511096D01*
X22205000Y-19588904D01*
X22220180Y-19665217D01*
X22249956Y-19737103D01*
X22293184Y-19801798D01*
X22348202Y-19856816D01*
X22412897Y-19900044D01*
X22484783Y-19929820D01*
X22561096Y-19945000D01*
X22638904Y-19945000D01*
X22715217Y-19929820D01*
X22787103Y-19900044D01*
X22851798Y-19856816D01*
X22906816Y-19801798D01*
X22950044Y-19737103D01*
X22964565Y-19702046D01*
X22965570Y-19702717D01*
X23037456Y-19732493D01*
X23046361Y-19734264D01*
X23129057Y-19816960D01*
X23129057Y-20055000D01*
X23132822Y-20093227D01*
X23143972Y-20129984D01*
X23162079Y-20163860D01*
X23186447Y-20193553D01*
X23216140Y-20217921D01*
X23250016Y-20236028D01*
X23286773Y-20247178D01*
X23325000Y-20250943D01*
X24175000Y-20250943D01*
X24213227Y-20247178D01*
X24249984Y-20236028D01*
X24283860Y-20217921D01*
X24313553Y-20193553D01*
X24337921Y-20163860D01*
X24356028Y-20129984D01*
X24367178Y-20093227D01*
X24370943Y-20055000D01*
X24370943Y-19555000D01*
X24367178Y-19516773D01*
X24356028Y-19480016D01*
X24337921Y-19446140D01*
X24322860Y-19427787D01*
X24350044Y-19387103D01*
X24379820Y-19315217D01*
X24395000Y-19238904D01*
X24395000Y-19161096D01*
X24379820Y-19084783D01*
X24350044Y-19012897D01*
X24306816Y-18948202D01*
X24296314Y-18937700D01*
X24313553Y-18923553D01*
X24337921Y-18893860D01*
X24356028Y-18859984D01*
X24367178Y-18823227D01*
X24370943Y-18785000D01*
X24370943Y-18285000D01*
X24367178Y-18246773D01*
X24356028Y-18210016D01*
X24337921Y-18176140D01*
X24320000Y-18154303D01*
X24320000Y-17645697D01*
X24337921Y-17623860D01*
X24356028Y-17589984D01*
X24367178Y-17553227D01*
X24370943Y-17515000D01*
X24370943Y-17372011D01*
X24412897Y-17400044D01*
X24484783Y-17429820D01*
X24561096Y-17445000D01*
X24638904Y-17445000D01*
X24715217Y-17429820D01*
X24787103Y-17400044D01*
X24851798Y-17356816D01*
X24906816Y-17301798D01*
X24950044Y-17237103D01*
X24979820Y-17165217D01*
X24981591Y-17156312D01*
X25096961Y-17040943D01*
X25625000Y-17040943D01*
X25663227Y-17037178D01*
X25699984Y-17026028D01*
X25733860Y-17007921D01*
X25763553Y-16983553D01*
X25787921Y-16953860D01*
X25806028Y-16919984D01*
X25807856Y-16913957D01*
X25942679Y-17048780D01*
X25954263Y-17062895D01*
X26010603Y-17109132D01*
X26074880Y-17143489D01*
X26144625Y-17164646D01*
X26198984Y-17170000D01*
X26198993Y-17170000D01*
X26217157Y-17171789D01*
X26235321Y-17170000D01*
X26435000Y-17170000D01*
X26435000Y-18360824D01*
X26429820Y-18334783D01*
X26400044Y-18262897D01*
X26356816Y-18198202D01*
X26301798Y-18143184D01*
X26237103Y-18099956D01*
X26165217Y-18070180D01*
X26088904Y-18055000D01*
X26011096Y-18055000D01*
X25934783Y-18070180D01*
X25862897Y-18099956D01*
X25798202Y-18143184D01*
X25743184Y-18198202D01*
X25699956Y-18262897D01*
X25670180Y-18334783D01*
X25655000Y-18411096D01*
X25655000Y-18488904D01*
X25670180Y-18565217D01*
X25699956Y-18637103D01*
X25743184Y-18701798D01*
X25798202Y-18756816D01*
X25862897Y-18800044D01*
X25934783Y-18829820D01*
X26011096Y-18845000D01*
X26088904Y-18845000D01*
X26165217Y-18829820D01*
X26237103Y-18800044D01*
X26301798Y-18756816D01*
X26356816Y-18701798D01*
X26400044Y-18637103D01*
X26429820Y-18565217D01*
X26435000Y-18539176D01*
X26435000Y-19360824D01*
X26429820Y-19334783D01*
X26400044Y-19262897D01*
X26356816Y-19198202D01*
X26301798Y-19143184D01*
X26237103Y-19099956D01*
X26165217Y-19070180D01*
X26088904Y-19055000D01*
X26011096Y-19055000D01*
X25934783Y-19070180D01*
X25862897Y-19099956D01*
X25798202Y-19143184D01*
X25743184Y-19198202D01*
X25699956Y-19262897D01*
X25670180Y-19334783D01*
X25655000Y-19411096D01*
X25655000Y-19488904D01*
X25670180Y-19565217D01*
X25699956Y-19637103D01*
X25743184Y-19701798D01*
X25798202Y-19756816D01*
X25862897Y-19800044D01*
X25934783Y-19829820D01*
X26011096Y-19845000D01*
X26088904Y-19845000D01*
X26165217Y-19829820D01*
X26237103Y-19800044D01*
X26301798Y-19756816D01*
X26356816Y-19701798D01*
X26400044Y-19637103D01*
X26429820Y-19565217D01*
X26435000Y-19539176D01*
X26435000Y-20935000D01*
X26039809Y-20935000D01*
X26029820Y-20884783D01*
X26000044Y-20812897D01*
X25956816Y-20748202D01*
X25901798Y-20693184D01*
X25837103Y-20649956D01*
X25765217Y-20620180D01*
X25688904Y-20605000D01*
X25611096Y-20605000D01*
X25534783Y-20620180D01*
X25462897Y-20649956D01*
X25398202Y-20693184D01*
X25343184Y-20748202D01*
X25299956Y-20812897D01*
X25270180Y-20884783D01*
X25260191Y-20935000D01*
X17284057Y-20935000D01*
X17281028Y-20925016D01*
X17262921Y-20891140D01*
X17238553Y-20861447D01*
X17208860Y-20837079D01*
X17174984Y-20818972D01*
X17138227Y-20807822D01*
X17100000Y-20804057D01*
X16065000Y-20804057D01*
X16065000Y-20461096D01*
X18405000Y-20461096D01*
X18405000Y-20538904D01*
X18420180Y-20615217D01*
X18449956Y-20687103D01*
X18493184Y-20751798D01*
X18548202Y-20806816D01*
X18612897Y-20850044D01*
X18684783Y-20879820D01*
X18761096Y-20895000D01*
X18838904Y-20895000D01*
X18915217Y-20879820D01*
X18987103Y-20850044D01*
X19051798Y-20806816D01*
X19106816Y-20751798D01*
X19150044Y-20687103D01*
X19179820Y-20615217D01*
X19195000Y-20538904D01*
X19195000Y-20461096D01*
X19179820Y-20384783D01*
X19150044Y-20312897D01*
X19106816Y-20248202D01*
X19051798Y-20193184D01*
X18987103Y-20149956D01*
X18915217Y-20120180D01*
X18838904Y-20105000D01*
X18761096Y-20105000D01*
X18684783Y-20120180D01*
X18612897Y-20149956D01*
X18548202Y-20193184D01*
X18493184Y-20248202D01*
X18449956Y-20312897D01*
X18420180Y-20384783D01*
X18405000Y-20461096D01*
X16065000Y-20461096D01*
X16065000Y-18789176D01*
X16070180Y-18815217D01*
X16099956Y-18887103D01*
X16143184Y-18951798D01*
X16198202Y-19006816D01*
X16262897Y-19050044D01*
X16334783Y-19079820D01*
X16411096Y-19095000D01*
X16488904Y-19095000D01*
X16565217Y-19079820D01*
X16637103Y-19050044D01*
X16701798Y-19006816D01*
X16756816Y-18951798D01*
X16800044Y-18887103D01*
X16829820Y-18815217D01*
X16834264Y-18792878D01*
X16848202Y-18806816D01*
X16912897Y-18850044D01*
X16984783Y-18879820D01*
X17061096Y-18895000D01*
X17138904Y-18895000D01*
X17215217Y-18879820D01*
X17287103Y-18850044D01*
X17351798Y-18806816D01*
X17406816Y-18751798D01*
X17450044Y-18687103D01*
X17479820Y-18615217D01*
X17495000Y-18538904D01*
X17495000Y-18461096D01*
X17479820Y-18384783D01*
X17450044Y-18312897D01*
X17406816Y-18248202D01*
X17351798Y-18193184D01*
X17287103Y-18149956D01*
X17215217Y-18120180D01*
X17138904Y-18105000D01*
X17061096Y-18105000D01*
X16984783Y-18120180D01*
X16912897Y-18149956D01*
X16848202Y-18193184D01*
X16793184Y-18248202D01*
X16749956Y-18312897D01*
X16720180Y-18384783D01*
X16715736Y-18407122D01*
X16701798Y-18393184D01*
X16637103Y-18349956D01*
X16565217Y-18320180D01*
X16488904Y-18305000D01*
X16411096Y-18305000D01*
X16334783Y-18320180D01*
X16262897Y-18349956D01*
X16198202Y-18393184D01*
X16143184Y-18448202D01*
X16099956Y-18512897D01*
X16070180Y-18584783D01*
X16065000Y-18610824D01*
X16065000Y-16065000D01*
X23129057Y-16065000D01*
X23129057Y-16245000D01*
G37*
X23129057Y-16245000D02*
X23132822Y-16283227D01*
X23143972Y-16319984D01*
X23162079Y-16353860D01*
X23180000Y-16375698D01*
X23180001Y-16884302D01*
X23162079Y-16906140D01*
X23143972Y-16940016D01*
X23132822Y-16976773D01*
X23129057Y-17015000D01*
X23129057Y-17515000D01*
X23132822Y-17553227D01*
X23143972Y-17589984D01*
X23162079Y-17623860D01*
X23180000Y-17645698D01*
X23180001Y-18154302D01*
X23162079Y-18176140D01*
X23143972Y-18210016D01*
X23132822Y-18246773D01*
X23129057Y-18285000D01*
X23129057Y-18785000D01*
X23132822Y-18823227D01*
X23143972Y-18859984D01*
X23162079Y-18893860D01*
X23186447Y-18923553D01*
X23216140Y-18947921D01*
X23250016Y-18966028D01*
X23286773Y-18977178D01*
X23325000Y-18980943D01*
X23394890Y-18980943D01*
X23431794Y-19011230D01*
X23530816Y-19064158D01*
X23618964Y-19090898D01*
X23605000Y-19161096D01*
X23605000Y-19238904D01*
X23620180Y-19315217D01*
X23632243Y-19344339D01*
X23534264Y-19246361D01*
X23532493Y-19237456D01*
X23502717Y-19165570D01*
X23459489Y-19100875D01*
X23404471Y-19045857D01*
X23339776Y-19002629D01*
X23267890Y-18972853D01*
X23191577Y-18957673D01*
X23113769Y-18957673D01*
X23037456Y-18972853D01*
X22965570Y-19002629D01*
X22900875Y-19045857D01*
X22845857Y-19100875D01*
X22802629Y-19165570D01*
X22788108Y-19200627D01*
X22787103Y-19199956D01*
X22715217Y-19170180D01*
X22639718Y-19155162D01*
X22640890Y-19155162D01*
X22717203Y-19139982D01*
X22789089Y-19110206D01*
X22853784Y-19066978D01*
X22908802Y-19011960D01*
X22952030Y-18947265D01*
X22981806Y-18875379D01*
X22996986Y-18799066D01*
X22996986Y-18721258D01*
X22981806Y-18644945D01*
X22952030Y-18573059D01*
X22908802Y-18508364D01*
X22853784Y-18453346D01*
X22839101Y-18443535D01*
X22850044Y-18427158D01*
X22879820Y-18355272D01*
X22895000Y-18278959D01*
X22895000Y-18201151D01*
X22879820Y-18124838D01*
X22850044Y-18052952D01*
X22806816Y-17988257D01*
X22751798Y-17933239D01*
X22687103Y-17890011D01*
X22615217Y-17860235D01*
X22538904Y-17845055D01*
X22461096Y-17845055D01*
X22384783Y-17860235D01*
X22312897Y-17890011D01*
X22248202Y-17933239D01*
X22193184Y-17988257D01*
X22149956Y-18052952D01*
X22120180Y-18124838D01*
X22105000Y-18201151D01*
X22105000Y-18278959D01*
X22120180Y-18355272D01*
X22149956Y-18427158D01*
X22193184Y-18491853D01*
X22248202Y-18546871D01*
X22262885Y-18556682D01*
X22251942Y-18573059D01*
X22222166Y-18644945D01*
X22206986Y-18721258D01*
X22206986Y-18799066D01*
X22222166Y-18875379D01*
X22251942Y-18947265D01*
X22295170Y-19011960D01*
X22350188Y-19066978D01*
X22414883Y-19110206D01*
X22486769Y-19139982D01*
X22562268Y-19155000D01*
X22561096Y-19155000D01*
X22484783Y-19170180D01*
X22412897Y-19199956D01*
X22348202Y-19243184D01*
X22293184Y-19298202D01*
X22249956Y-19362897D01*
X22220180Y-19434783D01*
X22205000Y-19511096D01*
X22205000Y-19588904D01*
X22220180Y-19665217D01*
X22249956Y-19737103D01*
X22293184Y-19801798D01*
X22348202Y-19856816D01*
X22412897Y-19900044D01*
X22484783Y-19929820D01*
X22561096Y-19945000D01*
X22638904Y-19945000D01*
X22715217Y-19929820D01*
X22787103Y-19900044D01*
X22851798Y-19856816D01*
X22906816Y-19801798D01*
X22950044Y-19737103D01*
X22964565Y-19702046D01*
X22965570Y-19702717D01*
X23037456Y-19732493D01*
X23046361Y-19734264D01*
X23129057Y-19816960D01*
X23129057Y-20055000D01*
X23132822Y-20093227D01*
X23143972Y-20129984D01*
X23162079Y-20163860D01*
X23186447Y-20193553D01*
X23216140Y-20217921D01*
X23250016Y-20236028D01*
X23286773Y-20247178D01*
X23325000Y-20250943D01*
X24175000Y-20250943D01*
X24213227Y-20247178D01*
X24249984Y-20236028D01*
X24283860Y-20217921D01*
X24313553Y-20193553D01*
X24337921Y-20163860D01*
X24356028Y-20129984D01*
X24367178Y-20093227D01*
X24370943Y-20055000D01*
X24370943Y-19555000D01*
X24367178Y-19516773D01*
X24356028Y-19480016D01*
X24337921Y-19446140D01*
X24322860Y-19427787D01*
X24350044Y-19387103D01*
X24379820Y-19315217D01*
X24395000Y-19238904D01*
X24395000Y-19161096D01*
X24379820Y-19084783D01*
X24350044Y-19012897D01*
X24306816Y-18948202D01*
X24296314Y-18937700D01*
X24313553Y-18923553D01*
X24337921Y-18893860D01*
X24356028Y-18859984D01*
X24367178Y-18823227D01*
X24370943Y-18785000D01*
X24370943Y-18285000D01*
X24367178Y-18246773D01*
X24356028Y-18210016D01*
X24337921Y-18176140D01*
X24320000Y-18154303D01*
X24320000Y-17645697D01*
X24337921Y-17623860D01*
X24356028Y-17589984D01*
X24367178Y-17553227D01*
X24370943Y-17515000D01*
X24370943Y-17372011D01*
X24412897Y-17400044D01*
X24484783Y-17429820D01*
X24561096Y-17445000D01*
X24638904Y-17445000D01*
X24715217Y-17429820D01*
X24787103Y-17400044D01*
X24851798Y-17356816D01*
X24906816Y-17301798D01*
X24950044Y-17237103D01*
X24979820Y-17165217D01*
X24981591Y-17156312D01*
X25096961Y-17040943D01*
X25625000Y-17040943D01*
X25663227Y-17037178D01*
X25699984Y-17026028D01*
X25733860Y-17007921D01*
X25763553Y-16983553D01*
X25787921Y-16953860D01*
X25806028Y-16919984D01*
X25807856Y-16913957D01*
X25942679Y-17048780D01*
X25954263Y-17062895D01*
X26010603Y-17109132D01*
X26074880Y-17143489D01*
X26144625Y-17164646D01*
X26198984Y-17170000D01*
X26198993Y-17170000D01*
X26217157Y-17171789D01*
X26235321Y-17170000D01*
X26435000Y-17170000D01*
X26435000Y-18360824D01*
X26429820Y-18334783D01*
X26400044Y-18262897D01*
X26356816Y-18198202D01*
X26301798Y-18143184D01*
X26237103Y-18099956D01*
X26165217Y-18070180D01*
X26088904Y-18055000D01*
X26011096Y-18055000D01*
X25934783Y-18070180D01*
X25862897Y-18099956D01*
X25798202Y-18143184D01*
X25743184Y-18198202D01*
X25699956Y-18262897D01*
X25670180Y-18334783D01*
X25655000Y-18411096D01*
X25655000Y-18488904D01*
X25670180Y-18565217D01*
X25699956Y-18637103D01*
X25743184Y-18701798D01*
X25798202Y-18756816D01*
X25862897Y-18800044D01*
X25934783Y-18829820D01*
X26011096Y-18845000D01*
X26088904Y-18845000D01*
X26165217Y-18829820D01*
X26237103Y-18800044D01*
X26301798Y-18756816D01*
X26356816Y-18701798D01*
X26400044Y-18637103D01*
X26429820Y-18565217D01*
X26435000Y-18539176D01*
X26435000Y-19360824D01*
X26429820Y-19334783D01*
X26400044Y-19262897D01*
X26356816Y-19198202D01*
X26301798Y-19143184D01*
X26237103Y-19099956D01*
X26165217Y-19070180D01*
X26088904Y-19055000D01*
X26011096Y-19055000D01*
X25934783Y-19070180D01*
X25862897Y-19099956D01*
X25798202Y-19143184D01*
X25743184Y-19198202D01*
X25699956Y-19262897D01*
X25670180Y-19334783D01*
X25655000Y-19411096D01*
X25655000Y-19488904D01*
X25670180Y-19565217D01*
X25699956Y-19637103D01*
X25743184Y-19701798D01*
X25798202Y-19756816D01*
X25862897Y-19800044D01*
X25934783Y-19829820D01*
X26011096Y-19845000D01*
X26088904Y-19845000D01*
X26165217Y-19829820D01*
X26237103Y-19800044D01*
X26301798Y-19756816D01*
X26356816Y-19701798D01*
X26400044Y-19637103D01*
X26429820Y-19565217D01*
X26435000Y-19539176D01*
X26435000Y-20935000D01*
X26039809Y-20935000D01*
X26029820Y-20884783D01*
X26000044Y-20812897D01*
X25956816Y-20748202D01*
X25901798Y-20693184D01*
X25837103Y-20649956D01*
X25765217Y-20620180D01*
X25688904Y-20605000D01*
X25611096Y-20605000D01*
X25534783Y-20620180D01*
X25462897Y-20649956D01*
X25398202Y-20693184D01*
X25343184Y-20748202D01*
X25299956Y-20812897D01*
X25270180Y-20884783D01*
X25260191Y-20935000D01*
X17284057Y-20935000D01*
X17281028Y-20925016D01*
X17262921Y-20891140D01*
X17238553Y-20861447D01*
X17208860Y-20837079D01*
X17174984Y-20818972D01*
X17138227Y-20807822D01*
X17100000Y-20804057D01*
X16065000Y-20804057D01*
X16065000Y-20461096D01*
X18405000Y-20461096D01*
X18405000Y-20538904D01*
X18420180Y-20615217D01*
X18449956Y-20687103D01*
X18493184Y-20751798D01*
X18548202Y-20806816D01*
X18612897Y-20850044D01*
X18684783Y-20879820D01*
X18761096Y-20895000D01*
X18838904Y-20895000D01*
X18915217Y-20879820D01*
X18987103Y-20850044D01*
X19051798Y-20806816D01*
X19106816Y-20751798D01*
X19150044Y-20687103D01*
X19179820Y-20615217D01*
X19195000Y-20538904D01*
X19195000Y-20461096D01*
X19179820Y-20384783D01*
X19150044Y-20312897D01*
X19106816Y-20248202D01*
X19051798Y-20193184D01*
X18987103Y-20149956D01*
X18915217Y-20120180D01*
X18838904Y-20105000D01*
X18761096Y-20105000D01*
X18684783Y-20120180D01*
X18612897Y-20149956D01*
X18548202Y-20193184D01*
X18493184Y-20248202D01*
X18449956Y-20312897D01*
X18420180Y-20384783D01*
X18405000Y-20461096D01*
X16065000Y-20461096D01*
X16065000Y-18789176D01*
X16070180Y-18815217D01*
X16099956Y-18887103D01*
X16143184Y-18951798D01*
X16198202Y-19006816D01*
X16262897Y-19050044D01*
X16334783Y-19079820D01*
X16411096Y-19095000D01*
X16488904Y-19095000D01*
X16565217Y-19079820D01*
X16637103Y-19050044D01*
X16701798Y-19006816D01*
X16756816Y-18951798D01*
X16800044Y-18887103D01*
X16829820Y-18815217D01*
X16834264Y-18792878D01*
X16848202Y-18806816D01*
X16912897Y-18850044D01*
X16984783Y-18879820D01*
X17061096Y-18895000D01*
X17138904Y-18895000D01*
X17215217Y-18879820D01*
X17287103Y-18850044D01*
X17351798Y-18806816D01*
X17406816Y-18751798D01*
X17450044Y-18687103D01*
X17479820Y-18615217D01*
X17495000Y-18538904D01*
X17495000Y-18461096D01*
X17479820Y-18384783D01*
X17450044Y-18312897D01*
X17406816Y-18248202D01*
X17351798Y-18193184D01*
X17287103Y-18149956D01*
X17215217Y-18120180D01*
X17138904Y-18105000D01*
X17061096Y-18105000D01*
X16984783Y-18120180D01*
X16912897Y-18149956D01*
X16848202Y-18193184D01*
X16793184Y-18248202D01*
X16749956Y-18312897D01*
X16720180Y-18384783D01*
X16715736Y-18407122D01*
X16701798Y-18393184D01*
X16637103Y-18349956D01*
X16565217Y-18320180D01*
X16488904Y-18305000D01*
X16411096Y-18305000D01*
X16334783Y-18320180D01*
X16262897Y-18349956D01*
X16198202Y-18393184D01*
X16143184Y-18448202D01*
X16099956Y-18512897D01*
X16070180Y-18584783D01*
X16065000Y-18610824D01*
X16065000Y-16065000D01*
X23129057Y-16065000D01*
X23129057Y-16245000D01*
%TO.N,V*%
G36*
X18649956Y-21612897D02*
G01*
X18620180Y-21684783D01*
X18605000Y-21761096D01*
X18605000Y-21838904D01*
X18620180Y-21915217D01*
X18649956Y-21987103D01*
X18693184Y-22051798D01*
X18748202Y-22106816D01*
X18812897Y-22150044D01*
X18884783Y-22179820D01*
X18961096Y-22195000D01*
X19038904Y-22195000D01*
X19115217Y-22179820D01*
X19187103Y-22150044D01*
X19251798Y-22106816D01*
X19306816Y-22051798D01*
X19350044Y-21987103D01*
X19379820Y-21915217D01*
X19395000Y-21838904D01*
X19395000Y-21761096D01*
X19379820Y-21684783D01*
X19350044Y-21612897D01*
X19318040Y-21565000D01*
X23568596Y-21565000D01*
X23593184Y-21601798D01*
X23648202Y-21656816D01*
X23712897Y-21700044D01*
X23774073Y-21725384D01*
X23770180Y-21734783D01*
X23755000Y-21811096D01*
X23755000Y-21888904D01*
X23770180Y-21965217D01*
X23799956Y-22037103D01*
X23843184Y-22101798D01*
X23898202Y-22156816D01*
X23962897Y-22200044D01*
X24034783Y-22229820D01*
X24111096Y-22245000D01*
X24188904Y-22245000D01*
X24265217Y-22229820D01*
X24337103Y-22200044D01*
X24401798Y-22156816D01*
X24456816Y-22101798D01*
X24500044Y-22037103D01*
X24529820Y-21965217D01*
X24545000Y-21888904D01*
X24545000Y-21811096D01*
X24529820Y-21734783D01*
X24500044Y-21662897D01*
X24456816Y-21598202D01*
X24423614Y-21565000D01*
X25526386Y-21565000D01*
X25493184Y-21598202D01*
X25449956Y-21662897D01*
X25420180Y-21734783D01*
X25405000Y-21811096D01*
X25405000Y-21888904D01*
X25420180Y-21965217D01*
X25449956Y-22037103D01*
X25493184Y-22101798D01*
X25548202Y-22156816D01*
X25612897Y-22200044D01*
X25684783Y-22229820D01*
X25761096Y-22245000D01*
X25838904Y-22245000D01*
X25915217Y-22229820D01*
X25987103Y-22200044D01*
X26051798Y-22156816D01*
X26106816Y-22101798D01*
X26150044Y-22037103D01*
X26179820Y-21965217D01*
X26195000Y-21888904D01*
X26195000Y-21811096D01*
X26179820Y-21734783D01*
X26150044Y-21662897D01*
X26106816Y-21598202D01*
X26073614Y-21565000D01*
X27617562Y-21565000D01*
X27645641Y-21632788D01*
X27688869Y-21697483D01*
X27743887Y-21752501D01*
X27808582Y-21795729D01*
X27880468Y-21825505D01*
X27956781Y-21840685D01*
X28034589Y-21840685D01*
X28110902Y-21825505D01*
X28182788Y-21795729D01*
X28247483Y-21752501D01*
X28270685Y-21729299D01*
X28298202Y-21756816D01*
X28362897Y-21800044D01*
X28434783Y-21829820D01*
X28511096Y-21845000D01*
X28588904Y-21845000D01*
X28665217Y-21829820D01*
X28737103Y-21800044D01*
X28801798Y-21756816D01*
X28825000Y-21733614D01*
X28848202Y-21756816D01*
X28912897Y-21800044D01*
X28984783Y-21829820D01*
X29061096Y-21845000D01*
X29138904Y-21845000D01*
X29215217Y-21829820D01*
X29287103Y-21800044D01*
X29351798Y-21756816D01*
X29406816Y-21701798D01*
X29450044Y-21637103D01*
X29479820Y-21565217D01*
X29479863Y-21565000D01*
X29820137Y-21565000D01*
X29820180Y-21565217D01*
X29849956Y-21637103D01*
X29893184Y-21701798D01*
X29948202Y-21756816D01*
X30012897Y-21800044D01*
X30084783Y-21829820D01*
X30161096Y-21845000D01*
X30238904Y-21845000D01*
X30315217Y-21829820D01*
X30387103Y-21800044D01*
X30451798Y-21756816D01*
X30506816Y-21701798D01*
X30550044Y-21637103D01*
X30579820Y-21565217D01*
X30579863Y-21565000D01*
X33435000Y-21565000D01*
X33435000Y-22449004D01*
X33420180Y-22484783D01*
X33405000Y-22561096D01*
X33405000Y-22638904D01*
X33420180Y-22715217D01*
X33435000Y-22750996D01*
X33435000Y-23435000D01*
X26430102Y-23435000D01*
X26326841Y-23331739D01*
X26308992Y-23309990D01*
X26222199Y-23238760D01*
X26123177Y-23185832D01*
X26015731Y-23153238D01*
X25931985Y-23144990D01*
X25931975Y-23144990D01*
X25903992Y-23142234D01*
X25876009Y-23144990D01*
X20212992Y-23144990D01*
X20185009Y-23142234D01*
X20157026Y-23144990D01*
X20157017Y-23144990D01*
X20073271Y-23153238D01*
X19965825Y-23185832D01*
X19866803Y-23238760D01*
X19866801Y-23238761D01*
X19866802Y-23238761D01*
X19801752Y-23292146D01*
X19801749Y-23292149D01*
X19780010Y-23309990D01*
X19762168Y-23331730D01*
X19658899Y-23435000D01*
X17065000Y-23435000D01*
X17065000Y-21565000D01*
X18681960Y-21565000D01*
X18649956Y-21612897D01*
G37*
X18649956Y-21612897D02*
X18620180Y-21684783D01*
X18605000Y-21761096D01*
X18605000Y-21838904D01*
X18620180Y-21915217D01*
X18649956Y-21987103D01*
X18693184Y-22051798D01*
X18748202Y-22106816D01*
X18812897Y-22150044D01*
X18884783Y-22179820D01*
X18961096Y-22195000D01*
X19038904Y-22195000D01*
X19115217Y-22179820D01*
X19187103Y-22150044D01*
X19251798Y-22106816D01*
X19306816Y-22051798D01*
X19350044Y-21987103D01*
X19379820Y-21915217D01*
X19395000Y-21838904D01*
X19395000Y-21761096D01*
X19379820Y-21684783D01*
X19350044Y-21612897D01*
X19318040Y-21565000D01*
X23568596Y-21565000D01*
X23593184Y-21601798D01*
X23648202Y-21656816D01*
X23712897Y-21700044D01*
X23774073Y-21725384D01*
X23770180Y-21734783D01*
X23755000Y-21811096D01*
X23755000Y-21888904D01*
X23770180Y-21965217D01*
X23799956Y-22037103D01*
X23843184Y-22101798D01*
X23898202Y-22156816D01*
X23962897Y-22200044D01*
X24034783Y-22229820D01*
X24111096Y-22245000D01*
X24188904Y-22245000D01*
X24265217Y-22229820D01*
X24337103Y-22200044D01*
X24401798Y-22156816D01*
X24456816Y-22101798D01*
X24500044Y-22037103D01*
X24529820Y-21965217D01*
X24545000Y-21888904D01*
X24545000Y-21811096D01*
X24529820Y-21734783D01*
X24500044Y-21662897D01*
X24456816Y-21598202D01*
X24423614Y-21565000D01*
X25526386Y-21565000D01*
X25493184Y-21598202D01*
X25449956Y-21662897D01*
X25420180Y-21734783D01*
X25405000Y-21811096D01*
X25405000Y-21888904D01*
X25420180Y-21965217D01*
X25449956Y-22037103D01*
X25493184Y-22101798D01*
X25548202Y-22156816D01*
X25612897Y-22200044D01*
X25684783Y-22229820D01*
X25761096Y-22245000D01*
X25838904Y-22245000D01*
X25915217Y-22229820D01*
X25987103Y-22200044D01*
X26051798Y-22156816D01*
X26106816Y-22101798D01*
X26150044Y-22037103D01*
X26179820Y-21965217D01*
X26195000Y-21888904D01*
X26195000Y-21811096D01*
X26179820Y-21734783D01*
X26150044Y-21662897D01*
X26106816Y-21598202D01*
X26073614Y-21565000D01*
X27617562Y-21565000D01*
X27645641Y-21632788D01*
X27688869Y-21697483D01*
X27743887Y-21752501D01*
X27808582Y-21795729D01*
X27880468Y-21825505D01*
X27956781Y-21840685D01*
X28034589Y-21840685D01*
X28110902Y-21825505D01*
X28182788Y-21795729D01*
X28247483Y-21752501D01*
X28270685Y-21729299D01*
X28298202Y-21756816D01*
X28362897Y-21800044D01*
X28434783Y-21829820D01*
X28511096Y-21845000D01*
X28588904Y-21845000D01*
X28665217Y-21829820D01*
X28737103Y-21800044D01*
X28801798Y-21756816D01*
X28825000Y-21733614D01*
X28848202Y-21756816D01*
X28912897Y-21800044D01*
X28984783Y-21829820D01*
X29061096Y-21845000D01*
X29138904Y-21845000D01*
X29215217Y-21829820D01*
X29287103Y-21800044D01*
X29351798Y-21756816D01*
X29406816Y-21701798D01*
X29450044Y-21637103D01*
X29479820Y-21565217D01*
X29479863Y-21565000D01*
X29820137Y-21565000D01*
X29820180Y-21565217D01*
X29849956Y-21637103D01*
X29893184Y-21701798D01*
X29948202Y-21756816D01*
X30012897Y-21800044D01*
X30084783Y-21829820D01*
X30161096Y-21845000D01*
X30238904Y-21845000D01*
X30315217Y-21829820D01*
X30387103Y-21800044D01*
X30451798Y-21756816D01*
X30506816Y-21701798D01*
X30550044Y-21637103D01*
X30579820Y-21565217D01*
X30579863Y-21565000D01*
X33435000Y-21565000D01*
X33435000Y-22449004D01*
X33420180Y-22484783D01*
X33405000Y-22561096D01*
X33405000Y-22638904D01*
X33420180Y-22715217D01*
X33435000Y-22750996D01*
X33435000Y-23435000D01*
X26430102Y-23435000D01*
X26326841Y-23331739D01*
X26308992Y-23309990D01*
X26222199Y-23238760D01*
X26123177Y-23185832D01*
X26015731Y-23153238D01*
X25931985Y-23144990D01*
X25931975Y-23144990D01*
X25903992Y-23142234D01*
X25876009Y-23144990D01*
X20212992Y-23144990D01*
X20185009Y-23142234D01*
X20157026Y-23144990D01*
X20157017Y-23144990D01*
X20073271Y-23153238D01*
X19965825Y-23185832D01*
X19866803Y-23238760D01*
X19866801Y-23238761D01*
X19866802Y-23238761D01*
X19801752Y-23292146D01*
X19801749Y-23292149D01*
X19780010Y-23309990D01*
X19762168Y-23331730D01*
X19658899Y-23435000D01*
X17065000Y-23435000D01*
X17065000Y-21565000D01*
X18681960Y-21565000D01*
X18649956Y-21612897D01*
%TD*%
M02*
