%TF.GenerationSoftware,KiCad,Pcbnew,(5.1.6)-1*%
%TF.CreationDate,2020-10-08T19:10:47-07:00*%
%TF.ProjectId,SinESC-Multi-2.3B,53696e45-5343-42d4-9d75-6c74692d322e,2.3B*%
%TF.SameCoordinates,Original*%
%TF.FileFunction,Legend,Bot*%
%TF.FilePolarity,Positive*%
%FSLAX46Y46*%
G04 Gerber Fmt 4.6, Leading zero omitted, Abs format (unit mm)*
G04 Created by KiCad (PCBNEW (5.1.6)-1) date 2020-10-08 19:10:47*
%MOMM*%
%LPD*%
G01*
G04 APERTURE LIST*
%ADD10C,0.150000*%
%ADD11C,0.120000*%
G04 APERTURE END LIST*
D10*
X43871428Y-25769047D02*
X43871428Y-26530952D01*
X43878571Y-19180952D02*
X43878571Y-18419047D01*
X43497619Y-18800000D02*
X44259523Y-18800000D01*
D11*
%TO.C,R12*%
X41060000Y-25447936D02*
X41060000Y-26652064D01*
X39240000Y-25447936D02*
X39240000Y-26652064D01*
%TO.C,Q3*%
X38410000Y-21985000D02*
X38410000Y-22285000D01*
X38410000Y-17215000D02*
X38410000Y-16915000D01*
X32290000Y-17265000D02*
X32290000Y-16915000D01*
X38410000Y-22285000D02*
X32290000Y-22285000D01*
X38410000Y-16915000D02*
X32290000Y-16915000D01*
%TO.C,Q1*%
X31160000Y-20885000D02*
X31160000Y-21185000D01*
X31160000Y-16115000D02*
X31160000Y-15815000D01*
X25040000Y-16165000D02*
X25040000Y-15815000D01*
X31160000Y-21185000D02*
X25040000Y-21185000D01*
X31160000Y-15815000D02*
X25040000Y-15815000D01*
%TO.C,Q2*%
X17790000Y-15515000D02*
X17790000Y-15215000D01*
X17790000Y-20285000D02*
X17790000Y-20585000D01*
X23910000Y-20235000D02*
X23910000Y-20585000D01*
X17790000Y-15215000D02*
X23910000Y-15215000D01*
X17790000Y-20585000D02*
X23910000Y-20585000D01*
%TO.C,Q4*%
X32290000Y-23015000D02*
X32290000Y-22715000D01*
X32290000Y-27785000D02*
X32290000Y-28085000D01*
X38410000Y-27735000D02*
X38410000Y-28085000D01*
X32290000Y-22715000D02*
X38410000Y-22715000D01*
X32290000Y-28085000D02*
X38410000Y-28085000D01*
%TO.C,Q5*%
X31160000Y-28885000D02*
X31160000Y-29185000D01*
X31160000Y-24115000D02*
X31160000Y-23815000D01*
X25040000Y-24165000D02*
X25040000Y-23815000D01*
X31160000Y-29185000D02*
X25040000Y-29185000D01*
X31160000Y-23815000D02*
X25040000Y-23815000D01*
%TO.C,Q6*%
X17790000Y-24115000D02*
X17790000Y-23815000D01*
X17790000Y-28885000D02*
X17790000Y-29185000D01*
X23910000Y-28835000D02*
X23910000Y-29185000D01*
X17790000Y-23815000D02*
X23910000Y-23815000D01*
X17790000Y-29185000D02*
X23910000Y-29185000D01*
%TO.C,R3*%
X39240000Y-19652064D02*
X39240000Y-18447936D01*
X41060000Y-19652064D02*
X41060000Y-18447936D01*
%TO.C,R7*%
X41902064Y-23460000D02*
X40697936Y-23460000D01*
X41902064Y-21640000D02*
X40697936Y-21640000D01*
%TD*%
M02*
