G04 Layer: BottomSilkLayer*
G04 EasyEDA v6.4.4, 2020-08-18T00:36:11--7:00*
G04 995102e80ca04af79c8c3c359321127d,ec5ec94f42e349aabe65ed7a530a4b72,10*
G04 Gerber Generator version 0.2*
G04 Scale: 100 percent, Rotated: No, Reflected: No *
G04 Dimensions in millimeters *
G04 leading zeros omitted , absolute positions ,3 integer and 3 decimal *
%FSLAX33Y33*%
%MOMM*%
G90*
G71D02*

%ADD10C,0.254000*%
%ADD11C,0.150012*%
%ADD13C,0.100000*%
%ADD57C,0.200660*%
%ADD64C,0.200000*%
%ADD65C,0.099060*%

%LPD*%
G54D10*
G01X30451Y11399D02*
G01X30451Y12999D01*
G01X26951Y11399D02*
G01X26951Y12999D01*
G01X29201Y13239D02*
G01X30251Y13239D01*
G01X29201Y11159D02*
G01X30251Y11159D01*
G01X28201Y13239D02*
G01X27151Y13239D01*
G01X28201Y11159D02*
G01X27151Y11159D01*
G01X26951Y11379D02*
G01X26951Y11399D01*
G01X26951Y11359D02*
G01X26951Y11399D01*
G01X26951Y13039D02*
G01X26951Y12999D01*
G01X30451Y11359D02*
G01X30451Y11399D01*
G01X30451Y13039D02*
G01X30451Y12999D01*
G01X31299Y17150D02*
G01X29699Y17150D01*
G01X31299Y13649D02*
G01X29699Y13650D01*
G01X29459Y15900D02*
G01X29459Y16950D01*
G01X31539Y15900D02*
G01X31539Y16950D01*
G01X29459Y14900D02*
G01X29459Y13850D01*
G01X31539Y14900D02*
G01X31539Y13850D01*
G01X31319Y13649D02*
G01X31299Y13649D01*
G01X31339Y13649D02*
G01X31299Y13649D01*
G01X29659Y13650D02*
G01X29699Y13650D01*
G01X31339Y17150D02*
G01X31299Y17150D01*
G01X29659Y17150D02*
G01X29699Y17150D01*
G01X26599Y299D02*
G01X26599Y2699D01*
G01X30099Y2699D02*
G01X31599Y2699D01*
G01X30099Y299D02*
G01X31599Y299D01*
G01X28099Y2699D02*
G01X26599Y2699D01*
G01X28099Y299D02*
G01X26599Y299D01*
G01X31599Y299D02*
G01X31599Y2699D01*
G01X18199Y13399D02*
G01X18199Y15799D01*
G01X21699Y15799D02*
G01X23199Y15799D01*
G01X21699Y13399D02*
G01X23199Y13399D01*
G01X19699Y15799D02*
G01X18199Y15799D01*
G01X19699Y13399D02*
G01X18199Y13399D01*
G01X23199Y13399D02*
G01X23199Y15799D01*
G01X24099Y13699D02*
G01X24099Y16099D01*
G01X27599Y16099D02*
G01X29099Y16099D01*
G01X27599Y13699D02*
G01X29099Y13699D01*
G01X25599Y16099D02*
G01X24099Y16099D01*
G01X25599Y13699D02*
G01X24099Y13699D01*
G01X29099Y13699D02*
G01X29099Y16099D01*
G54D57*
G01X30487Y3626D02*
G01X30886Y3626D01*
G01X30886Y4101D01*
G01X27937Y3626D02*
G01X27538Y3626D01*
G01X27538Y4101D01*
G01X27538Y6498D02*
G01X27538Y6973D01*
G01X27937Y6973D01*
G01X30487Y6973D02*
G01X30886Y6973D01*
G01X30886Y6498D01*
G54D10*
G01X4002Y11807D02*
G01X9997Y11807D01*
G01X9997Y17192D02*
G01X4002Y17192D01*
G01X4002Y15740D02*
G01X4002Y15799D01*
G01X4002Y17010D02*
G01X4002Y17192D01*
G01X9997Y11807D02*
G01X9997Y11868D01*
G01X9997Y17131D02*
G01X9997Y17192D01*
G01X17297Y15792D02*
G01X11302Y15792D01*
G01X11302Y10407D02*
G01X17297Y10407D01*
G01X17297Y11859D02*
G01X17297Y11800D01*
G01X17297Y10589D02*
G01X17297Y10407D01*
G01X11302Y15792D02*
G01X11302Y15731D01*
G01X11302Y10468D02*
G01X11302Y10407D01*
G01X10807Y8497D02*
G01X10807Y2502D01*
G01X16192Y2502D02*
G01X16192Y8497D01*
G01X14740Y8497D02*
G01X14799Y8497D01*
G01X16010Y8497D02*
G01X16192Y8497D01*
G01X10807Y2502D02*
G01X10868Y2502D01*
G01X16131Y2502D02*
G01X16192Y2502D01*
G01X24997Y12992D02*
G01X19002Y12992D01*
G01X19002Y7607D02*
G01X24997Y7607D01*
G01X24997Y9059D02*
G01X24997Y9000D01*
G01X24997Y7789D02*
G01X24997Y7607D01*
G01X19002Y12992D02*
G01X19002Y12931D01*
G01X19002Y7668D02*
G01X19002Y7607D01*
G01X3602Y1807D02*
G01X9597Y1807D01*
G01X9597Y7192D02*
G01X3602Y7192D01*
G01X3602Y5740D02*
G01X3602Y5799D01*
G01X3602Y7010D02*
G01X3602Y7192D01*
G01X9597Y1807D02*
G01X9597Y1868D01*
G01X9597Y7131D02*
G01X9597Y7192D01*
G01X23997Y5692D02*
G01X18002Y5692D01*
G01X18002Y307D02*
G01X23997Y307D01*
G01X23997Y1759D02*
G01X23997Y1700D01*
G01X23997Y489D02*
G01X23997Y307D01*
G01X18002Y5692D02*
G01X18002Y5631D01*
G01X18002Y368D02*
G01X18002Y307D01*
G01X32908Y8300D02*
G01X31892Y8706D01*
G01X31892Y8706D02*
G01X31892Y7893D01*
G01X31892Y7893D02*
G01X32908Y8300D01*
G01X33900Y9300D02*
G01X30900Y9300D01*
G01X33900Y7300D02*
G01X30900Y7300D01*
G01X32908Y8808D02*
G01X32908Y7792D01*
G01X33162Y8300D02*
G01X31638Y8300D01*
G54D13*
G01X26900Y9619D02*
G01X27400Y9619D01*
G01X26900Y9619D02*
G01X26900Y10380D01*
G01X26900Y10380D02*
G01X27400Y10380D01*
G01X27600Y10380D02*
G01X28100Y10380D01*
G01X28100Y9619D02*
G01X28100Y10380D01*
G01X27600Y9619D02*
G01X28100Y9619D01*
G01X29500Y9480D02*
G01X29000Y9480D01*
G01X29500Y9480D02*
G01X29500Y8719D01*
G01X29500Y8719D02*
G01X29000Y8719D01*
G01X28800Y8719D02*
G01X28300Y8719D01*
G01X28300Y9480D02*
G01X28300Y8719D01*
G01X28800Y9480D02*
G01X28300Y9480D01*
G01X29980Y9600D02*
G01X29980Y10100D01*
G01X29980Y9600D02*
G01X29220Y9600D01*
G01X29220Y9600D02*
G01X29220Y10100D01*
G01X29220Y10300D02*
G01X29220Y10800D01*
G01X29980Y10800D02*
G01X29220Y10800D01*
G01X29980Y10300D02*
G01X29980Y10800D01*
G01X29080Y9600D02*
G01X29080Y10100D01*
G01X29080Y9600D02*
G01X28320Y9600D01*
G01X28320Y9600D02*
G01X28320Y10100D01*
G01X28320Y10300D02*
G01X28320Y10800D01*
G01X29080Y10800D02*
G01X28320Y10800D01*
G01X29080Y10300D02*
G01X29080Y10800D01*
G01X28500Y7819D02*
G01X29000Y7819D01*
G01X28500Y7819D02*
G01X28500Y8580D01*
G01X28500Y8580D02*
G01X29000Y8580D01*
G01X29200Y8580D02*
G01X29700Y8580D01*
G01X29700Y7819D02*
G01X29700Y8580D01*
G01X29200Y7819D02*
G01X29700Y7819D01*
G54D11*
G01X26899Y8379D02*
G01X26899Y9000D01*
G01X26899Y8019D02*
G01X26899Y7400D01*
G01X28099Y8019D02*
G01X28099Y7400D01*
G01X27899Y7249D02*
G01X27100Y7249D01*
G01X28099Y8379D02*
G01X28099Y9000D01*
G01X27899Y9149D02*
G01X27100Y9149D01*
G01X27949Y7249D02*
G01X27899Y7249D01*
G01X27050Y7249D02*
G01X27100Y7249D01*
G01X27950Y9149D02*
G01X27899Y9149D01*
G01X27049Y9149D02*
G01X27100Y9149D01*
G01X32102Y6651D02*
G01X32541Y7090D01*
G01X31848Y6396D02*
G01X31410Y5958D01*
G01X32696Y5548D02*
G01X32258Y5110D01*
G01X32011Y5145D02*
G01X31445Y5711D01*
G01X32951Y5803D02*
G01X33389Y6241D01*
G01X33354Y6488D02*
G01X32788Y7054D01*
G01X32046Y5110D02*
G01X32011Y5145D01*
G01X31410Y5746D02*
G01X31445Y5711D01*
G01X33389Y6453D02*
G01X33354Y6488D01*
G01X32753Y7090D02*
G01X32788Y7054D01*
G54D13*
G01X30880Y10300D02*
G01X30880Y10700D01*
G01X30800Y10800D02*
G01X30200Y10800D01*
G01X30120Y10300D02*
G01X30120Y10700D01*
G01X30120Y9700D02*
G01X30120Y10100D01*
G01X30880Y9700D02*
G01X30880Y10100D01*
G01X30800Y9599D02*
G01X30200Y9599D01*
G01X30880Y10720D02*
G01X30880Y10700D01*
G01X30120Y10720D02*
G01X30120Y10700D01*
G01X30880Y9679D02*
G01X30880Y9700D01*
G01X30120Y9679D02*
G01X30120Y9700D01*
G01X27280Y5400D02*
G01X27280Y5799D01*
G01X27200Y5900D02*
G01X26600Y5900D01*
G01X26520Y5400D02*
G01X26520Y5799D01*
G01X26520Y4799D02*
G01X26520Y5200D01*
G01X27280Y4799D02*
G01X27280Y5200D01*
G01X27200Y4699D02*
G01X26600Y4699D01*
G01X27280Y5820D02*
G01X27280Y5799D01*
G01X26520Y5820D02*
G01X26520Y5799D01*
G01X27280Y4779D02*
G01X27280Y4799D01*
G01X26520Y4779D02*
G01X26520Y4799D01*
G54D64*
G01X34400Y12000D02*
G01X32200Y12000D01*
G01X34400Y9600D02*
G01X32200Y9600D01*

%LPD*%
G36*
G01X31919Y13404D02*
G01X31746Y13404D01*
G01X31746Y12835D01*
G01X31134Y12835D01*
G01X31134Y12650D01*
G01X31746Y12650D01*
G01X31746Y12081D01*
G01X31919Y12081D01*
G01X31919Y12650D01*
G01X32534Y12650D01*
G01X32534Y12835D01*
G01X31919Y12835D01*
G01X31919Y13404D01*
G37*

%LPD*%

%LPD*%
G36*
G01X31921Y4716D02*
G01X31743Y4716D01*
G01X31743Y4010D01*
G01X31921Y4010D01*
G01X31921Y4716D01*
G37*

%LPD*%
G54D10*
G75*
G01X27151Y11160D02*
G02X26951Y11360I0J200D01*
G01*
G75*
G01X27151Y13240D02*
G03X26951Y13040I0J-200D01*
G01*
G75*
G01X30251Y11160D02*
G03X30451Y11360I0J200D01*
G01*
G75*
G01X30251Y13240D02*
G02X30451Y13040I0J-200D01*
G01*
G75*
G01X31540Y13850D02*
G02X31340Y13650I-200J0D01*
G01*
G75*
G01X29460Y13850D02*
G03X29660Y13650I200J0D01*
G01*
G75*
G01X31540Y16950D02*
G03X31340Y17150I-200J0D01*
G01*
G75*
G01X29460Y16950D02*
G02X29660Y17150I200J0D01*
G01*
G54D65*
G75*
G01X30887Y3276D02*
G02X30887Y3276I0J0D01*
G01*
G54D11*
G75*
G01X28100Y7400D02*
G02X27950Y7250I-150J0D01*
G01*
G75*
G01X26900Y7400D02*
G03X27050Y7250I150J0D01*
G01*
G75*
G01X28100Y9000D02*
G03X27950Y9150I-150J0D01*
G01*
G75*
G01X26900Y9000D02*
G02X27050Y9150I150J0D01*
G01*
G75*
G01X32259Y5110D02*
G02X32046Y5110I-107J106D01*
G01*
G75*
G01X31410Y5959D02*
G03X31410Y5746I106J-106D01*
G01*
G75*
G01X33390Y6241D02*
G03X33390Y6454I-106J106D01*
G01*
G75*
G01X32541Y7090D02*
G02X32753Y7090I106J-106D01*
G01*
G54D13*
G75*
G01X30800Y10800D02*
G02X30880Y10720I0J-80D01*
G01*
G75*
G01X30200Y10800D02*
G03X30120Y10720I0J-80D01*
G01*
G75*
G01X30800Y9600D02*
G03X30880Y9680I0J80D01*
G01*
G75*
G01X30200Y9600D02*
G02X30120Y9680I0J80D01*
G01*
G75*
G01X27200Y5900D02*
G02X27280Y5820I0J-80D01*
G01*
G75*
G01X26600Y5900D02*
G03X26520Y5820I0J-80D01*
G01*
G75*
G01X27200Y4700D02*
G03X27280Y4780I0J80D01*
G01*
G75*
G01X26600Y4700D02*
G02X26520Y4780I0J80D01*
G01*
G75*
G01X3750Y11800D02*
G03X3750Y11800I-150J0D01*
G01*
G75*
G01X17850Y15800D02*
G03X17850Y15800I-150J0D01*
G01*
G75*
G01X10950Y8900D02*
G03X10950Y8900I-150J0D01*
G01*
G75*
G01X25550Y13000D02*
G03X25550Y13000I-150J0D01*
G01*
G75*
G01X3350Y1800D02*
G03X3350Y1800I-150J0D01*
G01*
G75*
G01X24550Y5700D02*
G03X24550Y5700I-150J0D01*
G01*
M00*
M02*
