;Layer: Drill PTH
;EasyEDA v6.4.4, 2020-08-18T00:36:11--7:00
;995102e80ca04af79c8c3c359321127d,ec5ec94f42e349aabe65ed7a530a4b72,10
;Gerber Generator version 0.2
M48
METRIC,LZ,000.000
;Holesize 1 = 0.200 METRIC
T01C0.200
%
G05
G90
T01
X+018100Y+007700
X+017900Y+008299
X+017119Y+011195
X+020400Y+007400
X+023450Y+000999
X+006500Y+001700
X+005800Y+001700
X+007549Y+001649
X+001999Y+005499
X+004599Y+016499
X+015500Y+008700
X+000999Y+005999
X+004400Y+006400
X+001999Y+011199
X+030999Y+005100
X+012700Y+009949
X+012299Y+009450
X+016200Y+007400
X+011500Y+010299
X+009500Y+007400
X+009700Y+010199
X+009549Y+009249
X+016299Y+003499
X+016299Y+002800
X+010599Y+005800
X+010599Y+005100
X+029699Y+001499
X+028649Y+001499
X+019749Y+007401
X+019099Y+007401
X+013500Y+001700
X+024999Y+014899
X+028999Y+000599
X+007700Y+012999
X+017500Y+014899
X+017599Y+008999
X+023100Y+013199
X+016899Y+008999
X+031599Y+013500
X+021900Y+013199
X+017299Y+007800
X+031800Y+001499
X+016299Y+007999
X+012299Y+001700
X+029600Y+012299
X+021400Y+015800
X+027399Y+013500
X+003199Y+016999
X+010299Y+012299
X+031049Y+003100
X+030199Y+013724
X+027649Y+005499
X+020349Y+015400
X+018100Y+015800
X+006949Y+009949
X+000649Y+012499
X+010800Y+015800
X+015850Y+010299
X+010649Y+003750
M30
