G04 Layer: BottomLayer*
G04 EasyEDA v6.4.4, 2020-08-18T00:36:11--7:00*
G04 995102e80ca04af79c8c3c359321127d,ec5ec94f42e349aabe65ed7a530a4b72,10*
G04 Gerber Generator version 0.2*
G04 Scale: 100 percent, Rotated: No, Reflected: No *
G04 Dimensions in millimeters *
G04 leading zeros omitted , absolute positions ,3 integer and 3 decimal *
%FSLAX33Y33*%
%MOMM*%
G90*
G71D02*

%ADD11C,0.150012*%
%ADD12C,0.299999*%
%ADD14C,0.449986*%
%ADD15C,0.450037*%
%ADD37C,0.999998*%
%ADD38C,0.750011*%
%ADD39R,2.499995X3.999992*%

%LPD*%
G36*
G01X27363Y16045D02*
G01X27156Y16045D01*
G01X27141Y16044D01*
G01X27127Y16041D01*
G01X27113Y16036D01*
G01X27101Y16029D01*
G01X27089Y16020D01*
G01X27079Y16010D01*
G01X27070Y15998D01*
G01X27063Y15986D01*
G01X27058Y15972D01*
G01X27055Y15958D01*
G01X27054Y15943D01*
G01X27054Y13914D01*
G01X27055Y13900D01*
G01X27058Y13886D01*
G01X27063Y13872D01*
G01X27070Y13859D01*
G01X27079Y13848D01*
G01X27089Y13838D01*
G01X27101Y13829D01*
G01X27113Y13822D01*
G01X27127Y13817D01*
G01X27141Y13814D01*
G01X27156Y13813D01*
G01X27174Y13814D01*
G01X27191Y13819D01*
G01X27207Y13827D01*
G01X27235Y13842D01*
G01X27264Y13854D01*
G01X27294Y13864D01*
G01X27325Y13872D01*
G01X27357Y13877D01*
G01X27371Y13879D01*
G01X27385Y13884D01*
G01X27398Y13891D01*
G01X27410Y13900D01*
G01X27421Y13910D01*
G01X27430Y13922D01*
G01X27437Y13935D01*
G01X27443Y13948D01*
G01X27446Y13963D01*
G01X27447Y13978D01*
G01X27447Y14361D01*
G01X27836Y14361D01*
G01X27836Y13797D01*
G01X27820Y13795D01*
G01X27805Y13791D01*
G01X27791Y13785D01*
G01X27778Y13776D01*
G01X27766Y13766D01*
G01X27756Y13754D01*
G01X27748Y13741D01*
G01X27742Y13726D01*
G01X27739Y13711D01*
G01X27737Y13695D01*
G01X27740Y13674D01*
G01X27746Y13654D01*
G01X27758Y13624D01*
G01X27767Y13594D01*
G01X27774Y13563D01*
G01X27778Y13531D01*
G01X27779Y13500D01*
G01X27778Y13471D01*
G01X27775Y13443D01*
G01X27770Y13415D01*
G01X27762Y13388D01*
G01X27753Y13361D01*
G01X27741Y13335D01*
G01X27728Y13310D01*
G01X27713Y13286D01*
G01X27695Y13262D01*
G01X27676Y13239D01*
G01X27654Y13218D01*
G01X27632Y13199D01*
G01X27607Y13182D01*
G01X27582Y13167D01*
G01X27555Y13153D01*
G01X27527Y13142D01*
G01X27499Y13133D01*
G01X27470Y13127D01*
G01X27455Y13123D01*
G01X27441Y13116D01*
G01X27428Y13108D01*
G01X27416Y13097D01*
G01X27406Y13085D01*
G01X27398Y13072D01*
G01X27392Y13058D01*
G01X27388Y13042D01*
G01X27387Y13027D01*
G01X27387Y12650D01*
G01X27156Y12650D01*
G01X27141Y12649D01*
G01X27127Y12646D01*
G01X27113Y12641D01*
G01X27101Y12634D01*
G01X27089Y12625D01*
G01X27079Y12615D01*
G01X27070Y12603D01*
G01X27063Y12591D01*
G01X27058Y12577D01*
G01X27055Y12563D01*
G01X27054Y12549D01*
G01X27054Y11850D01*
G01X27055Y11835D01*
G01X27058Y11821D01*
G01X27063Y11808D01*
G01X27070Y11795D01*
G01X27079Y11783D01*
G01X27089Y11773D01*
G01X27101Y11764D01*
G01X27113Y11757D01*
G01X27127Y11752D01*
G01X27141Y11749D01*
G01X27156Y11748D01*
G01X27387Y11748D01*
G01X27387Y11271D01*
G01X27201Y11271D01*
G01X27174Y11274D01*
G01X27156Y11275D01*
G01X27141Y11274D01*
G01X27127Y11271D01*
G01X27113Y11266D01*
G01X27101Y11259D01*
G01X27089Y11251D01*
G01X27079Y11240D01*
G01X27070Y11229D01*
G01X27063Y11216D01*
G01X27058Y11203D01*
G01X27055Y11188D01*
G01X27054Y11174D01*
G01X27054Y10456D01*
G01X27055Y10441D01*
G01X27058Y10427D01*
G01X27063Y10413D01*
G01X27070Y10401D01*
G01X27079Y10389D01*
G01X27089Y10379D01*
G01X27101Y10370D01*
G01X27113Y10363D01*
G01X27127Y10358D01*
G01X27141Y10355D01*
G01X27156Y10354D01*
G01X27375Y10354D01*
G01X27394Y10353D01*
G01X27414Y10349D01*
G01X27432Y10343D01*
G01X27450Y10334D01*
G01X27466Y10327D01*
G01X27482Y10323D01*
G01X27499Y10321D01*
G01X27517Y10323D01*
G01X27533Y10327D01*
G01X27549Y10334D01*
G01X27567Y10343D01*
G01X27585Y10349D01*
G01X27605Y10353D01*
G01X27624Y10354D01*
G01X27924Y10354D01*
G01X27942Y10353D01*
G01X27960Y10350D01*
G01X27977Y10345D01*
G01X27993Y10338D01*
G01X28008Y10329D01*
G01X28023Y10319D01*
G01X28036Y10307D01*
G01X28047Y10293D01*
G01X28057Y10278D01*
G01X28066Y10266D01*
G01X28076Y10255D01*
G01X28088Y10246D01*
G01X28101Y10239D01*
G01X28115Y10233D01*
G01X28130Y10230D01*
G01X28145Y10229D01*
G01X28245Y10229D01*
G01X28260Y10230D01*
G01X28274Y10233D01*
G01X28288Y10238D01*
G01X28300Y10245D01*
G01X28312Y10254D01*
G01X28322Y10264D01*
G01X28331Y10276D01*
G01X28338Y10288D01*
G01X28343Y10302D01*
G01X28346Y10316D01*
G01X28347Y10330D01*
G01X28347Y10336D01*
G01X28536Y10336D01*
G01X28536Y10331D01*
G01X28537Y10316D01*
G01X28540Y10302D01*
G01X28545Y10289D01*
G01X28552Y10276D01*
G01X28561Y10264D01*
G01X28571Y10254D01*
G01X28583Y10245D01*
G01X28595Y10238D01*
G01X28609Y10233D01*
G01X28623Y10230D01*
G01X28638Y10229D01*
G01X28761Y10229D01*
G01X28776Y10230D01*
G01X28790Y10233D01*
G01X28804Y10238D01*
G01X28816Y10245D01*
G01X28828Y10254D01*
G01X28838Y10264D01*
G01X28847Y10276D01*
G01X28854Y10289D01*
G01X28859Y10302D01*
G01X28862Y10316D01*
G01X28863Y10331D01*
G01X28863Y10336D01*
G01X29143Y10336D01*
G01X29158Y10337D01*
G01X29172Y10340D01*
G01X29186Y10345D01*
G01X29198Y10352D01*
G01X29210Y10361D01*
G01X29220Y10371D01*
G01X29229Y10383D01*
G01X29236Y10395D01*
G01X29241Y10409D01*
G01X29244Y10423D01*
G01X29245Y10437D01*
G01X29245Y10511D01*
G01X29244Y10527D01*
G01X29240Y10542D01*
G01X29235Y10556D01*
G01X29227Y10569D01*
G01X29217Y10581D01*
G01X29206Y10592D01*
G01X29218Y10601D01*
G01X29229Y10613D01*
G01X29237Y10626D01*
G01X29244Y10640D01*
G01X29248Y10655D01*
G01X29254Y10677D01*
G01X29263Y10697D01*
G01X29275Y10716D01*
G01X29284Y10730D01*
G01X29290Y10745D01*
G01X29294Y10760D01*
G01X29295Y10777D01*
G01X29295Y11168D01*
G01X29294Y11184D01*
G01X29290Y11199D01*
G01X29284Y11213D01*
G01X29276Y11227D01*
G01X29266Y11239D01*
G01X29255Y11249D01*
G01X29241Y11258D01*
G01X29227Y11264D01*
G01X29212Y11268D01*
G01X29196Y11270D01*
G01X29178Y11271D01*
G01X29160Y11275D01*
G01X29143Y11281D01*
G01X29126Y11289D01*
G01X29111Y11298D01*
G01X29097Y11310D01*
G01X29084Y11323D01*
G01X29073Y11338D01*
G01X29063Y11353D01*
G01X29056Y11370D01*
G01X29051Y11388D01*
G01X29047Y11406D01*
G01X29046Y11424D01*
G01X29046Y12974D01*
G01X29047Y12993D01*
G01X29051Y13011D01*
G01X29056Y13029D01*
G01X29064Y13046D01*
G01X29074Y13062D01*
G01X29085Y13077D01*
G01X29098Y13090D01*
G01X29113Y13101D01*
G01X29129Y13111D01*
G01X29146Y13119D01*
G01X29164Y13124D01*
G01X29182Y13128D01*
G01X29201Y13129D01*
G01X30201Y13129D01*
G01X30219Y13128D01*
G01X30238Y13124D01*
G01X30256Y13119D01*
G01X30273Y13111D01*
G01X30289Y13101D01*
G01X30303Y13090D01*
G01X30316Y13077D01*
G01X30328Y13062D01*
G01X30338Y13046D01*
G01X30345Y13029D01*
G01X30351Y13011D01*
G01X30354Y12993D01*
G01X30355Y12974D01*
G01X30355Y11424D01*
G01X30354Y11405D01*
G01X30351Y11387D01*
G01X30345Y11369D01*
G01X30338Y11352D01*
G01X30328Y11336D01*
G01X30316Y11322D01*
G01X30303Y11308D01*
G01X30289Y11297D01*
G01X30273Y11287D01*
G01X30256Y11280D01*
G01X30238Y11274D01*
G01X30219Y11271D01*
G01X30201Y11270D01*
G01X30006Y11270D01*
G01X29991Y11269D01*
G01X29977Y11265D01*
G01X29964Y11260D01*
G01X29951Y11253D01*
G01X29939Y11245D01*
G01X29929Y11235D01*
G01X29920Y11223D01*
G01X29913Y11210D01*
G01X29908Y11197D01*
G01X29905Y11182D01*
G01X29904Y11168D01*
G01X29904Y10881D01*
G01X29905Y10866D01*
G01X29908Y10852D01*
G01X29913Y10838D01*
G01X29920Y10826D01*
G01X29929Y10814D01*
G01X29939Y10804D01*
G01X29951Y10795D01*
G01X29964Y10788D01*
G01X29977Y10783D01*
G01X29991Y10780D01*
G01X30006Y10779D01*
G01X30331Y10779D01*
G01X30347Y10780D01*
G01X30363Y10784D01*
G01X30377Y10790D01*
G01X30391Y10798D01*
G01X30403Y10809D01*
G01X30609Y11015D01*
G01X30629Y11033D01*
G01X30650Y11049D01*
G01X30672Y11063D01*
G01X30696Y11076D01*
G01X30720Y11086D01*
G01X30746Y11094D01*
G01X30772Y11099D01*
G01X30798Y11103D01*
G01X30825Y11104D01*
G01X31618Y11104D01*
G01X31633Y11105D01*
G01X31647Y11108D01*
G01X31661Y11113D01*
G01X31673Y11120D01*
G01X31685Y11129D01*
G01X31695Y11139D01*
G01X31704Y11151D01*
G01X31711Y11163D01*
G01X31716Y11177D01*
G01X31719Y11191D01*
G01X31720Y11206D01*
G01X31720Y11800D01*
G01X31721Y11818D01*
G01X31724Y11836D01*
G01X31730Y11854D01*
G01X31738Y11871D01*
G01X31747Y11887D01*
G01X31759Y11902D01*
G01X31772Y11915D01*
G01X31787Y11927D01*
G01X31803Y11936D01*
G01X31820Y11944D01*
G01X31838Y11950D01*
G01X31856Y11953D01*
G01X31875Y11954D01*
G01X32886Y11954D01*
G01X32893Y11953D01*
G01X32907Y11954D01*
G01X32921Y11957D01*
G01X32935Y11963D01*
G01X32948Y11970D01*
G01X32959Y11978D01*
G01X32970Y11988D01*
G01X32978Y12000D01*
G01X32985Y12013D01*
G01X32990Y12026D01*
G01X32993Y12041D01*
G01X32994Y12055D01*
G01X32994Y12993D01*
G01X32993Y13008D01*
G01X32990Y13022D01*
G01X32985Y13036D01*
G01X32978Y13048D01*
G01X32970Y13060D01*
G01X32959Y13070D01*
G01X32948Y13079D01*
G01X32935Y13086D01*
G01X32921Y13091D01*
G01X32907Y13094D01*
G01X32893Y13095D01*
G01X32249Y13095D01*
G01X32231Y13096D01*
G01X32212Y13100D01*
G01X32194Y13105D01*
G01X32177Y13113D01*
G01X32160Y13123D01*
G01X32146Y13135D01*
G01X32132Y13149D01*
G01X32121Y13164D01*
G01X32111Y13180D01*
G01X32104Y13198D01*
G01X32099Y13216D01*
G01X32096Y13235D01*
G01X32093Y13250D01*
G01X32088Y13264D01*
G01X32082Y13277D01*
G01X32073Y13289D01*
G01X32063Y13300D01*
G01X32051Y13309D01*
G01X32038Y13317D01*
G01X32024Y13322D01*
G01X32009Y13326D01*
G01X31995Y13327D01*
G01X31978Y13325D01*
G01X31962Y13321D01*
G01X31947Y13315D01*
G01X31934Y13306D01*
G01X31921Y13296D01*
G01X31911Y13283D01*
G01X31894Y13261D01*
G01X31876Y13239D01*
G01X31856Y13220D01*
G01X31834Y13201D01*
G01X31812Y13185D01*
G01X31788Y13170D01*
G01X31763Y13157D01*
G01X31737Y13146D01*
G01X31710Y13137D01*
G01X31683Y13129D01*
G01X31655Y13124D01*
G01X31628Y13121D01*
G01X31599Y13120D01*
G01X31571Y13121D01*
G01X31543Y13124D01*
G01X31515Y13130D01*
G01X31487Y13137D01*
G01X31461Y13146D01*
G01X31435Y13158D01*
G01X31410Y13171D01*
G01X31386Y13186D01*
G01X31363Y13203D01*
G01X31341Y13221D01*
G01X31321Y13241D01*
G01X31303Y13263D01*
G01X31286Y13286D01*
G01X31271Y13310D01*
G01X31257Y13335D01*
G01X31246Y13361D01*
G01X31237Y13388D01*
G01X31229Y13415D01*
G01X31224Y13443D01*
G01X31221Y13471D01*
G01X31220Y13500D01*
G01X31221Y13529D01*
G01X31224Y13558D01*
G01X31230Y13586D01*
G01X31238Y13615D01*
G01X31241Y13630D01*
G01X31242Y13645D01*
G01X31241Y13660D01*
G01X31238Y13674D01*
G01X31233Y13687D01*
G01X31226Y13700D01*
G01X31218Y13712D01*
G01X31207Y13722D01*
G01X31196Y13731D01*
G01X31183Y13738D01*
G01X31169Y13743D01*
G01X31155Y13746D01*
G01X31141Y13747D01*
G01X30950Y13747D01*
G01X30950Y14086D01*
G01X31427Y14086D01*
G01X31427Y13975D01*
G01X31428Y13961D01*
G01X31431Y13947D01*
G01X31436Y13933D01*
G01X31443Y13921D01*
G01X31452Y13909D01*
G01X31462Y13899D01*
G01X31473Y13890D01*
G01X31486Y13883D01*
G01X31500Y13878D01*
G01X31514Y13875D01*
G01X31528Y13874D01*
G01X31543Y13875D01*
G01X31571Y13878D01*
G01X31599Y13879D01*
G01X31627Y13878D01*
G01X31655Y13875D01*
G01X31683Y13870D01*
G01X31710Y13863D01*
G01X31736Y13854D01*
G01X31762Y13843D01*
G01X31787Y13830D01*
G01X31811Y13815D01*
G01X31833Y13798D01*
G01X31855Y13780D01*
G01X31875Y13761D01*
G01X31893Y13740D01*
G01X31910Y13717D01*
G01X31921Y13705D01*
G01X31933Y13694D01*
G01X31946Y13686D01*
G01X31961Y13679D01*
G01X31977Y13675D01*
G01X31993Y13674D01*
G01X32008Y13675D01*
G01X32022Y13678D01*
G01X32036Y13683D01*
G01X32048Y13690D01*
G01X32060Y13699D01*
G01X32070Y13709D01*
G01X32079Y13721D01*
G01X32086Y13734D01*
G01X32091Y13747D01*
G01X32094Y13761D01*
G01X32095Y13776D01*
G01X32095Y15643D01*
G01X32094Y15658D01*
G01X32091Y15672D01*
G01X32086Y15686D01*
G01X32079Y15698D01*
G01X32070Y15710D01*
G01X32060Y15720D01*
G01X32048Y15729D01*
G01X32036Y15736D01*
G01X32022Y15741D01*
G01X32008Y15744D01*
G01X31993Y15745D01*
G01X29724Y15745D01*
G01X29705Y15746D01*
G01X29687Y15749D01*
G01X29669Y15755D01*
G01X29652Y15763D01*
G01X29636Y15772D01*
G01X29622Y15784D01*
G01X29608Y15797D01*
G01X29597Y15812D01*
G01X29587Y15828D01*
G01X29580Y15845D01*
G01X29574Y15863D01*
G01X29571Y15881D01*
G01X29570Y15900D01*
G01X29570Y15943D01*
G01X29568Y15958D01*
G01X29565Y15972D01*
G01X29560Y15986D01*
G01X29553Y15998D01*
G01X29545Y16010D01*
G01X29534Y16020D01*
G01X29523Y16029D01*
G01X29510Y16036D01*
G01X29497Y16041D01*
G01X29482Y16044D01*
G01X29468Y16045D01*
G01X29036Y16045D01*
G01X29021Y16044D01*
G01X29007Y16041D01*
G01X28994Y16036D01*
G01X28981Y16029D01*
G01X28969Y16020D01*
G01X28959Y16010D01*
G01X28950Y15998D01*
G01X28943Y15986D01*
G01X28938Y15972D01*
G01X28935Y15958D01*
G01X28934Y15943D01*
G01X28936Y15924D01*
G01X28941Y15906D01*
G01X28947Y15888D01*
G01X28951Y15869D01*
G01X28952Y15850D01*
G01X28952Y15438D01*
G01X28563Y15438D01*
G01X28563Y15943D01*
G01X28562Y15958D01*
G01X28559Y15972D01*
G01X28554Y15986D01*
G01X28547Y15998D01*
G01X28538Y16010D01*
G01X28528Y16020D01*
G01X28516Y16029D01*
G01X28504Y16036D01*
G01X28490Y16041D01*
G01X28476Y16044D01*
G01X28461Y16045D01*
G01X27938Y16045D01*
G01X27923Y16044D01*
G01X27909Y16041D01*
G01X27895Y16036D01*
G01X27883Y16029D01*
G01X27871Y16020D01*
G01X27861Y16010D01*
G01X27852Y15998D01*
G01X27845Y15986D01*
G01X27840Y15972D01*
G01X27837Y15958D01*
G01X27836Y15943D01*
G01X27836Y15438D01*
G01X27447Y15438D01*
G01X27447Y15850D01*
G01X27448Y15869D01*
G01X27452Y15888D01*
G01X27458Y15906D01*
G01X27463Y15924D01*
G01X27465Y15943D01*
G01X27464Y15958D01*
G01X27461Y15972D01*
G01X27456Y15986D01*
G01X27449Y15998D01*
G01X27440Y16010D01*
G01X27430Y16020D01*
G01X27418Y16029D01*
G01X27405Y16036D01*
G01X27392Y16041D01*
G01X27378Y16044D01*
G01X27363Y16045D01*
G37*

%LPC*%
G36*
G01X28952Y14361D02*
G01X28563Y14361D01*
G01X28563Y13797D01*
G01X28799Y13797D01*
G01X28818Y13798D01*
G01X28836Y13801D01*
G01X28854Y13807D01*
G01X28870Y13814D01*
G01X28886Y13824D01*
G01X28901Y13835D01*
G01X28914Y13848D01*
G01X28925Y13863D01*
G01X28935Y13879D01*
G01X28942Y13895D01*
G01X28948Y13913D01*
G01X28951Y13931D01*
G01X28952Y13950D01*
G01X28952Y14361D01*
G37*
G36*
G01X30048Y15052D02*
G01X29724Y15052D01*
G01X29706Y15051D01*
G01X29688Y15048D01*
G01X29670Y15042D01*
G01X29653Y15035D01*
G01X29637Y15025D01*
G01X29623Y15014D01*
G01X29610Y15001D01*
G01X29598Y14986D01*
G01X29589Y14970D01*
G01X29581Y14954D01*
G01X29576Y14936D01*
G01X29573Y14918D01*
G01X29571Y14900D01*
G01X29571Y14713D01*
G01X30048Y14713D01*
G01X30048Y15052D01*
G37*
G36*
G01X31274Y15052D02*
G01X30950Y15052D01*
G01X30950Y14713D01*
G01X31427Y14713D01*
G01X31427Y14900D01*
G01X31426Y14918D01*
G01X31422Y14936D01*
G01X31417Y14954D01*
G01X31409Y14970D01*
G01X31400Y14986D01*
G01X31388Y15001D01*
G01X31375Y15014D01*
G01X31361Y15025D01*
G01X31345Y15035D01*
G01X31328Y15042D01*
G01X31311Y15048D01*
G01X31292Y15051D01*
G01X31274Y15052D01*
G37*
G36*
G01X30048Y14086D02*
G01X29571Y14086D01*
G01X29571Y13900D01*
G01X29573Y13881D01*
G01X29576Y13863D01*
G01X29581Y13845D01*
G01X29589Y13829D01*
G01X29598Y13813D01*
G01X29610Y13798D01*
G01X29623Y13785D01*
G01X29637Y13774D01*
G01X29653Y13764D01*
G01X29670Y13757D01*
G01X29688Y13751D01*
G01X29706Y13748D01*
G01X29724Y13747D01*
G01X30048Y13747D01*
G01X30048Y14086D01*
G37*
G36*
G01X28201Y13127D02*
G01X28014Y13127D01*
G01X28014Y12650D01*
G01X28353Y12650D01*
G01X28353Y12974D01*
G01X28352Y12993D01*
G01X28349Y13011D01*
G01X28343Y13028D01*
G01X28336Y13045D01*
G01X28326Y13061D01*
G01X28315Y13075D01*
G01X28302Y13088D01*
G01X28287Y13100D01*
G01X28272Y13109D01*
G01X28255Y13117D01*
G01X28237Y13122D01*
G01X28219Y13126D01*
G01X28201Y13127D01*
G37*
G36*
G01X28353Y11748D02*
G01X28014Y11748D01*
G01X28014Y11271D01*
G01X28201Y11271D01*
G01X28219Y11273D01*
G01X28237Y11276D01*
G01X28255Y11281D01*
G01X28272Y11289D01*
G01X28287Y11298D01*
G01X28302Y11310D01*
G01X28315Y11323D01*
G01X28326Y11337D01*
G01X28336Y11353D01*
G01X28343Y11370D01*
G01X28349Y11388D01*
G01X28352Y11406D01*
G01X28353Y11424D01*
G01X28353Y11748D01*
G37*
G36*
G01X28900Y10777D02*
G01X28863Y10777D01*
G01X28863Y10613D01*
G01X29069Y10613D01*
G01X29060Y10626D01*
G01X29053Y10640D01*
G01X29049Y10655D01*
G01X29044Y10673D01*
G01X29037Y10691D01*
G01X29028Y10708D01*
G01X29016Y10723D01*
G01X29003Y10736D01*
G01X28988Y10748D01*
G01X28972Y10759D01*
G01X28955Y10767D01*
G01X28937Y10772D01*
G01X28918Y10776D01*
G01X28900Y10777D01*
G37*
G36*
G01X28536Y10777D02*
G01X28500Y10777D01*
G01X28481Y10776D01*
G01X28463Y10773D01*
G01X28445Y10767D01*
G01X28429Y10760D01*
G01X28413Y10750D01*
G01X28398Y10739D01*
G01X28385Y10726D01*
G01X28374Y10711D01*
G01X28364Y10695D01*
G01X28357Y10679D01*
G01X28351Y10661D01*
G01X28348Y10643D01*
G01X28347Y10624D01*
G01X28347Y10613D01*
G01X28536Y10613D01*
G01X28536Y10777D01*
G37*

%LPD*%
G36*
G01X20940Y16045D02*
G01X15601Y16045D01*
G01X15587Y16044D01*
G01X15572Y16041D01*
G01X15559Y16036D01*
G01X15546Y16029D01*
G01X15535Y16020D01*
G01X15524Y16010D01*
G01X15516Y15998D01*
G01X15509Y15986D01*
G01X15504Y15972D01*
G01X15501Y15958D01*
G01X15499Y15943D01*
G01X15499Y15756D01*
G01X15501Y15741D01*
G01X15504Y15727D01*
G01X15509Y15714D01*
G01X15516Y15701D01*
G01X15524Y15689D01*
G01X15535Y15679D01*
G01X15546Y15670D01*
G01X15572Y15658D01*
G01X15587Y15655D01*
G01X15601Y15654D01*
G01X15912Y15654D01*
G01X15931Y15653D01*
G01X15949Y15650D01*
G01X15967Y15644D01*
G01X15984Y15637D01*
G01X16000Y15627D01*
G01X16015Y15615D01*
G01X16028Y15602D01*
G01X16040Y15588D01*
G01X16049Y15572D01*
G01X16057Y15555D01*
G01X16062Y15537D01*
G01X16066Y15518D01*
G01X16067Y15500D01*
G01X16067Y10699D01*
G01X16066Y10681D01*
G01X16062Y10662D01*
G01X16057Y10644D01*
G01X16049Y10627D01*
G01X16040Y10611D01*
G01X16028Y10597D01*
G01X16015Y10584D01*
G01X16000Y10572D01*
G01X15984Y10562D01*
G01X15967Y10555D01*
G01X15949Y10549D01*
G01X15931Y10546D01*
G01X15912Y10545D01*
G01X11959Y10545D01*
G01X11944Y10544D01*
G01X11930Y10541D01*
G01X11904Y10529D01*
G01X11892Y10520D01*
G01X11882Y10510D01*
G01X11873Y10498D01*
G01X11866Y10485D01*
G01X11861Y10472D01*
G01X11858Y10458D01*
G01X11857Y10443D01*
G01X11858Y10428D01*
G01X11862Y10413D01*
G01X11869Y10385D01*
G01X11875Y10357D01*
G01X11878Y10328D01*
G01X11879Y10299D01*
G01X11878Y10271D01*
G01X11875Y10243D01*
G01X11870Y10215D01*
G01X11862Y10188D01*
G01X11853Y10161D01*
G01X11842Y10135D01*
G01X11828Y10110D01*
G01X11813Y10086D01*
G01X11796Y10063D01*
G01X11778Y10041D01*
G01X11758Y10021D01*
G01X11736Y10003D01*
G01X11713Y9986D01*
G01X11689Y9971D01*
G01X11664Y9958D01*
G01X11638Y9946D01*
G01X11611Y9937D01*
G01X11584Y9929D01*
G01X11556Y9924D01*
G01X11528Y9921D01*
G01X11500Y9920D01*
G01X11471Y9921D01*
G01X11443Y9924D01*
G01X11415Y9929D01*
G01X11388Y9937D01*
G01X11361Y9946D01*
G01X11335Y9958D01*
G01X11310Y9971D01*
G01X11286Y9986D01*
G01X11263Y10003D01*
G01X11241Y10021D01*
G01X11221Y10041D01*
G01X11203Y10063D01*
G01X11186Y10086D01*
G01X11171Y10110D01*
G01X11158Y10135D01*
G01X11146Y10161D01*
G01X11137Y10188D01*
G01X11130Y10215D01*
G01X11124Y10243D01*
G01X11121Y10271D01*
G01X11120Y10299D01*
G01X11121Y10327D01*
G01X11124Y10355D01*
G01X11129Y10382D01*
G01X11136Y10409D01*
G01X11139Y10424D01*
G01X11141Y10438D01*
G01X11140Y10453D01*
G01X11136Y10467D01*
G01X11131Y10481D01*
G01X11124Y10493D01*
G01X11116Y10505D01*
G01X11105Y10515D01*
G01X11094Y10524D01*
G01X11081Y10531D01*
G01X11068Y10536D01*
G01X11053Y10539D01*
G01X11039Y10540D01*
G01X10117Y10540D01*
G01X10103Y10539D01*
G01X10088Y10536D01*
G01X10075Y10531D01*
G01X10062Y10524D01*
G01X10051Y10515D01*
G01X10040Y10505D01*
G01X10032Y10493D01*
G01X10025Y10481D01*
G01X10020Y10467D01*
G01X10017Y10453D01*
G01X10016Y10438D01*
G01X10017Y10421D01*
G01X10022Y10404D01*
G01X10029Y10388D01*
G01X10042Y10363D01*
G01X10053Y10337D01*
G01X10062Y10310D01*
G01X10070Y10283D01*
G01X10075Y10256D01*
G01X10078Y10228D01*
G01X10079Y10199D01*
G01X10078Y10171D01*
G01X10075Y10143D01*
G01X10070Y10115D01*
G01X10062Y10088D01*
G01X10053Y10061D01*
G01X10041Y10035D01*
G01X10028Y10010D01*
G01X10013Y9986D01*
G01X9996Y9963D01*
G01X9978Y9941D01*
G01X9958Y9921D01*
G01X9936Y9903D01*
G01X9913Y9886D01*
G01X9889Y9871D01*
G01X9864Y9857D01*
G01X9838Y9846D01*
G01X9811Y9837D01*
G01X9784Y9829D01*
G01X9756Y9824D01*
G01X9728Y9821D01*
G01X9700Y9820D01*
G01X9652Y9823D01*
G01X9640Y9824D01*
G01X9628Y9827D01*
G01X9600Y9833D01*
G01X9572Y9842D01*
G01X9545Y9853D01*
G01X9519Y9866D01*
G01X9494Y9880D01*
G01X9470Y9897D01*
G01X9447Y9916D01*
G01X9426Y9936D01*
G01X9407Y9958D01*
G01X9389Y9981D01*
G01X9373Y10005D01*
G01X9360Y10031D01*
G01X9348Y10057D01*
G01X9338Y10085D01*
G01X9330Y10113D01*
G01X9324Y10141D01*
G01X9321Y10170D01*
G01X9320Y10199D01*
G01X9321Y10228D01*
G01X9324Y10256D01*
G01X9329Y10283D01*
G01X9337Y10310D01*
G01X9346Y10337D01*
G01X9357Y10363D01*
G01X9370Y10388D01*
G01X9377Y10404D01*
G01X9382Y10421D01*
G01X9384Y10438D01*
G01X9382Y10453D01*
G01X9379Y10467D01*
G01X9374Y10481D01*
G01X9367Y10493D01*
G01X9359Y10505D01*
G01X9348Y10515D01*
G01X9337Y10524D01*
G01X9324Y10531D01*
G01X9311Y10536D01*
G01X9296Y10539D01*
G01X9282Y10540D01*
G01X4805Y10540D01*
G01X4768Y10541D01*
G01X4731Y10544D01*
G01X4695Y10549D01*
G01X4659Y10556D01*
G01X4623Y10565D01*
G01X4588Y10577D01*
G01X4554Y10590D01*
G01X4521Y10605D01*
G01X4488Y10622D01*
G01X4456Y10640D01*
G01X4426Y10661D01*
G01X4396Y10683D01*
G01X4368Y10706D01*
G01X4342Y10732D01*
G01X3717Y11356D01*
G01X3692Y11383D01*
G01X3668Y11411D01*
G01X3646Y11440D01*
G01X3626Y11471D01*
G01X3607Y11502D01*
G01X3590Y11535D01*
G01X3575Y11568D01*
G01X3562Y11603D01*
G01X3551Y11638D01*
G01X3542Y11673D01*
G01X3535Y11709D01*
G01X3530Y11746D01*
G01X3527Y11782D01*
G01X3526Y11819D01*
G01X3526Y11987D01*
G01X3524Y12001D01*
G01X3521Y12015D01*
G01X3516Y12029D01*
G01X3509Y12042D01*
G01X3501Y12053D01*
G01X3490Y12064D01*
G01X3479Y12072D01*
G01X3466Y12079D01*
G01X3449Y12088D01*
G01X3433Y12100D01*
G01X3418Y12113D01*
G01X3406Y12128D01*
G01X3395Y12145D01*
G01X3386Y12162D01*
G01X3380Y12181D01*
G01X3377Y12200D01*
G01X3375Y12220D01*
G01X3375Y12969D01*
G01X3376Y12988D01*
G01X3380Y13006D01*
G01X3385Y13024D01*
G01X3393Y13041D01*
G01X3403Y13057D01*
G01X3414Y13072D01*
G01X3427Y13085D01*
G01X3442Y13096D01*
G01X3458Y13106D01*
G01X3475Y13114D01*
G01X3493Y13119D01*
G01X3511Y13123D01*
G01X3530Y13124D01*
G01X3763Y13124D01*
G01X3778Y13125D01*
G01X3792Y13128D01*
G01X3806Y13133D01*
G01X3819Y13141D01*
G01X3830Y13148D01*
G01X3842Y13156D01*
G01X3853Y13167D01*
G01X3861Y13178D01*
G01X3868Y13191D01*
G01X3874Y13205D01*
G01X3877Y13219D01*
G01X3878Y13234D01*
G01X3877Y13248D01*
G01X3874Y13262D01*
G01X3869Y13276D01*
G01X3862Y13289D01*
G01X3853Y13300D01*
G01X3843Y13310D01*
G01X3831Y13319D01*
G01X3818Y13326D01*
G01X3805Y13331D01*
G01X3791Y13334D01*
G01X3776Y13335D01*
G01X3530Y13335D01*
G01X3511Y13336D01*
G01X3493Y13340D01*
G01X3475Y13345D01*
G01X3458Y13353D01*
G01X3442Y13363D01*
G01X3427Y13374D01*
G01X3414Y13387D01*
G01X3403Y13402D01*
G01X3393Y13418D01*
G01X3385Y13435D01*
G01X3380Y13453D01*
G01X3376Y13471D01*
G01X3375Y13490D01*
G01X3375Y14239D01*
G01X3376Y14257D01*
G01X3379Y14274D01*
G01X3384Y14291D01*
G01X3391Y14308D01*
G01X3400Y14323D01*
G01X3407Y14336D01*
G01X3412Y14350D01*
G01X3415Y14364D01*
G01X3417Y14378D01*
G01X3415Y14393D01*
G01X3412Y14407D01*
G01X3407Y14421D01*
G01X3400Y14433D01*
G01X3392Y14445D01*
G01X3381Y14455D01*
G01X3370Y14464D01*
G01X3357Y14471D01*
G01X3344Y14476D01*
G01X3329Y14479D01*
G01X3315Y14480D01*
G01X3006Y14480D01*
G01X2991Y14479D01*
G01X2977Y14476D01*
G01X2963Y14471D01*
G01X2951Y14464D01*
G01X2939Y14455D01*
G01X2929Y14445D01*
G01X2920Y14433D01*
G01X2913Y14421D01*
G01X2908Y14407D01*
G01X2905Y14393D01*
G01X2904Y14378D01*
G01X2904Y13250D01*
G01X2903Y13231D01*
G01X2900Y13213D01*
G01X2894Y13195D01*
G01X2886Y13178D01*
G01X2877Y13162D01*
G01X2865Y13147D01*
G01X2852Y13134D01*
G01X2837Y13122D01*
G01X2821Y13113D01*
G01X2804Y13105D01*
G01X2786Y13099D01*
G01X2768Y13096D01*
G01X2750Y13095D01*
G01X358Y13095D01*
G01X343Y13094D01*
G01X329Y13091D01*
G01X315Y13086D01*
G01X303Y13079D01*
G01X291Y13070D01*
G01X281Y13060D01*
G01X272Y13048D01*
G01X265Y13036D01*
G01X260Y13022D01*
G01X257Y13008D01*
G01X256Y12993D01*
G01X256Y11006D01*
G01X257Y10991D01*
G01X260Y10977D01*
G01X265Y10963D01*
G01X272Y10951D01*
G01X281Y10939D01*
G01X291Y10929D01*
G01X303Y10920D01*
G01X315Y10913D01*
G01X329Y10908D01*
G01X343Y10905D01*
G01X358Y10904D01*
G01X1559Y10904D01*
G01X1574Y10905D01*
G01X1588Y10908D01*
G01X1601Y10913D01*
G01X1614Y10920D01*
G01X1626Y10929D01*
G01X1636Y10939D01*
G01X1645Y10951D01*
G01X1652Y10963D01*
G01X1657Y10977D01*
G01X1660Y10991D01*
G01X1661Y11006D01*
G01X1659Y11027D01*
G01X1652Y11047D01*
G01X1641Y11076D01*
G01X1632Y11106D01*
G01X1625Y11137D01*
G01X1621Y11168D01*
G01X1620Y11199D01*
G01X1621Y11228D01*
G01X1624Y11256D01*
G01X1629Y11284D01*
G01X1637Y11311D01*
G01X1646Y11338D01*
G01X1658Y11364D01*
G01X1671Y11389D01*
G01X1686Y11413D01*
G01X1703Y11436D01*
G01X1721Y11458D01*
G01X1741Y11478D01*
G01X1763Y11496D01*
G01X1786Y11513D01*
G01X1810Y11528D01*
G01X1835Y11541D01*
G01X1861Y11553D01*
G01X1888Y11562D01*
G01X1915Y11569D01*
G01X1943Y11575D01*
G01X1971Y11578D01*
G01X1999Y11579D01*
G01X2028Y11578D01*
G01X2056Y11575D01*
G01X2084Y11569D01*
G01X2111Y11562D01*
G01X2138Y11553D01*
G01X2164Y11541D01*
G01X2189Y11528D01*
G01X2213Y11513D01*
G01X2236Y11496D01*
G01X2258Y11478D01*
G01X2278Y11458D01*
G01X2296Y11436D01*
G01X2313Y11413D01*
G01X2328Y11389D01*
G01X2341Y11364D01*
G01X2353Y11338D01*
G01X2362Y11311D01*
G01X2369Y11284D01*
G01X2375Y11256D01*
G01X2378Y11228D01*
G01X2379Y11199D01*
G01X2378Y11168D01*
G01X2374Y11137D01*
G01X2367Y11106D01*
G01X2358Y11076D01*
G01X2347Y11047D01*
G01X2340Y11027D01*
G01X2338Y11006D01*
G01X2339Y10991D01*
G01X2342Y10977D01*
G01X2347Y10963D01*
G01X2354Y10951D01*
G01X2363Y10939D01*
G01X2373Y10929D01*
G01X2385Y10920D01*
G01X2398Y10913D01*
G01X2411Y10908D01*
G01X2425Y10905D01*
G01X2440Y10904D01*
G01X2750Y10904D01*
G01X2768Y10903D01*
G01X2786Y10900D01*
G01X2804Y10894D01*
G01X2821Y10886D01*
G01X2837Y10877D01*
G01X2852Y10865D01*
G01X2865Y10852D01*
G01X2877Y10837D01*
G01X2886Y10821D01*
G01X2894Y10804D01*
G01X2900Y10786D01*
G01X2903Y10768D01*
G01X2904Y10749D01*
G01X2904Y9075D01*
G01X2905Y9061D01*
G01X2908Y9046D01*
G01X2913Y9033D01*
G01X2920Y9020D01*
G01X2929Y9009D01*
G01X2939Y8998D01*
G01X2951Y8990D01*
G01X2963Y8983D01*
G01X2977Y8978D01*
G01X2991Y8975D01*
G01X3006Y8973D01*
G01X9101Y8973D01*
G01X9115Y8975D01*
G01X9130Y8978D01*
G01X9143Y8983D01*
G01X9156Y8990D01*
G01X9168Y8998D01*
G01X9178Y9009D01*
G01X9186Y9020D01*
G01X9193Y9033D01*
G01X9198Y9046D01*
G01X9202Y9061D01*
G01X9203Y9075D01*
G01X9201Y9094D01*
G01X9196Y9112D01*
G01X9186Y9138D01*
G01X9179Y9166D01*
G01X9174Y9193D01*
G01X9171Y9221D01*
G01X9170Y9249D01*
G01X9171Y9278D01*
G01X9174Y9306D01*
G01X9179Y9334D01*
G01X9187Y9361D01*
G01X9196Y9388D01*
G01X9207Y9414D01*
G01X9221Y9439D01*
G01X9236Y9463D01*
G01X9253Y9486D01*
G01X9271Y9508D01*
G01X9291Y9528D01*
G01X9313Y9546D01*
G01X9336Y9563D01*
G01X9360Y9578D01*
G01X9385Y9591D01*
G01X9411Y9603D01*
G01X9438Y9612D01*
G01X9465Y9619D01*
G01X9493Y9625D01*
G01X9521Y9628D01*
G01X9549Y9629D01*
G01X9596Y9626D01*
G01X9609Y9625D01*
G01X9621Y9622D01*
G01X9649Y9616D01*
G01X9677Y9607D01*
G01X9704Y9596D01*
G01X9730Y9583D01*
G01X9755Y9568D01*
G01X9779Y9552D01*
G01X9801Y9533D01*
G01X9822Y9513D01*
G01X9842Y9491D01*
G01X9860Y9468D01*
G01X9875Y9444D01*
G01X9889Y9418D01*
G01X9901Y9392D01*
G01X9911Y9364D01*
G01X9919Y9336D01*
G01X9924Y9307D01*
G01X9928Y9279D01*
G01X9929Y9249D01*
G01X9928Y9221D01*
G01X9925Y9193D01*
G01X9920Y9166D01*
G01X9912Y9138D01*
G01X9903Y9112D01*
G01X9898Y9094D01*
G01X9896Y9075D01*
G01X9897Y9061D01*
G01X9900Y9046D01*
G01X9905Y9033D01*
G01X9912Y9020D01*
G01X9921Y9009D01*
G01X9931Y8998D01*
G01X9943Y8990D01*
G01X9956Y8983D01*
G01X9969Y8978D01*
G01X9983Y8975D01*
G01X9998Y8973D01*
G01X10987Y8973D01*
G01X11001Y8975D01*
G01X11015Y8978D01*
G01X11029Y8983D01*
G01X11042Y8990D01*
G01X11053Y8998D01*
G01X11064Y9009D01*
G01X11072Y9020D01*
G01X11079Y9033D01*
G01X11088Y9050D01*
G01X11100Y9066D01*
G01X11113Y9081D01*
G01X11128Y9093D01*
G01X11145Y9104D01*
G01X11162Y9113D01*
G01X11181Y9119D01*
G01X11200Y9122D01*
G01X11220Y9124D01*
G01X11874Y9124D01*
G01X11888Y9125D01*
G01X11902Y9128D01*
G01X11916Y9133D01*
G01X11929Y9140D01*
G01X11940Y9148D01*
G01X11951Y9159D01*
G01X11959Y9170D01*
G01X11966Y9183D01*
G01X11971Y9197D01*
G01X11974Y9211D01*
G01X11975Y9225D01*
G01X11974Y9242D01*
G01X11970Y9258D01*
G01X11964Y9273D01*
G01X11951Y9300D01*
G01X11940Y9329D01*
G01X11931Y9358D01*
G01X11925Y9388D01*
G01X11921Y9419D01*
G01X11920Y9450D01*
G01X11921Y9478D01*
G01X11924Y9505D01*
G01X11929Y9533D01*
G01X11936Y9560D01*
G01X11946Y9587D01*
G01X11957Y9612D01*
G01X11970Y9637D01*
G01X11984Y9661D01*
G01X12001Y9684D01*
G01X12019Y9705D01*
G01X12038Y9725D01*
G01X12059Y9744D01*
G01X12105Y9776D01*
G01X12130Y9789D01*
G01X12155Y9801D01*
G01X12182Y9810D01*
G01X12209Y9818D01*
G01X12236Y9824D01*
G01X12251Y9828D01*
G01X12266Y9834D01*
G01X12279Y9842D01*
G01X12291Y9853D01*
G01X12302Y9865D01*
G01X12310Y9878D01*
G01X12316Y9893D01*
G01X12319Y9908D01*
G01X12321Y9924D01*
G01X12321Y9929D01*
G01X12320Y9949D01*
G01X12321Y9978D01*
G01X12324Y10006D01*
G01X12329Y10034D01*
G01X12337Y10061D01*
G01X12346Y10088D01*
G01X12358Y10114D01*
G01X12371Y10139D01*
G01X12386Y10163D01*
G01X12403Y10186D01*
G01X12421Y10208D01*
G01X12441Y10228D01*
G01X12463Y10246D01*
G01X12486Y10263D01*
G01X12510Y10278D01*
G01X12535Y10291D01*
G01X12561Y10303D01*
G01X12588Y10312D01*
G01X12615Y10319D01*
G01X12643Y10325D01*
G01X12671Y10328D01*
G01X12700Y10329D01*
G01X12728Y10328D01*
G01X12756Y10325D01*
G01X12784Y10319D01*
G01X12811Y10312D01*
G01X12838Y10303D01*
G01X12864Y10291D01*
G01X12889Y10278D01*
G01X12913Y10263D01*
G01X12936Y10246D01*
G01X12958Y10228D01*
G01X12978Y10208D01*
G01X12996Y10186D01*
G01X13013Y10163D01*
G01X13028Y10139D01*
G01X13041Y10114D01*
G01X13053Y10088D01*
G01X13062Y10061D01*
G01X13070Y10034D01*
G01X13075Y10006D01*
G01X13078Y9978D01*
G01X13079Y9949D01*
G01X13078Y9921D01*
G01X13075Y9894D01*
G01X13070Y9866D01*
G01X13063Y9839D01*
G01X13053Y9812D01*
G01X13042Y9787D01*
G01X13029Y9762D01*
G01X13015Y9738D01*
G01X12998Y9715D01*
G01X12980Y9694D01*
G01X12961Y9674D01*
G01X12940Y9655D01*
G01X12894Y9623D01*
G01X12869Y9610D01*
G01X12844Y9598D01*
G01X12817Y9589D01*
G01X12790Y9581D01*
G01X12763Y9575D01*
G01X12748Y9571D01*
G01X12733Y9565D01*
G01X12720Y9557D01*
G01X12708Y9546D01*
G01X12697Y9534D01*
G01X12689Y9521D01*
G01X12683Y9506D01*
G01X12680Y9491D01*
G01X12678Y9475D01*
G01X12678Y9470D01*
G01X12679Y9450D01*
G01X12678Y9419D01*
G01X12674Y9388D01*
G01X12668Y9358D01*
G01X12659Y9329D01*
G01X12648Y9300D01*
G01X12635Y9273D01*
G01X12629Y9258D01*
G01X12625Y9242D01*
G01X12624Y9225D01*
G01X12625Y9211D01*
G01X12628Y9197D01*
G01X12633Y9183D01*
G01X12640Y9170D01*
G01X12648Y9159D01*
G01X12659Y9148D01*
G01X12670Y9140D01*
G01X12683Y9133D01*
G01X12696Y9128D01*
G01X12711Y9125D01*
G01X12725Y9124D01*
G01X13239Y9124D01*
G01X13258Y9123D01*
G01X13276Y9119D01*
G01X13294Y9114D01*
G01X13311Y9106D01*
G01X13327Y9096D01*
G01X13342Y9085D01*
G01X13355Y9072D01*
G01X13366Y9057D01*
G01X13376Y9041D01*
G01X13384Y9024D01*
G01X13389Y9006D01*
G01X13393Y8988D01*
G01X13394Y8969D01*
G01X13394Y8556D01*
G01X13395Y8541D01*
G01X13398Y8527D01*
G01X13403Y8513D01*
G01X13410Y8501D01*
G01X13418Y8489D01*
G01X13429Y8479D01*
G01X13440Y8470D01*
G01X13453Y8463D01*
G01X13467Y8458D01*
G01X13481Y8455D01*
G01X13495Y8454D01*
G01X13503Y8454D01*
G01X13518Y8455D01*
G01X13532Y8458D01*
G01X13546Y8463D01*
G01X13558Y8470D01*
G01X13570Y8479D01*
G01X13580Y8489D01*
G01X13589Y8501D01*
G01X13596Y8513D01*
G01X13601Y8527D01*
G01X13604Y8541D01*
G01X13605Y8556D01*
G01X13605Y8969D01*
G01X13607Y8991D01*
G01X13611Y9012D01*
G01X13619Y9033D01*
G01X13630Y9052D01*
G01X13639Y9071D01*
G01X13653Y9106D01*
G01X13670Y9139D01*
G01X13690Y9172D01*
G01X13711Y9202D01*
G01X13735Y9232D01*
G01X13760Y9259D01*
G01X14375Y9874D01*
G01X14400Y9898D01*
G01X14427Y9920D01*
G01X14455Y9940D01*
G01X14485Y9958D01*
G01X14515Y9974D01*
G01X14547Y9989D01*
G01X14579Y10001D01*
G01X14612Y10011D01*
G01X14646Y10019D01*
G01X14680Y10024D01*
G01X14715Y10028D01*
G01X14749Y10029D01*
G01X15988Y10029D01*
G01X16004Y10030D01*
G01X16019Y10034D01*
G01X16034Y10040D01*
G01X16048Y10048D01*
G01X16060Y10059D01*
G01X16175Y10174D01*
G01X16200Y10198D01*
G01X16227Y10220D01*
G01X16255Y10240D01*
G01X16285Y10258D01*
G01X16315Y10274D01*
G01X16347Y10289D01*
G01X16379Y10301D01*
G01X16412Y10311D01*
G01X16446Y10319D01*
G01X16480Y10324D01*
G01X16515Y10328D01*
G01X16549Y10329D01*
G01X18309Y10329D01*
G01X18323Y10330D01*
G01X18337Y10333D01*
G01X18351Y10338D01*
G01X18364Y10345D01*
G01X18375Y10354D01*
G01X18386Y10364D01*
G01X18394Y10376D01*
G01X18401Y10388D01*
G01X18406Y10402D01*
G01X18409Y10416D01*
G01X18410Y10431D01*
G01X18409Y10448D01*
G01X18404Y10466D01*
G01X18387Y10500D01*
G01X18381Y10519D01*
G01X18377Y10539D01*
G01X18375Y10560D01*
G01X18375Y11309D01*
G01X18376Y11328D01*
G01X18380Y11346D01*
G01X18385Y11364D01*
G01X18393Y11381D01*
G01X18403Y11397D01*
G01X18414Y11412D01*
G01X18427Y11425D01*
G01X18442Y11436D01*
G01X18458Y11446D01*
G01X18475Y11454D01*
G01X18493Y11459D01*
G01X18511Y11463D01*
G01X18530Y11464D01*
G01X18657Y11464D01*
G01X18672Y11465D01*
G01X18686Y11468D01*
G01X18699Y11473D01*
G01X18712Y11480D01*
G01X18724Y11489D01*
G01X18734Y11499D01*
G01X18743Y11510D01*
G01X18750Y11523D01*
G01X18755Y11537D01*
G01X18758Y11551D01*
G01X18759Y11565D01*
G01X18759Y11574D01*
G01X18758Y11588D01*
G01X18755Y11602D01*
G01X18750Y11616D01*
G01X18743Y11629D01*
G01X18734Y11640D01*
G01X18724Y11651D01*
G01X18712Y11659D01*
G01X18699Y11666D01*
G01X18686Y11671D01*
G01X18672Y11674D01*
G01X18657Y11675D01*
G01X18530Y11675D01*
G01X18511Y11676D01*
G01X18493Y11680D01*
G01X18475Y11685D01*
G01X18458Y11693D01*
G01X18442Y11703D01*
G01X18427Y11714D01*
G01X18414Y11727D01*
G01X18403Y11742D01*
G01X18393Y11758D01*
G01X18385Y11775D01*
G01X18380Y11793D01*
G01X18376Y11811D01*
G01X18375Y11830D01*
G01X18375Y12579D01*
G01X18376Y12598D01*
G01X18380Y12616D01*
G01X18385Y12634D01*
G01X18393Y12651D01*
G01X18403Y12667D01*
G01X18414Y12682D01*
G01X18427Y12695D01*
G01X18442Y12706D01*
G01X18458Y12716D01*
G01X18475Y12724D01*
G01X18493Y12729D01*
G01X18511Y12733D01*
G01X18530Y12734D01*
G01X18696Y12734D01*
G01X18711Y12735D01*
G01X18725Y12738D01*
G01X18739Y12743D01*
G01X18752Y12750D01*
G01X18763Y12759D01*
G01X18774Y12770D01*
G01X18782Y12782D01*
G01X18794Y12797D01*
G01X18807Y12812D01*
G01X18822Y12824D01*
G01X18838Y12835D01*
G01X18856Y12843D01*
G01X18875Y12849D01*
G01X18894Y12853D01*
G01X18913Y12854D01*
G01X21485Y12854D01*
G01X21499Y12855D01*
G01X21513Y12858D01*
G01X21527Y12864D01*
G01X21540Y12870D01*
G01X21551Y12879D01*
G01X21561Y12889D01*
G01X21570Y12901D01*
G01X21577Y12914D01*
G01X21582Y12927D01*
G01X21585Y12941D01*
G01X21586Y12956D01*
G01X21585Y12974D01*
G01X21580Y12991D01*
G01X21559Y13033D01*
G01X21547Y13059D01*
G01X21537Y13086D01*
G01X21530Y13114D01*
G01X21524Y13142D01*
G01X21521Y13171D01*
G01X21520Y13199D01*
G01X21521Y13229D01*
G01X21525Y13258D01*
G01X21530Y13287D01*
G01X21538Y13316D01*
G01X21549Y13344D01*
G01X21561Y13371D01*
G01X21575Y13397D01*
G01X21592Y13421D01*
G01X21600Y13435D01*
G01X21606Y13450D01*
G01X21610Y13465D01*
G01X21611Y13481D01*
G01X21610Y13495D01*
G01X21607Y13510D01*
G01X21601Y13524D01*
G01X21594Y13536D01*
G01X21585Y13548D01*
G01X21574Y13563D01*
G01X21564Y13578D01*
G01X21557Y13595D01*
G01X21551Y13613D01*
G01X21548Y13631D01*
G01X21547Y13649D01*
G01X21547Y14061D01*
G01X21936Y14061D01*
G01X21936Y13660D01*
G01X21937Y13646D01*
G01X21940Y13632D01*
G01X21945Y13618D01*
G01X21952Y13606D01*
G01X21961Y13594D01*
G01X21971Y13584D01*
G01X21982Y13575D01*
G01X21995Y13568D01*
G01X22037Y13553D01*
G01X22064Y13542D01*
G01X22090Y13528D01*
G01X22115Y13512D01*
G01X22139Y13494D01*
G01X22161Y13474D01*
G01X22182Y13453D01*
G01X22201Y13430D01*
G01X22218Y13406D01*
G01X22233Y13380D01*
G01X22246Y13354D01*
G01X22258Y13324D01*
G01X22267Y13294D01*
G01X22274Y13263D01*
G01X22278Y13231D01*
G01X22279Y13199D01*
G01X22278Y13171D01*
G01X22275Y13142D01*
G01X22269Y13114D01*
G01X22262Y13086D01*
G01X22252Y13059D01*
G01X22241Y13033D01*
G01X22227Y13007D01*
G01X22219Y12991D01*
G01X22215Y12974D01*
G01X22213Y12956D01*
G01X22214Y12941D01*
G01X22217Y12927D01*
G01X22222Y12914D01*
G01X22229Y12901D01*
G01X22238Y12889D01*
G01X22248Y12879D01*
G01X22260Y12870D01*
G01X22272Y12864D01*
G01X22286Y12858D01*
G01X22300Y12855D01*
G01X22315Y12854D01*
G01X22684Y12854D01*
G01X22699Y12855D01*
G01X22713Y12858D01*
G01X22727Y12864D01*
G01X22739Y12870D01*
G01X22751Y12879D01*
G01X22761Y12889D01*
G01X22770Y12901D01*
G01X22777Y12914D01*
G01X22782Y12927D01*
G01X22785Y12941D01*
G01X22786Y12956D01*
G01X22785Y12974D01*
G01X22780Y12991D01*
G01X22759Y13033D01*
G01X22747Y13059D01*
G01X22737Y13086D01*
G01X22730Y13114D01*
G01X22724Y13142D01*
G01X22721Y13171D01*
G01X22720Y13199D01*
G01X22721Y13231D01*
G01X22725Y13263D01*
G01X22732Y13294D01*
G01X22741Y13324D01*
G01X22753Y13354D01*
G01X22759Y13374D01*
G01X22762Y13395D01*
G01X22760Y13411D01*
G01X22757Y13426D01*
G01X22751Y13441D01*
G01X22743Y13454D01*
G01X22733Y13466D01*
G01X22721Y13476D01*
G01X22708Y13485D01*
G01X22694Y13491D01*
G01X22679Y13495D01*
G01X22663Y13497D01*
G01X22663Y14061D01*
G01X23052Y14061D01*
G01X23052Y13677D01*
G01X23053Y13663D01*
G01X23057Y13648D01*
G01X23062Y13634D01*
G01X23069Y13622D01*
G01X23078Y13610D01*
G01X23089Y13599D01*
G01X23101Y13591D01*
G01X23114Y13584D01*
G01X23128Y13579D01*
G01X23142Y13576D01*
G01X23171Y13572D01*
G01X23200Y13566D01*
G01X23227Y13557D01*
G01X23254Y13546D01*
G01X23280Y13533D01*
G01X23305Y13518D01*
G01X23329Y13502D01*
G01X23352Y13483D01*
G01X23373Y13463D01*
G01X23392Y13441D01*
G01X23410Y13418D01*
G01X23426Y13394D01*
G01X23440Y13368D01*
G01X23451Y13341D01*
G01X23461Y13314D01*
G01X23469Y13286D01*
G01X23475Y13257D01*
G01X23478Y13228D01*
G01X23479Y13199D01*
G01X23478Y13171D01*
G01X23475Y13142D01*
G01X23469Y13114D01*
G01X23462Y13086D01*
G01X23452Y13059D01*
G01X23441Y13033D01*
G01X23427Y13007D01*
G01X23419Y12991D01*
G01X23415Y12974D01*
G01X23413Y12956D01*
G01X23414Y12941D01*
G01X23417Y12927D01*
G01X23422Y12914D01*
G01X23429Y12901D01*
G01X23438Y12889D01*
G01X23448Y12879D01*
G01X23460Y12870D01*
G01X23472Y12864D01*
G01X23486Y12858D01*
G01X23500Y12855D01*
G01X23515Y12854D01*
G01X23612Y12854D01*
G01X23631Y12853D01*
G01X23649Y12850D01*
G01X23667Y12844D01*
G01X23684Y12837D01*
G01X23700Y12827D01*
G01X23715Y12815D01*
G01X23728Y12802D01*
G01X23740Y12788D01*
G01X23749Y12772D01*
G01X23757Y12755D01*
G01X23762Y12737D01*
G01X23766Y12718D01*
G01X23767Y12700D01*
G01X23767Y7899D01*
G01X23766Y7880D01*
G01X23762Y7861D01*
G01X23756Y7843D01*
G01X23751Y7825D01*
G01X23749Y7806D01*
G01X23750Y7791D01*
G01X23753Y7777D01*
G01X23758Y7763D01*
G01X23765Y7751D01*
G01X23774Y7739D01*
G01X23784Y7729D01*
G01X23796Y7720D01*
G01X23809Y7713D01*
G01X23822Y7708D01*
G01X23836Y7705D01*
G01X23851Y7704D01*
G01X24028Y7704D01*
G01X24043Y7705D01*
G01X24057Y7708D01*
G01X24070Y7713D01*
G01X24083Y7720D01*
G01X24095Y7729D01*
G01X24105Y7739D01*
G01X24114Y7751D01*
G01X24121Y7763D01*
G01X24126Y7777D01*
G01X24129Y7791D01*
G01X24130Y7806D01*
G01X24129Y7820D01*
G01X24126Y7834D01*
G01X24121Y7847D01*
G01X24114Y7860D01*
G01X24105Y7872D01*
G01X24095Y7882D01*
G01X24084Y7891D01*
G01X24069Y7902D01*
G01X24055Y7915D01*
G01X24043Y7930D01*
G01X24033Y7946D01*
G01X24025Y7964D01*
G01X24019Y7982D01*
G01X24015Y8001D01*
G01X24014Y8020D01*
G01X24014Y8769D01*
G01X24015Y8787D01*
G01X24018Y8805D01*
G01X24024Y8822D01*
G01X24031Y8839D01*
G01X24040Y8854D01*
G01X24051Y8869D01*
G01X24063Y8882D01*
G01X24077Y8893D01*
G01X24092Y8903D01*
G01X24108Y8911D01*
G01X24125Y8917D01*
G01X24139Y8923D01*
G01X24151Y8929D01*
G01X24163Y8938D01*
G01X24173Y8948D01*
G01X24182Y8960D01*
G01X24189Y8973D01*
G01X24194Y8986D01*
G01X24197Y9000D01*
G01X24198Y9015D01*
G01X24197Y9030D01*
G01X24194Y9044D01*
G01X24189Y9058D01*
G01X24182Y9071D01*
G01X24173Y9082D01*
G01X24162Y9092D01*
G01X24150Y9101D01*
G01X24137Y9108D01*
G01X24121Y9116D01*
G01X24105Y9127D01*
G01X24091Y9139D01*
G01X24079Y9153D01*
G01X24068Y9168D01*
G01X24056Y9184D01*
G01X24043Y9199D01*
G01X24033Y9216D01*
G01X24025Y9233D01*
G01X24019Y9252D01*
G01X24015Y9271D01*
G01X24014Y9290D01*
G01X24014Y10039D01*
G01X24015Y10058D01*
G01X24019Y10077D01*
G01X24025Y10095D01*
G01X24033Y10113D01*
G01X24039Y10128D01*
G01X24044Y10144D01*
G01X24045Y10161D01*
G01X24045Y10438D01*
G01X24044Y10455D01*
G01X24039Y10471D01*
G01X24033Y10486D01*
G01X24025Y10504D01*
G01X24019Y10522D01*
G01X24015Y10541D01*
G01X24014Y10560D01*
G01X24014Y11309D01*
G01X24015Y11328D01*
G01X24019Y11347D01*
G01X24025Y11365D01*
G01X24033Y11383D01*
G01X24039Y11398D01*
G01X24044Y11414D01*
G01X24045Y11431D01*
G01X24045Y11708D01*
G01X24044Y11725D01*
G01X24039Y11741D01*
G01X24033Y11756D01*
G01X24025Y11774D01*
G01X24019Y11792D01*
G01X24015Y11811D01*
G01X24014Y11830D01*
G01X24014Y12579D01*
G01X24015Y12598D01*
G01X24019Y12616D01*
G01X24024Y12634D01*
G01X24032Y12651D01*
G01X24041Y12667D01*
G01X24053Y12682D01*
G01X24066Y12695D01*
G01X24081Y12706D01*
G01X24097Y12716D01*
G01X24114Y12724D01*
G01X24132Y12729D01*
G01X24150Y12733D01*
G01X24169Y12734D01*
G01X24243Y12734D01*
G01X24258Y12735D01*
G01X24272Y12738D01*
G01X24286Y12743D01*
G01X24298Y12750D01*
G01X24310Y12759D01*
G01X24320Y12769D01*
G01X24329Y12780D01*
G01X24336Y12793D01*
G01X24341Y12807D01*
G01X24344Y12821D01*
G01X24345Y12835D01*
G01X24345Y13746D01*
G01X24344Y13762D01*
G01X24340Y13777D01*
G01X24334Y13791D01*
G01X24327Y13805D01*
G01X24317Y13817D01*
G01X24305Y13827D01*
G01X24290Y13840D01*
G01X24277Y13856D01*
G01X24266Y13872D01*
G01X24257Y13890D01*
G01X24250Y13910D01*
G01X24246Y13929D01*
G01X24245Y13949D01*
G01X24245Y15850D01*
G01X24246Y15869D01*
G01X24250Y15888D01*
G01X24256Y15906D01*
G01X24261Y15924D01*
G01X24263Y15943D01*
G01X24262Y15958D01*
G01X24259Y15972D01*
G01X24254Y15986D01*
G01X24247Y15998D01*
G01X24238Y16010D01*
G01X24228Y16020D01*
G01X24216Y16029D01*
G01X24203Y16036D01*
G01X24190Y16041D01*
G01X24176Y16044D01*
G01X24161Y16045D01*
G01X21859Y16045D01*
G01X21844Y16044D01*
G01X21830Y16041D01*
G01X21816Y16036D01*
G01X21804Y16029D01*
G01X21792Y16020D01*
G01X21782Y16010D01*
G01X21773Y15998D01*
G01X21766Y15986D01*
G01X21761Y15972D01*
G01X21758Y15958D01*
G01X21757Y15943D01*
G01X21758Y15928D01*
G01X21762Y15913D01*
G01X21769Y15886D01*
G01X21774Y15859D01*
G01X21778Y15831D01*
G01X21779Y15803D01*
G01X21780Y15788D01*
G01X21783Y15774D01*
G01X21788Y15761D01*
G01X21795Y15748D01*
G01X21804Y15737D01*
G01X21814Y15727D01*
G01X21826Y15718D01*
G01X21839Y15711D01*
G01X21852Y15706D01*
G01X21866Y15703D01*
G01X21881Y15702D01*
G01X21936Y15702D01*
G01X21936Y15138D01*
G01X21547Y15138D01*
G01X21547Y15321D01*
G01X21546Y15335D01*
G01X21543Y15349D01*
G01X21538Y15363D01*
G01X21531Y15376D01*
G01X21522Y15387D01*
G01X21512Y15397D01*
G01X21500Y15406D01*
G01X21488Y15413D01*
G01X21474Y15418D01*
G01X21460Y15421D01*
G01X21445Y15422D01*
G01X21436Y15422D01*
G01X21400Y15420D01*
G01X21371Y15421D01*
G01X21343Y15424D01*
G01X21315Y15430D01*
G01X21288Y15437D01*
G01X21261Y15446D01*
G01X21235Y15458D01*
G01X21210Y15471D01*
G01X21186Y15486D01*
G01X21163Y15503D01*
G01X21141Y15521D01*
G01X21121Y15541D01*
G01X21103Y15563D01*
G01X21086Y15586D01*
G01X21071Y15610D01*
G01X21058Y15635D01*
G01X21046Y15661D01*
G01X21037Y15688D01*
G01X21029Y15715D01*
G01X21024Y15743D01*
G01X21021Y15771D01*
G01X21020Y15800D01*
G01X21021Y15828D01*
G01X21024Y15857D01*
G01X21030Y15885D01*
G01X21037Y15913D01*
G01X21041Y15928D01*
G01X21042Y15943D01*
G01X21041Y15958D01*
G01X21038Y15972D01*
G01X21033Y15986D01*
G01X21026Y15998D01*
G01X21017Y16010D01*
G01X21007Y16020D01*
G01X20995Y16029D01*
G01X20983Y16036D01*
G01X20969Y16041D01*
G01X20955Y16044D01*
G01X20940Y16045D01*
G37*

%LPC*%
G36*
G01X19699Y15704D02*
G01X18499Y15704D01*
G01X18481Y15703D01*
G01X18462Y15700D01*
G01X18445Y15694D01*
G01X18428Y15686D01*
G01X18412Y15677D01*
G01X18397Y15665D01*
G01X18384Y15652D01*
G01X18372Y15637D01*
G01X18363Y15621D01*
G01X18355Y15604D01*
G01X18349Y15586D01*
G01X18346Y15568D01*
G01X18345Y15550D01*
G01X18345Y14813D01*
G01X18344Y14797D01*
G01X18340Y14781D01*
G01X18334Y14767D01*
G01X18325Y14753D01*
G01X18315Y14741D01*
G01X18094Y14520D01*
G01X18082Y14510D01*
G01X18069Y14501D01*
G01X18054Y14495D01*
G01X18038Y14492D01*
G01X18022Y14490D01*
G01X18008Y14491D01*
G01X17994Y14494D01*
G01X17980Y14499D01*
G01X17968Y14506D01*
G01X17956Y14515D01*
G01X17946Y14525D01*
G01X17937Y14537D01*
G01X17930Y14550D01*
G01X17925Y14563D01*
G01X17922Y14577D01*
G01X17921Y14592D01*
G01X17922Y14607D01*
G01X17924Y14630D01*
G01X17924Y15379D01*
G01X17923Y15398D01*
G01X17919Y15416D01*
G01X17914Y15434D01*
G01X17906Y15451D01*
G01X17896Y15467D01*
G01X17885Y15482D01*
G01X17872Y15495D01*
G01X17857Y15506D01*
G01X17841Y15516D01*
G01X17824Y15524D01*
G01X17806Y15529D01*
G01X17788Y15533D01*
G01X17769Y15534D01*
G01X16469Y15534D01*
G01X16450Y15533D01*
G01X16432Y15529D01*
G01X16414Y15524D01*
G01X16397Y15516D01*
G01X16381Y15506D01*
G01X16366Y15495D01*
G01X16353Y15482D01*
G01X16341Y15467D01*
G01X16332Y15451D01*
G01X16324Y15434D01*
G01X16319Y15416D01*
G01X16315Y15398D01*
G01X16314Y15379D01*
G01X16314Y14630D01*
G01X16315Y14611D01*
G01X16319Y14592D01*
G01X16325Y14574D01*
G01X16333Y14556D01*
G01X16339Y14541D01*
G01X16344Y14525D01*
G01X16345Y14508D01*
G01X16345Y14231D01*
G01X16344Y14214D01*
G01X16339Y14198D01*
G01X16333Y14183D01*
G01X16325Y14165D01*
G01X16319Y14147D01*
G01X16315Y14128D01*
G01X16314Y14109D01*
G01X16314Y13360D01*
G01X16315Y13341D01*
G01X16319Y13322D01*
G01X16325Y13304D01*
G01X16333Y13286D01*
G01X16339Y13271D01*
G01X16344Y13255D01*
G01X16345Y13238D01*
G01X16345Y12961D01*
G01X16344Y12944D01*
G01X16339Y12928D01*
G01X16333Y12913D01*
G01X16325Y12895D01*
G01X16319Y12877D01*
G01X16315Y12858D01*
G01X16314Y12839D01*
G01X16314Y12090D01*
G01X16315Y12071D01*
G01X16319Y12052D01*
G01X16325Y12033D01*
G01X16333Y12016D01*
G01X16343Y11999D01*
G01X16356Y11984D01*
G01X16368Y11968D01*
G01X16379Y11953D01*
G01X16391Y11939D01*
G01X16405Y11927D01*
G01X16421Y11916D01*
G01X16437Y11908D01*
G01X16450Y11901D01*
G01X16462Y11892D01*
G01X16473Y11882D01*
G01X16482Y11870D01*
G01X16489Y11858D01*
G01X16494Y11844D01*
G01X16497Y11830D01*
G01X16498Y11815D01*
G01X16497Y11800D01*
G01X16494Y11786D01*
G01X16489Y11773D01*
G01X16482Y11760D01*
G01X16473Y11748D01*
G01X16463Y11738D01*
G01X16451Y11729D01*
G01X16439Y11723D01*
G01X16425Y11717D01*
G01X16408Y11711D01*
G01X16392Y11703D01*
G01X16377Y11693D01*
G01X16363Y11682D01*
G01X16351Y11669D01*
G01X16340Y11654D01*
G01X16331Y11639D01*
G01X16324Y11622D01*
G01X16318Y11605D01*
G01X16315Y11587D01*
G01X16314Y11569D01*
G01X16314Y10820D01*
G01X16315Y10801D01*
G01X16319Y10783D01*
G01X16324Y10765D01*
G01X16332Y10748D01*
G01X16341Y10732D01*
G01X16353Y10717D01*
G01X16366Y10704D01*
G01X16381Y10693D01*
G01X16397Y10683D01*
G01X16414Y10675D01*
G01X16432Y10670D01*
G01X16450Y10666D01*
G01X16469Y10665D01*
G01X17769Y10665D01*
G01X17788Y10666D01*
G01X17806Y10670D01*
G01X17824Y10675D01*
G01X17841Y10683D01*
G01X17857Y10693D01*
G01X17872Y10704D01*
G01X17885Y10717D01*
G01X17896Y10732D01*
G01X17906Y10748D01*
G01X17914Y10765D01*
G01X17919Y10783D01*
G01X17923Y10801D01*
G01X17924Y10820D01*
G01X17924Y11569D01*
G01X17923Y11588D01*
G01X17919Y11606D01*
G01X17914Y11624D01*
G01X17906Y11641D01*
G01X17896Y11657D01*
G01X17885Y11672D01*
G01X17872Y11685D01*
G01X17857Y11696D01*
G01X17841Y11706D01*
G01X17824Y11714D01*
G01X17806Y11719D01*
G01X17788Y11723D01*
G01X17769Y11724D01*
G01X17223Y11724D01*
G01X17209Y11725D01*
G01X17195Y11728D01*
G01X17181Y11733D01*
G01X17168Y11740D01*
G01X17157Y11748D01*
G01X17147Y11759D01*
G01X17138Y11770D01*
G01X17131Y11783D01*
G01X17126Y11797D01*
G01X17123Y11811D01*
G01X17122Y11825D01*
G01X17123Y11841D01*
G01X17126Y11856D01*
G01X17132Y11870D01*
G01X17140Y11883D01*
G01X17150Y11895D01*
G01X17161Y11906D01*
G01X17174Y11914D01*
G01X17183Y11919D01*
G01X17195Y11926D01*
G01X17209Y11931D01*
G01X17223Y11934D01*
G01X17237Y11935D01*
G01X17769Y11935D01*
G01X17788Y11936D01*
G01X17806Y11940D01*
G01X17824Y11945D01*
G01X17841Y11953D01*
G01X17857Y11963D01*
G01X17872Y11974D01*
G01X17885Y11987D01*
G01X17896Y12002D01*
G01X17906Y12018D01*
G01X17914Y12035D01*
G01X17919Y12053D01*
G01X17923Y12071D01*
G01X17924Y12090D01*
G01X17924Y12839D01*
G01X17923Y12857D01*
G01X17920Y12874D01*
G01X17915Y12891D01*
G01X17908Y12908D01*
G01X17899Y12923D01*
G01X17892Y12936D01*
G01X17887Y12950D01*
G01X17884Y12964D01*
G01X17883Y12978D01*
G01X17884Y12993D01*
G01X17887Y13007D01*
G01X17892Y13021D01*
G01X17899Y13033D01*
G01X17907Y13045D01*
G01X17918Y13055D01*
G01X17929Y13064D01*
G01X17942Y13071D01*
G01X17956Y13076D01*
G01X17970Y13079D01*
G01X17984Y13080D01*
G01X18234Y13080D01*
G01X18271Y13081D01*
G01X18308Y13084D01*
G01X18344Y13089D01*
G01X18380Y13096D01*
G01X18416Y13105D01*
G01X18450Y13117D01*
G01X18485Y13130D01*
G01X18518Y13145D01*
G01X18551Y13162D01*
G01X18583Y13180D01*
G01X18613Y13201D01*
G01X18642Y13223D01*
G01X18670Y13246D01*
G01X18697Y13272D01*
G01X18891Y13465D01*
G01X18903Y13476D01*
G01X18916Y13484D01*
G01X18931Y13490D01*
G01X18947Y13494D01*
G01X18963Y13495D01*
G01X19699Y13495D01*
G01X19718Y13496D01*
G01X19736Y13499D01*
G01X19754Y13505D01*
G01X19771Y13513D01*
G01X19787Y13522D01*
G01X19802Y13534D01*
G01X19815Y13547D01*
G01X19827Y13562D01*
G01X19836Y13578D01*
G01X19844Y13595D01*
G01X19849Y13613D01*
G01X19853Y13631D01*
G01X19854Y13649D01*
G01X19854Y15550D01*
G01X19853Y15568D01*
G01X19849Y15586D01*
G01X19844Y15604D01*
G01X19836Y15621D01*
G01X19827Y15637D01*
G01X19815Y15652D01*
G01X19802Y15665D01*
G01X19787Y15677D01*
G01X19771Y15686D01*
G01X19754Y15694D01*
G01X19736Y15700D01*
G01X19718Y15703D01*
G01X19699Y15704D01*
G37*
G36*
G01X22900Y15702D02*
G01X22663Y15702D01*
G01X22663Y15138D01*
G01X23052Y15138D01*
G01X23052Y15550D01*
G01X23051Y15568D01*
G01X23048Y15586D01*
G01X23042Y15604D01*
G01X23035Y15620D01*
G01X23025Y15636D01*
G01X23014Y15651D01*
G01X23001Y15664D01*
G01X22986Y15675D01*
G01X22971Y15685D01*
G01X22954Y15692D01*
G01X22936Y15698D01*
G01X22918Y15701D01*
G01X22900Y15702D01*
G37*

%LPD*%
G36*
G01X31618Y10495D02*
G01X30993Y10495D01*
G01X30977Y10494D01*
G01X30961Y10490D01*
G01X30947Y10484D01*
G01X30933Y10476D01*
G01X30921Y10465D01*
G01X30884Y10428D01*
G01X30873Y10416D01*
G01X30865Y10402D01*
G01X30859Y10388D01*
G01X30855Y10372D01*
G01X30854Y10356D01*
G01X30854Y10324D01*
G01X30853Y10305D01*
G01X30849Y10285D01*
G01X30843Y10267D01*
G01X30834Y10249D01*
G01X30827Y10233D01*
G01X30823Y10217D01*
G01X30822Y10199D01*
G01X30823Y10182D01*
G01X30827Y10166D01*
G01X30834Y10150D01*
G01X30843Y10132D01*
G01X30849Y10114D01*
G01X30853Y10094D01*
G01X30854Y10075D01*
G01X30854Y9775D01*
G01X30853Y9756D01*
G01X30850Y9738D01*
G01X30844Y9720D01*
G01X30836Y9703D01*
G01X30827Y9687D01*
G01X30815Y9672D01*
G01X30802Y9659D01*
G01X30787Y9647D01*
G01X30771Y9638D01*
G01X30754Y9630D01*
G01X30736Y9625D01*
G01X30718Y9621D01*
G01X30699Y9620D01*
G01X30668Y9620D01*
G01X30652Y9619D01*
G01X30636Y9615D01*
G01X30622Y9609D01*
G01X30608Y9601D01*
G01X30596Y9590D01*
G01X30331Y9326D01*
G01X30321Y9313D01*
G01X30313Y9300D01*
G01X30307Y9285D01*
G01X30303Y9270D01*
G01X30302Y9254D01*
G01X30303Y9239D01*
G01X30306Y9225D01*
G01X30311Y9212D01*
G01X30317Y9199D01*
G01X30326Y9188D01*
G01X30336Y9177D01*
G01X30336Y8713D01*
G01X29947Y8713D01*
G01X29947Y8731D01*
G01X29946Y8745D01*
G01X29943Y8760D01*
G01X29938Y8773D01*
G01X29931Y8786D01*
G01X29922Y8797D01*
G01X29912Y8808D01*
G01X29900Y8816D01*
G01X29887Y8823D01*
G01X29874Y8828D01*
G01X29860Y8831D01*
G01X29845Y8832D01*
G01X29831Y8831D01*
G01X29816Y8828D01*
G01X29802Y8823D01*
G01X29778Y8813D01*
G01X29753Y8805D01*
G01X29727Y8799D01*
G01X29701Y8796D01*
G01X29674Y8795D01*
G01X29476Y8795D01*
G01X29460Y8793D01*
G01X29445Y8790D01*
G01X29430Y8783D01*
G01X29416Y8775D01*
G01X29401Y8765D01*
G01X29385Y8757D01*
G01X29368Y8751D01*
G01X29350Y8747D01*
G01X29332Y8745D01*
G01X29317Y8743D01*
G01X29301Y8739D01*
G01X29287Y8732D01*
G01X29274Y8723D01*
G01X29262Y8712D01*
G01X29252Y8699D01*
G01X29245Y8685D01*
G01X29238Y8698D01*
G01X29229Y8710D01*
G01X29219Y8720D01*
G01X29207Y8729D01*
G01X29195Y8736D01*
G01X29181Y8741D01*
G01X29167Y8744D01*
G01X29152Y8745D01*
G01X29053Y8745D01*
G01X29039Y8744D01*
G01X29024Y8741D01*
G01X29011Y8736D01*
G01X28998Y8729D01*
G01X28987Y8720D01*
G01X28976Y8710D01*
G01X28968Y8698D01*
G01X28961Y8686D01*
G01X28956Y8672D01*
G01X28952Y8658D01*
G01X28951Y8643D01*
G01X28953Y8627D01*
G01X28956Y8612D01*
G01X28963Y8597D01*
G01X28971Y8583D01*
G01X28981Y8571D01*
G01X28993Y8561D01*
G01X29007Y8553D01*
G01X29022Y8547D01*
G01X29051Y8534D01*
G01X29067Y8526D01*
G01X29084Y8522D01*
G01X29101Y8520D01*
G01X29118Y8522D01*
G01X29135Y8526D01*
G01X29151Y8533D01*
G01X29181Y8546D01*
G01X29197Y8552D01*
G01X29212Y8561D01*
G01X29225Y8572D01*
G01X29236Y8586D01*
G01X29236Y8363D01*
G01X29231Y8363D01*
G01X29216Y8362D01*
G01X29202Y8359D01*
G01X29188Y8354D01*
G01X29176Y8347D01*
G01X29164Y8338D01*
G01X29154Y8328D01*
G01X29145Y8316D01*
G01X29138Y8304D01*
G01X29133Y8290D01*
G01X29130Y8276D01*
G01X29129Y8261D01*
G01X29129Y8138D01*
G01X29130Y8123D01*
G01X29133Y8109D01*
G01X29138Y8095D01*
G01X29145Y8083D01*
G01X29154Y8071D01*
G01X29164Y8061D01*
G01X29176Y8052D01*
G01X29188Y8045D01*
G01X29202Y8040D01*
G01X29216Y8037D01*
G01X29231Y8036D01*
G01X29236Y8036D01*
G01X29236Y7816D01*
G01X29226Y7804D01*
G01X29218Y7790D01*
G01X29212Y7776D01*
G01X29209Y7761D01*
G01X29208Y7745D01*
G01X29209Y7727D01*
G01X29214Y7710D01*
G01X29221Y7694D01*
G01X29234Y7670D01*
G01X29244Y7646D01*
G01X29252Y7620D01*
G01X29258Y7594D01*
G01X29262Y7568D01*
G01X29263Y7541D01*
G01X29263Y7440D01*
G01X29264Y7425D01*
G01X29267Y7411D01*
G01X29272Y7397D01*
G01X29279Y7385D01*
G01X29288Y7373D01*
G01X29298Y7363D01*
G01X29310Y7354D01*
G01X29322Y7347D01*
G01X29336Y7342D01*
G01X29336Y7039D01*
G01X29322Y7034D01*
G01X29310Y7027D01*
G01X29298Y7018D01*
G01X29288Y7008D01*
G01X29279Y6996D01*
G01X29272Y6983D01*
G01X29267Y6970D01*
G01X29264Y6955D01*
G01X29263Y6941D01*
G01X29263Y6773D01*
G01X29261Y6744D01*
G01X29257Y6715D01*
G01X29250Y6686D01*
G01X29247Y6672D01*
G01X29246Y6657D01*
G01X29246Y6604D01*
G01X29247Y6590D01*
G01X29250Y6575D01*
G01X29256Y6561D01*
G01X29263Y6549D01*
G01X29272Y6537D01*
G01X29282Y6527D01*
G01X29294Y6518D01*
G01X29308Y6511D01*
G01X29321Y6506D01*
G01X29336Y6504D01*
G01X29336Y6461D01*
G01X29321Y6458D01*
G01X29308Y6454D01*
G01X29294Y6447D01*
G01X29282Y6438D01*
G01X29272Y6428D01*
G01X29263Y6416D01*
G01X29256Y6403D01*
G01X29250Y6389D01*
G01X29247Y6375D01*
G01X29246Y6360D01*
G01X29245Y6342D01*
G01X29242Y6324D01*
G01X29236Y6306D01*
G01X29229Y6289D01*
G01X29219Y6273D01*
G01X29208Y6259D01*
G01X29195Y6246D01*
G01X29181Y6234D01*
G01X29166Y6224D01*
G01X29148Y6216D01*
G01X29130Y6210D01*
G01X29111Y6207D01*
G01X29092Y6205D01*
G01X28825Y6205D01*
G01X28806Y6207D01*
G01X28787Y6210D01*
G01X28769Y6216D01*
G01X28752Y6224D01*
G01X28737Y6230D01*
G01X28721Y6234D01*
G01X28704Y6236D01*
G01X28688Y6234D01*
G01X28672Y6230D01*
G01X28656Y6224D01*
G01X28628Y6212D01*
G01X28614Y6207D01*
G01X28601Y6200D01*
G01X28590Y6191D01*
G01X28580Y6181D01*
G01X28571Y6169D01*
G01X28564Y6157D01*
G01X28559Y6143D01*
G01X28556Y6129D01*
G01X28555Y6114D01*
G01X28555Y5766D01*
G01X27872Y5766D01*
G01X27872Y5871D01*
G01X27871Y5885D01*
G01X27868Y5900D01*
G01X27863Y5913D01*
G01X27856Y5926D01*
G01X27847Y5938D01*
G01X27837Y5948D01*
G01X27825Y5956D01*
G01X27813Y5963D01*
G01X27799Y5969D01*
G01X27785Y5972D01*
G01X27770Y5973D01*
G01X27755Y5971D01*
G01X27739Y5968D01*
G01X27724Y5962D01*
G01X27711Y5953D01*
G01X27699Y5943D01*
G01X27284Y5528D01*
G01X27273Y5516D01*
G01X27265Y5502D01*
G01X27259Y5488D01*
G01X27255Y5472D01*
G01X27254Y5456D01*
G01X27254Y5424D01*
G01X27253Y5405D01*
G01X27249Y5385D01*
G01X27243Y5367D01*
G01X27234Y5349D01*
G01X27227Y5333D01*
G01X27223Y5317D01*
G01X27222Y5299D01*
G01X27223Y5282D01*
G01X27227Y5266D01*
G01X27234Y5250D01*
G01X27243Y5232D01*
G01X27249Y5214D01*
G01X27253Y5194D01*
G01X27254Y5175D01*
G01X27254Y5143D01*
G01X27255Y5127D01*
G01X27259Y5111D01*
G01X27265Y5097D01*
G01X27273Y5083D01*
G01X27284Y5071D01*
G01X27699Y4656D01*
G01X27711Y4646D01*
G01X27724Y4637D01*
G01X27739Y4631D01*
G01X27755Y4627D01*
G01X27770Y4626D01*
G01X27785Y4627D01*
G01X27799Y4630D01*
G01X27813Y4635D01*
G01X27825Y4642D01*
G01X27837Y4651D01*
G01X27847Y4661D01*
G01X27856Y4673D01*
G01X27863Y4686D01*
G01X27868Y4699D01*
G01X27871Y4713D01*
G01X27872Y4728D01*
G01X27872Y4833D01*
G01X28555Y4833D01*
G01X28555Y4485D01*
G01X28556Y4470D01*
G01X28559Y4456D01*
G01X28564Y4442D01*
G01X28571Y4430D01*
G01X28580Y4418D01*
G01X28590Y4408D01*
G01X28601Y4399D01*
G01X28614Y4392D01*
G01X28628Y4387D01*
G01X28656Y4375D01*
G01X28672Y4369D01*
G01X28688Y4365D01*
G01X28704Y4363D01*
G01X28721Y4365D01*
G01X28737Y4369D01*
G01X28752Y4375D01*
G01X28769Y4383D01*
G01X28787Y4389D01*
G01X28806Y4392D01*
G01X28825Y4394D01*
G01X29092Y4394D01*
G01X29110Y4392D01*
G01X29129Y4389D01*
G01X29147Y4383D01*
G01X29164Y4375D01*
G01X29180Y4369D01*
G01X29196Y4365D01*
G01X29212Y4363D01*
G01X29229Y4365D01*
G01X29245Y4369D01*
G01X29260Y4375D01*
G01X29277Y4383D01*
G01X29295Y4389D01*
G01X29314Y4392D01*
G01X29333Y4394D01*
G01X29600Y4394D01*
G01X29622Y4392D01*
G01X29644Y4387D01*
G01X29665Y4379D01*
G01X29678Y4374D01*
G01X29693Y4371D01*
G01X29707Y4370D01*
G01X29722Y4371D01*
G01X29737Y4374D01*
G01X29750Y4379D01*
G01X29768Y4386D01*
G01X29787Y4391D01*
G01X29802Y4395D01*
G01X29816Y4401D01*
G01X29829Y4410D01*
G01X29841Y4420D01*
G01X29851Y4432D01*
G01X29859Y4446D01*
G01X29865Y4460D01*
G01X29868Y4475D01*
G01X29869Y4491D01*
G01X29869Y4833D01*
G01X30548Y4833D01*
G01X30567Y4835D01*
G01X30586Y4840D01*
G01X30574Y4828D01*
G01X30565Y4814D01*
G01X30558Y4798D01*
G01X30554Y4782D01*
G01X30552Y4765D01*
G01X30552Y4493D01*
G01X30551Y4475D01*
G01X30548Y4457D01*
G01X30542Y4439D01*
G01X30535Y4422D01*
G01X30525Y4406D01*
G01X30514Y4392D01*
G01X30501Y4379D01*
G01X30486Y4367D01*
G01X30471Y4358D01*
G01X30454Y4350D01*
G01X30436Y4345D01*
G01X30418Y4342D01*
G01X30400Y4340D01*
G01X30338Y4340D01*
G01X30324Y4339D01*
G01X30310Y4336D01*
G01X30296Y4331D01*
G01X30283Y4324D01*
G01X30272Y4316D01*
G01X30261Y4305D01*
G01X30253Y4294D01*
G01X30246Y4281D01*
G01X30241Y4267D01*
G01X30238Y4253D01*
G01X30237Y4239D01*
G01X30237Y4232D01*
G01X30238Y4218D01*
G01X30241Y4204D01*
G01X30246Y4190D01*
G01X30253Y4177D01*
G01X30261Y4166D01*
G01X30272Y4156D01*
G01X30283Y4147D01*
G01X30296Y4140D01*
G01X30310Y4135D01*
G01X30324Y4132D01*
G01X30338Y4131D01*
G01X31158Y4131D01*
G01X31174Y4132D01*
G01X31189Y4136D01*
G01X31204Y4142D01*
G01X31218Y4150D01*
G01X31230Y4161D01*
G01X32077Y5007D01*
G01X32087Y5019D01*
G01X32095Y5033D01*
G01X32101Y5048D01*
G01X32105Y5063D01*
G01X32106Y5079D01*
G01X32105Y5095D01*
G01X32101Y5111D01*
G01X32095Y5126D01*
G01X32086Y5139D01*
G01X32076Y5152D01*
G01X32064Y5162D01*
G01X32044Y5178D01*
G01X31948Y5275D01*
G01X32099Y5426D01*
G01X32225Y5300D01*
G01X32238Y5289D01*
G01X32251Y5281D01*
G01X32266Y5275D01*
G01X32281Y5271D01*
G01X32297Y5270D01*
G01X32313Y5271D01*
G01X32329Y5275D01*
G01X32343Y5281D01*
G01X32357Y5289D01*
G01X32369Y5300D01*
G01X32492Y5423D01*
G01X32502Y5435D01*
G01X32511Y5448D01*
G01X32517Y5463D01*
G01X32521Y5479D01*
G01X32522Y5495D01*
G01X32521Y5510D01*
G01X32517Y5526D01*
G01X32511Y5541D01*
G01X32502Y5554D01*
G01X32492Y5566D01*
G01X32366Y5693D01*
G01X32582Y5909D01*
G01X32592Y5921D01*
G01X32600Y5934D01*
G01X32606Y5949D01*
G01X32610Y5965D01*
G01X32611Y5981D01*
G01X32610Y5997D01*
G01X32606Y6012D01*
G01X32600Y6027D01*
G01X32592Y6040D01*
G01X32582Y6052D01*
G01X32353Y6281D01*
G01X32340Y6292D01*
G01X32327Y6300D01*
G01X32312Y6306D01*
G01X32297Y6310D01*
G01X32281Y6311D01*
G01X32265Y6310D01*
G01X32249Y6306D01*
G01X32235Y6300D01*
G01X32221Y6292D01*
G01X32209Y6281D01*
G01X31993Y6065D01*
G01X31788Y6270D01*
G01X31832Y6313D01*
G01X31847Y6327D01*
G01X31864Y6338D01*
G01X31881Y6347D01*
G01X31900Y6353D01*
G01X31920Y6357D01*
G01X31940Y6358D01*
G01X31958Y6357D01*
G01X31975Y6354D01*
G01X31992Y6349D01*
G01X32008Y6342D01*
G01X32024Y6333D01*
G01X32037Y6326D01*
G01X32051Y6321D01*
G01X32065Y6317D01*
G01X32080Y6316D01*
G01X32094Y6317D01*
G01X32108Y6320D01*
G01X32122Y6325D01*
G01X32135Y6332D01*
G01X32146Y6341D01*
G01X32156Y6351D01*
G01X32165Y6363D01*
G01X32172Y6376D01*
G01X32177Y6389D01*
G01X32180Y6403D01*
G01X32181Y6418D01*
G01X32180Y6433D01*
G01X32177Y6447D01*
G01X32172Y6461D01*
G01X32164Y6474D01*
G01X32155Y6490D01*
G01X32148Y6506D01*
G01X32143Y6523D01*
G01X32140Y6541D01*
G01X32139Y6559D01*
G01X32141Y6584D01*
G01X32142Y6600D01*
G01X32141Y6616D01*
G01X32137Y6631D01*
G01X32131Y6646D01*
G01X32123Y6659D01*
G01X32113Y6671D01*
G01X31931Y6857D01*
G01X31919Y6867D01*
G01X31905Y6876D01*
G01X31890Y6882D01*
G01X31874Y6886D01*
G01X31858Y6887D01*
G01X31843Y6886D01*
G01X31827Y6882D01*
G01X31812Y6876D01*
G01X31799Y6868D01*
G01X31787Y6858D01*
G01X31487Y6558D01*
G01X31468Y6540D01*
G01X31447Y6524D01*
G01X31424Y6510D01*
G01X31401Y6498D01*
G01X31376Y6488D01*
G01X31351Y6480D01*
G01X31325Y6474D01*
G01X31299Y6470D01*
G01X31272Y6469D01*
G01X30338Y6469D01*
G01X30324Y6468D01*
G01X30310Y6465D01*
G01X30296Y6460D01*
G01X30283Y6453D01*
G01X30272Y6444D01*
G01X30261Y6434D01*
G01X30253Y6422D01*
G01X30246Y6410D01*
G01X30241Y6396D01*
G01X30238Y6382D01*
G01X30237Y6368D01*
G01X30237Y6360D01*
G01X30238Y6346D01*
G01X30241Y6332D01*
G01X30246Y6318D01*
G01X30253Y6305D01*
G01X30261Y6294D01*
G01X30272Y6283D01*
G01X30283Y6275D01*
G01X30296Y6268D01*
G01X30310Y6263D01*
G01X30324Y6260D01*
G01X30338Y6259D01*
G01X30400Y6259D01*
G01X30418Y6258D01*
G01X30436Y6254D01*
G01X30454Y6249D01*
G01X30471Y6241D01*
G01X30486Y6232D01*
G01X30501Y6220D01*
G01X30514Y6207D01*
G01X30525Y6193D01*
G01X30535Y6177D01*
G01X30542Y6160D01*
G01X30548Y6143D01*
G01X30551Y6124D01*
G01X30552Y6106D01*
G01X30552Y5766D01*
G01X29869Y5766D01*
G01X29869Y6108D01*
G01X29868Y6124D01*
G01X29865Y6139D01*
G01X29859Y6154D01*
G01X29851Y6167D01*
G01X29841Y6179D01*
G01X29829Y6189D01*
G01X29816Y6198D01*
G01X29802Y6204D01*
G01X29787Y6208D01*
G01X29767Y6213D01*
G01X29749Y6220D01*
G01X29732Y6230D01*
G01X29716Y6241D01*
G01X29702Y6255D01*
G01X29690Y6269D01*
G01X29680Y6286D01*
G01X29672Y6303D01*
G01X29666Y6322D01*
G01X29662Y6341D01*
G01X29661Y6360D01*
G01X29660Y6375D01*
G01X29656Y6390D01*
G01X29651Y6404D01*
G01X29643Y6417D01*
G01X29634Y6429D01*
G01X29623Y6440D01*
G01X29610Y6448D01*
G01X29596Y6455D01*
G01X29596Y6510D01*
G01X29610Y6516D01*
G01X29623Y6525D01*
G01X29634Y6535D01*
G01X29643Y6547D01*
G01X29651Y6560D01*
G01X29656Y6574D01*
G01X29660Y6589D01*
G01X29661Y6604D01*
G01X29661Y6658D01*
G01X29660Y6673D01*
G01X29657Y6687D01*
G01X29650Y6715D01*
G01X29646Y6744D01*
G01X29644Y6774D01*
G01X29646Y6803D01*
G01X29650Y6832D01*
G01X29657Y6860D01*
G01X29660Y6875D01*
G01X29661Y6889D01*
G01X29661Y6941D01*
G01X29660Y6956D01*
G01X29656Y6971D01*
G01X29651Y6985D01*
G01X29643Y6998D01*
G01X29634Y7010D01*
G01X29623Y7020D01*
G01X29610Y7029D01*
G01X29596Y7036D01*
G01X29596Y7338D01*
G01X29600Y7338D01*
G01X29621Y7337D01*
G01X29643Y7332D01*
G01X29663Y7324D01*
G01X29677Y7319D01*
G01X29691Y7316D01*
G01X29705Y7315D01*
G01X29720Y7316D01*
G01X29735Y7320D01*
G01X29749Y7325D01*
G01X29770Y7333D01*
G01X29793Y7338D01*
G01X29815Y7340D01*
G01X29900Y7340D01*
G01X29915Y7341D01*
G01X29929Y7344D01*
G01X29942Y7349D01*
G01X29955Y7356D01*
G01X29967Y7365D01*
G01X29977Y7375D01*
G01X29986Y7387D01*
G01X29993Y7399D01*
G01X29998Y7413D01*
G01X30001Y7427D01*
G01X30002Y7442D01*
G01X30000Y7459D01*
G01X29996Y7475D01*
G01X29989Y7491D01*
G01X29980Y7505D01*
G01X29968Y7522D01*
G01X29959Y7540D01*
G01X29952Y7559D01*
G01X29948Y7579D01*
G01X29947Y7600D01*
G01X29947Y7886D01*
G01X30336Y7886D01*
G01X30336Y7447D01*
G01X30282Y7447D01*
G01X30268Y7446D01*
G01X30254Y7443D01*
G01X30240Y7438D01*
G01X30227Y7431D01*
G01X30216Y7422D01*
G01X30206Y7412D01*
G01X30197Y7400D01*
G01X30190Y7387D01*
G01X30185Y7374D01*
G01X30182Y7360D01*
G01X30181Y7345D01*
G01X30182Y7328D01*
G01X30186Y7312D01*
G01X30193Y7296D01*
G01X30203Y7282D01*
G01X30215Y7265D01*
G01X30224Y7246D01*
G01X30231Y7227D01*
G01X30235Y7206D01*
G01X30237Y7185D01*
G01X30237Y7180D01*
G01X30238Y7165D01*
G01X30241Y7151D01*
G01X30246Y7138D01*
G01X30253Y7125D01*
G01X30261Y7113D01*
G01X30272Y7103D01*
G01X30283Y7094D01*
G01X30296Y7087D01*
G01X30310Y7082D01*
G01X30324Y7079D01*
G01X30338Y7078D01*
G01X31104Y7078D01*
G01X31120Y7079D01*
G01X31135Y7083D01*
G01X31150Y7089D01*
G01X31163Y7098D01*
G01X31176Y7108D01*
G01X31341Y7273D01*
G01X31351Y7286D01*
G01X31360Y7299D01*
G01X31366Y7314D01*
G01X31370Y7329D01*
G01X31371Y7345D01*
G01X31370Y7360D01*
G01X31367Y7374D01*
G01X31362Y7387D01*
G01X31355Y7400D01*
G01X31346Y7412D01*
G01X31336Y7422D01*
G01X31324Y7431D01*
G01X31311Y7438D01*
G01X31298Y7443D01*
G01X31284Y7446D01*
G01X31269Y7447D01*
G01X31063Y7447D01*
G01X31063Y7886D01*
G01X31452Y7886D01*
G01X31452Y7630D01*
G01X31453Y7615D01*
G01X31456Y7601D01*
G01X31461Y7588D01*
G01X31468Y7575D01*
G01X31477Y7563D01*
G01X31487Y7553D01*
G01X31499Y7544D01*
G01X31512Y7537D01*
G01X31525Y7532D01*
G01X31539Y7529D01*
G01X31554Y7528D01*
G01X31570Y7529D01*
G01X31585Y7533D01*
G01X31600Y7539D01*
G01X31613Y7548D01*
G01X31626Y7558D01*
G01X32165Y8097D01*
G01X32175Y8109D01*
G01X32183Y8123D01*
G01X32189Y8137D01*
G01X32193Y8153D01*
G01X32194Y8169D01*
G01X32194Y8801D01*
G01X32195Y8827D01*
G01X32199Y8853D01*
G01X32205Y8879D01*
G01X32213Y8905D01*
G01X32223Y8929D01*
G01X32235Y8953D01*
G01X32249Y8975D01*
G01X32266Y8996D01*
G01X32283Y9016D01*
G01X32739Y9472D01*
G01X32749Y9484D01*
G01X32758Y9497D01*
G01X32764Y9512D01*
G01X32768Y9527D01*
G01X32769Y9543D01*
G01X32768Y9558D01*
G01X32765Y9572D01*
G01X32760Y9586D01*
G01X32753Y9598D01*
G01X32744Y9610D01*
G01X32734Y9620D01*
G01X32722Y9629D01*
G01X32709Y9636D01*
G01X32696Y9641D01*
G01X32682Y9644D01*
G01X32667Y9645D01*
G01X31875Y9645D01*
G01X31856Y9646D01*
G01X31838Y9649D01*
G01X31820Y9655D01*
G01X31803Y9663D01*
G01X31787Y9672D01*
G01X31772Y9684D01*
G01X31759Y9697D01*
G01X31747Y9712D01*
G01X31738Y9728D01*
G01X31730Y9745D01*
G01X31724Y9763D01*
G01X31721Y9781D01*
G01X31720Y9800D01*
G01X31720Y10393D01*
G01X31719Y10408D01*
G01X31716Y10422D01*
G01X31711Y10436D01*
G01X31704Y10448D01*
G01X31695Y10460D01*
G01X31685Y10470D01*
G01X31673Y10479D01*
G01X31661Y10486D01*
G01X31647Y10491D01*
G01X31633Y10494D01*
G01X31618Y10495D01*
G37*

%LPC*%
G36*
G01X31028Y5478D02*
G01X30999Y5479D01*
G01X30969Y5478D01*
G01X30939Y5474D01*
G01X30909Y5468D01*
G01X30880Y5460D01*
G01X30851Y5449D01*
G01X30824Y5436D01*
G01X30798Y5421D01*
G01X30772Y5404D01*
G01X30749Y5385D01*
G01X30727Y5364D01*
G01X30707Y5342D01*
G01X30690Y5319D01*
G01X30674Y5294D01*
G01X30660Y5269D01*
G01X30648Y5242D01*
G01X30638Y5215D01*
G01X30630Y5186D01*
G01X30624Y5158D01*
G01X30621Y5129D01*
G01X30620Y5100D01*
G01X30621Y5066D01*
G01X30626Y5033D01*
G01X30633Y5001D01*
G01X30643Y4969D01*
G01X30648Y4952D01*
G01X30649Y4934D01*
G01X30648Y4917D01*
G01X30643Y4901D01*
G01X30637Y4885D01*
G01X30627Y4871D01*
G01X30615Y4859D01*
G01X30634Y4864D01*
G01X30654Y4866D01*
G01X30670Y4865D01*
G01X30686Y4861D01*
G01X30701Y4855D01*
G01X30715Y4846D01*
G01X30727Y4835D01*
G01X30749Y4815D01*
G01X30772Y4795D01*
G01X30798Y4778D01*
G01X30824Y4763D01*
G01X30851Y4750D01*
G01X30880Y4739D01*
G01X30909Y4731D01*
G01X30939Y4725D01*
G01X30969Y4721D01*
G01X30999Y4720D01*
G01X31028Y4721D01*
G01X31056Y4724D01*
G01X31084Y4730D01*
G01X31111Y4737D01*
G01X31138Y4746D01*
G01X31164Y4758D01*
G01X31189Y4771D01*
G01X31213Y4786D01*
G01X31236Y4803D01*
G01X31258Y4821D01*
G01X31278Y4841D01*
G01X31296Y4863D01*
G01X31313Y4886D01*
G01X31328Y4910D01*
G01X31341Y4935D01*
G01X31353Y4961D01*
G01X31362Y4988D01*
G01X31369Y5015D01*
G01X31375Y5043D01*
G01X31378Y5071D01*
G01X31379Y5100D01*
G01X31378Y5128D01*
G01X31375Y5156D01*
G01X31369Y5184D01*
G01X31362Y5211D01*
G01X31353Y5238D01*
G01X31341Y5264D01*
G01X31328Y5289D01*
G01X31313Y5313D01*
G01X31296Y5336D01*
G01X31278Y5358D01*
G01X31258Y5378D01*
G01X31236Y5396D01*
G01X31213Y5413D01*
G01X31189Y5428D01*
G01X31164Y5442D01*
G01X31138Y5453D01*
G01X31111Y5462D01*
G01X31084Y5470D01*
G01X31056Y5475D01*
G01X31028Y5478D01*
G37*
G36*
G01X31300Y9152D02*
G01X31063Y9152D01*
G01X31063Y8713D01*
G01X31452Y8713D01*
G01X31452Y9000D01*
G01X31451Y9018D01*
G01X31448Y9036D01*
G01X31442Y9054D01*
G01X31435Y9070D01*
G01X31425Y9086D01*
G01X31414Y9101D01*
G01X31401Y9114D01*
G01X31386Y9125D01*
G01X31370Y9135D01*
G01X31354Y9142D01*
G01X31336Y9148D01*
G01X31318Y9151D01*
G01X31300Y9152D01*
G37*
G36*
G01X31726Y5799D02*
G01X31522Y6003D01*
G01X31478Y5960D01*
G01X31465Y5945D01*
G01X31454Y5928D01*
G01X31445Y5910D01*
G01X31439Y5891D01*
G01X31435Y5872D01*
G01X31434Y5852D01*
G01X31435Y5832D01*
G01X31439Y5812D01*
G01X31445Y5794D01*
G01X31454Y5776D01*
G01X31465Y5759D01*
G01X31478Y5744D01*
G01X31575Y5647D01*
G01X31726Y5799D01*
G37*
G36*
G01X29524Y8552D02*
G01X29513Y8552D01*
G01X29513Y8363D01*
G01X29677Y8363D01*
G01X29677Y8400D01*
G01X29676Y8418D01*
G01X29673Y8436D01*
G01X29667Y8454D01*
G01X29660Y8470D01*
G01X29650Y8486D01*
G01X29639Y8501D01*
G01X29626Y8514D01*
G01X29611Y8525D01*
G01X29595Y8535D01*
G01X29579Y8542D01*
G01X29561Y8548D01*
G01X29543Y8551D01*
G01X29524Y8552D01*
G37*
G36*
G01X29677Y8036D02*
G01X29513Y8036D01*
G01X29513Y7847D01*
G01X29524Y7847D01*
G01X29543Y7848D01*
G01X29561Y7851D01*
G01X29579Y7857D01*
G01X29595Y7864D01*
G01X29611Y7874D01*
G01X29626Y7885D01*
G01X29639Y7898D01*
G01X29650Y7913D01*
G01X29660Y7929D01*
G01X29667Y7945D01*
G01X29673Y7963D01*
G01X29676Y7981D01*
G01X29677Y8000D01*
G01X29677Y8036D01*
G37*

%LPD*%
G36*
G01X10336Y4808D02*
G01X10320Y4810D01*
G01X10305Y4808D01*
G01X10290Y4805D01*
G01X10275Y4799D01*
G01X10262Y4791D01*
G01X10250Y4782D01*
G01X10240Y4770D01*
G01X10231Y4757D01*
G01X10225Y4743D01*
G01X10220Y4729D01*
G01X10215Y4710D01*
G01X10208Y4692D01*
G01X10199Y4676D01*
G01X10187Y4660D01*
G01X10174Y4646D01*
G01X10159Y4634D01*
G01X10143Y4624D01*
G01X10125Y4616D01*
G01X10107Y4610D01*
G01X10088Y4607D01*
G01X10069Y4605D01*
G01X9942Y4605D01*
G01X9927Y4604D01*
G01X9913Y4601D01*
G01X9900Y4596D01*
G01X9887Y4589D01*
G01X9875Y4580D01*
G01X9865Y4570D01*
G01X9856Y4559D01*
G01X9849Y4546D01*
G01X9844Y4532D01*
G01X9841Y4518D01*
G01X9840Y4504D01*
G01X9840Y4495D01*
G01X9841Y4481D01*
G01X9844Y4467D01*
G01X9849Y4453D01*
G01X9856Y4440D01*
G01X9865Y4429D01*
G01X9875Y4418D01*
G01X9887Y4410D01*
G01X9900Y4403D01*
G01X9913Y4398D01*
G01X9927Y4395D01*
G01X9942Y4394D01*
G01X10069Y4394D01*
G01X10088Y4393D01*
G01X10106Y4389D01*
G01X10124Y4384D01*
G01X10141Y4376D01*
G01X10157Y4366D01*
G01X10172Y4355D01*
G01X10185Y4342D01*
G01X10196Y4327D01*
G01X10206Y4311D01*
G01X10214Y4294D01*
G01X10219Y4276D01*
G01X10223Y4258D01*
G01X10224Y4239D01*
G01X10224Y3490D01*
G01X10220Y3457D01*
G01X10218Y3436D01*
G01X10219Y3422D01*
G01X10222Y3407D01*
G01X10227Y3394D01*
G01X10234Y3381D01*
G01X10243Y3370D01*
G01X10253Y3359D01*
G01X10265Y3351D01*
G01X10277Y3344D01*
G01X10291Y3339D01*
G01X10305Y3336D01*
G01X10320Y3334D01*
G01X10843Y3334D01*
G01X10858Y3336D01*
G01X10872Y3339D01*
G01X10885Y3344D01*
G01X10898Y3351D01*
G01X10910Y3359D01*
G01X10920Y3370D01*
G01X10929Y3381D01*
G01X10941Y3407D01*
G01X10944Y3422D01*
G01X10945Y3436D01*
G01X10945Y4685D01*
G01X10944Y4699D01*
G01X10941Y4713D01*
G01X10935Y4727D01*
G01X10929Y4740D01*
G01X10920Y4751D01*
G01X10910Y4761D01*
G01X10898Y4770D01*
G01X10885Y4777D01*
G01X10872Y4782D01*
G01X10858Y4785D01*
G01X10843Y4786D01*
G01X10825Y4785D01*
G01X10808Y4780D01*
G01X10766Y4759D01*
G01X10740Y4747D01*
G01X10713Y4737D01*
G01X10685Y4730D01*
G01X10657Y4724D01*
G01X10628Y4721D01*
G01X10599Y4720D01*
G01X10570Y4721D01*
G01X10541Y4725D01*
G01X10512Y4730D01*
G01X10484Y4738D01*
G01X10456Y4748D01*
G01X10429Y4760D01*
G01X10404Y4774D01*
G01X10379Y4791D01*
G01X10366Y4799D01*
G01X10351Y4805D01*
G01X10336Y4808D01*
G37*

%LPD*%
G36*
G01X34641Y7445D02*
G01X34506Y7445D01*
G01X34491Y7444D01*
G01X34477Y7441D01*
G01X34464Y7436D01*
G01X34451Y7429D01*
G01X34439Y7420D01*
G01X34429Y7410D01*
G01X34420Y7398D01*
G01X34413Y7386D01*
G01X34408Y7372D01*
G01X34405Y7358D01*
G01X34404Y7343D01*
G01X34404Y6600D01*
G01X34403Y6573D01*
G01X34400Y6547D01*
G01X34394Y6521D01*
G01X34386Y6495D01*
G01X34376Y6471D01*
G01X34363Y6447D01*
G01X34349Y6425D01*
G01X34333Y6404D01*
G01X34315Y6384D01*
G01X32506Y4576D01*
G01X32496Y4563D01*
G01X32488Y4550D01*
G01X32481Y4535D01*
G01X32478Y4520D01*
G01X32477Y4504D01*
G01X32478Y4489D01*
G01X32481Y4475D01*
G01X32486Y4462D01*
G01X32493Y4449D01*
G01X32501Y4437D01*
G01X32512Y4427D01*
G01X32523Y4418D01*
G01X32536Y4411D01*
G01X32549Y4406D01*
G01X32564Y4403D01*
G01X32578Y4402D01*
G01X32811Y4402D01*
G01X32811Y3313D01*
G01X32097Y3313D01*
G01X32097Y3921D01*
G01X32096Y3935D01*
G01X32093Y3950D01*
G01X32088Y3963D01*
G01X32081Y3976D01*
G01X32072Y3987D01*
G01X32062Y3998D01*
G01X32050Y4006D01*
G01X32037Y4013D01*
G01X32024Y4018D01*
G01X32010Y4021D01*
G01X31995Y4022D01*
G01X31979Y4021D01*
G01X31964Y4018D01*
G01X31949Y4011D01*
G01X31936Y4003D01*
G01X31923Y3993D01*
G01X31542Y3611D01*
G01X31522Y3593D01*
G01X31501Y3577D01*
G01X31479Y3563D01*
G01X31455Y3550D01*
G01X31430Y3540D01*
G01X31405Y3532D01*
G01X31379Y3526D01*
G01X31353Y3523D01*
G01X31326Y3522D01*
G01X30338Y3522D01*
G01X30324Y3521D01*
G01X30310Y3518D01*
G01X30296Y3513D01*
G01X30283Y3506D01*
G01X30272Y3497D01*
G01X30261Y3487D01*
G01X30253Y3475D01*
G01X30246Y3462D01*
G01X30241Y3449D01*
G01X30238Y3435D01*
G01X30237Y3420D01*
G01X30237Y3414D01*
G01X30236Y3395D01*
G01X30232Y3377D01*
G01X30227Y3359D01*
G01X30219Y3342D01*
G01X30209Y3326D01*
G01X30198Y3311D01*
G01X30185Y3298D01*
G01X30170Y3286D01*
G01X30154Y3277D01*
G01X30137Y3269D01*
G01X30119Y3264D01*
G01X30101Y3260D01*
G01X30082Y3259D01*
G01X29815Y3259D01*
G01X29793Y3261D01*
G01X29771Y3266D01*
G01X29750Y3273D01*
G01X29737Y3279D01*
G01X29722Y3282D01*
G01X29707Y3283D01*
G01X29693Y3282D01*
G01X29678Y3279D01*
G01X29665Y3273D01*
G01X29644Y3266D01*
G01X29622Y3261D01*
G01X29600Y3259D01*
G01X29333Y3259D01*
G01X29320Y3260D01*
G01X29312Y3260D01*
G01X29297Y3259D01*
G01X29282Y3255D01*
G01X29268Y3250D01*
G01X29254Y3242D01*
G01X29242Y3232D01*
G01X29232Y3221D01*
G01X29223Y3208D01*
G01X29209Y3185D01*
G01X29192Y3163D01*
G01X29173Y3142D01*
G01X28914Y2883D01*
G01X28895Y2865D01*
G01X28874Y2849D01*
G01X28851Y2835D01*
G01X28828Y2822D01*
G01X28803Y2812D01*
G01X28778Y2804D01*
G01X28752Y2798D01*
G01X28726Y2795D01*
G01X28699Y2794D01*
G01X28181Y2794D01*
G01X28167Y2793D01*
G01X28153Y2790D01*
G01X28139Y2785D01*
G01X28126Y2778D01*
G01X28115Y2769D01*
G01X28105Y2759D01*
G01X28096Y2747D01*
G01X28089Y2734D01*
G01X28084Y2721D01*
G01X28081Y2707D01*
G01X28080Y2692D01*
G01X28081Y2676D01*
G01X28085Y2661D01*
G01X28091Y2646D01*
G01X28099Y2633D01*
G01X28109Y2621D01*
G01X28121Y2610D01*
G01X28134Y2602D01*
G01X28149Y2596D01*
G01X28167Y2589D01*
G01X28183Y2579D01*
G01X28199Y2568D01*
G01X28213Y2555D01*
G01X28225Y2540D01*
G01X28235Y2523D01*
G01X28243Y2506D01*
G01X28249Y2488D01*
G01X28253Y2469D01*
G01X28254Y2450D01*
G01X28254Y1880D01*
G01X28255Y1866D01*
G01X28258Y1852D01*
G01X28263Y1838D01*
G01X28270Y1825D01*
G01X28279Y1814D01*
G01X28289Y1804D01*
G01X28301Y1795D01*
G01X28313Y1788D01*
G01X28327Y1783D01*
G01X28341Y1780D01*
G01X28356Y1779D01*
G01X28372Y1780D01*
G01X28388Y1784D01*
G01X28404Y1791D01*
G01X28418Y1800D01*
G01X28443Y1818D01*
G01X28470Y1834D01*
G01X28498Y1847D01*
G01X28527Y1859D01*
G01X28557Y1867D01*
G01X28587Y1874D01*
G01X28618Y1878D01*
G01X28649Y1879D01*
G01X28678Y1878D01*
G01X28706Y1875D01*
G01X28734Y1869D01*
G01X28761Y1862D01*
G01X28788Y1853D01*
G01X28814Y1841D01*
G01X28839Y1828D01*
G01X28863Y1813D01*
G01X28886Y1796D01*
G01X28908Y1778D01*
G01X28928Y1758D01*
G01X28946Y1736D01*
G01X28963Y1713D01*
G01X28978Y1689D01*
G01X28991Y1664D01*
G01X29003Y1638D01*
G01X29012Y1611D01*
G01X29019Y1584D01*
G01X29025Y1556D01*
G01X29028Y1528D01*
G01X29029Y1499D01*
G01X29028Y1471D01*
G01X29025Y1443D01*
G01X29019Y1415D01*
G01X29012Y1387D01*
G01X29003Y1361D01*
G01X28991Y1335D01*
G01X28978Y1310D01*
G01X28963Y1286D01*
G01X28946Y1263D01*
G01X28928Y1241D01*
G01X28908Y1221D01*
G01X28886Y1203D01*
G01X28863Y1186D01*
G01X28839Y1171D01*
G01X28814Y1157D01*
G01X28788Y1146D01*
G01X28761Y1137D01*
G01X28734Y1129D01*
G01X28706Y1124D01*
G01X28678Y1121D01*
G01X28649Y1120D01*
G01X28618Y1121D01*
G01X28587Y1125D01*
G01X28557Y1131D01*
G01X28527Y1140D01*
G01X28498Y1151D01*
G01X28470Y1165D01*
G01X28443Y1181D01*
G01X28418Y1199D01*
G01X28404Y1208D01*
G01X28388Y1215D01*
G01X28372Y1219D01*
G01X28356Y1220D01*
G01X28341Y1219D01*
G01X28327Y1216D01*
G01X28313Y1211D01*
G01X28301Y1204D01*
G01X28289Y1195D01*
G01X28279Y1185D01*
G01X28270Y1173D01*
G01X28263Y1161D01*
G01X28258Y1147D01*
G01X28255Y1133D01*
G01X28254Y1118D01*
G01X28254Y1112D01*
G01X28255Y1096D01*
G01X28259Y1080D01*
G01X28265Y1066D01*
G01X28273Y1052D01*
G01X28284Y1040D01*
G01X28465Y859D01*
G01X28477Y848D01*
G01X28490Y840D01*
G01X28505Y834D01*
G01X28521Y830D01*
G01X28537Y829D01*
G01X28650Y829D01*
G01X28667Y830D01*
G01X28683Y834D01*
G01X28698Y841D01*
G01X28712Y850D01*
G01X28724Y861D01*
G01X28744Y880D01*
G01X28766Y898D01*
G01X28788Y915D01*
G01X28812Y929D01*
G01X28837Y942D01*
G01X28863Y953D01*
G01X28889Y963D01*
G01X28916Y970D01*
G01X28944Y975D01*
G01X28971Y978D01*
G01X28999Y979D01*
G01X29028Y978D01*
G01X29056Y975D01*
G01X29084Y969D01*
G01X29111Y962D01*
G01X29138Y953D01*
G01X29164Y941D01*
G01X29189Y928D01*
G01X29213Y913D01*
G01X29236Y896D01*
G01X29258Y878D01*
G01X29278Y858D01*
G01X29296Y836D01*
G01X29313Y813D01*
G01X29328Y789D01*
G01X29341Y764D01*
G01X29353Y738D01*
G01X29362Y711D01*
G01X29369Y684D01*
G01X29375Y656D01*
G01X29378Y628D01*
G01X29379Y599D01*
G01X29378Y571D01*
G01X29375Y543D01*
G01X29369Y515D01*
G01X29362Y487D01*
G01X29352Y460D01*
G01X29341Y434D01*
G01X29328Y409D01*
G01X29320Y393D01*
G01X29315Y375D01*
G01X29314Y358D01*
G01X29315Y343D01*
G01X29318Y329D01*
G01X29323Y315D01*
G01X29330Y303D01*
G01X29339Y291D01*
G01X29349Y281D01*
G01X29360Y272D01*
G01X29373Y265D01*
G01X29387Y260D01*
G01X29401Y257D01*
G01X29415Y256D01*
G01X29933Y256D01*
G01X29947Y257D01*
G01X29961Y260D01*
G01X29975Y265D01*
G01X29987Y272D01*
G01X29999Y281D01*
G01X30009Y291D01*
G01X30018Y303D01*
G01X30025Y315D01*
G01X30030Y329D01*
G01X30033Y343D01*
G01X30034Y358D01*
G01X30033Y372D01*
G01X30030Y386D01*
G01X30025Y400D01*
G01X30018Y412D01*
G01X30009Y424D01*
G01X29986Y447D01*
G01X29974Y462D01*
G01X29965Y478D01*
G01X29957Y495D01*
G01X29951Y512D01*
G01X29948Y531D01*
G01X29947Y549D01*
G01X29947Y961D01*
G01X30336Y961D01*
G01X30336Y358D01*
G01X30337Y343D01*
G01X30340Y329D01*
G01X30345Y315D01*
G01X30352Y303D01*
G01X30361Y291D01*
G01X30371Y281D01*
G01X30383Y272D01*
G01X30395Y265D01*
G01X30409Y260D01*
G01X30423Y257D01*
G01X30438Y256D01*
G01X30961Y256D01*
G01X30976Y257D01*
G01X30990Y260D01*
G01X31004Y265D01*
G01X31016Y272D01*
G01X31028Y281D01*
G01X31038Y291D01*
G01X31047Y303D01*
G01X31054Y315D01*
G01X31059Y329D01*
G01X31062Y343D01*
G01X31063Y358D01*
G01X31063Y961D01*
G01X31452Y961D01*
G01X31452Y549D01*
G01X31451Y531D01*
G01X31448Y512D01*
G01X31442Y495D01*
G01X31434Y478D01*
G01X31425Y462D01*
G01X31413Y447D01*
G01X31390Y424D01*
G01X31381Y412D01*
G01X31374Y400D01*
G01X31369Y386D01*
G01X31366Y372D01*
G01X31365Y358D01*
G01X31366Y343D01*
G01X31369Y329D01*
G01X31374Y315D01*
G01X31381Y303D01*
G01X31390Y291D01*
G01X31400Y281D01*
G01X31412Y272D01*
G01X31424Y265D01*
G01X31438Y260D01*
G01X31452Y257D01*
G01X31466Y256D01*
G01X31995Y256D01*
G01X32010Y257D01*
G01X32024Y260D01*
G01X32037Y265D01*
G01X32050Y272D01*
G01X32062Y281D01*
G01X32072Y291D01*
G01X32081Y303D01*
G01X32088Y315D01*
G01X32093Y329D01*
G01X32096Y343D01*
G01X32097Y358D01*
G01X32097Y1060D01*
G01X32096Y1074D01*
G01X32093Y1088D01*
G01X32088Y1102D01*
G01X32081Y1115D01*
G01X32072Y1126D01*
G01X32062Y1137D01*
G01X32050Y1145D01*
G01X32037Y1152D01*
G01X32024Y1157D01*
G01X32010Y1160D01*
G01X31995Y1161D01*
G01X31974Y1159D01*
G01X31954Y1153D01*
G01X31924Y1141D01*
G01X31894Y1132D01*
G01X31863Y1125D01*
G01X31831Y1121D01*
G01X31800Y1120D01*
G01X31771Y1121D01*
G01X31742Y1124D01*
G01X31713Y1130D01*
G01X31685Y1137D01*
G01X31658Y1147D01*
G01X31631Y1159D01*
G01X31606Y1173D01*
G01X31582Y1188D01*
G01X31560Y1205D01*
G01X31539Y1224D01*
G01X31519Y1244D01*
G01X31501Y1265D01*
G01X31484Y1288D01*
G01X31470Y1312D01*
G01X31457Y1337D01*
G01X31446Y1362D01*
G01X31436Y1389D01*
G01X31429Y1416D01*
G01X31424Y1443D01*
G01X31421Y1471D01*
G01X31420Y1499D01*
G01X31421Y1527D01*
G01X31424Y1555D01*
G01X31429Y1583D01*
G01X31436Y1610D01*
G01X31446Y1636D01*
G01X31457Y1662D01*
G01X31470Y1687D01*
G01X31484Y1711D01*
G01X31501Y1734D01*
G01X31519Y1755D01*
G01X31539Y1775D01*
G01X31560Y1794D01*
G01X31582Y1810D01*
G01X31606Y1826D01*
G01X31631Y1840D01*
G01X31658Y1851D01*
G01X31685Y1861D01*
G01X31713Y1869D01*
G01X31742Y1874D01*
G01X31771Y1878D01*
G01X31800Y1879D01*
G01X31831Y1878D01*
G01X31863Y1874D01*
G01X31894Y1867D01*
G01X31924Y1858D01*
G01X31954Y1846D01*
G01X31980Y1833D01*
G01X32005Y1818D01*
G01X32029Y1802D01*
G01X32052Y1783D01*
G01X32073Y1763D01*
G01X32092Y1741D01*
G01X32110Y1718D01*
G01X32126Y1694D01*
G01X32140Y1668D01*
G01X32151Y1642D01*
G01X32161Y1614D01*
G01X32169Y1586D01*
G01X32175Y1557D01*
G01X32178Y1528D01*
G01X32179Y1499D01*
G01X32178Y1471D01*
G01X32175Y1442D01*
G01X32169Y1414D01*
G01X32162Y1386D01*
G01X32152Y1359D01*
G01X32140Y1332D01*
G01X32135Y1318D01*
G01X32131Y1303D01*
G01X32130Y1288D01*
G01X32131Y1273D01*
G01X32134Y1259D01*
G01X32139Y1245D01*
G01X32146Y1233D01*
G01X32155Y1221D01*
G01X32165Y1211D01*
G01X32177Y1202D01*
G01X32189Y1195D01*
G01X32203Y1190D01*
G01X32217Y1187D01*
G01X32232Y1186D01*
G01X32811Y1186D01*
G01X32811Y358D01*
G01X32812Y343D01*
G01X32815Y329D01*
G01X32820Y315D01*
G01X32827Y303D01*
G01X32836Y291D01*
G01X32846Y281D01*
G01X32858Y272D01*
G01X32870Y265D01*
G01X32884Y260D01*
G01X32898Y257D01*
G01X32913Y256D01*
G01X34086Y256D01*
G01X34101Y257D01*
G01X34115Y260D01*
G01X34129Y265D01*
G01X34141Y272D01*
G01X34153Y281D01*
G01X34163Y291D01*
G01X34172Y303D01*
G01X34179Y315D01*
G01X34184Y329D01*
G01X34187Y343D01*
G01X34188Y358D01*
G01X34188Y1186D01*
G01X34641Y1186D01*
G01X34656Y1187D01*
G01X34670Y1190D01*
G01X34684Y1195D01*
G01X34696Y1202D01*
G01X34708Y1211D01*
G01X34718Y1221D01*
G01X34727Y1233D01*
G01X34734Y1245D01*
G01X34739Y1259D01*
G01X34742Y1273D01*
G01X34743Y1288D01*
G01X34743Y3211D01*
G01X34742Y3226D01*
G01X34739Y3240D01*
G01X34734Y3254D01*
G01X34727Y3266D01*
G01X34718Y3278D01*
G01X34708Y3288D01*
G01X34696Y3297D01*
G01X34684Y3304D01*
G01X34670Y3309D01*
G01X34656Y3312D01*
G01X34641Y3313D01*
G01X34188Y3313D01*
G01X34188Y4402D01*
G01X34641Y4402D01*
G01X34656Y4403D01*
G01X34670Y4406D01*
G01X34684Y4411D01*
G01X34696Y4418D01*
G01X34708Y4427D01*
G01X34718Y4437D01*
G01X34727Y4449D01*
G01X34734Y4462D01*
G01X34739Y4475D01*
G01X34742Y4489D01*
G01X34743Y4504D01*
G01X34743Y7343D01*
G01X34742Y7358D01*
G01X34739Y7372D01*
G01X34734Y7386D01*
G01X34727Y7398D01*
G01X34718Y7410D01*
G01X34708Y7420D01*
G01X34696Y7429D01*
G01X34684Y7436D01*
G01X34670Y7441D01*
G01X34656Y7444D01*
G01X34641Y7445D01*
G37*

%LPC*%
G36*
G01X29729Y1878D02*
G01X29699Y1879D01*
G01X29671Y1878D01*
G01X29643Y1875D01*
G01X29615Y1869D01*
G01X29588Y1862D01*
G01X29561Y1853D01*
G01X29535Y1841D01*
G01X29510Y1828D01*
G01X29486Y1813D01*
G01X29463Y1796D01*
G01X29441Y1778D01*
G01X29421Y1758D01*
G01X29403Y1736D01*
G01X29386Y1713D01*
G01X29371Y1689D01*
G01X29358Y1664D01*
G01X29346Y1638D01*
G01X29337Y1611D01*
G01X29329Y1584D01*
G01X29324Y1556D01*
G01X29321Y1528D01*
G01X29320Y1499D01*
G01X29321Y1471D01*
G01X29324Y1443D01*
G01X29329Y1415D01*
G01X29337Y1388D01*
G01X29346Y1361D01*
G01X29358Y1335D01*
G01X29371Y1310D01*
G01X29386Y1286D01*
G01X29403Y1263D01*
G01X29421Y1241D01*
G01X29441Y1221D01*
G01X29463Y1203D01*
G01X29486Y1186D01*
G01X29510Y1171D01*
G01X29535Y1157D01*
G01X29561Y1146D01*
G01X29588Y1137D01*
G01X29615Y1129D01*
G01X29643Y1124D01*
G01X29671Y1121D01*
G01X29699Y1120D01*
G01X29729Y1121D01*
G01X29758Y1124D01*
G01X29786Y1130D01*
G01X29814Y1138D01*
G01X29838Y1142D01*
G01X29858Y1155D01*
G01X29884Y1168D01*
G01X29909Y1183D01*
G01X29932Y1200D01*
G01X29954Y1218D01*
G01X29975Y1238D01*
G01X29994Y1260D01*
G01X30011Y1283D01*
G01X30027Y1307D01*
G01X30040Y1332D01*
G01X30052Y1359D01*
G01X30062Y1386D01*
G01X30069Y1414D01*
G01X30075Y1442D01*
G01X30078Y1471D01*
G01X30079Y1499D01*
G01X30078Y1528D01*
G01X30075Y1557D01*
G01X30069Y1585D01*
G01X30062Y1613D01*
G01X30052Y1640D01*
G01X30040Y1666D01*
G01X30027Y1692D01*
G01X30011Y1716D01*
G01X29994Y1739D01*
G01X29975Y1761D01*
G01X29954Y1781D01*
G01X29932Y1799D01*
G01X29909Y1816D01*
G01X29884Y1831D01*
G01X29858Y1844D01*
G01X29838Y1857D01*
G01X29814Y1861D01*
G01X29786Y1869D01*
G01X29758Y1874D01*
G01X29729Y1878D01*
G37*
G36*
G01X30336Y2602D02*
G01X30099Y2602D01*
G01X30081Y2601D01*
G01X30063Y2598D01*
G01X30045Y2592D01*
G01X30029Y2585D01*
G01X30013Y2575D01*
G01X29998Y2564D01*
G01X29985Y2551D01*
G01X29974Y2536D01*
G01X29964Y2520D01*
G01X29957Y2504D01*
G01X29951Y2486D01*
G01X29948Y2468D01*
G01X29947Y2449D01*
G01X29947Y2038D01*
G01X30336Y2038D01*
G01X30336Y2602D01*
G37*
G36*
G01X31299Y2602D02*
G01X31063Y2602D01*
G01X31063Y2038D01*
G01X31452Y2038D01*
G01X31452Y2449D01*
G01X31451Y2468D01*
G01X31448Y2486D01*
G01X31442Y2504D01*
G01X31435Y2520D01*
G01X31425Y2536D01*
G01X31414Y2551D01*
G01X31401Y2564D01*
G01X31386Y2575D01*
G01X31370Y2585D01*
G01X31354Y2592D01*
G01X31336Y2598D01*
G01X31318Y2601D01*
G01X31299Y2602D01*
G37*

%LPD*%
G54D12*
G01X20400Y7400D02*
G01X24400Y7400D01*
G01X24819Y7819D01*
G01X24819Y8394D01*
G54D37*
G01X18181Y1094D02*
G01X17785Y701D01*
G01X3050Y701D01*
G01X1501Y2250D01*
G54D38*
G01X14135Y8319D02*
G01X14135Y8885D01*
G01X14749Y9499D01*
G01X16249Y9499D01*
G01X16549Y9799D01*
G01X19045Y9799D01*
G01X19180Y9664D01*
G54D37*
G01X13500Y4763D02*
G01X15236Y6500D01*
G01X25100Y6500D01*
G01X26400Y7800D01*
G01X26400Y7800D02*
G01X26400Y16476D01*
G01X9819Y16405D02*
G01X10114Y16700D01*
G01X30200Y16700D01*
G01X30500Y16400D01*
G01X24819Y12204D02*
G01X24999Y12385D01*
G01X24999Y14899D01*
G54D12*
G01X28958Y3827D02*
G01X28958Y3357D01*
G01X28699Y3098D01*
G01X27851Y3098D01*
G01X25100Y5852D01*
G01X25100Y6499D01*
G54D11*
G01X28999Y599D02*
G01X28399Y599D01*
G01X27500Y1499D01*
G54D37*
G01X33500Y15249D02*
G01X32349Y16400D01*
G01X30500Y16400D01*
G01X3780Y2594D02*
G01X3780Y799D01*
G01X9419Y2594D02*
G01X9504Y2680D01*
G01X11595Y2680D01*
G54D12*
G01X30499Y10474D02*
G01X30825Y10800D01*
G01X32374Y10800D01*
G01X32753Y6454D02*
G01X31861Y7363D01*
G01X29949Y3826D02*
G01X31326Y3826D01*
G01X34100Y6600D01*
G01X34100Y8300D01*
G01X34225Y10800D02*
G01X34225Y8425D01*
G01X34100Y8300D01*
G01X29949Y6774D02*
G01X31272Y6774D01*
G01X32499Y8001D01*
G01X32499Y8801D01*
G01X33299Y9601D01*
G01X33299Y15250D01*
G01X33500Y15250D01*
G01X27226Y9999D02*
G01X27299Y9926D01*
G01X27299Y9499D01*
G01X27500Y9298D01*
G01X27500Y8699D01*
G01X28699Y9924D02*
G01X28625Y9850D01*
G01X28625Y9099D01*
G01X30500Y10474D02*
G01X30500Y10474D01*
G01X29600Y10474D01*
G01X29175Y9099D02*
G01X29674Y9099D01*
G01X30500Y9925D01*
G01X26901Y5024D02*
G01X26576Y5024D01*
G01X26299Y5300D01*
G01X26299Y5801D01*
G01X27500Y7000D01*
G01X27500Y7701D01*
G01X29600Y10474D02*
G01X29600Y12299D01*
G01X29600Y12299D01*
G01X29699Y12200D01*
G01X29700Y12200D01*
G01X28450Y6773D02*
G01X28450Y7349D01*
G01X28300Y7500D01*
G01X28300Y8500D01*
G01X28625Y8825D01*
G01X28625Y9099D01*
G01X28958Y6773D02*
G01X28958Y7541D01*
G01X28824Y7675D01*
G01X28824Y8200D01*
G01X28699Y9924D02*
G01X27850Y9924D01*
G01X27774Y10000D01*
G01X28700Y9924D02*
G01X28700Y9925D01*
G01X29600Y9925D01*
G01X26899Y5574D02*
G01X28098Y6773D01*
G01X28450Y6773D01*
G54D37*
G01X27499Y1499D02*
G01X27032Y1967D01*
G01X27032Y1967D02*
G01X26634Y2364D01*
G01X23819Y2364D01*
G01X11595Y8319D02*
G01X1930Y8319D01*
G01X1499Y8749D01*
G01X1499Y15250D02*
G01X1614Y15135D01*
G01X4180Y15135D01*
G01X19099Y14599D02*
G01X18234Y13734D01*
G01X17119Y13734D01*
G01X11480Y11194D02*
G01X4805Y11194D01*
G01X4180Y11819D01*
G01X4180Y12595D01*
G54D11*
G01X10300Y12300D02*
G01X10004Y12595D01*
G01X9819Y12595D01*
G54D12*
G01X26899Y5024D02*
G01X28098Y3826D01*
G01X28450Y3826D01*
G01X4599Y16499D02*
G01X4274Y16499D01*
G01X4180Y16405D01*
G54D39*
G01X1500Y8750D03*
G01X1500Y2249D03*
G01X1500Y15249D03*
G01X33500Y2249D03*
G01X33500Y15249D03*
G36*
G01X27201Y11424D02*
G01X28201Y11424D01*
G01X28201Y12974D01*
G01X27201Y12974D01*
G01X27201Y11424D01*
G37*
G36*
G01X29201Y11424D02*
G01X30201Y11424D01*
G01X30201Y12974D01*
G01X29201Y12974D01*
G01X29201Y11424D01*
G37*
G36*
G01X31274Y13900D02*
G01X31274Y14900D01*
G01X29724Y14900D01*
G01X29724Y13900D01*
G01X31274Y13900D01*
G37*
G36*
G01X31274Y15900D02*
G01X31274Y16900D01*
G01X29724Y16900D01*
G01X29724Y15900D01*
G01X31274Y15900D01*
G37*
G36*
G01X30100Y549D02*
G01X31300Y549D01*
G01X31300Y2450D01*
G01X30100Y2450D01*
G01X30100Y549D01*
G37*
G36*
G01X26899Y549D02*
G01X28099Y549D01*
G01X28099Y2450D01*
G01X26899Y2450D01*
G01X26899Y549D01*
G37*
G36*
G01X21700Y13649D02*
G01X22900Y13649D01*
G01X22900Y15550D01*
G01X21700Y15550D01*
G01X21700Y13649D01*
G37*
G36*
G01X18499Y13649D02*
G01X19699Y13649D01*
G01X19699Y15550D01*
G01X18499Y15550D01*
G01X18499Y13649D01*
G37*
G36*
G01X27600Y13949D02*
G01X28800Y13949D01*
G01X28800Y15850D01*
G01X27600Y15850D01*
G01X27600Y13949D01*
G37*
G36*
G01X24399Y13949D02*
G01X25599Y13949D01*
G01X25599Y15850D01*
G01X24399Y15850D01*
G01X24399Y13949D01*
G37*
G36*
G01X30400Y4493D02*
G01X30400Y6106D01*
G01X28025Y6106D01*
G01X28025Y4493D01*
G01X30400Y4493D01*
G37*
G36*
G01X29815Y6360D02*
G01X30082Y6360D01*
G01X30082Y7185D01*
G01X29815Y7185D01*
G01X29815Y6360D01*
G37*
G36*
G01X29333Y6360D02*
G01X29600Y6360D01*
G01X29600Y7185D01*
G01X29333Y7185D01*
G01X29333Y6360D01*
G37*
G36*
G01X28825Y6360D02*
G01X29092Y6360D01*
G01X29092Y7185D01*
G01X28825Y7185D01*
G01X28825Y6360D01*
G37*
G36*
G01X28317Y6360D02*
G01X28584Y6360D01*
G01X28584Y7185D01*
G01X28317Y7185D01*
G01X28317Y6360D01*
G37*
G36*
G01X28317Y3414D02*
G01X28584Y3414D01*
G01X28584Y4239D01*
G01X28317Y4239D01*
G01X28317Y3414D01*
G37*
G36*
G01X28825Y3414D02*
G01X29092Y3414D01*
G01X29092Y4239D01*
G01X28825Y4239D01*
G01X28825Y3414D01*
G37*
G36*
G01X29333Y3414D02*
G01X29600Y3414D01*
G01X29600Y4239D01*
G01X29333Y4239D01*
G01X29333Y3414D01*
G37*
G36*
G01X29815Y3414D02*
G01X30082Y3414D01*
G01X30082Y4239D01*
G01X29815Y4239D01*
G01X29815Y3414D01*
G37*
G36*
G01X3530Y12220D02*
G01X4830Y12220D01*
G01X4830Y12969D01*
G01X3530Y12969D01*
G01X3530Y12220D01*
G37*
G36*
G01X3530Y13490D02*
G01X4830Y13490D01*
G01X4830Y14239D01*
G01X3530Y14239D01*
G01X3530Y13490D01*
G37*
G36*
G01X3530Y14760D02*
G01X4830Y14760D01*
G01X4830Y15509D01*
G01X3530Y15509D01*
G01X3530Y14760D01*
G37*
G36*
G01X3530Y16030D02*
G01X4830Y16030D01*
G01X4830Y16779D01*
G01X3530Y16779D01*
G01X3530Y16030D01*
G37*
G36*
G01X10469Y16779D02*
G01X9169Y16779D01*
G01X9169Y16030D01*
G01X10469Y16030D01*
G01X10469Y16779D01*
G37*
G36*
G01X10469Y15509D02*
G01X9169Y15509D01*
G01X9169Y14760D01*
G01X10469Y14760D01*
G01X10469Y15509D01*
G37*
G36*
G01X10469Y14239D02*
G01X9169Y14239D01*
G01X9169Y13490D01*
G01X10469Y13490D01*
G01X10469Y14239D01*
G37*
G36*
G01X10469Y12969D02*
G01X9169Y12969D01*
G01X9169Y12220D01*
G01X10469Y12220D01*
G01X10469Y12969D01*
G37*
G36*
G01X10086Y16900D02*
G01X5387Y16900D01*
G01X5387Y12099D01*
G01X10086Y12099D01*
G01X10086Y16900D01*
G37*
G36*
G01X4200Y12249D02*
G01X4800Y12249D01*
G01X4800Y15550D01*
G01X4200Y15550D01*
G01X4200Y12249D01*
G37*
G36*
G01X17769Y15379D02*
G01X16469Y15379D01*
G01X16469Y14630D01*
G01X17769Y14630D01*
G01X17769Y15379D01*
G37*
G36*
G01X17769Y14109D02*
G01X16469Y14109D01*
G01X16469Y13360D01*
G01X17769Y13360D01*
G01X17769Y14109D01*
G37*
G36*
G01X17769Y12839D02*
G01X16469Y12839D01*
G01X16469Y12090D01*
G01X17769Y12090D01*
G01X17769Y12839D01*
G37*
G36*
G01X17769Y11569D02*
G01X16469Y11569D01*
G01X16469Y10820D01*
G01X17769Y10820D01*
G01X17769Y11569D01*
G37*
G36*
G01X10830Y10820D02*
G01X12130Y10820D01*
G01X12130Y11569D01*
G01X10830Y11569D01*
G01X10830Y10820D01*
G37*
G36*
G01X10830Y12090D02*
G01X12130Y12090D01*
G01X12130Y12839D01*
G01X10830Y12839D01*
G01X10830Y12090D01*
G37*
G36*
G01X10830Y13360D02*
G01X12130Y13360D01*
G01X12130Y14109D01*
G01X10830Y14109D01*
G01X10830Y13360D01*
G37*
G36*
G01X10830Y14630D02*
G01X12130Y14630D01*
G01X12130Y15379D01*
G01X10830Y15379D01*
G01X10830Y14630D01*
G37*
G36*
G01X11213Y10699D02*
G01X15912Y10699D01*
G01X15912Y15500D01*
G01X11213Y15500D01*
G01X11213Y10699D01*
G37*
G36*
G01X17099Y15350D02*
G01X16499Y15350D01*
G01X16499Y12049D01*
G01X17099Y12049D01*
G01X17099Y15350D01*
G37*
G36*
G01X11220Y8969D02*
G01X11220Y7669D01*
G01X11969Y7669D01*
G01X11969Y8969D01*
G01X11220Y8969D01*
G37*
G36*
G01X12490Y8969D02*
G01X12490Y7669D01*
G01X13239Y7669D01*
G01X13239Y8969D01*
G01X12490Y8969D01*
G37*
G36*
G01X13760Y8969D02*
G01X13760Y7669D01*
G01X14509Y7669D01*
G01X14509Y8969D01*
G01X13760Y8969D01*
G37*
G36*
G01X15030Y8969D02*
G01X15030Y7669D01*
G01X15779Y7669D01*
G01X15779Y8969D01*
G01X15030Y8969D01*
G37*
G36*
G01X15779Y2030D02*
G01X15779Y3330D01*
G01X15030Y3330D01*
G01X15030Y2030D01*
G01X15779Y2030D01*
G37*
G36*
G01X14509Y2030D02*
G01X14509Y3330D01*
G01X13760Y3330D01*
G01X13760Y2030D01*
G01X14509Y2030D01*
G37*
G36*
G01X13239Y2030D02*
G01X13239Y3330D01*
G01X12490Y3330D01*
G01X12490Y2030D01*
G01X13239Y2030D01*
G37*
G36*
G01X11969Y2030D02*
G01X11969Y3330D01*
G01X11220Y3330D01*
G01X11220Y2030D01*
G01X11969Y2030D01*
G37*
G36*
G01X15900Y2413D02*
G01X15900Y7112D01*
G01X11099Y7112D01*
G01X11099Y2413D01*
G01X15900Y2413D01*
G37*
G36*
G01X11249Y8299D02*
G01X11249Y7699D01*
G01X14550Y7699D01*
G01X14550Y8299D01*
G01X11249Y8299D01*
G37*
G36*
G01X25469Y12579D02*
G01X24169Y12579D01*
G01X24169Y11830D01*
G01X25469Y11830D01*
G01X25469Y12579D01*
G37*
G36*
G01X25469Y11309D02*
G01X24169Y11309D01*
G01X24169Y10560D01*
G01X25469Y10560D01*
G01X25469Y11309D01*
G37*
G36*
G01X25469Y10039D02*
G01X24169Y10039D01*
G01X24169Y9290D01*
G01X25469Y9290D01*
G01X25469Y10039D01*
G37*
G36*
G01X25469Y8769D02*
G01X24169Y8769D01*
G01X24169Y8020D01*
G01X25469Y8020D01*
G01X25469Y8769D01*
G37*
G36*
G01X18530Y8020D02*
G01X19830Y8020D01*
G01X19830Y8769D01*
G01X18530Y8769D01*
G01X18530Y8020D01*
G37*
G36*
G01X18530Y9290D02*
G01X19830Y9290D01*
G01X19830Y10039D01*
G01X18530Y10039D01*
G01X18530Y9290D01*
G37*
G36*
G01X18530Y10560D02*
G01X19830Y10560D01*
G01X19830Y11309D01*
G01X18530Y11309D01*
G01X18530Y10560D01*
G37*
G36*
G01X18530Y11830D02*
G01X19830Y11830D01*
G01X19830Y12579D01*
G01X18530Y12579D01*
G01X18530Y11830D01*
G37*
G36*
G01X18913Y7899D02*
G01X23612Y7899D01*
G01X23612Y12700D01*
G01X18913Y12700D01*
G01X18913Y7899D01*
G37*
G36*
G01X24800Y12550D02*
G01X24200Y12550D01*
G01X24200Y9249D01*
G01X24800Y9249D01*
G01X24800Y12550D01*
G37*
G36*
G01X3130Y2220D02*
G01X4430Y2220D01*
G01X4430Y2969D01*
G01X3130Y2969D01*
G01X3130Y2220D01*
G37*
G36*
G01X3130Y3490D02*
G01X4430Y3490D01*
G01X4430Y4239D01*
G01X3130Y4239D01*
G01X3130Y3490D01*
G37*
G36*
G01X3130Y4760D02*
G01X4430Y4760D01*
G01X4430Y5509D01*
G01X3130Y5509D01*
G01X3130Y4760D01*
G37*
G36*
G01X3130Y6030D02*
G01X4430Y6030D01*
G01X4430Y6779D01*
G01X3130Y6779D01*
G01X3130Y6030D01*
G37*
G36*
G01X10069Y6779D02*
G01X8769Y6779D01*
G01X8769Y6030D01*
G01X10069Y6030D01*
G01X10069Y6779D01*
G37*
G36*
G01X10069Y5509D02*
G01X8769Y5509D01*
G01X8769Y4760D01*
G01X10069Y4760D01*
G01X10069Y5509D01*
G37*
G36*
G01X10069Y4239D02*
G01X8769Y4239D01*
G01X8769Y3490D01*
G01X10069Y3490D01*
G01X10069Y4239D01*
G37*
G36*
G01X10069Y2969D02*
G01X8769Y2969D01*
G01X8769Y2220D01*
G01X10069Y2220D01*
G01X10069Y2969D01*
G37*
G36*
G01X9686Y6900D02*
G01X4987Y6900D01*
G01X4987Y2099D01*
G01X9686Y2099D01*
G01X9686Y6900D01*
G37*
G36*
G01X3800Y2249D02*
G01X4400Y2249D01*
G01X4400Y5550D01*
G01X3800Y5550D01*
G01X3800Y2249D01*
G37*
G36*
G01X24469Y5279D02*
G01X23169Y5279D01*
G01X23169Y4530D01*
G01X24469Y4530D01*
G01X24469Y5279D01*
G37*
G36*
G01X24469Y4009D02*
G01X23169Y4009D01*
G01X23169Y3260D01*
G01X24469Y3260D01*
G01X24469Y4009D01*
G37*
G36*
G01X24469Y2739D02*
G01X23169Y2739D01*
G01X23169Y1990D01*
G01X24469Y1990D01*
G01X24469Y2739D01*
G37*
G36*
G01X24469Y1469D02*
G01X23169Y1469D01*
G01X23169Y720D01*
G01X24469Y720D01*
G01X24469Y1469D01*
G37*
G36*
G01X17530Y720D02*
G01X18830Y720D01*
G01X18830Y1469D01*
G01X17530Y1469D01*
G01X17530Y720D01*
G37*
G36*
G01X17530Y1990D02*
G01X18830Y1990D01*
G01X18830Y2739D01*
G01X17530Y2739D01*
G01X17530Y1990D01*
G37*
G36*
G01X17530Y3260D02*
G01X18830Y3260D01*
G01X18830Y4009D01*
G01X17530Y4009D01*
G01X17530Y3260D01*
G37*
G36*
G01X17530Y4530D02*
G01X18830Y4530D01*
G01X18830Y5279D01*
G01X17530Y5279D01*
G01X17530Y4530D01*
G37*
G36*
G01X17913Y599D02*
G01X22612Y599D01*
G01X22612Y5400D01*
G01X17913Y5400D01*
G01X17913Y599D01*
G37*
G36*
G01X23800Y5250D02*
G01X23200Y5250D01*
G01X23200Y1949D01*
G01X23800Y1949D01*
G01X23800Y5250D01*
G37*
G36*
G01X34700Y9000D02*
G01X33500Y9000D01*
G01X33500Y7600D01*
G01X34700Y7600D01*
G01X34700Y9000D01*
G37*
G36*
G01X31300Y9000D02*
G01X30100Y9000D01*
G01X30100Y7600D01*
G01X31300Y7600D01*
G01X31300Y9000D01*
G37*
G36*
G01X27624Y9800D02*
G01X27924Y9800D01*
G01X27924Y10200D01*
G01X27624Y10200D01*
G01X27624Y9800D01*
G37*
G36*
G01X27075Y9800D02*
G01X27375Y9800D01*
G01X27375Y10200D01*
G01X27075Y10200D01*
G01X27075Y9800D01*
G37*
G36*
G01X28775Y9300D02*
G01X28475Y9300D01*
G01X28475Y8900D01*
G01X28775Y8900D01*
G01X28775Y9300D01*
G37*
G36*
G01X29325Y9300D02*
G01X29025Y9300D01*
G01X29025Y8900D01*
G01X29325Y8900D01*
G01X29325Y9300D01*
G37*
G36*
G01X29800Y10324D02*
G01X29800Y10624D01*
G01X29400Y10624D01*
G01X29400Y10324D01*
G01X29800Y10324D01*
G37*
G36*
G01X29800Y9775D02*
G01X29800Y10075D01*
G01X29400Y10075D01*
G01X29400Y9775D01*
G01X29800Y9775D01*
G37*
G36*
G01X28900Y10324D02*
G01X28900Y10624D01*
G01X28500Y10624D01*
G01X28500Y10324D01*
G01X28900Y10324D01*
G37*
G36*
G01X28900Y9775D02*
G01X28900Y10075D01*
G01X28500Y10075D01*
G01X28500Y9775D01*
G01X28900Y9775D01*
G37*
G36*
G01X29224Y8000D02*
G01X29524Y8000D01*
G01X29524Y8400D01*
G01X29224Y8400D01*
G01X29224Y8000D01*
G37*
G36*
G01X28675Y8000D02*
G01X28975Y8000D01*
G01X28975Y8400D01*
G01X28675Y8400D01*
G01X28675Y8000D01*
G37*
G36*
G01X27899Y7450D02*
G01X27899Y7950D01*
G01X27099Y7950D01*
G01X27099Y7450D01*
G01X27899Y7450D01*
G37*
G36*
G01X27899Y8450D02*
G01X27899Y8950D01*
G01X27099Y8950D01*
G01X27099Y8450D01*
G01X27899Y8450D01*
G37*
G36*
G01X32152Y5286D02*
G01X32506Y5640D01*
G01X31940Y6206D01*
G01X31586Y5852D01*
G01X32152Y5286D01*
G37*
G36*
G01X32859Y5994D02*
G01X33213Y6347D01*
G01X32647Y6913D01*
G01X32293Y6559D01*
G01X32859Y5994D01*
G37*
G36*
G01X30700Y9775D02*
G01X30700Y10075D01*
G01X30300Y10075D01*
G01X30300Y9775D01*
G01X30700Y9775D01*
G37*
G36*
G01X30700Y10324D02*
G01X30700Y10624D01*
G01X30300Y10624D01*
G01X30300Y10324D01*
G01X30700Y10324D01*
G37*
G36*
G01X27100Y4875D02*
G01X27100Y5175D01*
G01X26700Y5175D01*
G01X26700Y4875D01*
G01X27100Y4875D01*
G37*
G36*
G01X27100Y5424D02*
G01X27100Y5724D01*
G01X26700Y5724D01*
G01X26700Y5424D01*
G01X27100Y5424D01*
G37*
G36*
G01X34725Y11800D02*
G01X33725Y11800D01*
G01X33725Y9800D01*
G01X34725Y9800D01*
G01X34725Y11800D01*
G37*
G36*
G01X32875Y11800D02*
G01X31875Y11800D01*
G01X31875Y9800D01*
G01X32875Y9800D01*
G01X32875Y11800D01*
G37*
G54D14*
G01X18100Y7700D03*
G01X17900Y8299D03*
G01X17119Y11195D03*
G01X20400Y7400D03*
G01X23450Y999D03*
G01X6500Y1700D03*
G01X5800Y1700D03*
G01X7549Y1649D03*
G01X1999Y5499D03*
G01X4599Y16499D03*
G01X15500Y8700D03*
G01X999Y5999D03*
G01X4400Y6400D03*
G01X1999Y11199D03*
G01X30999Y5100D03*
G01X12700Y9949D03*
G01X12299Y9450D03*
G01X16200Y7400D03*
G01X11500Y10299D03*
G01X9500Y7400D03*
G01X9700Y10199D03*
G01X9549Y9249D03*
G01X16299Y3499D03*
G01X16299Y2800D03*
G01X10599Y5800D03*
G01X10599Y5100D03*
G01X29699Y1499D03*
G54D15*
G01X28649Y1499D03*
G01X19749Y7401D03*
G01X19099Y7401D03*
G01X13500Y1700D03*
G01X24999Y14899D03*
G01X28999Y599D03*
G01X7700Y12999D03*
G01X17500Y14899D03*
G01X17599Y8999D03*
G01X23100Y13199D03*
G01X16899Y8999D03*
G01X31599Y13500D03*
G54D14*
G01X21900Y13199D03*
G54D15*
G01X17299Y7800D03*
G01X31800Y1499D03*
G01X16299Y7999D03*
G54D14*
G01X12299Y1700D03*
G54D15*
G01X29600Y12299D03*
G01X21400Y15800D03*
G01X27399Y13500D03*
G01X3199Y16999D03*
G01X10299Y12299D03*
G01X31049Y3100D03*
G01X30199Y13724D03*
G01X27649Y5499D03*
G01X20349Y15400D03*
G01X18100Y15800D03*
G01X6949Y9949D03*
G01X649Y12499D03*
G54D14*
G01X10800Y15800D03*
G01X15850Y10299D03*
G54D15*
G01X10649Y3750D03*
M00*
M02*
