G04 Layer: BottomSolderMaskLayer*
G04 EasyEDA v6.4.4, 2020-08-18T00:36:11--7:00*
G04 995102e80ca04af79c8c3c359321127d,ec5ec94f42e349aabe65ed7a530a4b72,10*
G04 Gerber Generator version 0.2*
G04 Scale: 100 percent, Rotated: No, Reflected: No *
G04 Dimensions in millimeters *
G04 leading zeros omitted , absolute positions ,3 integer and 3 decimal *
%FSLAX33Y33*%
%MOMM*%
G90*
G71D02*


%LPD*%
G36*
G01X210Y6710D02*
G01X210Y10789D01*
G01X2788Y10789D01*
G01X2788Y6710D01*
G01X210Y6710D01*
G37*
G36*
G01X210Y210D02*
G01X210Y4290D01*
G01X2788Y4290D01*
G01X2788Y210D01*
G01X210Y210D01*
G37*
G36*
G01X210Y13210D02*
G01X210Y17289D01*
G01X2788Y17289D01*
G01X2788Y13210D01*
G01X210Y13210D01*
G37*
G36*
G01X32212Y210D02*
G01X32212Y4290D01*
G01X34787Y4290D01*
G01X34787Y210D01*
G01X32212Y210D01*
G37*
G36*
G01X32212Y13210D02*
G01X32212Y17289D01*
G01X34787Y17289D01*
G01X34787Y13210D01*
G01X32212Y13210D01*
G37*
G36*
G01X27162Y11386D02*
G01X27162Y13012D01*
G01X28239Y13012D01*
G01X28239Y11386D01*
G01X27162Y11386D01*
G37*
G36*
G01X29161Y11386D02*
G01X29161Y13012D01*
G01X30241Y13012D01*
G01X30241Y11386D01*
G01X29161Y11386D01*
G37*
G36*
G01X29684Y13860D02*
G01X29684Y14937D01*
G01X31313Y14937D01*
G01X31313Y13860D01*
G01X29684Y13860D01*
G37*
G36*
G01X29684Y15859D02*
G01X29684Y16939D01*
G01X31313Y16939D01*
G01X31313Y15859D01*
G01X29684Y15859D01*
G37*
G36*
G01X30060Y510D02*
G01X30060Y2489D01*
G01X31338Y2489D01*
G01X31338Y510D01*
G01X30060Y510D01*
G37*
G36*
G01X26860Y510D02*
G01X26860Y2489D01*
G01X28138Y2489D01*
G01X28138Y510D01*
G01X26860Y510D01*
G37*
G36*
G01X21661Y13611D02*
G01X21661Y15587D01*
G01X22938Y15587D01*
G01X22938Y13611D01*
G01X21661Y13611D01*
G37*
G36*
G01X18460Y13611D02*
G01X18460Y15587D01*
G01X19738Y15587D01*
G01X19738Y13611D01*
G01X18460Y13611D01*
G37*
G36*
G01X27561Y13911D02*
G01X27561Y15890D01*
G01X28839Y15890D01*
G01X28839Y13911D01*
G01X27561Y13911D01*
G37*
G36*
G01X24361Y13911D02*
G01X24361Y15890D01*
G01X25638Y15890D01*
G01X25638Y13911D01*
G01X24361Y13911D01*
G37*
G36*
G01X27985Y4455D02*
G01X27985Y6144D01*
G01X30439Y6144D01*
G01X30439Y4455D01*
G01X27985Y4455D01*
G37*
G36*
G01X29776Y6322D02*
G01X29776Y7223D01*
G01X30121Y7223D01*
G01X30121Y6322D01*
G01X29776Y6322D01*
G37*
G36*
G01X29293Y6322D02*
G01X29293Y7223D01*
G01X29639Y7223D01*
G01X29639Y6322D01*
G01X29293Y6322D01*
G37*
G36*
G01X28785Y6322D02*
G01X28785Y7223D01*
G01X29131Y7223D01*
G01X29131Y6322D01*
G01X28785Y6322D01*
G37*
G36*
G01X28277Y6322D02*
G01X28277Y7223D01*
G01X28623Y7223D01*
G01X28623Y6322D01*
G01X28277Y6322D01*
G37*
G36*
G01X28277Y3375D02*
G01X28277Y4277D01*
G01X28623Y4277D01*
G01X28623Y3375D01*
G01X28277Y3375D01*
G37*
G36*
G01X28785Y3375D02*
G01X28785Y4277D01*
G01X29131Y4277D01*
G01X29131Y3375D01*
G01X28785Y3375D01*
G37*
G36*
G01X29293Y3375D02*
G01X29293Y4277D01*
G01X29639Y4277D01*
G01X29639Y3375D01*
G01X29293Y3375D01*
G37*
G36*
G01X29776Y3375D02*
G01X29776Y4277D01*
G01X30121Y4277D01*
G01X30121Y3375D01*
G01X29776Y3375D01*
G37*
G36*
G01X3492Y12181D02*
G01X3492Y13009D01*
G01X4869Y13009D01*
G01X4869Y12181D01*
G01X3492Y12181D01*
G37*
G36*
G01X3492Y13451D02*
G01X3492Y14279D01*
G01X4869Y14279D01*
G01X4869Y13451D01*
G01X3492Y13451D01*
G37*
G36*
G01X3492Y14721D02*
G01X3492Y15549D01*
G01X4869Y15549D01*
G01X4869Y14721D01*
G01X3492Y14721D01*
G37*
G36*
G01X3492Y15991D02*
G01X3492Y16819D01*
G01X4869Y16819D01*
G01X4869Y15991D01*
G01X3492Y15991D01*
G37*
G36*
G01X9131Y15991D02*
G01X9131Y16819D01*
G01X10507Y16819D01*
G01X10507Y15991D01*
G01X9131Y15991D01*
G37*
G36*
G01X9131Y14721D02*
G01X9131Y15549D01*
G01X10507Y15549D01*
G01X10507Y14721D01*
G01X9131Y14721D01*
G37*
G36*
G01X9131Y13451D02*
G01X9131Y14279D01*
G01X10507Y14279D01*
G01X10507Y13451D01*
G01X9131Y13451D01*
G37*
G36*
G01X9131Y12181D02*
G01X9131Y13009D01*
G01X10507Y13009D01*
G01X10507Y12181D01*
G01X9131Y12181D01*
G37*
G36*
G01X5349Y12059D02*
G01X5349Y16939D01*
G01X10124Y16939D01*
G01X10124Y12059D01*
G01X5349Y12059D01*
G37*
G36*
G01X4160Y12209D02*
G01X4160Y15587D01*
G01X4838Y15587D01*
G01X4838Y12209D01*
G01X4160Y12209D01*
G37*
G36*
G01X16431Y14592D02*
G01X16431Y15417D01*
G01X17807Y15417D01*
G01X17807Y14592D01*
G01X16431Y14592D01*
G37*
G36*
G01X16431Y13322D02*
G01X16431Y14147D01*
G01X17807Y14147D01*
G01X17807Y13322D01*
G01X16431Y13322D01*
G37*
G36*
G01X16431Y12052D02*
G01X16431Y12877D01*
G01X17807Y12877D01*
G01X17807Y12052D01*
G01X16431Y12052D01*
G37*
G36*
G01X16431Y10782D02*
G01X16431Y11607D01*
G01X17807Y11607D01*
G01X17807Y10782D01*
G01X16431Y10782D01*
G37*
G36*
G01X10792Y10782D02*
G01X10792Y11607D01*
G01X12169Y11607D01*
G01X12169Y10782D01*
G01X10792Y10782D01*
G37*
G36*
G01X10792Y12052D02*
G01X10792Y12877D01*
G01X12169Y12877D01*
G01X12169Y12052D01*
G01X10792Y12052D01*
G37*
G36*
G01X10792Y13322D02*
G01X10792Y14147D01*
G01X12169Y14147D01*
G01X12169Y13322D01*
G01X10792Y13322D01*
G37*
G36*
G01X10792Y14592D02*
G01X10792Y15417D01*
G01X12169Y15417D01*
G01X12169Y14592D01*
G01X10792Y14592D01*
G37*
G36*
G01X11176Y10660D02*
G01X11176Y15539D01*
G01X15951Y15539D01*
G01X15951Y10660D01*
G01X11176Y10660D01*
G37*
G36*
G01X16461Y12011D02*
G01X16461Y15389D01*
G01X17139Y15389D01*
G01X17139Y12011D01*
G01X16461Y12011D01*
G37*
G36*
G01X11181Y7630D02*
G01X11181Y9009D01*
G01X12009Y9009D01*
G01X12009Y7630D01*
G01X11181Y7630D01*
G37*
G36*
G01X12451Y7630D02*
G01X12451Y9009D01*
G01X13279Y9009D01*
G01X13279Y7630D01*
G01X12451Y7630D01*
G37*
G36*
G01X13721Y7630D02*
G01X13721Y9009D01*
G01X14549Y9009D01*
G01X14549Y7630D01*
G01X13721Y7630D01*
G37*
G36*
G01X14991Y7630D02*
G01X14991Y9009D01*
G01X15819Y9009D01*
G01X15819Y7630D01*
G01X14991Y7630D01*
G37*
G36*
G01X14991Y1991D02*
G01X14991Y3370D01*
G01X15819Y3370D01*
G01X15819Y1991D01*
G01X14991Y1991D01*
G37*
G36*
G01X13721Y1991D02*
G01X13721Y3370D01*
G01X14549Y3370D01*
G01X14549Y1991D01*
G01X13721Y1991D01*
G37*
G36*
G01X12451Y1991D02*
G01X12451Y3370D01*
G01X13279Y3370D01*
G01X13279Y1991D01*
G01X12451Y1991D01*
G37*
G36*
G01X11181Y1991D02*
G01X11181Y3370D01*
G01X12009Y3370D01*
G01X12009Y1991D01*
G01X11181Y1991D01*
G37*
G36*
G01X11061Y2374D02*
G01X11061Y7152D01*
G01X15938Y7152D01*
G01X15938Y2374D01*
G01X11061Y2374D01*
G37*
G36*
G01X11211Y7660D02*
G01X11211Y8338D01*
G01X14589Y8338D01*
G01X14589Y7660D01*
G01X11211Y7660D01*
G37*
G36*
G01X24130Y11790D02*
G01X24130Y12618D01*
G01X25509Y12618D01*
G01X25509Y11790D01*
G01X24130Y11790D01*
G37*
G36*
G01X24130Y10520D02*
G01X24130Y11348D01*
G01X25509Y11348D01*
G01X25509Y10520D01*
G01X24130Y10520D01*
G37*
G36*
G01X24130Y9250D02*
G01X24130Y10078D01*
G01X25509Y10078D01*
G01X25509Y9250D01*
G01X24130Y9250D01*
G37*
G36*
G01X24130Y7980D02*
G01X24130Y8808D01*
G01X25509Y8808D01*
G01X25509Y7980D01*
G01X24130Y7980D01*
G37*
G36*
G01X18491Y7980D02*
G01X18491Y8808D01*
G01X19870Y8808D01*
G01X19870Y7980D01*
G01X18491Y7980D01*
G37*
G36*
G01X18491Y9250D02*
G01X18491Y10078D01*
G01X19870Y10078D01*
G01X19870Y9250D01*
G01X18491Y9250D01*
G37*
G36*
G01X18491Y10520D02*
G01X18491Y11348D01*
G01X19870Y11348D01*
G01X19870Y10520D01*
G01X18491Y10520D01*
G37*
G36*
G01X18491Y11790D02*
G01X18491Y12618D01*
G01X19870Y12618D01*
G01X19870Y11790D01*
G01X18491Y11790D01*
G37*
G36*
G01X18874Y7861D02*
G01X18874Y12738D01*
G01X23652Y12738D01*
G01X23652Y7861D01*
G01X18874Y7861D01*
G37*
G36*
G01X24160Y9210D02*
G01X24160Y12588D01*
G01X24838Y12588D01*
G01X24838Y9210D01*
G01X24160Y9210D01*
G37*
G36*
G01X3091Y2181D02*
G01X3091Y3007D01*
G01X4470Y3007D01*
G01X4470Y2181D01*
G01X3091Y2181D01*
G37*
G36*
G01X3091Y3451D02*
G01X3091Y4277D01*
G01X4470Y4277D01*
G01X4470Y3451D01*
G01X3091Y3451D01*
G37*
G36*
G01X3091Y4721D02*
G01X3091Y5547D01*
G01X4470Y5547D01*
G01X4470Y4721D01*
G01X3091Y4721D01*
G37*
G36*
G01X3091Y5991D02*
G01X3091Y6817D01*
G01X4470Y6817D01*
G01X4470Y5991D01*
G01X3091Y5991D01*
G37*
G36*
G01X8729Y5991D02*
G01X8729Y6817D01*
G01X10109Y6817D01*
G01X10109Y5991D01*
G01X8729Y5991D01*
G37*
G36*
G01X8729Y4721D02*
G01X8729Y5547D01*
G01X10109Y5547D01*
G01X10109Y4721D01*
G01X8729Y4721D01*
G37*
G36*
G01X8729Y3451D02*
G01X8729Y4277D01*
G01X10109Y4277D01*
G01X10109Y3451D01*
G01X8729Y3451D01*
G37*
G36*
G01X8729Y2181D02*
G01X8729Y3007D01*
G01X10109Y3007D01*
G01X10109Y2181D01*
G01X8729Y2181D01*
G37*
G36*
G01X4947Y2059D02*
G01X4947Y6939D01*
G01X9725Y6939D01*
G01X9725Y2059D01*
G01X4947Y2059D01*
G37*
G36*
G01X3761Y2209D02*
G01X3761Y5588D01*
G01X4439Y5588D01*
G01X4439Y2209D01*
G01X3761Y2209D01*
G37*
G36*
G01X23129Y4490D02*
G01X23129Y5318D01*
G01X24508Y5318D01*
G01X24508Y4490D01*
G01X23129Y4490D01*
G37*
G36*
G01X23129Y3220D02*
G01X23129Y4048D01*
G01X24508Y4048D01*
G01X24508Y3220D01*
G01X23129Y3220D01*
G37*
G36*
G01X23129Y1950D02*
G01X23129Y2778D01*
G01X24508Y2778D01*
G01X24508Y1950D01*
G01X23129Y1950D01*
G37*
G36*
G01X23129Y680D02*
G01X23129Y1508D01*
G01X24508Y1508D01*
G01X24508Y680D01*
G01X23129Y680D01*
G37*
G36*
G01X17490Y680D02*
G01X17490Y1508D01*
G01X18869Y1508D01*
G01X18869Y680D01*
G01X17490Y680D01*
G37*
G36*
G01X17490Y1950D02*
G01X17490Y2778D01*
G01X18869Y2778D01*
G01X18869Y1950D01*
G01X17490Y1950D01*
G37*
G36*
G01X17490Y3220D02*
G01X17490Y4048D01*
G01X18869Y4048D01*
G01X18869Y3220D01*
G01X17490Y3220D01*
G37*
G36*
G01X17490Y4490D02*
G01X17490Y5318D01*
G01X18869Y5318D01*
G01X18869Y4490D01*
G01X17490Y4490D01*
G37*
G36*
G01X17873Y561D02*
G01X17873Y5438D01*
G01X22651Y5438D01*
G01X22651Y561D01*
G01X17873Y561D01*
G37*
G36*
G01X23162Y1910D02*
G01X23162Y5288D01*
G01X23837Y5288D01*
G01X23837Y1910D01*
G01X23162Y1910D01*
G37*
G36*
G01X33461Y7561D02*
G01X33461Y9039D01*
G01X34739Y9039D01*
G01X34739Y7561D01*
G01X33461Y7561D01*
G37*
G36*
G01X30060Y7561D02*
G01X30060Y9039D01*
G01X31338Y9039D01*
G01X31338Y7561D01*
G01X30060Y7561D01*
G37*
G36*
G01X27586Y9761D02*
G01X27586Y10238D01*
G01X27962Y10238D01*
G01X27962Y9761D01*
G01X27586Y9761D01*
G37*
G36*
G01X27035Y9761D02*
G01X27035Y10238D01*
G01X27414Y10238D01*
G01X27414Y9761D01*
G01X27035Y9761D01*
G37*
G36*
G01X28435Y8862D02*
G01X28435Y9339D01*
G01X28813Y9339D01*
G01X28813Y8862D01*
G01X28435Y8862D01*
G37*
G36*
G01X28986Y8862D02*
G01X28986Y9339D01*
G01X29364Y9339D01*
G01X29364Y8862D01*
G01X28986Y8862D01*
G37*
G36*
G01X29359Y10287D02*
G01X29359Y10662D01*
G01X29839Y10662D01*
G01X29839Y10287D01*
G01X29359Y10287D01*
G37*
G36*
G01X29359Y9735D02*
G01X29359Y10114D01*
G01X29839Y10114D01*
G01X29839Y9735D01*
G01X29359Y9735D01*
G37*
G36*
G01X28460Y10287D02*
G01X28460Y10662D01*
G01X28938Y10662D01*
G01X28938Y10287D01*
G01X28460Y10287D01*
G37*
G36*
G01X28460Y9735D02*
G01X28460Y10114D01*
G01X28938Y10114D01*
G01X28938Y9735D01*
G01X28460Y9735D01*
G37*
G36*
G01X29187Y7960D02*
G01X29187Y8437D01*
G01X29563Y8437D01*
G01X29563Y7960D01*
G01X29187Y7960D01*
G37*
G36*
G01X28635Y7960D02*
G01X28635Y8437D01*
G01X29014Y8437D01*
G01X29014Y7960D01*
G01X28635Y7960D01*
G37*
G36*
G01X27061Y7411D02*
G01X27061Y7988D01*
G01X27940Y7988D01*
G01X27940Y7411D01*
G01X27061Y7411D01*
G37*
G36*
G01X27061Y8409D02*
G01X27061Y8989D01*
G01X27940Y8989D01*
G01X27940Y8409D01*
G01X27061Y8409D01*
G37*
G36*
G01X32151Y5232D02*
G01X31531Y5852D01*
G01X31940Y6261D01*
G01X32560Y5641D01*
G01X32151Y5232D01*
G37*
G36*
G01X32859Y5938D02*
G01X32237Y6560D01*
G01X32646Y6967D01*
G01X33268Y6347D01*
G01X32859Y5938D01*
G37*
G36*
G01X30261Y9735D02*
G01X30261Y10114D01*
G01X30739Y10114D01*
G01X30739Y9735D01*
G01X30261Y9735D01*
G37*
G36*
G01X30261Y10287D02*
G01X30261Y10662D01*
G01X30739Y10662D01*
G01X30739Y10287D01*
G01X30261Y10287D01*
G37*
G36*
G01X26659Y4836D02*
G01X26659Y5214D01*
G01X27139Y5214D01*
G01X27139Y4836D01*
G01X26659Y4836D01*
G37*
G36*
G01X26659Y5384D02*
G01X26659Y5763D01*
G01X27139Y5763D01*
G01X27139Y5384D01*
G01X26659Y5384D01*
G37*
G36*
G01X33685Y9761D02*
G01X33685Y11838D01*
G01X34764Y11838D01*
G01X34764Y9761D01*
G01X33685Y9761D01*
G37*
G36*
G01X31836Y9761D02*
G01X31836Y11838D01*
G01X32913Y11838D01*
G01X32913Y9761D01*
G01X31836Y9761D01*
G37*
M00*
M02*
