M48
; DRILL file {KiCad (5.1.6)-1} date 10/08/20 19:10:51
; FORMAT={-:-/ absolute / inch / decimal}
; #@! TF.CreationDate,2020-10-08T19:10:51-07:00
; #@! TF.GenerationSoftware,Kicad,Pcbnew,(5.1.6)-1
; #@! TF.FileFunction,Plated,1,4,PTH
FMAT,2
INCH
T1C0.0100
%
G90
G05
T1
X0.6436Y-1.0453
X0.6476Y-0.7362
X0.6575Y-1.0276
X0.6715Y-1.0096
X0.6732Y-0.7283
X0.7185Y-1.1457
X0.7185Y-1.1671
X0.7402Y-0.8071
X0.748Y-0.8583
X0.748Y-0.9409
X0.8839Y-0.9646
X0.8858Y-0.7181
X0.8898Y-0.7697
X0.8898Y-0.7386
X0.9035Y-0.9724
X0.9115Y-0.7619
X0.9409Y-0.8406
X0.9449Y-0.7559
X0.9508Y-0.8602
X0.9587Y-1.1024
X0.9685Y-0.6713
X0.9685Y-0.9862
X1.0098Y-0.8268
X1.0157Y-0.8602
X1.0217Y-0.6398
X1.0256Y-0.7264
X1.0256Y-0.7657
X1.0433Y-0.6398
X1.0433Y-1.126
X1.1022Y-0.8443
X1.124Y-0.8445
X1.1314Y-0.9424
X1.1457Y-0.8445
X1.1535Y-0.9409
X1.1772Y-0.9409
X1.189Y-0.8445
X1.2008Y-0.9409
X1.2244Y-0.9409
X1.2478Y-0.9409
X1.3071Y-0.7205
X1.3287Y-0.7205
X1.3287Y-0.7421
X1.3287Y-0.7638
X1.3307Y-0.8898
X1.4134Y-0.6693
X1.4665Y-0.9488
X1.4744Y-0.6437
X1.5Y-0.6673
X1.5059Y-0.9488
X1.5295Y-1.0571
X1.5364Y-0.6506
X1.5433Y-1.1102
X1.5591Y-1.1535
X1.6102Y-0.8858
X1.624Y-0.6201
X1.627Y-0.872
X1.627Y-0.8996
X1.628Y-0.7146
X1.6329Y-0.6713
X1.6467Y-1.0915
X1.6769Y-1.083
X1.6949Y-1.0098
X1.7323Y-0.9301
X1.7559Y-0.8366
X1.7559Y-0.9656
T0
M30
