%TF.GenerationSoftware,KiCad,Pcbnew,(5.1.6)-1*%
%TF.CreationDate,2020-12-28T02:25:49-08:00*%
%TF.ProjectId,SinESC-Multi,53696e45-5343-42d4-9d75-6c74692e6b69,2.3C*%
%TF.SameCoordinates,Original*%
%TF.FileFunction,Legend,Top*%
%TF.FilePolarity,Positive*%
%FSLAX46Y46*%
G04 Gerber Fmt 4.6, Leading zero omitted, Abs format (unit mm)*
G04 Created by KiCad (PCBNEW (5.1.6)-1) date 2020-12-28 02:25:49*
%MOMM*%
%LPD*%
G01*
G04 APERTURE LIST*
%ADD10C,0.100000*%
%ADD11C,0.060000*%
%ADD12C,0.120000*%
%ADD13C,0.152400*%
G04 APERTURE END LIST*
D10*
X15234047Y-28776190D02*
X15234047Y-28276190D01*
X15400714Y-28633333D01*
X15567380Y-28276190D01*
X15567380Y-28776190D01*
X16019761Y-28776190D02*
X16019761Y-28514285D01*
X15995952Y-28466666D01*
X15948333Y-28442857D01*
X15853095Y-28442857D01*
X15805476Y-28466666D01*
X16019761Y-28752380D02*
X15972142Y-28776190D01*
X15853095Y-28776190D01*
X15805476Y-28752380D01*
X15781666Y-28704761D01*
X15781666Y-28657142D01*
X15805476Y-28609523D01*
X15853095Y-28585714D01*
X15972142Y-28585714D01*
X16019761Y-28561904D01*
X16472142Y-28776190D02*
X16472142Y-28276190D01*
X16472142Y-28752380D02*
X16424523Y-28776190D01*
X16329285Y-28776190D01*
X16281666Y-28752380D01*
X16257857Y-28728571D01*
X16234047Y-28680952D01*
X16234047Y-28538095D01*
X16257857Y-28490476D01*
X16281666Y-28466666D01*
X16329285Y-28442857D01*
X16424523Y-28442857D01*
X16472142Y-28466666D01*
X16900714Y-28752380D02*
X16853095Y-28776190D01*
X16757857Y-28776190D01*
X16710238Y-28752380D01*
X16686428Y-28704761D01*
X16686428Y-28514285D01*
X16710238Y-28466666D01*
X16757857Y-28442857D01*
X16853095Y-28442857D01*
X16900714Y-28466666D01*
X16924523Y-28514285D01*
X16924523Y-28561904D01*
X16686428Y-28609523D01*
X17519761Y-28776190D02*
X17519761Y-28442857D01*
X17519761Y-28276190D02*
X17495952Y-28300000D01*
X17519761Y-28323809D01*
X17543571Y-28300000D01*
X17519761Y-28276190D01*
X17519761Y-28323809D01*
X17757857Y-28442857D02*
X17757857Y-28776190D01*
X17757857Y-28490476D02*
X17781666Y-28466666D01*
X17829285Y-28442857D01*
X17900714Y-28442857D01*
X17948333Y-28466666D01*
X17972142Y-28514285D01*
X17972142Y-28776190D01*
X18591190Y-28276190D02*
X18591190Y-28680952D01*
X18615000Y-28728571D01*
X18638809Y-28752380D01*
X18686428Y-28776190D01*
X18781666Y-28776190D01*
X18829285Y-28752380D01*
X18853095Y-28728571D01*
X18876904Y-28680952D01*
X18876904Y-28276190D01*
X19091190Y-28752380D02*
X19162619Y-28776190D01*
X19281666Y-28776190D01*
X19329285Y-28752380D01*
X19353095Y-28728571D01*
X19376904Y-28680952D01*
X19376904Y-28633333D01*
X19353095Y-28585714D01*
X19329285Y-28561904D01*
X19281666Y-28538095D01*
X19186428Y-28514285D01*
X19138809Y-28490476D01*
X19115000Y-28466666D01*
X19091190Y-28419047D01*
X19091190Y-28371428D01*
X19115000Y-28323809D01*
X19138809Y-28300000D01*
X19186428Y-28276190D01*
X19305476Y-28276190D01*
X19376904Y-28300000D01*
X19567380Y-28633333D02*
X19805476Y-28633333D01*
X19519761Y-28776190D02*
X19686428Y-28276190D01*
X19853095Y-28776190D01*
X43552380Y-23689761D02*
X43576190Y-23618333D01*
X43576190Y-23499285D01*
X43552380Y-23451666D01*
X43528571Y-23427857D01*
X43480952Y-23404047D01*
X43433333Y-23404047D01*
X43385714Y-23427857D01*
X43361904Y-23451666D01*
X43338095Y-23499285D01*
X43314285Y-23594523D01*
X43290476Y-23642142D01*
X43266666Y-23665952D01*
X43219047Y-23689761D01*
X43171428Y-23689761D01*
X43123809Y-23665952D01*
X43100000Y-23642142D01*
X43076190Y-23594523D01*
X43076190Y-23475476D01*
X43100000Y-23404047D01*
X15234047Y-29626190D02*
X15234047Y-29126190D01*
X15353095Y-29126190D01*
X15424523Y-29150000D01*
X15472142Y-29197619D01*
X15495952Y-29245238D01*
X15519761Y-29340476D01*
X15519761Y-29411904D01*
X15495952Y-29507142D01*
X15472142Y-29554761D01*
X15424523Y-29602380D01*
X15353095Y-29626190D01*
X15234047Y-29626190D01*
X15924523Y-29602380D02*
X15876904Y-29626190D01*
X15781666Y-29626190D01*
X15734047Y-29602380D01*
X15710238Y-29554761D01*
X15710238Y-29364285D01*
X15734047Y-29316666D01*
X15781666Y-29292857D01*
X15876904Y-29292857D01*
X15924523Y-29316666D01*
X15948333Y-29364285D01*
X15948333Y-29411904D01*
X15710238Y-29459523D01*
X16138809Y-29602380D02*
X16186428Y-29626190D01*
X16281666Y-29626190D01*
X16329285Y-29602380D01*
X16353095Y-29554761D01*
X16353095Y-29530952D01*
X16329285Y-29483333D01*
X16281666Y-29459523D01*
X16210238Y-29459523D01*
X16162619Y-29435714D01*
X16138809Y-29388095D01*
X16138809Y-29364285D01*
X16162619Y-29316666D01*
X16210238Y-29292857D01*
X16281666Y-29292857D01*
X16329285Y-29316666D01*
X16567380Y-29626190D02*
X16567380Y-29292857D01*
X16567380Y-29126190D02*
X16543571Y-29150000D01*
X16567380Y-29173809D01*
X16591190Y-29150000D01*
X16567380Y-29126190D01*
X16567380Y-29173809D01*
X17019761Y-29292857D02*
X17019761Y-29697619D01*
X16995952Y-29745238D01*
X16972142Y-29769047D01*
X16924523Y-29792857D01*
X16853095Y-29792857D01*
X16805476Y-29769047D01*
X17019761Y-29602380D02*
X16972142Y-29626190D01*
X16876904Y-29626190D01*
X16829285Y-29602380D01*
X16805476Y-29578571D01*
X16781666Y-29530952D01*
X16781666Y-29388095D01*
X16805476Y-29340476D01*
X16829285Y-29316666D01*
X16876904Y-29292857D01*
X16972142Y-29292857D01*
X17019761Y-29316666D01*
X17257857Y-29292857D02*
X17257857Y-29626190D01*
X17257857Y-29340476D02*
X17281666Y-29316666D01*
X17329285Y-29292857D01*
X17400714Y-29292857D01*
X17448333Y-29316666D01*
X17472142Y-29364285D01*
X17472142Y-29626190D01*
X17900714Y-29602380D02*
X17853095Y-29626190D01*
X17757857Y-29626190D01*
X17710238Y-29602380D01*
X17686428Y-29554761D01*
X17686428Y-29364285D01*
X17710238Y-29316666D01*
X17757857Y-29292857D01*
X17853095Y-29292857D01*
X17900714Y-29316666D01*
X17924523Y-29364285D01*
X17924523Y-29411904D01*
X17686428Y-29459523D01*
X18353095Y-29626190D02*
X18353095Y-29126190D01*
X18353095Y-29602380D02*
X18305476Y-29626190D01*
X18210238Y-29626190D01*
X18162619Y-29602380D01*
X18138809Y-29578571D01*
X18115000Y-29530952D01*
X18115000Y-29388095D01*
X18138809Y-29340476D01*
X18162619Y-29316666D01*
X18210238Y-29292857D01*
X18305476Y-29292857D01*
X18353095Y-29316666D01*
X18972142Y-29626190D02*
X18972142Y-29126190D01*
X18972142Y-29316666D02*
X19019761Y-29292857D01*
X19115000Y-29292857D01*
X19162619Y-29316666D01*
X19186428Y-29340476D01*
X19210238Y-29388095D01*
X19210238Y-29530952D01*
X19186428Y-29578571D01*
X19162619Y-29602380D01*
X19115000Y-29626190D01*
X19019761Y-29626190D01*
X18972142Y-29602380D01*
X19376904Y-29292857D02*
X19495952Y-29626190D01*
X19615000Y-29292857D02*
X19495952Y-29626190D01*
X19448333Y-29745238D01*
X19424523Y-29769047D01*
X19376904Y-29792857D01*
X20186428Y-29364285D02*
X20353095Y-29364285D01*
X20424523Y-29626190D02*
X20186428Y-29626190D01*
X20186428Y-29126190D01*
X20424523Y-29126190D01*
X20638809Y-29626190D02*
X20638809Y-29292857D01*
X20638809Y-29388095D02*
X20662619Y-29340476D01*
X20686428Y-29316666D01*
X20734047Y-29292857D01*
X20781666Y-29292857D01*
X20948333Y-29626190D02*
X20948333Y-29126190D01*
X20995952Y-29435714D02*
X21138809Y-29626190D01*
X21138809Y-29292857D02*
X20948333Y-29483333D01*
X21710238Y-29602380D02*
X21781666Y-29626190D01*
X21900714Y-29626190D01*
X21948333Y-29602380D01*
X21972142Y-29578571D01*
X21995952Y-29530952D01*
X21995952Y-29483333D01*
X21972142Y-29435714D01*
X21948333Y-29411904D01*
X21900714Y-29388095D01*
X21805476Y-29364285D01*
X21757857Y-29340476D01*
X21734047Y-29316666D01*
X21710238Y-29269047D01*
X21710238Y-29221428D01*
X21734047Y-29173809D01*
X21757857Y-29150000D01*
X21805476Y-29126190D01*
X21924523Y-29126190D01*
X21995952Y-29150000D01*
X22210238Y-29578571D02*
X22234047Y-29602380D01*
X22210238Y-29626190D01*
X22186428Y-29602380D01*
X22210238Y-29578571D01*
X22210238Y-29626190D01*
X24612619Y-27776190D02*
X24898333Y-27776190D01*
X24755476Y-28276190D02*
X24755476Y-27776190D01*
X25017380Y-27776190D02*
X25350714Y-28276190D01*
X25350714Y-27776190D02*
X25017380Y-28276190D01*
X24419761Y-27128571D02*
X24395952Y-27152380D01*
X24324523Y-27176190D01*
X24276904Y-27176190D01*
X24205476Y-27152380D01*
X24157857Y-27104761D01*
X24134047Y-27057142D01*
X24110238Y-26961904D01*
X24110238Y-26890476D01*
X24134047Y-26795238D01*
X24157857Y-26747619D01*
X24205476Y-26700000D01*
X24276904Y-26676190D01*
X24324523Y-26676190D01*
X24395952Y-26700000D01*
X24419761Y-26723809D01*
X24872142Y-27176190D02*
X24634047Y-27176190D01*
X24634047Y-26676190D01*
X25038809Y-27176190D02*
X25038809Y-26676190D01*
X25324523Y-27176190D02*
X25110238Y-26890476D01*
X25324523Y-26676190D02*
X25038809Y-26961904D01*
X24284047Y-26326190D02*
X24284047Y-25826190D01*
X24403095Y-25826190D01*
X24474523Y-25850000D01*
X24522142Y-25897619D01*
X24545952Y-25945238D01*
X24569761Y-26040476D01*
X24569761Y-26111904D01*
X24545952Y-26207142D01*
X24522142Y-26254761D01*
X24474523Y-26302380D01*
X24403095Y-26326190D01*
X24284047Y-26326190D01*
X24784047Y-26326190D02*
X24784047Y-25826190D01*
X25117380Y-25826190D02*
X25212619Y-25826190D01*
X25260238Y-25850000D01*
X25307857Y-25897619D01*
X25331666Y-25992857D01*
X25331666Y-26159523D01*
X25307857Y-26254761D01*
X25260238Y-26302380D01*
X25212619Y-26326190D01*
X25117380Y-26326190D01*
X25069761Y-26302380D01*
X25022142Y-26254761D01*
X24998333Y-26159523D01*
X24998333Y-25992857D01*
X25022142Y-25897619D01*
X25069761Y-25850000D01*
X25117380Y-25826190D01*
D11*
X17765111Y-15801241D02*
G75*
G02*
X16450001Y-15899999I-665111J51241D01*
G01*
X15134890Y-15748758D02*
G75*
G02*
X16450000Y-15650000I665111J-51241D01*
G01*
D10*
X15534047Y-17101190D02*
X15534047Y-16601190D01*
X15700714Y-16958333D01*
X15867380Y-16601190D01*
X15867380Y-17101190D01*
X16105476Y-16601190D02*
X16105476Y-17005952D01*
X16129285Y-17053571D01*
X16153095Y-17077380D01*
X16200714Y-17101190D01*
X16295952Y-17101190D01*
X16343571Y-17077380D01*
X16367380Y-17053571D01*
X16391190Y-17005952D01*
X16391190Y-16601190D01*
X16867380Y-17101190D02*
X16629285Y-17101190D01*
X16629285Y-16601190D01*
X16962619Y-16601190D02*
X17248333Y-16601190D01*
X17105476Y-17101190D02*
X17105476Y-16601190D01*
X17415000Y-17101190D02*
X17415000Y-16601190D01*
X15486428Y-17617857D02*
X15605476Y-17951190D01*
X15724523Y-17617857D01*
X15891190Y-17498809D02*
X15915000Y-17475000D01*
X15962619Y-17451190D01*
X16081666Y-17451190D01*
X16129285Y-17475000D01*
X16153095Y-17498809D01*
X16176904Y-17546428D01*
X16176904Y-17594047D01*
X16153095Y-17665476D01*
X15867380Y-17951190D01*
X16176904Y-17951190D01*
X16391190Y-17903571D02*
X16415000Y-17927380D01*
X16391190Y-17951190D01*
X16367380Y-17927380D01*
X16391190Y-17903571D01*
X16391190Y-17951190D01*
X16581666Y-17451190D02*
X16891190Y-17451190D01*
X16724523Y-17641666D01*
X16795952Y-17641666D01*
X16843571Y-17665476D01*
X16867380Y-17689285D01*
X16891190Y-17736904D01*
X16891190Y-17855952D01*
X16867380Y-17903571D01*
X16843571Y-17927380D01*
X16795952Y-17951190D01*
X16653095Y-17951190D01*
X16605476Y-17927380D01*
X16581666Y-17903571D01*
X17391190Y-17903571D02*
X17367380Y-17927380D01*
X17295952Y-17951190D01*
X17248333Y-17951190D01*
X17176904Y-17927380D01*
X17129285Y-17879761D01*
X17105476Y-17832142D01*
X17081666Y-17736904D01*
X17081666Y-17665476D01*
X17105476Y-17570238D01*
X17129285Y-17522619D01*
X17176904Y-17475000D01*
X17248333Y-17451190D01*
X17295952Y-17451190D01*
X17367380Y-17475000D01*
X17391190Y-17498809D01*
X15260238Y-16002380D02*
X15331666Y-16026190D01*
X15450714Y-16026190D01*
X15498333Y-16002380D01*
X15522142Y-15978571D01*
X15545952Y-15930952D01*
X15545952Y-15883333D01*
X15522142Y-15835714D01*
X15498333Y-15811904D01*
X15450714Y-15788095D01*
X15355476Y-15764285D01*
X15307857Y-15740476D01*
X15284047Y-15716666D01*
X15260238Y-15669047D01*
X15260238Y-15621428D01*
X15284047Y-15573809D01*
X15307857Y-15550000D01*
X15355476Y-15526190D01*
X15474523Y-15526190D01*
X15545952Y-15550000D01*
X15760238Y-16026190D02*
X15760238Y-15692857D01*
X15760238Y-15526190D02*
X15736428Y-15550000D01*
X15760238Y-15573809D01*
X15784047Y-15550000D01*
X15760238Y-15526190D01*
X15760238Y-15573809D01*
X15998333Y-15692857D02*
X15998333Y-16026190D01*
X15998333Y-15740476D02*
X16022142Y-15716666D01*
X16069761Y-15692857D01*
X16141190Y-15692857D01*
X16188809Y-15716666D01*
X16212619Y-15764285D01*
X16212619Y-16026190D01*
X16450714Y-15764285D02*
X16617380Y-15764285D01*
X16688809Y-16026190D02*
X16450714Y-16026190D01*
X16450714Y-15526190D01*
X16688809Y-15526190D01*
X16879285Y-16002380D02*
X16950714Y-16026190D01*
X17069761Y-16026190D01*
X17117380Y-16002380D01*
X17141190Y-15978571D01*
X17165000Y-15930952D01*
X17165000Y-15883333D01*
X17141190Y-15835714D01*
X17117380Y-15811904D01*
X17069761Y-15788095D01*
X16974523Y-15764285D01*
X16926904Y-15740476D01*
X16903095Y-15716666D01*
X16879285Y-15669047D01*
X16879285Y-15621428D01*
X16903095Y-15573809D01*
X16926904Y-15550000D01*
X16974523Y-15526190D01*
X17093571Y-15526190D01*
X17165000Y-15550000D01*
X17665000Y-15978571D02*
X17641190Y-16002380D01*
X17569761Y-16026190D01*
X17522142Y-16026190D01*
X17450714Y-16002380D01*
X17403095Y-15954761D01*
X17379285Y-15907142D01*
X17355476Y-15811904D01*
X17355476Y-15740476D01*
X17379285Y-15645238D01*
X17403095Y-15597619D01*
X17450714Y-15550000D01*
X17522142Y-15526190D01*
X17569761Y-15526190D01*
X17641190Y-15550000D01*
X17665000Y-15573809D01*
D12*
%TO.C,L1*%
X32452064Y-29360000D02*
X31247936Y-29360000D01*
X32452064Y-26640000D02*
X31247936Y-26640000D01*
%TO.C,U1*%
X28040000Y-17577500D02*
X27590000Y-17577500D01*
X27590000Y-17577500D02*
X27590000Y-18027500D01*
X34360000Y-17577500D02*
X34810000Y-17577500D01*
X34810000Y-17577500D02*
X34810000Y-18027500D01*
X28040000Y-24797500D02*
X27590000Y-24797500D01*
X27590000Y-24797500D02*
X27590000Y-24347500D01*
X34360000Y-24797500D02*
X34810000Y-24797500D01*
X34810000Y-24797500D02*
X34810000Y-24347500D01*
X34810000Y-24347500D02*
X36100000Y-24347500D01*
%TO.C,C21*%
X21062779Y-17560000D02*
X20737221Y-17560000D01*
X21062779Y-16540000D02*
X20737221Y-16540000D01*
%TO.C,C22*%
X22337221Y-26690000D02*
X22662779Y-26690000D01*
X22337221Y-27710000D02*
X22662779Y-27710000D01*
%TO.C,C13*%
X37987221Y-17140000D02*
X38312779Y-17140000D01*
X37987221Y-18160000D02*
X38312779Y-18160000D01*
%TO.C,D1*%
X22550000Y-15450000D02*
X22550000Y-16650000D01*
X24400000Y-15450000D02*
X22550000Y-15450000D01*
X24400000Y-16650000D02*
X22550000Y-16650000D01*
%TO.C,U2*%
X41465000Y-16550000D02*
X41465000Y-18350000D01*
X44685000Y-18350000D02*
X44685000Y-15900000D01*
%TO.C,U3*%
X42910000Y-23400000D02*
X42910000Y-21600000D01*
X39690000Y-21600000D02*
X39690000Y-24050000D01*
D13*
%TO.C,U4*%
X25132200Y-25632200D02*
X25132200Y-24959740D01*
X25132200Y-18367800D02*
X24459740Y-18367800D01*
X17867800Y-18367800D02*
X17867800Y-19540259D01*
X17867800Y-25632200D02*
X18540260Y-25632200D01*
X24459740Y-25632200D02*
X25132200Y-25632200D01*
X25132200Y-19040260D02*
X25132200Y-18367800D01*
X18540260Y-18367800D02*
X17867800Y-18367800D01*
X17867800Y-24959740D02*
X17867800Y-25632200D01*
X23309501Y-26313199D02*
X23690501Y-26313199D01*
X23690501Y-26313199D02*
X23690501Y-26059199D01*
X23690501Y-26059199D02*
X23309501Y-26059199D01*
X23309501Y-26059199D02*
X23309501Y-26313199D01*
X25559199Y-20690500D02*
X25813199Y-20690500D01*
X25813199Y-20690500D02*
X25813199Y-20309500D01*
X25813199Y-20309500D02*
X25559199Y-20309500D01*
X25559199Y-20309500D02*
X25559199Y-20690500D01*
X20309499Y-17686801D02*
X20690499Y-17686801D01*
X20690499Y-17686801D02*
X20690499Y-17940801D01*
X20690499Y-17940801D02*
X20309499Y-17940801D01*
X20309499Y-17940801D02*
X20309499Y-17686801D01*
X17440801Y-22690499D02*
X17186801Y-22690499D01*
X17186801Y-22690499D02*
X17186801Y-22309499D01*
X17186801Y-22309499D02*
X17440801Y-22309499D01*
X17440801Y-22309499D02*
X17440801Y-22690499D01*
D12*
%TO.C,U5*%
X44685000Y-28450000D02*
X44685000Y-26650000D01*
X41465000Y-26650000D02*
X41465000Y-29100000D01*
%TO.C,Y1*%
X39050000Y-20450000D02*
X39050000Y-21250000D01*
X36650000Y-20450000D02*
X38650000Y-20450000D01*
X36650000Y-21250000D02*
X36650000Y-20450000D01*
X36650000Y-24050000D02*
X36650000Y-23050000D01*
X38650000Y-24050000D02*
X36650000Y-24050000D01*
X39050000Y-23050000D02*
X39050000Y-24050000D01*
X39050000Y-23050000D02*
X39450000Y-23050000D01*
X36650000Y-24250000D02*
X38650000Y-24250000D01*
X38650000Y-20450000D02*
X39050000Y-20450000D01*
X38650000Y-24050000D02*
X39050000Y-24050000D01*
X38650000Y-24250000D02*
X39050000Y-24250000D01*
%TO.C,C34*%
X27837221Y-28690000D02*
X28162779Y-28690000D01*
X27837221Y-29710000D02*
X28162779Y-29710000D01*
%TO.C,C35*%
X27837221Y-27140000D02*
X28162779Y-27140000D01*
X27837221Y-28160000D02*
X28162779Y-28160000D01*
%TO.C,U6*%
X38410000Y-28800000D02*
X38410000Y-27000000D01*
X35190000Y-27000000D02*
X35190000Y-29450000D01*
%TD*%
M02*
