%TF.GenerationSoftware,KiCad,Pcbnew,(5.1.6)-1*%
%TF.CreationDate,2020-12-28T02:25:49-08:00*%
%TF.ProjectId,SinESC-Multi,53696e45-5343-42d4-9d75-6c74692e6b69,2.3C*%
%TF.SameCoordinates,Original*%
%TF.FileFunction,Paste,Top*%
%TF.FilePolarity,Positive*%
%FSLAX46Y46*%
G04 Gerber Fmt 4.6, Leading zero omitted, Abs format (unit mm)*
G04 Created by KiCad (PCBNEW (5.1.6)-1) date 2020-12-28 02:25:49*
%MOMM*%
%LPD*%
G01*
G04 APERTURE LIST*
%ADD10C,0.100000*%
%ADD11R,0.498000X0.598000*%
%ADD12R,0.548000X0.958000*%
%ADD13R,0.660000X0.152000*%
%ADD14R,0.152000X0.660000*%
%ADD15R,1.798000X0.298000*%
G04 APERTURE END LIST*
D10*
%TO.C,U4*%
G36*
X23000000Y-21750000D02*
G01*
X23000000Y-22250000D01*
X22500000Y-22250000D01*
X22500000Y-21750000D01*
X23000000Y-21750000D01*
G37*
X23000000Y-21750000D02*
X23000000Y-22250000D01*
X22500000Y-22250000D01*
X22500000Y-21750000D01*
X23000000Y-21750000D01*
G36*
X20500000Y-21750000D02*
G01*
X20500000Y-22250000D01*
X20000000Y-22250000D01*
X20000000Y-21750000D01*
X20500000Y-21750000D01*
G37*
X20500000Y-21750000D02*
X20500000Y-22250000D01*
X20000000Y-22250000D01*
X20000000Y-21750000D01*
X20500000Y-21750000D01*
G36*
X21750000Y-20500000D02*
G01*
X21750000Y-21000000D01*
X21250000Y-21000000D01*
X21250000Y-20500000D01*
X21750000Y-20500000D01*
G37*
X21750000Y-20500000D02*
X21750000Y-21000000D01*
X21250000Y-21000000D01*
X21250000Y-20500000D01*
X21750000Y-20500000D01*
G36*
X21750000Y-23000000D02*
G01*
X21750000Y-23500000D01*
X21250000Y-23500000D01*
X21250000Y-23000000D01*
X21750000Y-23000000D01*
G37*
X21750000Y-23000000D02*
X21750000Y-23500000D01*
X21250000Y-23500000D01*
X21250000Y-23000000D01*
X21750000Y-23000000D01*
G36*
X22000000Y-21500000D02*
G01*
X22000000Y-22500000D01*
X21000000Y-22500000D01*
X21000000Y-21500000D01*
X22000000Y-21500000D01*
G37*
X22000000Y-21500000D02*
X22000000Y-22500000D01*
X21000000Y-22500000D01*
X21000000Y-21500000D01*
X22000000Y-21500000D01*
G36*
X23000000Y-20500000D02*
G01*
X23000000Y-21250000D01*
X22250000Y-21250000D01*
X22250000Y-20500000D01*
X23000000Y-20500000D01*
G37*
X23000000Y-20500000D02*
X23000000Y-21250000D01*
X22250000Y-21250000D01*
X22250000Y-20500000D01*
X23000000Y-20500000D01*
G36*
X23000000Y-22750000D02*
G01*
X23000000Y-23500000D01*
X22250000Y-23500000D01*
X22250000Y-22750000D01*
X23000000Y-22750000D01*
G37*
X23000000Y-22750000D02*
X23000000Y-23500000D01*
X22250000Y-23500000D01*
X22250000Y-22750000D01*
X23000000Y-22750000D01*
G36*
X20750000Y-20500000D02*
G01*
X20750000Y-21250000D01*
X20000000Y-21250000D01*
X20000000Y-20500000D01*
X20750000Y-20500000D01*
G37*
X20750000Y-20500000D02*
X20750000Y-21250000D01*
X20000000Y-21250000D01*
X20000000Y-20500000D01*
X20750000Y-20500000D01*
G36*
X20750000Y-22750000D02*
G01*
X20750000Y-23500000D01*
X20000000Y-23500000D01*
X20000000Y-22750000D01*
X20750000Y-22750000D01*
G37*
X20750000Y-22750000D02*
X20750000Y-23500000D01*
X20000000Y-23500000D01*
X20000000Y-22750000D01*
X20750000Y-22750000D01*
%TD*%
%TO.C,R24*%
G36*
G01*
X39150500Y-29014000D02*
X38949500Y-29014000D01*
G75*
G02*
X38870000Y-28934500I0J79500D01*
G01*
X38870000Y-28775500D01*
G75*
G02*
X38949500Y-28696000I79500J0D01*
G01*
X39150500Y-28696000D01*
G75*
G02*
X39230000Y-28775500I0J-79500D01*
G01*
X39230000Y-28934500D01*
G75*
G02*
X39150500Y-29014000I-79500J0D01*
G01*
G37*
G36*
G01*
X39150500Y-29704000D02*
X38949500Y-29704000D01*
G75*
G02*
X38870000Y-29624500I0J79500D01*
G01*
X38870000Y-29465500D01*
G75*
G02*
X38949500Y-29386000I79500J0D01*
G01*
X39150500Y-29386000D01*
G75*
G02*
X39230000Y-29465500I0J-79500D01*
G01*
X39230000Y-29624500D01*
G75*
G02*
X39150500Y-29704000I-79500J0D01*
G01*
G37*
%TD*%
%TO.C,L1*%
G36*
G01*
X31024000Y-26955600D02*
X31024000Y-29044400D01*
G75*
G02*
X30794400Y-29274000I-229600J0D01*
G01*
X30105600Y-29274000D01*
G75*
G02*
X29876000Y-29044400I0J229600D01*
G01*
X29876000Y-26955600D01*
G75*
G02*
X30105600Y-26726000I229600J0D01*
G01*
X30794400Y-26726000D01*
G75*
G02*
X31024000Y-26955600I0J-229600D01*
G01*
G37*
G36*
G01*
X33824000Y-26955600D02*
X33824000Y-29044400D01*
G75*
G02*
X33594400Y-29274000I-229600J0D01*
G01*
X32905600Y-29274000D01*
G75*
G02*
X32676000Y-29044400I0J229600D01*
G01*
X32676000Y-26955600D01*
G75*
G02*
X32905600Y-26726000I229600J0D01*
G01*
X33594400Y-26726000D01*
G75*
G02*
X33824000Y-26955600I0J-229600D01*
G01*
G37*
%TD*%
%TO.C,U1*%
G36*
G01*
X34049000Y-24713000D02*
X34049000Y-25987000D01*
G75*
G02*
X33999500Y-26036500I-49500J0D01*
G01*
X33900500Y-26036500D01*
G75*
G02*
X33851000Y-25987000I0J49500D01*
G01*
X33851000Y-24713000D01*
G75*
G02*
X33900500Y-24663500I49500J0D01*
G01*
X33999500Y-24663500D01*
G75*
G02*
X34049000Y-24713000I0J-49500D01*
G01*
G37*
G36*
G01*
X33549000Y-24713000D02*
X33549000Y-25987000D01*
G75*
G02*
X33499500Y-26036500I-49500J0D01*
G01*
X33400500Y-26036500D01*
G75*
G02*
X33351000Y-25987000I0J49500D01*
G01*
X33351000Y-24713000D01*
G75*
G02*
X33400500Y-24663500I49500J0D01*
G01*
X33499500Y-24663500D01*
G75*
G02*
X33549000Y-24713000I0J-49500D01*
G01*
G37*
G36*
G01*
X33049000Y-24713000D02*
X33049000Y-25987000D01*
G75*
G02*
X32999500Y-26036500I-49500J0D01*
G01*
X32900500Y-26036500D01*
G75*
G02*
X32851000Y-25987000I0J49500D01*
G01*
X32851000Y-24713000D01*
G75*
G02*
X32900500Y-24663500I49500J0D01*
G01*
X32999500Y-24663500D01*
G75*
G02*
X33049000Y-24713000I0J-49500D01*
G01*
G37*
G36*
G01*
X32549000Y-24713000D02*
X32549000Y-25987000D01*
G75*
G02*
X32499500Y-26036500I-49500J0D01*
G01*
X32400500Y-26036500D01*
G75*
G02*
X32351000Y-25987000I0J49500D01*
G01*
X32351000Y-24713000D01*
G75*
G02*
X32400500Y-24663500I49500J0D01*
G01*
X32499500Y-24663500D01*
G75*
G02*
X32549000Y-24713000I0J-49500D01*
G01*
G37*
G36*
G01*
X32049000Y-24713000D02*
X32049000Y-25987000D01*
G75*
G02*
X31999500Y-26036500I-49500J0D01*
G01*
X31900500Y-26036500D01*
G75*
G02*
X31851000Y-25987000I0J49500D01*
G01*
X31851000Y-24713000D01*
G75*
G02*
X31900500Y-24663500I49500J0D01*
G01*
X31999500Y-24663500D01*
G75*
G02*
X32049000Y-24713000I0J-49500D01*
G01*
G37*
G36*
G01*
X31549000Y-24713000D02*
X31549000Y-25987000D01*
G75*
G02*
X31499500Y-26036500I-49500J0D01*
G01*
X31400500Y-26036500D01*
G75*
G02*
X31351000Y-25987000I0J49500D01*
G01*
X31351000Y-24713000D01*
G75*
G02*
X31400500Y-24663500I49500J0D01*
G01*
X31499500Y-24663500D01*
G75*
G02*
X31549000Y-24713000I0J-49500D01*
G01*
G37*
G36*
G01*
X31049000Y-24713000D02*
X31049000Y-25987000D01*
G75*
G02*
X30999500Y-26036500I-49500J0D01*
G01*
X30900500Y-26036500D01*
G75*
G02*
X30851000Y-25987000I0J49500D01*
G01*
X30851000Y-24713000D01*
G75*
G02*
X30900500Y-24663500I49500J0D01*
G01*
X30999500Y-24663500D01*
G75*
G02*
X31049000Y-24713000I0J-49500D01*
G01*
G37*
G36*
G01*
X30549000Y-24713000D02*
X30549000Y-25987000D01*
G75*
G02*
X30499500Y-26036500I-49500J0D01*
G01*
X30400500Y-26036500D01*
G75*
G02*
X30351000Y-25987000I0J49500D01*
G01*
X30351000Y-24713000D01*
G75*
G02*
X30400500Y-24663500I49500J0D01*
G01*
X30499500Y-24663500D01*
G75*
G02*
X30549000Y-24713000I0J-49500D01*
G01*
G37*
G36*
G01*
X30049000Y-24713000D02*
X30049000Y-25987000D01*
G75*
G02*
X29999500Y-26036500I-49500J0D01*
G01*
X29900500Y-26036500D01*
G75*
G02*
X29851000Y-25987000I0J49500D01*
G01*
X29851000Y-24713000D01*
G75*
G02*
X29900500Y-24663500I49500J0D01*
G01*
X29999500Y-24663500D01*
G75*
G02*
X30049000Y-24713000I0J-49500D01*
G01*
G37*
G36*
G01*
X29549000Y-24713000D02*
X29549000Y-25987000D01*
G75*
G02*
X29499500Y-26036500I-49500J0D01*
G01*
X29400500Y-26036500D01*
G75*
G02*
X29351000Y-25987000I0J49500D01*
G01*
X29351000Y-24713000D01*
G75*
G02*
X29400500Y-24663500I49500J0D01*
G01*
X29499500Y-24663500D01*
G75*
G02*
X29549000Y-24713000I0J-49500D01*
G01*
G37*
G36*
G01*
X29049000Y-24713000D02*
X29049000Y-25987000D01*
G75*
G02*
X28999500Y-26036500I-49500J0D01*
G01*
X28900500Y-26036500D01*
G75*
G02*
X28851000Y-25987000I0J49500D01*
G01*
X28851000Y-24713000D01*
G75*
G02*
X28900500Y-24663500I49500J0D01*
G01*
X28999500Y-24663500D01*
G75*
G02*
X29049000Y-24713000I0J-49500D01*
G01*
G37*
G36*
G01*
X28549000Y-24713000D02*
X28549000Y-25987000D01*
G75*
G02*
X28499500Y-26036500I-49500J0D01*
G01*
X28400500Y-26036500D01*
G75*
G02*
X28351000Y-25987000I0J49500D01*
G01*
X28351000Y-24713000D01*
G75*
G02*
X28400500Y-24663500I49500J0D01*
G01*
X28499500Y-24663500D01*
G75*
G02*
X28549000Y-24713000I0J-49500D01*
G01*
G37*
G36*
G01*
X27724000Y-23888000D02*
X27724000Y-23987000D01*
G75*
G02*
X27674500Y-24036500I-49500J0D01*
G01*
X26400500Y-24036500D01*
G75*
G02*
X26351000Y-23987000I0J49500D01*
G01*
X26351000Y-23888000D01*
G75*
G02*
X26400500Y-23838500I49500J0D01*
G01*
X27674500Y-23838500D01*
G75*
G02*
X27724000Y-23888000I0J-49500D01*
G01*
G37*
G36*
G01*
X27724000Y-23388000D02*
X27724000Y-23487000D01*
G75*
G02*
X27674500Y-23536500I-49500J0D01*
G01*
X26400500Y-23536500D01*
G75*
G02*
X26351000Y-23487000I0J49500D01*
G01*
X26351000Y-23388000D01*
G75*
G02*
X26400500Y-23338500I49500J0D01*
G01*
X27674500Y-23338500D01*
G75*
G02*
X27724000Y-23388000I0J-49500D01*
G01*
G37*
G36*
G01*
X27724000Y-22888000D02*
X27724000Y-22987000D01*
G75*
G02*
X27674500Y-23036500I-49500J0D01*
G01*
X26400500Y-23036500D01*
G75*
G02*
X26351000Y-22987000I0J49500D01*
G01*
X26351000Y-22888000D01*
G75*
G02*
X26400500Y-22838500I49500J0D01*
G01*
X27674500Y-22838500D01*
G75*
G02*
X27724000Y-22888000I0J-49500D01*
G01*
G37*
G36*
G01*
X27724000Y-22388000D02*
X27724000Y-22487000D01*
G75*
G02*
X27674500Y-22536500I-49500J0D01*
G01*
X26400500Y-22536500D01*
G75*
G02*
X26351000Y-22487000I0J49500D01*
G01*
X26351000Y-22388000D01*
G75*
G02*
X26400500Y-22338500I49500J0D01*
G01*
X27674500Y-22338500D01*
G75*
G02*
X27724000Y-22388000I0J-49500D01*
G01*
G37*
G36*
G01*
X27724000Y-21888000D02*
X27724000Y-21987000D01*
G75*
G02*
X27674500Y-22036500I-49500J0D01*
G01*
X26400500Y-22036500D01*
G75*
G02*
X26351000Y-21987000I0J49500D01*
G01*
X26351000Y-21888000D01*
G75*
G02*
X26400500Y-21838500I49500J0D01*
G01*
X27674500Y-21838500D01*
G75*
G02*
X27724000Y-21888000I0J-49500D01*
G01*
G37*
G36*
G01*
X27724000Y-21388000D02*
X27724000Y-21487000D01*
G75*
G02*
X27674500Y-21536500I-49500J0D01*
G01*
X26400500Y-21536500D01*
G75*
G02*
X26351000Y-21487000I0J49500D01*
G01*
X26351000Y-21388000D01*
G75*
G02*
X26400500Y-21338500I49500J0D01*
G01*
X27674500Y-21338500D01*
G75*
G02*
X27724000Y-21388000I0J-49500D01*
G01*
G37*
G36*
G01*
X27724000Y-20888000D02*
X27724000Y-20987000D01*
G75*
G02*
X27674500Y-21036500I-49500J0D01*
G01*
X26400500Y-21036500D01*
G75*
G02*
X26351000Y-20987000I0J49500D01*
G01*
X26351000Y-20888000D01*
G75*
G02*
X26400500Y-20838500I49500J0D01*
G01*
X27674500Y-20838500D01*
G75*
G02*
X27724000Y-20888000I0J-49500D01*
G01*
G37*
G36*
G01*
X27724000Y-20388000D02*
X27724000Y-20487000D01*
G75*
G02*
X27674500Y-20536500I-49500J0D01*
G01*
X26400500Y-20536500D01*
G75*
G02*
X26351000Y-20487000I0J49500D01*
G01*
X26351000Y-20388000D01*
G75*
G02*
X26400500Y-20338500I49500J0D01*
G01*
X27674500Y-20338500D01*
G75*
G02*
X27724000Y-20388000I0J-49500D01*
G01*
G37*
G36*
G01*
X27724000Y-19888000D02*
X27724000Y-19987000D01*
G75*
G02*
X27674500Y-20036500I-49500J0D01*
G01*
X26400500Y-20036500D01*
G75*
G02*
X26351000Y-19987000I0J49500D01*
G01*
X26351000Y-19888000D01*
G75*
G02*
X26400500Y-19838500I49500J0D01*
G01*
X27674500Y-19838500D01*
G75*
G02*
X27724000Y-19888000I0J-49500D01*
G01*
G37*
G36*
G01*
X27724000Y-19388000D02*
X27724000Y-19487000D01*
G75*
G02*
X27674500Y-19536500I-49500J0D01*
G01*
X26400500Y-19536500D01*
G75*
G02*
X26351000Y-19487000I0J49500D01*
G01*
X26351000Y-19388000D01*
G75*
G02*
X26400500Y-19338500I49500J0D01*
G01*
X27674500Y-19338500D01*
G75*
G02*
X27724000Y-19388000I0J-49500D01*
G01*
G37*
G36*
G01*
X27724000Y-18888000D02*
X27724000Y-18987000D01*
G75*
G02*
X27674500Y-19036500I-49500J0D01*
G01*
X26400500Y-19036500D01*
G75*
G02*
X26351000Y-18987000I0J49500D01*
G01*
X26351000Y-18888000D01*
G75*
G02*
X26400500Y-18838500I49500J0D01*
G01*
X27674500Y-18838500D01*
G75*
G02*
X27724000Y-18888000I0J-49500D01*
G01*
G37*
G36*
G01*
X27724000Y-18388000D02*
X27724000Y-18487000D01*
G75*
G02*
X27674500Y-18536500I-49500J0D01*
G01*
X26400500Y-18536500D01*
G75*
G02*
X26351000Y-18487000I0J49500D01*
G01*
X26351000Y-18388000D01*
G75*
G02*
X26400500Y-18338500I49500J0D01*
G01*
X27674500Y-18338500D01*
G75*
G02*
X27724000Y-18388000I0J-49500D01*
G01*
G37*
G36*
G01*
X28549000Y-16388000D02*
X28549000Y-17662000D01*
G75*
G02*
X28499500Y-17711500I-49500J0D01*
G01*
X28400500Y-17711500D01*
G75*
G02*
X28351000Y-17662000I0J49500D01*
G01*
X28351000Y-16388000D01*
G75*
G02*
X28400500Y-16338500I49500J0D01*
G01*
X28499500Y-16338500D01*
G75*
G02*
X28549000Y-16388000I0J-49500D01*
G01*
G37*
G36*
G01*
X29049000Y-16388000D02*
X29049000Y-17662000D01*
G75*
G02*
X28999500Y-17711500I-49500J0D01*
G01*
X28900500Y-17711500D01*
G75*
G02*
X28851000Y-17662000I0J49500D01*
G01*
X28851000Y-16388000D01*
G75*
G02*
X28900500Y-16338500I49500J0D01*
G01*
X28999500Y-16338500D01*
G75*
G02*
X29049000Y-16388000I0J-49500D01*
G01*
G37*
G36*
G01*
X29549000Y-16388000D02*
X29549000Y-17662000D01*
G75*
G02*
X29499500Y-17711500I-49500J0D01*
G01*
X29400500Y-17711500D01*
G75*
G02*
X29351000Y-17662000I0J49500D01*
G01*
X29351000Y-16388000D01*
G75*
G02*
X29400500Y-16338500I49500J0D01*
G01*
X29499500Y-16338500D01*
G75*
G02*
X29549000Y-16388000I0J-49500D01*
G01*
G37*
G36*
G01*
X30049000Y-16388000D02*
X30049000Y-17662000D01*
G75*
G02*
X29999500Y-17711500I-49500J0D01*
G01*
X29900500Y-17711500D01*
G75*
G02*
X29851000Y-17662000I0J49500D01*
G01*
X29851000Y-16388000D01*
G75*
G02*
X29900500Y-16338500I49500J0D01*
G01*
X29999500Y-16338500D01*
G75*
G02*
X30049000Y-16388000I0J-49500D01*
G01*
G37*
G36*
G01*
X30549000Y-16388000D02*
X30549000Y-17662000D01*
G75*
G02*
X30499500Y-17711500I-49500J0D01*
G01*
X30400500Y-17711500D01*
G75*
G02*
X30351000Y-17662000I0J49500D01*
G01*
X30351000Y-16388000D01*
G75*
G02*
X30400500Y-16338500I49500J0D01*
G01*
X30499500Y-16338500D01*
G75*
G02*
X30549000Y-16388000I0J-49500D01*
G01*
G37*
G36*
G01*
X31049000Y-16388000D02*
X31049000Y-17662000D01*
G75*
G02*
X30999500Y-17711500I-49500J0D01*
G01*
X30900500Y-17711500D01*
G75*
G02*
X30851000Y-17662000I0J49500D01*
G01*
X30851000Y-16388000D01*
G75*
G02*
X30900500Y-16338500I49500J0D01*
G01*
X30999500Y-16338500D01*
G75*
G02*
X31049000Y-16388000I0J-49500D01*
G01*
G37*
G36*
G01*
X31549000Y-16388000D02*
X31549000Y-17662000D01*
G75*
G02*
X31499500Y-17711500I-49500J0D01*
G01*
X31400500Y-17711500D01*
G75*
G02*
X31351000Y-17662000I0J49500D01*
G01*
X31351000Y-16388000D01*
G75*
G02*
X31400500Y-16338500I49500J0D01*
G01*
X31499500Y-16338500D01*
G75*
G02*
X31549000Y-16388000I0J-49500D01*
G01*
G37*
G36*
G01*
X32049000Y-16388000D02*
X32049000Y-17662000D01*
G75*
G02*
X31999500Y-17711500I-49500J0D01*
G01*
X31900500Y-17711500D01*
G75*
G02*
X31851000Y-17662000I0J49500D01*
G01*
X31851000Y-16388000D01*
G75*
G02*
X31900500Y-16338500I49500J0D01*
G01*
X31999500Y-16338500D01*
G75*
G02*
X32049000Y-16388000I0J-49500D01*
G01*
G37*
G36*
G01*
X32549000Y-16388000D02*
X32549000Y-17662000D01*
G75*
G02*
X32499500Y-17711500I-49500J0D01*
G01*
X32400500Y-17711500D01*
G75*
G02*
X32351000Y-17662000I0J49500D01*
G01*
X32351000Y-16388000D01*
G75*
G02*
X32400500Y-16338500I49500J0D01*
G01*
X32499500Y-16338500D01*
G75*
G02*
X32549000Y-16388000I0J-49500D01*
G01*
G37*
G36*
G01*
X33049000Y-16388000D02*
X33049000Y-17662000D01*
G75*
G02*
X32999500Y-17711500I-49500J0D01*
G01*
X32900500Y-17711500D01*
G75*
G02*
X32851000Y-17662000I0J49500D01*
G01*
X32851000Y-16388000D01*
G75*
G02*
X32900500Y-16338500I49500J0D01*
G01*
X32999500Y-16338500D01*
G75*
G02*
X33049000Y-16388000I0J-49500D01*
G01*
G37*
G36*
G01*
X33549000Y-16388000D02*
X33549000Y-17662000D01*
G75*
G02*
X33499500Y-17711500I-49500J0D01*
G01*
X33400500Y-17711500D01*
G75*
G02*
X33351000Y-17662000I0J49500D01*
G01*
X33351000Y-16388000D01*
G75*
G02*
X33400500Y-16338500I49500J0D01*
G01*
X33499500Y-16338500D01*
G75*
G02*
X33549000Y-16388000I0J-49500D01*
G01*
G37*
G36*
G01*
X34049000Y-16388000D02*
X34049000Y-17662000D01*
G75*
G02*
X33999500Y-17711500I-49500J0D01*
G01*
X33900500Y-17711500D01*
G75*
G02*
X33851000Y-17662000I0J49500D01*
G01*
X33851000Y-16388000D01*
G75*
G02*
X33900500Y-16338500I49500J0D01*
G01*
X33999500Y-16338500D01*
G75*
G02*
X34049000Y-16388000I0J-49500D01*
G01*
G37*
G36*
G01*
X36049000Y-18388000D02*
X36049000Y-18487000D01*
G75*
G02*
X35999500Y-18536500I-49500J0D01*
G01*
X34725500Y-18536500D01*
G75*
G02*
X34676000Y-18487000I0J49500D01*
G01*
X34676000Y-18388000D01*
G75*
G02*
X34725500Y-18338500I49500J0D01*
G01*
X35999500Y-18338500D01*
G75*
G02*
X36049000Y-18388000I0J-49500D01*
G01*
G37*
G36*
G01*
X36049000Y-18888000D02*
X36049000Y-18987000D01*
G75*
G02*
X35999500Y-19036500I-49500J0D01*
G01*
X34725500Y-19036500D01*
G75*
G02*
X34676000Y-18987000I0J49500D01*
G01*
X34676000Y-18888000D01*
G75*
G02*
X34725500Y-18838500I49500J0D01*
G01*
X35999500Y-18838500D01*
G75*
G02*
X36049000Y-18888000I0J-49500D01*
G01*
G37*
G36*
G01*
X36049000Y-19388000D02*
X36049000Y-19487000D01*
G75*
G02*
X35999500Y-19536500I-49500J0D01*
G01*
X34725500Y-19536500D01*
G75*
G02*
X34676000Y-19487000I0J49500D01*
G01*
X34676000Y-19388000D01*
G75*
G02*
X34725500Y-19338500I49500J0D01*
G01*
X35999500Y-19338500D01*
G75*
G02*
X36049000Y-19388000I0J-49500D01*
G01*
G37*
G36*
G01*
X36049000Y-19888000D02*
X36049000Y-19987000D01*
G75*
G02*
X35999500Y-20036500I-49500J0D01*
G01*
X34725500Y-20036500D01*
G75*
G02*
X34676000Y-19987000I0J49500D01*
G01*
X34676000Y-19888000D01*
G75*
G02*
X34725500Y-19838500I49500J0D01*
G01*
X35999500Y-19838500D01*
G75*
G02*
X36049000Y-19888000I0J-49500D01*
G01*
G37*
G36*
G01*
X36049000Y-20388000D02*
X36049000Y-20487000D01*
G75*
G02*
X35999500Y-20536500I-49500J0D01*
G01*
X34725500Y-20536500D01*
G75*
G02*
X34676000Y-20487000I0J49500D01*
G01*
X34676000Y-20388000D01*
G75*
G02*
X34725500Y-20338500I49500J0D01*
G01*
X35999500Y-20338500D01*
G75*
G02*
X36049000Y-20388000I0J-49500D01*
G01*
G37*
G36*
G01*
X36049000Y-20888000D02*
X36049000Y-20987000D01*
G75*
G02*
X35999500Y-21036500I-49500J0D01*
G01*
X34725500Y-21036500D01*
G75*
G02*
X34676000Y-20987000I0J49500D01*
G01*
X34676000Y-20888000D01*
G75*
G02*
X34725500Y-20838500I49500J0D01*
G01*
X35999500Y-20838500D01*
G75*
G02*
X36049000Y-20888000I0J-49500D01*
G01*
G37*
G36*
G01*
X36049000Y-21388000D02*
X36049000Y-21487000D01*
G75*
G02*
X35999500Y-21536500I-49500J0D01*
G01*
X34725500Y-21536500D01*
G75*
G02*
X34676000Y-21487000I0J49500D01*
G01*
X34676000Y-21388000D01*
G75*
G02*
X34725500Y-21338500I49500J0D01*
G01*
X35999500Y-21338500D01*
G75*
G02*
X36049000Y-21388000I0J-49500D01*
G01*
G37*
G36*
G01*
X36049000Y-21888000D02*
X36049000Y-21987000D01*
G75*
G02*
X35999500Y-22036500I-49500J0D01*
G01*
X34725500Y-22036500D01*
G75*
G02*
X34676000Y-21987000I0J49500D01*
G01*
X34676000Y-21888000D01*
G75*
G02*
X34725500Y-21838500I49500J0D01*
G01*
X35999500Y-21838500D01*
G75*
G02*
X36049000Y-21888000I0J-49500D01*
G01*
G37*
G36*
G01*
X36049000Y-22388000D02*
X36049000Y-22487000D01*
G75*
G02*
X35999500Y-22536500I-49500J0D01*
G01*
X34725500Y-22536500D01*
G75*
G02*
X34676000Y-22487000I0J49500D01*
G01*
X34676000Y-22388000D01*
G75*
G02*
X34725500Y-22338500I49500J0D01*
G01*
X35999500Y-22338500D01*
G75*
G02*
X36049000Y-22388000I0J-49500D01*
G01*
G37*
G36*
G01*
X36049000Y-22888000D02*
X36049000Y-22987000D01*
G75*
G02*
X35999500Y-23036500I-49500J0D01*
G01*
X34725500Y-23036500D01*
G75*
G02*
X34676000Y-22987000I0J49500D01*
G01*
X34676000Y-22888000D01*
G75*
G02*
X34725500Y-22838500I49500J0D01*
G01*
X35999500Y-22838500D01*
G75*
G02*
X36049000Y-22888000I0J-49500D01*
G01*
G37*
G36*
G01*
X36049000Y-23388000D02*
X36049000Y-23487000D01*
G75*
G02*
X35999500Y-23536500I-49500J0D01*
G01*
X34725500Y-23536500D01*
G75*
G02*
X34676000Y-23487000I0J49500D01*
G01*
X34676000Y-23388000D01*
G75*
G02*
X34725500Y-23338500I49500J0D01*
G01*
X35999500Y-23338500D01*
G75*
G02*
X36049000Y-23388000I0J-49500D01*
G01*
G37*
G36*
G01*
X36049000Y-23888000D02*
X36049000Y-23987000D01*
G75*
G02*
X35999500Y-24036500I-49500J0D01*
G01*
X34725500Y-24036500D01*
G75*
G02*
X34676000Y-23987000I0J49500D01*
G01*
X34676000Y-23888000D01*
G75*
G02*
X34725500Y-23838500I49500J0D01*
G01*
X35999500Y-23838500D01*
G75*
G02*
X36049000Y-23888000I0J-49500D01*
G01*
G37*
%TD*%
%TO.C,R10*%
G36*
G01*
X41744000Y-24724500D02*
X41744000Y-24925500D01*
G75*
G02*
X41664500Y-25005000I-79500J0D01*
G01*
X41505500Y-25005000D01*
G75*
G02*
X41426000Y-24925500I0J79500D01*
G01*
X41426000Y-24724500D01*
G75*
G02*
X41505500Y-24645000I79500J0D01*
G01*
X41664500Y-24645000D01*
G75*
G02*
X41744000Y-24724500I0J-79500D01*
G01*
G37*
G36*
G01*
X42434000Y-24724500D02*
X42434000Y-24925500D01*
G75*
G02*
X42354500Y-25005000I-79500J0D01*
G01*
X42195500Y-25005000D01*
G75*
G02*
X42116000Y-24925500I0J79500D01*
G01*
X42116000Y-24724500D01*
G75*
G02*
X42195500Y-24645000I79500J0D01*
G01*
X42354500Y-24645000D01*
G75*
G02*
X42434000Y-24724500I0J-79500D01*
G01*
G37*
%TD*%
%TO.C,C6*%
G36*
G01*
X35564000Y-17499500D02*
X35564000Y-17700500D01*
G75*
G02*
X35484500Y-17780000I-79500J0D01*
G01*
X35325500Y-17780000D01*
G75*
G02*
X35246000Y-17700500I0J79500D01*
G01*
X35246000Y-17499500D01*
G75*
G02*
X35325500Y-17420000I79500J0D01*
G01*
X35484500Y-17420000D01*
G75*
G02*
X35564000Y-17499500I0J-79500D01*
G01*
G37*
G36*
G01*
X36254000Y-17499500D02*
X36254000Y-17700500D01*
G75*
G02*
X36174500Y-17780000I-79500J0D01*
G01*
X36015500Y-17780000D01*
G75*
G02*
X35936000Y-17700500I0J79500D01*
G01*
X35936000Y-17499500D01*
G75*
G02*
X36015500Y-17420000I79500J0D01*
G01*
X36174500Y-17420000D01*
G75*
G02*
X36254000Y-17499500I0J-79500D01*
G01*
G37*
%TD*%
%TO.C,C21*%
G36*
G01*
X20499000Y-16819250D02*
X20499000Y-17280750D01*
G75*
G02*
X20305750Y-17474000I-193250J0D01*
G01*
X19919250Y-17474000D01*
G75*
G02*
X19726000Y-17280750I0J193250D01*
G01*
X19726000Y-16819250D01*
G75*
G02*
X19919250Y-16626000I193250J0D01*
G01*
X20305750Y-16626000D01*
G75*
G02*
X20499000Y-16819250I0J-193250D01*
G01*
G37*
G36*
G01*
X22074000Y-16819250D02*
X22074000Y-17280750D01*
G75*
G02*
X21880750Y-17474000I-193250J0D01*
G01*
X21494250Y-17474000D01*
G75*
G02*
X21301000Y-17280750I0J193250D01*
G01*
X21301000Y-16819250D01*
G75*
G02*
X21494250Y-16626000I193250J0D01*
G01*
X21880750Y-16626000D01*
G75*
G02*
X22074000Y-16819250I0J-193250D01*
G01*
G37*
%TD*%
%TO.C,C20*%
G36*
G01*
X18464000Y-17349500D02*
X18464000Y-17550500D01*
G75*
G02*
X18384500Y-17630000I-79500J0D01*
G01*
X18225500Y-17630000D01*
G75*
G02*
X18146000Y-17550500I0J79500D01*
G01*
X18146000Y-17349500D01*
G75*
G02*
X18225500Y-17270000I79500J0D01*
G01*
X18384500Y-17270000D01*
G75*
G02*
X18464000Y-17349500I0J-79500D01*
G01*
G37*
G36*
G01*
X19154000Y-17349500D02*
X19154000Y-17550500D01*
G75*
G02*
X19074500Y-17630000I-79500J0D01*
G01*
X18915500Y-17630000D01*
G75*
G02*
X18836000Y-17550500I0J79500D01*
G01*
X18836000Y-17349500D01*
G75*
G02*
X18915500Y-17270000I79500J0D01*
G01*
X19074500Y-17270000D01*
G75*
G02*
X19154000Y-17349500I0J-79500D01*
G01*
G37*
%TD*%
%TO.C,C22*%
G36*
G01*
X22901000Y-27430750D02*
X22901000Y-26969250D01*
G75*
G02*
X23094250Y-26776000I193250J0D01*
G01*
X23480750Y-26776000D01*
G75*
G02*
X23674000Y-26969250I0J-193250D01*
G01*
X23674000Y-27430750D01*
G75*
G02*
X23480750Y-27624000I-193250J0D01*
G01*
X23094250Y-27624000D01*
G75*
G02*
X22901000Y-27430750I0J193250D01*
G01*
G37*
G36*
G01*
X21326000Y-27430750D02*
X21326000Y-26969250D01*
G75*
G02*
X21519250Y-26776000I193250J0D01*
G01*
X21905750Y-26776000D01*
G75*
G02*
X22099000Y-26969250I0J-193250D01*
G01*
X22099000Y-27430750D01*
G75*
G02*
X21905750Y-27624000I-193250J0D01*
G01*
X21519250Y-27624000D01*
G75*
G02*
X21326000Y-27430750I0J193250D01*
G01*
G37*
%TD*%
%TO.C,C19*%
G36*
G01*
X20809000Y-28353000D02*
X20809000Y-28647000D01*
G75*
G02*
X20687000Y-28769000I-122000J0D01*
G01*
X20443000Y-28769000D01*
G75*
G02*
X20321000Y-28647000I0J122000D01*
G01*
X20321000Y-28353000D01*
G75*
G02*
X20443000Y-28231000I122000J0D01*
G01*
X20687000Y-28231000D01*
G75*
G02*
X20809000Y-28353000I0J-122000D01*
G01*
G37*
G36*
G01*
X21779000Y-28353000D02*
X21779000Y-28647000D01*
G75*
G02*
X21657000Y-28769000I-122000J0D01*
G01*
X21413000Y-28769000D01*
G75*
G02*
X21291000Y-28647000I0J122000D01*
G01*
X21291000Y-28353000D01*
G75*
G02*
X21413000Y-28231000I122000J0D01*
G01*
X21657000Y-28231000D01*
G75*
G02*
X21779000Y-28353000I0J-122000D01*
G01*
G37*
%TD*%
%TO.C,C17*%
G36*
G01*
X23214000Y-17349500D02*
X23214000Y-17550500D01*
G75*
G02*
X23134500Y-17630000I-79500J0D01*
G01*
X22975500Y-17630000D01*
G75*
G02*
X22896000Y-17550500I0J79500D01*
G01*
X22896000Y-17349500D01*
G75*
G02*
X22975500Y-17270000I79500J0D01*
G01*
X23134500Y-17270000D01*
G75*
G02*
X23214000Y-17349500I0J-79500D01*
G01*
G37*
G36*
G01*
X23904000Y-17349500D02*
X23904000Y-17550500D01*
G75*
G02*
X23824500Y-17630000I-79500J0D01*
G01*
X23665500Y-17630000D01*
G75*
G02*
X23586000Y-17550500I0J79500D01*
G01*
X23586000Y-17349500D01*
G75*
G02*
X23665500Y-17270000I79500J0D01*
G01*
X23824500Y-17270000D01*
G75*
G02*
X23904000Y-17349500I0J-79500D01*
G01*
G37*
%TD*%
%TO.C,C1*%
G36*
G01*
X35916000Y-24900500D02*
X35916000Y-24699500D01*
G75*
G02*
X35995500Y-24620000I79500J0D01*
G01*
X36154500Y-24620000D01*
G75*
G02*
X36234000Y-24699500I0J-79500D01*
G01*
X36234000Y-24900500D01*
G75*
G02*
X36154500Y-24980000I-79500J0D01*
G01*
X35995500Y-24980000D01*
G75*
G02*
X35916000Y-24900500I0J79500D01*
G01*
G37*
G36*
G01*
X35226000Y-24900500D02*
X35226000Y-24699500D01*
G75*
G02*
X35305500Y-24620000I79500J0D01*
G01*
X35464500Y-24620000D01*
G75*
G02*
X35544000Y-24699500I0J-79500D01*
G01*
X35544000Y-24900500D01*
G75*
G02*
X35464500Y-24980000I-79500J0D01*
G01*
X35305500Y-24980000D01*
G75*
G02*
X35226000Y-24900500I0J79500D01*
G01*
G37*
%TD*%
%TO.C,C2*%
G36*
G01*
X38036000Y-20100500D02*
X38036000Y-19899500D01*
G75*
G02*
X38115500Y-19820000I79500J0D01*
G01*
X38274500Y-19820000D01*
G75*
G02*
X38354000Y-19899500I0J-79500D01*
G01*
X38354000Y-20100500D01*
G75*
G02*
X38274500Y-20180000I-79500J0D01*
G01*
X38115500Y-20180000D01*
G75*
G02*
X38036000Y-20100500I0J79500D01*
G01*
G37*
G36*
G01*
X37346000Y-20100500D02*
X37346000Y-19899500D01*
G75*
G02*
X37425500Y-19820000I79500J0D01*
G01*
X37584500Y-19820000D01*
G75*
G02*
X37664000Y-19899500I0J-79500D01*
G01*
X37664000Y-20100500D01*
G75*
G02*
X37584500Y-20180000I-79500J0D01*
G01*
X37425500Y-20180000D01*
G75*
G02*
X37346000Y-20100500I0J79500D01*
G01*
G37*
%TD*%
%TO.C,C3*%
G36*
G01*
X35306000Y-25675500D02*
X35306000Y-25474500D01*
G75*
G02*
X35385500Y-25395000I79500J0D01*
G01*
X35544500Y-25395000D01*
G75*
G02*
X35624000Y-25474500I0J-79500D01*
G01*
X35624000Y-25675500D01*
G75*
G02*
X35544500Y-25755000I-79500J0D01*
G01*
X35385500Y-25755000D01*
G75*
G02*
X35306000Y-25675500I0J79500D01*
G01*
G37*
G36*
G01*
X34616000Y-25675500D02*
X34616000Y-25474500D01*
G75*
G02*
X34695500Y-25395000I79500J0D01*
G01*
X34854500Y-25395000D01*
G75*
G02*
X34934000Y-25474500I0J-79500D01*
G01*
X34934000Y-25675500D01*
G75*
G02*
X34854500Y-25755000I-79500J0D01*
G01*
X34695500Y-25755000D01*
G75*
G02*
X34616000Y-25675500I0J79500D01*
G01*
G37*
%TD*%
%TO.C,C4*%
G36*
G01*
X27064000Y-16699500D02*
X27064000Y-16900500D01*
G75*
G02*
X26984500Y-16980000I-79500J0D01*
G01*
X26825500Y-16980000D01*
G75*
G02*
X26746000Y-16900500I0J79500D01*
G01*
X26746000Y-16699500D01*
G75*
G02*
X26825500Y-16620000I79500J0D01*
G01*
X26984500Y-16620000D01*
G75*
G02*
X27064000Y-16699500I0J-79500D01*
G01*
G37*
G36*
G01*
X27754000Y-16699500D02*
X27754000Y-16900500D01*
G75*
G02*
X27674500Y-16980000I-79500J0D01*
G01*
X27515500Y-16980000D01*
G75*
G02*
X27436000Y-16900500I0J79500D01*
G01*
X27436000Y-16699500D01*
G75*
G02*
X27515500Y-16620000I79500J0D01*
G01*
X27674500Y-16620000D01*
G75*
G02*
X27754000Y-16699500I0J-79500D01*
G01*
G37*
%TD*%
%TO.C,C5*%
G36*
G01*
X26494000Y-17499500D02*
X26494000Y-17700500D01*
G75*
G02*
X26414500Y-17780000I-79500J0D01*
G01*
X26255500Y-17780000D01*
G75*
G02*
X26176000Y-17700500I0J79500D01*
G01*
X26176000Y-17499500D01*
G75*
G02*
X26255500Y-17420000I79500J0D01*
G01*
X26414500Y-17420000D01*
G75*
G02*
X26494000Y-17499500I0J-79500D01*
G01*
G37*
G36*
G01*
X27184000Y-17499500D02*
X27184000Y-17700500D01*
G75*
G02*
X27104500Y-17780000I-79500J0D01*
G01*
X26945500Y-17780000D01*
G75*
G02*
X26866000Y-17700500I0J79500D01*
G01*
X26866000Y-17499500D01*
G75*
G02*
X26945500Y-17420000I79500J0D01*
G01*
X27104500Y-17420000D01*
G75*
G02*
X27184000Y-17499500I0J-79500D01*
G01*
G37*
%TD*%
%TO.C,C7*%
G36*
G01*
X39974500Y-17636000D02*
X40175500Y-17636000D01*
G75*
G02*
X40255000Y-17715500I0J-79500D01*
G01*
X40255000Y-17874500D01*
G75*
G02*
X40175500Y-17954000I-79500J0D01*
G01*
X39974500Y-17954000D01*
G75*
G02*
X39895000Y-17874500I0J79500D01*
G01*
X39895000Y-17715500D01*
G75*
G02*
X39974500Y-17636000I79500J0D01*
G01*
G37*
G36*
G01*
X39974500Y-16946000D02*
X40175500Y-16946000D01*
G75*
G02*
X40255000Y-17025500I0J-79500D01*
G01*
X40255000Y-17184500D01*
G75*
G02*
X40175500Y-17264000I-79500J0D01*
G01*
X39974500Y-17264000D01*
G75*
G02*
X39895000Y-17184500I0J79500D01*
G01*
X39895000Y-17025500D01*
G75*
G02*
X39974500Y-16946000I79500J0D01*
G01*
G37*
%TD*%
%TO.C,C8*%
G36*
G01*
X26494000Y-24649500D02*
X26494000Y-24850500D01*
G75*
G02*
X26414500Y-24930000I-79500J0D01*
G01*
X26255500Y-24930000D01*
G75*
G02*
X26176000Y-24850500I0J79500D01*
G01*
X26176000Y-24649500D01*
G75*
G02*
X26255500Y-24570000I79500J0D01*
G01*
X26414500Y-24570000D01*
G75*
G02*
X26494000Y-24649500I0J-79500D01*
G01*
G37*
G36*
G01*
X27184000Y-24649500D02*
X27184000Y-24850500D01*
G75*
G02*
X27104500Y-24930000I-79500J0D01*
G01*
X26945500Y-24930000D01*
G75*
G02*
X26866000Y-24850500I0J79500D01*
G01*
X26866000Y-24649500D01*
G75*
G02*
X26945500Y-24570000I79500J0D01*
G01*
X27104500Y-24570000D01*
G75*
G02*
X27184000Y-24649500I0J-79500D01*
G01*
G37*
%TD*%
%TO.C,C9*%
G36*
G01*
X27064000Y-25449500D02*
X27064000Y-25650500D01*
G75*
G02*
X26984500Y-25730000I-79500J0D01*
G01*
X26825500Y-25730000D01*
G75*
G02*
X26746000Y-25650500I0J79500D01*
G01*
X26746000Y-25449500D01*
G75*
G02*
X26825500Y-25370000I79500J0D01*
G01*
X26984500Y-25370000D01*
G75*
G02*
X27064000Y-25449500I0J-79500D01*
G01*
G37*
G36*
G01*
X27754000Y-25449500D02*
X27754000Y-25650500D01*
G75*
G02*
X27674500Y-25730000I-79500J0D01*
G01*
X27515500Y-25730000D01*
G75*
G02*
X27436000Y-25650500I0J79500D01*
G01*
X27436000Y-25449500D01*
G75*
G02*
X27515500Y-25370000I79500J0D01*
G01*
X27674500Y-25370000D01*
G75*
G02*
X27754000Y-25449500I0J-79500D01*
G01*
G37*
%TD*%
%TO.C,C10*%
G36*
G01*
X38036000Y-19300500D02*
X38036000Y-19099500D01*
G75*
G02*
X38115500Y-19020000I79500J0D01*
G01*
X38274500Y-19020000D01*
G75*
G02*
X38354000Y-19099500I0J-79500D01*
G01*
X38354000Y-19300500D01*
G75*
G02*
X38274500Y-19380000I-79500J0D01*
G01*
X38115500Y-19380000D01*
G75*
G02*
X38036000Y-19300500I0J79500D01*
G01*
G37*
G36*
G01*
X37346000Y-19300500D02*
X37346000Y-19099500D01*
G75*
G02*
X37425500Y-19020000I79500J0D01*
G01*
X37584500Y-19020000D01*
G75*
G02*
X37664000Y-19099500I0J-79500D01*
G01*
X37664000Y-19300500D01*
G75*
G02*
X37584500Y-19380000I-79500J0D01*
G01*
X37425500Y-19380000D01*
G75*
G02*
X37346000Y-19300500I0J79500D01*
G01*
G37*
%TD*%
%TO.C,C11*%
G36*
G01*
X39003000Y-19656000D02*
X39297000Y-19656000D01*
G75*
G02*
X39419000Y-19778000I0J-122000D01*
G01*
X39419000Y-20022000D01*
G75*
G02*
X39297000Y-20144000I-122000J0D01*
G01*
X39003000Y-20144000D01*
G75*
G02*
X38881000Y-20022000I0J122000D01*
G01*
X38881000Y-19778000D01*
G75*
G02*
X39003000Y-19656000I122000J0D01*
G01*
G37*
G36*
G01*
X39003000Y-18686000D02*
X39297000Y-18686000D01*
G75*
G02*
X39419000Y-18808000I0J-122000D01*
G01*
X39419000Y-19052000D01*
G75*
G02*
X39297000Y-19174000I-122000J0D01*
G01*
X39003000Y-19174000D01*
G75*
G02*
X38881000Y-19052000I0J122000D01*
G01*
X38881000Y-18808000D01*
G75*
G02*
X39003000Y-18686000I122000J0D01*
G01*
G37*
%TD*%
%TO.C,C12*%
G36*
G01*
X34964000Y-15899500D02*
X34964000Y-16100500D01*
G75*
G02*
X34884500Y-16180000I-79500J0D01*
G01*
X34725500Y-16180000D01*
G75*
G02*
X34646000Y-16100500I0J79500D01*
G01*
X34646000Y-15899500D01*
G75*
G02*
X34725500Y-15820000I79500J0D01*
G01*
X34884500Y-15820000D01*
G75*
G02*
X34964000Y-15899500I0J-79500D01*
G01*
G37*
G36*
G01*
X35654000Y-15899500D02*
X35654000Y-16100500D01*
G75*
G02*
X35574500Y-16180000I-79500J0D01*
G01*
X35415500Y-16180000D01*
G75*
G02*
X35336000Y-16100500I0J79500D01*
G01*
X35336000Y-15899500D01*
G75*
G02*
X35415500Y-15820000I79500J0D01*
G01*
X35574500Y-15820000D01*
G75*
G02*
X35654000Y-15899500I0J-79500D01*
G01*
G37*
%TD*%
%TO.C,C13*%
G36*
G01*
X38551000Y-17880750D02*
X38551000Y-17419250D01*
G75*
G02*
X38744250Y-17226000I193250J0D01*
G01*
X39130750Y-17226000D01*
G75*
G02*
X39324000Y-17419250I0J-193250D01*
G01*
X39324000Y-17880750D01*
G75*
G02*
X39130750Y-18074000I-193250J0D01*
G01*
X38744250Y-18074000D01*
G75*
G02*
X38551000Y-17880750I0J193250D01*
G01*
G37*
G36*
G01*
X36976000Y-17880750D02*
X36976000Y-17419250D01*
G75*
G02*
X37169250Y-17226000I193250J0D01*
G01*
X37555750Y-17226000D01*
G75*
G02*
X37749000Y-17419250I0J-193250D01*
G01*
X37749000Y-17880750D01*
G75*
G02*
X37555750Y-18074000I-193250J0D01*
G01*
X37169250Y-18074000D01*
G75*
G02*
X36976000Y-17880750I0J193250D01*
G01*
G37*
%TD*%
%TO.C,C14*%
G36*
G01*
X44061000Y-24150500D02*
X44061000Y-23949500D01*
G75*
G02*
X44140500Y-23870000I79500J0D01*
G01*
X44299500Y-23870000D01*
G75*
G02*
X44379000Y-23949500I0J-79500D01*
G01*
X44379000Y-24150500D01*
G75*
G02*
X44299500Y-24230000I-79500J0D01*
G01*
X44140500Y-24230000D01*
G75*
G02*
X44061000Y-24150500I0J79500D01*
G01*
G37*
G36*
G01*
X43371000Y-24150500D02*
X43371000Y-23949500D01*
G75*
G02*
X43450500Y-23870000I79500J0D01*
G01*
X43609500Y-23870000D01*
G75*
G02*
X43689000Y-23949500I0J-79500D01*
G01*
X43689000Y-24150500D01*
G75*
G02*
X43609500Y-24230000I-79500J0D01*
G01*
X43450500Y-24230000D01*
G75*
G02*
X43371000Y-24150500I0J79500D01*
G01*
G37*
%TD*%
%TO.C,C15*%
G36*
G01*
X36464000Y-15499500D02*
X36464000Y-15700500D01*
G75*
G02*
X36384500Y-15780000I-79500J0D01*
G01*
X36225500Y-15780000D01*
G75*
G02*
X36146000Y-15700500I0J79500D01*
G01*
X36146000Y-15499500D01*
G75*
G02*
X36225500Y-15420000I79500J0D01*
G01*
X36384500Y-15420000D01*
G75*
G02*
X36464000Y-15499500I0J-79500D01*
G01*
G37*
G36*
G01*
X37154000Y-15499500D02*
X37154000Y-15700500D01*
G75*
G02*
X37074500Y-15780000I-79500J0D01*
G01*
X36915500Y-15780000D01*
G75*
G02*
X36836000Y-15700500I0J79500D01*
G01*
X36836000Y-15499500D01*
G75*
G02*
X36915500Y-15420000I79500J0D01*
G01*
X37074500Y-15420000D01*
G75*
G02*
X37154000Y-15499500I0J-79500D01*
G01*
G37*
%TD*%
%TO.C,C16*%
G36*
G01*
X40950500Y-27364000D02*
X40749500Y-27364000D01*
G75*
G02*
X40670000Y-27284500I0J79500D01*
G01*
X40670000Y-27125500D01*
G75*
G02*
X40749500Y-27046000I79500J0D01*
G01*
X40950500Y-27046000D01*
G75*
G02*
X41030000Y-27125500I0J-79500D01*
G01*
X41030000Y-27284500D01*
G75*
G02*
X40950500Y-27364000I-79500J0D01*
G01*
G37*
G36*
G01*
X40950500Y-28054000D02*
X40749500Y-28054000D01*
G75*
G02*
X40670000Y-27974500I0J79500D01*
G01*
X40670000Y-27815500D01*
G75*
G02*
X40749500Y-27736000I79500J0D01*
G01*
X40950500Y-27736000D01*
G75*
G02*
X41030000Y-27815500I0J-79500D01*
G01*
X41030000Y-27974500D01*
G75*
G02*
X40950500Y-28054000I-79500J0D01*
G01*
G37*
%TD*%
%TO.C,C18*%
G36*
G01*
X23241000Y-28647000D02*
X23241000Y-28353000D01*
G75*
G02*
X23363000Y-28231000I122000J0D01*
G01*
X23607000Y-28231000D01*
G75*
G02*
X23729000Y-28353000I0J-122000D01*
G01*
X23729000Y-28647000D01*
G75*
G02*
X23607000Y-28769000I-122000J0D01*
G01*
X23363000Y-28769000D01*
G75*
G02*
X23241000Y-28647000I0J122000D01*
G01*
G37*
G36*
G01*
X22271000Y-28647000D02*
X22271000Y-28353000D01*
G75*
G02*
X22393000Y-28231000I122000J0D01*
G01*
X22637000Y-28231000D01*
G75*
G02*
X22759000Y-28353000I0J-122000D01*
G01*
X22759000Y-28647000D01*
G75*
G02*
X22637000Y-28769000I-122000J0D01*
G01*
X22393000Y-28769000D01*
G75*
G02*
X22271000Y-28647000I0J122000D01*
G01*
G37*
%TD*%
%TO.C,C23*%
G36*
G01*
X16653000Y-24741000D02*
X16947000Y-24741000D01*
G75*
G02*
X17069000Y-24863000I0J-122000D01*
G01*
X17069000Y-25107000D01*
G75*
G02*
X16947000Y-25229000I-122000J0D01*
G01*
X16653000Y-25229000D01*
G75*
G02*
X16531000Y-25107000I0J122000D01*
G01*
X16531000Y-24863000D01*
G75*
G02*
X16653000Y-24741000I122000J0D01*
G01*
G37*
G36*
G01*
X16653000Y-23771000D02*
X16947000Y-23771000D01*
G75*
G02*
X17069000Y-23893000I0J-122000D01*
G01*
X17069000Y-24137000D01*
G75*
G02*
X16947000Y-24259000I-122000J0D01*
G01*
X16653000Y-24259000D01*
G75*
G02*
X16531000Y-24137000I0J122000D01*
G01*
X16531000Y-23893000D01*
G75*
G02*
X16653000Y-23771000I122000J0D01*
G01*
G37*
%TD*%
%TO.C,C24*%
G36*
G01*
X16653000Y-22741000D02*
X16947000Y-22741000D01*
G75*
G02*
X17069000Y-22863000I0J-122000D01*
G01*
X17069000Y-23107000D01*
G75*
G02*
X16947000Y-23229000I-122000J0D01*
G01*
X16653000Y-23229000D01*
G75*
G02*
X16531000Y-23107000I0J122000D01*
G01*
X16531000Y-22863000D01*
G75*
G02*
X16653000Y-22741000I122000J0D01*
G01*
G37*
G36*
G01*
X16653000Y-21771000D02*
X16947000Y-21771000D01*
G75*
G02*
X17069000Y-21893000I0J-122000D01*
G01*
X17069000Y-22137000D01*
G75*
G02*
X16947000Y-22259000I-122000J0D01*
G01*
X16653000Y-22259000D01*
G75*
G02*
X16531000Y-22137000I0J122000D01*
G01*
X16531000Y-21893000D01*
G75*
G02*
X16653000Y-21771000I122000J0D01*
G01*
G37*
%TD*%
%TO.C,C25*%
G36*
G01*
X16947000Y-20244000D02*
X16653000Y-20244000D01*
G75*
G02*
X16531000Y-20122000I0J122000D01*
G01*
X16531000Y-19878000D01*
G75*
G02*
X16653000Y-19756000I122000J0D01*
G01*
X16947000Y-19756000D01*
G75*
G02*
X17069000Y-19878000I0J-122000D01*
G01*
X17069000Y-20122000D01*
G75*
G02*
X16947000Y-20244000I-122000J0D01*
G01*
G37*
G36*
G01*
X16947000Y-21214000D02*
X16653000Y-21214000D01*
G75*
G02*
X16531000Y-21092000I0J122000D01*
G01*
X16531000Y-20848000D01*
G75*
G02*
X16653000Y-20726000I122000J0D01*
G01*
X16947000Y-20726000D01*
G75*
G02*
X17069000Y-20848000I0J-122000D01*
G01*
X17069000Y-21092000D01*
G75*
G02*
X16947000Y-21214000I-122000J0D01*
G01*
G37*
%TD*%
%TO.C,C26*%
G36*
G01*
X19209000Y-15603000D02*
X19209000Y-15897000D01*
G75*
G02*
X19087000Y-16019000I-122000J0D01*
G01*
X18843000Y-16019000D01*
G75*
G02*
X18721000Y-15897000I0J122000D01*
G01*
X18721000Y-15603000D01*
G75*
G02*
X18843000Y-15481000I122000J0D01*
G01*
X19087000Y-15481000D01*
G75*
G02*
X19209000Y-15603000I0J-122000D01*
G01*
G37*
G36*
G01*
X20179000Y-15603000D02*
X20179000Y-15897000D01*
G75*
G02*
X20057000Y-16019000I-122000J0D01*
G01*
X19813000Y-16019000D01*
G75*
G02*
X19691000Y-15897000I0J122000D01*
G01*
X19691000Y-15603000D01*
G75*
G02*
X19813000Y-15481000I122000J0D01*
G01*
X20057000Y-15481000D01*
G75*
G02*
X20179000Y-15603000I0J-122000D01*
G01*
G37*
%TD*%
%TO.C,C27*%
G36*
G01*
X21159000Y-15603000D02*
X21159000Y-15897000D01*
G75*
G02*
X21037000Y-16019000I-122000J0D01*
G01*
X20793000Y-16019000D01*
G75*
G02*
X20671000Y-15897000I0J122000D01*
G01*
X20671000Y-15603000D01*
G75*
G02*
X20793000Y-15481000I122000J0D01*
G01*
X21037000Y-15481000D01*
G75*
G02*
X21159000Y-15603000I0J-122000D01*
G01*
G37*
G36*
G01*
X22129000Y-15603000D02*
X22129000Y-15897000D01*
G75*
G02*
X22007000Y-16019000I-122000J0D01*
G01*
X21763000Y-16019000D01*
G75*
G02*
X21641000Y-15897000I0J122000D01*
G01*
X21641000Y-15603000D01*
G75*
G02*
X21763000Y-15481000I122000J0D01*
G01*
X22007000Y-15481000D01*
G75*
G02*
X22129000Y-15603000I0J-122000D01*
G01*
G37*
%TD*%
D11*
%TO.C,D1*%
X23000000Y-16050000D03*
X24400000Y-16050000D03*
%TD*%
%TO.C,R1*%
G36*
G01*
X40314000Y-16149500D02*
X40314000Y-16350500D01*
G75*
G02*
X40234500Y-16430000I-79500J0D01*
G01*
X40075500Y-16430000D01*
G75*
G02*
X39996000Y-16350500I0J79500D01*
G01*
X39996000Y-16149500D01*
G75*
G02*
X40075500Y-16070000I79500J0D01*
G01*
X40234500Y-16070000D01*
G75*
G02*
X40314000Y-16149500I0J-79500D01*
G01*
G37*
G36*
G01*
X41004000Y-16149500D02*
X41004000Y-16350500D01*
G75*
G02*
X40924500Y-16430000I-79500J0D01*
G01*
X40765500Y-16430000D01*
G75*
G02*
X40686000Y-16350500I0J79500D01*
G01*
X40686000Y-16149500D01*
G75*
G02*
X40765500Y-16070000I79500J0D01*
G01*
X40924500Y-16070000D01*
G75*
G02*
X41004000Y-16149500I0J-79500D01*
G01*
G37*
%TD*%
%TO.C,R2*%
G36*
G01*
X35336000Y-16900500D02*
X35336000Y-16699500D01*
G75*
G02*
X35415500Y-16620000I79500J0D01*
G01*
X35574500Y-16620000D01*
G75*
G02*
X35654000Y-16699500I0J-79500D01*
G01*
X35654000Y-16900500D01*
G75*
G02*
X35574500Y-16980000I-79500J0D01*
G01*
X35415500Y-16980000D01*
G75*
G02*
X35336000Y-16900500I0J79500D01*
G01*
G37*
G36*
G01*
X34646000Y-16900500D02*
X34646000Y-16699500D01*
G75*
G02*
X34725500Y-16620000I79500J0D01*
G01*
X34884500Y-16620000D01*
G75*
G02*
X34964000Y-16699500I0J-79500D01*
G01*
X34964000Y-16900500D01*
G75*
G02*
X34884500Y-16980000I-79500J0D01*
G01*
X34725500Y-16980000D01*
G75*
G02*
X34646000Y-16900500I0J79500D01*
G01*
G37*
%TD*%
%TO.C,R4*%
G36*
G01*
X40314000Y-15374500D02*
X40314000Y-15575500D01*
G75*
G02*
X40234500Y-15655000I-79500J0D01*
G01*
X40075500Y-15655000D01*
G75*
G02*
X39996000Y-15575500I0J79500D01*
G01*
X39996000Y-15374500D01*
G75*
G02*
X40075500Y-15295000I79500J0D01*
G01*
X40234500Y-15295000D01*
G75*
G02*
X40314000Y-15374500I0J-79500D01*
G01*
G37*
G36*
G01*
X41004000Y-15374500D02*
X41004000Y-15575500D01*
G75*
G02*
X40924500Y-15655000I-79500J0D01*
G01*
X40765500Y-15655000D01*
G75*
G02*
X40686000Y-15575500I0J79500D01*
G01*
X40686000Y-15374500D01*
G75*
G02*
X40765500Y-15295000I79500J0D01*
G01*
X40924500Y-15295000D01*
G75*
G02*
X41004000Y-15374500I0J-79500D01*
G01*
G37*
%TD*%
%TO.C,R5*%
G36*
G01*
X40749500Y-17636000D02*
X40950500Y-17636000D01*
G75*
G02*
X41030000Y-17715500I0J-79500D01*
G01*
X41030000Y-17874500D01*
G75*
G02*
X40950500Y-17954000I-79500J0D01*
G01*
X40749500Y-17954000D01*
G75*
G02*
X40670000Y-17874500I0J79500D01*
G01*
X40670000Y-17715500D01*
G75*
G02*
X40749500Y-17636000I79500J0D01*
G01*
G37*
G36*
G01*
X40749500Y-16946000D02*
X40950500Y-16946000D01*
G75*
G02*
X41030000Y-17025500I0J-79500D01*
G01*
X41030000Y-17184500D01*
G75*
G02*
X40950500Y-17264000I-79500J0D01*
G01*
X40749500Y-17264000D01*
G75*
G02*
X40670000Y-17184500I0J79500D01*
G01*
X40670000Y-17025500D01*
G75*
G02*
X40749500Y-16946000I79500J0D01*
G01*
G37*
%TD*%
%TO.C,R6*%
G36*
G01*
X36836000Y-16500500D02*
X36836000Y-16299500D01*
G75*
G02*
X36915500Y-16220000I79500J0D01*
G01*
X37074500Y-16220000D01*
G75*
G02*
X37154000Y-16299500I0J-79500D01*
G01*
X37154000Y-16500500D01*
G75*
G02*
X37074500Y-16580000I-79500J0D01*
G01*
X36915500Y-16580000D01*
G75*
G02*
X36836000Y-16500500I0J79500D01*
G01*
G37*
G36*
G01*
X36146000Y-16500500D02*
X36146000Y-16299500D01*
G75*
G02*
X36225500Y-16220000I79500J0D01*
G01*
X36384500Y-16220000D01*
G75*
G02*
X36464000Y-16299500I0J-79500D01*
G01*
X36464000Y-16500500D01*
G75*
G02*
X36384500Y-16580000I-79500J0D01*
G01*
X36225500Y-16580000D01*
G75*
G02*
X36146000Y-16500500I0J79500D01*
G01*
G37*
%TD*%
%TO.C,R8*%
G36*
G01*
X40686000Y-18750500D02*
X40686000Y-18549500D01*
G75*
G02*
X40765500Y-18470000I79500J0D01*
G01*
X40924500Y-18470000D01*
G75*
G02*
X41004000Y-18549500I0J-79500D01*
G01*
X41004000Y-18750500D01*
G75*
G02*
X40924500Y-18830000I-79500J0D01*
G01*
X40765500Y-18830000D01*
G75*
G02*
X40686000Y-18750500I0J79500D01*
G01*
G37*
G36*
G01*
X39996000Y-18750500D02*
X39996000Y-18549500D01*
G75*
G02*
X40075500Y-18470000I79500J0D01*
G01*
X40234500Y-18470000D01*
G75*
G02*
X40314000Y-18549500I0J-79500D01*
G01*
X40314000Y-18750500D01*
G75*
G02*
X40234500Y-18830000I-79500J0D01*
G01*
X40075500Y-18830000D01*
G75*
G02*
X39996000Y-18750500I0J79500D01*
G01*
G37*
%TD*%
%TO.C,R9*%
G36*
G01*
X40314000Y-19324500D02*
X40314000Y-19525500D01*
G75*
G02*
X40234500Y-19605000I-79500J0D01*
G01*
X40075500Y-19605000D01*
G75*
G02*
X39996000Y-19525500I0J79500D01*
G01*
X39996000Y-19324500D01*
G75*
G02*
X40075500Y-19245000I79500J0D01*
G01*
X40234500Y-19245000D01*
G75*
G02*
X40314000Y-19324500I0J-79500D01*
G01*
G37*
G36*
G01*
X41004000Y-19324500D02*
X41004000Y-19525500D01*
G75*
G02*
X40924500Y-19605000I-79500J0D01*
G01*
X40765500Y-19605000D01*
G75*
G02*
X40686000Y-19525500I0J79500D01*
G01*
X40686000Y-19324500D01*
G75*
G02*
X40765500Y-19245000I79500J0D01*
G01*
X40924500Y-19245000D01*
G75*
G02*
X41004000Y-19324500I0J-79500D01*
G01*
G37*
%TD*%
%TO.C,R11*%
G36*
G01*
X28964000Y-15499500D02*
X28964000Y-15700500D01*
G75*
G02*
X28884500Y-15780000I-79500J0D01*
G01*
X28725500Y-15780000D01*
G75*
G02*
X28646000Y-15700500I0J79500D01*
G01*
X28646000Y-15499500D01*
G75*
G02*
X28725500Y-15420000I79500J0D01*
G01*
X28884500Y-15420000D01*
G75*
G02*
X28964000Y-15499500I0J-79500D01*
G01*
G37*
G36*
G01*
X29654000Y-15499500D02*
X29654000Y-15700500D01*
G75*
G02*
X29574500Y-15780000I-79500J0D01*
G01*
X29415500Y-15780000D01*
G75*
G02*
X29336000Y-15700500I0J79500D01*
G01*
X29336000Y-15499500D01*
G75*
G02*
X29415500Y-15420000I79500J0D01*
G01*
X29574500Y-15420000D01*
G75*
G02*
X29654000Y-15499500I0J-79500D01*
G01*
G37*
%TD*%
%TO.C,R13*%
G36*
G01*
X43214000Y-24724500D02*
X43214000Y-24925500D01*
G75*
G02*
X43134500Y-25005000I-79500J0D01*
G01*
X42975500Y-25005000D01*
G75*
G02*
X42896000Y-24925500I0J79500D01*
G01*
X42896000Y-24724500D01*
G75*
G02*
X42975500Y-24645000I79500J0D01*
G01*
X43134500Y-24645000D01*
G75*
G02*
X43214000Y-24724500I0J-79500D01*
G01*
G37*
G36*
G01*
X43904000Y-24724500D02*
X43904000Y-24925500D01*
G75*
G02*
X43824500Y-25005000I-79500J0D01*
G01*
X43665500Y-25005000D01*
G75*
G02*
X43586000Y-24925500I0J79500D01*
G01*
X43586000Y-24724500D01*
G75*
G02*
X43665500Y-24645000I79500J0D01*
G01*
X43824500Y-24645000D01*
G75*
G02*
X43904000Y-24724500I0J-79500D01*
G01*
G37*
%TD*%
%TO.C,R14*%
G36*
G01*
X44061000Y-21050500D02*
X44061000Y-20849500D01*
G75*
G02*
X44140500Y-20770000I79500J0D01*
G01*
X44299500Y-20770000D01*
G75*
G02*
X44379000Y-20849500I0J-79500D01*
G01*
X44379000Y-21050500D01*
G75*
G02*
X44299500Y-21130000I-79500J0D01*
G01*
X44140500Y-21130000D01*
G75*
G02*
X44061000Y-21050500I0J79500D01*
G01*
G37*
G36*
G01*
X43371000Y-21050500D02*
X43371000Y-20849500D01*
G75*
G02*
X43450500Y-20770000I79500J0D01*
G01*
X43609500Y-20770000D01*
G75*
G02*
X43689000Y-20849500I0J-79500D01*
G01*
X43689000Y-21050500D01*
G75*
G02*
X43609500Y-21130000I-79500J0D01*
G01*
X43450500Y-21130000D01*
G75*
G02*
X43371000Y-21050500I0J79500D01*
G01*
G37*
%TD*%
%TO.C,R17*%
G36*
G01*
X42111000Y-20275500D02*
X42111000Y-20074500D01*
G75*
G02*
X42190500Y-19995000I79500J0D01*
G01*
X42349500Y-19995000D01*
G75*
G02*
X42429000Y-20074500I0J-79500D01*
G01*
X42429000Y-20275500D01*
G75*
G02*
X42349500Y-20355000I-79500J0D01*
G01*
X42190500Y-20355000D01*
G75*
G02*
X42111000Y-20275500I0J79500D01*
G01*
G37*
G36*
G01*
X41421000Y-20275500D02*
X41421000Y-20074500D01*
G75*
G02*
X41500500Y-19995000I79500J0D01*
G01*
X41659500Y-19995000D01*
G75*
G02*
X41739000Y-20074500I0J-79500D01*
G01*
X41739000Y-20275500D01*
G75*
G02*
X41659500Y-20355000I-79500J0D01*
G01*
X41500500Y-20355000D01*
G75*
G02*
X41421000Y-20275500I0J79500D01*
G01*
G37*
%TD*%
%TO.C,R18*%
G36*
G01*
X43586000Y-20275500D02*
X43586000Y-20074500D01*
G75*
G02*
X43665500Y-19995000I79500J0D01*
G01*
X43824500Y-19995000D01*
G75*
G02*
X43904000Y-20074500I0J-79500D01*
G01*
X43904000Y-20275500D01*
G75*
G02*
X43824500Y-20355000I-79500J0D01*
G01*
X43665500Y-20355000D01*
G75*
G02*
X43586000Y-20275500I0J79500D01*
G01*
G37*
G36*
G01*
X42896000Y-20275500D02*
X42896000Y-20074500D01*
G75*
G02*
X42975500Y-19995000I79500J0D01*
G01*
X43134500Y-19995000D01*
G75*
G02*
X43214000Y-20074500I0J-79500D01*
G01*
X43214000Y-20275500D01*
G75*
G02*
X43134500Y-20355000I-79500J0D01*
G01*
X42975500Y-20355000D01*
G75*
G02*
X42896000Y-20275500I0J79500D01*
G01*
G37*
%TD*%
%TO.C,R15*%
G36*
G01*
X25564000Y-16699500D02*
X25564000Y-16900500D01*
G75*
G02*
X25484500Y-16980000I-79500J0D01*
G01*
X25325500Y-16980000D01*
G75*
G02*
X25246000Y-16900500I0J79500D01*
G01*
X25246000Y-16699500D01*
G75*
G02*
X25325500Y-16620000I79500J0D01*
G01*
X25484500Y-16620000D01*
G75*
G02*
X25564000Y-16699500I0J-79500D01*
G01*
G37*
G36*
G01*
X26254000Y-16699500D02*
X26254000Y-16900500D01*
G75*
G02*
X26174500Y-16980000I-79500J0D01*
G01*
X26015500Y-16980000D01*
G75*
G02*
X25936000Y-16900500I0J79500D01*
G01*
X25936000Y-16699500D01*
G75*
G02*
X26015500Y-16620000I79500J0D01*
G01*
X26174500Y-16620000D01*
G75*
G02*
X26254000Y-16699500I0J-79500D01*
G01*
G37*
%TD*%
%TO.C,R16*%
G36*
G01*
X25386000Y-17700500D02*
X25386000Y-17499500D01*
G75*
G02*
X25465500Y-17420000I79500J0D01*
G01*
X25624500Y-17420000D01*
G75*
G02*
X25704000Y-17499500I0J-79500D01*
G01*
X25704000Y-17700500D01*
G75*
G02*
X25624500Y-17780000I-79500J0D01*
G01*
X25465500Y-17780000D01*
G75*
G02*
X25386000Y-17700500I0J79500D01*
G01*
G37*
G36*
G01*
X24696000Y-17700500D02*
X24696000Y-17499500D01*
G75*
G02*
X24775500Y-17420000I79500J0D01*
G01*
X24934500Y-17420000D01*
G75*
G02*
X25014000Y-17499500I0J-79500D01*
G01*
X25014000Y-17700500D01*
G75*
G02*
X24934500Y-17780000I-79500J0D01*
G01*
X24775500Y-17780000D01*
G75*
G02*
X24696000Y-17700500I0J79500D01*
G01*
G37*
%TD*%
%TO.C,R19*%
G36*
G01*
X40239000Y-28649500D02*
X40239000Y-28850500D01*
G75*
G02*
X40159500Y-28930000I-79500J0D01*
G01*
X40000500Y-28930000D01*
G75*
G02*
X39921000Y-28850500I0J79500D01*
G01*
X39921000Y-28649500D01*
G75*
G02*
X40000500Y-28570000I79500J0D01*
G01*
X40159500Y-28570000D01*
G75*
G02*
X40239000Y-28649500I0J-79500D01*
G01*
G37*
G36*
G01*
X40929000Y-28649500D02*
X40929000Y-28850500D01*
G75*
G02*
X40849500Y-28930000I-79500J0D01*
G01*
X40690500Y-28930000D01*
G75*
G02*
X40611000Y-28850500I0J79500D01*
G01*
X40611000Y-28649500D01*
G75*
G02*
X40690500Y-28570000I79500J0D01*
G01*
X40849500Y-28570000D01*
G75*
G02*
X40929000Y-28649500I0J-79500D01*
G01*
G37*
%TD*%
%TO.C,R20*%
G36*
G01*
X40611000Y-29625500D02*
X40611000Y-29424500D01*
G75*
G02*
X40690500Y-29345000I79500J0D01*
G01*
X40849500Y-29345000D01*
G75*
G02*
X40929000Y-29424500I0J-79500D01*
G01*
X40929000Y-29625500D01*
G75*
G02*
X40849500Y-29705000I-79500J0D01*
G01*
X40690500Y-29705000D01*
G75*
G02*
X40611000Y-29625500I0J79500D01*
G01*
G37*
G36*
G01*
X39921000Y-29625500D02*
X39921000Y-29424500D01*
G75*
G02*
X40000500Y-29345000I79500J0D01*
G01*
X40159500Y-29345000D01*
G75*
G02*
X40239000Y-29424500I0J-79500D01*
G01*
X40239000Y-29625500D01*
G75*
G02*
X40159500Y-29705000I-79500J0D01*
G01*
X40000500Y-29705000D01*
G75*
G02*
X39921000Y-29625500I0J79500D01*
G01*
G37*
%TD*%
%TO.C,R21*%
G36*
G01*
X40175500Y-27364000D02*
X39974500Y-27364000D01*
G75*
G02*
X39895000Y-27284500I0J79500D01*
G01*
X39895000Y-27125500D01*
G75*
G02*
X39974500Y-27046000I79500J0D01*
G01*
X40175500Y-27046000D01*
G75*
G02*
X40255000Y-27125500I0J-79500D01*
G01*
X40255000Y-27284500D01*
G75*
G02*
X40175500Y-27364000I-79500J0D01*
G01*
G37*
G36*
G01*
X40175500Y-28054000D02*
X39974500Y-28054000D01*
G75*
G02*
X39895000Y-27974500I0J79500D01*
G01*
X39895000Y-27815500D01*
G75*
G02*
X39974500Y-27736000I79500J0D01*
G01*
X40175500Y-27736000D01*
G75*
G02*
X40255000Y-27815500I0J-79500D01*
G01*
X40255000Y-27974500D01*
G75*
G02*
X40175500Y-28054000I-79500J0D01*
G01*
G37*
%TD*%
%TO.C,R22*%
G36*
G01*
X40611000Y-26450500D02*
X40611000Y-26249500D01*
G75*
G02*
X40690500Y-26170000I79500J0D01*
G01*
X40849500Y-26170000D01*
G75*
G02*
X40929000Y-26249500I0J-79500D01*
G01*
X40929000Y-26450500D01*
G75*
G02*
X40849500Y-26530000I-79500J0D01*
G01*
X40690500Y-26530000D01*
G75*
G02*
X40611000Y-26450500I0J79500D01*
G01*
G37*
G36*
G01*
X39921000Y-26450500D02*
X39921000Y-26249500D01*
G75*
G02*
X40000500Y-26170000I79500J0D01*
G01*
X40159500Y-26170000D01*
G75*
G02*
X40239000Y-26249500I0J-79500D01*
G01*
X40239000Y-26450500D01*
G75*
G02*
X40159500Y-26530000I-79500J0D01*
G01*
X40000500Y-26530000D01*
G75*
G02*
X39921000Y-26450500I0J79500D01*
G01*
G37*
%TD*%
%TO.C,R23*%
G36*
G01*
X40611000Y-25675500D02*
X40611000Y-25474500D01*
G75*
G02*
X40690500Y-25395000I79500J0D01*
G01*
X40849500Y-25395000D01*
G75*
G02*
X40929000Y-25474500I0J-79500D01*
G01*
X40929000Y-25675500D01*
G75*
G02*
X40849500Y-25755000I-79500J0D01*
G01*
X40690500Y-25755000D01*
G75*
G02*
X40611000Y-25675500I0J79500D01*
G01*
G37*
G36*
G01*
X39921000Y-25675500D02*
X39921000Y-25474500D01*
G75*
G02*
X40000500Y-25395000I79500J0D01*
G01*
X40159500Y-25395000D01*
G75*
G02*
X40239000Y-25474500I0J-79500D01*
G01*
X40239000Y-25675500D01*
G75*
G02*
X40159500Y-25755000I-79500J0D01*
G01*
X40000500Y-25755000D01*
G75*
G02*
X39921000Y-25675500I0J79500D01*
G01*
G37*
%TD*%
D12*
%TO.C,U2*%
X43075000Y-18550000D03*
X44025000Y-18550000D03*
X42125000Y-18550000D03*
X42125000Y-16350000D03*
X43075000Y-16350000D03*
X44025000Y-16350000D03*
%TD*%
%TO.C,U3*%
X41300000Y-21400000D03*
X40350000Y-21400000D03*
X42250000Y-21400000D03*
X42250000Y-23600000D03*
X41300000Y-23600000D03*
X40350000Y-23600000D03*
%TD*%
D13*
%TO.C,U4*%
X18073400Y-24500000D03*
X18073400Y-24000001D03*
X18073400Y-23000001D03*
X18073400Y-22499999D03*
X18073400Y-22000000D03*
X18073400Y-20999999D03*
X18073400Y-20500000D03*
X18073400Y-19999999D03*
D14*
X19000000Y-18573400D03*
X19499999Y-18573400D03*
X20000000Y-18573400D03*
X21000001Y-18573400D03*
X21999999Y-18573400D03*
X23000000Y-18573400D03*
X23500001Y-18573400D03*
X24000000Y-18573400D03*
D13*
X24926600Y-19500000D03*
X24926600Y-19999999D03*
X24926600Y-20500000D03*
X24926600Y-20999999D03*
X24926600Y-21500001D03*
X24926600Y-22000000D03*
X24926600Y-22499999D03*
X24926600Y-23000001D03*
X24926600Y-23500000D03*
X24926600Y-24000001D03*
X24926600Y-24500000D03*
D14*
X24000000Y-25426600D03*
X23500001Y-25426600D03*
X23000000Y-25426600D03*
X22500001Y-25426600D03*
X21999999Y-25426600D03*
X21500000Y-25426600D03*
X21000001Y-25426600D03*
X20499999Y-25426600D03*
X20000000Y-25426600D03*
X19000000Y-25426600D03*
%TD*%
D12*
%TO.C,U5*%
X43075000Y-26450000D03*
X42125000Y-26450000D03*
X44025000Y-26450000D03*
X44025000Y-28650000D03*
X43075000Y-28650000D03*
X42125000Y-28650000D03*
%TD*%
D15*
%TO.C,Y1*%
X37850000Y-21050000D03*
X37850000Y-22250000D03*
X37850000Y-23450000D03*
%TD*%
%TO.C,C28*%
G36*
G01*
X39003000Y-25891000D02*
X39297000Y-25891000D01*
G75*
G02*
X39419000Y-26013000I0J-122000D01*
G01*
X39419000Y-26257000D01*
G75*
G02*
X39297000Y-26379000I-122000J0D01*
G01*
X39003000Y-26379000D01*
G75*
G02*
X38881000Y-26257000I0J122000D01*
G01*
X38881000Y-26013000D01*
G75*
G02*
X39003000Y-25891000I122000J0D01*
G01*
G37*
G36*
G01*
X39003000Y-24921000D02*
X39297000Y-24921000D01*
G75*
G02*
X39419000Y-25043000I0J-122000D01*
G01*
X39419000Y-25287000D01*
G75*
G02*
X39297000Y-25409000I-122000J0D01*
G01*
X39003000Y-25409000D01*
G75*
G02*
X38881000Y-25287000I0J122000D01*
G01*
X38881000Y-25043000D01*
G75*
G02*
X39003000Y-24921000I122000J0D01*
G01*
G37*
%TD*%
%TO.C,C29*%
G36*
G01*
X37891000Y-25597000D02*
X37891000Y-25303000D01*
G75*
G02*
X38013000Y-25181000I122000J0D01*
G01*
X38257000Y-25181000D01*
G75*
G02*
X38379000Y-25303000I0J-122000D01*
G01*
X38379000Y-25597000D01*
G75*
G02*
X38257000Y-25719000I-122000J0D01*
G01*
X38013000Y-25719000D01*
G75*
G02*
X37891000Y-25597000I0J122000D01*
G01*
G37*
G36*
G01*
X36921000Y-25597000D02*
X36921000Y-25303000D01*
G75*
G02*
X37043000Y-25181000I122000J0D01*
G01*
X37287000Y-25181000D01*
G75*
G02*
X37409000Y-25303000I0J-122000D01*
G01*
X37409000Y-25597000D01*
G75*
G02*
X37287000Y-25719000I-122000J0D01*
G01*
X37043000Y-25719000D01*
G75*
G02*
X36921000Y-25597000I0J122000D01*
G01*
G37*
%TD*%
%TO.C,C30*%
G36*
G01*
X34449500Y-27336000D02*
X34650500Y-27336000D01*
G75*
G02*
X34730000Y-27415500I0J-79500D01*
G01*
X34730000Y-27574500D01*
G75*
G02*
X34650500Y-27654000I-79500J0D01*
G01*
X34449500Y-27654000D01*
G75*
G02*
X34370000Y-27574500I0J79500D01*
G01*
X34370000Y-27415500D01*
G75*
G02*
X34449500Y-27336000I79500J0D01*
G01*
G37*
G36*
G01*
X34449500Y-26646000D02*
X34650500Y-26646000D01*
G75*
G02*
X34730000Y-26725500I0J-79500D01*
G01*
X34730000Y-26884500D01*
G75*
G02*
X34650500Y-26964000I-79500J0D01*
G01*
X34449500Y-26964000D01*
G75*
G02*
X34370000Y-26884500I0J79500D01*
G01*
X34370000Y-26725500D01*
G75*
G02*
X34449500Y-26646000I79500J0D01*
G01*
G37*
%TD*%
%TO.C,C34*%
G36*
G01*
X28401000Y-29430750D02*
X28401000Y-28969250D01*
G75*
G02*
X28594250Y-28776000I193250J0D01*
G01*
X28980750Y-28776000D01*
G75*
G02*
X29174000Y-28969250I0J-193250D01*
G01*
X29174000Y-29430750D01*
G75*
G02*
X28980750Y-29624000I-193250J0D01*
G01*
X28594250Y-29624000D01*
G75*
G02*
X28401000Y-29430750I0J193250D01*
G01*
G37*
G36*
G01*
X26826000Y-29430750D02*
X26826000Y-28969250D01*
G75*
G02*
X27019250Y-28776000I193250J0D01*
G01*
X27405750Y-28776000D01*
G75*
G02*
X27599000Y-28969250I0J-193250D01*
G01*
X27599000Y-29430750D01*
G75*
G02*
X27405750Y-29624000I-193250J0D01*
G01*
X27019250Y-29624000D01*
G75*
G02*
X26826000Y-29430750I0J193250D01*
G01*
G37*
%TD*%
%TO.C,C35*%
G36*
G01*
X28401000Y-27880750D02*
X28401000Y-27419250D01*
G75*
G02*
X28594250Y-27226000I193250J0D01*
G01*
X28980750Y-27226000D01*
G75*
G02*
X29174000Y-27419250I0J-193250D01*
G01*
X29174000Y-27880750D01*
G75*
G02*
X28980750Y-28074000I-193250J0D01*
G01*
X28594250Y-28074000D01*
G75*
G02*
X28401000Y-27880750I0J193250D01*
G01*
G37*
G36*
G01*
X26826000Y-27880750D02*
X26826000Y-27419250D01*
G75*
G02*
X27019250Y-27226000I193250J0D01*
G01*
X27405750Y-27226000D01*
G75*
G02*
X27599000Y-27419250I0J-193250D01*
G01*
X27599000Y-27880750D01*
G75*
G02*
X27405750Y-28074000I-193250J0D01*
G01*
X27019250Y-28074000D01*
G75*
G02*
X26826000Y-27880750I0J193250D01*
G01*
G37*
%TD*%
%TO.C,R25*%
G36*
G01*
X34449500Y-28836000D02*
X34650500Y-28836000D01*
G75*
G02*
X34730000Y-28915500I0J-79500D01*
G01*
X34730000Y-29074500D01*
G75*
G02*
X34650500Y-29154000I-79500J0D01*
G01*
X34449500Y-29154000D01*
G75*
G02*
X34370000Y-29074500I0J79500D01*
G01*
X34370000Y-28915500D01*
G75*
G02*
X34449500Y-28836000I79500J0D01*
G01*
G37*
G36*
G01*
X34449500Y-28146000D02*
X34650500Y-28146000D01*
G75*
G02*
X34730000Y-28225500I0J-79500D01*
G01*
X34730000Y-28384500D01*
G75*
G02*
X34650500Y-28464000I-79500J0D01*
G01*
X34449500Y-28464000D01*
G75*
G02*
X34370000Y-28384500I0J79500D01*
G01*
X34370000Y-28225500D01*
G75*
G02*
X34449500Y-28146000I79500J0D01*
G01*
G37*
%TD*%
D12*
%TO.C,U6*%
X36800000Y-26800000D03*
X35850000Y-26800000D03*
X37750000Y-26800000D03*
X37750000Y-29000000D03*
X36800000Y-29000000D03*
X35850000Y-29000000D03*
%TD*%
M02*
