%FSLAX45Y45*%
G04 Gerber Fmt 4.5, Leading zero omitted, Abs format (unit mm)*
G04 Created by KiCad (PCBNEW (5.1.6)-1) date 2020-12-28 23:38:17*
%MOMM*%
%LPD*%
G01*
G04 APERTURE LIST*
%TA.AperFunction,Profile*%
%ADD10C,0.050000*%
%TD*%
%ADD11C,0.200000*%
%ADD12C,0.300000*%
G04 APERTURE END LIST*
D10*
X4500000Y-3000000D02*
X1500000Y-3000000D01*
X4500000Y-1500000D02*
X4500000Y-3000000D01*
X1500000Y-1500000D02*
X4500000Y-1500000D01*
X1500000Y-1500000D02*
X1500000Y-3000000D01*
D11*
X1624809Y-2645110D02*
X1644809Y-2665110D01*
X1644809Y-2645110D02*
X1624809Y-2665110D01*
X1635000Y-1860000D02*
X1655000Y-1880000D01*
X1655000Y-1860000D02*
X1635000Y-1880000D01*
X1660000Y-2600001D02*
X1680000Y-2620001D01*
X1680000Y-2600001D02*
X1660000Y-2620001D01*
X1695522Y-2554482D02*
X1715522Y-2574482D01*
X1715522Y-2554482D02*
X1695522Y-2574482D01*
X1700000Y-1840000D02*
X1720000Y-1860000D01*
X1720000Y-1840000D02*
X1700000Y-1860000D01*
X1815000Y-2900000D02*
X1835000Y-2920000D01*
X1835000Y-2900000D02*
X1815000Y-2920000D01*
X1815000Y-2954499D02*
X1835000Y-2974499D01*
X1835000Y-2954499D02*
X1815000Y-2974499D01*
X1870000Y-2040000D02*
X1890000Y-2060000D01*
X1890000Y-2040000D02*
X1870000Y-2060000D01*
X1890000Y-2170000D02*
X1910000Y-2190000D01*
X1910000Y-2170000D02*
X1890000Y-2190000D01*
X1890000Y-2380000D02*
X1910000Y-2400000D01*
X1910000Y-2380000D02*
X1890000Y-2400000D01*
X2235000Y-2440000D02*
X2255000Y-2460000D01*
X2255000Y-2440000D02*
X2235000Y-2460000D01*
X2240000Y-1814005D02*
X2260000Y-1834005D01*
X2260000Y-1814005D02*
X2240000Y-1834005D01*
X2250000Y-1945000D02*
X2270000Y-1965000D01*
X2270000Y-1945000D02*
X2250000Y-1965000D01*
X2250199Y-1866016D02*
X2270199Y-1886016D01*
X2270199Y-1866016D02*
X2250199Y-1886016D01*
X2285000Y-2460000D02*
X2305000Y-2480000D01*
X2305000Y-2460000D02*
X2285000Y-2480000D01*
X2305267Y-1925267D02*
X2325267Y-1945267D01*
X2325267Y-1925267D02*
X2305267Y-1945267D01*
X2380000Y-2125000D02*
X2400000Y-2145000D01*
X2400000Y-2125000D02*
X2380000Y-2145000D01*
X2390000Y-1910000D02*
X2410000Y-1930000D01*
X2410000Y-1910000D02*
X2390000Y-1930000D01*
X2405000Y-2175000D02*
X2425000Y-2195000D01*
X2425000Y-2175000D02*
X2405000Y-2195000D01*
X2425000Y-2790000D02*
X2445000Y-2810000D01*
X2445000Y-2790000D02*
X2425000Y-2810000D01*
X2450000Y-1695000D02*
X2470000Y-1715000D01*
X2470000Y-1695000D02*
X2450000Y-1715000D01*
X2450000Y-2495000D02*
X2470000Y-2515000D01*
X2470000Y-2495000D02*
X2450000Y-2515000D01*
X2555000Y-2090000D02*
X2575000Y-2110000D01*
X2575000Y-2090000D02*
X2555000Y-2110000D01*
X2570000Y-2175000D02*
X2590000Y-2195000D01*
X2590000Y-2175000D02*
X2570000Y-2195000D01*
X2585000Y-1615000D02*
X2605000Y-1635000D01*
X2605000Y-1615000D02*
X2585000Y-1635000D01*
X2595000Y-1835000D02*
X2615000Y-1855000D01*
X2615000Y-1835000D02*
X2595000Y-1855000D01*
X2595000Y-1935000D02*
X2615000Y-1955000D01*
X2615000Y-1935000D02*
X2595000Y-1955000D01*
X2640000Y-1615000D02*
X2660000Y-1635000D01*
X2660000Y-1615000D02*
X2640000Y-1635000D01*
X2640000Y-2850000D02*
X2660000Y-2870000D01*
X2660000Y-2850000D02*
X2640000Y-2870000D01*
X2789569Y-2134569D02*
X2809568Y-2154569D01*
X2809568Y-2134569D02*
X2789569Y-2154569D01*
X2845000Y-2135000D02*
X2865000Y-2155000D01*
X2865000Y-2135000D02*
X2845000Y-2155000D01*
X2860000Y-2380000D02*
X2880000Y-2400000D01*
X2880000Y-2380000D02*
X2860000Y-2400000D01*
X2900000Y-2135000D02*
X2920000Y-2155000D01*
X2920000Y-2135000D02*
X2900000Y-2155000D01*
X2920000Y-2380000D02*
X2940000Y-2400000D01*
X2940000Y-2380000D02*
X2920000Y-2400000D01*
X2980000Y-2380000D02*
X3000000Y-2400000D01*
X3000000Y-2380000D02*
X2980000Y-2400000D01*
X3010000Y-2135000D02*
X3030000Y-2155000D01*
X3030000Y-2135000D02*
X3010000Y-2155000D01*
X3040000Y-2380000D02*
X3060000Y-2400000D01*
X3060000Y-2380000D02*
X3040000Y-2400000D01*
X3100000Y-2380000D02*
X3120000Y-2400000D01*
X3120000Y-2380000D02*
X3100000Y-2400000D01*
X3159497Y-2380000D02*
X3179497Y-2400000D01*
X3179497Y-2380000D02*
X3159497Y-2400000D01*
X3310000Y-1820000D02*
X3330000Y-1840000D01*
X3330000Y-1820000D02*
X3310000Y-1840000D01*
X3365000Y-1820000D02*
X3385000Y-1840000D01*
X3385000Y-1820000D02*
X3365000Y-1840000D01*
X3365000Y-1875000D02*
X3385000Y-1895000D01*
X3385000Y-1875000D02*
X3365000Y-1895000D01*
X3365000Y-1930000D02*
X3385000Y-1950000D01*
X3385000Y-1930000D02*
X3365000Y-1950000D01*
X3370000Y-2250000D02*
X3390000Y-2270000D01*
X3390000Y-2250000D02*
X3370000Y-2270000D01*
X3580000Y-1690000D02*
X3600000Y-1710000D01*
X3600000Y-1690000D02*
X3580000Y-1710000D01*
X3715000Y-2425000D02*
X3735000Y-2445000D01*
X3735000Y-2425000D02*
X3715000Y-2445000D01*
X3735000Y-1625000D02*
X3755000Y-1645000D01*
X3755000Y-1625000D02*
X3735000Y-1645000D01*
X3800000Y-1685000D02*
X3820000Y-1705000D01*
X3820000Y-1685000D02*
X3800000Y-1705000D01*
X3815000Y-2425000D02*
X3835000Y-2445000D01*
X3835000Y-2425000D02*
X3815000Y-2445000D01*
X3875000Y-2675000D02*
X3895000Y-2695000D01*
X3895000Y-2675000D02*
X3875000Y-2695000D01*
X3892500Y-1642500D02*
X3912500Y-1662500D01*
X3912500Y-1642500D02*
X3892500Y-1662500D01*
X3910000Y-2810000D02*
X3930000Y-2830000D01*
X3930000Y-2810000D02*
X3910000Y-2830000D01*
X3950000Y-2920000D02*
X3970000Y-2940000D01*
X3970000Y-2920000D02*
X3950000Y-2940000D01*
X4080000Y-2240000D02*
X4100000Y-2260000D01*
X4100000Y-2240000D02*
X4080000Y-2260000D01*
X4115000Y-1565000D02*
X4135000Y-1585000D01*
X4135000Y-1565000D02*
X4115000Y-1585000D01*
X4122500Y-2205000D02*
X4142500Y-2225000D01*
X4142500Y-2205000D02*
X4122500Y-2225000D01*
X4122500Y-2275000D02*
X4142500Y-2295000D01*
X4142500Y-2275000D02*
X4122500Y-2295000D01*
X4125000Y-1805000D02*
X4145000Y-1825000D01*
X4145000Y-1805000D02*
X4125000Y-1825000D01*
X4137500Y-1695000D02*
X4157500Y-1715000D01*
X4157500Y-1695000D02*
X4137500Y-1715000D01*
X4172500Y-2762500D02*
X4192500Y-2782500D01*
X4192500Y-2762500D02*
X4172500Y-2782500D01*
X4249250Y-2740750D02*
X4269250Y-2760750D01*
X4269250Y-2740750D02*
X4249250Y-2760750D01*
X4295000Y-2555000D02*
X4315000Y-2575000D01*
X4315000Y-2555000D02*
X4295000Y-2575000D01*
X4390000Y-2352500D02*
X4410000Y-2372500D01*
X4410000Y-2352500D02*
X4390000Y-2372500D01*
X4450000Y-2115000D02*
X4470000Y-2135000D01*
X4470000Y-2115000D02*
X4450000Y-2135000D01*
X4450000Y-2442500D02*
X4470000Y-2462500D01*
X4470000Y-2442500D02*
X4450000Y-2462500D01*
D12*
X1783928Y-3468214D02*
X1783928Y-3168214D01*
X1855357Y-3168214D01*
X1898214Y-3182500D01*
X1926786Y-3211071D01*
X1941071Y-3239643D01*
X1955357Y-3296786D01*
X1955357Y-3339643D01*
X1941071Y-3396786D01*
X1926786Y-3425357D01*
X1898214Y-3453929D01*
X1855357Y-3468214D01*
X1783928Y-3468214D01*
X2083928Y-3468214D02*
X2083928Y-3268214D01*
X2083928Y-3325357D02*
X2098214Y-3296786D01*
X2112500Y-3282500D01*
X2141071Y-3268214D01*
X2169643Y-3268214D01*
X2269643Y-3468214D02*
X2269643Y-3268214D01*
X2269643Y-3168214D02*
X2255357Y-3182500D01*
X2269643Y-3196786D01*
X2283928Y-3182500D01*
X2269643Y-3168214D01*
X2269643Y-3196786D01*
X2455357Y-3468214D02*
X2426786Y-3453929D01*
X2412500Y-3425357D01*
X2412500Y-3168214D01*
X2612500Y-3468214D02*
X2583928Y-3453929D01*
X2569643Y-3425357D01*
X2569643Y-3168214D01*
X2955357Y-3468214D02*
X2955357Y-3168214D01*
X3055357Y-3382500D01*
X3155357Y-3168214D01*
X3155357Y-3468214D01*
X3426786Y-3468214D02*
X3426786Y-3311071D01*
X3412500Y-3282500D01*
X3383928Y-3268214D01*
X3326786Y-3268214D01*
X3298214Y-3282500D01*
X3426786Y-3453929D02*
X3398214Y-3468214D01*
X3326786Y-3468214D01*
X3298214Y-3453929D01*
X3283928Y-3425357D01*
X3283928Y-3396786D01*
X3298214Y-3368214D01*
X3326786Y-3353929D01*
X3398214Y-3353929D01*
X3426786Y-3339643D01*
X3569643Y-3268214D02*
X3569643Y-3568214D01*
X3569643Y-3282500D02*
X3598214Y-3268214D01*
X3655357Y-3268214D01*
X3683928Y-3282500D01*
X3698214Y-3296786D01*
X3712500Y-3325357D01*
X3712500Y-3411071D01*
X3698214Y-3439643D01*
X3683928Y-3453929D01*
X3655357Y-3468214D01*
X3598214Y-3468214D01*
X3569643Y-3453929D01*
X3841071Y-3439643D02*
X3855357Y-3453929D01*
X3841071Y-3468214D01*
X3826786Y-3453929D01*
X3841071Y-3439643D01*
X3841071Y-3468214D01*
X3841071Y-3282500D02*
X3855357Y-3296786D01*
X3841071Y-3311071D01*
X3826786Y-3296786D01*
X3841071Y-3282500D01*
X3841071Y-3311071D01*
X1477500Y-3952500D02*
X1497500Y-3972500D01*
X1497500Y-3952500D02*
X1477500Y-3972500D01*
X1841071Y-3798214D02*
X1869643Y-3798214D01*
X1898214Y-3812500D01*
X1912500Y-3826786D01*
X1926786Y-3855357D01*
X1941071Y-3912500D01*
X1941071Y-3983929D01*
X1926786Y-4041071D01*
X1912500Y-4069643D01*
X1898214Y-4083929D01*
X1869643Y-4098214D01*
X1841071Y-4098214D01*
X1812500Y-4083929D01*
X1798214Y-4069643D01*
X1783928Y-4041071D01*
X1769643Y-3983929D01*
X1769643Y-3912500D01*
X1783928Y-3855357D01*
X1798214Y-3826786D01*
X1812500Y-3812500D01*
X1841071Y-3798214D01*
X2069643Y-4069643D02*
X2083928Y-4083929D01*
X2069643Y-4098214D01*
X2055357Y-4083929D01*
X2069643Y-4069643D01*
X2069643Y-4098214D01*
X2198214Y-3826786D02*
X2212500Y-3812500D01*
X2241071Y-3798214D01*
X2312500Y-3798214D01*
X2341071Y-3812500D01*
X2355357Y-3826786D01*
X2369643Y-3855357D01*
X2369643Y-3883929D01*
X2355357Y-3926786D01*
X2183928Y-4098214D01*
X2369643Y-4098214D01*
X2555357Y-3798214D02*
X2583928Y-3798214D01*
X2612500Y-3812500D01*
X2626786Y-3826786D01*
X2641071Y-3855357D01*
X2655357Y-3912500D01*
X2655357Y-3983929D01*
X2641071Y-4041071D01*
X2626786Y-4069643D01*
X2612500Y-4083929D01*
X2583928Y-4098214D01*
X2555357Y-4098214D01*
X2526786Y-4083929D01*
X2512500Y-4069643D01*
X2498214Y-4041071D01*
X2483928Y-3983929D01*
X2483928Y-3912500D01*
X2498214Y-3855357D01*
X2512500Y-3826786D01*
X2526786Y-3812500D01*
X2555357Y-3798214D01*
X2783928Y-4098214D02*
X2783928Y-3898214D01*
X2783928Y-3926786D02*
X2798214Y-3912500D01*
X2826786Y-3898214D01*
X2869643Y-3898214D01*
X2898214Y-3912500D01*
X2912500Y-3941071D01*
X2912500Y-4098214D01*
X2912500Y-3941071D02*
X2926786Y-3912500D01*
X2955357Y-3898214D01*
X2998214Y-3898214D01*
X3026786Y-3912500D01*
X3041071Y-3941071D01*
X3041071Y-4098214D01*
X3183928Y-4098214D02*
X3183928Y-3898214D01*
X3183928Y-3926786D02*
X3198214Y-3912500D01*
X3226786Y-3898214D01*
X3269643Y-3898214D01*
X3298214Y-3912500D01*
X3312500Y-3941071D01*
X3312500Y-4098214D01*
X3312500Y-3941071D02*
X3326786Y-3912500D01*
X3355357Y-3898214D01*
X3398214Y-3898214D01*
X3426786Y-3912500D01*
X3441071Y-3941071D01*
X3441071Y-4098214D01*
X4026786Y-3783929D02*
X3769643Y-4169643D01*
X4412500Y-3798214D02*
X4441071Y-3798214D01*
X4469643Y-3812500D01*
X4483928Y-3826786D01*
X4498214Y-3855357D01*
X4512500Y-3912500D01*
X4512500Y-3983929D01*
X4498214Y-4041071D01*
X4483928Y-4069643D01*
X4469643Y-4083929D01*
X4441071Y-4098214D01*
X4412500Y-4098214D01*
X4383928Y-4083929D01*
X4369643Y-4069643D01*
X4355357Y-4041071D01*
X4341071Y-3983929D01*
X4341071Y-3912500D01*
X4355357Y-3855357D01*
X4369643Y-3826786D01*
X4383928Y-3812500D01*
X4412500Y-3798214D01*
X4641071Y-4069643D02*
X4655357Y-4083929D01*
X4641071Y-4098214D01*
X4626786Y-4083929D01*
X4641071Y-4069643D01*
X4641071Y-4098214D01*
X4841071Y-3798214D02*
X4869643Y-3798214D01*
X4898214Y-3812500D01*
X4912500Y-3826786D01*
X4926786Y-3855357D01*
X4941071Y-3912500D01*
X4941071Y-3983929D01*
X4926786Y-4041071D01*
X4912500Y-4069643D01*
X4898214Y-4083929D01*
X4869643Y-4098214D01*
X4841071Y-4098214D01*
X4812500Y-4083929D01*
X4798214Y-4069643D01*
X4783928Y-4041071D01*
X4769643Y-3983929D01*
X4769643Y-3912500D01*
X4783928Y-3855357D01*
X4798214Y-3826786D01*
X4812500Y-3812500D01*
X4841071Y-3798214D01*
X5126786Y-3798214D02*
X5155357Y-3798214D01*
X5183928Y-3812500D01*
X5198214Y-3826786D01*
X5212500Y-3855357D01*
X5226786Y-3912500D01*
X5226786Y-3983929D01*
X5212500Y-4041071D01*
X5198214Y-4069643D01*
X5183928Y-4083929D01*
X5155357Y-4098214D01*
X5126786Y-4098214D01*
X5098214Y-4083929D01*
X5083928Y-4069643D01*
X5069643Y-4041071D01*
X5055357Y-3983929D01*
X5055357Y-3912500D01*
X5069643Y-3855357D01*
X5083928Y-3826786D01*
X5098214Y-3812500D01*
X5126786Y-3798214D01*
X5398214Y-3926786D02*
X5369643Y-3912500D01*
X5355357Y-3898214D01*
X5341071Y-3869643D01*
X5341071Y-3855357D01*
X5355357Y-3826786D01*
X5369643Y-3812500D01*
X5398214Y-3798214D01*
X5455357Y-3798214D01*
X5483928Y-3812500D01*
X5498214Y-3826786D01*
X5512500Y-3855357D01*
X5512500Y-3869643D01*
X5498214Y-3898214D01*
X5483928Y-3912500D01*
X5455357Y-3926786D01*
X5398214Y-3926786D01*
X5369643Y-3941071D01*
X5355357Y-3955357D01*
X5341071Y-3983929D01*
X5341071Y-4041071D01*
X5355357Y-4069643D01*
X5369643Y-4083929D01*
X5398214Y-4098214D01*
X5455357Y-4098214D01*
X5483928Y-4083929D01*
X5498214Y-4069643D01*
X5512500Y-4041071D01*
X5512500Y-3983929D01*
X5498214Y-3955357D01*
X5483928Y-3941071D01*
X5455357Y-3926786D01*
X5626786Y-3798214D02*
X5626786Y-3855357D01*
X5741071Y-3798214D02*
X5741071Y-3855357D01*
X6183928Y-4212500D02*
X6169643Y-4198214D01*
X6141071Y-4155357D01*
X6126786Y-4126786D01*
X6112500Y-4083929D01*
X6098214Y-4012500D01*
X6098214Y-3955357D01*
X6112500Y-3883929D01*
X6126786Y-3841071D01*
X6141071Y-3812500D01*
X6169643Y-3769643D01*
X6183928Y-3755357D01*
X6426786Y-3798214D02*
X6369643Y-3798214D01*
X6341071Y-3812500D01*
X6326786Y-3826786D01*
X6298214Y-3869643D01*
X6283928Y-3926786D01*
X6283928Y-4041071D01*
X6298214Y-4069643D01*
X6312500Y-4083929D01*
X6341071Y-4098214D01*
X6398214Y-4098214D01*
X6426786Y-4083929D01*
X6441071Y-4069643D01*
X6455357Y-4041071D01*
X6455357Y-3969643D01*
X6441071Y-3941071D01*
X6426786Y-3926786D01*
X6398214Y-3912500D01*
X6341071Y-3912500D01*
X6312500Y-3926786D01*
X6298214Y-3941071D01*
X6283928Y-3969643D01*
X6726786Y-3798214D02*
X6583928Y-3798214D01*
X6569643Y-3941071D01*
X6583928Y-3926786D01*
X6612500Y-3912500D01*
X6683928Y-3912500D01*
X6712500Y-3926786D01*
X6726786Y-3941071D01*
X6741071Y-3969643D01*
X6741071Y-4041071D01*
X6726786Y-4069643D01*
X6712500Y-4083929D01*
X6683928Y-4098214D01*
X6612500Y-4098214D01*
X6583928Y-4083929D01*
X6569643Y-4069643D01*
X7098214Y-4098214D02*
X7098214Y-3798214D01*
X7226786Y-4098214D02*
X7226786Y-3941071D01*
X7212500Y-3912500D01*
X7183928Y-3898214D01*
X7141071Y-3898214D01*
X7112500Y-3912500D01*
X7098214Y-3926786D01*
X7412500Y-4098214D02*
X7383928Y-4083929D01*
X7369643Y-4069643D01*
X7355357Y-4041071D01*
X7355357Y-3955357D01*
X7369643Y-3926786D01*
X7383928Y-3912500D01*
X7412500Y-3898214D01*
X7455357Y-3898214D01*
X7483928Y-3912500D01*
X7498214Y-3926786D01*
X7512500Y-3955357D01*
X7512500Y-4041071D01*
X7498214Y-4069643D01*
X7483928Y-4083929D01*
X7455357Y-4098214D01*
X7412500Y-4098214D01*
X7683928Y-4098214D02*
X7655357Y-4083929D01*
X7641071Y-4055357D01*
X7641071Y-3798214D01*
X7912500Y-4083929D02*
X7883928Y-4098214D01*
X7826786Y-4098214D01*
X7798214Y-4083929D01*
X7783928Y-4055357D01*
X7783928Y-3941071D01*
X7798214Y-3912500D01*
X7826786Y-3898214D01*
X7883928Y-3898214D01*
X7912500Y-3912500D01*
X7926786Y-3941071D01*
X7926786Y-3969643D01*
X7783928Y-3998214D01*
X8041071Y-4083929D02*
X8069643Y-4098214D01*
X8126786Y-4098214D01*
X8155357Y-4083929D01*
X8169643Y-4055357D01*
X8169643Y-4041071D01*
X8155357Y-4012500D01*
X8126786Y-3998214D01*
X8083928Y-3998214D01*
X8055357Y-3983929D01*
X8041071Y-3955357D01*
X8041071Y-3941071D01*
X8055357Y-3912500D01*
X8083928Y-3898214D01*
X8126786Y-3898214D01*
X8155357Y-3912500D01*
X8269643Y-4212500D02*
X8283928Y-4198214D01*
X8312500Y-4155357D01*
X8326786Y-4126786D01*
X8341071Y-4083929D01*
X8355357Y-4012500D01*
X8355357Y-3955357D01*
X8341071Y-3883929D01*
X8326786Y-3841071D01*
X8312500Y-3812500D01*
X8283928Y-3769643D01*
X8269643Y-3755357D01*
M02*
