%TF.GenerationSoftware,KiCad,Pcbnew,(5.1.6)-1*%
%TF.CreationDate,2020-12-28T02:25:49-08:00*%
%TF.ProjectId,SinESC-Multi,53696e45-5343-42d4-9d75-6c74692e6b69,2.3C*%
%TF.SameCoordinates,Original*%
%TF.FileFunction,Soldermask,Bot*%
%TF.FilePolarity,Negative*%
%FSLAX46Y46*%
G04 Gerber Fmt 4.6, Leading zero omitted, Abs format (unit mm)*
G04 Created by KiCad (PCBNEW (5.1.6)-1) date 2020-12-28 02:25:49*
%MOMM*%
%LPD*%
G01*
G04 APERTURE LIST*
%ADD10C,0.100000*%
%ADD11R,0.928000X0.578000*%
%ADD12R,2.078000X3.078000*%
G04 APERTURE END LIST*
%TO.C,R12*%
G36*
G01*
X39501600Y-26786000D02*
X40798400Y-26786000D01*
G75*
G02*
X41064000Y-27051600I0J-265600D01*
G01*
X41064000Y-27848400D01*
G75*
G02*
X40798400Y-28114000I-265600J0D01*
G01*
X39501600Y-28114000D01*
G75*
G02*
X39236000Y-27848400I0J265600D01*
G01*
X39236000Y-27051600D01*
G75*
G02*
X39501600Y-26786000I265600J0D01*
G01*
G37*
G36*
G01*
X39501600Y-23986000D02*
X40798400Y-23986000D01*
G75*
G02*
X41064000Y-24251600I0J-265600D01*
G01*
X41064000Y-25048400D01*
G75*
G02*
X40798400Y-25314000I-265600J0D01*
G01*
X39501600Y-25314000D01*
G75*
G02*
X39236000Y-25048400I0J265600D01*
G01*
X39236000Y-24251600D01*
G75*
G02*
X39501600Y-23986000I265600J0D01*
G01*
G37*
%TD*%
%TO.C,C33*%
G36*
G01*
X42108000Y-20401000D02*
X42492000Y-20401000D01*
G75*
G02*
X42659000Y-20568000I0J-167000D01*
G01*
X42659000Y-20902000D01*
G75*
G02*
X42492000Y-21069000I-167000J0D01*
G01*
X42108000Y-21069000D01*
G75*
G02*
X41941000Y-20902000I0J167000D01*
G01*
X41941000Y-20568000D01*
G75*
G02*
X42108000Y-20401000I167000J0D01*
G01*
G37*
G36*
G01*
X42108000Y-19431000D02*
X42492000Y-19431000D01*
G75*
G02*
X42659000Y-19598000I0J-167000D01*
G01*
X42659000Y-19932000D01*
G75*
G02*
X42492000Y-20099000I-167000J0D01*
G01*
X42108000Y-20099000D01*
G75*
G02*
X41941000Y-19932000I0J167000D01*
G01*
X41941000Y-19598000D01*
G75*
G02*
X42108000Y-19431000I167000J0D01*
G01*
G37*
%TD*%
%TO.C,C31*%
G36*
G01*
X43158000Y-20401000D02*
X43542000Y-20401000D01*
G75*
G02*
X43709000Y-20568000I0J-167000D01*
G01*
X43709000Y-20902000D01*
G75*
G02*
X43542000Y-21069000I-167000J0D01*
G01*
X43158000Y-21069000D01*
G75*
G02*
X42991000Y-20902000I0J167000D01*
G01*
X42991000Y-20568000D01*
G75*
G02*
X43158000Y-20401000I167000J0D01*
G01*
G37*
G36*
G01*
X43158000Y-19431000D02*
X43542000Y-19431000D01*
G75*
G02*
X43709000Y-19598000I0J-167000D01*
G01*
X43709000Y-19932000D01*
G75*
G02*
X43542000Y-20099000I-167000J0D01*
G01*
X43158000Y-20099000D01*
G75*
G02*
X42991000Y-19932000I0J167000D01*
G01*
X42991000Y-19598000D01*
G75*
G02*
X43158000Y-19431000I167000J0D01*
G01*
G37*
%TD*%
%TO.C,C32*%
G36*
G01*
X44208000Y-20401000D02*
X44592000Y-20401000D01*
G75*
G02*
X44759000Y-20568000I0J-167000D01*
G01*
X44759000Y-20902000D01*
G75*
G02*
X44592000Y-21069000I-167000J0D01*
G01*
X44208000Y-21069000D01*
G75*
G02*
X44041000Y-20902000I0J167000D01*
G01*
X44041000Y-20568000D01*
G75*
G02*
X44208000Y-20401000I167000J0D01*
G01*
G37*
G36*
G01*
X44208000Y-19431000D02*
X44592000Y-19431000D01*
G75*
G02*
X44759000Y-19598000I0J-167000D01*
G01*
X44759000Y-19932000D01*
G75*
G02*
X44592000Y-20099000I-167000J0D01*
G01*
X44208000Y-20099000D01*
G75*
G02*
X44041000Y-19932000I0J167000D01*
G01*
X44041000Y-19598000D01*
G75*
G02*
X44208000Y-19431000I167000J0D01*
G01*
G37*
%TD*%
D10*
%TO.C,Q3*%
G36*
X38675000Y-17995000D02*
G01*
X37875000Y-17995000D01*
X37875000Y-18665000D01*
X38675000Y-18665000D01*
X38675000Y-19265000D01*
X37875000Y-19265000D01*
X37875000Y-19935000D01*
X38675000Y-19935000D01*
X38675000Y-20535000D01*
X37875000Y-20535000D01*
X37875000Y-21205000D01*
X38675000Y-21205000D01*
X38675000Y-21805000D01*
X34125000Y-21805000D01*
X34125000Y-17395000D01*
X38675000Y-17395000D01*
X38675000Y-17995000D01*
G37*
D11*
X32450000Y-17695000D03*
X32450000Y-18965000D03*
X32450000Y-20235000D03*
X32450000Y-21505000D03*
%TD*%
D12*
%TO.C,J5*%
X43900000Y-28400000D03*
%TD*%
%TO.C,J4*%
X43900000Y-16600000D03*
%TD*%
%TO.C,J3*%
X16100000Y-28400000D03*
%TD*%
%TO.C,J2*%
X16100000Y-22500000D03*
%TD*%
%TO.C,J1*%
X16100000Y-16600000D03*
%TD*%
D10*
%TO.C,Q1*%
G36*
X31425000Y-16895000D02*
G01*
X30625000Y-16895000D01*
X30625000Y-17565000D01*
X31425000Y-17565000D01*
X31425000Y-18165000D01*
X30625000Y-18165000D01*
X30625000Y-18835000D01*
X31425000Y-18835000D01*
X31425000Y-19435000D01*
X30625000Y-19435000D01*
X30625000Y-20105000D01*
X31425000Y-20105000D01*
X31425000Y-20705000D01*
X26875000Y-20705000D01*
X26875000Y-16295000D01*
X31425000Y-16295000D01*
X31425000Y-16895000D01*
G37*
D11*
X25200000Y-16595000D03*
X25200000Y-17865000D03*
X25200000Y-19135000D03*
X25200000Y-20405000D03*
%TD*%
D10*
%TO.C,Q2*%
G36*
X17525000Y-19505000D02*
G01*
X18325000Y-19505000D01*
X18325000Y-18835000D01*
X17525000Y-18835000D01*
X17525000Y-18235000D01*
X18325000Y-18235000D01*
X18325000Y-17565000D01*
X17525000Y-17565000D01*
X17525000Y-16965000D01*
X18325000Y-16965000D01*
X18325000Y-16295000D01*
X17525000Y-16295000D01*
X17525000Y-15695000D01*
X22075000Y-15695000D01*
X22075000Y-20105000D01*
X17525000Y-20105000D01*
X17525000Y-19505000D01*
G37*
D11*
X23750000Y-19805000D03*
X23750000Y-18535000D03*
X23750000Y-17265000D03*
X23750000Y-15995000D03*
%TD*%
D10*
%TO.C,Q4*%
G36*
X32025000Y-27005000D02*
G01*
X32825000Y-27005000D01*
X32825000Y-26335000D01*
X32025000Y-26335000D01*
X32025000Y-25735000D01*
X32825000Y-25735000D01*
X32825000Y-25065000D01*
X32025000Y-25065000D01*
X32025000Y-24465000D01*
X32825000Y-24465000D01*
X32825000Y-23795000D01*
X32025000Y-23795000D01*
X32025000Y-23195000D01*
X36575000Y-23195000D01*
X36575000Y-27605000D01*
X32025000Y-27605000D01*
X32025000Y-27005000D01*
G37*
D11*
X38250000Y-27305000D03*
X38250000Y-26035000D03*
X38250000Y-24765000D03*
X38250000Y-23495000D03*
%TD*%
D10*
%TO.C,Q5*%
G36*
X31425000Y-24895000D02*
G01*
X30625000Y-24895000D01*
X30625000Y-25565000D01*
X31425000Y-25565000D01*
X31425000Y-26165000D01*
X30625000Y-26165000D01*
X30625000Y-26835000D01*
X31425000Y-26835000D01*
X31425000Y-27435000D01*
X30625000Y-27435000D01*
X30625000Y-28105000D01*
X31425000Y-28105000D01*
X31425000Y-28705000D01*
X26875000Y-28705000D01*
X26875000Y-24295000D01*
X31425000Y-24295000D01*
X31425000Y-24895000D01*
G37*
D11*
X25200000Y-24595000D03*
X25200000Y-25865000D03*
X25200000Y-27135000D03*
X25200000Y-28405000D03*
%TD*%
D10*
%TO.C,Q6*%
G36*
X17525000Y-28105000D02*
G01*
X18325000Y-28105000D01*
X18325000Y-27435000D01*
X17525000Y-27435000D01*
X17525000Y-26835000D01*
X18325000Y-26835000D01*
X18325000Y-26165000D01*
X17525000Y-26165000D01*
X17525000Y-25565000D01*
X18325000Y-25565000D01*
X18325000Y-24895000D01*
X17525000Y-24895000D01*
X17525000Y-24295000D01*
X22075000Y-24295000D01*
X22075000Y-28705000D01*
X17525000Y-28705000D01*
X17525000Y-28105000D01*
G37*
D11*
X23750000Y-28405000D03*
X23750000Y-27135000D03*
X23750000Y-25865000D03*
X23750000Y-24595000D03*
%TD*%
%TO.C,R3*%
G36*
G01*
X40798400Y-18314000D02*
X39501600Y-18314000D01*
G75*
G02*
X39236000Y-18048400I0J265600D01*
G01*
X39236000Y-17251600D01*
G75*
G02*
X39501600Y-16986000I265600J0D01*
G01*
X40798400Y-16986000D01*
G75*
G02*
X41064000Y-17251600I0J-265600D01*
G01*
X41064000Y-18048400D01*
G75*
G02*
X40798400Y-18314000I-265600J0D01*
G01*
G37*
G36*
G01*
X40798400Y-21114000D02*
X39501600Y-21114000D01*
G75*
G02*
X39236000Y-20848400I0J265600D01*
G01*
X39236000Y-20051600D01*
G75*
G02*
X39501600Y-19786000I265600J0D01*
G01*
X40798400Y-19786000D01*
G75*
G02*
X41064000Y-20051600I0J-265600D01*
G01*
X41064000Y-20848400D01*
G75*
G02*
X40798400Y-21114000I-265600J0D01*
G01*
G37*
%TD*%
%TO.C,R7*%
G36*
G01*
X40564000Y-21901600D02*
X40564000Y-23198400D01*
G75*
G02*
X40298400Y-23464000I-265600J0D01*
G01*
X39501600Y-23464000D01*
G75*
G02*
X39236000Y-23198400I0J265600D01*
G01*
X39236000Y-21901600D01*
G75*
G02*
X39501600Y-21636000I265600J0D01*
G01*
X40298400Y-21636000D01*
G75*
G02*
X40564000Y-21901600I0J-265600D01*
G01*
G37*
G36*
G01*
X43364000Y-21901600D02*
X43364000Y-23198400D01*
G75*
G02*
X43098400Y-23464000I-265600J0D01*
G01*
X42301600Y-23464000D01*
G75*
G02*
X42036000Y-23198400I0J265600D01*
G01*
X42036000Y-21901600D01*
G75*
G02*
X42301600Y-21636000I265600J0D01*
G01*
X43098400Y-21636000D01*
G75*
G02*
X43364000Y-21901600I0J-265600D01*
G01*
G37*
%TD*%
M02*
