%TF.GenerationSoftware,KiCad,Pcbnew,(5.1.6)-1*%
%TF.CreationDate,2020-12-28T02:25:49-08:00*%
%TF.ProjectId,SinESC-Multi,53696e45-5343-42d4-9d75-6c74692e6b69,2.3C*%
%TF.SameCoordinates,Original*%
%TF.FileFunction,Copper,L2,Inr*%
%TF.FilePolarity,Positive*%
%FSLAX46Y46*%
G04 Gerber Fmt 4.6, Leading zero omitted, Abs format (unit mm)*
G04 Created by KiCad (PCBNEW (5.1.6)-1) date 2020-12-28 02:25:49*
%MOMM*%
%LPD*%
G01*
G04 APERTURE LIST*
%TA.AperFunction,ViaPad*%
%ADD10C,0.400000*%
%TD*%
%TA.AperFunction,Conductor*%
%ADD11C,0.130000*%
%TD*%
%TA.AperFunction,Conductor*%
%ADD12C,0.250000*%
%TD*%
%TA.AperFunction,Conductor*%
%ADD13C,0.300000*%
%TD*%
G04 APERTURE END LIST*
D10*
%TO.N,Earth*%
X26500000Y-28600000D03*
X44000000Y-23625000D03*
X41325000Y-22850000D03*
X41475000Y-17050000D03*
X42592500Y-27507500D03*
X17100000Y-18500000D03*
X33800000Y-22600000D03*
X22500000Y-18240055D03*
X44600000Y-21250000D03*
%TO.N,+3V3*%
X31100000Y-23900000D03*
X38100000Y-16950000D03*
X39600000Y-29300000D03*
X43050000Y-25650000D03*
X41325000Y-22150000D03*
X41250000Y-15750000D03*
X25800000Y-21850000D03*
X24000000Y-19200000D03*
X29100000Y-21450000D03*
%TO.N,VBUS*%
X16450000Y-18700000D03*
X25950000Y-16250000D03*
X37250000Y-24350000D03*
%TO.N,SHUNT_U*%
X35900000Y-17000000D03*
X39025000Y-16525000D03*
%TO.N,SHUNT_V*%
X37450000Y-16350000D03*
X38250000Y-24350000D03*
%TO.N,SHUNT_W*%
X26500000Y-16250000D03*
X39200000Y-28200000D03*
%TO.N,CUR_U*%
X41350000Y-18150000D03*
X33750000Y-19400000D03*
%TO.N,CUR_V*%
X33750000Y-18850000D03*
X40900000Y-22500000D03*
%TO.N,CUR_W*%
X33750000Y-18300000D03*
X41825000Y-27725000D03*
%TO.N,HSU*%
X24600000Y-17050000D03*
X19000000Y-23900000D03*
%TO.N,LSU*%
X16348094Y-26551102D03*
X23152673Y-19352673D03*
%TO.N,HSV*%
X33200000Y-18300000D03*
X19000000Y-21800000D03*
%TO.N,LSV*%
X38850000Y-26850000D03*
X16700000Y-26100008D03*
%TO.N,HSW*%
X18800000Y-20500000D03*
X24600000Y-25050000D03*
%TO.N,LSW*%
X24350000Y-28000000D03*
X17055217Y-25644815D03*
%TO.N,DRV_EN*%
X30200000Y-21450000D03*
X22601986Y-18760162D03*
%TO.N,DRV_FAULT*%
X26050000Y-18450000D03*
X22600000Y-19550000D03*
%TO.N,PWM_V_L*%
X25650000Y-21000000D03*
X26050000Y-19450000D03*
%TO.N,PWM_U_H*%
X24150000Y-21850000D03*
X28550000Y-21450000D03*
%TO.N,PWM_W_H*%
X23900000Y-21350000D03*
X27995685Y-21445685D03*
%TO.N,SPI_CSN*%
X18250000Y-29100000D03*
X28700000Y-23900000D03*
%TO.N,SPI_SCK*%
X18250000Y-29644988D03*
X29300000Y-23900000D03*
%TO.N,SPI_SDO*%
X29900000Y-23900000D03*
X22450000Y-24500000D03*
%TO.N,SPI_SDI*%
X30500000Y-23900000D03*
X22950000Y-24700000D03*
%TO.N,SINWIRE*%
X44600000Y-24525000D03*
X31694970Y-23900000D03*
%TD*%
D11*
%TO.N,Earth*%
X22240055Y-18500000D02*
X22500000Y-18240055D01*
X17100000Y-18500000D02*
X22240055Y-18500000D01*
D12*
%TO.N,VBUS*%
X16450000Y-18250000D02*
X16450000Y-18700000D01*
X25950000Y-16250000D02*
X18450000Y-16250000D01*
X18450000Y-16250000D02*
X16450000Y-18250000D01*
D11*
%TO.N,SHUNT_W*%
X38450000Y-28200000D02*
X39200000Y-28200000D01*
X26500000Y-16250000D02*
X38450000Y-28200000D01*
%TO.N,CUR_W*%
X41825000Y-25475000D02*
X41825000Y-27725000D01*
X33750000Y-18300000D02*
X34650000Y-18300000D01*
X34650000Y-18300000D02*
X41825000Y-25475000D01*
D13*
%TO.N,LSU*%
X23152673Y-20347327D02*
X23152673Y-19352673D01*
X16148095Y-26351103D02*
X16148095Y-25841535D01*
X16348094Y-26551102D02*
X16148095Y-26351103D01*
X16148095Y-25841535D02*
X20989630Y-21000000D01*
X20989630Y-21000000D02*
X22500000Y-21000000D01*
X22500000Y-21000000D02*
X23152673Y-20347327D01*
D11*
%TO.N,SPI_CSN*%
X18250000Y-29100000D02*
X19161478Y-29100000D01*
X24361478Y-23900000D02*
X28700000Y-23900000D01*
X19161478Y-29100000D02*
X24361478Y-23900000D01*
%TO.N,SPI_SCK*%
X29300000Y-24200000D02*
X29300000Y-23900000D01*
X29100000Y-24400000D02*
X29300000Y-24200000D01*
X24400000Y-24400000D02*
X29100000Y-24400000D01*
X18250000Y-29644988D02*
X19155012Y-29644988D01*
X19155012Y-29644988D02*
X24400000Y-24400000D01*
%TO.N,SPI_SDO*%
X23500000Y-23450000D02*
X22450000Y-24500000D01*
X29900000Y-23900000D02*
X29450000Y-23450000D01*
X29450000Y-23450000D02*
X23500000Y-23450000D01*
%TO.N,SPI_SDI*%
X22250000Y-24950000D02*
X22700000Y-24950000D01*
X22700000Y-24950000D02*
X22950000Y-24700000D01*
X30500000Y-23900000D02*
X29650000Y-23050000D01*
X23250000Y-23050000D02*
X22000000Y-24300000D01*
X22000000Y-24700000D02*
X22250000Y-24950000D01*
X29650000Y-23050000D02*
X23250000Y-23050000D01*
X22000000Y-24300000D02*
X22000000Y-24700000D01*
%TD*%
%TO.N,+3V3*%
G36*
X44485000Y-20870137D02*
G01*
X44484783Y-20870180D01*
X44412897Y-20899956D01*
X44348202Y-20943184D01*
X44293184Y-20998202D01*
X44249956Y-21062897D01*
X44220180Y-21134783D01*
X44205000Y-21211096D01*
X44205000Y-21288904D01*
X44220180Y-21365217D01*
X44249956Y-21437103D01*
X44293184Y-21501798D01*
X44348202Y-21556816D01*
X44412897Y-21600044D01*
X44484783Y-21629820D01*
X44485000Y-21629863D01*
X44485000Y-24145137D01*
X44484783Y-24145180D01*
X44412897Y-24174956D01*
X44348202Y-24218184D01*
X44293184Y-24273202D01*
X44249956Y-24337897D01*
X44220180Y-24409783D01*
X44205000Y-24486096D01*
X44205000Y-24563904D01*
X44220180Y-24640217D01*
X44249956Y-24712103D01*
X44293184Y-24776798D01*
X44348202Y-24831816D01*
X44412897Y-24875044D01*
X44484783Y-24904820D01*
X44485000Y-24904863D01*
X44485000Y-29435000D01*
X19732694Y-29435000D01*
X20606598Y-28561096D01*
X26105000Y-28561096D01*
X26105000Y-28638904D01*
X26120180Y-28715217D01*
X26149956Y-28787103D01*
X26193184Y-28851798D01*
X26248202Y-28906816D01*
X26312897Y-28950044D01*
X26384783Y-28979820D01*
X26461096Y-28995000D01*
X26538904Y-28995000D01*
X26615217Y-28979820D01*
X26687103Y-28950044D01*
X26751798Y-28906816D01*
X26806816Y-28851798D01*
X26850044Y-28787103D01*
X26879820Y-28715217D01*
X26895000Y-28638904D01*
X26895000Y-28561096D01*
X26879820Y-28484783D01*
X26850044Y-28412897D01*
X26806816Y-28348202D01*
X26751798Y-28293184D01*
X26687103Y-28249956D01*
X26615217Y-28220180D01*
X26538904Y-28205000D01*
X26461096Y-28205000D01*
X26384783Y-28220180D01*
X26312897Y-28249956D01*
X26248202Y-28293184D01*
X26193184Y-28348202D01*
X26149956Y-28412897D01*
X26120180Y-28484783D01*
X26105000Y-28561096D01*
X20606598Y-28561096D01*
X21206598Y-27961096D01*
X23955000Y-27961096D01*
X23955000Y-28038904D01*
X23970180Y-28115217D01*
X23999956Y-28187103D01*
X24043184Y-28251798D01*
X24098202Y-28306816D01*
X24162897Y-28350044D01*
X24234783Y-28379820D01*
X24311096Y-28395000D01*
X24388904Y-28395000D01*
X24465217Y-28379820D01*
X24537103Y-28350044D01*
X24601798Y-28306816D01*
X24656816Y-28251798D01*
X24700044Y-28187103D01*
X24729820Y-28115217D01*
X24745000Y-28038904D01*
X24745000Y-27961096D01*
X24729820Y-27884783D01*
X24700044Y-27812897D01*
X24656816Y-27748202D01*
X24601798Y-27693184D01*
X24537103Y-27649956D01*
X24465217Y-27620180D01*
X24388904Y-27605000D01*
X24311096Y-27605000D01*
X24234783Y-27620180D01*
X24162897Y-27649956D01*
X24098202Y-27693184D01*
X24043184Y-27748202D01*
X23999956Y-27812897D01*
X23970180Y-27884783D01*
X23955000Y-27961096D01*
X21206598Y-27961096D01*
X24217018Y-24950678D01*
X24205000Y-25011096D01*
X24205000Y-25088904D01*
X24220180Y-25165217D01*
X24249956Y-25237103D01*
X24293184Y-25301798D01*
X24348202Y-25356816D01*
X24412897Y-25400044D01*
X24484783Y-25429820D01*
X24561096Y-25445000D01*
X24638904Y-25445000D01*
X24715217Y-25429820D01*
X24787103Y-25400044D01*
X24851798Y-25356816D01*
X24906816Y-25301798D01*
X24950044Y-25237103D01*
X24979820Y-25165217D01*
X24995000Y-25088904D01*
X24995000Y-25011096D01*
X24979820Y-24934783D01*
X24950044Y-24862897D01*
X24906816Y-24798202D01*
X24851798Y-24743184D01*
X24787103Y-24699956D01*
X24715217Y-24670180D01*
X24664040Y-24660000D01*
X29087238Y-24660000D01*
X29100000Y-24661257D01*
X29112762Y-24660000D01*
X29112773Y-24660000D01*
X29150969Y-24656238D01*
X29199979Y-24641371D01*
X29245147Y-24617228D01*
X29284737Y-24584737D01*
X29292883Y-24574811D01*
X29474815Y-24392880D01*
X29484737Y-24384737D01*
X29517228Y-24345147D01*
X29527898Y-24325185D01*
X29541371Y-24299980D01*
X29556238Y-24250969D01*
X29556429Y-24249031D01*
X29560000Y-24212773D01*
X29560000Y-24212765D01*
X29561257Y-24200000D01*
X29561020Y-24197594D01*
X29600000Y-24158614D01*
X29648202Y-24206816D01*
X29712897Y-24250044D01*
X29784783Y-24279820D01*
X29861096Y-24295000D01*
X29938904Y-24295000D01*
X30015217Y-24279820D01*
X30087103Y-24250044D01*
X30151798Y-24206816D01*
X30200000Y-24158614D01*
X30248202Y-24206816D01*
X30312897Y-24250044D01*
X30384783Y-24279820D01*
X30461096Y-24295000D01*
X30538904Y-24295000D01*
X30615217Y-24279820D01*
X30687103Y-24250044D01*
X30751798Y-24206816D01*
X30806816Y-24151798D01*
X30850044Y-24087103D01*
X30879820Y-24015217D01*
X30895000Y-23938904D01*
X30895000Y-23861096D01*
X31299970Y-23861096D01*
X31299970Y-23938904D01*
X31315150Y-24015217D01*
X31344926Y-24087103D01*
X31388154Y-24151798D01*
X31443172Y-24206816D01*
X31507867Y-24250044D01*
X31579753Y-24279820D01*
X31656066Y-24295000D01*
X31733874Y-24295000D01*
X31810187Y-24279820D01*
X31882073Y-24250044D01*
X31946768Y-24206816D01*
X32001786Y-24151798D01*
X32045014Y-24087103D01*
X32074790Y-24015217D01*
X32089970Y-23938904D01*
X32089970Y-23861096D01*
X32074790Y-23784783D01*
X32045014Y-23712897D01*
X32001786Y-23648202D01*
X31946768Y-23593184D01*
X31882073Y-23549956D01*
X31810187Y-23520180D01*
X31733874Y-23505000D01*
X31656066Y-23505000D01*
X31579753Y-23520180D01*
X31507867Y-23549956D01*
X31443172Y-23593184D01*
X31388154Y-23648202D01*
X31344926Y-23712897D01*
X31315150Y-23784783D01*
X31299970Y-23861096D01*
X30895000Y-23861096D01*
X30879820Y-23784783D01*
X30850044Y-23712897D01*
X30806816Y-23648202D01*
X30751798Y-23593184D01*
X30687103Y-23549956D01*
X30615217Y-23520180D01*
X30538904Y-23505000D01*
X30472695Y-23505000D01*
X29842884Y-22875190D01*
X29834737Y-22865263D01*
X29795147Y-22832772D01*
X29749979Y-22808629D01*
X29700969Y-22793762D01*
X29662773Y-22790000D01*
X29662762Y-22790000D01*
X29650000Y-22788743D01*
X29637238Y-22790000D01*
X23262762Y-22790000D01*
X23250000Y-22788743D01*
X23237237Y-22790000D01*
X23237227Y-22790000D01*
X23199031Y-22793762D01*
X23150021Y-22808629D01*
X23145406Y-22811096D01*
X23104852Y-22832772D01*
X23083807Y-22850044D01*
X23065263Y-22865263D01*
X23057121Y-22875184D01*
X21825190Y-24107116D01*
X21815263Y-24115263D01*
X21782772Y-24154853D01*
X21758629Y-24200022D01*
X21743762Y-24249032D01*
X21740000Y-24287228D01*
X21740000Y-24287238D01*
X21738743Y-24300000D01*
X21740000Y-24312763D01*
X21740001Y-24687228D01*
X21738743Y-24700000D01*
X21740001Y-24712772D01*
X21740001Y-24712773D01*
X21743763Y-24750969D01*
X21745361Y-24756237D01*
X21758630Y-24799979D01*
X21782772Y-24845147D01*
X21797340Y-24862897D01*
X21815264Y-24884737D01*
X21825184Y-24892879D01*
X22057125Y-25124821D01*
X22065263Y-25134737D01*
X22075179Y-25142875D01*
X22075183Y-25142879D01*
X22099332Y-25162697D01*
X22104853Y-25167228D01*
X22150021Y-25191371D01*
X22199031Y-25206238D01*
X22237227Y-25210000D01*
X22237236Y-25210000D01*
X22249999Y-25211257D01*
X22262762Y-25210000D01*
X22683783Y-25210000D01*
X19053784Y-28840000D01*
X18548614Y-28840000D01*
X18501798Y-28793184D01*
X18437103Y-28749956D01*
X18365217Y-28720180D01*
X18288904Y-28705000D01*
X18211096Y-28705000D01*
X18134783Y-28720180D01*
X18062897Y-28749956D01*
X17998202Y-28793184D01*
X17943184Y-28848202D01*
X17899956Y-28912897D01*
X17870180Y-28984783D01*
X17855000Y-29061096D01*
X17855000Y-29138904D01*
X17870180Y-29215217D01*
X17899956Y-29287103D01*
X17943184Y-29351798D01*
X17963880Y-29372494D01*
X17943184Y-29393190D01*
X17915247Y-29435000D01*
X15615000Y-29435000D01*
X15615000Y-25841535D01*
X15801427Y-25841535D01*
X15803096Y-25858483D01*
X15803095Y-26334164D01*
X15801427Y-26351103D01*
X15803095Y-26368041D01*
X15803095Y-26368048D01*
X15808087Y-26418734D01*
X15827815Y-26483766D01*
X15859850Y-26543701D01*
X15902963Y-26596234D01*
X15916126Y-26607037D01*
X15966503Y-26657414D01*
X15968274Y-26666319D01*
X15998050Y-26738205D01*
X16041278Y-26802900D01*
X16096296Y-26857918D01*
X16160991Y-26901146D01*
X16232877Y-26930922D01*
X16309190Y-26946102D01*
X16386998Y-26946102D01*
X16463311Y-26930922D01*
X16535197Y-26901146D01*
X16599892Y-26857918D01*
X16654910Y-26802900D01*
X16698138Y-26738205D01*
X16727914Y-26666319D01*
X16743094Y-26590006D01*
X16743094Y-26512198D01*
X16739645Y-26494861D01*
X16815217Y-26479828D01*
X16887103Y-26450052D01*
X16951798Y-26406824D01*
X17006816Y-26351806D01*
X17050044Y-26287111D01*
X17079820Y-26215225D01*
X17095000Y-26138912D01*
X17095000Y-26061104D01*
X17090765Y-26039815D01*
X17094121Y-26039815D01*
X17170434Y-26024635D01*
X17242320Y-25994859D01*
X17307015Y-25951631D01*
X17362033Y-25896613D01*
X17405261Y-25831918D01*
X17435037Y-25760032D01*
X17450217Y-25683719D01*
X17450217Y-25605911D01*
X17435037Y-25529598D01*
X17405261Y-25457712D01*
X17362033Y-25393017D01*
X17307015Y-25337999D01*
X17242320Y-25294771D01*
X17200206Y-25277327D01*
X18605000Y-23872533D01*
X18605000Y-23938904D01*
X18620180Y-24015217D01*
X18649956Y-24087103D01*
X18693184Y-24151798D01*
X18748202Y-24206816D01*
X18812897Y-24250044D01*
X18884783Y-24279820D01*
X18961096Y-24295000D01*
X19038904Y-24295000D01*
X19115217Y-24279820D01*
X19187103Y-24250044D01*
X19251798Y-24206816D01*
X19306816Y-24151798D01*
X19350044Y-24087103D01*
X19379820Y-24015217D01*
X19395000Y-23938904D01*
X19395000Y-23861096D01*
X19379820Y-23784783D01*
X19350044Y-23712897D01*
X19306816Y-23648202D01*
X19251798Y-23593184D01*
X19187103Y-23549956D01*
X19115217Y-23520180D01*
X19038904Y-23505000D01*
X18972534Y-23505000D01*
X21132534Y-21345000D01*
X22483062Y-21345000D01*
X22500000Y-21346668D01*
X22516938Y-21345000D01*
X22516946Y-21345000D01*
X22567632Y-21340008D01*
X22632664Y-21320280D01*
X22649846Y-21311096D01*
X23505000Y-21311096D01*
X23505000Y-21388904D01*
X23520180Y-21465217D01*
X23549956Y-21537103D01*
X23593184Y-21601798D01*
X23648202Y-21656816D01*
X23712897Y-21700044D01*
X23774073Y-21725384D01*
X23770180Y-21734783D01*
X23755000Y-21811096D01*
X23755000Y-21888904D01*
X23770180Y-21965217D01*
X23799956Y-22037103D01*
X23843184Y-22101798D01*
X23898202Y-22156816D01*
X23962897Y-22200044D01*
X24034783Y-22229820D01*
X24111096Y-22245000D01*
X24188904Y-22245000D01*
X24265217Y-22229820D01*
X24337103Y-22200044D01*
X24401798Y-22156816D01*
X24456816Y-22101798D01*
X24500044Y-22037103D01*
X24529820Y-21965217D01*
X24545000Y-21888904D01*
X24545000Y-21811096D01*
X24529820Y-21734783D01*
X24500044Y-21662897D01*
X24456816Y-21598202D01*
X24401798Y-21543184D01*
X24337103Y-21499956D01*
X24275927Y-21474616D01*
X24279820Y-21465217D01*
X24291443Y-21406781D01*
X27600685Y-21406781D01*
X27600685Y-21484589D01*
X27615865Y-21560902D01*
X27645641Y-21632788D01*
X27688869Y-21697483D01*
X27743887Y-21752501D01*
X27808582Y-21795729D01*
X27880468Y-21825505D01*
X27956781Y-21840685D01*
X28034589Y-21840685D01*
X28110902Y-21825505D01*
X28182788Y-21795729D01*
X28247483Y-21752501D01*
X28270685Y-21729299D01*
X28298202Y-21756816D01*
X28362897Y-21800044D01*
X28434783Y-21829820D01*
X28511096Y-21845000D01*
X28588904Y-21845000D01*
X28665217Y-21829820D01*
X28737103Y-21800044D01*
X28801798Y-21756816D01*
X28856816Y-21701798D01*
X28900044Y-21637103D01*
X28929820Y-21565217D01*
X28945000Y-21488904D01*
X28945000Y-21411096D01*
X29805000Y-21411096D01*
X29805000Y-21488904D01*
X29820180Y-21565217D01*
X29849956Y-21637103D01*
X29893184Y-21701798D01*
X29948202Y-21756816D01*
X30012897Y-21800044D01*
X30084783Y-21829820D01*
X30161096Y-21845000D01*
X30238904Y-21845000D01*
X30315217Y-21829820D01*
X30387103Y-21800044D01*
X30451798Y-21756816D01*
X30506816Y-21701798D01*
X30550044Y-21637103D01*
X30579820Y-21565217D01*
X30595000Y-21488904D01*
X30595000Y-21411096D01*
X30579820Y-21334783D01*
X30550044Y-21262897D01*
X30506816Y-21198202D01*
X30451798Y-21143184D01*
X30387103Y-21099956D01*
X30315217Y-21070180D01*
X30238904Y-21055000D01*
X30161096Y-21055000D01*
X30084783Y-21070180D01*
X30012897Y-21099956D01*
X29948202Y-21143184D01*
X29893184Y-21198202D01*
X29849956Y-21262897D01*
X29820180Y-21334783D01*
X29805000Y-21411096D01*
X28945000Y-21411096D01*
X28929820Y-21334783D01*
X28900044Y-21262897D01*
X28856816Y-21198202D01*
X28801798Y-21143184D01*
X28737103Y-21099956D01*
X28665217Y-21070180D01*
X28588904Y-21055000D01*
X28511096Y-21055000D01*
X28434783Y-21070180D01*
X28362897Y-21099956D01*
X28298202Y-21143184D01*
X28275000Y-21166386D01*
X28247483Y-21138869D01*
X28182788Y-21095641D01*
X28110902Y-21065865D01*
X28034589Y-21050685D01*
X27956781Y-21050685D01*
X27880468Y-21065865D01*
X27808582Y-21095641D01*
X27743887Y-21138869D01*
X27688869Y-21193887D01*
X27645641Y-21258582D01*
X27615865Y-21330468D01*
X27600685Y-21406781D01*
X24291443Y-21406781D01*
X24295000Y-21388904D01*
X24295000Y-21311096D01*
X24279820Y-21234783D01*
X24250044Y-21162897D01*
X24206816Y-21098202D01*
X24151798Y-21043184D01*
X24087103Y-20999956D01*
X24015217Y-20970180D01*
X23969550Y-20961096D01*
X25255000Y-20961096D01*
X25255000Y-21038904D01*
X25270180Y-21115217D01*
X25299956Y-21187103D01*
X25343184Y-21251798D01*
X25398202Y-21306816D01*
X25462897Y-21350044D01*
X25534783Y-21379820D01*
X25611096Y-21395000D01*
X25688904Y-21395000D01*
X25765217Y-21379820D01*
X25837103Y-21350044D01*
X25901798Y-21306816D01*
X25956816Y-21251798D01*
X26000044Y-21187103D01*
X26029820Y-21115217D01*
X26045000Y-21038904D01*
X26045000Y-20961096D01*
X26029820Y-20884783D01*
X26000044Y-20812897D01*
X25956816Y-20748202D01*
X25901798Y-20693184D01*
X25837103Y-20649956D01*
X25765217Y-20620180D01*
X25688904Y-20605000D01*
X25611096Y-20605000D01*
X25534783Y-20620180D01*
X25462897Y-20649956D01*
X25398202Y-20693184D01*
X25343184Y-20748202D01*
X25299956Y-20812897D01*
X25270180Y-20884783D01*
X25255000Y-20961096D01*
X23969550Y-20961096D01*
X23938904Y-20955000D01*
X23861096Y-20955000D01*
X23784783Y-20970180D01*
X23712897Y-20999956D01*
X23648202Y-21043184D01*
X23593184Y-21098202D01*
X23549956Y-21162897D01*
X23520180Y-21234783D01*
X23505000Y-21311096D01*
X22649846Y-21311096D01*
X22692599Y-21288245D01*
X22745132Y-21245132D01*
X22755938Y-21231965D01*
X23384648Y-20603256D01*
X23397804Y-20592459D01*
X23408602Y-20579302D01*
X23408607Y-20579297D01*
X23440918Y-20539926D01*
X23472952Y-20479992D01*
X23472953Y-20479991D01*
X23492681Y-20414959D01*
X23497673Y-20364273D01*
X23497673Y-20364266D01*
X23499341Y-20347328D01*
X23497673Y-20330390D01*
X23497673Y-19547325D01*
X23502717Y-19539776D01*
X23532493Y-19467890D01*
X23543790Y-19411096D01*
X25655000Y-19411096D01*
X25655000Y-19488904D01*
X25670180Y-19565217D01*
X25699956Y-19637103D01*
X25743184Y-19701798D01*
X25798202Y-19756816D01*
X25862897Y-19800044D01*
X25934783Y-19829820D01*
X26011096Y-19845000D01*
X26088904Y-19845000D01*
X26165217Y-19829820D01*
X26237103Y-19800044D01*
X26301798Y-19756816D01*
X26356816Y-19701798D01*
X26400044Y-19637103D01*
X26429820Y-19565217D01*
X26445000Y-19488904D01*
X26445000Y-19411096D01*
X26429820Y-19334783D01*
X26400044Y-19262897D01*
X26356816Y-19198202D01*
X26301798Y-19143184D01*
X26237103Y-19099956D01*
X26165217Y-19070180D01*
X26088904Y-19055000D01*
X26011096Y-19055000D01*
X25934783Y-19070180D01*
X25862897Y-19099956D01*
X25798202Y-19143184D01*
X25743184Y-19198202D01*
X25699956Y-19262897D01*
X25670180Y-19334783D01*
X25655000Y-19411096D01*
X23543790Y-19411096D01*
X23547673Y-19391577D01*
X23547673Y-19313769D01*
X23532493Y-19237456D01*
X23502717Y-19165570D01*
X23459489Y-19100875D01*
X23404471Y-19045857D01*
X23339776Y-19002629D01*
X23267890Y-18972853D01*
X23191577Y-18957673D01*
X23113769Y-18957673D01*
X23037456Y-18972853D01*
X22965570Y-19002629D01*
X22900875Y-19045857D01*
X22845857Y-19100875D01*
X22802629Y-19165570D01*
X22788108Y-19200627D01*
X22787103Y-19199956D01*
X22715217Y-19170180D01*
X22639718Y-19155162D01*
X22640890Y-19155162D01*
X22717203Y-19139982D01*
X22789089Y-19110206D01*
X22853784Y-19066978D01*
X22908802Y-19011960D01*
X22952030Y-18947265D01*
X22981806Y-18875379D01*
X22996986Y-18799066D01*
X22996986Y-18721258D01*
X22981806Y-18644945D01*
X22952030Y-18573059D01*
X22908802Y-18508364D01*
X22853784Y-18453346D01*
X22839101Y-18443535D01*
X22850044Y-18427158D01*
X22856697Y-18411096D01*
X25655000Y-18411096D01*
X25655000Y-18488904D01*
X25670180Y-18565217D01*
X25699956Y-18637103D01*
X25743184Y-18701798D01*
X25798202Y-18756816D01*
X25862897Y-18800044D01*
X25934783Y-18829820D01*
X26011096Y-18845000D01*
X26088904Y-18845000D01*
X26165217Y-18829820D01*
X26237103Y-18800044D01*
X26301798Y-18756816D01*
X26356816Y-18701798D01*
X26400044Y-18637103D01*
X26429820Y-18565217D01*
X26445000Y-18488904D01*
X26445000Y-18411096D01*
X26429820Y-18334783D01*
X26400044Y-18262897D01*
X26356816Y-18198202D01*
X26301798Y-18143184D01*
X26237103Y-18099956D01*
X26165217Y-18070180D01*
X26088904Y-18055000D01*
X26011096Y-18055000D01*
X25934783Y-18070180D01*
X25862897Y-18099956D01*
X25798202Y-18143184D01*
X25743184Y-18198202D01*
X25699956Y-18262897D01*
X25670180Y-18334783D01*
X25655000Y-18411096D01*
X22856697Y-18411096D01*
X22879820Y-18355272D01*
X22895000Y-18278959D01*
X22895000Y-18201151D01*
X22879820Y-18124838D01*
X22850044Y-18052952D01*
X22806816Y-17988257D01*
X22751798Y-17933239D01*
X22687103Y-17890011D01*
X22615217Y-17860235D01*
X22538904Y-17845055D01*
X22461096Y-17845055D01*
X22384783Y-17860235D01*
X22312897Y-17890011D01*
X22248202Y-17933239D01*
X22193184Y-17988257D01*
X22149956Y-18052952D01*
X22120180Y-18124838D01*
X22105000Y-18201151D01*
X22105000Y-18240000D01*
X17398614Y-18240000D01*
X17351798Y-18193184D01*
X17287103Y-18149956D01*
X17215217Y-18120180D01*
X17138904Y-18105000D01*
X17061096Y-18105000D01*
X17044183Y-18108364D01*
X18141451Y-17011096D01*
X24205000Y-17011096D01*
X24205000Y-17088904D01*
X24220180Y-17165217D01*
X24249956Y-17237103D01*
X24293184Y-17301798D01*
X24348202Y-17356816D01*
X24412897Y-17400044D01*
X24484783Y-17429820D01*
X24561096Y-17445000D01*
X24638904Y-17445000D01*
X24715217Y-17429820D01*
X24787103Y-17400044D01*
X24851798Y-17356816D01*
X24906816Y-17301798D01*
X24950044Y-17237103D01*
X24979820Y-17165217D01*
X24995000Y-17088904D01*
X24995000Y-17011096D01*
X24979820Y-16934783D01*
X24950044Y-16862897D01*
X24906816Y-16798202D01*
X24851798Y-16743184D01*
X24787103Y-16699956D01*
X24715217Y-16670180D01*
X24638904Y-16655000D01*
X24561096Y-16655000D01*
X24484783Y-16670180D01*
X24412897Y-16699956D01*
X24348202Y-16743184D01*
X24293184Y-16798202D01*
X24249956Y-16862897D01*
X24220180Y-16934783D01*
X24205000Y-17011096D01*
X18141451Y-17011096D01*
X18582548Y-16570000D01*
X25717933Y-16570000D01*
X25762897Y-16600044D01*
X25834783Y-16629820D01*
X25911096Y-16645000D01*
X25988904Y-16645000D01*
X26065217Y-16629820D01*
X26137103Y-16600044D01*
X26201798Y-16556816D01*
X26225000Y-16533614D01*
X26248202Y-16556816D01*
X26312897Y-16600044D01*
X26384783Y-16629820D01*
X26461096Y-16645000D01*
X26527306Y-16645000D01*
X38257121Y-28374816D01*
X38265263Y-28384737D01*
X38275184Y-28392879D01*
X38304852Y-28417228D01*
X38328995Y-28430132D01*
X38350021Y-28441371D01*
X38399031Y-28456238D01*
X38437227Y-28460000D01*
X38437236Y-28460000D01*
X38449999Y-28461257D01*
X38462762Y-28460000D01*
X38901386Y-28460000D01*
X38948202Y-28506816D01*
X39012897Y-28550044D01*
X39084783Y-28579820D01*
X39161096Y-28595000D01*
X39238904Y-28595000D01*
X39315217Y-28579820D01*
X39387103Y-28550044D01*
X39451798Y-28506816D01*
X39506816Y-28451798D01*
X39550044Y-28387103D01*
X39579820Y-28315217D01*
X39595000Y-28238904D01*
X39595000Y-28161096D01*
X39579820Y-28084783D01*
X39550044Y-28012897D01*
X39506816Y-27948202D01*
X39451798Y-27893184D01*
X39387103Y-27849956D01*
X39315217Y-27820180D01*
X39238904Y-27805000D01*
X39161096Y-27805000D01*
X39084783Y-27820180D01*
X39012897Y-27849956D01*
X38948202Y-27893184D01*
X38901386Y-27940000D01*
X38557695Y-27940000D01*
X37428791Y-26811096D01*
X38455000Y-26811096D01*
X38455000Y-26888904D01*
X38470180Y-26965217D01*
X38499956Y-27037103D01*
X38543184Y-27101798D01*
X38598202Y-27156816D01*
X38662897Y-27200044D01*
X38734783Y-27229820D01*
X38811096Y-27245000D01*
X38888904Y-27245000D01*
X38965217Y-27229820D01*
X39037103Y-27200044D01*
X39101798Y-27156816D01*
X39156816Y-27101798D01*
X39200044Y-27037103D01*
X39229820Y-26965217D01*
X39245000Y-26888904D01*
X39245000Y-26811096D01*
X39229820Y-26734783D01*
X39200044Y-26662897D01*
X39156816Y-26598202D01*
X39101798Y-26543184D01*
X39037103Y-26499956D01*
X38965217Y-26470180D01*
X38888904Y-26455000D01*
X38811096Y-26455000D01*
X38734783Y-26470180D01*
X38662897Y-26499956D01*
X38598202Y-26543184D01*
X38543184Y-26598202D01*
X38499956Y-26662897D01*
X38470180Y-26734783D01*
X38455000Y-26811096D01*
X37428791Y-26811096D01*
X34928791Y-24311096D01*
X36855000Y-24311096D01*
X36855000Y-24388904D01*
X36870180Y-24465217D01*
X36899956Y-24537103D01*
X36943184Y-24601798D01*
X36998202Y-24656816D01*
X37062897Y-24700044D01*
X37134783Y-24729820D01*
X37211096Y-24745000D01*
X37288904Y-24745000D01*
X37365217Y-24729820D01*
X37437103Y-24700044D01*
X37501798Y-24656816D01*
X37556816Y-24601798D01*
X37600044Y-24537103D01*
X37629820Y-24465217D01*
X37645000Y-24388904D01*
X37645000Y-24311096D01*
X37855000Y-24311096D01*
X37855000Y-24388904D01*
X37870180Y-24465217D01*
X37899956Y-24537103D01*
X37943184Y-24601798D01*
X37998202Y-24656816D01*
X38062897Y-24700044D01*
X38134783Y-24729820D01*
X38211096Y-24745000D01*
X38288904Y-24745000D01*
X38365217Y-24729820D01*
X38437103Y-24700044D01*
X38501798Y-24656816D01*
X38556816Y-24601798D01*
X38600044Y-24537103D01*
X38629820Y-24465217D01*
X38645000Y-24388904D01*
X38645000Y-24311096D01*
X38629820Y-24234783D01*
X38600044Y-24162897D01*
X38556816Y-24098202D01*
X38501798Y-24043184D01*
X38437103Y-23999956D01*
X38365217Y-23970180D01*
X38288904Y-23955000D01*
X38211096Y-23955000D01*
X38134783Y-23970180D01*
X38062897Y-23999956D01*
X37998202Y-24043184D01*
X37943184Y-24098202D01*
X37899956Y-24162897D01*
X37870180Y-24234783D01*
X37855000Y-24311096D01*
X37645000Y-24311096D01*
X37629820Y-24234783D01*
X37600044Y-24162897D01*
X37556816Y-24098202D01*
X37501798Y-24043184D01*
X37437103Y-23999956D01*
X37365217Y-23970180D01*
X37288904Y-23955000D01*
X37211096Y-23955000D01*
X37134783Y-23970180D01*
X37062897Y-23999956D01*
X36998202Y-24043184D01*
X36943184Y-24098202D01*
X36899956Y-24162897D01*
X36870180Y-24234783D01*
X36855000Y-24311096D01*
X34928791Y-24311096D01*
X33178791Y-22561096D01*
X33405000Y-22561096D01*
X33405000Y-22638904D01*
X33420180Y-22715217D01*
X33449956Y-22787103D01*
X33493184Y-22851798D01*
X33548202Y-22906816D01*
X33612897Y-22950044D01*
X33684783Y-22979820D01*
X33761096Y-22995000D01*
X33838904Y-22995000D01*
X33915217Y-22979820D01*
X33987103Y-22950044D01*
X34051798Y-22906816D01*
X34106816Y-22851798D01*
X34150044Y-22787103D01*
X34179820Y-22715217D01*
X34195000Y-22638904D01*
X34195000Y-22561096D01*
X34179820Y-22484783D01*
X34150044Y-22412897D01*
X34106816Y-22348202D01*
X34051798Y-22293184D01*
X33987103Y-22249956D01*
X33915217Y-22220180D01*
X33838904Y-22205000D01*
X33761096Y-22205000D01*
X33684783Y-22220180D01*
X33612897Y-22249956D01*
X33548202Y-22293184D01*
X33493184Y-22348202D01*
X33449956Y-22412897D01*
X33420180Y-22484783D01*
X33405000Y-22561096D01*
X33178791Y-22561096D01*
X28878791Y-18261096D01*
X32805000Y-18261096D01*
X32805000Y-18338904D01*
X32820180Y-18415217D01*
X32849956Y-18487103D01*
X32893184Y-18551798D01*
X32948202Y-18606816D01*
X33012897Y-18650044D01*
X33084783Y-18679820D01*
X33161096Y-18695000D01*
X33238904Y-18695000D01*
X33315217Y-18679820D01*
X33387103Y-18650044D01*
X33425838Y-18624162D01*
X33399956Y-18662897D01*
X33370180Y-18734783D01*
X33355000Y-18811096D01*
X33355000Y-18888904D01*
X33370180Y-18965217D01*
X33399956Y-19037103D01*
X33443184Y-19101798D01*
X33466386Y-19125000D01*
X33443184Y-19148202D01*
X33399956Y-19212897D01*
X33370180Y-19284783D01*
X33355000Y-19361096D01*
X33355000Y-19438904D01*
X33370180Y-19515217D01*
X33399956Y-19587103D01*
X33443184Y-19651798D01*
X33498202Y-19706816D01*
X33562897Y-19750044D01*
X33634783Y-19779820D01*
X33711096Y-19795000D01*
X33788904Y-19795000D01*
X33865217Y-19779820D01*
X33937103Y-19750044D01*
X34001798Y-19706816D01*
X34056816Y-19651798D01*
X34100044Y-19587103D01*
X34129820Y-19515217D01*
X34145000Y-19438904D01*
X34145000Y-19361096D01*
X34129820Y-19284783D01*
X34100044Y-19212897D01*
X34056816Y-19148202D01*
X34033614Y-19125000D01*
X34056816Y-19101798D01*
X34100044Y-19037103D01*
X34129820Y-18965217D01*
X34145000Y-18888904D01*
X34145000Y-18811096D01*
X34129820Y-18734783D01*
X34100044Y-18662897D01*
X34056816Y-18598202D01*
X34033614Y-18575000D01*
X34048614Y-18560000D01*
X34542306Y-18560000D01*
X41565000Y-25582696D01*
X41565001Y-27426385D01*
X41518184Y-27473202D01*
X41474956Y-27537897D01*
X41445180Y-27609783D01*
X41430000Y-27686096D01*
X41430000Y-27763904D01*
X41445180Y-27840217D01*
X41474956Y-27912103D01*
X41518184Y-27976798D01*
X41573202Y-28031816D01*
X41637897Y-28075044D01*
X41709783Y-28104820D01*
X41786096Y-28120000D01*
X41863904Y-28120000D01*
X41940217Y-28104820D01*
X42012103Y-28075044D01*
X42076798Y-28031816D01*
X42131816Y-27976798D01*
X42175044Y-27912103D01*
X42204820Y-27840217D01*
X42220000Y-27763904D01*
X42220000Y-27686096D01*
X42204820Y-27609783D01*
X42175044Y-27537897D01*
X42131816Y-27473202D01*
X42127210Y-27468596D01*
X42197500Y-27468596D01*
X42197500Y-27546404D01*
X42212680Y-27622717D01*
X42242456Y-27694603D01*
X42285684Y-27759298D01*
X42340702Y-27814316D01*
X42405397Y-27857544D01*
X42477283Y-27887320D01*
X42553596Y-27902500D01*
X42631404Y-27902500D01*
X42707717Y-27887320D01*
X42779603Y-27857544D01*
X42844298Y-27814316D01*
X42899316Y-27759298D01*
X42942544Y-27694603D01*
X42972320Y-27622717D01*
X42987500Y-27546404D01*
X42987500Y-27468596D01*
X42972320Y-27392283D01*
X42942544Y-27320397D01*
X42899316Y-27255702D01*
X42844298Y-27200684D01*
X42779603Y-27157456D01*
X42707717Y-27127680D01*
X42631404Y-27112500D01*
X42553596Y-27112500D01*
X42477283Y-27127680D01*
X42405397Y-27157456D01*
X42340702Y-27200684D01*
X42285684Y-27255702D01*
X42242456Y-27320397D01*
X42212680Y-27392283D01*
X42197500Y-27468596D01*
X42127210Y-27468596D01*
X42085000Y-27426386D01*
X42085000Y-25487762D01*
X42086257Y-25474999D01*
X42085000Y-25462236D01*
X42085000Y-25462227D01*
X42081238Y-25424031D01*
X42066371Y-25375021D01*
X42042228Y-25329853D01*
X42019204Y-25301798D01*
X42017879Y-25300183D01*
X42017875Y-25300179D01*
X42009737Y-25290263D01*
X41999821Y-25282125D01*
X40303792Y-23586096D01*
X43605000Y-23586096D01*
X43605000Y-23663904D01*
X43620180Y-23740217D01*
X43649956Y-23812103D01*
X43693184Y-23876798D01*
X43748202Y-23931816D01*
X43812897Y-23975044D01*
X43884783Y-24004820D01*
X43961096Y-24020000D01*
X44038904Y-24020000D01*
X44115217Y-24004820D01*
X44187103Y-23975044D01*
X44251798Y-23931816D01*
X44306816Y-23876798D01*
X44350044Y-23812103D01*
X44379820Y-23740217D01*
X44395000Y-23663904D01*
X44395000Y-23586096D01*
X44379820Y-23509783D01*
X44350044Y-23437897D01*
X44306816Y-23373202D01*
X44251798Y-23318184D01*
X44187103Y-23274956D01*
X44115217Y-23245180D01*
X44038904Y-23230000D01*
X43961096Y-23230000D01*
X43884783Y-23245180D01*
X43812897Y-23274956D01*
X43748202Y-23318184D01*
X43693184Y-23373202D01*
X43649956Y-23437897D01*
X43620180Y-23509783D01*
X43605000Y-23586096D01*
X40303792Y-23586096D01*
X39178792Y-22461096D01*
X40505000Y-22461096D01*
X40505000Y-22538904D01*
X40520180Y-22615217D01*
X40549956Y-22687103D01*
X40593184Y-22751798D01*
X40648202Y-22806816D01*
X40712897Y-22850044D01*
X40784783Y-22879820D01*
X40861096Y-22895000D01*
X40931213Y-22895000D01*
X40945180Y-22965217D01*
X40974956Y-23037103D01*
X41018184Y-23101798D01*
X41073202Y-23156816D01*
X41137897Y-23200044D01*
X41209783Y-23229820D01*
X41286096Y-23245000D01*
X41363904Y-23245000D01*
X41440217Y-23229820D01*
X41512103Y-23200044D01*
X41576798Y-23156816D01*
X41631816Y-23101798D01*
X41675044Y-23037103D01*
X41704820Y-22965217D01*
X41720000Y-22888904D01*
X41720000Y-22811096D01*
X41704820Y-22734783D01*
X41675044Y-22662897D01*
X41631816Y-22598202D01*
X41576798Y-22543184D01*
X41512103Y-22499956D01*
X41440217Y-22470180D01*
X41363904Y-22455000D01*
X41293787Y-22455000D01*
X41279820Y-22384783D01*
X41250044Y-22312897D01*
X41206816Y-22248202D01*
X41151798Y-22193184D01*
X41087103Y-22149956D01*
X41015217Y-22120180D01*
X40938904Y-22105000D01*
X40861096Y-22105000D01*
X40784783Y-22120180D01*
X40712897Y-22149956D01*
X40648202Y-22193184D01*
X40593184Y-22248202D01*
X40549956Y-22312897D01*
X40520180Y-22384783D01*
X40505000Y-22461096D01*
X39178792Y-22461096D01*
X34842884Y-18125190D01*
X34834737Y-18115263D01*
X34829660Y-18111096D01*
X40955000Y-18111096D01*
X40955000Y-18188904D01*
X40970180Y-18265217D01*
X40999956Y-18337103D01*
X41043184Y-18401798D01*
X41098202Y-18456816D01*
X41162897Y-18500044D01*
X41234783Y-18529820D01*
X41311096Y-18545000D01*
X41388904Y-18545000D01*
X41465217Y-18529820D01*
X41537103Y-18500044D01*
X41601798Y-18456816D01*
X41656816Y-18401798D01*
X41700044Y-18337103D01*
X41729820Y-18265217D01*
X41745000Y-18188904D01*
X41745000Y-18111096D01*
X41729820Y-18034783D01*
X41700044Y-17962897D01*
X41656816Y-17898202D01*
X41601798Y-17843184D01*
X41537103Y-17799956D01*
X41465217Y-17770180D01*
X41388904Y-17755000D01*
X41311096Y-17755000D01*
X41234783Y-17770180D01*
X41162897Y-17799956D01*
X41098202Y-17843184D01*
X41043184Y-17898202D01*
X40999956Y-17962897D01*
X40970180Y-18034783D01*
X40955000Y-18111096D01*
X34829660Y-18111096D01*
X34795147Y-18082772D01*
X34749979Y-18058629D01*
X34700969Y-18043762D01*
X34662773Y-18040000D01*
X34662762Y-18040000D01*
X34650000Y-18038743D01*
X34637238Y-18040000D01*
X34048614Y-18040000D01*
X34001798Y-17993184D01*
X33937103Y-17949956D01*
X33865217Y-17920180D01*
X33788904Y-17905000D01*
X33711096Y-17905000D01*
X33634783Y-17920180D01*
X33562897Y-17949956D01*
X33498202Y-17993184D01*
X33475000Y-18016386D01*
X33451798Y-17993184D01*
X33387103Y-17949956D01*
X33315217Y-17920180D01*
X33238904Y-17905000D01*
X33161096Y-17905000D01*
X33084783Y-17920180D01*
X33012897Y-17949956D01*
X32948202Y-17993184D01*
X32893184Y-18048202D01*
X32849956Y-18112897D01*
X32820180Y-18184783D01*
X32805000Y-18261096D01*
X28878791Y-18261096D01*
X27578791Y-16961096D01*
X35505000Y-16961096D01*
X35505000Y-17038904D01*
X35520180Y-17115217D01*
X35549956Y-17187103D01*
X35593184Y-17251798D01*
X35648202Y-17306816D01*
X35712897Y-17350044D01*
X35784783Y-17379820D01*
X35861096Y-17395000D01*
X35938904Y-17395000D01*
X36015217Y-17379820D01*
X36087103Y-17350044D01*
X36151798Y-17306816D01*
X36206816Y-17251798D01*
X36250044Y-17187103D01*
X36279820Y-17115217D01*
X36295000Y-17038904D01*
X36295000Y-17011096D01*
X41080000Y-17011096D01*
X41080000Y-17088904D01*
X41095180Y-17165217D01*
X41124956Y-17237103D01*
X41168184Y-17301798D01*
X41223202Y-17356816D01*
X41287897Y-17400044D01*
X41359783Y-17429820D01*
X41436096Y-17445000D01*
X41513904Y-17445000D01*
X41590217Y-17429820D01*
X41662103Y-17400044D01*
X41726798Y-17356816D01*
X41781816Y-17301798D01*
X41825044Y-17237103D01*
X41854820Y-17165217D01*
X41870000Y-17088904D01*
X41870000Y-17011096D01*
X41854820Y-16934783D01*
X41825044Y-16862897D01*
X41781816Y-16798202D01*
X41726798Y-16743184D01*
X41662103Y-16699956D01*
X41590217Y-16670180D01*
X41513904Y-16655000D01*
X41436096Y-16655000D01*
X41359783Y-16670180D01*
X41287897Y-16699956D01*
X41223202Y-16743184D01*
X41168184Y-16798202D01*
X41124956Y-16862897D01*
X41095180Y-16934783D01*
X41080000Y-17011096D01*
X36295000Y-17011096D01*
X36295000Y-16961096D01*
X36279820Y-16884783D01*
X36250044Y-16812897D01*
X36206816Y-16748202D01*
X36151798Y-16693184D01*
X36087103Y-16649956D01*
X36015217Y-16620180D01*
X35938904Y-16605000D01*
X35861096Y-16605000D01*
X35784783Y-16620180D01*
X35712897Y-16649956D01*
X35648202Y-16693184D01*
X35593184Y-16748202D01*
X35549956Y-16812897D01*
X35520180Y-16884783D01*
X35505000Y-16961096D01*
X27578791Y-16961096D01*
X26928791Y-16311096D01*
X37055000Y-16311096D01*
X37055000Y-16388904D01*
X37070180Y-16465217D01*
X37099956Y-16537103D01*
X37143184Y-16601798D01*
X37198202Y-16656816D01*
X37262897Y-16700044D01*
X37334783Y-16729820D01*
X37411096Y-16745000D01*
X37488904Y-16745000D01*
X37565217Y-16729820D01*
X37637103Y-16700044D01*
X37701798Y-16656816D01*
X37756816Y-16601798D01*
X37800044Y-16537103D01*
X37821171Y-16486096D01*
X38630000Y-16486096D01*
X38630000Y-16563904D01*
X38645180Y-16640217D01*
X38674956Y-16712103D01*
X38718184Y-16776798D01*
X38773202Y-16831816D01*
X38837897Y-16875044D01*
X38909783Y-16904820D01*
X38986096Y-16920000D01*
X39063904Y-16920000D01*
X39140217Y-16904820D01*
X39212103Y-16875044D01*
X39276798Y-16831816D01*
X39331816Y-16776798D01*
X39375044Y-16712103D01*
X39404820Y-16640217D01*
X39420000Y-16563904D01*
X39420000Y-16486096D01*
X39404820Y-16409783D01*
X39375044Y-16337897D01*
X39331816Y-16273202D01*
X39276798Y-16218184D01*
X39212103Y-16174956D01*
X39140217Y-16145180D01*
X39063904Y-16130000D01*
X38986096Y-16130000D01*
X38909783Y-16145180D01*
X38837897Y-16174956D01*
X38773202Y-16218184D01*
X38718184Y-16273202D01*
X38674956Y-16337897D01*
X38645180Y-16409783D01*
X38630000Y-16486096D01*
X37821171Y-16486096D01*
X37829820Y-16465217D01*
X37845000Y-16388904D01*
X37845000Y-16311096D01*
X37829820Y-16234783D01*
X37800044Y-16162897D01*
X37756816Y-16098202D01*
X37701798Y-16043184D01*
X37637103Y-15999956D01*
X37565217Y-15970180D01*
X37488904Y-15955000D01*
X37411096Y-15955000D01*
X37334783Y-15970180D01*
X37262897Y-15999956D01*
X37198202Y-16043184D01*
X37143184Y-16098202D01*
X37099956Y-16162897D01*
X37070180Y-16234783D01*
X37055000Y-16311096D01*
X26928791Y-16311096D01*
X26895000Y-16277306D01*
X26895000Y-16211096D01*
X26879820Y-16134783D01*
X26850044Y-16062897D01*
X26806816Y-15998202D01*
X26751798Y-15943184D01*
X26687103Y-15899956D01*
X26615217Y-15870180D01*
X26538904Y-15855000D01*
X26461096Y-15855000D01*
X26384783Y-15870180D01*
X26312897Y-15899956D01*
X26248202Y-15943184D01*
X26225000Y-15966386D01*
X26201798Y-15943184D01*
X26137103Y-15899956D01*
X26065217Y-15870180D01*
X25988904Y-15855000D01*
X25911096Y-15855000D01*
X25834783Y-15870180D01*
X25762897Y-15899956D01*
X25717933Y-15930000D01*
X18465712Y-15930000D01*
X18449999Y-15928452D01*
X18434286Y-15930000D01*
X18434282Y-15930000D01*
X18387269Y-15934630D01*
X18326949Y-15952928D01*
X18323073Y-15955000D01*
X18271357Y-15982643D01*
X18250261Y-15999956D01*
X18222631Y-16022631D01*
X18212610Y-16034842D01*
X16234848Y-18012605D01*
X16222631Y-18022631D01*
X16196318Y-18054695D01*
X16182643Y-18071358D01*
X16176542Y-18082772D01*
X16152928Y-18126950D01*
X16134630Y-18187270D01*
X16130000Y-18234282D01*
X16128452Y-18250000D01*
X16130000Y-18265713D01*
X16130000Y-18467933D01*
X16099956Y-18512897D01*
X16070180Y-18584783D01*
X16055000Y-18661096D01*
X16055000Y-18738904D01*
X16070180Y-18815217D01*
X16099956Y-18887103D01*
X16143184Y-18951798D01*
X16198202Y-19006816D01*
X16262897Y-19050044D01*
X16334783Y-19079820D01*
X16411096Y-19095000D01*
X16488904Y-19095000D01*
X16565217Y-19079820D01*
X16637103Y-19050044D01*
X16701798Y-19006816D01*
X16756816Y-18951798D01*
X16800044Y-18887103D01*
X16829820Y-18815217D01*
X16834264Y-18792878D01*
X16848202Y-18806816D01*
X16912897Y-18850044D01*
X16984783Y-18879820D01*
X17061096Y-18895000D01*
X17138904Y-18895000D01*
X17215217Y-18879820D01*
X17287103Y-18850044D01*
X17351798Y-18806816D01*
X17398614Y-18760000D01*
X22206986Y-18760000D01*
X22206986Y-18799066D01*
X22222166Y-18875379D01*
X22251942Y-18947265D01*
X22295170Y-19011960D01*
X22350188Y-19066978D01*
X22414883Y-19110206D01*
X22486769Y-19139982D01*
X22562268Y-19155000D01*
X22561096Y-19155000D01*
X22484783Y-19170180D01*
X22412897Y-19199956D01*
X22348202Y-19243184D01*
X22293184Y-19298202D01*
X22249956Y-19362897D01*
X22220180Y-19434783D01*
X22205000Y-19511096D01*
X22205000Y-19588904D01*
X22220180Y-19665217D01*
X22249956Y-19737103D01*
X22293184Y-19801798D01*
X22348202Y-19856816D01*
X22412897Y-19900044D01*
X22484783Y-19929820D01*
X22561096Y-19945000D01*
X22638904Y-19945000D01*
X22715217Y-19929820D01*
X22787103Y-19900044D01*
X22807673Y-19886299D01*
X22807673Y-20204423D01*
X22357097Y-20655000D01*
X21006565Y-20655000D01*
X20989629Y-20653332D01*
X20972693Y-20655000D01*
X20972684Y-20655000D01*
X20921998Y-20659992D01*
X20856966Y-20679720D01*
X20797031Y-20711755D01*
X20744498Y-20754868D01*
X20733697Y-20768029D01*
X15916125Y-25585602D01*
X15902964Y-25596403D01*
X15892163Y-25609564D01*
X15892161Y-25609566D01*
X15859850Y-25648937D01*
X15827816Y-25708871D01*
X15808087Y-25773904D01*
X15801427Y-25841535D01*
X15615000Y-25841535D01*
X15615000Y-21761096D01*
X18605000Y-21761096D01*
X18605000Y-21838904D01*
X18620180Y-21915217D01*
X18649956Y-21987103D01*
X18693184Y-22051798D01*
X18748202Y-22106816D01*
X18812897Y-22150044D01*
X18884783Y-22179820D01*
X18961096Y-22195000D01*
X19038904Y-22195000D01*
X19115217Y-22179820D01*
X19187103Y-22150044D01*
X19251798Y-22106816D01*
X19306816Y-22051798D01*
X19350044Y-21987103D01*
X19379820Y-21915217D01*
X19395000Y-21838904D01*
X19395000Y-21761096D01*
X19379820Y-21684783D01*
X19350044Y-21612897D01*
X19306816Y-21548202D01*
X19251798Y-21493184D01*
X19187103Y-21449956D01*
X19115217Y-21420180D01*
X19038904Y-21405000D01*
X18961096Y-21405000D01*
X18884783Y-21420180D01*
X18812897Y-21449956D01*
X18748202Y-21493184D01*
X18693184Y-21548202D01*
X18649956Y-21612897D01*
X18620180Y-21684783D01*
X18605000Y-21761096D01*
X15615000Y-21761096D01*
X15615000Y-20461096D01*
X18405000Y-20461096D01*
X18405000Y-20538904D01*
X18420180Y-20615217D01*
X18449956Y-20687103D01*
X18493184Y-20751798D01*
X18548202Y-20806816D01*
X18612897Y-20850044D01*
X18684783Y-20879820D01*
X18761096Y-20895000D01*
X18838904Y-20895000D01*
X18915217Y-20879820D01*
X18987103Y-20850044D01*
X19051798Y-20806816D01*
X19106816Y-20751798D01*
X19150044Y-20687103D01*
X19179820Y-20615217D01*
X19195000Y-20538904D01*
X19195000Y-20461096D01*
X19179820Y-20384783D01*
X19150044Y-20312897D01*
X19106816Y-20248202D01*
X19051798Y-20193184D01*
X18987103Y-20149956D01*
X18915217Y-20120180D01*
X18838904Y-20105000D01*
X18761096Y-20105000D01*
X18684783Y-20120180D01*
X18612897Y-20149956D01*
X18548202Y-20193184D01*
X18493184Y-20248202D01*
X18449956Y-20312897D01*
X18420180Y-20384783D01*
X18405000Y-20461096D01*
X15615000Y-20461096D01*
X15615000Y-15565000D01*
X44485000Y-15565000D01*
X44485000Y-20870137D01*
G37*
X44485000Y-20870137D02*
X44484783Y-20870180D01*
X44412897Y-20899956D01*
X44348202Y-20943184D01*
X44293184Y-20998202D01*
X44249956Y-21062897D01*
X44220180Y-21134783D01*
X44205000Y-21211096D01*
X44205000Y-21288904D01*
X44220180Y-21365217D01*
X44249956Y-21437103D01*
X44293184Y-21501798D01*
X44348202Y-21556816D01*
X44412897Y-21600044D01*
X44484783Y-21629820D01*
X44485000Y-21629863D01*
X44485000Y-24145137D01*
X44484783Y-24145180D01*
X44412897Y-24174956D01*
X44348202Y-24218184D01*
X44293184Y-24273202D01*
X44249956Y-24337897D01*
X44220180Y-24409783D01*
X44205000Y-24486096D01*
X44205000Y-24563904D01*
X44220180Y-24640217D01*
X44249956Y-24712103D01*
X44293184Y-24776798D01*
X44348202Y-24831816D01*
X44412897Y-24875044D01*
X44484783Y-24904820D01*
X44485000Y-24904863D01*
X44485000Y-29435000D01*
X19732694Y-29435000D01*
X20606598Y-28561096D01*
X26105000Y-28561096D01*
X26105000Y-28638904D01*
X26120180Y-28715217D01*
X26149956Y-28787103D01*
X26193184Y-28851798D01*
X26248202Y-28906816D01*
X26312897Y-28950044D01*
X26384783Y-28979820D01*
X26461096Y-28995000D01*
X26538904Y-28995000D01*
X26615217Y-28979820D01*
X26687103Y-28950044D01*
X26751798Y-28906816D01*
X26806816Y-28851798D01*
X26850044Y-28787103D01*
X26879820Y-28715217D01*
X26895000Y-28638904D01*
X26895000Y-28561096D01*
X26879820Y-28484783D01*
X26850044Y-28412897D01*
X26806816Y-28348202D01*
X26751798Y-28293184D01*
X26687103Y-28249956D01*
X26615217Y-28220180D01*
X26538904Y-28205000D01*
X26461096Y-28205000D01*
X26384783Y-28220180D01*
X26312897Y-28249956D01*
X26248202Y-28293184D01*
X26193184Y-28348202D01*
X26149956Y-28412897D01*
X26120180Y-28484783D01*
X26105000Y-28561096D01*
X20606598Y-28561096D01*
X21206598Y-27961096D01*
X23955000Y-27961096D01*
X23955000Y-28038904D01*
X23970180Y-28115217D01*
X23999956Y-28187103D01*
X24043184Y-28251798D01*
X24098202Y-28306816D01*
X24162897Y-28350044D01*
X24234783Y-28379820D01*
X24311096Y-28395000D01*
X24388904Y-28395000D01*
X24465217Y-28379820D01*
X24537103Y-28350044D01*
X24601798Y-28306816D01*
X24656816Y-28251798D01*
X24700044Y-28187103D01*
X24729820Y-28115217D01*
X24745000Y-28038904D01*
X24745000Y-27961096D01*
X24729820Y-27884783D01*
X24700044Y-27812897D01*
X24656816Y-27748202D01*
X24601798Y-27693184D01*
X24537103Y-27649956D01*
X24465217Y-27620180D01*
X24388904Y-27605000D01*
X24311096Y-27605000D01*
X24234783Y-27620180D01*
X24162897Y-27649956D01*
X24098202Y-27693184D01*
X24043184Y-27748202D01*
X23999956Y-27812897D01*
X23970180Y-27884783D01*
X23955000Y-27961096D01*
X21206598Y-27961096D01*
X24217018Y-24950678D01*
X24205000Y-25011096D01*
X24205000Y-25088904D01*
X24220180Y-25165217D01*
X24249956Y-25237103D01*
X24293184Y-25301798D01*
X24348202Y-25356816D01*
X24412897Y-25400044D01*
X24484783Y-25429820D01*
X24561096Y-25445000D01*
X24638904Y-25445000D01*
X24715217Y-25429820D01*
X24787103Y-25400044D01*
X24851798Y-25356816D01*
X24906816Y-25301798D01*
X24950044Y-25237103D01*
X24979820Y-25165217D01*
X24995000Y-25088904D01*
X24995000Y-25011096D01*
X24979820Y-24934783D01*
X24950044Y-24862897D01*
X24906816Y-24798202D01*
X24851798Y-24743184D01*
X24787103Y-24699956D01*
X24715217Y-24670180D01*
X24664040Y-24660000D01*
X29087238Y-24660000D01*
X29100000Y-24661257D01*
X29112762Y-24660000D01*
X29112773Y-24660000D01*
X29150969Y-24656238D01*
X29199979Y-24641371D01*
X29245147Y-24617228D01*
X29284737Y-24584737D01*
X29292883Y-24574811D01*
X29474815Y-24392880D01*
X29484737Y-24384737D01*
X29517228Y-24345147D01*
X29527898Y-24325185D01*
X29541371Y-24299980D01*
X29556238Y-24250969D01*
X29556429Y-24249031D01*
X29560000Y-24212773D01*
X29560000Y-24212765D01*
X29561257Y-24200000D01*
X29561020Y-24197594D01*
X29600000Y-24158614D01*
X29648202Y-24206816D01*
X29712897Y-24250044D01*
X29784783Y-24279820D01*
X29861096Y-24295000D01*
X29938904Y-24295000D01*
X30015217Y-24279820D01*
X30087103Y-24250044D01*
X30151798Y-24206816D01*
X30200000Y-24158614D01*
X30248202Y-24206816D01*
X30312897Y-24250044D01*
X30384783Y-24279820D01*
X30461096Y-24295000D01*
X30538904Y-24295000D01*
X30615217Y-24279820D01*
X30687103Y-24250044D01*
X30751798Y-24206816D01*
X30806816Y-24151798D01*
X30850044Y-24087103D01*
X30879820Y-24015217D01*
X30895000Y-23938904D01*
X30895000Y-23861096D01*
X31299970Y-23861096D01*
X31299970Y-23938904D01*
X31315150Y-24015217D01*
X31344926Y-24087103D01*
X31388154Y-24151798D01*
X31443172Y-24206816D01*
X31507867Y-24250044D01*
X31579753Y-24279820D01*
X31656066Y-24295000D01*
X31733874Y-24295000D01*
X31810187Y-24279820D01*
X31882073Y-24250044D01*
X31946768Y-24206816D01*
X32001786Y-24151798D01*
X32045014Y-24087103D01*
X32074790Y-24015217D01*
X32089970Y-23938904D01*
X32089970Y-23861096D01*
X32074790Y-23784783D01*
X32045014Y-23712897D01*
X32001786Y-23648202D01*
X31946768Y-23593184D01*
X31882073Y-23549956D01*
X31810187Y-23520180D01*
X31733874Y-23505000D01*
X31656066Y-23505000D01*
X31579753Y-23520180D01*
X31507867Y-23549956D01*
X31443172Y-23593184D01*
X31388154Y-23648202D01*
X31344926Y-23712897D01*
X31315150Y-23784783D01*
X31299970Y-23861096D01*
X30895000Y-23861096D01*
X30879820Y-23784783D01*
X30850044Y-23712897D01*
X30806816Y-23648202D01*
X30751798Y-23593184D01*
X30687103Y-23549956D01*
X30615217Y-23520180D01*
X30538904Y-23505000D01*
X30472695Y-23505000D01*
X29842884Y-22875190D01*
X29834737Y-22865263D01*
X29795147Y-22832772D01*
X29749979Y-22808629D01*
X29700969Y-22793762D01*
X29662773Y-22790000D01*
X29662762Y-22790000D01*
X29650000Y-22788743D01*
X29637238Y-22790000D01*
X23262762Y-22790000D01*
X23250000Y-22788743D01*
X23237237Y-22790000D01*
X23237227Y-22790000D01*
X23199031Y-22793762D01*
X23150021Y-22808629D01*
X23145406Y-22811096D01*
X23104852Y-22832772D01*
X23083807Y-22850044D01*
X23065263Y-22865263D01*
X23057121Y-22875184D01*
X21825190Y-24107116D01*
X21815263Y-24115263D01*
X21782772Y-24154853D01*
X21758629Y-24200022D01*
X21743762Y-24249032D01*
X21740000Y-24287228D01*
X21740000Y-24287238D01*
X21738743Y-24300000D01*
X21740000Y-24312763D01*
X21740001Y-24687228D01*
X21738743Y-24700000D01*
X21740001Y-24712772D01*
X21740001Y-24712773D01*
X21743763Y-24750969D01*
X21745361Y-24756237D01*
X21758630Y-24799979D01*
X21782772Y-24845147D01*
X21797340Y-24862897D01*
X21815264Y-24884737D01*
X21825184Y-24892879D01*
X22057125Y-25124821D01*
X22065263Y-25134737D01*
X22075179Y-25142875D01*
X22075183Y-25142879D01*
X22099332Y-25162697D01*
X22104853Y-25167228D01*
X22150021Y-25191371D01*
X22199031Y-25206238D01*
X22237227Y-25210000D01*
X22237236Y-25210000D01*
X22249999Y-25211257D01*
X22262762Y-25210000D01*
X22683783Y-25210000D01*
X19053784Y-28840000D01*
X18548614Y-28840000D01*
X18501798Y-28793184D01*
X18437103Y-28749956D01*
X18365217Y-28720180D01*
X18288904Y-28705000D01*
X18211096Y-28705000D01*
X18134783Y-28720180D01*
X18062897Y-28749956D01*
X17998202Y-28793184D01*
X17943184Y-28848202D01*
X17899956Y-28912897D01*
X17870180Y-28984783D01*
X17855000Y-29061096D01*
X17855000Y-29138904D01*
X17870180Y-29215217D01*
X17899956Y-29287103D01*
X17943184Y-29351798D01*
X17963880Y-29372494D01*
X17943184Y-29393190D01*
X17915247Y-29435000D01*
X15615000Y-29435000D01*
X15615000Y-25841535D01*
X15801427Y-25841535D01*
X15803096Y-25858483D01*
X15803095Y-26334164D01*
X15801427Y-26351103D01*
X15803095Y-26368041D01*
X15803095Y-26368048D01*
X15808087Y-26418734D01*
X15827815Y-26483766D01*
X15859850Y-26543701D01*
X15902963Y-26596234D01*
X15916126Y-26607037D01*
X15966503Y-26657414D01*
X15968274Y-26666319D01*
X15998050Y-26738205D01*
X16041278Y-26802900D01*
X16096296Y-26857918D01*
X16160991Y-26901146D01*
X16232877Y-26930922D01*
X16309190Y-26946102D01*
X16386998Y-26946102D01*
X16463311Y-26930922D01*
X16535197Y-26901146D01*
X16599892Y-26857918D01*
X16654910Y-26802900D01*
X16698138Y-26738205D01*
X16727914Y-26666319D01*
X16743094Y-26590006D01*
X16743094Y-26512198D01*
X16739645Y-26494861D01*
X16815217Y-26479828D01*
X16887103Y-26450052D01*
X16951798Y-26406824D01*
X17006816Y-26351806D01*
X17050044Y-26287111D01*
X17079820Y-26215225D01*
X17095000Y-26138912D01*
X17095000Y-26061104D01*
X17090765Y-26039815D01*
X17094121Y-26039815D01*
X17170434Y-26024635D01*
X17242320Y-25994859D01*
X17307015Y-25951631D01*
X17362033Y-25896613D01*
X17405261Y-25831918D01*
X17435037Y-25760032D01*
X17450217Y-25683719D01*
X17450217Y-25605911D01*
X17435037Y-25529598D01*
X17405261Y-25457712D01*
X17362033Y-25393017D01*
X17307015Y-25337999D01*
X17242320Y-25294771D01*
X17200206Y-25277327D01*
X18605000Y-23872533D01*
X18605000Y-23938904D01*
X18620180Y-24015217D01*
X18649956Y-24087103D01*
X18693184Y-24151798D01*
X18748202Y-24206816D01*
X18812897Y-24250044D01*
X18884783Y-24279820D01*
X18961096Y-24295000D01*
X19038904Y-24295000D01*
X19115217Y-24279820D01*
X19187103Y-24250044D01*
X19251798Y-24206816D01*
X19306816Y-24151798D01*
X19350044Y-24087103D01*
X19379820Y-24015217D01*
X19395000Y-23938904D01*
X19395000Y-23861096D01*
X19379820Y-23784783D01*
X19350044Y-23712897D01*
X19306816Y-23648202D01*
X19251798Y-23593184D01*
X19187103Y-23549956D01*
X19115217Y-23520180D01*
X19038904Y-23505000D01*
X18972534Y-23505000D01*
X21132534Y-21345000D01*
X22483062Y-21345000D01*
X22500000Y-21346668D01*
X22516938Y-21345000D01*
X22516946Y-21345000D01*
X22567632Y-21340008D01*
X22632664Y-21320280D01*
X22649846Y-21311096D01*
X23505000Y-21311096D01*
X23505000Y-21388904D01*
X23520180Y-21465217D01*
X23549956Y-21537103D01*
X23593184Y-21601798D01*
X23648202Y-21656816D01*
X23712897Y-21700044D01*
X23774073Y-21725384D01*
X23770180Y-21734783D01*
X23755000Y-21811096D01*
X23755000Y-21888904D01*
X23770180Y-21965217D01*
X23799956Y-22037103D01*
X23843184Y-22101798D01*
X23898202Y-22156816D01*
X23962897Y-22200044D01*
X24034783Y-22229820D01*
X24111096Y-22245000D01*
X24188904Y-22245000D01*
X24265217Y-22229820D01*
X24337103Y-22200044D01*
X24401798Y-22156816D01*
X24456816Y-22101798D01*
X24500044Y-22037103D01*
X24529820Y-21965217D01*
X24545000Y-21888904D01*
X24545000Y-21811096D01*
X24529820Y-21734783D01*
X24500044Y-21662897D01*
X24456816Y-21598202D01*
X24401798Y-21543184D01*
X24337103Y-21499956D01*
X24275927Y-21474616D01*
X24279820Y-21465217D01*
X24291443Y-21406781D01*
X27600685Y-21406781D01*
X27600685Y-21484589D01*
X27615865Y-21560902D01*
X27645641Y-21632788D01*
X27688869Y-21697483D01*
X27743887Y-21752501D01*
X27808582Y-21795729D01*
X27880468Y-21825505D01*
X27956781Y-21840685D01*
X28034589Y-21840685D01*
X28110902Y-21825505D01*
X28182788Y-21795729D01*
X28247483Y-21752501D01*
X28270685Y-21729299D01*
X28298202Y-21756816D01*
X28362897Y-21800044D01*
X28434783Y-21829820D01*
X28511096Y-21845000D01*
X28588904Y-21845000D01*
X28665217Y-21829820D01*
X28737103Y-21800044D01*
X28801798Y-21756816D01*
X28856816Y-21701798D01*
X28900044Y-21637103D01*
X28929820Y-21565217D01*
X28945000Y-21488904D01*
X28945000Y-21411096D01*
X29805000Y-21411096D01*
X29805000Y-21488904D01*
X29820180Y-21565217D01*
X29849956Y-21637103D01*
X29893184Y-21701798D01*
X29948202Y-21756816D01*
X30012897Y-21800044D01*
X30084783Y-21829820D01*
X30161096Y-21845000D01*
X30238904Y-21845000D01*
X30315217Y-21829820D01*
X30387103Y-21800044D01*
X30451798Y-21756816D01*
X30506816Y-21701798D01*
X30550044Y-21637103D01*
X30579820Y-21565217D01*
X30595000Y-21488904D01*
X30595000Y-21411096D01*
X30579820Y-21334783D01*
X30550044Y-21262897D01*
X30506816Y-21198202D01*
X30451798Y-21143184D01*
X30387103Y-21099956D01*
X30315217Y-21070180D01*
X30238904Y-21055000D01*
X30161096Y-21055000D01*
X30084783Y-21070180D01*
X30012897Y-21099956D01*
X29948202Y-21143184D01*
X29893184Y-21198202D01*
X29849956Y-21262897D01*
X29820180Y-21334783D01*
X29805000Y-21411096D01*
X28945000Y-21411096D01*
X28929820Y-21334783D01*
X28900044Y-21262897D01*
X28856816Y-21198202D01*
X28801798Y-21143184D01*
X28737103Y-21099956D01*
X28665217Y-21070180D01*
X28588904Y-21055000D01*
X28511096Y-21055000D01*
X28434783Y-21070180D01*
X28362897Y-21099956D01*
X28298202Y-21143184D01*
X28275000Y-21166386D01*
X28247483Y-21138869D01*
X28182788Y-21095641D01*
X28110902Y-21065865D01*
X28034589Y-21050685D01*
X27956781Y-21050685D01*
X27880468Y-21065865D01*
X27808582Y-21095641D01*
X27743887Y-21138869D01*
X27688869Y-21193887D01*
X27645641Y-21258582D01*
X27615865Y-21330468D01*
X27600685Y-21406781D01*
X24291443Y-21406781D01*
X24295000Y-21388904D01*
X24295000Y-21311096D01*
X24279820Y-21234783D01*
X24250044Y-21162897D01*
X24206816Y-21098202D01*
X24151798Y-21043184D01*
X24087103Y-20999956D01*
X24015217Y-20970180D01*
X23969550Y-20961096D01*
X25255000Y-20961096D01*
X25255000Y-21038904D01*
X25270180Y-21115217D01*
X25299956Y-21187103D01*
X25343184Y-21251798D01*
X25398202Y-21306816D01*
X25462897Y-21350044D01*
X25534783Y-21379820D01*
X25611096Y-21395000D01*
X25688904Y-21395000D01*
X25765217Y-21379820D01*
X25837103Y-21350044D01*
X25901798Y-21306816D01*
X25956816Y-21251798D01*
X26000044Y-21187103D01*
X26029820Y-21115217D01*
X26045000Y-21038904D01*
X26045000Y-20961096D01*
X26029820Y-20884783D01*
X26000044Y-20812897D01*
X25956816Y-20748202D01*
X25901798Y-20693184D01*
X25837103Y-20649956D01*
X25765217Y-20620180D01*
X25688904Y-20605000D01*
X25611096Y-20605000D01*
X25534783Y-20620180D01*
X25462897Y-20649956D01*
X25398202Y-20693184D01*
X25343184Y-20748202D01*
X25299956Y-20812897D01*
X25270180Y-20884783D01*
X25255000Y-20961096D01*
X23969550Y-20961096D01*
X23938904Y-20955000D01*
X23861096Y-20955000D01*
X23784783Y-20970180D01*
X23712897Y-20999956D01*
X23648202Y-21043184D01*
X23593184Y-21098202D01*
X23549956Y-21162897D01*
X23520180Y-21234783D01*
X23505000Y-21311096D01*
X22649846Y-21311096D01*
X22692599Y-21288245D01*
X22745132Y-21245132D01*
X22755938Y-21231965D01*
X23384648Y-20603256D01*
X23397804Y-20592459D01*
X23408602Y-20579302D01*
X23408607Y-20579297D01*
X23440918Y-20539926D01*
X23472952Y-20479992D01*
X23472953Y-20479991D01*
X23492681Y-20414959D01*
X23497673Y-20364273D01*
X23497673Y-20364266D01*
X23499341Y-20347328D01*
X23497673Y-20330390D01*
X23497673Y-19547325D01*
X23502717Y-19539776D01*
X23532493Y-19467890D01*
X23543790Y-19411096D01*
X25655000Y-19411096D01*
X25655000Y-19488904D01*
X25670180Y-19565217D01*
X25699956Y-19637103D01*
X25743184Y-19701798D01*
X25798202Y-19756816D01*
X25862897Y-19800044D01*
X25934783Y-19829820D01*
X26011096Y-19845000D01*
X26088904Y-19845000D01*
X26165217Y-19829820D01*
X26237103Y-19800044D01*
X26301798Y-19756816D01*
X26356816Y-19701798D01*
X26400044Y-19637103D01*
X26429820Y-19565217D01*
X26445000Y-19488904D01*
X26445000Y-19411096D01*
X26429820Y-19334783D01*
X26400044Y-19262897D01*
X26356816Y-19198202D01*
X26301798Y-19143184D01*
X26237103Y-19099956D01*
X26165217Y-19070180D01*
X26088904Y-19055000D01*
X26011096Y-19055000D01*
X25934783Y-19070180D01*
X25862897Y-19099956D01*
X25798202Y-19143184D01*
X25743184Y-19198202D01*
X25699956Y-19262897D01*
X25670180Y-19334783D01*
X25655000Y-19411096D01*
X23543790Y-19411096D01*
X23547673Y-19391577D01*
X23547673Y-19313769D01*
X23532493Y-19237456D01*
X23502717Y-19165570D01*
X23459489Y-19100875D01*
X23404471Y-19045857D01*
X23339776Y-19002629D01*
X23267890Y-18972853D01*
X23191577Y-18957673D01*
X23113769Y-18957673D01*
X23037456Y-18972853D01*
X22965570Y-19002629D01*
X22900875Y-19045857D01*
X22845857Y-19100875D01*
X22802629Y-19165570D01*
X22788108Y-19200627D01*
X22787103Y-19199956D01*
X22715217Y-19170180D01*
X22639718Y-19155162D01*
X22640890Y-19155162D01*
X22717203Y-19139982D01*
X22789089Y-19110206D01*
X22853784Y-19066978D01*
X22908802Y-19011960D01*
X22952030Y-18947265D01*
X22981806Y-18875379D01*
X22996986Y-18799066D01*
X22996986Y-18721258D01*
X22981806Y-18644945D01*
X22952030Y-18573059D01*
X22908802Y-18508364D01*
X22853784Y-18453346D01*
X22839101Y-18443535D01*
X22850044Y-18427158D01*
X22856697Y-18411096D01*
X25655000Y-18411096D01*
X25655000Y-18488904D01*
X25670180Y-18565217D01*
X25699956Y-18637103D01*
X25743184Y-18701798D01*
X25798202Y-18756816D01*
X25862897Y-18800044D01*
X25934783Y-18829820D01*
X26011096Y-18845000D01*
X26088904Y-18845000D01*
X26165217Y-18829820D01*
X26237103Y-18800044D01*
X26301798Y-18756816D01*
X26356816Y-18701798D01*
X26400044Y-18637103D01*
X26429820Y-18565217D01*
X26445000Y-18488904D01*
X26445000Y-18411096D01*
X26429820Y-18334783D01*
X26400044Y-18262897D01*
X26356816Y-18198202D01*
X26301798Y-18143184D01*
X26237103Y-18099956D01*
X26165217Y-18070180D01*
X26088904Y-18055000D01*
X26011096Y-18055000D01*
X25934783Y-18070180D01*
X25862897Y-18099956D01*
X25798202Y-18143184D01*
X25743184Y-18198202D01*
X25699956Y-18262897D01*
X25670180Y-18334783D01*
X25655000Y-18411096D01*
X22856697Y-18411096D01*
X22879820Y-18355272D01*
X22895000Y-18278959D01*
X22895000Y-18201151D01*
X22879820Y-18124838D01*
X22850044Y-18052952D01*
X22806816Y-17988257D01*
X22751798Y-17933239D01*
X22687103Y-17890011D01*
X22615217Y-17860235D01*
X22538904Y-17845055D01*
X22461096Y-17845055D01*
X22384783Y-17860235D01*
X22312897Y-17890011D01*
X22248202Y-17933239D01*
X22193184Y-17988257D01*
X22149956Y-18052952D01*
X22120180Y-18124838D01*
X22105000Y-18201151D01*
X22105000Y-18240000D01*
X17398614Y-18240000D01*
X17351798Y-18193184D01*
X17287103Y-18149956D01*
X17215217Y-18120180D01*
X17138904Y-18105000D01*
X17061096Y-18105000D01*
X17044183Y-18108364D01*
X18141451Y-17011096D01*
X24205000Y-17011096D01*
X24205000Y-17088904D01*
X24220180Y-17165217D01*
X24249956Y-17237103D01*
X24293184Y-17301798D01*
X24348202Y-17356816D01*
X24412897Y-17400044D01*
X24484783Y-17429820D01*
X24561096Y-17445000D01*
X24638904Y-17445000D01*
X24715217Y-17429820D01*
X24787103Y-17400044D01*
X24851798Y-17356816D01*
X24906816Y-17301798D01*
X24950044Y-17237103D01*
X24979820Y-17165217D01*
X24995000Y-17088904D01*
X24995000Y-17011096D01*
X24979820Y-16934783D01*
X24950044Y-16862897D01*
X24906816Y-16798202D01*
X24851798Y-16743184D01*
X24787103Y-16699956D01*
X24715217Y-16670180D01*
X24638904Y-16655000D01*
X24561096Y-16655000D01*
X24484783Y-16670180D01*
X24412897Y-16699956D01*
X24348202Y-16743184D01*
X24293184Y-16798202D01*
X24249956Y-16862897D01*
X24220180Y-16934783D01*
X24205000Y-17011096D01*
X18141451Y-17011096D01*
X18582548Y-16570000D01*
X25717933Y-16570000D01*
X25762897Y-16600044D01*
X25834783Y-16629820D01*
X25911096Y-16645000D01*
X25988904Y-16645000D01*
X26065217Y-16629820D01*
X26137103Y-16600044D01*
X26201798Y-16556816D01*
X26225000Y-16533614D01*
X26248202Y-16556816D01*
X26312897Y-16600044D01*
X26384783Y-16629820D01*
X26461096Y-16645000D01*
X26527306Y-16645000D01*
X38257121Y-28374816D01*
X38265263Y-28384737D01*
X38275184Y-28392879D01*
X38304852Y-28417228D01*
X38328995Y-28430132D01*
X38350021Y-28441371D01*
X38399031Y-28456238D01*
X38437227Y-28460000D01*
X38437236Y-28460000D01*
X38449999Y-28461257D01*
X38462762Y-28460000D01*
X38901386Y-28460000D01*
X38948202Y-28506816D01*
X39012897Y-28550044D01*
X39084783Y-28579820D01*
X39161096Y-28595000D01*
X39238904Y-28595000D01*
X39315217Y-28579820D01*
X39387103Y-28550044D01*
X39451798Y-28506816D01*
X39506816Y-28451798D01*
X39550044Y-28387103D01*
X39579820Y-28315217D01*
X39595000Y-28238904D01*
X39595000Y-28161096D01*
X39579820Y-28084783D01*
X39550044Y-28012897D01*
X39506816Y-27948202D01*
X39451798Y-27893184D01*
X39387103Y-27849956D01*
X39315217Y-27820180D01*
X39238904Y-27805000D01*
X39161096Y-27805000D01*
X39084783Y-27820180D01*
X39012897Y-27849956D01*
X38948202Y-27893184D01*
X38901386Y-27940000D01*
X38557695Y-27940000D01*
X37428791Y-26811096D01*
X38455000Y-26811096D01*
X38455000Y-26888904D01*
X38470180Y-26965217D01*
X38499956Y-27037103D01*
X38543184Y-27101798D01*
X38598202Y-27156816D01*
X38662897Y-27200044D01*
X38734783Y-27229820D01*
X38811096Y-27245000D01*
X38888904Y-27245000D01*
X38965217Y-27229820D01*
X39037103Y-27200044D01*
X39101798Y-27156816D01*
X39156816Y-27101798D01*
X39200044Y-27037103D01*
X39229820Y-26965217D01*
X39245000Y-26888904D01*
X39245000Y-26811096D01*
X39229820Y-26734783D01*
X39200044Y-26662897D01*
X39156816Y-26598202D01*
X39101798Y-26543184D01*
X39037103Y-26499956D01*
X38965217Y-26470180D01*
X38888904Y-26455000D01*
X38811096Y-26455000D01*
X38734783Y-26470180D01*
X38662897Y-26499956D01*
X38598202Y-26543184D01*
X38543184Y-26598202D01*
X38499956Y-26662897D01*
X38470180Y-26734783D01*
X38455000Y-26811096D01*
X37428791Y-26811096D01*
X34928791Y-24311096D01*
X36855000Y-24311096D01*
X36855000Y-24388904D01*
X36870180Y-24465217D01*
X36899956Y-24537103D01*
X36943184Y-24601798D01*
X36998202Y-24656816D01*
X37062897Y-24700044D01*
X37134783Y-24729820D01*
X37211096Y-24745000D01*
X37288904Y-24745000D01*
X37365217Y-24729820D01*
X37437103Y-24700044D01*
X37501798Y-24656816D01*
X37556816Y-24601798D01*
X37600044Y-24537103D01*
X37629820Y-24465217D01*
X37645000Y-24388904D01*
X37645000Y-24311096D01*
X37855000Y-24311096D01*
X37855000Y-24388904D01*
X37870180Y-24465217D01*
X37899956Y-24537103D01*
X37943184Y-24601798D01*
X37998202Y-24656816D01*
X38062897Y-24700044D01*
X38134783Y-24729820D01*
X38211096Y-24745000D01*
X38288904Y-24745000D01*
X38365217Y-24729820D01*
X38437103Y-24700044D01*
X38501798Y-24656816D01*
X38556816Y-24601798D01*
X38600044Y-24537103D01*
X38629820Y-24465217D01*
X38645000Y-24388904D01*
X38645000Y-24311096D01*
X38629820Y-24234783D01*
X38600044Y-24162897D01*
X38556816Y-24098202D01*
X38501798Y-24043184D01*
X38437103Y-23999956D01*
X38365217Y-23970180D01*
X38288904Y-23955000D01*
X38211096Y-23955000D01*
X38134783Y-23970180D01*
X38062897Y-23999956D01*
X37998202Y-24043184D01*
X37943184Y-24098202D01*
X37899956Y-24162897D01*
X37870180Y-24234783D01*
X37855000Y-24311096D01*
X37645000Y-24311096D01*
X37629820Y-24234783D01*
X37600044Y-24162897D01*
X37556816Y-24098202D01*
X37501798Y-24043184D01*
X37437103Y-23999956D01*
X37365217Y-23970180D01*
X37288904Y-23955000D01*
X37211096Y-23955000D01*
X37134783Y-23970180D01*
X37062897Y-23999956D01*
X36998202Y-24043184D01*
X36943184Y-24098202D01*
X36899956Y-24162897D01*
X36870180Y-24234783D01*
X36855000Y-24311096D01*
X34928791Y-24311096D01*
X33178791Y-22561096D01*
X33405000Y-22561096D01*
X33405000Y-22638904D01*
X33420180Y-22715217D01*
X33449956Y-22787103D01*
X33493184Y-22851798D01*
X33548202Y-22906816D01*
X33612897Y-22950044D01*
X33684783Y-22979820D01*
X33761096Y-22995000D01*
X33838904Y-22995000D01*
X33915217Y-22979820D01*
X33987103Y-22950044D01*
X34051798Y-22906816D01*
X34106816Y-22851798D01*
X34150044Y-22787103D01*
X34179820Y-22715217D01*
X34195000Y-22638904D01*
X34195000Y-22561096D01*
X34179820Y-22484783D01*
X34150044Y-22412897D01*
X34106816Y-22348202D01*
X34051798Y-22293184D01*
X33987103Y-22249956D01*
X33915217Y-22220180D01*
X33838904Y-22205000D01*
X33761096Y-22205000D01*
X33684783Y-22220180D01*
X33612897Y-22249956D01*
X33548202Y-22293184D01*
X33493184Y-22348202D01*
X33449956Y-22412897D01*
X33420180Y-22484783D01*
X33405000Y-22561096D01*
X33178791Y-22561096D01*
X28878791Y-18261096D01*
X32805000Y-18261096D01*
X32805000Y-18338904D01*
X32820180Y-18415217D01*
X32849956Y-18487103D01*
X32893184Y-18551798D01*
X32948202Y-18606816D01*
X33012897Y-18650044D01*
X33084783Y-18679820D01*
X33161096Y-18695000D01*
X33238904Y-18695000D01*
X33315217Y-18679820D01*
X33387103Y-18650044D01*
X33425838Y-18624162D01*
X33399956Y-18662897D01*
X33370180Y-18734783D01*
X33355000Y-18811096D01*
X33355000Y-18888904D01*
X33370180Y-18965217D01*
X33399956Y-19037103D01*
X33443184Y-19101798D01*
X33466386Y-19125000D01*
X33443184Y-19148202D01*
X33399956Y-19212897D01*
X33370180Y-19284783D01*
X33355000Y-19361096D01*
X33355000Y-19438904D01*
X33370180Y-19515217D01*
X33399956Y-19587103D01*
X33443184Y-19651798D01*
X33498202Y-19706816D01*
X33562897Y-19750044D01*
X33634783Y-19779820D01*
X33711096Y-19795000D01*
X33788904Y-19795000D01*
X33865217Y-19779820D01*
X33937103Y-19750044D01*
X34001798Y-19706816D01*
X34056816Y-19651798D01*
X34100044Y-19587103D01*
X34129820Y-19515217D01*
X34145000Y-19438904D01*
X34145000Y-19361096D01*
X34129820Y-19284783D01*
X34100044Y-19212897D01*
X34056816Y-19148202D01*
X34033614Y-19125000D01*
X34056816Y-19101798D01*
X34100044Y-19037103D01*
X34129820Y-18965217D01*
X34145000Y-18888904D01*
X34145000Y-18811096D01*
X34129820Y-18734783D01*
X34100044Y-18662897D01*
X34056816Y-18598202D01*
X34033614Y-18575000D01*
X34048614Y-18560000D01*
X34542306Y-18560000D01*
X41565000Y-25582696D01*
X41565001Y-27426385D01*
X41518184Y-27473202D01*
X41474956Y-27537897D01*
X41445180Y-27609783D01*
X41430000Y-27686096D01*
X41430000Y-27763904D01*
X41445180Y-27840217D01*
X41474956Y-27912103D01*
X41518184Y-27976798D01*
X41573202Y-28031816D01*
X41637897Y-28075044D01*
X41709783Y-28104820D01*
X41786096Y-28120000D01*
X41863904Y-28120000D01*
X41940217Y-28104820D01*
X42012103Y-28075044D01*
X42076798Y-28031816D01*
X42131816Y-27976798D01*
X42175044Y-27912103D01*
X42204820Y-27840217D01*
X42220000Y-27763904D01*
X42220000Y-27686096D01*
X42204820Y-27609783D01*
X42175044Y-27537897D01*
X42131816Y-27473202D01*
X42127210Y-27468596D01*
X42197500Y-27468596D01*
X42197500Y-27546404D01*
X42212680Y-27622717D01*
X42242456Y-27694603D01*
X42285684Y-27759298D01*
X42340702Y-27814316D01*
X42405397Y-27857544D01*
X42477283Y-27887320D01*
X42553596Y-27902500D01*
X42631404Y-27902500D01*
X42707717Y-27887320D01*
X42779603Y-27857544D01*
X42844298Y-27814316D01*
X42899316Y-27759298D01*
X42942544Y-27694603D01*
X42972320Y-27622717D01*
X42987500Y-27546404D01*
X42987500Y-27468596D01*
X42972320Y-27392283D01*
X42942544Y-27320397D01*
X42899316Y-27255702D01*
X42844298Y-27200684D01*
X42779603Y-27157456D01*
X42707717Y-27127680D01*
X42631404Y-27112500D01*
X42553596Y-27112500D01*
X42477283Y-27127680D01*
X42405397Y-27157456D01*
X42340702Y-27200684D01*
X42285684Y-27255702D01*
X42242456Y-27320397D01*
X42212680Y-27392283D01*
X42197500Y-27468596D01*
X42127210Y-27468596D01*
X42085000Y-27426386D01*
X42085000Y-25487762D01*
X42086257Y-25474999D01*
X42085000Y-25462236D01*
X42085000Y-25462227D01*
X42081238Y-25424031D01*
X42066371Y-25375021D01*
X42042228Y-25329853D01*
X42019204Y-25301798D01*
X42017879Y-25300183D01*
X42017875Y-25300179D01*
X42009737Y-25290263D01*
X41999821Y-25282125D01*
X40303792Y-23586096D01*
X43605000Y-23586096D01*
X43605000Y-23663904D01*
X43620180Y-23740217D01*
X43649956Y-23812103D01*
X43693184Y-23876798D01*
X43748202Y-23931816D01*
X43812897Y-23975044D01*
X43884783Y-24004820D01*
X43961096Y-24020000D01*
X44038904Y-24020000D01*
X44115217Y-24004820D01*
X44187103Y-23975044D01*
X44251798Y-23931816D01*
X44306816Y-23876798D01*
X44350044Y-23812103D01*
X44379820Y-23740217D01*
X44395000Y-23663904D01*
X44395000Y-23586096D01*
X44379820Y-23509783D01*
X44350044Y-23437897D01*
X44306816Y-23373202D01*
X44251798Y-23318184D01*
X44187103Y-23274956D01*
X44115217Y-23245180D01*
X44038904Y-23230000D01*
X43961096Y-23230000D01*
X43884783Y-23245180D01*
X43812897Y-23274956D01*
X43748202Y-23318184D01*
X43693184Y-23373202D01*
X43649956Y-23437897D01*
X43620180Y-23509783D01*
X43605000Y-23586096D01*
X40303792Y-23586096D01*
X39178792Y-22461096D01*
X40505000Y-22461096D01*
X40505000Y-22538904D01*
X40520180Y-22615217D01*
X40549956Y-22687103D01*
X40593184Y-22751798D01*
X40648202Y-22806816D01*
X40712897Y-22850044D01*
X40784783Y-22879820D01*
X40861096Y-22895000D01*
X40931213Y-22895000D01*
X40945180Y-22965217D01*
X40974956Y-23037103D01*
X41018184Y-23101798D01*
X41073202Y-23156816D01*
X41137897Y-23200044D01*
X41209783Y-23229820D01*
X41286096Y-23245000D01*
X41363904Y-23245000D01*
X41440217Y-23229820D01*
X41512103Y-23200044D01*
X41576798Y-23156816D01*
X41631816Y-23101798D01*
X41675044Y-23037103D01*
X41704820Y-22965217D01*
X41720000Y-22888904D01*
X41720000Y-22811096D01*
X41704820Y-22734783D01*
X41675044Y-22662897D01*
X41631816Y-22598202D01*
X41576798Y-22543184D01*
X41512103Y-22499956D01*
X41440217Y-22470180D01*
X41363904Y-22455000D01*
X41293787Y-22455000D01*
X41279820Y-22384783D01*
X41250044Y-22312897D01*
X41206816Y-22248202D01*
X41151798Y-22193184D01*
X41087103Y-22149956D01*
X41015217Y-22120180D01*
X40938904Y-22105000D01*
X40861096Y-22105000D01*
X40784783Y-22120180D01*
X40712897Y-22149956D01*
X40648202Y-22193184D01*
X40593184Y-22248202D01*
X40549956Y-22312897D01*
X40520180Y-22384783D01*
X40505000Y-22461096D01*
X39178792Y-22461096D01*
X34842884Y-18125190D01*
X34834737Y-18115263D01*
X34829660Y-18111096D01*
X40955000Y-18111096D01*
X40955000Y-18188904D01*
X40970180Y-18265217D01*
X40999956Y-18337103D01*
X41043184Y-18401798D01*
X41098202Y-18456816D01*
X41162897Y-18500044D01*
X41234783Y-18529820D01*
X41311096Y-18545000D01*
X41388904Y-18545000D01*
X41465217Y-18529820D01*
X41537103Y-18500044D01*
X41601798Y-18456816D01*
X41656816Y-18401798D01*
X41700044Y-18337103D01*
X41729820Y-18265217D01*
X41745000Y-18188904D01*
X41745000Y-18111096D01*
X41729820Y-18034783D01*
X41700044Y-17962897D01*
X41656816Y-17898202D01*
X41601798Y-17843184D01*
X41537103Y-17799956D01*
X41465217Y-17770180D01*
X41388904Y-17755000D01*
X41311096Y-17755000D01*
X41234783Y-17770180D01*
X41162897Y-17799956D01*
X41098202Y-17843184D01*
X41043184Y-17898202D01*
X40999956Y-17962897D01*
X40970180Y-18034783D01*
X40955000Y-18111096D01*
X34829660Y-18111096D01*
X34795147Y-18082772D01*
X34749979Y-18058629D01*
X34700969Y-18043762D01*
X34662773Y-18040000D01*
X34662762Y-18040000D01*
X34650000Y-18038743D01*
X34637238Y-18040000D01*
X34048614Y-18040000D01*
X34001798Y-17993184D01*
X33937103Y-17949956D01*
X33865217Y-17920180D01*
X33788904Y-17905000D01*
X33711096Y-17905000D01*
X33634783Y-17920180D01*
X33562897Y-17949956D01*
X33498202Y-17993184D01*
X33475000Y-18016386D01*
X33451798Y-17993184D01*
X33387103Y-17949956D01*
X33315217Y-17920180D01*
X33238904Y-17905000D01*
X33161096Y-17905000D01*
X33084783Y-17920180D01*
X33012897Y-17949956D01*
X32948202Y-17993184D01*
X32893184Y-18048202D01*
X32849956Y-18112897D01*
X32820180Y-18184783D01*
X32805000Y-18261096D01*
X28878791Y-18261096D01*
X27578791Y-16961096D01*
X35505000Y-16961096D01*
X35505000Y-17038904D01*
X35520180Y-17115217D01*
X35549956Y-17187103D01*
X35593184Y-17251798D01*
X35648202Y-17306816D01*
X35712897Y-17350044D01*
X35784783Y-17379820D01*
X35861096Y-17395000D01*
X35938904Y-17395000D01*
X36015217Y-17379820D01*
X36087103Y-17350044D01*
X36151798Y-17306816D01*
X36206816Y-17251798D01*
X36250044Y-17187103D01*
X36279820Y-17115217D01*
X36295000Y-17038904D01*
X36295000Y-17011096D01*
X41080000Y-17011096D01*
X41080000Y-17088904D01*
X41095180Y-17165217D01*
X41124956Y-17237103D01*
X41168184Y-17301798D01*
X41223202Y-17356816D01*
X41287897Y-17400044D01*
X41359783Y-17429820D01*
X41436096Y-17445000D01*
X41513904Y-17445000D01*
X41590217Y-17429820D01*
X41662103Y-17400044D01*
X41726798Y-17356816D01*
X41781816Y-17301798D01*
X41825044Y-17237103D01*
X41854820Y-17165217D01*
X41870000Y-17088904D01*
X41870000Y-17011096D01*
X41854820Y-16934783D01*
X41825044Y-16862897D01*
X41781816Y-16798202D01*
X41726798Y-16743184D01*
X41662103Y-16699956D01*
X41590217Y-16670180D01*
X41513904Y-16655000D01*
X41436096Y-16655000D01*
X41359783Y-16670180D01*
X41287897Y-16699956D01*
X41223202Y-16743184D01*
X41168184Y-16798202D01*
X41124956Y-16862897D01*
X41095180Y-16934783D01*
X41080000Y-17011096D01*
X36295000Y-17011096D01*
X36295000Y-16961096D01*
X36279820Y-16884783D01*
X36250044Y-16812897D01*
X36206816Y-16748202D01*
X36151798Y-16693184D01*
X36087103Y-16649956D01*
X36015217Y-16620180D01*
X35938904Y-16605000D01*
X35861096Y-16605000D01*
X35784783Y-16620180D01*
X35712897Y-16649956D01*
X35648202Y-16693184D01*
X35593184Y-16748202D01*
X35549956Y-16812897D01*
X35520180Y-16884783D01*
X35505000Y-16961096D01*
X27578791Y-16961096D01*
X26928791Y-16311096D01*
X37055000Y-16311096D01*
X37055000Y-16388904D01*
X37070180Y-16465217D01*
X37099956Y-16537103D01*
X37143184Y-16601798D01*
X37198202Y-16656816D01*
X37262897Y-16700044D01*
X37334783Y-16729820D01*
X37411096Y-16745000D01*
X37488904Y-16745000D01*
X37565217Y-16729820D01*
X37637103Y-16700044D01*
X37701798Y-16656816D01*
X37756816Y-16601798D01*
X37800044Y-16537103D01*
X37821171Y-16486096D01*
X38630000Y-16486096D01*
X38630000Y-16563904D01*
X38645180Y-16640217D01*
X38674956Y-16712103D01*
X38718184Y-16776798D01*
X38773202Y-16831816D01*
X38837897Y-16875044D01*
X38909783Y-16904820D01*
X38986096Y-16920000D01*
X39063904Y-16920000D01*
X39140217Y-16904820D01*
X39212103Y-16875044D01*
X39276798Y-16831816D01*
X39331816Y-16776798D01*
X39375044Y-16712103D01*
X39404820Y-16640217D01*
X39420000Y-16563904D01*
X39420000Y-16486096D01*
X39404820Y-16409783D01*
X39375044Y-16337897D01*
X39331816Y-16273202D01*
X39276798Y-16218184D01*
X39212103Y-16174956D01*
X39140217Y-16145180D01*
X39063904Y-16130000D01*
X38986096Y-16130000D01*
X38909783Y-16145180D01*
X38837897Y-16174956D01*
X38773202Y-16218184D01*
X38718184Y-16273202D01*
X38674956Y-16337897D01*
X38645180Y-16409783D01*
X38630000Y-16486096D01*
X37821171Y-16486096D01*
X37829820Y-16465217D01*
X37845000Y-16388904D01*
X37845000Y-16311096D01*
X37829820Y-16234783D01*
X37800044Y-16162897D01*
X37756816Y-16098202D01*
X37701798Y-16043184D01*
X37637103Y-15999956D01*
X37565217Y-15970180D01*
X37488904Y-15955000D01*
X37411096Y-15955000D01*
X37334783Y-15970180D01*
X37262897Y-15999956D01*
X37198202Y-16043184D01*
X37143184Y-16098202D01*
X37099956Y-16162897D01*
X37070180Y-16234783D01*
X37055000Y-16311096D01*
X26928791Y-16311096D01*
X26895000Y-16277306D01*
X26895000Y-16211096D01*
X26879820Y-16134783D01*
X26850044Y-16062897D01*
X26806816Y-15998202D01*
X26751798Y-15943184D01*
X26687103Y-15899956D01*
X26615217Y-15870180D01*
X26538904Y-15855000D01*
X26461096Y-15855000D01*
X26384783Y-15870180D01*
X26312897Y-15899956D01*
X26248202Y-15943184D01*
X26225000Y-15966386D01*
X26201798Y-15943184D01*
X26137103Y-15899956D01*
X26065217Y-15870180D01*
X25988904Y-15855000D01*
X25911096Y-15855000D01*
X25834783Y-15870180D01*
X25762897Y-15899956D01*
X25717933Y-15930000D01*
X18465712Y-15930000D01*
X18449999Y-15928452D01*
X18434286Y-15930000D01*
X18434282Y-15930000D01*
X18387269Y-15934630D01*
X18326949Y-15952928D01*
X18323073Y-15955000D01*
X18271357Y-15982643D01*
X18250261Y-15999956D01*
X18222631Y-16022631D01*
X18212610Y-16034842D01*
X16234848Y-18012605D01*
X16222631Y-18022631D01*
X16196318Y-18054695D01*
X16182643Y-18071358D01*
X16176542Y-18082772D01*
X16152928Y-18126950D01*
X16134630Y-18187270D01*
X16130000Y-18234282D01*
X16128452Y-18250000D01*
X16130000Y-18265713D01*
X16130000Y-18467933D01*
X16099956Y-18512897D01*
X16070180Y-18584783D01*
X16055000Y-18661096D01*
X16055000Y-18738904D01*
X16070180Y-18815217D01*
X16099956Y-18887103D01*
X16143184Y-18951798D01*
X16198202Y-19006816D01*
X16262897Y-19050044D01*
X16334783Y-19079820D01*
X16411096Y-19095000D01*
X16488904Y-19095000D01*
X16565217Y-19079820D01*
X16637103Y-19050044D01*
X16701798Y-19006816D01*
X16756816Y-18951798D01*
X16800044Y-18887103D01*
X16829820Y-18815217D01*
X16834264Y-18792878D01*
X16848202Y-18806816D01*
X16912897Y-18850044D01*
X16984783Y-18879820D01*
X17061096Y-18895000D01*
X17138904Y-18895000D01*
X17215217Y-18879820D01*
X17287103Y-18850044D01*
X17351798Y-18806816D01*
X17398614Y-18760000D01*
X22206986Y-18760000D01*
X22206986Y-18799066D01*
X22222166Y-18875379D01*
X22251942Y-18947265D01*
X22295170Y-19011960D01*
X22350188Y-19066978D01*
X22414883Y-19110206D01*
X22486769Y-19139982D01*
X22562268Y-19155000D01*
X22561096Y-19155000D01*
X22484783Y-19170180D01*
X22412897Y-19199956D01*
X22348202Y-19243184D01*
X22293184Y-19298202D01*
X22249956Y-19362897D01*
X22220180Y-19434783D01*
X22205000Y-19511096D01*
X22205000Y-19588904D01*
X22220180Y-19665217D01*
X22249956Y-19737103D01*
X22293184Y-19801798D01*
X22348202Y-19856816D01*
X22412897Y-19900044D01*
X22484783Y-19929820D01*
X22561096Y-19945000D01*
X22638904Y-19945000D01*
X22715217Y-19929820D01*
X22787103Y-19900044D01*
X22807673Y-19886299D01*
X22807673Y-20204423D01*
X22357097Y-20655000D01*
X21006565Y-20655000D01*
X20989629Y-20653332D01*
X20972693Y-20655000D01*
X20972684Y-20655000D01*
X20921998Y-20659992D01*
X20856966Y-20679720D01*
X20797031Y-20711755D01*
X20744498Y-20754868D01*
X20733697Y-20768029D01*
X15916125Y-25585602D01*
X15902964Y-25596403D01*
X15892163Y-25609564D01*
X15892161Y-25609566D01*
X15859850Y-25648937D01*
X15827816Y-25708871D01*
X15808087Y-25773904D01*
X15801427Y-25841535D01*
X15615000Y-25841535D01*
X15615000Y-21761096D01*
X18605000Y-21761096D01*
X18605000Y-21838904D01*
X18620180Y-21915217D01*
X18649956Y-21987103D01*
X18693184Y-22051798D01*
X18748202Y-22106816D01*
X18812897Y-22150044D01*
X18884783Y-22179820D01*
X18961096Y-22195000D01*
X19038904Y-22195000D01*
X19115217Y-22179820D01*
X19187103Y-22150044D01*
X19251798Y-22106816D01*
X19306816Y-22051798D01*
X19350044Y-21987103D01*
X19379820Y-21915217D01*
X19395000Y-21838904D01*
X19395000Y-21761096D01*
X19379820Y-21684783D01*
X19350044Y-21612897D01*
X19306816Y-21548202D01*
X19251798Y-21493184D01*
X19187103Y-21449956D01*
X19115217Y-21420180D01*
X19038904Y-21405000D01*
X18961096Y-21405000D01*
X18884783Y-21420180D01*
X18812897Y-21449956D01*
X18748202Y-21493184D01*
X18693184Y-21548202D01*
X18649956Y-21612897D01*
X18620180Y-21684783D01*
X18605000Y-21761096D01*
X15615000Y-21761096D01*
X15615000Y-20461096D01*
X18405000Y-20461096D01*
X18405000Y-20538904D01*
X18420180Y-20615217D01*
X18449956Y-20687103D01*
X18493184Y-20751798D01*
X18548202Y-20806816D01*
X18612897Y-20850044D01*
X18684783Y-20879820D01*
X18761096Y-20895000D01*
X18838904Y-20895000D01*
X18915217Y-20879820D01*
X18987103Y-20850044D01*
X19051798Y-20806816D01*
X19106816Y-20751798D01*
X19150044Y-20687103D01*
X19179820Y-20615217D01*
X19195000Y-20538904D01*
X19195000Y-20461096D01*
X19179820Y-20384783D01*
X19150044Y-20312897D01*
X19106816Y-20248202D01*
X19051798Y-20193184D01*
X18987103Y-20149956D01*
X18915217Y-20120180D01*
X18838904Y-20105000D01*
X18761096Y-20105000D01*
X18684783Y-20120180D01*
X18612897Y-20149956D01*
X18548202Y-20193184D01*
X18493184Y-20248202D01*
X18449956Y-20312897D01*
X18420180Y-20384783D01*
X18405000Y-20461096D01*
X15615000Y-20461096D01*
X15615000Y-15565000D01*
X44485000Y-15565000D01*
X44485000Y-20870137D01*
%TD*%
M02*
